<?xml version="1.0" encoding="utf-8" standalone="no"?>
<!DOCTYPE svg PUBLIC "-//W3C//DTD SVG 1.1//EN"
  "http://www.w3.org/Graphics/SVG/1.1/DTD/svg11.dtd">
<svg xmlns:xlink="http://www.w3.org/1999/xlink" width="432pt" height="432pt" viewBox="0 0 432 432" xmlns="http://www.w3.org/2000/svg" version="1.1">
 <metadata>
  <rdf:RDF xmlns:dc="http://purl.org/dc/elements/1.1/" xmlns:cc="http://creativecommons.org/ns#" xmlns:rdf="http://www.w3.org/1999/02/22-rdf-syntax-ns#">
   <cc:Work>
    <dc:type rdf:resource="http://purl.org/dc/dcmitype/StillImage"/>
    <dc:date>2024-11-18T20:58:29.534075</dc:date>
    <dc:format>image/svg+xml</dc:format>
    <dc:creator>
     <cc:Agent>
      <dc:title>Matplotlib v3.9.0, https://matplotlib.org/</dc:title>
     </cc:Agent>
    </dc:creator>
   </cc:Work>
  </rdf:RDF>
 </metadata>
 <defs>
  <style type="text/css">*{stroke-linejoin: round; stroke-linecap: butt}</style>
 </defs>
 <g id="figure_1">
  <g id="patch_1">
   <path d="M 0 432 
L 432 432 
L 432 0 
L 0 0 
z
" style="fill: #ffffff"/>
  </g>
  <g id="axes_1">
   <g id="patch_2">
    <path d="M 210.544682 22.200993 
L 42.709818 119.100497 
L 42.709818 312.899503 
L 210.544682 409.799007 
L 378.379545 312.899503 
L 378.379545 119.100497 
z
" style="fill: #ffffff"/>
   </g>
   <g id="patch_3">
    <path d="M 210.544682 30.546405 
L 190.468741 204.40915 
L 57.967533 304.090458 
L 210.544682 280.908758 
L 234.63581 229.90902 
L 234.63581 202.09098 
z
" clip-path="url(#p052d633592)" style="fill: #1f77b4; opacity: 0.25"/>
   </g>
   <g id="patch_4">
    <path d="M 210.544682 58.364444 
L 82.058662 141.818562 
L 146.301672 253.090719 
L 210.544682 317.999477 
L 306.909196 271.636079 
L 347.061077 137.182222 
z
" clip-path="url(#p052d633592)" style="fill: #ff7f0e; opacity: 0.25"/>
   </g>
   <g id="patch_5">
    <path d="M 210.544682 49.091764 
L 114.180167 160.363921 
L 122.210543 266.999739 
L 210.544682 317.999477 
L 226.605434 225.27268 
L 306.909196 160.363921 
z
" clip-path="url(#p052d633592)" style="fill: #2ca02c; opacity: 0.25"/>
   </g>
   <g id="matplotlib.axis_1">
    <g id="xtick_1">
     <g id="line2d_1">
      <path d="M 210.544682 216 
L 210.544682 183.700166 
L 210.544682 151.400331 
L 210.544682 119.100497 
L 210.544682 86.800662 
L 210.544682 54.500828 
L 210.544682 22.200993 
" clip-path="url(#p052d633592)" style="fill: none; stroke: #b0b0b0; stroke-width: 0.8; stroke-linecap: square"/>
     </g>
     <g id="text_1">
      <!-- $S_{uts}$ -->
      <g transform="translate(197.708327 11.942957) scale(0.16 -0.16)">
       <defs>
        <path id="NewTXBMI-59" d="M 2995 1175 
C 2995 1734 2707 2157 1920 2754 
C 1523 3056 1427 3197 1427 3486 
C 1427 3903 1683 4160 2093 4160 
C 2605 4160 2854 3843 2938 3086 
L 3110 3060 
L 3366 4358 
L 3174 4358 
C 3117 4243 3027 4192 2893 4192 
C 2829 4192 2733 4211 2566 4262 
C 2298 4352 2125 4384 1939 4384 
C 1210 4384 653 3844 653 3138 
C 653 2966 685 2824 736 2715 
C 877 2445 1133 2163 1498 1880 
C 2003 1495 2221 1200 2221 898 
C 2221 757 2176 597 2099 462 
C 1952 211 1734 89 1414 89 
C 1082 89 800 241 634 501 
C 506 697 454 893 429 1280 
L 243 1280 
L 13 -128 
L 205 -128 
C 282 51 326 89 448 89 
C 512 89 595 71 742 20 
C 1056 -84 1274 -128 1530 -128 
C 2426 -128 2995 379 2995 1175 
z
" transform="scale(0.015625)"/>
        <path id="NewTXBMI-75" d="M 3149 757 
L 3014 840 
C 2790 499 2662 372 2554 372 
C 2502 372 2464 416 2464 481 
C 2464 558 2534 866 2624 1156 
L 3123 2880 
L 2368 2880 
C 2010 1638 1830 1214 1459 751 
C 1261 507 1120 397 992 397 
C 902 397 858 448 858 558 
C 858 654 864 693 954 983 
L 1555 2963 
C 1517 2954 1472 2947 1376 2923 
C 902 2818 525 2752 218 2752 
L 218 2560 
C 512 2560 576 2528 576 2401 
C 576 2299 544 2121 486 1937 
L 230 1092 
C 141 775 96 565 96 406 
C 96 95 256 -64 576 -64 
C 1005 -64 1197 102 1856 1017 
C 1741 667 1702 502 1702 318 
C 1702 57 1837 -64 2118 -64 
C 2502 -64 2816 191 3149 757 
z
" transform="scale(0.015625)"/>
        <path id="NewTXBMI-74" d="M 1440 837 
L 1299 926 
C 1082 588 915 415 813 415 
C 762 415 710 460 710 511 
C 710 632 826 1073 1056 1864 
L 1267 2624 
L 1798 2624 
L 1798 2893 
L 1338 2893 
L 1587 3808 
L 1363 3808 
C 1018 3303 698 3037 192 2848 
L 192 2624 
L 518 2624 
L 83 1105 
C -13 773 -70 499 -70 383 
C -70 135 109 -32 378 -32 
C 762 -32 1018 180 1440 837 
z
" transform="scale(0.015625)"/>
        <path id="NewTXBMI-73" d="M 1786 777 
C 1786 1064 1626 1375 1267 1789 
C 1018 2076 909 2267 909 2414 
C 909 2618 1043 2752 1248 2752 
C 1542 2752 1709 2522 1811 1994 
L 1984 1981 
L 2131 2956 
L 1946 2956 
C 1875 2835 1856 2822 1760 2822 
C 1696 2822 1645 2834 1530 2877 
C 1370 2938 1286 2956 1158 2956 
C 640 2956 301 2644 301 2155 
C 301 1812 390 1634 813 1132 
C 1056 846 1171 629 1171 471 
C 1171 280 1011 128 806 128 
C 480 128 275 408 192 975 
L 19 994 
L -122 -64 
L 51 -64 
C 77 13 154 64 237 64 
C 282 64 352 45 435 13 
C 589 -39 704 -64 838 -64 
C 1382 -64 1786 299 1786 777 
z
" transform="scale(0.015625)"/>
       </defs>
       <use xlink:href="#NewTXBMI-59" transform="scale(0.996264)"/>
       <use xlink:href="#NewTXBMI-75" transform="translate(59.218908 -14.943915) scale(0.727268)"/>
       <use xlink:href="#NewTXBMI-74" transform="translate(105.473159 -14.943915) scale(0.727268)"/>
       <use xlink:href="#NewTXBMI-73" transform="translate(132.16387 -14.943915) scale(0.727268)"/>
      </g>
     </g>
    </g>
    <g id="xtick_2">
     <g id="line2d_2">
      <path d="M 210.544682 216 
L 182.572204 199.850083 
L 154.599727 183.700166 
L 126.62725 167.550248 
L 98.654773 151.400331 
L 70.682296 135.250414 
L 42.709818 119.100497 
" clip-path="url(#p052d633592)" style="fill: none; stroke: #b0b0b0; stroke-width: 0.8; stroke-linecap: square"/>
     </g>
     <g id="text_2">
      <!-- $\varepsilon_u$ -->
      <g transform="translate(22.923901 115.842461) scale(0.16 -0.16)">
       <defs>
        <path id="NewTXBMI-39" d="M 3264 2330 
C 3264 2829 2394 2944 2022 2944 
C 1491 2944 634 2715 634 2040 
C 634 1759 851 1628 1088 1543 
C 659 1485 109 1219 109 724 
C 109 70 896 -64 1402 -64 
C 1907 -64 2515 86 2854 495 
C 2938 592 3008 715 3008 844 
C 3008 1000 2874 1117 2726 1117 
C 2298 1117 2291 135 1472 135 
C 1114 135 973 338 973 673 
C 973 1021 1197 1344 1574 1344 
C 1760 1344 1939 1274 2131 1274 
C 2298 1274 2362 1370 2362 1530 
C 2362 1677 2272 1728 2138 1728 
C 2029 1728 1926 1671 1818 1671 
C 1632 1671 1414 1730 1414 1961 
C 1414 2337 1587 2739 2010 2739 
C 2618 2739 2496 2029 2976 2029 
C 3174 2029 3264 2138 3264 2330 
z
" transform="scale(0.015625)"/>
       </defs>
       <use xlink:href="#NewTXBMI-39" transform="scale(0.996264)"/>
       <use xlink:href="#NewTXBMI-75" transform="translate(55.333515 -14.943915) scale(0.727268)"/>
      </g>
     </g>
    </g>
    <g id="xtick_3">
     <g id="line2d_3">
      <path d="M 210.544682 216 
L 182.572204 232.149917 
L 154.599727 248.299834 
L 126.62725 264.449752 
L 98.654773 280.599669 
L 70.682296 296.749586 
L 42.709818 312.899503 
" clip-path="url(#p052d633592)" style="fill: none; stroke: #b0b0b0; stroke-width: 0.8; stroke-linecap: square"/>
     </g>
     <g id="text_3">
      <!-- $k$ -->
      <g transform="translate(26.600407 323.641468) scale(0.16 -0.16)">
       <defs>
        <path id="NewTXBMI-6b" d="M 2861 728 
L 2720 799 
C 2547 493 2445 390 2323 390 
C 2144 390 2074 613 1824 1858 
L 2227 2209 
C 2662 2578 2797 2655 3091 2694 
L 3091 2855 
L 1766 2855 
L 1766 2688 
C 2016 2688 2093 2656 2093 2553 
C 2093 2386 1850 2148 1043 1513 
L 1830 4461 
C 1338 4371 998 4320 499 4269 
L 499 4096 
L 634 4096 
C 819 4096 902 4026 902 3879 
C 902 3815 890 3751 851 3611 
L -147 -13 
L 634 -13 
L 954 1187 
L 1203 1360 
C 1408 274 1594 -64 1990 -64 
C 2310 -64 2541 141 2861 728 
z
" transform="scale(0.015625)"/>
       </defs>
       <use xlink:href="#NewTXBMI-6b" transform="scale(0.996264)"/>
      </g>
     </g>
    </g>
    <g id="xtick_4">
     <g id="line2d_4">
      <path d="M 210.544682 216 
L 210.544682 248.299834 
L 210.544682 280.599669 
L 210.544682 312.899503 
L 210.544682 345.199338 
L 210.544682 377.499172 
L 210.544682 409.799007 
" clip-path="url(#p052d633592)" style="fill: none; stroke: #b0b0b0; stroke-width: 0.8; stroke-linecap: square"/>
     </g>
     <g id="text_4">
      <!-- $\mathcal{R}_x$ -->
      <g transform="translate(201.525722 427.540971) scale(0.16 -0.16)">
       <defs>
        <path id="txbsys-52" d="M 4730 3516 
C 4730 4396 3482 4396 2854 4396 
C 2387 4396 1914 4314 1478 4144 
C 973 3944 109 3378 109 2774 
C 109 2598 627 2189 800 2189 
C 813 2189 826 2195 832 2195 
C 678 2348 666 2559 666 2757 
C 666 3630 1683 4224 2470 4224 
C 2176 4109 1862 3974 1677 3706 
C 1280 3141 986 -9 314 -9 
C 358 -43 410 -54 467 -54 
C 749 -54 1242 197 1427 403 
C 1670 680 1888 1757 1984 2157 
C 2099 2131 2214 2112 2336 2112 
C 2355 2112 2400 2034 2413 2015 
C 2586 1706 3424 29 3706 29 
C 3968 29 4506 171 4627 430 
C 4582 397 4531 378 4480 378 
C 4064 378 3283 1815 3078 2176 
C 3686 2299 4730 2778 4730 3516 
z
M 3814 3506 
C 3814 2857 3002 2343 2406 2343 
C 2285 2343 2163 2368 2048 2420 
C 2106 2700 2374 4224 2682 4224 
C 3104 4224 3814 4027 3814 3506 
z
" transform="scale(0.015625)"/>
        <path id="NewTXBMI-78" d="M 2694 717 
L 2560 806 
C 2310 486 2246 429 2131 429 
C 2010 429 1946 518 1894 767 
L 1690 1762 
C 1709 1788 1715 1801 1747 1845 
C 1978 2216 2131 2368 2278 2368 
C 2317 2368 2362 2349 2438 2311 
C 2528 2253 2573 2240 2643 2240 
C 2835 2240 3002 2394 3002 2579 
C 3002 2784 2829 2970 2630 2970 
C 2330 2970 2125 2797 1619 2087 
C 1504 2631 1453 2791 1331 2970 
L 262 2816 
L 262 2643 
C 384 2656 429 2656 486 2656 
C 691 2656 781 2541 845 2228 
L 1037 1246 
L 755 799 
C 627 589 563 537 448 537 
C 410 537 378 550 314 589 
C 211 646 141 672 58 672 
C -141 672 -294 518 -294 313 
C -294 89 -128 -64 115 -64 
C 435 -64 576 64 954 677 
L 1107 927 
C 1248 192 1408 -64 1728 -64 
C 2035 -64 2304 153 2694 717 
z
" transform="scale(0.015625)"/>
       </defs>
       <use xlink:href="#txbsys-52" transform="scale(0.996264)"/>
       <use xlink:href="#NewTXBMI-78" transform="translate(76.373618 -14.943915) scale(0.727268)"/>
      </g>
     </g>
    </g>
    <g id="xtick_5">
     <g id="line2d_5">
      <path d="M 210.544682 216 
L 238.517159 232.149917 
L 266.489636 248.299834 
L 294.462113 264.449752 
L 322.43459 280.599669 
L 350.407068 296.749586 
L 378.379545 312.899503 
" clip-path="url(#p052d633592)" style="fill: none; stroke: #b0b0b0; stroke-width: 0.8; stroke-linecap: square"/>
     </g>
     <g id="text_5">
      <!-- $DBTT$ -->
      <g transform="translate(368.354964 323.641468) scale(0.16 -0.16)">
       <defs>
        <path id="NewTXBMI-4a" d="M 4384 2538 
C 4384 3634 3667 4288 2458 4288 
L 602 4288 
L 602 4128 
L 800 4096 
C 1005 4070 1069 4012 1069 3859 
C 1069 3794 1050 3691 992 3480 
L 218 622 
C 122 294 13 198 -294 160 
L -294 0 
L 1536 0 
C 3174 0 4384 1077 4384 2538 
z
M 3443 2929 
C 3443 2217 3238 1468 2906 974 
C 2554 461 2099 218 1478 218 
C 1235 218 1133 282 1133 435 
C 1133 512 1152 609 1210 782 
L 1216 807 
L 2035 3846 
C 2080 4025 2176 4089 2387 4089 
C 3098 4089 3443 3711 3443 2929 
z
" transform="scale(0.015625)"/>
        <path id="NewTXBMI-48" d="M 3661 1321 
C 3661 1823 3437 2066 2784 2278 
C 3270 2400 3469 2489 3693 2675 
C 3885 2835 3994 3091 3994 3353 
C 3994 3968 3475 4288 2483 4288 
L 742 4288 
L 742 4121 
C 979 4121 1037 4108 1114 4063 
C 1165 4031 1210 3947 1210 3870 
C 1210 3806 1184 3665 1139 3504 
L 358 622 
C 256 294 154 198 -154 160 
L -154 0 
L 1773 0 
C 2944 0 3661 500 3661 1321 
z
M 2682 1474 
C 2682 1094 2534 694 2304 463 
C 2131 289 1914 205 1632 205 
C 1382 205 1267 269 1267 416 
C 1267 467 1274 512 1299 602 
L 1722 2163 
C 2138 2163 2323 2125 2458 2022 
C 2605 1905 2682 1712 2682 1474 
z
M 3053 3431 
C 3053 3020 2918 2710 2662 2542 
C 2464 2413 2246 2368 1773 2368 
L 2163 3802 
C 2227 4032 2291 4083 2496 4083 
C 2867 4083 3053 3863 3053 3431 
z
" transform="scale(0.015625)"/>
        <path id="NewTXBMI-5a" d="M 3930 3057 
L 4160 4288 
L 634 4288 
L 390 3192 
L 550 3147 
C 883 3792 1286 4057 1939 4057 
L 992 621 
C 902 288 736 160 410 160 
L 320 160 
L 320 0 
L 2438 0 
L 2438 160 
C 1984 160 1907 199 1907 404 
C 1907 501 1933 629 1978 803 
L 2874 4057 
C 3475 4057 3725 3781 3757 3070 
L 3930 3057 
z
" transform="scale(0.015625)"/>
       </defs>
       <use xlink:href="#NewTXBMI-4a" transform="scale(0.996264)"/>
       <use xlink:href="#NewTXBMI-48" transform="translate(83.785749 0) scale(0.996264)"/>
       <use xlink:href="#NewTXBMI-5a" transform="translate(150.834228 0) scale(0.996264)"/>
       <use xlink:href="#NewTXBMI-5a" transform="translate(215.989904 0) scale(0.996264)"/>
      </g>
     </g>
    </g>
    <g id="xtick_6">
     <g id="line2d_6">
      <path d="M 210.544682 216 
L 238.517159 199.850083 
L 266.489636 183.700166 
L 294.462113 167.550248 
L 322.43459 151.400331 
L 350.407068 135.250414 
L 378.379545 119.100497 
" clip-path="url(#p052d633592)" style="fill: none; stroke: #b0b0b0; stroke-width: 0.8; stroke-linecap: square"/>
     </g>
     <g id="text_6">
      <!-- $S_{t}$ -->
      <g transform="translate(383.98023 115.842461) scale(0.16 -0.16)">
       <use xlink:href="#NewTXBMI-59" transform="scale(0.996264)"/>
       <use xlink:href="#NewTXBMI-74" transform="translate(61.327943 -14.943915) scale(0.727268)"/>
      </g>
     </g>
    </g>
   </g>
   <g id="matplotlib.axis_2">
    <g id="ytick_1">
     <g id="line2d_7">
      <path d="M 210.544682 216 
L 210.544682 216 
L 210.544682 216 
L 210.544682 216 
L 210.544682 216 
L 210.544682 216 
L 210.544682 216 
" clip-path="url(#p052d633592)" style="fill: none; stroke: #b0b0b0; stroke-width: 0.8; stroke-linecap: square"/>
     </g>
     <g id="text_7">
      <!-- $\mathdefault{−1.0}$ -->
      <g transform="translate(210.544682 213.838109) scale(0.1 -0.1)">
       <defs>
        <path id="txbsys-0" d="M 3929 1341 
L 3929 1955 
L 396 1955 
L 396 1341 
L 3929 1341 
z
" transform="scale(0.015625)"/>
        <path id="TeXGyreTermesX-Bold-31" d="M 2829 0 
L 2829 159 
C 2246 159 2138 255 2138 746 
L 2138 4384 
L 2029 4384 
L 416 3686 
L 416 3521 
C 474 3540 525 3559 544 3572 
C 717 3635 877 3680 960 3680 
C 1120 3680 1190 3540 1190 3241 
L 1190 790 
C 1190 267 1062 159 429 159 
L 429 0 
L 2829 0 
z
" transform="scale(0.015625)"/>
        <path id="NewTXBMI-93" d="M 1344 473 
C 1344 768 1101 1017 800 1017 
C 493 1017 262 761 262 473 
C 262 173 493 -64 800 -64 
C 1101 -64 1344 166 1344 473 
z
" transform="scale(0.015625)"/>
        <path id="TeXGyreTermesX-Bold-30" d="M 3046 2166 
C 3046 3440 2426 4403 1600 4403 
C 1184 4403 762 4123 499 3664 
C 294 3313 154 2714 154 2185 
C 154 873 755 -64 1606 -64 
C 2432 -64 3046 886 3046 2166 
z
M 2035 1434 
C 2035 1058 1984 561 1926 389 
C 1856 203 1754 114 1606 114 
C 1286 114 1165 491 1165 1434 
L 1165 2892 
C 1165 3855 1286 4224 1594 4224 
C 1907 4224 2035 3829 2035 2892 
L 2035 1434 
z
" transform="scale(0.015625)"/>
       </defs>
       <use xlink:href="#txbsys-0" transform="scale(0.996264)"/>
       <use xlink:href="#TeXGyreTermesX-Bold-31" transform="translate(67.347408 0) scale(0.996264)"/>
       <use xlink:href="#NewTXBMI-93" transform="translate(118.754606 0) scale(0.996264)"/>
       <use xlink:href="#TeXGyreTermesX-Bold-30" transform="translate(145.354867 0) scale(0.996264)"/>
      </g>
     </g>
    </g>
    <g id="ytick_2">
     <g id="line2d_8">
      <path d="M 210.544682 169.636601 
L 170.3928 192.818301 
L 170.3928 239.181699 
L 210.544682 262.363399 
L 250.696563 239.181699 
L 250.696563 192.818301 
L 210.544682 169.636601 
" clip-path="url(#p052d633592)" style="fill: none; stroke: #b0b0b0; stroke-width: 0.8; stroke-linecap: square"/>
     </g>
     <g id="text_8">
      <!-- $\mathdefault{−0.5}$ -->
      <g transform="translate(210.544682 167.47471) scale(0.1 -0.1)">
       <defs>
        <path id="TeXGyreTermesX-Bold-35" d="M 3008 4288 
L 947 4288 
L 326 2093 
C 934 2049 1197 2010 1478 1921 
C 2048 1743 2387 1381 2387 960 
C 2387 604 2106 324 1747 324 
C 1600 324 1427 400 1171 591 
C 896 795 704 877 538 877 
C 307 877 141 718 141 496 
C 141 159 512 -64 1082 -64 
C 2138 -64 2886 575 2886 1476 
C 2886 2140 2477 2652 1779 2850 
C 1536 2920 1338 2946 813 2946 
L 954 3481 
L 2733 3481 
L 3008 4288 
z
" transform="scale(0.015625)"/>
       </defs>
       <use xlink:href="#txbsys-0" transform="scale(0.996264)"/>
       <use xlink:href="#TeXGyreTermesX-Bold-30" transform="translate(67.347408 0) scale(0.996264)"/>
       <use xlink:href="#NewTXBMI-93" transform="translate(118.754606 0) scale(0.996264)"/>
       <use xlink:href="#TeXGyreTermesX-Bold-35" transform="translate(145.354867 0) scale(0.996264)"/>
      </g>
     </g>
    </g>
    <g id="ytick_3">
     <g id="line2d_9">
      <path d="M 210.544682 123.273202 
L 130.240919 169.636601 
L 130.240919 262.363399 
L 210.544682 308.726798 
L 290.848444 262.363399 
L 290.848444 169.636601 
L 210.544682 123.273202 
" clip-path="url(#p052d633592)" style="fill: none; stroke: #b0b0b0; stroke-width: 0.8; stroke-linecap: square"/>
     </g>
     <g id="text_9">
      <!-- $\mathdefault{0.0}$ -->
      <g transform="translate(210.544682 121.111311) scale(0.1 -0.1)">
       <use xlink:href="#TeXGyreTermesX-Bold-30" transform="scale(0.996264)"/>
       <use xlink:href="#NewTXBMI-93" transform="translate(51.407199 0) scale(0.996264)"/>
       <use xlink:href="#TeXGyreTermesX-Bold-30" transform="translate(78.00746 0) scale(0.996264)"/>
      </g>
     </g>
    </g>
    <g id="ytick_4">
     <g id="line2d_10">
      <path d="M 210.544682 76.909804 
L 90.089038 146.454902 
L 90.089038 285.545098 
L 210.544682 355.090196 
L 331.000325 285.545098 
L 331.000325 146.454902 
L 210.544682 76.909804 
" clip-path="url(#p052d633592)" style="fill: none; stroke: #b0b0b0; stroke-width: 0.8; stroke-linecap: square"/>
     </g>
     <g id="text_10">
      <!-- $\mathdefault{0.5}$ -->
      <g transform="translate(210.544682 74.747913) scale(0.1 -0.1)">
       <use xlink:href="#TeXGyreTermesX-Bold-30" transform="scale(0.996264)"/>
       <use xlink:href="#NewTXBMI-93" transform="translate(51.407199 0) scale(0.996264)"/>
       <use xlink:href="#TeXGyreTermesX-Bold-35" transform="translate(78.00746 0) scale(0.996264)"/>
      </g>
     </g>
    </g>
    <g id="ytick_5">
     <g id="line2d_11">
      <path d="M 210.544682 30.546405 
L 49.937157 123.273202 
L 49.937157 308.726798 
L 210.544682 401.453595 
L 371.152206 308.726798 
L 371.152206 123.273202 
L 210.544682 30.546405 
" clip-path="url(#p052d633592)" style="fill: none; stroke: #b0b0b0; stroke-width: 0.8; stroke-linecap: square"/>
     </g>
     <g id="text_11">
      <!-- $\mathdefault{1.0}$ -->
      <g transform="translate(210.544682 28.384514) scale(0.1 -0.1)">
       <use xlink:href="#TeXGyreTermesX-Bold-31" transform="scale(0.996264)"/>
       <use xlink:href="#NewTXBMI-93" transform="translate(51.407199 0) scale(0.996264)"/>
       <use xlink:href="#TeXGyreTermesX-Bold-30" transform="translate(78.00746 0) scale(0.996264)"/>
      </g>
     </g>
    </g>
   </g>
   <g id="line2d_12">
    <path d="M 210.544682 30.546405 
L 190.468741 204.40915 
L 57.967533 304.090458 
L 210.544682 280.908758 
L 234.63581 229.90902 
L 234.63581 202.09098 
L 210.544682 30.546405 
" clip-path="url(#p052d633592)" style="fill: none; stroke: #1f77b4; stroke-linecap: square"/>
   </g>
   <g id="line2d_13">
    <path d="M 210.544682 58.364444 
L 82.058662 141.818562 
L 146.301672 253.090719 
L 210.544682 317.999477 
L 306.909196 271.636079 
L 347.061077 137.182222 
L 210.544682 58.364444 
" clip-path="url(#p052d633592)" style="fill: none; stroke: #ff7f0e; stroke-linecap: square"/>
   </g>
   <g id="line2d_14">
    <path d="M 210.544682 49.091764 
L 114.180167 160.363921 
L 122.210543 266.999739 
L 210.544682 317.999477 
L 226.605434 225.27268 
L 306.909196 160.363921 
L 210.544682 49.091764 
" clip-path="url(#p052d633592)" style="fill: none; stroke: #2ca02c; stroke-linecap: square"/>
   </g>
   <g id="patch_6">
    <path d="M 210.544682 22.200993 
L 42.709818 119.100497 
L 42.709818 312.899503 
L 210.544682 409.799007 
L 378.379545 312.899503 
L 378.379545 119.100497 
L 210.544682 22.200993 
z
" style="fill: none; stroke: #000000; stroke-width: 0.8; stroke-linejoin: miter; stroke-linecap: square"/>
   </g>
  </g>
 </g>
 <defs>
  <clipPath id="p052d633592">
   <path d="M 210.544682 22.200993 
L 42.709818 119.100497 
L 42.709818 312.899503 
L 210.544682 409.799007 
L 378.379545 312.899503 
L 378.379545 119.100497 
z
"/>
  </clipPath>
 </defs>
</svg>
