<?xml version="1.0" encoding="utf-8" standalone="no"?>
<!DOCTYPE svg PUBLIC "-//W3C//DTD SVG 1.1//EN"
  "http://www.w3.org/Graphics/SVG/1.1/DTD/svg11.dtd">
<svg xmlns:xlink="http://www.w3.org/1999/xlink" width="396pt" height="288pt" viewBox="0 0 396 288" xmlns="http://www.w3.org/2000/svg" version="1.1">
 <metadata>
  <rdf:RDF xmlns:dc="http://purl.org/dc/elements/1.1/" xmlns:cc="http://creativecommons.org/ns#" xmlns:rdf="http://www.w3.org/1999/02/22-rdf-syntax-ns#">
   <cc:Work>
    <dc:type rdf:resource="http://purl.org/dc/dcmitype/StillImage"/>
    <dc:date>2025-01-13T16:50:13.026669</dc:date>
    <dc:format>image/svg+xml</dc:format>
    <dc:creator>
     <cc:Agent>
      <dc:title>Matplotlib v3.9.0, https://matplotlib.org/</dc:title>
     </cc:Agent>
    </dc:creator>
   </cc:Work>
  </rdf:RDF>
 </metadata>
 <defs>
  <style type="text/css">*{stroke-linejoin: round; stroke-linecap: butt}</style>
 </defs>
 <g id="figure_1">
  <g id="patch_1">
   <path d="M 0 288 
L 396 288 
L 396 0 
L 0 0 
z
" style="fill: #ffffff"/>
  </g>
  <g id="axes_1">
   <g id="patch_2">
    <path d="M 50.020997 248.858508 
L 385.2 248.858508 
L 385.2 10.8 
L 50.020997 10.8 
z
" style="fill: #ffffff"/>
   </g>
   <g id="PolyCollection_1">
    <path d="M 65.256406 21.620841 
L 65.256406 119.08688 
L 68.334267 120.66957 
L 71.412127 120.40128 
L 74.489987 118.479014 
L 77.567848 122.981105 
L 80.645708 124.481758 
L 83.723569 122.496653 
L 86.801429 127.053696 
L 89.87929 125.565183 
L 92.95715 126.92834 
L 96.035011 128.289198 
L 99.112871 129.648259 
L 102.190731 130.755518 
L 105.268592 132.043545 
L 108.346452 133.388682 
L 111.424313 134.929125 
L 114.502173 136.266068 
L 117.580034 137.419475 
L 120.657894 138.767879 
L 123.735755 140.084202 
L 126.813615 141.45913 
L 129.891476 142.762738 
L 132.969336 144.100822 
L 136.047196 145.436949 
L 139.125057 146.771107 
L 142.202917 148.090276 
L 145.280778 149.483902 
L 148.358638 150.814451 
L 151.436499 152.071941 
L 154.514359 153.469335 
L 157.59222 154.793983 
L 160.67008 156.11651 
L 163.747941 157.437071 
L 166.825801 158.755661 
L 169.903661 160.003075 
L 172.981522 161.202807 
L 176.059382 162.626018 
L 179.137243 163.934288 
L 182.215103 165.240928 
L 185.292964 166.545589 
L 188.370824 167.848295 
L 191.448685 169.148871 
L 194.526545 170.418893 
L 197.604405 171.631708 
L 200.682266 173.043803 
L 203.760126 174.338314 
L 206.837987 175.63135 
L 209.915847 176.928305 
L 212.993708 178.226258 
L 216.071568 179.522243 
L 219.149429 179.9397 
L 222.227289 181.112729 
L 225.30515 183.441497 
L 228.38301 184.721599 
L 231.46087 185.999887 
L 234.538731 187.276377 
L 237.616591 188.456073 
L 240.694452 189.823474 
L 243.772312 191.100938 
L 246.850173 192.378085 
L 249.928033 193.502306 
L 253.005894 194.926643 
L 256.083754 196.198384 
L 259.161615 197.468002 
L 262.239475 198.597055 
L 265.317335 199.868304 
L 268.395196 200.77973 
L 271.473056 202.03105 
L 274.550917 202.606864 
L 277.628777 204.54177 
L 280.706638 205.113158 
L 283.784498 206.363766 
L 286.862359 207.612413 
L 289.940219 208.859087 
L 293.018079 210.54125 
L 296.09594 211.770567 
L 299.1738 212.910281 
L 302.251661 214.298588 
L 305.329521 215.44769 
L 308.407382 216.635243 
L 311.485242 217.890259 
L 314.563103 219.109423 
L 317.640963 220.261601 
L 320.718824 221.245172 
L 323.796684 222.474484 
L 326.874544 223.701825 
L 329.952405 222.086603 
L 333.030265 226.127768 
L 336.108126 224.529828 
L 339.185986 225.752264 
L 342.263847 227.08395 
L 345.341707 231.199713 
L 348.419568 232.298501 
L 351.497428 233.492587 
L 354.575289 232.002848 
L 357.653149 235.756295 
L 360.731009 234.415927 
L 363.80887 238.024093 
L 366.88673 236.827523 
L 369.964591 238.037667 
L 369.964591 172.421226 
L 369.964591 172.421226 
L 366.88673 170.997636 
L 363.80887 170.076995 
L 360.731009 168.139456 
L 357.653149 167.238218 
L 354.575289 165.273082 
L 351.497428 164.384789 
L 348.419568 162.954919 
L 345.341707 161.520822 
L 342.263847 159.492621 
L 339.185986 158.033967 
L 336.108126 156.589085 
L 333.030265 155.69663 
L 329.952405 153.675198 
L 326.874544 152.796241 
L 323.796684 151.365104 
L 320.718824 149.921929 
L 317.640963 148.489502 
L 314.563103 147.045976 
L 311.485242 145.57611 
L 308.407382 144.112844 
L 305.329521 142.652147 
L 302.251661 141.189096 
L 299.1738 139.687711 
L 296.09594 138.226033 
L 293.018079 136.761635 
L 289.940219 135.199484 
L 286.862359 133.719404 
L 283.784498 132.231044 
L 280.706638 130.758913 
L 277.628777 129.38644 
L 274.550917 127.78219 
L 271.473056 126.411326 
L 268.395196 124.922325 
L 265.317335 123.47924 
L 262.239475 121.988482 
L 259.161615 120.500714 
L 256.083754 119.00012 
L 253.005894 117.497226 
L 249.928033 115.942486 
L 246.850173 114.469628 
L 243.772312 112.964787 
L 240.694452 111.457471 
L 237.616591 109.927163 
L 234.538731 108.422798 
L 231.46087 106.916035 
L 228.38301 105.395451 
L 225.30515 103.872902 
L 222.227289 102.187108 
L 219.149429 100.678624 
L 216.071568 99.242845 
L 212.993708 97.692972 
L 209.915847 96.157155 
L 206.837987 94.61904 
L 203.760126 93.077504 
L 200.682266 91.541412 
L 197.604405 89.978765 
L 194.526545 88.440817 
L 191.448685 86.90057 
L 188.370824 85.349805 
L 185.292964 83.799638 
L 182.215103 82.232379 
L 179.137243 80.649419 
L 176.059382 79.093647 
L 172.981522 77.513755 
L 169.903661 75.968505 
L 166.825801 74.413246 
L 163.747941 72.837485 
L 160.67008 71.272931 
L 157.59222 69.69779 
L 154.514359 68.118117 
L 151.436499 66.493934 
L 148.358638 64.92161 
L 145.280778 63.338796 
L 142.202917 61.723771 
L 139.125057 60.132586 
L 136.047196 58.538641 
L 132.969336 56.947493 
L 129.891476 55.350394 
L 126.813615 53.749086 
L 123.735755 52.146648 
L 120.657894 50.544719 
L 117.580034 48.923008 
L 114.502173 47.328747 
L 111.424313 45.703354 
L 108.346452 44.052438 
L 105.268592 42.422253 
L 102.190731 40.807809 
L 99.112871 39.181725 
L 96.035011 37.55104 
L 92.95715 35.922339 
L 89.87929 34.288881 
L 86.801429 32.955438 
L 83.723569 30.947492 
L 80.645708 29.698679 
L 77.567848 28.055837 
L 74.489987 26.070873 
L 71.412127 24.777088 
L 68.334267 23.304012 
L 65.256406 21.620841 
z
" clip-path="url(#pd0cc3b8d79)" style="fill: #808080; fill-opacity: 0.1"/>
   </g>
   <g id="matplotlib.axis_1">
    <g id="xtick_1">
     <g id="line2d_1">
      <defs>
       <path id="m0f78fb87e7" d="M 0 0 
L 0 -3.5 
" style="stroke: #000000; stroke-width: 0.8"/>
      </defs>
      <g>
       <use xlink:href="#m0f78fb87e7" x="95.727225" y="248.858508" style="stroke: #000000; stroke-width: 0.8"/>
      </g>
     </g>
     <g id="text_1">
      <!-- $\mathdefault{1060}$ -->
      <g transform="translate(84.818152 259.881779) scale(0.11 -0.11)">
       <defs>
        <path id="TeXGyreTermesX-Bold-31" d="M 2829 0 
L 2829 159 
C 2246 159 2138 255 2138 746 
L 2138 4384 
L 2029 4384 
L 416 3686 
L 416 3521 
C 474 3540 525 3559 544 3572 
C 717 3635 877 3680 960 3680 
C 1120 3680 1190 3540 1190 3241 
L 1190 790 
C 1190 267 1062 159 429 159 
L 429 0 
L 2829 0 
z
" transform="scale(0.015625)"/>
        <path id="TeXGyreTermesX-Bold-30" d="M 3046 2166 
C 3046 3440 2426 4403 1600 4403 
C 1184 4403 762 4123 499 3664 
C 294 3313 154 2714 154 2185 
C 154 873 755 -64 1606 -64 
C 2432 -64 3046 886 3046 2166 
z
M 2035 1434 
C 2035 1058 1984 561 1926 389 
C 1856 203 1754 114 1606 114 
C 1286 114 1165 491 1165 1434 
L 1165 2892 
C 1165 3855 1286 4224 1594 4224 
C 1907 4224 2035 3829 2035 2892 
L 2035 1434 
z
" transform="scale(0.015625)"/>
        <path id="TeXGyreTermesX-Bold-36" d="M 3040 1427 
C 3040 2193 2573 2688 1843 2688 
C 1638 2688 1498 2663 1306 2580 
C 1542 3515 2074 4030 3008 4221 
L 3008 4387 
C 2157 4266 1760 4126 1274 3796 
C 557 3307 179 2596 179 1752 
C 179 654 768 -64 1664 -64 
C 2458 -64 3040 564 3040 1427 
z
M 2067 1046 
C 2067 298 1990 108 1677 108 
C 1530 108 1414 172 1350 291 
C 1242 501 1178 964 1178 1553 
C 1178 1946 1216 2307 1261 2339 
C 1312 2377 1402 2402 1491 2402 
C 1920 2402 2067 2054 2067 1046 
z
" transform="scale(0.015625)"/>
       </defs>
       <use xlink:href="#TeXGyreTermesX-Bold-31" transform="scale(0.996264)"/>
       <use xlink:href="#TeXGyreTermesX-Bold-30" transform="translate(49.8132 0) scale(0.996264)"/>
       <use xlink:href="#TeXGyreTermesX-Bold-36" transform="translate(99.626401 0) scale(0.996264)"/>
       <use xlink:href="#TeXGyreTermesX-Bold-30" transform="translate(149.439601 0) scale(0.996264)"/>
      </g>
     </g>
    </g>
    <g id="xtick_2">
     <g id="line2d_2">
      <g>
       <use xlink:href="#m0f78fb87e7" x="156.668861" y="248.858508" style="stroke: #000000; stroke-width: 0.8"/>
      </g>
     </g>
     <g id="text_2">
      <!-- $\mathdefault{1080}$ -->
      <g transform="translate(145.759789 259.881779) scale(0.11 -0.11)">
       <defs>
        <path id="TeXGyreTermesX-Bold-38" d="M 3021 1212 
C 3021 1768 2746 2164 2061 2597 
C 2675 2815 2931 3075 2931 3483 
C 2931 4051 2445 4409 1683 4409 
C 819 4409 250 3961 250 3292 
C 250 2814 506 2462 1139 2086 
C 774 1965 627 1881 461 1722 
C 275 1543 179 1301 179 1020 
C 179 370 723 -64 1536 -64 
C 2426 -64 3021 447 3021 1212 
z
M 2170 3439 
C 2170 3139 2118 2993 1907 2712 
C 1370 2986 1075 3337 1075 3694 
C 1075 3994 1306 4224 1606 4224 
C 1965 4224 2170 3937 2170 3439 
z
M 2131 829 
C 2131 402 1920 140 1574 140 
C 1184 140 954 478 954 1046 
C 954 1397 1024 1595 1280 1971 
C 1978 1505 2131 1301 2131 829 
z
" transform="scale(0.015625)"/>
       </defs>
       <use xlink:href="#TeXGyreTermesX-Bold-31" transform="scale(0.996264)"/>
       <use xlink:href="#TeXGyreTermesX-Bold-30" transform="translate(49.8132 0) scale(0.996264)"/>
       <use xlink:href="#TeXGyreTermesX-Bold-38" transform="translate(99.626401 0) scale(0.996264)"/>
       <use xlink:href="#TeXGyreTermesX-Bold-30" transform="translate(149.439601 0) scale(0.996264)"/>
      </g>
     </g>
    </g>
    <g id="xtick_3">
     <g id="line2d_3">
      <g>
       <use xlink:href="#m0f78fb87e7" x="217.610498" y="248.858508" style="stroke: #000000; stroke-width: 0.8"/>
      </g>
     </g>
     <g id="text_3">
      <!-- $\mathdefault{1100}$ -->
      <g transform="translate(206.701426 259.881779) scale(0.11 -0.11)">
       <use xlink:href="#TeXGyreTermesX-Bold-31" transform="scale(0.996264)"/>
       <use xlink:href="#TeXGyreTermesX-Bold-31" transform="translate(49.8132 0) scale(0.996264)"/>
       <use xlink:href="#TeXGyreTermesX-Bold-30" transform="translate(99.626401 0) scale(0.996264)"/>
       <use xlink:href="#TeXGyreTermesX-Bold-30" transform="translate(149.439601 0) scale(0.996264)"/>
      </g>
     </g>
    </g>
    <g id="xtick_4">
     <g id="line2d_4">
      <g>
       <use xlink:href="#m0f78fb87e7" x="278.552135" y="248.858508" style="stroke: #000000; stroke-width: 0.8"/>
      </g>
     </g>
     <g id="text_4">
      <!-- $\mathdefault{1120}$ -->
      <g transform="translate(267.643063 259.881779) scale(0.11 -0.11)">
       <defs>
        <path id="TeXGyreTermesX-Bold-32" d="M 3059 1341 
L 2906 1341 
C 2720 884 2643 846 1990 846 
L 1024 846 
L 2061 1824 
C 2566 2301 2790 2726 2790 3210 
C 2790 3889 2298 4373 1606 4373 
C 1286 4373 979 4245 755 4016 
C 506 3768 378 3552 198 3075 
L 378 3075 
C 576 3469 813 3648 1158 3648 
C 1440 3648 1651 3527 1792 3298 
C 1869 3164 1920 2987 1920 2841 
C 1920 2561 1798 2211 1594 1900 
C 1267 1405 1043 1137 109 146 
L 109 0 
L 2771 0 
L 3059 1341 
z
" transform="scale(0.015625)"/>
       </defs>
       <use xlink:href="#TeXGyreTermesX-Bold-31" transform="scale(0.996264)"/>
       <use xlink:href="#TeXGyreTermesX-Bold-31" transform="translate(49.8132 0) scale(0.996264)"/>
       <use xlink:href="#TeXGyreTermesX-Bold-32" transform="translate(99.626401 0) scale(0.996264)"/>
       <use xlink:href="#TeXGyreTermesX-Bold-30" transform="translate(149.439601 0) scale(0.996264)"/>
      </g>
     </g>
    </g>
    <g id="xtick_5">
     <g id="line2d_5">
      <g>
       <use xlink:href="#m0f78fb87e7" x="339.493772" y="248.858508" style="stroke: #000000; stroke-width: 0.8"/>
      </g>
     </g>
     <g id="text_5">
      <!-- $\mathdefault{1140}$ -->
      <g transform="translate(328.5847 259.881779) scale(0.11 -0.11)">
       <defs>
        <path id="TeXGyreTermesX-Bold-34" d="M 3040 896 
L 3040 1602 
L 2637 1602 
L 2637 4352 
L 2125 4352 
L 1747 3863 
C 928 2803 506 2219 122 1615 
L 122 896 
L 1709 896 
L 1709 -32 
L 2637 -32 
L 2637 896 
L 3040 896 
z
M 1722 1602 
L 384 1602 
L 1722 3488 
L 1722 1602 
z
" transform="scale(0.015625)"/>
       </defs>
       <use xlink:href="#TeXGyreTermesX-Bold-31" transform="scale(0.996264)"/>
       <use xlink:href="#TeXGyreTermesX-Bold-31" transform="translate(49.8132 0) scale(0.996264)"/>
       <use xlink:href="#TeXGyreTermesX-Bold-34" transform="translate(99.626401 0) scale(0.996264)"/>
       <use xlink:href="#TeXGyreTermesX-Bold-30" transform="translate(149.439601 0) scale(0.996264)"/>
      </g>
     </g>
    </g>
    <g id="xtick_6">
     <g id="line2d_6">
      <defs>
       <path id="m00ba928ead" d="M 0 0 
L 0 -2 
" style="stroke: #000000; stroke-width: 0.6"/>
      </defs>
      <g>
       <use xlink:href="#m00ba928ead" x="59.162242" y="248.858508" style="stroke: #000000; stroke-width: 0.6"/>
      </g>
     </g>
    </g>
    <g id="xtick_7">
     <g id="line2d_7">
      <g>
       <use xlink:href="#m00ba928ead" x="71.35057" y="248.858508" style="stroke: #000000; stroke-width: 0.6"/>
      </g>
     </g>
    </g>
    <g id="xtick_8">
     <g id="line2d_8">
      <g>
       <use xlink:href="#m00ba928ead" x="83.538897" y="248.858508" style="stroke: #000000; stroke-width: 0.6"/>
      </g>
     </g>
    </g>
    <g id="xtick_9">
     <g id="line2d_9">
      <g>
       <use xlink:href="#m00ba928ead" x="107.915552" y="248.858508" style="stroke: #000000; stroke-width: 0.6"/>
      </g>
     </g>
    </g>
    <g id="xtick_10">
     <g id="line2d_10">
      <g>
       <use xlink:href="#m00ba928ead" x="120.103879" y="248.858508" style="stroke: #000000; stroke-width: 0.6"/>
      </g>
     </g>
    </g>
    <g id="xtick_11">
     <g id="line2d_11">
      <g>
       <use xlink:href="#m00ba928ead" x="132.292207" y="248.858508" style="stroke: #000000; stroke-width: 0.6"/>
      </g>
     </g>
    </g>
    <g id="xtick_12">
     <g id="line2d_12">
      <g>
       <use xlink:href="#m00ba928ead" x="144.480534" y="248.858508" style="stroke: #000000; stroke-width: 0.6"/>
      </g>
     </g>
    </g>
    <g id="xtick_13">
     <g id="line2d_13">
      <g>
       <use xlink:href="#m00ba928ead" x="168.857189" y="248.858508" style="stroke: #000000; stroke-width: 0.6"/>
      </g>
     </g>
    </g>
    <g id="xtick_14">
     <g id="line2d_14">
      <g>
       <use xlink:href="#m00ba928ead" x="181.045516" y="248.858508" style="stroke: #000000; stroke-width: 0.6"/>
      </g>
     </g>
    </g>
    <g id="xtick_15">
     <g id="line2d_15">
      <g>
       <use xlink:href="#m00ba928ead" x="193.233844" y="248.858508" style="stroke: #000000; stroke-width: 0.6"/>
      </g>
     </g>
    </g>
    <g id="xtick_16">
     <g id="line2d_16">
      <g>
       <use xlink:href="#m00ba928ead" x="205.422171" y="248.858508" style="stroke: #000000; stroke-width: 0.6"/>
      </g>
     </g>
    </g>
    <g id="xtick_17">
     <g id="line2d_17">
      <g>
       <use xlink:href="#m00ba928ead" x="229.798826" y="248.858508" style="stroke: #000000; stroke-width: 0.6"/>
      </g>
     </g>
    </g>
    <g id="xtick_18">
     <g id="line2d_18">
      <g>
       <use xlink:href="#m00ba928ead" x="241.987153" y="248.858508" style="stroke: #000000; stroke-width: 0.6"/>
      </g>
     </g>
    </g>
    <g id="xtick_19">
     <g id="line2d_19">
      <g>
       <use xlink:href="#m00ba928ead" x="254.175481" y="248.858508" style="stroke: #000000; stroke-width: 0.6"/>
      </g>
     </g>
    </g>
    <g id="xtick_20">
     <g id="line2d_20">
      <g>
       <use xlink:href="#m00ba928ead" x="266.363808" y="248.858508" style="stroke: #000000; stroke-width: 0.6"/>
      </g>
     </g>
    </g>
    <g id="xtick_21">
     <g id="line2d_21">
      <g>
       <use xlink:href="#m00ba928ead" x="290.740463" y="248.858508" style="stroke: #000000; stroke-width: 0.6"/>
      </g>
     </g>
    </g>
    <g id="xtick_22">
     <g id="line2d_22">
      <g>
       <use xlink:href="#m00ba928ead" x="302.92879" y="248.858508" style="stroke: #000000; stroke-width: 0.6"/>
      </g>
     </g>
    </g>
    <g id="xtick_23">
     <g id="line2d_23">
      <g>
       <use xlink:href="#m00ba928ead" x="315.117118" y="248.858508" style="stroke: #000000; stroke-width: 0.6"/>
      </g>
     </g>
    </g>
    <g id="xtick_24">
     <g id="line2d_24">
      <g>
       <use xlink:href="#m00ba928ead" x="327.305445" y="248.858508" style="stroke: #000000; stroke-width: 0.6"/>
      </g>
     </g>
    </g>
    <g id="xtick_25">
     <g id="line2d_25">
      <g>
       <use xlink:href="#m00ba928ead" x="351.6821" y="248.858508" style="stroke: #000000; stroke-width: 0.6"/>
      </g>
     </g>
    </g>
    <g id="xtick_26">
     <g id="line2d_26">
      <g>
       <use xlink:href="#m00ba928ead" x="363.870427" y="248.858508" style="stroke: #000000; stroke-width: 0.6"/>
      </g>
     </g>
    </g>
    <g id="xtick_27">
     <g id="line2d_27">
      <g>
       <use xlink:href="#m00ba928ead" x="376.058754" y="248.858508" style="stroke: #000000; stroke-width: 0.6"/>
      </g>
     </g>
    </g>
    <g id="text_6">
     <!-- \textbf{Temperature [$^\circ C$]} -->
     <g transform="translate(172.070694 274.60574) scale(0.12 -0.12)">
      <defs>
       <path id="TeXGyreTermesX-Bold-54" d="M 4070 3013 
L 4058 4288 
L 218 4288 
L 198 3013 
L 384 3013 
C 493 3777 826 4072 1619 4072 
L 1619 740 
C 1619 272 1549 204 998 159 
L 998 0 
L 3283 0 
L 3283 178 
C 2726 178 2656 242 2656 724 
L 2656 4072 
C 3443 4072 3776 3777 3885 3013 
L 4070 3013 
z
" transform="scale(0.015625)"/>
       <path id="TeXGyreTermesX-Bold-65" d="M 2726 736 
L 2573 826 
C 2310 510 2118 394 1843 394 
C 1600 394 1408 504 1280 723 
C 1158 930 1107 1149 1082 1600 
L 2694 1600 
C 2656 2115 2560 2400 2362 2642 
C 2157 2883 1856 3013 1498 3013 
C 698 3013 160 2388 160 1465 
C 160 543 685 -64 1478 -64 
C 1997 -64 2310 134 2726 736 
z
M 1907 1835 
L 1050 1835 
C 1069 2571 1184 2816 1498 2816 
C 1683 2816 1798 2718 1850 2528 
C 1882 2411 1894 2240 1907 1928 
L 1907 1835 
z
" transform="scale(0.015625)"/>
       <path id="TeXGyreTermesX-Bold-6d" d="M 5210 0 
L 5210 159 
C 4960 159 4890 236 4890 510 
L 4890 2109 
C 4890 2657 4550 3008 4026 3008 
C 3661 3008 3418 2862 3085 2455 
C 2893 2856 2669 3008 2266 3008 
C 1862 3008 1568 2836 1325 2455 
L 1325 2932 
L 102 2932 
L 102 2779 
C 384 2741 454 2665 454 2404 
L 454 534 
C 454 273 384 204 102 153 
L 102 0 
L 1638 0 
L 1638 153 
C 1414 184 1344 273 1344 515 
L 1344 2213 
C 1344 2251 1446 2372 1530 2436 
C 1664 2538 1773 2582 1882 2582 
C 2131 2582 2227 2436 2227 2054 
L 2227 515 
C 2227 254 2157 172 1920 153 
L 1920 0 
L 3418 0 
L 3418 153 
C 3194 178 3117 273 3117 515 
L 3117 2213 
C 3117 2245 3219 2366 3302 2429 
C 3443 2538 3552 2582 3661 2582 
C 3904 2582 4000 2429 4000 2054 
L 4000 515 
C 4000 248 3930 172 3686 153 
L 3686 0 
L 5210 0 
z
" transform="scale(0.015625)"/>
       <path id="TeXGyreTermesX-Bold-70" d="M 3354 1551 
C 3354 2442 2874 3050 2163 3050 
C 1786 3050 1555 2904 1357 2534 
L 1357 2974 
L 134 2974 
L 134 2821 
C 416 2777 480 2712 480 2444 
L 480 -756 
C 480 -1019 429 -1076 122 -1127 
L 122 -1280 
L 1869 -1280 
L 1869 -1140 
C 1478 -1140 1370 -1012 1370 -584 
L 1370 318 
C 1677 19 1843 -64 2125 -64 
C 2842 -64 3354 603 3354 1551 
z
M 2406 1461 
C 2406 665 2227 286 1862 286 
C 1651 286 1466 434 1370 678 
L 1370 2238 
C 1370 2283 1427 2386 1504 2469 
C 1632 2610 1779 2688 1920 2688 
C 2253 2688 2406 2302 2406 1461 
z
" transform="scale(0.015625)"/>
       <path id="TeXGyreTermesX-Bold-72" d="M 2778 2512 
C 2778 2798 2560 3008 2259 3008 
C 1939 3008 1696 2836 1395 2410 
L 1395 2932 
L 186 2932 
L 186 2779 
C 461 2741 531 2658 531 2404 
L 531 533 
C 531 272 467 203 186 152 
L 186 0 
L 1888 0 
L 1888 165 
C 1498 165 1421 248 1421 645 
L 1421 1854 
C 1421 2186 1600 2461 1811 2461 
C 1862 2461 1920 2417 1990 2315 
C 2112 2143 2208 2086 2374 2086 
C 2611 2086 2778 2264 2778 2512 
z
" transform="scale(0.015625)"/>
       <path id="TeXGyreTermesX-Bold-61" d="M 3123 297 
L 3027 430 
L 2963 366 
C 2944 347 2925 341 2893 341 
C 2803 341 2758 392 2758 499 
L 2758 2152 
C 2758 2689 2272 3019 1491 3019 
C 768 3019 282 2696 282 2221 
C 282 1955 435 1803 698 1803 
C 954 1803 1133 1955 1133 2170 
C 1133 2259 1101 2341 1018 2442 
C 960 2506 941 2543 941 2581 
C 941 2714 1114 2816 1344 2816 
C 1722 2816 1882 2645 1882 2259 
L 1882 1797 
C 1133 1569 832 1455 589 1296 
C 301 1107 160 885 160 607 
C 160 221 454 -64 864 -64 
C 1235 -64 1530 63 1882 380 
C 1952 57 2093 -64 2406 -64 
C 2682 -64 2880 38 3123 297 
z
M 1875 658 
C 1702 462 1574 386 1421 386 
C 1229 386 1094 556 1094 810 
C 1094 1176 1363 1436 1875 1575 
L 1875 658 
z
" transform="scale(0.015625)"/>
       <path id="TeXGyreTermesX-Bold-74" d="M 2125 648 
L 1965 718 
C 1837 476 1734 387 1600 387 
C 1421 387 1350 495 1350 750 
L 1350 2664 
L 1952 2664 
L 1952 2944 
L 1350 2944 
L 1350 4032 
L 1190 4032 
C 800 3479 544 3190 128 2836 
L 128 2664 
L 461 2664 
L 461 603 
C 461 190 736 -64 1178 -64 
C 1606 -64 1862 126 2125 648 
z
" transform="scale(0.015625)"/>
       <path id="TeXGyreTermesX-Bold-75" d="M 3437 152 
L 3437 305 
C 3155 305 3078 388 3078 660 
L 3078 2944 
L 1792 2944 
L 1792 2792 
C 2112 2767 2189 2690 2189 2419 
L 2189 627 
C 1978 419 1850 349 1664 349 
C 1402 349 1306 476 1306 799 
L 1306 2944 
L 102 2944 
L 102 2792 
C 365 2741 416 2684 416 2419 
L 416 822 
C 416 266 736 -64 1267 -64 
C 1600 -64 1824 38 2195 355 
L 2195 -58 
C 2470 38 2624 63 3040 108 
L 3437 152 
z
" transform="scale(0.015625)"/>
       <path id="TeXGyreTermesX-Bold-5b" d="M 1926 -960 
L 1926 -750 
L 1414 -750 
C 1152 -750 1094 -686 1094 -413 
L 1094 3650 
C 1094 4020 1165 4096 1523 4096 
L 1926 4096 
L 1926 4306 
L 429 4306 
L 429 -960 
L 1926 -960 
z
" transform="scale(0.015625)"/>
       <path id="txbsys-e" d="M 2955 1640 
C 2955 2347 2386 2915 1676 2915 
C 960 2915 397 2347 397 1640 
C 397 926 960 365 1676 365 
C 2386 365 2955 926 2955 1640 
z
M 2482 1640 
C 2482 1188 2117 838 1676 838 
C 1222 838 870 1188 870 1640 
C 870 2078 1222 2441 1676 2441 
C 2117 2441 2482 2078 2482 1640 
z
" transform="scale(0.015625)"/>
       <path id="NewTXBMI-49" d="M 3686 828 
L 3494 969 
C 3174 590 2995 442 2726 326 
C 2547 249 2349 211 2150 211 
C 1549 211 1190 628 1190 1329 
C 1190 2253 1638 3344 2214 3852 
C 2451 4051 2714 4160 2982 4160 
C 3501 4160 3821 3775 3821 3146 
C 3821 3062 3814 3004 3802 2921 
L 4006 2882 
L 4333 4384 
L 4141 4384 
C 4051 4243 3994 4198 3898 4198 
C 3846 4198 3750 4218 3654 4250 
C 3366 4339 3078 4384 2816 4384 
C 1389 4384 205 3094 205 1534 
C 205 539 902 -128 1946 -128 
C 2400 -128 2822 13 3187 289 
C 3373 431 3482 546 3686 828 
z
" transform="scale(0.015625)"/>
       <path id="TeXGyreTermesX-Bold-5d" d="M 1702 -960 
L 1702 4306 
L 205 4306 
L 205 4096 
L 608 4096 
C 966 4096 1037 4020 1037 3650 
L 1037 -413 
C 1037 -693 986 -750 717 -750 
L 205 -750 
L 205 -960 
L 1702 -960 
z
" transform="scale(0.015625)"/>
      </defs>
      <use xlink:href="#TeXGyreTermesX-Bold-54" transform="scale(0.996264)"/>
      <use xlink:href="#TeXGyreTermesX-Bold-65" transform="translate(57.982532 0) scale(0.996264)"/>
      <use xlink:href="#TeXGyreTermesX-Bold-6d" transform="translate(102.216678 0) scale(0.996264)"/>
      <use xlink:href="#TeXGyreTermesX-Bold-70" transform="translate(183.711047 0) scale(0.996264)"/>
      <use xlink:href="#TeXGyreTermesX-Bold-65" transform="translate(239.103302 0) scale(0.996264)"/>
      <use xlink:href="#TeXGyreTermesX-Bold-72" transform="translate(283.337448 0) scale(0.996264)"/>
      <use xlink:href="#TeXGyreTermesX-Bold-61" transform="translate(327.571594 0) scale(0.996264)"/>
      <use xlink:href="#TeXGyreTermesX-Bold-74" transform="translate(377.384795 0) scale(0.996264)"/>
      <use xlink:href="#TeXGyreTermesX-Bold-75" transform="translate(410.560405 0) scale(0.996264)"/>
      <use xlink:href="#TeXGyreTermesX-Bold-72" transform="translate(465.952659 0) scale(0.996264)"/>
      <use xlink:href="#TeXGyreTermesX-Bold-65" transform="translate(509.190511 0) scale(0.996264)"/>
      <use xlink:href="#TeXGyreTermesX-Bold-5b" transform="translate(578.331258 0) scale(0.996264)"/>
      <use xlink:href="#txbsys-e" transform="translate(611.506868 36.164371) scale(0.727268)"/>
      <use xlink:href="#NewTXBMI-49" transform="translate(650.512346 0) scale(0.996264)"/>
      <use xlink:href="#TeXGyreTermesX-Bold-5d" transform="translate(721.994258 0) scale(0.996264)"/>
     </g>
    </g>
   </g>
   <g id="matplotlib.axis_2">
    <g id="ytick_1">
     <g id="line2d_28">
      <defs>
       <path id="m3ac6de0efa" d="M 0 0 
L 3.5 0 
" style="stroke: #000000; stroke-width: 0.8"/>
      </defs>
      <g>
       <use xlink:href="#m3ac6de0efa" x="50.020997" y="238.168837" style="stroke: #000000; stroke-width: 0.8"/>
      </g>
     </g>
     <g id="text_7">
      <!-- $\mathdefault{10^{-1}}$ -->
      <g transform="translate(25.601474 241.930473) scale(0.11 -0.11)">
       <defs>
        <path id="txbsys-0" d="M 3929 1341 
L 3929 1955 
L 396 1955 
L 396 1341 
L 3929 1341 
z
" transform="scale(0.015625)"/>
       </defs>
       <use xlink:href="#TeXGyreTermesX-Bold-31" transform="scale(0.996264)"/>
       <use xlink:href="#TeXGyreTermesX-Bold-30" transform="translate(49.8132 0) scale(0.996264)"/>
       <use xlink:href="#txbsys-0" transform="translate(99.626401 36.164371) scale(0.727268)"/>
       <use xlink:href="#TeXGyreTermesX-Bold-31" transform="translate(148.78971 36.164371) scale(0.727268)"/>
      </g>
     </g>
    </g>
    <g id="ytick_2">
     <g id="line2d_29">
      <g>
       <use xlink:href="#m3ac6de0efa" x="50.020997" y="139.285124" style="stroke: #000000; stroke-width: 0.8"/>
      </g>
     </g>
     <g id="text_8">
      <!-- $\mathdefault{10^{0}}$ -->
      <g transform="translate(31.626868 143.046759) scale(0.11 -0.11)">
       <use xlink:href="#TeXGyreTermesX-Bold-31" transform="scale(0.996264)"/>
       <use xlink:href="#TeXGyreTermesX-Bold-30" transform="translate(49.8132 0) scale(0.996264)"/>
       <use xlink:href="#TeXGyreTermesX-Bold-30" transform="translate(99.626401 36.164371) scale(0.727268)"/>
      </g>
     </g>
    </g>
    <g id="ytick_3">
     <g id="line2d_30">
      <g>
       <use xlink:href="#m3ac6de0efa" x="50.020997" y="40.40141" style="stroke: #000000; stroke-width: 0.8"/>
      </g>
     </g>
     <g id="text_9">
      <!-- $\mathdefault{10^{1}}$ -->
      <g transform="translate(31.626868 44.163046) scale(0.11 -0.11)">
       <use xlink:href="#TeXGyreTermesX-Bold-31" transform="scale(0.996264)"/>
       <use xlink:href="#TeXGyreTermesX-Bold-30" transform="translate(49.8132 0) scale(0.996264)"/>
       <use xlink:href="#TeXGyreTermesX-Bold-31" transform="translate(99.626401 36.164371) scale(0.727268)"/>
      </g>
     </g>
    </g>
    <g id="ytick_4">
     <g id="line2d_31">
      <defs>
       <path id="m659a72c16a" d="M 0 0 
L 2 0 
" style="stroke: #000000; stroke-width: 0.6"/>
      </defs>
      <g>
       <use xlink:href="#m659a72c16a" x="50.020997" y="247.751659" style="stroke: #000000; stroke-width: 0.6"/>
      </g>
     </g>
    </g>
    <g id="ytick_5">
     <g id="line2d_32">
      <g>
       <use xlink:href="#m659a72c16a" x="50.020997" y="242.693508" style="stroke: #000000; stroke-width: 0.6"/>
      </g>
     </g>
    </g>
    <g id="ytick_6">
     <g id="line2d_33">
      <g>
       <use xlink:href="#m659a72c16a" x="50.020997" y="208.401874" style="stroke: #000000; stroke-width: 0.6"/>
      </g>
     </g>
    </g>
    <g id="ytick_7">
     <g id="line2d_34">
      <g>
       <use xlink:href="#m659a72c16a" x="50.020997" y="190.989316" style="stroke: #000000; stroke-width: 0.6"/>
      </g>
     </g>
    </g>
    <g id="ytick_8">
     <g id="line2d_35">
      <g>
       <use xlink:href="#m659a72c16a" x="50.020997" y="178.63491" style="stroke: #000000; stroke-width: 0.6"/>
      </g>
     </g>
    </g>
    <g id="ytick_9">
     <g id="line2d_36">
      <g>
       <use xlink:href="#m659a72c16a" x="50.020997" y="169.052088" style="stroke: #000000; stroke-width: 0.6"/>
      </g>
     </g>
    </g>
    <g id="ytick_10">
     <g id="line2d_37">
      <g>
       <use xlink:href="#m659a72c16a" x="50.020997" y="161.222352" style="stroke: #000000; stroke-width: 0.6"/>
      </g>
     </g>
    </g>
    <g id="ytick_11">
     <g id="line2d_38">
      <g>
       <use xlink:href="#m659a72c16a" x="50.020997" y="154.602405" style="stroke: #000000; stroke-width: 0.6"/>
      </g>
     </g>
    </g>
    <g id="ytick_12">
     <g id="line2d_39">
      <g>
       <use xlink:href="#m659a72c16a" x="50.020997" y="148.867946" style="stroke: #000000; stroke-width: 0.6"/>
      </g>
     </g>
    </g>
    <g id="ytick_13">
     <g id="line2d_40">
      <g>
       <use xlink:href="#m659a72c16a" x="50.020997" y="143.809794" style="stroke: #000000; stroke-width: 0.6"/>
      </g>
     </g>
    </g>
    <g id="ytick_14">
     <g id="line2d_41">
      <g>
       <use xlink:href="#m659a72c16a" x="50.020997" y="109.51816" style="stroke: #000000; stroke-width: 0.6"/>
      </g>
     </g>
    </g>
    <g id="ytick_15">
     <g id="line2d_42">
      <g>
       <use xlink:href="#m659a72c16a" x="50.020997" y="92.105602" style="stroke: #000000; stroke-width: 0.6"/>
      </g>
     </g>
    </g>
    <g id="ytick_16">
     <g id="line2d_43">
      <g>
       <use xlink:href="#m659a72c16a" x="50.020997" y="79.751196" style="stroke: #000000; stroke-width: 0.6"/>
      </g>
     </g>
    </g>
    <g id="ytick_17">
     <g id="line2d_44">
      <g>
       <use xlink:href="#m659a72c16a" x="50.020997" y="70.168374" style="stroke: #000000; stroke-width: 0.6"/>
      </g>
     </g>
    </g>
    <g id="ytick_18">
     <g id="line2d_45">
      <g>
       <use xlink:href="#m659a72c16a" x="50.020997" y="62.338638" style="stroke: #000000; stroke-width: 0.6"/>
      </g>
     </g>
    </g>
    <g id="ytick_19">
     <g id="line2d_46">
      <g>
       <use xlink:href="#m659a72c16a" x="50.020997" y="55.718691" style="stroke: #000000; stroke-width: 0.6"/>
      </g>
     </g>
    </g>
    <g id="ytick_20">
     <g id="line2d_47">
      <g>
       <use xlink:href="#m659a72c16a" x="50.020997" y="49.984232" style="stroke: #000000; stroke-width: 0.6"/>
      </g>
     </g>
    </g>
    <g id="ytick_21">
     <g id="line2d_48">
      <g>
       <use xlink:href="#m659a72c16a" x="50.020997" y="44.926081" style="stroke: #000000; stroke-width: 0.6"/>
      </g>
     </g>
    </g>
    <g id="text_10">
     <!-- \textbf{$t_{X^*}$ [$yr$]} -->
     <g transform="translate(19.007214 149.035505) rotate(-90) scale(0.12 -0.12)">
      <defs>
       <path id="NewTXBMI-74" d="M 1440 837 
L 1299 926 
C 1082 588 915 415 813 415 
C 762 415 710 460 710 511 
C 710 632 826 1073 1056 1864 
L 1267 2624 
L 1798 2624 
L 1798 2893 
L 1338 2893 
L 1587 3808 
L 1363 3808 
C 1018 3303 698 3037 192 2848 
L 192 2624 
L 518 2624 
L 83 1105 
C -13 773 -70 499 -70 383 
C -70 135 109 -32 378 -32 
C 762 -32 1018 180 1440 837 
z
" transform="scale(0.015625)"/>
       <path id="NewTXBMI-5e" d="M 3750 0 
L 3750 160 
C 3290 211 3194 301 3008 903 
L 2534 2423 
L 3808 3737 
C 4090 4019 4211 4096 4442 4128 
L 4442 4288 
L 3142 4288 
L 3142 4128 
L 3283 4115 
C 3430 4102 3494 4057 3494 3961 
C 3494 3846 3379 3685 3046 3333 
L 2445 2698 
C 2381 2910 2362 2986 2336 3050 
C 2189 3506 2118 3782 2118 3878 
C 2118 4025 2189 4083 2400 4108 
L 2592 4128 
L 2592 4288 
L 640 4288 
L 640 4128 
C 1024 4089 1120 4019 1222 3723 
L 1760 1981 
L 1325 1506 
C 314 390 122 211 -154 160 
L -154 0 
L 1216 0 
L 1216 160 
C 928 186 800 269 800 416 
C 800 499 845 583 992 743 
L 1850 1692 
L 1971 1308 
C 2144 814 2214 545 2214 403 
C 2214 237 2125 192 1779 160 
L 1779 0 
L 3750 0 
z
" transform="scale(0.015625)"/>
       <path id="txbsys-3" d="M 2848 2142 
C 2848 2314 2707 2481 2528 2481 
C 2253 2481 1952 1994 1728 1834 
C 1760 2103 1965 2404 1965 2666 
C 1965 2865 1824 2999 1626 2999 
C 1434 2999 1306 2858 1306 2666 
C 1306 2391 1485 2110 1517 1828 
C 1293 1994 1030 2506 736 2506 
C 557 2506 410 2340 410 2167 
C 410 1770 1139 1770 1414 1649 
C 1133 1534 397 1572 397 1156 
C 397 983 538 810 717 810 
C 992 810 1299 1303 1517 1463 
C 1485 1188 1280 906 1280 625 
C 1280 433 1421 292 1619 292 
C 1811 292 1939 439 1939 625 
C 1939 906 1760 1182 1735 1463 
C 1952 1297 2221 791 2509 791 
C 2688 791 2842 958 2842 1130 
C 2842 1534 2106 1521 1831 1642 
C 2112 1758 2848 1726 2848 2142 
z
" transform="scale(0.015625)"/>
       <path id="NewTXBMI-79" d="M 2509 2567 
C 2509 2785 2323 2976 2112 2976 
C 1920 2976 1747 2804 1747 2613 
C 1747 2453 1792 2377 1946 2262 
C 2067 2173 2099 2122 2099 2039 
C 2099 1842 1990 1587 1542 733 
L 1466 1211 
C 1325 1969 1158 2676 1043 2976 
C 736 2900 506 2863 90 2825 
L 90 2656 
C 205 2656 237 2650 282 2624 
C 390 2560 493 2299 589 1845 
C 806 810 909 203 909 5 
C 909 -142 858 -283 749 -436 
C 614 -627 429 -768 320 -768 
C 275 -768 160 -723 102 -678 
C -6 -602 -166 -544 -282 -544 
C -448 -544 -602 -710 -602 -896 
C -602 -1114 -429 -1280 -205 -1280 
C 147 -1280 563 -1031 915 -604 
C 1747 411 2509 1923 2509 2567 
z
" transform="scale(0.015625)"/>
       <path id="NewTXBMI-72" d="M 2490 2515 
C 2490 2771 2342 2938 2125 2938 
C 1798 2938 1536 2617 1030 1597 
L 1453 2938 
C 1069 2842 947 2823 173 2759 
L 173 2579 
C 461 2579 518 2553 518 2431 
C 518 2270 320 1515 -134 -32 
L 640 -32 
L 851 638 
C 1043 1261 1139 1507 1312 1802 
C 1485 2111 1638 2291 1728 2291 
C 1754 2291 1792 2266 1830 2208 
C 1926 2099 2010 2048 2118 2048 
C 2330 2048 2490 2247 2490 2515 
z
" transform="scale(0.015625)"/>
      </defs>
      <use xlink:href="#NewTXBMI-74" transform="scale(0.996264)"/>
      <use xlink:href="#NewTXBMI-5e" transform="translate(36.139486 -14.943915) scale(0.727268)"/>
      <use xlink:href="#txbsys-3" transform="translate(89.084603 6.0741) scale(0.547948)"/>
      <use xlink:href="#TeXGyreTermesX-Bold-5b" transform="translate(142.768436 0) scale(0.996264)"/>
      <use xlink:href="#NewTXBMI-79" transform="translate(181.92166 0) scale(0.996264)"/>
      <use xlink:href="#NewTXBMI-72" transform="translate(235.321326 0) scale(0.996264)"/>
      <use xlink:href="#TeXGyreTermesX-Bold-5d" transform="translate(279.356132 0) scale(0.996264)"/>
     </g>
    </g>
   </g>
   <g id="line2d_49">
    <path d="M 65.256406 76.005079 
L 68.334267 77.532946 
L 71.412127 79.058473 
L 74.489987 80.581667 
L 77.567848 82.102534 
L 80.645708 83.621078 
L 83.723569 85.137304 
L 86.801429 86.651219 
L 89.87929 88.162827 
L 92.95715 89.672133 
L 96.035011 91.179143 
L 99.112871 92.683862 
L 102.190731 94.186295 
L 105.268592 95.686448 
L 108.346452 97.184325 
L 111.424313 98.679932 
L 114.502173 100.173273 
L 117.580034 101.664355 
L 120.657894 103.153182 
L 123.735755 104.639759 
L 126.813615 106.124091 
L 129.891476 107.606183 
L 132.969336 109.086041 
L 136.047196 110.56367 
L 139.125057 112.039073 
L 142.202917 113.512257 
L 145.280778 114.983227 
L 148.358638 116.451987 
L 151.436499 117.918543 
L 154.514359 119.382898 
L 157.59222 120.845059 
L 160.67008 122.30503 
L 163.747941 123.762817 
L 166.825801 125.218423 
L 169.903661 126.671854 
L 172.981522 128.123114 
L 176.059382 129.57221 
L 179.137243 131.019144 
L 182.215103 132.463923 
L 185.292964 133.906551 
L 188.370824 135.347032 
L 191.448685 136.785372 
L 194.526545 138.221576 
L 197.604405 139.655647 
L 200.682266 141.087591 
L 203.760126 142.517413 
L 206.837987 143.945117 
L 209.915847 145.370707 
L 212.993708 146.79419 
L 216.071568 148.215568 
L 219.149429 149.634848 
L 222.227289 151.052032 
L 225.30515 152.467127 
L 228.38301 153.880137 
L 231.46087 155.291066 
L 234.538731 156.699919 
L 237.616591 158.106701 
L 240.694452 159.511415 
L 243.772312 160.914067 
L 246.850173 162.314661 
L 249.928033 163.713202 
L 253.005894 165.109693 
L 256.083754 166.504141 
L 259.161615 167.896548 
L 262.239475 169.28692 
L 265.317335 170.675261 
L 268.395196 172.061575 
L 271.473056 173.445867 
L 274.550917 174.828142 
L 277.628777 176.208403 
L 280.706638 177.586655 
L 283.784498 178.962902 
L 286.862359 180.337149 
L 289.940219 181.709401 
L 293.018079 183.07966 
L 296.09594 184.447933 
L 299.1738 185.814222 
L 302.251661 187.178533 
L 305.329521 188.540869 
L 308.407382 189.901236 
L 311.485242 191.259636 
L 314.563103 192.616075 
L 317.640963 193.970557 
L 320.718824 195.323085 
L 323.796684 196.673664 
L 326.874544 198.022299 
L 329.952405 199.368993 
L 333.030265 200.713751 
L 336.108126 202.056577 
L 339.185986 203.397474 
L 342.263847 204.736448 
L 345.341707 206.073502 
L 348.419568 207.40864 
L 351.497428 208.741867 
L 354.575289 210.073186 
L 357.653149 211.402602 
L 360.731009 212.730118 
L 363.80887 214.055739 
L 366.88673 215.379469 
L 369.964591 216.701312 
" clip-path="url(#pd0cc3b8d79)" style="fill: none; stroke: #000000; stroke-linecap: square"/>
   </g>
   <g id="line2d_50">
    <path d="M 65.256406 119.08688 
L 68.334267 120.66957 
L 71.412127 120.40128 
L 74.489987 118.479014 
L 77.567848 122.981105 
L 80.645708 124.481758 
L 83.723569 122.496653 
L 86.801429 127.053696 
L 89.87929 125.565183 
L 92.95715 126.92834 
L 96.035011 128.289198 
L 99.112871 129.648259 
L 102.190731 130.755518 
L 105.268592 132.043545 
L 108.346452 133.388682 
L 111.424313 134.929125 
L 114.502173 136.266068 
L 117.580034 137.419475 
L 120.657894 138.767879 
L 123.735755 140.084202 
L 126.813615 141.45913 
L 129.891476 142.762738 
L 132.969336 144.100822 
L 136.047196 145.436949 
L 139.125057 146.771107 
L 142.202917 148.090276 
L 145.280778 149.483902 
L 148.358638 150.814451 
L 151.436499 152.071941 
L 154.514359 153.469335 
L 157.59222 154.793983 
L 160.67008 156.11651 
L 163.747941 157.437071 
L 166.825801 158.755661 
L 169.903661 160.003075 
L 172.981522 161.202807 
L 176.059382 162.626018 
L 179.137243 163.934288 
L 182.215103 165.240928 
L 185.292964 166.545589 
L 188.370824 167.848295 
L 191.448685 169.148871 
L 194.526545 170.418893 
L 197.604405 171.631708 
L 200.682266 173.043803 
L 203.760126 174.338314 
L 206.837987 175.63135 
L 209.915847 176.928305 
L 212.993708 178.226258 
L 216.071568 179.522243 
L 219.149429 179.9397 
L 222.227289 181.112729 
L 225.30515 183.441497 
L 228.38301 184.721599 
L 231.46087 185.999887 
L 234.538731 187.276377 
L 237.616591 188.456073 
L 240.694452 189.823474 
L 243.772312 191.100938 
L 246.850173 192.378085 
L 249.928033 193.502306 
L 253.005894 194.926643 
L 256.083754 196.198384 
L 259.161615 197.468002 
L 262.239475 198.597055 
L 265.317335 199.868304 
L 268.395196 200.77973 
L 271.473056 202.03105 
L 274.550917 202.606864 
L 277.628777 204.54177 
L 280.706638 205.113158 
L 283.784498 206.363766 
L 286.862359 207.612413 
L 289.940219 208.859087 
L 293.018079 210.54125 
L 296.09594 211.770567 
L 299.1738 212.910281 
L 302.251661 214.298588 
L 305.329521 215.44769 
L 308.407382 216.635243 
L 311.485242 217.890259 
L 314.563103 219.109423 
L 317.640963 220.261601 
L 320.718824 221.245172 
L 323.796684 222.474484 
L 326.874544 223.701825 
L 329.952405 222.086603 
L 333.030265 226.127768 
L 336.108126 224.529828 
L 339.185986 225.752264 
L 342.263847 227.08395 
L 345.341707 231.199713 
L 348.419568 232.298501 
L 351.497428 233.492587 
L 354.575289 232.002848 
L 357.653149 235.756295 
L 360.731009 234.415927 
L 363.80887 238.024093 
L 366.88673 236.827523 
L 369.964591 238.037667 
" clip-path="url(#pd0cc3b8d79)" style="fill: none; stroke-dasharray: 2.775,1.2; stroke-dashoffset: 0; stroke: #000000; stroke-width: 0.75"/>
   </g>
   <g id="line2d_51">
    <path d="M 65.256406 21.620841 
L 68.334267 23.304012 
L 71.412127 24.777088 
L 74.489987 26.070873 
L 77.567848 28.055837 
L 80.645708 29.698679 
L 83.723569 30.947492 
L 86.801429 32.955438 
L 89.87929 34.288881 
L 92.95715 35.922339 
L 96.035011 37.55104 
L 99.112871 39.181725 
L 102.190731 40.807809 
L 105.268592 42.422253 
L 108.346452 44.052438 
L 111.424313 45.703354 
L 114.502173 47.328747 
L 117.580034 48.923008 
L 120.657894 50.544719 
L 123.735755 52.146648 
L 126.813615 53.749086 
L 129.891476 55.350394 
L 132.969336 56.947493 
L 136.047196 58.538641 
L 139.125057 60.132586 
L 142.202917 61.723771 
L 145.280778 63.338796 
L 148.358638 64.92161 
L 151.436499 66.493934 
L 154.514359 68.118117 
L 157.59222 69.69779 
L 160.67008 71.272931 
L 163.747941 72.837485 
L 166.825801 74.413246 
L 169.903661 75.968505 
L 172.981522 77.513755 
L 176.059382 79.093647 
L 179.137243 80.649419 
L 182.215103 82.232379 
L 185.292964 83.799638 
L 188.370824 85.349805 
L 191.448685 86.90057 
L 194.526545 88.440817 
L 197.604405 89.978765 
L 200.682266 91.541412 
L 203.760126 93.077504 
L 206.837987 94.61904 
L 209.915847 96.157155 
L 212.993708 97.692972 
L 216.071568 99.242845 
L 219.149429 100.678624 
L 222.227289 102.187108 
L 225.30515 103.872902 
L 228.38301 105.395451 
L 231.46087 106.916035 
L 234.538731 108.422798 
L 237.616591 109.927163 
L 240.694452 111.457471 
L 243.772312 112.964787 
L 246.850173 114.469628 
L 249.928033 115.942486 
L 253.005894 117.497226 
L 256.083754 119.00012 
L 259.161615 120.500714 
L 262.239475 121.988482 
L 265.317335 123.47924 
L 268.395196 124.922325 
L 271.473056 126.411326 
L 274.550917 127.78219 
L 277.628777 129.38644 
L 280.706638 130.758913 
L 283.784498 132.231044 
L 286.862359 133.719404 
L 289.940219 135.199484 
L 293.018079 136.761635 
L 296.09594 138.226033 
L 299.1738 139.687711 
L 302.251661 141.189096 
L 305.329521 142.652147 
L 308.407382 144.112844 
L 311.485242 145.57611 
L 314.563103 147.045976 
L 317.640963 148.489502 
L 320.718824 149.921929 
L 323.796684 151.365104 
L 326.874544 152.796241 
L 329.952405 153.675198 
L 333.030265 155.69663 
L 336.108126 156.589085 
L 339.185986 158.033967 
L 342.263847 159.492621 
L 345.341707 161.520822 
L 348.419568 162.954919 
L 351.497428 164.384789 
L 354.575289 165.273082 
L 357.653149 167.238218 
L 360.731009 168.139456 
L 363.80887 170.076995 
L 366.88673 170.997636 
L 369.964591 172.421226 
" clip-path="url(#pd0cc3b8d79)" style="fill: none; stroke-dasharray: 2.775,1.2; stroke-dashoffset: 0; stroke: #000000; stroke-width: 0.75"/>
   </g>
   <g id="line2d_52">
    <path d="M 65.256406 61.97343 
L 68.334267 63.502828 
L 71.412127 65.029888 
L 74.489987 66.554615 
L 77.567848 68.077014 
L 80.645708 69.597091 
L 83.723569 71.11485 
L 86.801429 72.630298 
L 89.87929 74.143439 
L 92.95715 75.654278 
L 96.035011 77.162822 
L 99.112871 78.669074 
L 102.190731 80.173041 
L 105.268592 81.674727 
L 108.346452 83.174138 
L 111.424313 84.671279 
L 114.502173 86.166155 
L 117.580034 87.65877 
L 120.657894 89.149131 
L 123.735755 90.637243 
L 126.813615 92.123109 
L 129.891476 93.606736 
L 132.969336 95.088129 
L 136.047196 96.567292 
L 139.125057 98.04423 
L 142.202917 99.518949 
L 145.280778 100.991454 
L 148.358638 102.461749 
L 151.436499 103.92984 
L 154.514359 105.395731 
L 157.59222 106.859427 
L 160.67008 108.320933 
L 163.747941 109.780255 
L 166.825801 111.237396 
L 169.903661 112.692363 
L 172.981522 114.145159 
L 176.059382 115.59579 
L 179.137243 117.04426 
L 182.215103 118.490575 
L 185.292964 119.934738 
L 188.370824 121.376756 
L 191.448685 122.816632 
L 194.526545 124.254371 
L 197.604405 125.689978 
L 200.682266 127.123459 
L 203.760126 128.554816 
L 206.837987 129.984056 
L 209.915847 131.411183 
L 212.993708 132.836201 
L 216.071568 134.259116 
L 219.149429 135.679932 
L 222.227289 137.098653 
L 225.30515 138.515284 
L 228.38301 139.92983 
L 231.46087 141.342295 
L 234.538731 142.752684 
L 237.616591 144.161002 
L 240.694452 145.567253 
L 243.772312 146.971441 
L 246.850173 148.373572 
L 249.928033 149.773649 
L 253.005894 151.171677 
L 256.083754 152.56766 
L 259.161615 153.961604 
L 262.239475 155.353512 
L 265.317335 156.743389 
L 268.395196 158.13124 
L 271.473056 159.517068 
L 274.550917 160.900879 
L 277.628777 162.282676 
L 280.706638 163.662464 
L 283.784498 165.040248 
L 286.862359 166.416031 
L 289.940219 167.789819 
L 293.018079 169.161614 
L 296.09594 170.531423 
L 299.1738 171.899248 
L 302.251661 173.265095 
L 305.329521 174.628968 
L 308.407382 175.99087 
L 311.485242 177.350806 
L 314.563103 178.708781 
L 317.640963 180.064799 
L 320.718824 181.418863 
L 323.796684 182.770978 
L 326.874544 184.121148 
L 329.952405 185.469378 
L 333.030265 186.815672 
L 336.108126 188.160033 
L 339.185986 189.502466 
L 342.263847 190.842975 
L 345.341707 192.181564 
L 348.419568 193.518238 
L 351.497428 194.852999 
L 354.575289 196.185854 
L 357.653149 197.516804 
L 360.731009 198.845856 
L 363.80887 200.173012 
L 366.88673 201.498277 
L 369.964591 202.821654 
" clip-path="url(#pd0cc3b8d79)" style="fill: none; stroke: #000000; stroke-linecap: square"/>
   </g>
   <g id="line2d_53">
    <path d="M 65.256406 50.120606 
L 68.334267 51.65096 
L 71.412127 53.178977 
L 74.489987 54.70466 
L 77.567848 56.228016 
L 80.645708 57.74905 
L 83.723569 59.267766 
L 86.801429 60.784171 
L 89.87929 62.298269 
L 92.95715 63.810066 
L 96.035011 65.319567 
L 99.112871 66.826777 
L 102.190731 68.331702 
L 105.268592 69.834346 
L 108.346452 71.334715 
L 111.424313 72.832814 
L 114.502173 74.328648 
L 117.580034 75.822222 
L 120.657894 77.313542 
L 123.735755 78.802612 
L 126.813615 80.289437 
L 129.891476 81.774023 
L 132.969336 83.256375 
L 136.047196 84.736497 
L 139.125057 86.214394 
L 142.202917 87.690073 
L 145.280778 89.163537 
L 148.358638 90.634791 
L 151.436499 92.103842 
L 154.514359 93.570692 
L 157.59222 95.035348 
L 160.67008 96.497815 
L 163.747941 97.958096 
L 166.825801 99.416198 
L 169.903661 100.872125 
L 172.981522 102.325882 
L 176.059382 103.777473 
L 179.137243 105.226904 
L 182.215103 106.674179 
L 185.292964 108.119303 
L 188.370824 109.562281 
L 191.448685 111.003118 
L 194.526545 112.441818 
L 197.604405 113.878386 
L 200.682266 115.312828 
L 203.760126 116.745147 
L 206.837987 118.175348 
L 209.915847 119.603436 
L 212.993708 121.029416 
L 216.071568 122.453292 
L 219.149429 123.875069 
L 222.227289 125.294752 
L 225.30515 126.712345 
L 228.38301 128.127852 
L 231.46087 129.541279 
L 234.538731 130.952631 
L 237.616591 132.36191 
L 240.694452 133.769123 
L 243.772312 135.174273 
L 246.850173 136.577366 
L 249.928033 137.978405 
L 253.005894 139.377395 
L 256.083754 140.774341 
L 259.161615 142.169247 
L 262.239475 143.562118 
L 265.317335 144.952958 
L 268.395196 146.341771 
L 271.473056 147.728562 
L 274.550917 149.113335 
L 277.628777 150.496095 
L 280.706638 151.876846 
L 283.784498 153.255592 
L 286.862359 154.632338 
L 289.940219 156.007088 
L 293.018079 157.379847 
L 296.09594 158.750618 
L 299.1738 160.119407 
L 302.251661 161.486216 
L 305.329521 162.851052 
L 308.407382 164.213917 
L 311.485242 165.574816 
L 314.563103 166.933754 
L 317.640963 168.290735 
L 320.718824 169.645762 
L 323.796684 170.998841 
L 326.874544 172.349974 
L 329.952405 173.699167 
L 333.030265 175.046424 
L 336.108126 176.391748 
L 339.185986 177.735145 
L 342.263847 179.076617 
L 345.341707 180.416169 
L 348.419568 181.753806 
L 351.497428 183.089531 
L 354.575289 184.423349 
L 357.653149 185.755263 
L 360.731009 187.085278 
L 363.80887 188.413397 
L 366.88673 189.739626 
L 369.964591 191.063966 
" clip-path="url(#pd0cc3b8d79)" style="fill: none; stroke: #000000; stroke-linecap: square"/>
   </g>
   <g id="patch_3">
    <path d="M 50.020997 248.858508 
L 50.020997 10.8 
" style="fill: none; stroke: #000000; stroke-width: 0.8; stroke-linejoin: miter; stroke-linecap: square"/>
   </g>
   <g id="patch_4">
    <path d="M 385.2 248.858508 
L 385.2 10.8 
" style="fill: none; stroke: #000000; stroke-width: 0.8; stroke-linejoin: miter; stroke-linecap: square"/>
   </g>
   <g id="patch_5">
    <path d="M 50.020997 248.858508 
L 385.2 248.858508 
" style="fill: none; stroke: #000000; stroke-width: 0.8; stroke-linejoin: miter; stroke-linecap: square"/>
   </g>
   <g id="patch_6">
    <path d="M 50.020997 10.8 
L 385.2 10.8 
" style="fill: none; stroke: #000000; stroke-width: 0.8; stroke-linejoin: miter; stroke-linecap: square"/>
   </g>
  </g>
 </g>
 <defs>
  <clipPath id="pd0cc3b8d79">
   <rect x="50.020997" y="10.8" width="335.179003" height="238.058508"/>
  </clipPath>
 </defs>
</svg>
