<?xml version="1.0" encoding="utf-8" standalone="no"?>
<!DOCTYPE svg PUBLIC "-//W3C//DTD SVG 1.1//EN"
  "http://www.w3.org/Graphics/SVG/1.1/DTD/svg11.dtd">
<svg xmlns:xlink="http://www.w3.org/1999/xlink" width="234pt" height="180pt" viewBox="0 0 234 180" xmlns="http://www.w3.org/2000/svg" version="1.1">
 <metadata>
  <rdf:RDF xmlns:dc="http://purl.org/dc/elements/1.1/" xmlns:cc="http://creativecommons.org/ns#" xmlns:rdf="http://www.w3.org/1999/02/22-rdf-syntax-ns#">
   <cc:Work>
    <dc:type rdf:resource="http://purl.org/dc/dcmitype/StillImage"/>
    <dc:date>2025-01-02T10:44:34.769163</dc:date>
    <dc:format>image/svg+xml</dc:format>
    <dc:creator>
     <cc:Agent>
      <dc:title>Matplotlib v3.9.0, https://matplotlib.org/</dc:title>
     </cc:Agent>
    </dc:creator>
   </cc:Work>
  </rdf:RDF>
 </metadata>
 <defs>
  <style type="text/css">*{stroke-linejoin: round; stroke-linecap: butt}</style>
 </defs>
 <g id="figure_1">
  <g id="patch_1">
   <path d="M 0 180 
L 234 180 
L 234 0 
L 0 0 
z
" style="fill: #ffffff"/>
  </g>
  <g id="axes_1">
   <g id="patch_2">
    <path d="M 33.297816 150.797179 
L 233 150.797179 
L 233 4.761635 
L 33.297816 4.761635 
z
" style="fill: #ffffff"/>
   </g>
   <g id="matplotlib.axis_1">
    <g id="xtick_1">
     <g id="line2d_1">
      <defs>
       <path id="m8ee9f4bac4" d="M 0 0 
L 0 -3.5 
" style="stroke: #000000; stroke-width: 0.8"/>
      </defs>
      <g>
       <use xlink:href="#m8ee9f4bac4" x="93.558089" y="150.797179" style="stroke: #000000; stroke-width: 0.8"/>
      </g>
     </g>
     <g id="text_1">
      <!-- $\mathdefault{10^{-1}}$ -->
      <g transform="translate(83.098328 161.82045) scale(0.11 -0.11)">
       <defs>
        <path id="TeXGyreTermesX-Bold-31" d="M 2829 0 
L 2829 159 
C 2246 159 2138 255 2138 746 
L 2138 4384 
L 2029 4384 
L 416 3686 
L 416 3521 
C 474 3540 525 3559 544 3572 
C 717 3635 877 3680 960 3680 
C 1120 3680 1190 3540 1190 3241 
L 1190 790 
C 1190 267 1062 159 429 159 
L 429 0 
L 2829 0 
z
" transform="scale(0.015625)"/>
        <path id="TeXGyreTermesX-Bold-30" d="M 3046 2166 
C 3046 3440 2426 4403 1600 4403 
C 1184 4403 762 4123 499 3664 
C 294 3313 154 2714 154 2185 
C 154 873 755 -64 1606 -64 
C 2432 -64 3046 886 3046 2166 
z
M 2035 1434 
C 2035 1058 1984 561 1926 389 
C 1856 203 1754 114 1606 114 
C 1286 114 1165 491 1165 1434 
L 1165 2892 
C 1165 3855 1286 4224 1594 4224 
C 1907 4224 2035 3829 2035 2892 
L 2035 1434 
z
" transform="scale(0.015625)"/>
        <path id="txbsys-0" d="M 3929 1341 
L 3929 1955 
L 396 1955 
L 396 1341 
L 3929 1341 
z
" transform="scale(0.015625)"/>
       </defs>
       <use xlink:href="#TeXGyreTermesX-Bold-31" transform="scale(0.996264)"/>
       <use xlink:href="#TeXGyreTermesX-Bold-30" transform="translate(49.8132 0) scale(0.996264)"/>
       <use xlink:href="#txbsys-0" transform="translate(99.626401 36.164371) scale(0.727268)"/>
       <use xlink:href="#TeXGyreTermesX-Bold-31" transform="translate(148.78971 36.164371) scale(0.727268)"/>
      </g>
     </g>
    </g>
    <g id="xtick_2">
     <g id="line2d_2">
      <g>
       <use xlink:href="#m8ee9f4bac4" x="184.530347" y="150.797179" style="stroke: #000000; stroke-width: 0.8"/>
      </g>
     </g>
     <g id="text_2">
      <!-- $\mathdefault{10^{0}}$ -->
      <g transform="translate(177.083282 161.82045) scale(0.11 -0.11)">
       <use xlink:href="#TeXGyreTermesX-Bold-31" transform="scale(0.996264)"/>
       <use xlink:href="#TeXGyreTermesX-Bold-30" transform="translate(49.8132 0) scale(0.996264)"/>
       <use xlink:href="#TeXGyreTermesX-Bold-30" transform="translate(99.626401 36.164371) scale(0.727268)"/>
      </g>
     </g>
    </g>
    <g id="xtick_3">
     <g id="line2d_3">
      <defs>
       <path id="m133bf644fb" d="M 0 0 
L 0 -2 
" style="stroke: #000000; stroke-width: 0.6"/>
      </defs>
      <g>
       <use xlink:href="#m133bf644fb" x="45.990629" y="150.797179" style="stroke: #000000; stroke-width: 0.6"/>
      </g>
     </g>
    </g>
    <g id="xtick_4">
     <g id="line2d_4">
      <g>
       <use xlink:href="#m133bf644fb" x="57.356588" y="150.797179" style="stroke: #000000; stroke-width: 0.6"/>
      </g>
     </g>
    </g>
    <g id="xtick_5">
     <g id="line2d_5">
      <g>
       <use xlink:href="#m133bf644fb" x="66.17271" y="150.797179" style="stroke: #000000; stroke-width: 0.6"/>
      </g>
     </g>
    </g>
    <g id="xtick_6">
     <g id="line2d_6">
      <g>
       <use xlink:href="#m133bf644fb" x="73.376007" y="150.797179" style="stroke: #000000; stroke-width: 0.6"/>
      </g>
     </g>
    </g>
    <g id="xtick_7">
     <g id="line2d_7">
      <g>
       <use xlink:href="#m133bf644fb" x="79.466308" y="150.797179" style="stroke: #000000; stroke-width: 0.6"/>
      </g>
     </g>
    </g>
    <g id="xtick_8">
     <g id="line2d_8">
      <g>
       <use xlink:href="#m133bf644fb" x="84.741966" y="150.797179" style="stroke: #000000; stroke-width: 0.6"/>
      </g>
     </g>
    </g>
    <g id="xtick_9">
     <g id="line2d_9">
      <g>
       <use xlink:href="#m133bf644fb" x="89.395426" y="150.797179" style="stroke: #000000; stroke-width: 0.6"/>
      </g>
     </g>
    </g>
    <g id="xtick_10">
     <g id="line2d_10">
      <g>
       <use xlink:href="#m133bf644fb" x="120.943467" y="150.797179" style="stroke: #000000; stroke-width: 0.6"/>
      </g>
     </g>
    </g>
    <g id="xtick_11">
     <g id="line2d_11">
      <g>
       <use xlink:href="#m133bf644fb" x="136.962887" y="150.797179" style="stroke: #000000; stroke-width: 0.6"/>
      </g>
     </g>
    </g>
    <g id="xtick_12">
     <g id="line2d_12">
      <g>
       <use xlink:href="#m133bf644fb" x="148.328846" y="150.797179" style="stroke: #000000; stroke-width: 0.6"/>
      </g>
     </g>
    </g>
    <g id="xtick_13">
     <g id="line2d_13">
      <g>
       <use xlink:href="#m133bf644fb" x="157.144968" y="150.797179" style="stroke: #000000; stroke-width: 0.6"/>
      </g>
     </g>
    </g>
    <g id="xtick_14">
     <g id="line2d_14">
      <g>
       <use xlink:href="#m133bf644fb" x="164.348265" y="150.797179" style="stroke: #000000; stroke-width: 0.6"/>
      </g>
     </g>
    </g>
    <g id="xtick_15">
     <g id="line2d_15">
      <g>
       <use xlink:href="#m133bf644fb" x="170.438566" y="150.797179" style="stroke: #000000; stroke-width: 0.6"/>
      </g>
     </g>
    </g>
    <g id="xtick_16">
     <g id="line2d_16">
      <g>
       <use xlink:href="#m133bf644fb" x="175.714224" y="150.797179" style="stroke: #000000; stroke-width: 0.6"/>
      </g>
     </g>
    </g>
    <g id="xtick_17">
     <g id="line2d_17">
      <g>
       <use xlink:href="#m133bf644fb" x="180.367684" y="150.797179" style="stroke: #000000; stroke-width: 0.6"/>
      </g>
     </g>
    </g>
    <g id="xtick_18">
     <g id="line2d_18">
      <g>
       <use xlink:href="#m133bf644fb" x="211.915725" y="150.797179" style="stroke: #000000; stroke-width: 0.6"/>
      </g>
     </g>
    </g>
    <g id="xtick_19">
     <g id="line2d_19">
      <g>
       <use xlink:href="#m133bf644fb" x="227.935145" y="150.797179" style="stroke: #000000; stroke-width: 0.6"/>
      </g>
     </g>
    </g>
    <g id="text_3">
     <!-- $t$ [hr] -->
     <g transform="translate(120.775303 176.40574) scale(0.12 -0.12)">
      <defs>
       <path id="NewTXBMI-74" d="M 1440 837 
L 1299 926 
C 1082 588 915 415 813 415 
C 762 415 710 460 710 511 
C 710 632 826 1073 1056 1864 
L 1267 2624 
L 1798 2624 
L 1798 2893 
L 1338 2893 
L 1587 3808 
L 1363 3808 
C 1018 3303 698 3037 192 2848 
L 192 2624 
L 518 2624 
L 83 1105 
C -13 773 -70 499 -70 383 
C -70 135 109 -32 378 -32 
C 762 -32 1018 180 1440 837 
z
" transform="scale(0.015625)"/>
       <path id="TeXGyreTermesX-Regular-5b" d="M 1914 -1024 
L 1914 -864 
L 1363 -864 
C 1152 -864 1050 -756 1050 -531 
L 1050 3781 
C 1050 3981 1133 4064 1338 4064 
L 1914 4064 
L 1914 4224 
L 563 4224 
L 563 -1024 
L 1914 -1024 
z
" transform="scale(0.015625)"/>
       <path id="TeXGyreTermesX-Regular-68" d="M 3117 32 
L 3117 128 
C 2771 192 2733 243 2733 684 
L 2733 1954 
C 2733 2625 2464 2970 1946 2970 
C 1568 2970 1299 2816 1005 2432 
L 1005 4390 
L 973 4409 
C 755 4332 595 4281 237 4179 
L 64 4128 
L 64 4026 
C 90 4032 109 4032 141 4032 
C 416 4032 467 3980 467 3705 
L 467 686 
C 467 237 429 179 58 128 
L 58 32 
L 1440 32 
L 1440 128 
C 1069 166 1005 243 1005 684 
L 1005 2222 
C 1274 2516 1466 2624 1715 2624 
C 2035 2624 2195 2395 2195 1948 
L 2195 684 
C 2195 250 2131 166 1760 128 
L 1760 32 
L 3117 32 
z
" transform="scale(0.015625)"/>
       <path id="TeXGyreTermesX-Regular-72" d="M 2144 2605 
C 2144 2816 2010 2944 1792 2944 
C 1523 2944 1338 2797 1024 2343 
L 1024 2931 
L 992 2944 
C 653 2803 422 2721 45 2599 
L 45 2496 
C 134 2515 192 2522 269 2522 
C 429 2522 486 2419 486 2138 
L 486 538 
C 486 218 442 173 32 96 
L 32 0 
L 1568 0 
L 1568 102 
C 1133 102 1024 199 1024 565 
L 1024 2013 
C 1024 2219 1299 2541 1472 2541 
C 1510 2541 1568 2509 1638 2445 
C 1741 2355 1811 2317 1894 2317 
C 2048 2317 2144 2426 2144 2605 
z
" transform="scale(0.015625)"/>
       <path id="TeXGyreTermesX-Regular-5d" d="M 1568 -1024 
L 1568 4224 
L 218 4224 
L 218 4064 
L 768 4064 
C 979 4064 1082 3955 1082 3730 
L 1082 -582 
C 1082 -781 992 -864 794 -864 
L 218 -864 
L 218 -1024 
L 1568 -1024 
z
" transform="scale(0.015625)"/>
      </defs>
      <use xlink:href="#NewTXBMI-74" transform="scale(0.996264)"/>
      <use xlink:href="#TeXGyreTermesX-Regular-5b" transform="translate(56.886681 0) scale(0.996264)"/>
      <use xlink:href="#TeXGyreTermesX-Regular-68" transform="translate(90.062291 0) scale(0.996264)"/>
      <use xlink:href="#TeXGyreTermesX-Regular-72" transform="translate(139.875491 0) scale(0.996264)"/>
      <use xlink:href="#TeXGyreTermesX-Regular-5d" transform="translate(173.051101 0) scale(0.996264)"/>
     </g>
    </g>
   </g>
   <g id="matplotlib.axis_2">
    <g id="ytick_1">
     <g id="line2d_20">
      <defs>
       <path id="ma697736c44" d="M 0 0 
L 3.5 0 
" style="stroke: #000000; stroke-width: 0.8"/>
      </defs>
      <g>
       <use xlink:href="#ma697736c44" x="33.297816" y="129.934959" style="stroke: #000000; stroke-width: 0.8"/>
      </g>
     </g>
     <g id="text_4">
      <!-- $\mathdefault{0.0}$ -->
      <g transform="translate(15.801474 133.696594) scale(0.11 -0.11)">
       <defs>
        <path id="NewTXBMI-93" d="M 1344 473 
C 1344 768 1101 1017 800 1017 
C 493 1017 262 761 262 473 
C 262 173 493 -64 800 -64 
C 1101 -64 1344 166 1344 473 
z
" transform="scale(0.015625)"/>
       </defs>
       <use xlink:href="#TeXGyreTermesX-Bold-30" transform="scale(0.996264)"/>
       <use xlink:href="#NewTXBMI-93" transform="translate(51.407199 0) scale(0.996264)"/>
       <use xlink:href="#TeXGyreTermesX-Bold-30" transform="translate(78.00746 0) scale(0.996264)"/>
      </g>
     </g>
    </g>
    <g id="ytick_2">
     <g id="line2d_21">
      <g>
       <use xlink:href="#ma697736c44" x="33.297816" y="88.210517" style="stroke: #000000; stroke-width: 0.8"/>
      </g>
     </g>
     <g id="text_5">
      <!-- $\mathdefault{0.5}$ -->
      <g transform="translate(15.801474 91.972153) scale(0.11 -0.11)">
       <defs>
        <path id="TeXGyreTermesX-Bold-35" d="M 3008 4288 
L 947 4288 
L 326 2093 
C 934 2049 1197 2010 1478 1921 
C 2048 1743 2387 1381 2387 960 
C 2387 604 2106 324 1747 324 
C 1600 324 1427 400 1171 591 
C 896 795 704 877 538 877 
C 307 877 141 718 141 496 
C 141 159 512 -64 1082 -64 
C 2138 -64 2886 575 2886 1476 
C 2886 2140 2477 2652 1779 2850 
C 1536 2920 1338 2946 813 2946 
L 954 3481 
L 2733 3481 
L 3008 4288 
z
" transform="scale(0.015625)"/>
       </defs>
       <use xlink:href="#TeXGyreTermesX-Bold-30" transform="scale(0.996264)"/>
       <use xlink:href="#NewTXBMI-93" transform="translate(51.407199 0) scale(0.996264)"/>
       <use xlink:href="#TeXGyreTermesX-Bold-35" transform="translate(78.00746 0) scale(0.996264)"/>
      </g>
     </g>
    </g>
    <g id="ytick_3">
     <g id="line2d_22">
      <g>
       <use xlink:href="#ma697736c44" x="33.297816" y="46.486076" style="stroke: #000000; stroke-width: 0.8"/>
      </g>
     </g>
     <g id="text_6">
      <!-- $\mathdefault{1.0}$ -->
      <g transform="translate(15.801474 50.247712) scale(0.11 -0.11)">
       <use xlink:href="#TeXGyreTermesX-Bold-31" transform="scale(0.996264)"/>
       <use xlink:href="#NewTXBMI-93" transform="translate(51.407199 0) scale(0.996264)"/>
       <use xlink:href="#TeXGyreTermesX-Bold-30" transform="translate(78.00746 0) scale(0.996264)"/>
      </g>
     </g>
    </g>
    <g id="ytick_4">
     <g id="line2d_23">
      <g>
       <use xlink:href="#ma697736c44" x="33.297816" y="4.761635" style="stroke: #000000; stroke-width: 0.8"/>
      </g>
     </g>
     <g id="text_7">
      <!-- $\mathdefault{1.5}$ -->
      <g transform="translate(15.801474 8.523271) scale(0.11 -0.11)">
       <use xlink:href="#TeXGyreTermesX-Bold-31" transform="scale(0.996264)"/>
       <use xlink:href="#NewTXBMI-93" transform="translate(51.407199 0) scale(0.996264)"/>
       <use xlink:href="#TeXGyreTermesX-Bold-35" transform="translate(78.00746 0) scale(0.996264)"/>
      </g>
     </g>
    </g>
    <g id="ytick_5">
     <g id="line2d_24">
      <defs>
       <path id="m9f988dd44d" d="M 0 0 
L 2 0 
" style="stroke: #000000; stroke-width: 0.6"/>
      </defs>
      <g>
       <use xlink:href="#m9f988dd44d" x="33.297816" y="146.624735" style="stroke: #000000; stroke-width: 0.6"/>
      </g>
     </g>
    </g>
    <g id="ytick_6">
     <g id="line2d_25">
      <g>
       <use xlink:href="#m9f988dd44d" x="33.297816" y="138.279847" style="stroke: #000000; stroke-width: 0.6"/>
      </g>
     </g>
    </g>
    <g id="ytick_7">
     <g id="line2d_26">
      <g>
       <use xlink:href="#m9f988dd44d" x="33.297816" y="121.59007" style="stroke: #000000; stroke-width: 0.6"/>
      </g>
     </g>
    </g>
    <g id="ytick_8">
     <g id="line2d_27">
      <g>
       <use xlink:href="#m9f988dd44d" x="33.297816" y="113.245182" style="stroke: #000000; stroke-width: 0.6"/>
      </g>
     </g>
    </g>
    <g id="ytick_9">
     <g id="line2d_28">
      <g>
       <use xlink:href="#m9f988dd44d" x="33.297816" y="104.900294" style="stroke: #000000; stroke-width: 0.6"/>
      </g>
     </g>
    </g>
    <g id="ytick_10">
     <g id="line2d_29">
      <g>
       <use xlink:href="#m9f988dd44d" x="33.297816" y="96.555406" style="stroke: #000000; stroke-width: 0.6"/>
      </g>
     </g>
    </g>
    <g id="ytick_11">
     <g id="line2d_30">
      <g>
       <use xlink:href="#m9f988dd44d" x="33.297816" y="79.865629" style="stroke: #000000; stroke-width: 0.6"/>
      </g>
     </g>
    </g>
    <g id="ytick_12">
     <g id="line2d_31">
      <g>
       <use xlink:href="#m9f988dd44d" x="33.297816" y="71.520741" style="stroke: #000000; stroke-width: 0.6"/>
      </g>
     </g>
    </g>
    <g id="ytick_13">
     <g id="line2d_32">
      <g>
       <use xlink:href="#m9f988dd44d" x="33.297816" y="63.175853" style="stroke: #000000; stroke-width: 0.6"/>
      </g>
     </g>
    </g>
    <g id="ytick_14">
     <g id="line2d_33">
      <g>
       <use xlink:href="#m9f988dd44d" x="33.297816" y="54.830965" style="stroke: #000000; stroke-width: 0.6"/>
      </g>
     </g>
    </g>
    <g id="ytick_15">
     <g id="line2d_34">
      <g>
       <use xlink:href="#m9f988dd44d" x="33.297816" y="38.141188" style="stroke: #000000; stroke-width: 0.6"/>
      </g>
     </g>
    </g>
    <g id="ytick_16">
     <g id="line2d_35">
      <g>
       <use xlink:href="#m9f988dd44d" x="33.297816" y="29.7963" style="stroke: #000000; stroke-width: 0.6"/>
      </g>
     </g>
    </g>
    <g id="ytick_17">
     <g id="line2d_36">
      <g>
       <use xlink:href="#m9f988dd44d" x="33.297816" y="21.451412" style="stroke: #000000; stroke-width: 0.6"/>
      </g>
     </g>
    </g>
    <g id="ytick_18">
     <g id="line2d_37">
      <g>
       <use xlink:href="#m9f988dd44d" x="33.297816" y="13.106524" style="stroke: #000000; stroke-width: 0.6"/>
      </g>
     </g>
    </g>
    <g id="text_8">
     <!-- $X$ -->
     <g transform="translate(9.207214 81.766455) rotate(-90) scale(0.12 -0.12)">
      <defs>
       <path id="NewTXBMI-5e" d="M 3750 0 
L 3750 160 
C 3290 211 3194 301 3008 903 
L 2534 2423 
L 3808 3737 
C 4090 4019 4211 4096 4442 4128 
L 4442 4288 
L 3142 4288 
L 3142 4128 
L 3283 4115 
C 3430 4102 3494 4057 3494 3961 
C 3494 3846 3379 3685 3046 3333 
L 2445 2698 
C 2381 2910 2362 2986 2336 3050 
C 2189 3506 2118 3782 2118 3878 
C 2118 4025 2189 4083 2400 4108 
L 2592 4128 
L 2592 4288 
L 640 4288 
L 640 4128 
C 1024 4089 1120 4019 1222 3723 
L 1760 1981 
L 1325 1506 
C 314 390 122 211 -154 160 
L -154 0 
L 1216 0 
L 1216 160 
C 928 186 800 269 800 416 
C 800 499 845 583 992 743 
L 1850 1692 
L 1971 1308 
C 2144 814 2214 545 2214 403 
C 2214 237 2125 192 1779 160 
L 1779 0 
L 3750 0 
z
" transform="scale(0.015625)"/>
      </defs>
      <use xlink:href="#NewTXBMI-5e" transform="scale(0.996264)"/>
     </g>
    </g>
   </g>
   <g id="line2d_38">
    <path d="M -1 129.774572 
L 42.375188 129.774495 
L 69.760567 129.393777 
L 85.779986 128.835192 
L 97.145945 128.119652 
L 105.962068 127.262228 
L 113.165365 126.27532 
L 119.255665 125.16986 
L 124.531324 123.955873 
L 129.184784 122.642773 
L 133.347446 121.239531 
L 137.113032 119.754771 
L 140.550743 118.19682 
L 143.71313 116.573743 
L 146.641044 114.893354 
L 149.366866 113.163221 
L 151.916702 111.390665 
L 154.311905 109.582756 
L 156.570162 107.746304 
L 158.706291 105.887849 
L 160.732825 104.013656 
L 162.660463 102.129704 
L 164.498411 100.241679 
L 166.254644 98.354968 
L 167.936121 96.474654 
L 169.548947 94.60551 
L 171.098509 92.751998 
L 172.589582 90.91827 
L 174.026422 89.108163 
L 175.412836 87.325205 
L 176.752244 85.572617 
L 178.047729 83.853319 
L 179.30208 82.169931 
L 180.51783 80.524786 
L 181.697283 78.919934 
L 182.842545 77.35715 
L 183.955541 75.837948 
L 185.03804 74.363587 
L 186.091669 72.935086 
L 187.117928 71.553231 
L 188.118203 70.218592 
L 189.093777 68.93153 
L 190.045841 67.692217 
L 190.975502 66.500641 
L 191.883789 65.356621 
L 192.771664 64.259825 
L 193.640023 63.209775 
L 194.489706 62.205865 
L 195.3215 61.247369 
L 196.136142 60.333458 
L 196.934326 59.463207 
L 197.716703 58.635608 
L 198.483887 57.849582 
L 199.236457 57.103986 
L 199.97496 56.397628 
L 200.699912 55.729271 
L 201.4118 55.097644 
L 202.111089 54.501452 
L 202.798215 53.939381 
L 203.473594 53.410106 
L 204.137623 52.9123 
L 204.790675 52.444634 
L 205.433107 52.005791 
L 206.065261 51.594464 
L 206.687459 51.209365 
L 207.30001 50.849224 
L 207.903209 50.512799 
L 208.497336 50.198876 
L 209.082662 49.906269 
L 209.659442 49.633829 
L 210.227923 49.380437 
L 210.78834 49.145016 
L 211.340919 48.926522 
L 211.885876 48.723953 
L 212.423418 48.536345 
L 212.953745 48.362774 
L 213.477048 48.202356 
L 213.993509 48.054247 
L 214.503307 47.917642 
L 215.00661 47.791775 
L 215.503582 47.67592 
L 215.99438 47.569387 
L 216.479156 47.471524 
L 216.958056 47.381714 
L 217.43122 47.299377 
L 217.898785 47.223965 
L 218.36088 47.154962 
L 218.817634 47.091886 
L 219.269168 47.034283 
L 219.715599 46.981729 
L 220.157042 46.933828 
L 220.593607 46.890209 
L 221.025401 46.850526 
L 221.452527 46.81446 
L 221.875084 46.781711 
L 222.29317 46.752002 
L 222.706878 46.725075 
L 223.116299 46.700694 
L 223.521521 46.678638 
L 223.922628 46.658703 
" clip-path="url(#pc2707930a3)" style="fill: none; stroke: #b22222; stroke-width: 1.5; stroke-linecap: square"/>
   </g>
   <g id="line2d_39">
    <path d="M -1 129.934959 
L 42.375188 129.934959 
L 69.760567 129.934959 
L 85.779986 129.934959 
L 97.145945 129.934959 
L 105.962068 129.79541 
L 113.165365 129.491527 
L 119.255665 129.263422 
L 124.531324 128.828287 
L 129.184784 128.36469 
L 133.347446 127.862914 
L 137.113032 127.035832 
L 140.550743 126.317192 
L 143.71313 125.473055 
L 146.641044 124.5797 
L 149.366866 123.538913 
L 151.916702 122.445905 
L 154.311905 121.467302 
L 156.570162 119.767989 
L 158.706291 118.30668 
L 160.732825 116.320213 
L 162.660463 114.899193 
L 164.498411 113.887951 
L 166.254644 112.453968 
L 167.936121 110.47525 
L 169.548947 109.365783 
L 171.098509 107.510791 
L 172.589582 105.545169 
L 174.026422 103.913582 
L 175.412836 102.317733 
L 176.752244 100.742685 
L 178.047729 98.885401 
L 179.30208 97.513866 
L 180.51783 96.321797 
L 181.697283 94.319681 
L 182.842545 93.17755 
L 183.955541 91.188859 
L 185.03804 89.763287 
L 186.091669 88.480956 
L 187.117928 87.232472 
L 188.118203 85.412954 
L 189.093777 83.947621 
L 190.045841 82.509605 
L 190.975502 81.649671 
L 191.883789 80.255206 
L 192.771664 78.848974 
L 193.640023 77.801079 
L 194.489706 76.901119 
L 195.3215 75.869344 
L 196.136142 74.310481 
L 196.934326 73.219368 
L 197.716703 72.064424 
L 198.483887 70.935006 
L 199.236457 69.964003 
L 199.97496 68.868323 
L 200.699912 67.945538 
L 201.4118 67.10921 
L 202.111089 66.184086 
L 202.798215 65.441 
L 203.473594 64.723847 
L 204.137623 64.031832 
L 204.790675 63.345269 
L 205.433107 62.671877 
L 206.065261 62.019286 
L 206.687459 61.416405 
L 207.30001 60.806694 
L 207.903209 60.206618 
L 208.497336 59.668472 
L 209.082662 59.132083 
L 209.659442 58.626019 
L 210.227923 58.151396 
L 210.78834 57.662905 
L 211.340919 57.192997 
L 211.885876 56.736444 
L 212.423418 56.308993 
L 212.953745 55.903035 
L 213.477048 55.50601 
L 213.993509 55.110756 
L 214.503307 54.725181 
L 215.00661 54.372409 
L 215.503582 54.026024 
L 215.99438 53.709552 
L 216.479156 53.391891 
L 216.958056 53.08009 
L 217.43122 52.770835 
L 217.898785 52.504043 
L 218.36088 52.248293 
L 218.817634 51.98546 
L 219.269168 51.742403 
L 219.715599 51.518531 
L 220.157042 51.265417 
L 220.593607 51.043196 
L 221.025401 50.8372 
L 221.452527 50.658024 
L 221.875084 50.461951 
L 222.29317 50.274135 
L 222.706878 50.099689 
L 223.116299 49.93728 
L 223.521521 49.76746 
L 223.922628 49.611994 
" clip-path="url(#pc2707930a3)" style="fill: none; stroke: #000000; stroke-width: 0.75; stroke-linecap: square"/>
   </g>
   <g id="line2d_40">
    <path d="M -1 129.286885 
L 42.375188 129.286575 
L 69.760567 128.268987 
L 85.779986 127.03154 
L 97.145945 125.634937 
L 105.962068 124.02906 
L 113.165365 122.189572 
L 119.255665 120.477497 
L 124.531324 118.503221 
L 129.184784 116.541941 
L 133.347446 114.575404 
L 137.113032 112.329575 
L 140.550743 110.251512 
L 143.71313 108.172211 
L 146.641044 106.016197 
L 149.366866 103.791522 
L 151.916702 101.575855 
L 154.311905 99.599773 
L 156.570162 96.993294 
L 158.706291 94.749857 
L 160.732825 92.184512 
L 162.660463 90.055491 
L 164.498411 88.342456 
L 166.254644 86.33571 
L 167.936121 83.85616 
L 169.548947 82.265633 
L 171.098509 80.008658 
L 172.589582 77.717283 
L 174.026422 75.695664 
L 175.412836 73.80388 
L 176.752244 71.853514 
L 178.047729 69.704115 
L 179.30208 68.10163 
L 180.51783 66.621415 
L 181.697283 64.460492 
L 182.842545 63.234853 
L 183.955541 61.319895 
L 185.03804 59.930271 
L 186.091669 58.700379 
L 187.117928 57.571921 
L 188.118203 55.908292 
L 189.093777 54.775711 
L 190.045841 53.561895 
L 190.975502 53.022457 
L 191.883789 51.96432 
L 192.771664 50.916903 
L 193.640023 50.350048 
L 194.489706 49.950969 
L 195.3215 49.432555 
L 196.136142 48.495693 
L 196.934326 48.11255 
L 197.716703 47.573465 
L 198.483887 47.166472 
L 199.236457 47.018567 
L 199.97496 46.74017 
L 200.699912 46.67048 
L 201.4118 46.626138 
L 202.111089 46.486076 
L 202.798215 46.486076 
L 203.473594 46.486076 
L 204.137623 46.486076 
L 204.790675 46.486076 
L 205.433107 46.486076 
L 206.065261 46.486076 
L 206.687459 46.486076 
L 207.30001 46.486076 
L 207.903209 46.486076 
L 208.497336 46.486076 
L 209.082662 46.486076 
L 209.659442 46.486076 
L 210.227923 46.486076 
L 210.78834 46.486076 
L 211.340919 46.486076 
L 211.885876 46.486076 
L 212.423418 46.486076 
L 212.953745 46.486076 
L 213.477048 46.486076 
L 213.993509 46.486076 
L 214.503307 46.486076 
L 215.00661 46.486076 
L 215.503582 46.486076 
L 215.99438 46.486076 
L 216.479156 46.486076 
L 216.958056 46.486076 
L 217.43122 46.486076 
L 217.898785 46.486076 
L 218.36088 46.486076 
L 218.817634 46.486076 
L 219.269168 46.486076 
L 219.715599 46.486076 
L 220.157042 46.486076 
L 220.593607 46.486076 
L 221.025401 46.486076 
L 221.452527 46.486076 
L 221.875084 46.486076 
L 222.29317 46.486076 
L 222.706878 46.486076 
L 223.116299 46.486076 
L 223.521521 46.486076 
L 223.922628 46.486076 
" clip-path="url(#pc2707930a3)" style="fill: none; stroke: #000000; stroke-width: 0.75; stroke-linecap: square"/>
   </g>
   <g id="LineCollection_1">
    <path d="M 132.798705 136.994078 
L 132.798705 122.875839 
" clip-path="url(#pc2707930a3)" style="fill: none; stroke: #000000; stroke-width: 0.5"/>
    <path d="M 143.97426 118.463889 
L 143.97426 86.445738 
" clip-path="url(#pc2707930a3)" style="fill: none; stroke: #000000; stroke-width: 0.5"/>
    <path d="M 156.607988 123.254006 
L 156.607988 100.311866 
" clip-path="url(#pc2707930a3)" style="fill: none; stroke: #000000; stroke-width: 0.5"/>
    <path d="M 162.757656 122.875839 
L 162.757656 92.370356 
" clip-path="url(#pc2707930a3)" style="fill: none; stroke: #000000; stroke-width: 0.5"/>
    <path d="M 168.233022 118.211777 
L 168.233022 95.521749 
" clip-path="url(#pc2707930a3)" style="fill: none; stroke: #000000; stroke-width: 0.5"/>
    <path d="M 172.765792 84.554902 
L 172.765792 52.536751 
" clip-path="url(#pc2707930a3)" style="fill: none; stroke: #000000; stroke-width: 0.5"/>
    <path d="M 184.509828 80.899286 
L 184.509828 64.259932 
" clip-path="url(#pc2707930a3)" style="fill: none; stroke: #000000; stroke-width: 0.5"/>
    <path d="M 193.387475 61.360651 
L 193.387475 39.426957 
" clip-path="url(#pc2707930a3)" style="fill: none; stroke: #000000; stroke-width: 0.5"/>
    <path d="M 200.563439 64.638099 
L 200.563439 46.233965 
" clip-path="url(#pc2707930a3)" style="fill: none; stroke: #000000; stroke-width: 0.5"/>
    <path d="M 207.903209 65.394433 
L 207.903209 44.469185 
" clip-path="url(#pc2707930a3)" style="fill: none; stroke: #000000; stroke-width: 0.5"/>
   </g>
   <g id="line2d_41">
    <defs>
     <path id="m6db6239c76" d="M 2 0 
L -2 -0 
" style="stroke: #000000"/>
    </defs>
    <g clip-path="url(#pc2707930a3)">
     <use xlink:href="#m6db6239c76" x="132.798705" y="136.994078" style="stroke: #000000"/>
     <use xlink:href="#m6db6239c76" x="143.97426" y="118.463889" style="stroke: #000000"/>
     <use xlink:href="#m6db6239c76" x="156.607988" y="123.254006" style="stroke: #000000"/>
     <use xlink:href="#m6db6239c76" x="162.757656" y="122.875839" style="stroke: #000000"/>
     <use xlink:href="#m6db6239c76" x="168.233022" y="118.211777" style="stroke: #000000"/>
     <use xlink:href="#m6db6239c76" x="172.765792" y="84.554902" style="stroke: #000000"/>
     <use xlink:href="#m6db6239c76" x="184.509828" y="80.899286" style="stroke: #000000"/>
     <use xlink:href="#m6db6239c76" x="193.387475" y="61.360651" style="stroke: #000000"/>
     <use xlink:href="#m6db6239c76" x="200.563439" y="64.638099" style="stroke: #000000"/>
     <use xlink:href="#m6db6239c76" x="207.903209" y="65.394433" style="stroke: #000000"/>
    </g>
   </g>
   <g id="line2d_42">
    <g clip-path="url(#pc2707930a3)">
     <use xlink:href="#m6db6239c76" x="132.798705" y="122.875839" style="stroke: #000000"/>
     <use xlink:href="#m6db6239c76" x="143.97426" y="86.445738" style="stroke: #000000"/>
     <use xlink:href="#m6db6239c76" x="156.607988" y="100.311866" style="stroke: #000000"/>
     <use xlink:href="#m6db6239c76" x="162.757656" y="92.370356" style="stroke: #000000"/>
     <use xlink:href="#m6db6239c76" x="168.233022" y="95.521749" style="stroke: #000000"/>
     <use xlink:href="#m6db6239c76" x="172.765792" y="52.536751" style="stroke: #000000"/>
     <use xlink:href="#m6db6239c76" x="184.509828" y="64.259932" style="stroke: #000000"/>
     <use xlink:href="#m6db6239c76" x="193.387475" y="39.426957" style="stroke: #000000"/>
     <use xlink:href="#m6db6239c76" x="200.563439" y="46.233965" style="stroke: #000000"/>
     <use xlink:href="#m6db6239c76" x="207.903209" y="44.469185" style="stroke: #000000"/>
    </g>
   </g>
   <g id="patch_3">
    <path d="M 33.297816 150.797179 
L 33.297816 4.761635 
" style="fill: none; stroke: #000000; stroke-width: 0.8; stroke-linejoin: miter; stroke-linecap: square"/>
   </g>
   <g id="patch_4">
    <path d="M 233 150.797179 
L 233 4.761635 
" style="fill: none; stroke: #000000; stroke-width: 0.8; stroke-linejoin: miter; stroke-linecap: square"/>
   </g>
   <g id="patch_5">
    <path d="M 33.297816 150.797179 
L 233 150.797179 
" style="fill: none; stroke: #000000; stroke-width: 0.8; stroke-linejoin: miter; stroke-linecap: square"/>
   </g>
   <g id="patch_6">
    <path d="M 33.297816 4.761635 
L 233 4.761635 
" style="fill: none; stroke: #000000; stroke-width: 0.8; stroke-linejoin: miter; stroke-linecap: square"/>
   </g>
   <g id="legend_1">
    <g id="patch_7">
     <path d="M 40.297816 26.923527 
L 129.289694 26.923527 
Q 131.289694 26.923527 131.289694 24.923527 
L 131.289694 11.761635 
Q 131.289694 9.761635 129.289694 9.761635 
L 40.297816 9.761635 
Q 38.297816 9.761635 38.297816 11.761635 
L 38.297816 24.923527 
Q 38.297816 26.923527 40.297816 26.923527 
z
" style="fill: #ffffff; opacity: 0.8; stroke: #cccccc; stroke-linejoin: miter"/>
    </g>
    <g id="PathCollection_1">
     <defs>
      <path id="m13d0efabe4" d="M 0 -3.535534 
L -3.061862 -1.767767 
L -3.061862 1.767767 
L -0 3.535534 
L 3.061862 1.767767 
L 3.061862 -1.767767 
z
" style="stroke: #000000"/>
     </defs>
     <g>
      <use xlink:href="#m13d0efabe4" x="52.297816" y="18.136635" style="fill: #d95f02; stroke: #000000"/>
     </g>
    </g>
    <g id="text_9">
     <!-- \textbf{$T = 1500$[$^\circ C $]} -->
     <g transform="translate(70.297816 20.761635) scale(0.1 -0.1)">
      <defs>
       <path id="NewTXBMI-5a" d="M 3930 3057 
L 4160 4288 
L 634 4288 
L 390 3192 
L 550 3147 
C 883 3792 1286 4057 1939 4057 
L 992 621 
C 902 288 736 160 410 160 
L 320 160 
L 320 0 
L 2438 0 
L 2438 160 
C 1984 160 1907 199 1907 404 
C 1907 501 1933 629 1978 803 
L 2874 4057 
C 3475 4057 3725 3781 3757 3070 
L 3930 3057 
z
" transform="scale(0.015625)"/>
       <path id="txbmiaX-3d" d="M 3930 2137 
L 3930 2752 
L 397 2752 
L 397 2137 
L 3930 2137 
z
M 3930 576 
L 3930 1190 
L 397 1190 
L 397 576 
L 3930 576 
z
" transform="scale(0.015625)"/>
       <path id="TeXGyreTermesX-Bold-5b" d="M 1926 -960 
L 1926 -750 
L 1414 -750 
C 1152 -750 1094 -686 1094 -413 
L 1094 3650 
C 1094 4020 1165 4096 1523 4096 
L 1926 4096 
L 1926 4306 
L 429 4306 
L 429 -960 
L 1926 -960 
z
" transform="scale(0.015625)"/>
       <path id="txbsys-e" d="M 2955 1640 
C 2955 2347 2386 2915 1676 2915 
C 960 2915 397 2347 397 1640 
C 397 926 960 365 1676 365 
C 2386 365 2955 926 2955 1640 
z
M 2482 1640 
C 2482 1188 2117 838 1676 838 
C 1222 838 870 1188 870 1640 
C 870 2078 1222 2441 1676 2441 
C 2117 2441 2482 2078 2482 1640 
z
" transform="scale(0.015625)"/>
       <path id="NewTXBMI-49" d="M 3686 828 
L 3494 969 
C 3174 590 2995 442 2726 326 
C 2547 249 2349 211 2150 211 
C 1549 211 1190 628 1190 1329 
C 1190 2253 1638 3344 2214 3852 
C 2451 4051 2714 4160 2982 4160 
C 3501 4160 3821 3775 3821 3146 
C 3821 3062 3814 3004 3802 2921 
L 4006 2882 
L 4333 4384 
L 4141 4384 
C 4051 4243 3994 4198 3898 4198 
C 3846 4198 3750 4218 3654 4250 
C 3366 4339 3078 4384 2816 4384 
C 1389 4384 205 3094 205 1534 
C 205 539 902 -128 1946 -128 
C 2400 -128 2822 13 3187 289 
C 3373 431 3482 546 3686 828 
z
" transform="scale(0.015625)"/>
       <path id="TeXGyreTermesX-Bold-5d" d="M 1702 -960 
L 1702 4306 
L 205 4306 
L 205 4096 
L 608 4096 
C 966 4096 1037 4020 1037 3650 
L 1037 -413 
C 1037 -693 986 -750 717 -750 
L 205 -750 
L 205 -960 
L 1702 -960 
z
" transform="scale(0.015625)"/>
      </defs>
      <use xlink:href="#NewTXBMI-5a" transform="scale(0.996264)"/>
      <use xlink:href="#txbmiaX-3d" transform="translate(94.32405 0) scale(0.996264)"/>
      <use xlink:href="#TeXGyreTermesX-Bold-31" transform="translate(189.34539 0) scale(0.996264)"/>
      <use xlink:href="#TeXGyreTermesX-Bold-35" transform="translate(239.15859 0) scale(0.996264)"/>
      <use xlink:href="#TeXGyreTermesX-Bold-30" transform="translate(288.971791 0) scale(0.996264)"/>
      <use xlink:href="#TeXGyreTermesX-Bold-30" transform="translate(338.784991 0) scale(0.996264)"/>
      <use xlink:href="#TeXGyreTermesX-Bold-5b" transform="translate(388.598192 0) scale(0.996264)"/>
      <use xlink:href="#txbsys-e" transform="translate(421.773802 36.164371) scale(0.727268)"/>
      <use xlink:href="#NewTXBMI-49" transform="translate(460.77928 0) scale(0.996264)"/>
      <use xlink:href="#TeXGyreTermesX-Bold-5d" transform="translate(532.261192 0) scale(0.996264)"/>
     </g>
    </g>
   </g>
   <g id="PathCollection_2">
    <g clip-path="url(#pc2707930a3)">
     <use xlink:href="#m13d0efabe4" x="132.798705" y="129.934959" style="fill: #d95f02; stroke: #000000"/>
     <use xlink:href="#m13d0efabe4" x="143.97426" y="102.454813" style="fill: #d95f02; stroke: #000000"/>
     <use xlink:href="#m13d0efabe4" x="156.607988" y="111.782936" style="fill: #d95f02; stroke: #000000"/>
     <use xlink:href="#m13d0efabe4" x="162.757656" y="107.623097" style="fill: #d95f02; stroke: #000000"/>
     <use xlink:href="#m13d0efabe4" x="168.233022" y="106.866763" style="fill: #d95f02; stroke: #000000"/>
     <use xlink:href="#m13d0efabe4" x="172.765792" y="68.545826" style="fill: #d95f02; stroke: #000000"/>
     <use xlink:href="#m13d0efabe4" x="184.509828" y="72.579609" style="fill: #d95f02; stroke: #000000"/>
     <use xlink:href="#m13d0efabe4" x="193.387475" y="50.393804" style="fill: #d95f02; stroke: #000000"/>
     <use xlink:href="#m13d0efabe4" x="200.563439" y="55.436032" style="fill: #d95f02; stroke: #000000"/>
     <use xlink:href="#m13d0efabe4" x="207.903209" y="54.931809" style="fill: #d95f02; stroke: #000000"/>
    </g>
   </g>
  </g>
 </g>
 <defs>
  <clipPath id="pc2707930a3">
   <rect x="33.297816" y="4.761635" width="199.702184" height="146.035544"/>
  </clipPath>
 </defs>
</svg>
