<?xml version="1.0" encoding="utf-8" standalone="no"?>
<!DOCTYPE svg PUBLIC "-//W3C//DTD SVG 1.1//EN"
  "http://www.w3.org/Graphics/SVG/1.1/DTD/svg11.dtd">
<svg xmlns:xlink="http://www.w3.org/1999/xlink" width="396pt" height="288pt" viewBox="0 0 396 288" xmlns="http://www.w3.org/2000/svg" version="1.1">
 <metadata>
  <rdf:RDF xmlns:dc="http://purl.org/dc/elements/1.1/" xmlns:cc="http://creativecommons.org/ns#" xmlns:rdf="http://www.w3.org/1999/02/22-rdf-syntax-ns#">
   <cc:Work>
    <dc:type rdf:resource="http://purl.org/dc/dcmitype/StillImage"/>
    <dc:date>2025-01-14T07:57:06.741006</dc:date>
    <dc:format>image/svg+xml</dc:format>
    <dc:creator>
     <cc:Agent>
      <dc:title>Matplotlib v3.9.0, https://matplotlib.org/</dc:title>
     </cc:Agent>
    </dc:creator>
   </cc:Work>
  </rdf:RDF>
 </metadata>
 <defs>
  <style type="text/css">*{stroke-linejoin: round; stroke-linecap: butt}</style>
 </defs>
 <g id="figure_1">
  <g id="patch_1">
   <path d="M 0 288 
L 396 288 
L 396 0 
L 0 0 
z
" style="fill: #ffffff"/>
  </g>
  <g id="axes_1">
   <g id="patch_2">
    <path d="M 40.672353 258.797179 
L 395 258.797179 
L 395 1 
L 40.672353 1 
z
" style="fill: #ffffff"/>
   </g>
   <g id="matplotlib.axis_1">
    <g id="xtick_1">
     <g id="line2d_1">
      <defs>
       <path id="m24d9ad1dff" d="M 0 0 
L 0 -3.5 
" style="stroke: #000000; stroke-width: 0.8"/>
      </defs>
      <g>
       <use xlink:href="#m24d9ad1dff" x="115.311219" y="258.797179" style="stroke: #000000; stroke-width: 0.8"/>
      </g>
     </g>
     <g id="text_1">
      <!-- $\mathdefault{10^{-2}}$ -->
      <g transform="translate(104.851458 269.82045) scale(0.11 -0.11)">
       <defs>
        <path id="TeXGyreTermesX-Bold-31" d="M 2829 0 
L 2829 159 
C 2246 159 2138 255 2138 746 
L 2138 4384 
L 2029 4384 
L 416 3686 
L 416 3521 
C 474 3540 525 3559 544 3572 
C 717 3635 877 3680 960 3680 
C 1120 3680 1190 3540 1190 3241 
L 1190 790 
C 1190 267 1062 159 429 159 
L 429 0 
L 2829 0 
z
" transform="scale(0.015625)"/>
        <path id="TeXGyreTermesX-Bold-30" d="M 3046 2166 
C 3046 3440 2426 4403 1600 4403 
C 1184 4403 762 4123 499 3664 
C 294 3313 154 2714 154 2185 
C 154 873 755 -64 1606 -64 
C 2432 -64 3046 886 3046 2166 
z
M 2035 1434 
C 2035 1058 1984 561 1926 389 
C 1856 203 1754 114 1606 114 
C 1286 114 1165 491 1165 1434 
L 1165 2892 
C 1165 3855 1286 4224 1594 4224 
C 1907 4224 2035 3829 2035 2892 
L 2035 1434 
z
" transform="scale(0.015625)"/>
        <path id="txbsys-0" d="M 3929 1341 
L 3929 1955 
L 396 1955 
L 396 1341 
L 3929 1341 
z
" transform="scale(0.015625)"/>
        <path id="TeXGyreTermesX-Bold-32" d="M 3059 1341 
L 2906 1341 
C 2720 884 2643 846 1990 846 
L 1024 846 
L 2061 1824 
C 2566 2301 2790 2726 2790 3210 
C 2790 3889 2298 4373 1606 4373 
C 1286 4373 979 4245 755 4016 
C 506 3768 378 3552 198 3075 
L 378 3075 
C 576 3469 813 3648 1158 3648 
C 1440 3648 1651 3527 1792 3298 
C 1869 3164 1920 2987 1920 2841 
C 1920 2561 1798 2211 1594 1900 
C 1267 1405 1043 1137 109 146 
L 109 0 
L 2771 0 
L 3059 1341 
z
" transform="scale(0.015625)"/>
       </defs>
       <use xlink:href="#TeXGyreTermesX-Bold-31" transform="scale(0.996264)"/>
       <use xlink:href="#TeXGyreTermesX-Bold-30" transform="translate(49.8132 0) scale(0.996264)"/>
       <use xlink:href="#txbsys-0" transform="translate(99.626401 36.164371) scale(0.727268)"/>
       <use xlink:href="#TeXGyreTermesX-Bold-32" transform="translate(148.78971 36.164371) scale(0.727268)"/>
      </g>
     </g>
    </g>
    <g id="xtick_2">
     <g id="line2d_2">
      <g>
       <use xlink:href="#m24d9ad1dff" x="227.435085" y="258.797179" style="stroke: #000000; stroke-width: 0.8"/>
      </g>
     </g>
     <g id="text_2">
      <!-- $\mathdefault{10^{-1}}$ -->
      <g transform="translate(216.975324 269.82045) scale(0.11 -0.11)">
       <use xlink:href="#TeXGyreTermesX-Bold-31" transform="scale(0.996264)"/>
       <use xlink:href="#TeXGyreTermesX-Bold-30" transform="translate(49.8132 0) scale(0.996264)"/>
       <use xlink:href="#txbsys-0" transform="translate(99.626401 36.164371) scale(0.727268)"/>
       <use xlink:href="#TeXGyreTermesX-Bold-31" transform="translate(148.78971 36.164371) scale(0.727268)"/>
      </g>
     </g>
    </g>
    <g id="xtick_3">
     <g id="line2d_3">
      <g>
       <use xlink:href="#m24d9ad1dff" x="339.55895" y="258.797179" style="stroke: #000000; stroke-width: 0.8"/>
      </g>
     </g>
     <g id="text_3">
      <!-- $\mathdefault{10^{0}}$ -->
      <g transform="translate(332.111886 269.82045) scale(0.11 -0.11)">
       <use xlink:href="#TeXGyreTermesX-Bold-31" transform="scale(0.996264)"/>
       <use xlink:href="#TeXGyreTermesX-Bold-30" transform="translate(49.8132 0) scale(0.996264)"/>
       <use xlink:href="#TeXGyreTermesX-Bold-30" transform="translate(99.626401 36.164371) scale(0.727268)"/>
      </g>
     </g>
    </g>
    <g id="xtick_4">
     <g id="line2d_4">
      <defs>
       <path id="m14f75c0bf9" d="M 0 0 
L 0 -2 
" style="stroke: #000000; stroke-width: 0.6"/>
      </defs>
      <g>
       <use xlink:href="#m14f75c0bf9" x="56.684033" y="258.797179" style="stroke: #000000; stroke-width: 0.6"/>
      </g>
     </g>
    </g>
    <g id="xtick_5">
     <g id="line2d_5">
      <g>
       <use xlink:href="#m14f75c0bf9" x="70.692647" y="258.797179" style="stroke: #000000; stroke-width: 0.6"/>
      </g>
     </g>
    </g>
    <g id="xtick_6">
     <g id="line2d_6">
      <g>
       <use xlink:href="#m14f75c0bf9" x="81.558572" y="258.797179" style="stroke: #000000; stroke-width: 0.6"/>
      </g>
     </g>
    </g>
    <g id="xtick_7">
     <g id="line2d_7">
      <g>
       <use xlink:href="#m14f75c0bf9" x="90.43668" y="258.797179" style="stroke: #000000; stroke-width: 0.6"/>
      </g>
     </g>
    </g>
    <g id="xtick_8">
     <g id="line2d_8">
      <g>
       <use xlink:href="#m14f75c0bf9" x="97.943013" y="258.797179" style="stroke: #000000; stroke-width: 0.6"/>
      </g>
     </g>
    </g>
    <g id="xtick_9">
     <g id="line2d_9">
      <g>
       <use xlink:href="#m14f75c0bf9" x="104.445294" y="258.797179" style="stroke: #000000; stroke-width: 0.6"/>
      </g>
     </g>
    </g>
    <g id="xtick_10">
     <g id="line2d_10">
      <g>
       <use xlink:href="#m14f75c0bf9" x="110.180712" y="258.797179" style="stroke: #000000; stroke-width: 0.6"/>
      </g>
     </g>
    </g>
    <g id="xtick_11">
     <g id="line2d_11">
      <g>
       <use xlink:href="#m14f75c0bf9" x="149.063866" y="258.797179" style="stroke: #000000; stroke-width: 0.6"/>
      </g>
     </g>
    </g>
    <g id="xtick_12">
     <g id="line2d_12">
      <g>
       <use xlink:href="#m14f75c0bf9" x="168.807899" y="258.797179" style="stroke: #000000; stroke-width: 0.6"/>
      </g>
     </g>
    </g>
    <g id="xtick_13">
     <g id="line2d_13">
      <g>
       <use xlink:href="#m14f75c0bf9" x="182.816513" y="258.797179" style="stroke: #000000; stroke-width: 0.6"/>
      </g>
     </g>
    </g>
    <g id="xtick_14">
     <g id="line2d_14">
      <g>
       <use xlink:href="#m14f75c0bf9" x="193.682438" y="258.797179" style="stroke: #000000; stroke-width: 0.6"/>
      </g>
     </g>
    </g>
    <g id="xtick_15">
     <g id="line2d_15">
      <g>
       <use xlink:href="#m14f75c0bf9" x="202.560545" y="258.797179" style="stroke: #000000; stroke-width: 0.6"/>
      </g>
     </g>
    </g>
    <g id="xtick_16">
     <g id="line2d_16">
      <g>
       <use xlink:href="#m14f75c0bf9" x="210.066878" y="258.797179" style="stroke: #000000; stroke-width: 0.6"/>
      </g>
     </g>
    </g>
    <g id="xtick_17">
     <g id="line2d_17">
      <g>
       <use xlink:href="#m14f75c0bf9" x="216.569159" y="258.797179" style="stroke: #000000; stroke-width: 0.6"/>
      </g>
     </g>
    </g>
    <g id="xtick_18">
     <g id="line2d_18">
      <g>
       <use xlink:href="#m14f75c0bf9" x="222.304578" y="258.797179" style="stroke: #000000; stroke-width: 0.6"/>
      </g>
     </g>
    </g>
    <g id="xtick_19">
     <g id="line2d_19">
      <g>
       <use xlink:href="#m14f75c0bf9" x="261.187732" y="258.797179" style="stroke: #000000; stroke-width: 0.6"/>
      </g>
     </g>
    </g>
    <g id="xtick_20">
     <g id="line2d_20">
      <g>
       <use xlink:href="#m14f75c0bf9" x="280.931764" y="258.797179" style="stroke: #000000; stroke-width: 0.6"/>
      </g>
     </g>
    </g>
    <g id="xtick_21">
     <g id="line2d_21">
      <g>
       <use xlink:href="#m14f75c0bf9" x="294.940378" y="258.797179" style="stroke: #000000; stroke-width: 0.6"/>
      </g>
     </g>
    </g>
    <g id="xtick_22">
     <g id="line2d_22">
      <g>
       <use xlink:href="#m14f75c0bf9" x="305.806304" y="258.797179" style="stroke: #000000; stroke-width: 0.6"/>
      </g>
     </g>
    </g>
    <g id="xtick_23">
     <g id="line2d_23">
      <g>
       <use xlink:href="#m14f75c0bf9" x="314.684411" y="258.797179" style="stroke: #000000; stroke-width: 0.6"/>
      </g>
     </g>
    </g>
    <g id="xtick_24">
     <g id="line2d_24">
      <g>
       <use xlink:href="#m14f75c0bf9" x="322.190744" y="258.797179" style="stroke: #000000; stroke-width: 0.6"/>
      </g>
     </g>
    </g>
    <g id="xtick_25">
     <g id="line2d_25">
      <g>
       <use xlink:href="#m14f75c0bf9" x="328.693025" y="258.797179" style="stroke: #000000; stroke-width: 0.6"/>
      </g>
     </g>
    </g>
    <g id="xtick_26">
     <g id="line2d_26">
      <g>
       <use xlink:href="#m14f75c0bf9" x="334.428444" y="258.797179" style="stroke: #000000; stroke-width: 0.6"/>
      </g>
     </g>
    </g>
    <g id="xtick_27">
     <g id="line2d_27">
      <g>
       <use xlink:href="#m14f75c0bf9" x="373.311597" y="258.797179" style="stroke: #000000; stroke-width: 0.6"/>
      </g>
     </g>
    </g>
    <g id="xtick_28">
     <g id="line2d_28">
      <g>
       <use xlink:href="#m14f75c0bf9" x="393.05563" y="258.797179" style="stroke: #000000; stroke-width: 0.6"/>
      </g>
     </g>
    </g>
    <g id="text_4">
     <!-- $t$ \textbf{[hr]} -->
     <g transform="translate(204.464316 284.40574) scale(0.12 -0.12)">
      <defs>
       <path id="NewTXBMI-74" d="M 1440 837 
L 1299 926 
C 1082 588 915 415 813 415 
C 762 415 710 460 710 511 
C 710 632 826 1073 1056 1864 
L 1267 2624 
L 1798 2624 
L 1798 2893 
L 1338 2893 
L 1587 3808 
L 1363 3808 
C 1018 3303 698 3037 192 2848 
L 192 2624 
L 518 2624 
L 83 1105 
C -13 773 -70 499 -70 383 
C -70 135 109 -32 378 -32 
C 762 -32 1018 180 1440 837 
z
" transform="scale(0.015625)"/>
       <path id="TeXGyreTermesX-Bold-5b" d="M 1926 -960 
L 1926 -750 
L 1414 -750 
C 1152 -750 1094 -686 1094 -413 
L 1094 3650 
C 1094 4020 1165 4096 1523 4096 
L 1926 4096 
L 1926 4306 
L 429 4306 
L 429 -960 
L 1926 -960 
z
" transform="scale(0.015625)"/>
       <path id="TeXGyreTermesX-Bold-68" d="M 3418 -32 
L 3418 121 
C 3187 140 3104 235 3104 503 
L 3104 2086 
C 3104 2635 2765 2986 2240 2986 
C 1901 2986 1664 2859 1331 2490 
L 1331 4288 
L 102 4288 
L 102 4134 
C 397 4076 442 4024 442 3763 
L 442 504 
C 442 236 390 178 102 121 
L 102 -32 
L 1645 -32 
L 1645 121 
C 1408 152 1331 249 1331 485 
L 1331 2190 
C 1331 2216 1376 2279 1440 2336 
C 1581 2484 1734 2560 1882 2560 
C 2106 2560 2214 2387 2214 2030 
L 2214 484 
C 2214 249 2131 146 1914 121 
L 1914 -32 
L 3418 -32 
z
" transform="scale(0.015625)"/>
       <path id="TeXGyreTermesX-Bold-72" d="M 2778 2512 
C 2778 2798 2560 3008 2259 3008 
C 1939 3008 1696 2836 1395 2410 
L 1395 2932 
L 186 2932 
L 186 2779 
C 461 2741 531 2658 531 2404 
L 531 533 
C 531 272 467 203 186 152 
L 186 0 
L 1888 0 
L 1888 165 
C 1498 165 1421 248 1421 645 
L 1421 1854 
C 1421 2186 1600 2461 1811 2461 
C 1862 2461 1920 2417 1990 2315 
C 2112 2143 2208 2086 2374 2086 
C 2611 2086 2778 2264 2778 2512 
z
" transform="scale(0.015625)"/>
       <path id="TeXGyreTermesX-Bold-5d" d="M 1702 -960 
L 1702 4306 
L 205 4306 
L 205 4096 
L 608 4096 
C 966 4096 1037 4020 1037 3650 
L 1037 -413 
C 1037 -693 986 -750 717 -750 
L 205 -750 
L 205 -960 
L 1702 -960 
z
" transform="scale(0.015625)"/>
      </defs>
      <use xlink:href="#NewTXBMI-74" transform="scale(0.996264)"/>
      <use xlink:href="#TeXGyreTermesX-Bold-5b" transform="translate(56.886681 0) scale(0.996264)"/>
      <use xlink:href="#TeXGyreTermesX-Bold-68" transform="translate(90.062291 0) scale(0.996264)"/>
      <use xlink:href="#TeXGyreTermesX-Bold-72" transform="translate(145.454545 0) scale(0.996264)"/>
      <use xlink:href="#TeXGyreTermesX-Bold-5d" transform="translate(189.688692 0) scale(0.996264)"/>
     </g>
    </g>
   </g>
   <g id="matplotlib.axis_2">
    <g id="ytick_1">
     <g id="line2d_29">
      <defs>
       <path id="m7dcfc9098f" d="M 0 0 
L 3.5 0 
" style="stroke: #000000; stroke-width: 0.8"/>
      </defs>
      <g>
       <use xlink:href="#m7dcfc9098f" x="40.672353" y="250.20394" style="stroke: #000000; stroke-width: 0.8"/>
      </g>
     </g>
     <g id="text_5">
      <!-- $\mathdefault{−0.2}$ -->
      <g transform="translate(15.801474 253.965575) scale(0.11 -0.11)">
       <defs>
        <path id="NewTXBMI-93" d="M 1344 473 
C 1344 768 1101 1017 800 1017 
C 493 1017 262 761 262 473 
C 262 173 493 -64 800 -64 
C 1101 -64 1344 166 1344 473 
z
" transform="scale(0.015625)"/>
       </defs>
       <use xlink:href="#txbsys-0" transform="scale(0.996264)"/>
       <use xlink:href="#TeXGyreTermesX-Bold-30" transform="translate(67.347408 0) scale(0.996264)"/>
       <use xlink:href="#NewTXBMI-93" transform="translate(118.754606 0) scale(0.996264)"/>
       <use xlink:href="#TeXGyreTermesX-Bold-32" transform="translate(145.354867 0) scale(0.996264)"/>
      </g>
     </g>
    </g>
    <g id="ytick_2">
     <g id="line2d_30">
      <g>
       <use xlink:href="#m7dcfc9098f" x="40.672353" y="215.830983" style="stroke: #000000; stroke-width: 0.8"/>
      </g>
     </g>
     <g id="text_6">
      <!-- $\mathdefault{0.0}$ -->
      <g transform="translate(23.176011 219.592618) scale(0.11 -0.11)">
       <use xlink:href="#TeXGyreTermesX-Bold-30" transform="scale(0.996264)"/>
       <use xlink:href="#NewTXBMI-93" transform="translate(51.407199 0) scale(0.996264)"/>
       <use xlink:href="#TeXGyreTermesX-Bold-30" transform="translate(78.00746 0) scale(0.996264)"/>
      </g>
     </g>
    </g>
    <g id="ytick_3">
     <g id="line2d_31">
      <g>
       <use xlink:href="#m7dcfc9098f" x="40.672353" y="181.458025" style="stroke: #000000; stroke-width: 0.8"/>
      </g>
     </g>
     <g id="text_7">
      <!-- $\mathdefault{0.2}$ -->
      <g transform="translate(23.176011 185.219661) scale(0.11 -0.11)">
       <use xlink:href="#TeXGyreTermesX-Bold-30" transform="scale(0.996264)"/>
       <use xlink:href="#NewTXBMI-93" transform="translate(51.407199 0) scale(0.996264)"/>
       <use xlink:href="#TeXGyreTermesX-Bold-32" transform="translate(78.00746 0) scale(0.996264)"/>
      </g>
     </g>
    </g>
    <g id="ytick_4">
     <g id="line2d_32">
      <g>
       <use xlink:href="#m7dcfc9098f" x="40.672353" y="147.085068" style="stroke: #000000; stroke-width: 0.8"/>
      </g>
     </g>
     <g id="text_8">
      <!-- $\mathdefault{0.4}$ -->
      <g transform="translate(23.176011 150.846704) scale(0.11 -0.11)">
       <defs>
        <path id="TeXGyreTermesX-Bold-34" d="M 3040 896 
L 3040 1602 
L 2637 1602 
L 2637 4352 
L 2125 4352 
L 1747 3863 
C 928 2803 506 2219 122 1615 
L 122 896 
L 1709 896 
L 1709 -32 
L 2637 -32 
L 2637 896 
L 3040 896 
z
M 1722 1602 
L 384 1602 
L 1722 3488 
L 1722 1602 
z
" transform="scale(0.015625)"/>
       </defs>
       <use xlink:href="#TeXGyreTermesX-Bold-30" transform="scale(0.996264)"/>
       <use xlink:href="#NewTXBMI-93" transform="translate(51.407199 0) scale(0.996264)"/>
       <use xlink:href="#TeXGyreTermesX-Bold-34" transform="translate(78.00746 0) scale(0.996264)"/>
      </g>
     </g>
    </g>
    <g id="ytick_5">
     <g id="line2d_33">
      <g>
       <use xlink:href="#m7dcfc9098f" x="40.672353" y="112.712111" style="stroke: #000000; stroke-width: 0.8"/>
      </g>
     </g>
     <g id="text_9">
      <!-- $\mathdefault{0.6}$ -->
      <g transform="translate(23.176011 116.473746) scale(0.11 -0.11)">
       <defs>
        <path id="TeXGyreTermesX-Bold-36" d="M 3040 1427 
C 3040 2193 2573 2688 1843 2688 
C 1638 2688 1498 2663 1306 2580 
C 1542 3515 2074 4030 3008 4221 
L 3008 4387 
C 2157 4266 1760 4126 1274 3796 
C 557 3307 179 2596 179 1752 
C 179 654 768 -64 1664 -64 
C 2458 -64 3040 564 3040 1427 
z
M 2067 1046 
C 2067 298 1990 108 1677 108 
C 1530 108 1414 172 1350 291 
C 1242 501 1178 964 1178 1553 
C 1178 1946 1216 2307 1261 2339 
C 1312 2377 1402 2402 1491 2402 
C 1920 2402 2067 2054 2067 1046 
z
" transform="scale(0.015625)"/>
       </defs>
       <use xlink:href="#TeXGyreTermesX-Bold-30" transform="scale(0.996264)"/>
       <use xlink:href="#NewTXBMI-93" transform="translate(51.407199 0) scale(0.996264)"/>
       <use xlink:href="#TeXGyreTermesX-Bold-36" transform="translate(78.00746 0) scale(0.996264)"/>
      </g>
     </g>
    </g>
    <g id="ytick_6">
     <g id="line2d_34">
      <g>
       <use xlink:href="#m7dcfc9098f" x="40.672353" y="78.339154" style="stroke: #000000; stroke-width: 0.8"/>
      </g>
     </g>
     <g id="text_10">
      <!-- $\mathdefault{0.8}$ -->
      <g transform="translate(23.176011 82.100789) scale(0.11 -0.11)">
       <defs>
        <path id="TeXGyreTermesX-Bold-38" d="M 3021 1212 
C 3021 1768 2746 2164 2061 2597 
C 2675 2815 2931 3075 2931 3483 
C 2931 4051 2445 4409 1683 4409 
C 819 4409 250 3961 250 3292 
C 250 2814 506 2462 1139 2086 
C 774 1965 627 1881 461 1722 
C 275 1543 179 1301 179 1020 
C 179 370 723 -64 1536 -64 
C 2426 -64 3021 447 3021 1212 
z
M 2170 3439 
C 2170 3139 2118 2993 1907 2712 
C 1370 2986 1075 3337 1075 3694 
C 1075 3994 1306 4224 1606 4224 
C 1965 4224 2170 3937 2170 3439 
z
M 2131 829 
C 2131 402 1920 140 1574 140 
C 1184 140 954 478 954 1046 
C 954 1397 1024 1595 1280 1971 
C 1978 1505 2131 1301 2131 829 
z
" transform="scale(0.015625)"/>
       </defs>
       <use xlink:href="#TeXGyreTermesX-Bold-30" transform="scale(0.996264)"/>
       <use xlink:href="#NewTXBMI-93" transform="translate(51.407199 0) scale(0.996264)"/>
       <use xlink:href="#TeXGyreTermesX-Bold-38" transform="translate(78.00746 0) scale(0.996264)"/>
      </g>
     </g>
    </g>
    <g id="ytick_7">
     <g id="line2d_35">
      <g>
       <use xlink:href="#m7dcfc9098f" x="40.672353" y="43.966197" style="stroke: #000000; stroke-width: 0.8"/>
      </g>
     </g>
     <g id="text_11">
      <!-- $\mathdefault{1.0}$ -->
      <g transform="translate(23.176011 47.727832) scale(0.11 -0.11)">
       <use xlink:href="#TeXGyreTermesX-Bold-31" transform="scale(0.996264)"/>
       <use xlink:href="#NewTXBMI-93" transform="translate(51.407199 0) scale(0.996264)"/>
       <use xlink:href="#TeXGyreTermesX-Bold-30" transform="translate(78.00746 0) scale(0.996264)"/>
      </g>
     </g>
    </g>
    <g id="ytick_8">
     <g id="line2d_36">
      <g>
       <use xlink:href="#m7dcfc9098f" x="40.672353" y="9.593239" style="stroke: #000000; stroke-width: 0.8"/>
      </g>
     </g>
     <g id="text_12">
      <!-- $\mathdefault{1.2}$ -->
      <g transform="translate(23.176011 13.354875) scale(0.11 -0.11)">
       <use xlink:href="#TeXGyreTermesX-Bold-31" transform="scale(0.996264)"/>
       <use xlink:href="#NewTXBMI-93" transform="translate(51.407199 0) scale(0.996264)"/>
       <use xlink:href="#TeXGyreTermesX-Bold-32" transform="translate(78.00746 0) scale(0.996264)"/>
      </g>
     </g>
    </g>
    <g id="ytick_9">
     <g id="line2d_37">
      <defs>
       <path id="m32bbac42b6" d="M 0 0 
L 2 0 
" style="stroke: #000000; stroke-width: 0.6"/>
      </defs>
      <g>
       <use xlink:href="#m32bbac42b6" x="40.672353" y="257.078531" style="stroke: #000000; stroke-width: 0.6"/>
      </g>
     </g>
    </g>
    <g id="ytick_10">
     <g id="line2d_38">
      <g>
       <use xlink:href="#m32bbac42b6" x="40.672353" y="243.329348" style="stroke: #000000; stroke-width: 0.6"/>
      </g>
     </g>
    </g>
    <g id="ytick_11">
     <g id="line2d_39">
      <g>
       <use xlink:href="#m32bbac42b6" x="40.672353" y="236.454757" style="stroke: #000000; stroke-width: 0.6"/>
      </g>
     </g>
    </g>
    <g id="ytick_12">
     <g id="line2d_40">
      <g>
       <use xlink:href="#m32bbac42b6" x="40.672353" y="229.580165" style="stroke: #000000; stroke-width: 0.6"/>
      </g>
     </g>
    </g>
    <g id="ytick_13">
     <g id="line2d_41">
      <g>
       <use xlink:href="#m32bbac42b6" x="40.672353" y="222.705574" style="stroke: #000000; stroke-width: 0.6"/>
      </g>
     </g>
    </g>
    <g id="ytick_14">
     <g id="line2d_42">
      <g>
       <use xlink:href="#m32bbac42b6" x="40.672353" y="208.956391" style="stroke: #000000; stroke-width: 0.6"/>
      </g>
     </g>
    </g>
    <g id="ytick_15">
     <g id="line2d_43">
      <g>
       <use xlink:href="#m32bbac42b6" x="40.672353" y="202.0818" style="stroke: #000000; stroke-width: 0.6"/>
      </g>
     </g>
    </g>
    <g id="ytick_16">
     <g id="line2d_44">
      <g>
       <use xlink:href="#m32bbac42b6" x="40.672353" y="195.207208" style="stroke: #000000; stroke-width: 0.6"/>
      </g>
     </g>
    </g>
    <g id="ytick_17">
     <g id="line2d_45">
      <g>
       <use xlink:href="#m32bbac42b6" x="40.672353" y="188.332617" style="stroke: #000000; stroke-width: 0.6"/>
      </g>
     </g>
    </g>
    <g id="ytick_18">
     <g id="line2d_46">
      <g>
       <use xlink:href="#m32bbac42b6" x="40.672353" y="174.583434" style="stroke: #000000; stroke-width: 0.6"/>
      </g>
     </g>
    </g>
    <g id="ytick_19">
     <g id="line2d_47">
      <g>
       <use xlink:href="#m32bbac42b6" x="40.672353" y="167.708842" style="stroke: #000000; stroke-width: 0.6"/>
      </g>
     </g>
    </g>
    <g id="ytick_20">
     <g id="line2d_48">
      <g>
       <use xlink:href="#m32bbac42b6" x="40.672353" y="160.834251" style="stroke: #000000; stroke-width: 0.6"/>
      </g>
     </g>
    </g>
    <g id="ytick_21">
     <g id="line2d_49">
      <g>
       <use xlink:href="#m32bbac42b6" x="40.672353" y="153.95966" style="stroke: #000000; stroke-width: 0.6"/>
      </g>
     </g>
    </g>
    <g id="ytick_22">
     <g id="line2d_50">
      <g>
       <use xlink:href="#m32bbac42b6" x="40.672353" y="140.210477" style="stroke: #000000; stroke-width: 0.6"/>
      </g>
     </g>
    </g>
    <g id="ytick_23">
     <g id="line2d_51">
      <g>
       <use xlink:href="#m32bbac42b6" x="40.672353" y="133.335885" style="stroke: #000000; stroke-width: 0.6"/>
      </g>
     </g>
    </g>
    <g id="ytick_24">
     <g id="line2d_52">
      <g>
       <use xlink:href="#m32bbac42b6" x="40.672353" y="126.461294" style="stroke: #000000; stroke-width: 0.6"/>
      </g>
     </g>
    </g>
    <g id="ytick_25">
     <g id="line2d_53">
      <g>
       <use xlink:href="#m32bbac42b6" x="40.672353" y="119.586702" style="stroke: #000000; stroke-width: 0.6"/>
      </g>
     </g>
    </g>
    <g id="ytick_26">
     <g id="line2d_54">
      <g>
       <use xlink:href="#m32bbac42b6" x="40.672353" y="105.837519" style="stroke: #000000; stroke-width: 0.6"/>
      </g>
     </g>
    </g>
    <g id="ytick_27">
     <g id="line2d_55">
      <g>
       <use xlink:href="#m32bbac42b6" x="40.672353" y="98.962928" style="stroke: #000000; stroke-width: 0.6"/>
      </g>
     </g>
    </g>
    <g id="ytick_28">
     <g id="line2d_56">
      <g>
       <use xlink:href="#m32bbac42b6" x="40.672353" y="92.088337" style="stroke: #000000; stroke-width: 0.6"/>
      </g>
     </g>
    </g>
    <g id="ytick_29">
     <g id="line2d_57">
      <g>
       <use xlink:href="#m32bbac42b6" x="40.672353" y="85.213745" style="stroke: #000000; stroke-width: 0.6"/>
      </g>
     </g>
    </g>
    <g id="ytick_30">
     <g id="line2d_58">
      <g>
       <use xlink:href="#m32bbac42b6" x="40.672353" y="71.464562" style="stroke: #000000; stroke-width: 0.6"/>
      </g>
     </g>
    </g>
    <g id="ytick_31">
     <g id="line2d_59">
      <g>
       <use xlink:href="#m32bbac42b6" x="40.672353" y="64.589971" style="stroke: #000000; stroke-width: 0.6"/>
      </g>
     </g>
    </g>
    <g id="ytick_32">
     <g id="line2d_60">
      <g>
       <use xlink:href="#m32bbac42b6" x="40.672353" y="57.715379" style="stroke: #000000; stroke-width: 0.6"/>
      </g>
     </g>
    </g>
    <g id="ytick_33">
     <g id="line2d_61">
      <g>
       <use xlink:href="#m32bbac42b6" x="40.672353" y="50.840788" style="stroke: #000000; stroke-width: 0.6"/>
      </g>
     </g>
    </g>
    <g id="ytick_34">
     <g id="line2d_62">
      <g>
       <use xlink:href="#m32bbac42b6" x="40.672353" y="37.091605" style="stroke: #000000; stroke-width: 0.6"/>
      </g>
     </g>
    </g>
    <g id="ytick_35">
     <g id="line2d_63">
      <g>
       <use xlink:href="#m32bbac42b6" x="40.672353" y="30.217014" style="stroke: #000000; stroke-width: 0.6"/>
      </g>
     </g>
    </g>
    <g id="ytick_36">
     <g id="line2d_64">
      <g>
       <use xlink:href="#m32bbac42b6" x="40.672353" y="23.342422" style="stroke: #000000; stroke-width: 0.6"/>
      </g>
     </g>
    </g>
    <g id="ytick_37">
     <g id="line2d_65">
      <g>
       <use xlink:href="#m32bbac42b6" x="40.672353" y="16.467831" style="stroke: #000000; stroke-width: 0.6"/>
      </g>
     </g>
    </g>
    <g id="ytick_38">
     <g id="line2d_66">
      <g>
       <use xlink:href="#m32bbac42b6" x="40.672353" y="2.718648" style="stroke: #000000; stroke-width: 0.6"/>
      </g>
     </g>
    </g>
    <g id="text_13">
     <!-- $X$ -->
     <g transform="translate(9.207214 133.885637) rotate(-90) scale(0.12 -0.12)">
      <defs>
       <path id="NewTXBMI-5e" d="M 3750 0 
L 3750 160 
C 3290 211 3194 301 3008 903 
L 2534 2423 
L 3808 3737 
C 4090 4019 4211 4096 4442 4128 
L 4442 4288 
L 3142 4288 
L 3142 4128 
L 3283 4115 
C 3430 4102 3494 4057 3494 3961 
C 3494 3846 3379 3685 3046 3333 
L 2445 2698 
C 2381 2910 2362 2986 2336 3050 
C 2189 3506 2118 3782 2118 3878 
C 2118 4025 2189 4083 2400 4108 
L 2592 4128 
L 2592 4288 
L 640 4288 
L 640 4128 
C 1024 4089 1120 4019 1222 3723 
L 1760 1981 
L 1325 1506 
C 314 390 122 211 -154 160 
L -154 0 
L 1216 0 
L 1216 160 
C 928 186 800 269 800 416 
C 800 499 845 583 992 743 
L 1850 1692 
L 1971 1308 
C 2144 814 2214 545 2214 403 
C 2214 237 2125 192 1779 160 
L 1779 0 
L 3750 0 
z
" transform="scale(0.015625)"/>
      </defs>
      <use xlink:href="#NewTXBMI-5e" transform="scale(0.996264)"/>
     </g>
    </g>
   </g>
   <g id="line2d_67">
    <path d="M 197.901862 214.880526 
L 242.061724 214.630414 
L 268.03261 214.264083 
L 284.87946 213.807413 
L 297.37217 213.244829 
L 306.60922 212.617272 
L 314.37033 211.872052 
L 320.538935 211.074064 
L 326.013238 210.155679 
L 330.933839 209.107098 
L 335.40253 207.919173 
L 339.137198 206.711354 
L 342.605724 205.376131 
L 345.84353 203.908994 
L 348.879406 202.306452 
L 351.737066 200.566121 
L 354.698151 198.491223 
L 357.489451 196.248323 
L 360.129384 193.839409 
L 362.633526 191.268311 
L 365.226012 188.285149 
L 367.687424 185.125266 
L 370.220633 181.516332 
L 372.808934 177.433451 
L 375.437463 172.860514 
L 378.093146 167.793213 
L 378.894198 166.176107 
L 378.894198 166.176107 
" clip-path="url(#p85585887ed)" style="fill: none; stroke: #b22222; stroke-width: 1.5; stroke-linecap: square"/>
   </g>
   <g id="line2d_68">
    <path d="M 197.901862 221.242931 
L 204.035282 222.209056 
L 209.481865 221.838016 
L 214.380063 222.060599 
L 218.830272 221.437069 
L 222.907616 222.004567 
L 226.669774 221.726418 
L 230.161998 221.064567 
L 233.420444 221.85216 
L 236.474458 221.241273 
L 239.348183 221.514571 
L 242.061724 221.612481 
L 244.632 221.249984 
L 247.073383 221.415115 
L 249.398186 221.020036 
L 255.772674 220.941868 
L 257.724649 221.228706 
L 259.601384 221.046908 
L 261.408465 220.602687 
L 263.150877 220.53345 
L 264.833089 221.085293 
L 266.459123 220.795703 
L 268.03261 221.065311 
L 269.556839 220.876343 
L 271.034803 220.86679 
L 272.469226 221.438234 
L 273.8626 220.346233 
L 275.217211 221.007175 
L 276.535157 220.953141 
L 277.818369 220.742219 
L 279.068633 220.387609 
L 281.476791 221.111743 
L 282.637635 220.176742 
L 283.771448 220.815524 
L 284.87946 220.013026 
L 285.962821 221.166912 
L 287.022603 220.372882 
L 288.05981 219.983553 
L 289.075384 220.473876 
L 290.07021 220.772763 
L 292.00089 220.429939 
L 292.938263 220.263494 
L 293.857931 220.234857 
L 294.760552 219.960129 
L 295.646746 220.493902 
L 296.5171 220.798571 
L 297.37217 220.150731 
L 298.212484 219.807831 
L 299.038543 220.672888 
L 299.850821 219.417436 
L 300.649772 219.63868 
L 301.435826 219.701803 
L 302.209393 219.560597 
L 302.970862 219.534685 
L 303.720607 219.265399 
L 304.458983 219.476186 
L 305.186329 219.073992 
L 305.902972 219.620056 
L 307.305371 219.129765 
L 307.99171 219.627623 
L 308.66851 219.516688 
L 309.336031 218.974395 
L 309.994526 219.276914 
L 310.644235 218.706138 
L 311.285389 219.11315 
L 311.91821 219.23206 
L 312.542913 218.662446 
L 313.159704 218.57584 
L 313.768779 218.36096 
L 314.37033 218.318235 
L 314.96454 218.535642 
L 316.13164 218.663103 
L 316.704865 218.214344 
L 317.271421 218.376502 
L 317.831461 218.088406 
L 318.385133 217.980342 
L 318.93258 218.126172 
L 319.473941 218.514931 
L 320.009349 217.930432 
L 321.062823 218.146986 
L 321.581134 218.595817 
L 322.093987 217.799754 
L 322.601494 218.046494 
L 323.103767 217.557011 
L 323.600912 217.399187 
L 324.093032 217.598688 
L 324.580229 217.503716 
L 325.062599 217.25371 
L 325.540238 216.711071 
L 326.013238 217.32032 
L 326.481687 216.858239 
L 327.405278 216.907794 
L 327.860586 216.405998 
L 328.311677 216.891814 
L 329.201512 216.87866 
L 329.640406 216.834861 
L 330.075379 216.987096 
L 330.5065 216.572854 
L 330.933839 215.900836 
L 331.357459 216.580711 
L 331.777426 216.928552 
L 332.193802 215.738846 
L 333.016023 216.324295 
L 333.421986 215.809366 
L 334.223896 215.905052 
L 334.619952 215.964337 
L 335.40253 215.775938 
L 335.789153 216.038418 
L 336.17273 215.638454 
L 336.553309 214.57014 
L 336.930937 215.182782 
L 337.305659 215.387193 
L 337.677519 215.081134 
L 338.046561 215.060157 
L 338.412828 214.542899 
L 338.77636 215.560993 
L 339.137198 214.586411 
L 339.495381 214.597284 
L 339.85095 214.407502 
L 340.203941 214.562696 
L 340.554391 213.92266 
L 340.902337 214.227435 
L 341.247815 214.218151 
L 341.931502 213.560507 
L 342.26978 213.68963 
L 342.605724 214.058844 
L 342.939366 214.213781 
L 343.270737 213.473344 
L 343.599869 213.390527 
L 343.926791 213.52135 
L 344.251533 213.357474 
L 344.574124 212.753912 
L 344.894591 212.646217 
L 345.212963 213.213756 
L 345.529267 213.027856 
L 345.84353 213.063354 
L 346.155778 212.072458 
L 346.77433 213.002962 
L 347.080684 212.345569 
L 347.98835 211.613012 
L 348.287184 212.419973 
L 348.584195 211.561932 
L 348.879406 212.370669 
L 349.464512 211.093428 
L 349.754449 211.357932 
L 350.329196 210.523107 
L 350.614045 211.14069 
L 351.178793 210.378349 
L 351.45873 210.415293 
L 351.737066 211.137022 
L 352.013821 210.318406 
L 352.289012 210.345715 
L 352.562656 210.495178 
L 352.834771 209.624798 
L 353.105374 209.761446 
L 353.374481 209.598493 
L 353.642109 209.980955 
L 353.908275 208.997174 
L 354.172993 209.665965 
L 354.43628 208.740014 
L 354.698151 209.756118 
L 354.958622 209.773242 
L 355.47542 208.222156 
L 355.731777 208.375382 
L 355.986791 208.251513 
L 356.240476 207.873264 
L 356.492847 208.506469 
L 356.743917 207.967773 
L 356.993699 207.946798 
L 357.242206 207.69533 
L 357.489451 208.055039 
L 357.735447 207.297029 
L 357.980207 207.346628 
L 358.223742 206.782828 
L 358.466066 207.217406 
L 358.947125 206.556602 
L 359.185884 205.554517 
L 359.423479 206.523984 
L 359.895217 205.641029 
L 360.129384 206.624337 
L 360.36243 206.105895 
L 360.594365 205.988924 
L 361.054949 205.064194 
L 361.283617 205.497458 
L 361.511217 205.401713 
L 361.737758 204.093728 
L 361.963249 204.815203 
L 362.187701 204.227849 
L 362.411124 204.904208 
L 362.633526 204.674964 
L 362.854917 203.903108 
L 363.075306 203.888849 
L 363.513113 203.472038 
L 363.94702 203.00297 
L 364.162532 203.235544 
L 364.377094 202.489948 
L 364.590715 202.715158 
L 364.803403 202.336325 
L 365.015166 202.858028 
L 365.226012 202.033921 
L 365.435949 202.373923 
L 365.644985 201.888038 
L 365.853127 202.148955 
L 366.060384 200.945208 
L 366.266762 201.456521 
L 366.676912 200.721989 
L 366.880699 201.066437 
L 367.083637 200.432828 
L 367.285732 200.316765 
L 367.486992 200.780217 
L 367.687424 200.231355 
L 367.887034 200.857978 
L 368.08583 198.997497 
L 368.283817 199.239664 
L 368.481002 199.667755 
L 368.677392 198.913915 
L 368.872993 198.936704 
L 369.067811 199.339428 
L 369.261854 198.669827 
L 369.455126 198.720865 
L 369.647634 198.229063 
L 369.839383 199.073247 
L 370.030381 197.870641 
L 370.220633 197.583847 
L 370.59892 197.822874 
L 370.786968 196.953248 
L 370.974292 197.049571 
L 371.160898 196.464066 
L 371.531979 196.658208 
L 371.716464 195.842302 
L 371.900253 196.608119 
L 372.083351 195.806162 
L 372.265763 196.996133 
L 372.447494 195.012063 
L 372.62855 195.691625 
L 372.808934 195.122773 
L 372.988653 195.102439 
L 373.167712 194.930155 
L 373.346114 194.408965 
L 373.700969 194.434986 
L 373.877432 194.682783 
L 374.053257 194.428233 
L 374.22845 193.104477 
L 374.403015 194.13407 
L 374.922986 192.187338 
L 375.095083 192.493841 
L 375.266574 192.474352 
L 375.607755 191.684386 
L 375.777453 192.789305 
L 376.115085 190.081145 
L 376.283028 190.779311 
L 376.450393 190.751801 
L 376.617184 189.743077 
L 376.783407 189.747638 
L 377.114159 190.520226 
L 377.44268 189.586727 
L 377.606113 189.685775 
L 377.768999 188.862142 
L 378.093146 189.978852 
L 378.254414 188.766638 
L 378.41515 188.441498 
L 378.575357 189.03707 
L 378.735038 188.159784 
L 378.894198 188.50733 
L 378.894198 188.50733 
" clip-path="url(#p85585887ed)" style="fill: none; stroke: #000000; stroke-width: 0.75; stroke-linecap: square"/>
   </g>
   <g id="line2d_69">
    <path d="M 197.901862 205.441672 
L 204.035282 205.812511 
L 209.481865 205.640643 
L 214.380063 205.807682 
L 218.830272 205.331911 
L 222.907616 205.755856 
L 226.669774 205.412737 
L 230.161998 205.578541 
L 236.474458 205.012819 
L 239.348183 205.176374 
L 242.061724 205.192667 
L 244.632 205.032157 
L 247.073383 205.17587 
L 249.398186 205.101176 
L 251.617036 204.751746 
L 253.739172 204.920004 
L 255.772674 204.938622 
L 257.724649 204.794368 
L 259.601384 205.012276 
L 261.408465 204.157879 
L 263.150877 204.163147 
L 264.833089 204.645122 
L 266.459123 203.851021 
L 268.03261 204.446397 
L 269.556839 204.4358 
L 271.034803 204.215511 
L 272.469226 204.751033 
L 273.8626 203.481913 
L 275.217211 204.554398 
L 277.818369 204.311617 
L 279.068633 203.946922 
L 280.287597 204.071593 
L 281.476791 204.305978 
L 283.771448 203.512175 
L 284.87946 203.157033 
L 285.962821 204.180928 
L 287.022603 203.785341 
L 288.05981 203.237012 
L 290.07021 203.722229 
L 291.045118 203.308767 
L 292.00089 203.468343 
L 292.938263 202.855759 
L 293.857931 203.460611 
L 294.760552 202.809034 
L 296.5171 203.317857 
L 297.37217 202.87978 
L 298.212484 202.662095 
L 299.038543 203.149248 
L 299.850821 202.591814 
L 300.649772 202.65806 
L 301.435826 202.172583 
L 302.209393 201.901399 
L 302.970862 201.844052 
L 303.720607 202.201178 
L 305.186329 201.691688 
L 305.902972 202.008402 
L 306.60922 202.03524 
L 307.305371 201.445081 
L 307.99171 202.022696 
L 308.66851 202.111976 
L 309.336031 201.349589 
L 309.994526 201.581401 
L 310.644235 201.230472 
L 311.91821 201.051164 
L 312.542913 201.003839 
L 313.768779 200.585063 
L 314.37033 200.3134 
L 315.551587 200.526254 
L 316.13164 200.89148 
L 316.704865 199.970139 
L 317.271421 200.470184 
L 317.831461 199.944499 
L 318.93258 199.917454 
L 319.473941 200.228442 
L 320.009349 199.309648 
L 320.538935 200.304227 
L 321.062823 199.636253 
L 321.581134 199.819923 
L 322.093987 199.300155 
L 322.601494 199.526363 
L 323.103767 198.876247 
L 324.093032 198.651169 
L 324.580229 198.854309 
L 325.062599 198.310738 
L 326.481687 197.933553 
L 326.945672 198.167929 
L 327.405278 197.835926 
L 327.860586 197.045448 
L 328.311677 197.846688 
L 328.758627 197.489645 
L 329.201512 197.308095 
L 329.640406 197.568565 
L 330.075379 197.556419 
L 330.5065 196.802487 
L 330.933839 196.285566 
L 331.357459 196.95105 
L 331.777426 196.74713 
L 332.193802 196.006691 
L 332.606648 196.330376 
L 333.016023 196.118105 
L 333.421986 195.639134 
L 333.824591 195.766847 
L 334.619952 195.698484 
L 335.012813 195.435625 
L 335.40253 195.433979 
L 335.789153 195.731043 
L 336.17273 195.295026 
L 336.553309 194.053481 
L 336.930937 194.591647 
L 337.677519 194.29543 
L 338.046561 194.143523 
L 338.412828 193.791587 
L 338.77636 194.158917 
L 339.137198 193.609053 
L 339.495381 193.610572 
L 340.203941 192.93197 
L 340.554391 192.431627 
L 340.902337 192.610894 
L 341.247815 192.413731 
L 341.590858 192.637887 
L 341.931502 191.656681 
L 342.26978 191.618333 
L 342.605724 192.10388 
L 342.939366 192.153868 
L 343.270737 191.233537 
L 344.251533 191.234692 
L 344.574124 190.29509 
L 344.894591 190.242884 
L 345.212963 190.545436 
L 345.529267 190.016444 
L 345.84353 190.037936 
L 346.155778 189.060874 
L 346.466036 189.344434 
L 346.77433 189.915508 
L 347.687671 188.122868 
L 347.98835 188.072288 
L 348.287184 188.526405 
L 348.584195 187.766069 
L 348.879406 188.597536 
L 349.464512 186.731625 
L 349.754449 187.229022 
L 350.042671 186.815836 
L 350.329196 185.779449 
L 350.614045 186.211023 
L 350.897238 185.999409 
L 351.178793 185.929714 
L 351.45873 185.13867 
L 351.737066 185.549093 
L 352.289012 184.980675 
L 352.562656 185.23254 
L 352.834771 184.061404 
L 353.374481 183.64148 
L 353.642109 184.18825 
L 353.908275 183.004401 
L 354.172993 184.063676 
L 354.43628 182.392057 
L 354.698151 182.92255 
L 354.958622 182.69591 
L 355.47542 181.466425 
L 356.240476 181.343339 
L 356.492847 181.448132 
L 356.743917 180.535532 
L 356.993699 180.629549 
L 357.242206 179.85504 
L 357.489451 180.37909 
L 357.735447 179.126942 
L 357.980207 179.287142 
L 358.223742 178.36507 
L 358.466066 178.871161 
L 359.185884 176.937687 
L 359.423479 177.615969 
L 359.659919 176.768611 
L 359.895217 176.444328 
L 360.129384 177.162979 
L 360.36243 176.100047 
L 360.594365 176.541093 
L 360.825202 176.08117 
L 361.054949 175.213696 
L 361.511217 175.087816 
L 361.737758 173.577165 
L 361.963249 174.015839 
L 362.187701 173.653234 
L 362.411124 173.665237 
L 362.633526 173.24417 
L 362.854917 172.128037 
L 363.075306 172.531566 
L 363.294701 172.323189 
L 363.513113 171.90582 
L 363.73055 171.144506 
L 363.94702 171.091437 
L 364.377094 170.190411 
L 364.590715 169.688801 
L 364.803403 170.064318 
L 365.015166 169.986413 
L 365.226012 168.717122 
L 365.435949 169.284703 
L 365.644985 168.130964 
L 365.853127 168.166086 
L 366.060384 167.307152 
L 366.266762 167.448021 
L 366.472269 166.94068 
L 366.676912 165.966317 
L 366.880699 166.79098 
L 367.083637 165.890302 
L 367.285732 165.627038 
L 367.486992 165.679001 
L 367.687424 165.066162 
L 367.887034 165.384902 
L 368.08583 163.789193 
L 368.283817 163.514195 
L 368.481002 164.310533 
L 368.677392 162.514064 
L 368.872993 163.102588 
L 369.067811 163.230976 
L 369.261854 162.032865 
L 369.455126 162.424532 
L 369.647634 161.288125 
L 369.839383 162.19369 
L 370.030381 160.427471 
L 370.220633 160.065521 
L 370.410144 160.384666 
L 370.786968 159.771177 
L 370.974292 158.78719 
L 371.346792 158.410019 
L 371.531979 158.150483 
L 371.716464 157.263 
L 371.900253 157.881887 
L 372.083351 157.041219 
L 372.265763 157.647532 
L 372.447494 155.69897 
L 372.62855 155.698545 
L 372.808934 155.528598 
L 373.167712 154.681635 
L 373.346114 153.737046 
L 373.523865 153.930349 
L 373.700969 153.675372 
L 373.877432 153.771312 
L 374.053257 153.332052 
L 374.22845 151.874032 
L 374.403015 152.437413 
L 374.922986 149.932273 
L 375.095083 149.993998 
L 375.266574 149.880515 
L 375.437463 149.369793 
L 375.607755 149.454757 
L 375.777453 149.969248 
L 376.115085 146.787112 
L 376.283028 147.626285 
L 376.450393 147.224318 
L 376.783407 145.370114 
L 376.949064 145.551508 
L 377.114159 146.210481 
L 377.278697 145.633368 
L 377.44268 144.484274 
L 377.606113 144.712438 
L 377.768999 143.999326 
L 377.931343 144.689486 
L 378.093146 144.30898 
L 378.254414 142.969585 
L 378.41515 142.815424 
L 378.575357 143.256973 
L 378.735038 141.805576 
L 378.894198 142.301788 
L 378.894198 142.301788 
" clip-path="url(#p85585887ed)" style="fill: none; stroke: #000000; stroke-width: 0.75; stroke-linecap: square"/>
   </g>
   <g id="LineCollection_1">
    <path d="M 231.654509 224.820833 
L 231.654509 202.0818 
" clip-path="url(#p85585887ed)" style="fill: none; stroke: #000000; stroke-width: 0.5"/>
    <path d="M 297.051474 221.647945 
L 297.051474 190.97669 
" clip-path="url(#p85585887ed)" style="fill: none; stroke: #000000; stroke-width: 0.5"/>
    <path d="M 339.376028 199.173319 
L 339.376028 165.329176 
" clip-path="url(#p85585887ed)" style="fill: none; stroke: #000000; stroke-width: 0.5"/>
    <path d="M 350.404299 216.888612 
L 350.404299 182.515655 
" clip-path="url(#p85585887ed)" style="fill: none; stroke: #000000; stroke-width: 0.5"/>
    <path d="M 359.150165 201.552985 
L 359.150165 134.393515 
" clip-path="url(#p85585887ed)" style="fill: none; stroke: #000000; stroke-width: 0.5"/>
   </g>
   <g id="line2d_70">
    <defs>
     <path id="md6a9ee7093" d="M 2 0 
L -2 -0 
" style="stroke: #000000"/>
    </defs>
    <g clip-path="url(#p85585887ed)">
     <use xlink:href="#md6a9ee7093" x="231.654509" y="224.820833" style="stroke: #000000"/>
     <use xlink:href="#md6a9ee7093" x="297.051474" y="221.647945" style="stroke: #000000"/>
     <use xlink:href="#md6a9ee7093" x="339.376028" y="199.173319" style="stroke: #000000"/>
     <use xlink:href="#md6a9ee7093" x="350.404299" y="216.888612" style="stroke: #000000"/>
     <use xlink:href="#md6a9ee7093" x="359.150165" y="201.552985" style="stroke: #000000"/>
    </g>
   </g>
   <g id="line2d_71">
    <g clip-path="url(#p85585887ed)">
     <use xlink:href="#md6a9ee7093" x="231.654509" y="202.0818" style="stroke: #000000"/>
     <use xlink:href="#md6a9ee7093" x="297.051474" y="190.97669" style="stroke: #000000"/>
     <use xlink:href="#md6a9ee7093" x="339.376028" y="165.329176" style="stroke: #000000"/>
     <use xlink:href="#md6a9ee7093" x="350.404299" y="182.515655" style="stroke: #000000"/>
     <use xlink:href="#md6a9ee7093" x="359.150165" y="134.393515" style="stroke: #000000"/>
    </g>
   </g>
   <g id="line2d_72">
    <path d="M 124.825222 214.757341 
L 161.15995 214.377809 
L 181.735121 213.890043 
L 196.154045 213.272452 
L 207.264507 212.50194 
L 213.47395 211.891486 
L 218.980382 211.195261 
L 223.926921 210.40621 
L 228.416992 209.517504 
L 232.527768 208.522672 
L 236.318369 207.415732 
L 239.835086 206.191314 
L 243.114844 204.844788 
L 246.18757 203.372365 
L 249.077857 201.771195 
L 251.806161 200.039447 
L 254.389677 198.176363 
L 256.843003 196.182298 
L 259.178632 194.058733 
L 261.407342 191.808271 
L 263.538495 189.434606 
L 266.569933 185.65374 
L 269.42366 181.626601 
L 272.119365 177.37752 
L 274.673634 172.93435 
L 277.100571 168.327599 
L 280.159076 161.986728 
L 283.036777 155.49106 
L 286.41009 147.272151 
L 290.171915 137.451576 
L 295.320197 123.246236 
L 304.224954 98.4787 
L 307.713819 89.418613 
L 310.96934 81.587786 
L 313.649648 75.691117 
L 316.190089 70.613827 
L 318.604539 66.275345 
L 320.904907 62.591636 
L 323.101488 59.480317 
L 325.203246 56.863897 
L 327.218029 54.671593 
L 329.422969 52.604623 
L 331.532378 50.926982 
L 333.801116 49.418487 
L 335.96884 48.232123 
L 338.269388 47.210822 
L 340.893837 46.300094 
L 343.786972 45.55361 
L 346.895725 44.987065 
L 350.521799 44.553582 
L 354.383088 44.277046 
L 354.383088 44.277046 
" clip-path="url(#p85585887ed)" style="fill: none; stroke: #b22222; stroke-width: 1.5; stroke-linecap: square"/>
   </g>
   <g id="line2d_73">
    <path d="M 124.825222 221.196806 
L 140.14199 221.46593 
L 151.776264 221.52597 
L 161.15995 221.064214 
L 169.024224 220.829061 
L 175.793244 221.203927 
L 181.735121 220.749497 
L 187.030167 219.813094 
L 191.805485 220.561068 
L 196.154045 220.46326 
L 200.145904 219.48374 
L 203.835172 219.378836 
L 207.264507 218.91766 
L 210.468138 218.958283 
L 213.47395 218.27789 
L 216.304959 218.487334 
L 218.980382 218.056006 
L 221.516435 217.383336 
L 223.926921 217.178297 
L 226.223691 216.703284 
L 228.416992 216.908815 
L 230.515745 215.769886 
L 232.527768 216.279816 
L 234.459943 215.826882 
L 236.318369 214.893916 
L 238.108467 214.194137 
L 239.835086 214.194152 
L 241.502572 213.042755 
L 243.114844 212.443638 
L 244.67544 212.216551 
L 246.18757 211.671608 
L 247.654155 211.628849 
L 250.461115 209.631663 
L 251.806161 208.773456 
L 253.115051 208.295223 
L 254.389677 208.432549 
L 255.631789 206.541286 
L 256.843003 205.578881 
L 258.02482 205.373723 
L 259.178632 203.703072 
L 260.305737 203.000142 
L 262.484576 200.45807 
L 263.538495 199.859887 
L 264.570086 198.983018 
L 266.569933 196.571955 
L 267.539877 194.792864 
L 270.338911 191.573208 
L 274.673634 185.474658 
L 275.496126 183.388792 
L 277.100571 181.281896 
L 277.883394 178.774548 
L 278.653832 178.239195 
L 279.41227 176.197647 
L 280.159076 174.943799 
L 280.894601 173.926486 
L 281.619181 171.825738 
L 282.333138 170.493288 
L 283.036777 169.465729 
L 283.730394 167.661751 
L 284.414269 166.410218 
L 285.088673 164.611608 
L 285.753864 163.742097 
L 287.05759 160.688619 
L 288.949981 156.166683 
L 289.564781 154.072084 
L 290.171915 153.029395 
L 290.771573 151.209497 
L 291.949179 148.990619 
L 292.527471 147.062694 
L 293.663853 144.721268 
L 294.222251 142.871043 
L 294.774318 141.459418 
L 295.320197 140.993872 
L 295.860024 138.783379 
L 296.393932 138.091662 
L 296.922049 136.170421 
L 297.4445 135.042748 
L 298.472881 131.489545 
L 299.479992 129.635832 
L 299.975843 128.484332 
L 300.466695 126.557365 
L 300.952649 125.701688 
L 301.433802 123.902187 
L 301.910246 123.723563 
L 302.382074 121.346232 
L 302.849374 120.223312 
L 303.312232 119.926217 
L 303.770732 118.28312 
L 304.224954 117.474576 
L 305.120884 114.273314 
L 305.562742 113.724382 
L 307.713819 108.450372 
L 308.132862 106.517668 
L 308.54833 106.495541 
L 308.960284 105.398241 
L 309.77388 102.537826 
L 310.175636 101.85643 
L 310.574105 100.789155 
L 310.96934 99.367603 
L 311.361393 99.484815 
L 311.750314 97.922409 
L 312.136154 97.611126 
L 312.898781 94.430496 
L 313.275662 95.049926 
L 314.020784 92.484557 
L 314.389112 91.921868 
L 315.835183 87.902648 
L 316.190089 87.493976 
L 316.542427 87.359309 
L 316.892234 85.950921 
L 317.239545 85.860897 
L 318.266861 83.233573 
L 319.27295 81.520253 
L 319.603746 80.521234 
L 319.93231 79.887523 
L 320.258672 79.502167 
L 320.582861 79.334309 
L 321.224836 77.489663 
L 321.542677 76.498777 
L 321.858457 76.32338 
L 322.483939 74.795015 
L 322.793693 75.005682 
L 323.101488 73.397229 
L 323.407351 73.514635 
L 323.711304 72.555188 
L 324.313577 71.957433 
L 324.611943 71.523807 
L 325.203246 71.17367 
L 325.496227 69.873826 
L 325.787455 69.822412 
L 326.076952 69.079655 
L 326.364738 68.952681 
L 326.650833 68.542165 
L 326.935257 67.911047 
L 327.218029 67.894042 
L 327.499169 67.23593 
L 327.778695 66.881459 
L 328.056625 66.844827 
L 328.332978 66.012978 
L 328.607772 66.457247 
L 329.152751 64.812306 
L 329.422969 65.03965 
L 329.691697 64.997834 
L 329.95895 64.661075 
L 330.224744 63.974628 
L 330.489095 63.998374 
L 330.752019 63.136664 
L 331.013531 63.454728 
L 331.273646 63.272601 
L 332.045756 61.881372 
L 332.300429 61.722877 
L 332.553777 62.005641 
L 332.805814 61.83595 
L 333.056554 61.377503 
L 333.306008 60.560231 
L 333.554191 60.889492 
L 333.801116 60.569686 
L 334.046795 60.010511 
L 334.291241 59.756768 
L 334.534465 60.000451 
L 335.0173 58.892313 
L 335.256934 58.688162 
L 335.495394 59.167158 
L 335.732693 58.457878 
L 335.96884 58.864849 
L 336.203848 58.11279 
L 336.670488 57.880847 
L 336.902142 58.067635 
L 337.132699 57.982282 
L 337.362169 57.015326 
L 337.590563 57.560775 
L 337.817891 56.915448 
L 338.044163 57.268362 
L 338.269388 57.109212 
L 338.493576 56.790646 
L 338.716737 57.150116 
L 338.93888 56.204795 
L 339.380148 56.627429 
L 339.599291 56.563671 
L 339.817453 56.002918 
L 340.034641 56.267723 
L 340.250866 55.331643 
L 340.466134 55.312107 
L 340.680455 56.278613 
L 341.317815 55.03382 
L 341.528428 54.938695 
L 341.738134 55.033585 
L 341.946941 55.37394 
L 342.154856 54.757132 
L 342.361887 55.160026 
L 342.773328 55.003324 
L 342.977752 54.306572 
L 343.181321 54.690556 
L 343.384043 54.508675 
L 343.585924 54.176331 
L 343.786972 54.268547 
L 343.987193 54.051519 
L 344.186594 54.488105 
L 344.385182 54.164059 
L 344.582963 54.260188 
L 344.779945 53.592713 
L 344.976133 54.368958 
L 345.171533 53.39395 
L 345.366152 53.447608 
L 345.559997 53.646043 
L 345.753073 53.612433 
L 345.945387 53.886192 
L 346.136944 53.277804 
L 346.327751 53.69673 
L 346.517812 53.551697 
L 346.707135 53.62868 
L 346.895725 53.2499 
L 347.083587 53.528371 
L 347.45715 52.947765 
L 347.642863 53.837759 
L 347.82787 52.964965 
L 348.012177 52.818179 
L 348.195789 52.953041 
L 348.378711 52.694525 
L 348.560948 53.065693 
L 348.742506 53.147297 
L 348.92339 53.522102 
L 349.103604 52.553752 
L 349.283154 52.85978 
L 349.462044 52.782325 
L 349.640279 52.96476 
L 349.817864 53.47876 
L 350.346767 52.834652 
L 350.696204 52.797292 
L 350.869987 52.658241 
L 351.043151 53.020743 
L 351.215702 52.382177 
L 351.387644 52.222822 
L 351.558981 52.82326 
L 351.729717 52.374115 
L 351.899856 52.63426 
L 352.069403 52.487208 
L 352.238362 52.071734 
L 352.406737 52.669673 
L 352.574531 52.646501 
L 352.741749 52.282329 
L 352.908395 52.707401 
L 353.404938 51.952351 
L 353.569334 52.300102 
L 353.896469 52.073762 
L 354.059216 52.309701 
L 354.383088 51.987672 
L 354.383088 51.987672 
" clip-path="url(#p85585887ed)" style="fill: none; stroke: #000000; stroke-width: 0.75; stroke-linecap: square"/>
   </g>
   <g id="line2d_74">
    <path d="M 124.825222 205.280055 
L 140.14199 204.968154 
L 151.776264 205.089235 
L 161.15995 204.496021 
L 169.024224 204.279084 
L 175.793244 204.477576 
L 181.735121 203.829259 
L 196.154045 203.177411 
L 200.145904 202.114852 
L 210.468138 201.047234 
L 213.47395 200.500805 
L 216.304959 200.251628 
L 218.980382 199.851168 
L 223.926921 198.250733 
L 226.223691 197.97663 
L 228.416992 197.549734 
L 230.515745 196.79992 
L 232.527768 196.706765 
L 234.459943 195.530461 
L 238.108467 193.723211 
L 239.835086 193.193881 
L 241.502572 192.09475 
L 243.114844 190.674354 
L 244.67544 190.964224 
L 246.18757 190.066409 
L 247.654155 189.735525 
L 249.077857 188.173383 
L 250.461115 187.024689 
L 251.806161 185.600802 
L 253.115051 185.553944 
L 254.389677 184.449468 
L 255.631789 182.693021 
L 256.843003 181.481273 
L 258.02482 181.001639 
L 259.178632 179.38209 
L 260.305737 178.44342 
L 261.407342 176.979779 
L 262.484576 175.173009 
L 263.538495 174.631866 
L 266.569933 170.778336 
L 267.539877 168.776261 
L 268.490877 167.161442 
L 270.338911 165.047533 
L 271.237275 163.580545 
L 272.119365 162.582391 
L 273.83701 159.69509 
L 274.673634 158.117708 
L 275.496126 156.012527 
L 276.304956 155.09362 
L 277.100571 153.404154 
L 277.883394 150.996249 
L 278.653832 150.10874 
L 279.41227 148.192478 
L 280.159076 146.792188 
L 280.894601 145.68197 
L 281.619181 143.320394 
L 282.333138 141.996339 
L 285.088673 135.219 
L 285.753864 134.249662 
L 287.05759 130.746429 
L 288.32732 127.327627 
L 288.949981 126.024373 
L 289.564781 124.257098 
L 290.771573 119.756721 
L 291.363935 119.259531 
L 291.949179 117.910046 
L 292.527471 115.813019 
L 293.098977 114.4512 
L 294.774318 109.456788 
L 295.320197 108.656029 
L 295.860024 106.955863 
L 296.393932 106.231739 
L 296.922049 103.874855 
L 297.961406 101.028361 
L 298.472881 98.985289 
L 298.97904 97.874559 
L 299.479992 97.192405 
L 299.975843 95.776263 
L 300.466695 93.946982 
L 300.952649 93.391258 
L 301.433802 91.00565 
L 301.910246 90.605696 
L 302.382074 88.754636 
L 302.849374 87.597542 
L 303.312232 87.00367 
L 303.770732 85.540969 
L 304.224954 85.087244 
L 304.67498 82.888731 
L 305.120884 81.870186 
L 305.562742 81.273118 
L 306.000626 80.071043 
L 306.434608 79.534281 
L 306.864757 78.057105 
L 307.713819 76.544854 
L 308.132862 74.708751 
L 308.54833 74.763535 
L 309.368781 72.499891 
L 309.77388 71.772059 
L 310.175636 70.606975 
L 310.574105 70.03564 
L 310.96934 68.546847 
L 311.361393 68.783021 
L 311.750314 67.564269 
L 312.136154 67.514842 
L 312.898781 64.580691 
L 313.275662 65.046605 
L 314.389112 62.609808 
L 314.754676 61.96321 
L 315.117515 61.937795 
L 315.835183 59.634917 
L 316.190089 59.84629 
L 316.542427 59.508793 
L 316.892234 58.378784 
L 317.239545 58.58775 
L 317.926825 57.740935 
L 318.266861 56.506192 
L 318.604539 56.131981 
L 318.939891 55.97614 
L 319.603746 54.587984 
L 319.93231 54.297353 
L 320.582861 54.139596 
L 320.904907 53.399974 
L 321.224836 52.970753 
L 321.542677 52.084252 
L 321.858457 52.209638 
L 322.483939 50.882536 
L 322.793693 50.810992 
L 323.101488 50.008205 
L 323.407351 50.390366 
L 323.711304 49.638481 
L 324.013372 49.397543 
L 324.313577 48.952875 
L 324.611943 49.099476 
L 324.908492 49.069768 
L 325.203246 48.736277 
L 325.496227 47.84194 
L 325.787455 48.141104 
L 326.076952 47.597837 
L 326.364738 47.537889 
L 326.650833 47.095075 
L 327.218029 46.850767 
L 327.499169 46.666386 
L 327.778695 46.116604 
L 328.332978 45.616106 
L 328.607772 45.71203 
L 328.881024 45.356719 
L 329.152751 44.775037 
L 329.422969 45.067789 
L 329.691697 45.117871 
L 329.95895 44.955587 
L 330.224744 44.361981 
L 330.489095 44.623581 
L 330.752019 43.981552 
L 331.532378 44.284056 
L 332.045756 43.230682 
L 332.300429 43.542077 
L 332.553777 43.457339 
L 332.805814 43.047008 
L 333.056554 43.017813 
L 333.306008 42.438456 
L 333.554191 42.898348 
L 333.801116 42.602359 
L 334.046795 42.074858 
L 334.534465 42.115936 
L 335.256934 41.148621 
L 335.495394 41.506913 
L 335.732693 41.246594 
L 335.96884 41.896941 
L 336.203848 40.813419 
L 336.437727 40.542344 
L 336.670488 40.932577 
L 336.902142 40.880558 
L 337.132699 41.006661 
L 337.362169 40.191366 
L 337.590563 40.441646 
L 337.817891 40.102223 
L 338.269388 40.541893 
L 338.493576 40.151886 
L 338.716737 40.36328 
L 338.93888 39.779621 
L 339.160013 40.195279 
L 339.380148 40.192677 
L 339.599291 40.371639 
L 339.817453 39.625696 
L 340.034641 39.887633 
L 340.466134 38.496199 
L 340.680455 39.791873 
L 340.893837 39.02747 
L 341.106287 39.066725 
L 341.317815 39.273038 
L 341.528428 38.600093 
L 341.946941 39.096433 
L 342.154856 38.647031 
L 342.361887 39.12235 
L 342.568042 39.096453 
L 342.977752 38.541867 
L 343.384043 38.390461 
L 343.786972 38.680631 
L 343.987193 38.468991 
L 344.186594 38.994874 
L 344.385182 38.662602 
L 344.582963 38.621052 
L 344.779945 37.779246 
L 344.976133 37.875929 
L 345.171533 38.119366 
L 345.366152 37.71391 
L 345.559997 38.077796 
L 346.136944 37.758287 
L 346.707135 38.124201 
L 346.895725 38.011763 
L 347.083587 37.29901 
L 347.270727 37.802295 
L 347.45715 37.665702 
L 347.642863 38.220658 
L 348.012177 37.21837 
L 348.560948 37.720139 
L 348.742506 37.534232 
L 348.92339 38.044523 
L 349.103604 37.005009 
L 349.283154 37.47535 
L 349.462044 37.03652 
L 349.817864 37.710735 
L 350.171103 37.25658 
L 350.521799 37.21878 
L 350.869987 37.230663 
L 351.043151 37.581559 
L 351.215702 36.904762 
L 351.387644 36.802733 
L 351.558981 37.517452 
L 351.729717 36.614367 
L 351.899856 37.261763 
L 352.069403 37.185528 
L 352.238362 36.518893 
L 352.406737 37.314704 
L 352.574531 37.206856 
L 352.741749 36.967066 
L 352.908395 37.482438 
L 353.074473 36.694454 
L 353.404938 36.901976 
L 353.569334 36.702158 
L 353.733176 37.11003 
L 353.896469 36.682264 
L 354.383088 36.926951 
L 354.383088 36.926951 
" clip-path="url(#p85585887ed)" style="fill: none; stroke: #000000; stroke-width: 0.75; stroke-linecap: square"/>
   </g>
   <g id="LineCollection_2">
    <path d="M 158.577869 217.956879 
L 158.577869 213.705086 
" clip-path="url(#p85585887ed)" style="fill: none; stroke: #000000; stroke-width: 0.5"/>
    <path d="M 253.333528 171.203545 
L 253.333528 131.228812 
" clip-path="url(#p85585887ed)" style="fill: none; stroke: #000000; stroke-width: 0.5"/>
    <path d="M 278.328898 186.609533 
L 278.328898 121.119119 
" clip-path="url(#p85585887ed)" style="fill: none; stroke: #000000; stroke-width: 0.5"/>
    <path d="M 298.732193 144.315417 
L 298.732193 104.624356 
" clip-path="url(#p85585887ed)" style="fill: none; stroke: #000000; stroke-width: 0.5"/>
    <path d="M 320.306633 110.820448 
L 320.306633 75.09341 
" clip-path="url(#p85585887ed)" style="fill: none; stroke: #000000; stroke-width: 0.5"/>
    <path d="M 334.639055 103.910668 
L 334.639055 80.414301 
" clip-path="url(#p85585887ed)" style="fill: none; stroke: #000000; stroke-width: 0.5"/>
   </g>
   <g id="line2d_75">
    <g clip-path="url(#p85585887ed)">
     <use xlink:href="#md6a9ee7093" x="158.577869" y="217.956879" style="stroke: #000000"/>
     <use xlink:href="#md6a9ee7093" x="253.333528" y="171.203545" style="stroke: #000000"/>
     <use xlink:href="#md6a9ee7093" x="278.328898" y="186.609533" style="stroke: #000000"/>
     <use xlink:href="#md6a9ee7093" x="298.732193" y="144.315417" style="stroke: #000000"/>
     <use xlink:href="#md6a9ee7093" x="320.306633" y="110.820448" style="stroke: #000000"/>
     <use xlink:href="#md6a9ee7093" x="334.639055" y="103.910668" style="stroke: #000000"/>
    </g>
   </g>
   <g id="line2d_76">
    <g clip-path="url(#p85585887ed)">
     <use xlink:href="#md6a9ee7093" x="158.577869" y="213.705086" style="stroke: #000000"/>
     <use xlink:href="#md6a9ee7093" x="253.333528" y="131.228812" style="stroke: #000000"/>
     <use xlink:href="#md6a9ee7093" x="278.328898" y="121.119119" style="stroke: #000000"/>
     <use xlink:href="#md6a9ee7093" x="298.732193" y="104.624356" style="stroke: #000000"/>
     <use xlink:href="#md6a9ee7093" x="320.306633" y="75.09341" style="stroke: #000000"/>
     <use xlink:href="#md6a9ee7093" x="334.639055" y="80.414301" style="stroke: #000000"/>
    </g>
   </g>
   <g id="line2d_77">
    <path d="M 56.778155 214.574987 
L 80.958142 214.186187 
L 97.041857 213.700485 
L 109.111681 213.101145 
L 118.776164 212.37053 
L 126.836519 211.490525 
L 133.750219 210.443052 
L 139.803243 209.210641 
L 145.186352 207.777043 
L 150.033164 206.127837 
L 154.440922 204.251021 
L 158.482606 202.137531 
L 162.214386 199.781666 
L 165.680422 197.181401 
L 168.916058 194.338568 
L 171.950026 191.258893 
L 174.805996 187.951894 
L 177.503702 184.430654 
L 180.059766 180.711476 
L 182.488324 176.81345 
L 184.801495 172.757951 
L 188.07742 166.430342 
L 191.146783 159.883128 
L 194.034093 153.200619 
L 197.635414 144.22204 
L 201.792064 133.139091 
L 208.482223 114.42684 
L 214.36327 98.191956 
L 217.923108 88.973009 
L 221.24034 81.038682 
L 223.841894 75.353926 
L 226.311479 70.442997 
L 228.66184 66.230963 
L 230.90396 62.639989 
L 233.047371 59.593784 
L 235.100399 57.02045 
L 237.07036 54.854103 
L 239.333709 52.708954 
L 241.496513 50.97603 
L 243.567326 49.579907 
L 245.876974 48.293316 
L 248.389025 47.175945 
L 251.068344 46.257214 
L 253.882063 45.539713 
L 257.057034 44.967726 
L 260.755087 44.535046 
L 265.501617 44.223616 
L 272.135355 44.04017 
L 279.611875 43.980756 
L 279.611875 43.980756 
" clip-path="url(#p85585887ed)" style="fill: none; stroke: #b22222; stroke-width: 1.5; stroke-linecap: square"/>
   </g>
   <g id="line2d_78">
    <path d="M 56.778155 220.915489 
L 70.353836 221.277793 
L 80.958142 221.367651 
L 89.661052 220.978736 
L 97.041857 219.979088 
L 103.44978 220.540107 
L 109.111681 219.710613 
L 114.183295 219.146087 
L 118.776164 219.545552 
L 126.836519 218.208242 
L 130.415967 218.079443 
L 133.750219 217.473571 
L 136.870723 217.116059 
L 139.803243 216.152507 
L 142.569146 216.099608 
L 145.186352 215.288937 
L 147.670036 214.713531 
L 150.033164 213.59009 
L 154.440922 213.219248 
L 156.503684 211.506419 
L 158.482606 211.121838 
L 165.680422 206.880849 
L 167.32511 206.054986 
L 170.456668 203.511203 
L 171.950026 201.992057 
L 173.398946 200.031938 
L 174.805996 199.506669 
L 176.173528 198.007405 
L 177.503702 196.139326 
L 178.798504 194.6207 
L 180.059766 192.805808 
L 181.289184 191.862763 
L 184.801495 186.491003 
L 185.918137 184.313892 
L 188.07742 181.191803 
L 189.122186 177.645318 
L 190.145006 175.657036 
L 191.146783 174.67677 
L 192.128365 171.575868 
L 193.090552 170.841741 
L 194.959699 166.755936 
L 195.868039 164.001981 
L 197.635414 160.640463 
L 198.495614 157.940816 
L 199.340883 155.954265 
L 200.171728 153.59151 
L 200.988635 152.12003 
L 201.792064 149.100864 
L 202.582451 147.252602 
L 203.360213 145.816258 
L 204.125749 143.438588 
L 204.879435 141.959604 
L 207.072931 136.158359 
L 207.782675 134.391684 
L 208.482223 130.702688 
L 209.171864 130.059476 
L 210.522517 125.799364 
L 211.18405 124.844916 
L 211.836717 122.142667 
L 213.116378 118.60311 
L 214.36327 115.918327 
L 216.765172 108.764963 
L 217.347582 107.808015 
L 217.923108 104.755137 
L 218.491912 104.762615 
L 219.609966 101.967024 
L 220.702924 98.048102 
L 221.24034 96.732237 
L 221.771889 95.86013 
L 222.297698 94.681626 
L 222.81789 93.126534 
L 224.345932 89.937176 
L 224.844807 88.644739 
L 225.338622 88.400186 
L 226.311479 85.456713 
L 226.790715 84.699265 
L 227.735264 82.720567 
L 230.019461 78.213704 
L 230.463719 77.959501 
L 230.90396 76.34101 
L 231.340256 75.831804 
L 232.62617 73.235252 
L 233.047371 73.008738 
L 233.46496 72.411844 
L 233.878998 70.918964 
L 234.289545 71.671802 
L 235.100399 68.688961 
L 235.500819 69.050419 
L 235.897972 68.435086 
L 236.291913 68.098613 
L 236.682692 67.31487 
L 237.07036 66.183765 
L 237.454966 66.889275 
L 237.836559 65.612747 
L 238.215184 64.789001 
L 238.590888 65.221828 
L 238.963715 64.142752 
L 239.700914 63.538943 
L 240.06537 62.718578 
L 240.786199 62.507563 
L 241.496513 61.303941 
L 241.847822 61.645341 
L 242.542927 60.569133 
L 243.228249 60.09196 
L 243.567326 59.489115 
L 243.904059 59.322651 
L 244.238479 59.515052 
L 244.570619 58.443546 
L 244.900508 58.56842 
L 245.228177 58.293954 
L 245.553656 57.513151 
L 245.876974 57.911968 
L 246.198159 57.279814 
L 246.51724 57.449393 
L 247.149197 56.84206 
L 247.462126 56.862292 
L 247.773057 56.236848 
L 248.082015 56.420973 
L 248.389025 56.373369 
L 248.694112 55.745487 
L 248.997299 55.987029 
L 249.298611 55.895961 
L 249.598069 56.208708 
L 249.895697 55.262844 
L 250.48555 54.935694 
L 251.068344 55.580919 
L 251.357145 54.759898 
L 251.644245 54.902575 
L 251.929661 54.530085 
L 252.213414 54.541599 
L 252.495523 54.827395 
L 252.776008 54.512967 
L 253.054886 55.263807 
L 253.607895 53.61316 
L 253.882063 54.31528 
L 254.42581 53.906485 
L 254.695423 54.156622 
L 255.230212 53.291152 
L 255.49542 54.307597 
L 255.759192 53.600417 
L 256.282487 53.736456 
L 256.542041 53.567329 
L 256.800218 53.051403 
L 257.057034 53.687449 
L 257.312502 53.17262 
L 257.566638 52.931057 
L 257.819454 53.3574 
L 258.070964 53.275356 
L 258.321181 52.860159 
L 259.064211 53.070856 
L 259.309389 52.548835 
L 259.553339 52.549727 
L 259.796073 52.779775 
L 260.037603 52.281008 
L 260.277941 52.604941 
L 260.517098 52.165067 
L 260.755087 52.786894 
L 261.227603 52.103347 
L 261.462152 52.425375 
L 261.695578 52.270159 
L 261.927889 52.612266 
L 262.159098 51.947701 
L 262.618247 52.784989 
L 262.846209 52.82368 
L 263.073108 52.483786 
L 263.298955 52.554756 
L 263.74753 51.727405 
L 263.970278 51.746786 
L 264.192011 51.99261 
L 264.412739 52.547319 
L 264.632471 52.094711 
L 264.851216 52.046298 
L 265.068983 52.342881 
L 265.501617 51.78978 
L 265.716501 52.546602 
L 265.93044 51.928462 
L 266.143444 52.438836 
L 266.35552 52.283937 
L 266.566677 51.939444 
L 266.776922 51.920011 
L 266.986263 52.095387 
L 267.194708 51.91533 
L 267.402265 52.099803 
L 267.814742 51.597204 
L 268.223755 51.782312 
L 268.42698 52.21981 
L 268.629361 51.431693 
L 269.031617 51.863403 
L 269.231505 51.281926 
L 269.628837 51.614363 
L 269.826294 52.016161 
L 270.022953 51.614434 
L 270.218821 52.065537 
L 270.60821 51.595493 
L 270.801743 51.321161 
L 270.99451 52.137019 
L 271.186517 52.257006 
L 271.377769 51.578263 
L 271.568274 51.946307 
L 271.758035 51.312228 
L 271.947061 51.764088 
L 272.135355 51.580845 
L 272.322924 52.426871 
L 272.509774 52.24081 
L 272.695909 51.67513 
L 272.881335 51.853866 
L 273.066058 51.274889 
L 273.250083 51.895067 
L 273.433415 51.504998 
L 273.616059 51.588148 
L 273.798021 51.838008 
L 273.979306 51.428425 
L 274.159918 51.720121 
L 274.339862 51.527494 
L 274.519144 51.592338 
L 274.697769 52.076241 
L 274.87574 52.226346 
L 275.053064 51.832886 
L 275.229744 52.178968 
L 275.581193 51.608544 
L 275.75597 51.806621 
L 275.930123 51.834751 
L 276.103655 51.252239 
L 276.276571 52.230023 
L 276.448875 51.538097 
L 276.620571 51.76501 
L 276.791664 51.635619 
L 277.132057 52.068179 
L 277.470088 51.195693 
L 277.638227 51.981628 
L 277.805788 52.083064 
L 277.972774 51.456145 
L 278.139189 51.610019 
L 278.305038 51.541149 
L 278.470323 51.666556 
L 278.799221 51.194966 
L 279.288439 52.14169 
L 279.611875 51.583795 
L 279.611875 51.583795 
" clip-path="url(#p85585887ed)" style="fill: none; stroke: #000000; stroke-width: 0.75; stroke-linecap: square"/>
   </g>
   <g id="line2d_79">
    <path d="M 56.778155 204.841967 
L 70.353836 204.565151 
L 80.958142 204.664537 
L 89.661052 204.093812 
L 97.041857 202.901718 
L 103.44978 203.292338 
L 109.111681 202.209416 
L 114.183295 202.083022 
L 118.776164 201.436329 
L 122.972928 200.562069 
L 126.836519 199.601144 
L 130.415967 199.069038 
L 133.750219 198.41681 
L 136.870723 197.393726 
L 139.803243 196.153891 
L 142.569146 195.538055 
L 147.670036 193.557078 
L 150.033164 191.62388 
L 152.286899 191.192502 
L 158.482606 187.298986 
L 160.384236 185.31588 
L 162.214386 184.226222 
L 163.978236 182.208224 
L 167.32511 179.543578 
L 170.456668 175.70688 
L 171.950026 174.015206 
L 173.398946 171.501538 
L 174.805996 170.380697 
L 178.798504 164.412942 
L 180.059766 162.145302 
L 181.289184 161.131122 
L 182.488324 158.181287 
L 184.801495 154.74067 
L 185.918137 152.019511 
L 188.07742 148.423356 
L 189.122186 144.389979 
L 190.145006 142.053485 
L 191.146783 140.995998 
L 192.128365 138.025931 
L 193.090552 136.845819 
L 194.034093 134.39802 
L 194.959699 132.399734 
L 195.868039 129.367697 
L 196.759744 127.327525 
L 197.635414 126.121096 
L 199.340883 121.181919 
L 200.171728 118.841394 
L 200.988635 117.191044 
L 201.792064 114.388661 
L 203.360213 110.870165 
L 204.125749 108.497812 
L 204.879435 106.978932 
L 205.621633 104.912289 
L 207.072931 101.539995 
L 207.782675 99.204561 
L 208.482223 96.04743 
L 209.171864 95.550087 
L 209.851873 93.279343 
L 211.18405 90.371642 
L 211.836717 88.197233 
L 212.480751 86.849714 
L 213.116378 85.068344 
L 214.36327 82.669152 
L 215.579029 79.543296 
L 216.175712 78.461516 
L 216.765172 76.201897 
L 217.347582 75.665914 
L 217.923108 73.252913 
L 218.491912 72.902621 
L 219.054148 72.020813 
L 219.609966 70.811977 
L 220.159512 68.77164 
L 220.702924 67.560694 
L 221.24034 66.735411 
L 221.771889 66.497137 
L 222.81789 63.85626 
L 223.332584 63.478801 
L 224.345932 61.639154 
L 224.844807 60.219753 
L 225.338622 60.456091 
L 227.265279 57.159059 
L 227.735264 56.837655 
L 228.200756 56.013223 
L 228.66184 55.829283 
L 229.118599 54.711116 
L 229.571113 54.271251 
L 230.019461 54.034032 
L 230.90396 52.890881 
L 231.340256 52.470664 
L 231.772678 51.694819 
L 232.201294 51.311306 
L 232.62617 50.543769 
L 233.047371 50.539425 
L 233.878998 49.37263 
L 234.289545 49.615094 
L 234.69666 48.545422 
L 235.100399 47.79787 
L 235.500819 47.988203 
L 235.897972 47.757407 
L 236.291913 47.701926 
L 237.07036 46.156689 
L 237.454966 46.429751 
L 237.836559 45.831526 
L 238.215184 45.500022 
L 238.590888 45.624455 
L 238.963715 44.425135 
L 239.700914 44.514001 
L 240.06537 43.9613 
L 240.427118 43.778241 
L 241.142651 43.7144 
L 241.496513 43.329187 
L 241.847822 43.333285 
L 242.196615 42.891382 
L 242.542927 42.850324 
L 242.886794 42.45456 
L 243.228249 42.410183 
L 243.904059 41.739471 
L 244.238479 42.265621 
L 244.570619 41.360036 
L 244.900508 41.097053 
L 245.228177 41.366244 
L 245.553656 40.768469 
L 245.876974 41.030693 
L 246.51724 40.622636 
L 246.834244 40.720773 
L 247.149197 40.436524 
L 247.462126 40.532858 
L 247.773057 39.904843 
L 248.082015 40.17262 
L 248.389025 40.101916 
L 248.694112 39.38439 
L 248.997299 39.888043 
L 249.298611 39.534218 
L 249.598069 39.982554 
L 249.895697 39.350032 
L 250.191516 39.19838 
L 250.48555 38.834208 
L 250.777819 38.995796 
L 251.068344 39.353945 
L 251.357145 38.750167 
L 251.644245 38.996759 
L 251.929661 38.632444 
L 252.213414 38.931669 
L 252.495523 38.692227 
L 253.054886 39.44321 
L 253.607895 37.961998 
L 253.882063 38.448544 
L 254.42581 38.112584 
L 254.695423 38.372883 
L 254.963552 38.055177 
L 255.230212 37.465372 
L 255.49542 38.469462 
L 255.759192 38.05487 
L 256.021542 37.902092 
L 256.282487 37.963473 
L 256.800218 37.726982 
L 257.057034 37.981031 
L 257.566638 37.596494 
L 258.070964 37.681212 
L 258.321181 37.269979 
L 258.57012 37.311283 
L 259.064211 37.58539 
L 259.309389 37.124331 
L 259.553339 37.080671 
L 259.796073 37.304481 
L 260.037603 37.033877 
L 260.277941 37.40774 
L 260.517098 36.719203 
L 260.755087 37.236051 
L 260.991918 36.978334 
L 261.227603 37.117795 
L 261.695578 36.752271 
L 261.927889 37.34267 
L 262.159098 36.299366 
L 262.389214 37.407863 
L 262.618247 37.418967 
L 262.846209 37.19444 
L 263.523759 36.944406 
L 263.74753 36.485355 
L 263.970278 36.402276 
L 264.412739 37.436853 
L 264.632471 36.893617 
L 264.851216 36.732193 
L 265.28578 36.800213 
L 265.501617 36.311187 
L 265.716501 36.698695 
L 265.93044 36.270765 
L 266.143444 36.606151 
L 266.35552 36.486215 
L 266.566677 36.831334 
L 266.776922 36.801237 
L 266.986263 36.533993 
L 267.194708 36.499164 
L 267.60894 36.645509 
L 267.814742 36.284 
L 268.019678 36.228211 
L 268.42698 36.603385 
L 268.629361 35.949392 
L 268.830904 36.67034 
L 269.031617 36.868703 
L 269.231505 36.205183 
L 269.826294 36.750058 
L 270.022953 36.225507 
L 270.218821 36.21219 
L 270.413905 36.810641 
L 270.60821 36.325877 
L 270.801743 36.276993 
L 270.99451 36.75602 
L 271.186517 36.846822 
L 271.377769 36.406784 
L 271.568274 36.521311 
L 271.758035 36.32643 
L 271.947061 36.513259 
L 272.322924 36.510739 
L 272.509774 37.111977 
L 272.695909 36.594883 
L 272.881335 36.493652 
L 273.066058 36.246794 
L 273.250083 36.532354 
L 273.433415 36.175681 
L 273.798021 36.67372 
L 273.979306 35.91528 
L 274.159918 36.305901 
L 274.339862 36.155479 
L 274.519144 36.530305 
L 274.697769 36.469804 
L 274.87574 36.912978 
L 275.053064 36.228642 
L 275.229744 36.509203 
L 275.405785 36.53178 
L 275.581193 36.133168 
L 275.930123 36.431861 
L 276.103655 35.971785 
L 276.276571 36.85469 
L 276.448875 35.991126 
L 276.620571 36.485457 
L 276.791664 36.531371 
L 276.962158 36.328131 
L 277.132057 36.681301 
L 277.470088 35.870391 
L 277.638227 36.723957 
L 277.805788 36.736782 
L 277.972774 36.241283 
L 278.139189 36.477508 
L 278.305038 35.916775 
L 278.470323 36.300534 
L 278.63505 36.285414 
L 278.799221 35.564281 
L 278.96284 36.347123 
L 279.125912 36.231735 
L 279.288439 36.616067 
L 279.611875 36.653048 
L 279.611875 36.653048 
" clip-path="url(#p85585887ed)" style="fill: none; stroke: #000000; stroke-width: 0.75; stroke-linecap: square"/>
   </g>
   <g id="LineCollection_3">
    <path d="M 90.530802 224.671229 
L 90.530802 190.350273 
" clip-path="url(#p85585887ed)" style="fill: none; stroke: #000000; stroke-width: 0.5"/>
    <path d="M 129.831939 221.811149 
L 129.831939 170.84973 
" clip-path="url(#p85585887ed)" style="fill: none; stroke: #000000; stroke-width: 0.5"/>
    <path d="M 185.045992 189.050237 
L 185.045992 156.289324 
" clip-path="url(#p85585887ed)" style="fill: none; stroke: #000000; stroke-width: 0.5"/>
    <path d="M 209.67887 129.768586 
L 209.67887 103.767862 
" clip-path="url(#p85585887ed)" style="fill: none; stroke: #000000; stroke-width: 0.5"/>
    <path d="M 225.646222 61.386682 
L 225.646222 44.746218 
" clip-path="url(#p85585887ed)" style="fill: none; stroke: #000000; stroke-width: 0.5"/>
    <path d="M 238.139233 57.74658 
L 238.139233 44.746218 
" clip-path="url(#p85585887ed)" style="fill: none; stroke: #000000; stroke-width: 0.5"/>
    <path d="M 245.075077 62.426711 
L 245.075077 45.266233 
" clip-path="url(#p85585887ed)" style="fill: none; stroke: #000000; stroke-width: 0.5"/>
    <path d="M 259.867843 53.06645 
L 259.867843 44.226204 
" clip-path="url(#p85585887ed)" style="fill: none; stroke: #000000; stroke-width: 0.5"/>
   </g>
   <g id="line2d_80">
    <g clip-path="url(#p85585887ed)">
     <use xlink:href="#md6a9ee7093" x="90.530802" y="224.671229" style="stroke: #000000"/>
     <use xlink:href="#md6a9ee7093" x="129.831939" y="221.811149" style="stroke: #000000"/>
     <use xlink:href="#md6a9ee7093" x="185.045992" y="189.050237" style="stroke: #000000"/>
     <use xlink:href="#md6a9ee7093" x="209.67887" y="129.768586" style="stroke: #000000"/>
     <use xlink:href="#md6a9ee7093" x="225.646222" y="61.386682" style="stroke: #000000"/>
     <use xlink:href="#md6a9ee7093" x="238.139233" y="57.74658" style="stroke: #000000"/>
     <use xlink:href="#md6a9ee7093" x="245.075077" y="62.426711" style="stroke: #000000"/>
     <use xlink:href="#md6a9ee7093" x="259.867843" y="53.06645" style="stroke: #000000"/>
    </g>
   </g>
   <g id="line2d_81">
    <g clip-path="url(#p85585887ed)">
     <use xlink:href="#md6a9ee7093" x="90.530802" y="190.350273" style="stroke: #000000"/>
     <use xlink:href="#md6a9ee7093" x="129.831939" y="170.84973" style="stroke: #000000"/>
     <use xlink:href="#md6a9ee7093" x="185.045992" y="156.289324" style="stroke: #000000"/>
     <use xlink:href="#md6a9ee7093" x="209.67887" y="103.767862" style="stroke: #000000"/>
     <use xlink:href="#md6a9ee7093" x="225.646222" y="44.746218" style="stroke: #000000"/>
     <use xlink:href="#md6a9ee7093" x="238.139233" y="44.746218" style="stroke: #000000"/>
     <use xlink:href="#md6a9ee7093" x="245.075077" y="45.266233" style="stroke: #000000"/>
     <use xlink:href="#md6a9ee7093" x="259.867843" y="44.226204" style="stroke: #000000"/>
    </g>
   </g>
   <g id="patch_3">
    <path d="M 40.672353 258.797179 
L 40.672353 1 
" style="fill: none; stroke: #000000; stroke-width: 0.8; stroke-linejoin: miter; stroke-linecap: square"/>
   </g>
   <g id="patch_4">
    <path d="M 395 258.797179 
L 395 1 
" style="fill: none; stroke: #000000; stroke-width: 0.8; stroke-linejoin: miter; stroke-linecap: square"/>
   </g>
   <g id="patch_5">
    <path d="M 40.672353 258.797179 
L 395 258.797179 
" style="fill: none; stroke: #000000; stroke-width: 0.8; stroke-linejoin: miter; stroke-linecap: square"/>
   </g>
   <g id="patch_6">
    <path d="M 40.672353 1 
L 395 1 
" style="fill: none; stroke: #000000; stroke-width: 0.8; stroke-linejoin: miter; stroke-linecap: square"/>
   </g>
   <g id="legend_1">
    <g id="patch_7">
     <path d="M 48.372353 25.378076 
L 343.11112 25.378076 
Q 345.31112 25.378076 345.31112 23.178076 
L 345.31112 8.7 
Q 345.31112 6.5 343.11112 6.5 
L 48.372353 6.5 
Q 46.172353 6.5 46.172353 8.7 
L 46.172353 23.178076 
Q 46.172353 25.378076 48.372353 25.378076 
z
" style="fill: #ffffff; opacity: 0.8; stroke: #cccccc; stroke-linejoin: miter"/>
    </g>
    <g id="PathCollection_1">
     <defs>
      <path id="m06eab013a8" d="M 0 -3.162278 
L -2.738613 -1.581139 
L -2.738613 1.581139 
L -0 3.162278 
L 2.738613 1.581139 
L 2.738613 -1.581139 
z
" style="stroke: #000000"/>
     </defs>
     <g>
      <use xlink:href="#m06eab013a8" x="61.572353" y="15.7125" style="fill: #d95f02; stroke: #000000"/>
     </g>
    </g>
    <g id="text_14">
     <!-- \textbf{$T = 1400$ [$^\circ C $]} -->
     <g transform="translate(81.372353 18.6) scale(0.11 -0.11)">
      <defs>
       <path id="NewTXBMI-5a" d="M 3930 3057 
L 4160 4288 
L 634 4288 
L 390 3192 
L 550 3147 
C 883 3792 1286 4057 1939 4057 
L 992 621 
C 902 288 736 160 410 160 
L 320 160 
L 320 0 
L 2438 0 
L 2438 160 
C 1984 160 1907 199 1907 404 
C 1907 501 1933 629 1978 803 
L 2874 4057 
C 3475 4057 3725 3781 3757 3070 
L 3930 3057 
z
" transform="scale(0.015625)"/>
       <path id="txbmiaX-3d" d="M 3930 2137 
L 3930 2752 
L 397 2752 
L 397 2137 
L 3930 2137 
z
M 3930 576 
L 3930 1190 
L 397 1190 
L 397 576 
L 3930 576 
z
" transform="scale(0.015625)"/>
       <path id="txbsys-e" d="M 2955 1640 
C 2955 2347 2386 2915 1676 2915 
C 960 2915 397 2347 397 1640 
C 397 926 960 365 1676 365 
C 2386 365 2955 926 2955 1640 
z
M 2482 1640 
C 2482 1188 2117 838 1676 838 
C 1222 838 870 1188 870 1640 
C 870 2078 1222 2441 1676 2441 
C 2117 2441 2482 2078 2482 1640 
z
" transform="scale(0.015625)"/>
       <path id="NewTXBMI-49" d="M 3686 828 
L 3494 969 
C 3174 590 2995 442 2726 326 
C 2547 249 2349 211 2150 211 
C 1549 211 1190 628 1190 1329 
C 1190 2253 1638 3344 2214 3852 
C 2451 4051 2714 4160 2982 4160 
C 3501 4160 3821 3775 3821 3146 
C 3821 3062 3814 3004 3802 2921 
L 4006 2882 
L 4333 4384 
L 4141 4384 
C 4051 4243 3994 4198 3898 4198 
C 3846 4198 3750 4218 3654 4250 
C 3366 4339 3078 4384 2816 4384 
C 1389 4384 205 3094 205 1534 
C 205 539 902 -128 1946 -128 
C 2400 -128 2822 13 3187 289 
C 3373 431 3482 546 3686 828 
z
" transform="scale(0.015625)"/>
      </defs>
      <use xlink:href="#NewTXBMI-5a" transform="scale(0.996264)"/>
      <use xlink:href="#txbmiaX-3d" transform="translate(94.32405 0) scale(0.996264)"/>
      <use xlink:href="#TeXGyreTermesX-Bold-31" transform="translate(189.34539 0) scale(0.996264)"/>
      <use xlink:href="#TeXGyreTermesX-Bold-34" transform="translate(239.15859 0) scale(0.996264)"/>
      <use xlink:href="#TeXGyreTermesX-Bold-30" transform="translate(288.971791 0) scale(0.996264)"/>
      <use xlink:href="#TeXGyreTermesX-Bold-30" transform="translate(338.784991 0) scale(0.996264)"/>
      <use xlink:href="#TeXGyreTermesX-Bold-5b" transform="translate(413.504792 0) scale(0.996264)"/>
      <use xlink:href="#txbsys-e" transform="translate(446.680402 36.164371) scale(0.727268)"/>
      <use xlink:href="#NewTXBMI-49" transform="translate(485.68588 0) scale(0.996264)"/>
      <use xlink:href="#TeXGyreTermesX-Bold-5d" transform="translate(557.167792 0) scale(0.996264)"/>
     </g>
    </g>
    <g id="PathCollection_2">
     <defs>
      <path id="mcc579e9a64" d="M 0 -3.162278 
L -2.738613 -1.581139 
L -2.738613 1.581139 
L -0 3.162278 
L 2.738613 1.581139 
L 2.738613 -1.581139 
z
" style="stroke: #000000"/>
     </defs>
     <g>
      <use xlink:href="#mcc579e9a64" x="179.507415" y="15.7125" style="fill: #7570b3; stroke: #000000"/>
     </g>
    </g>
    <g id="text_15">
     <!-- \textbf{$1500$ [$^\circ C $]} -->
     <g transform="translate(199.307415 18.6) scale(0.11 -0.11)">
      <defs>
       <path id="TeXGyreTermesX-Bold-35" d="M 3008 4288 
L 947 4288 
L 326 2093 
C 934 2049 1197 2010 1478 1921 
C 2048 1743 2387 1381 2387 960 
C 2387 604 2106 324 1747 324 
C 1600 324 1427 400 1171 591 
C 896 795 704 877 538 877 
C 307 877 141 718 141 496 
C 141 159 512 -64 1082 -64 
C 2138 -64 2886 575 2886 1476 
C 2886 2140 2477 2652 1779 2850 
C 1536 2920 1338 2946 813 2946 
L 954 3481 
L 2733 3481 
L 3008 4288 
z
" transform="scale(0.015625)"/>
      </defs>
      <use xlink:href="#TeXGyreTermesX-Bold-31" transform="scale(0.996264)"/>
      <use xlink:href="#TeXGyreTermesX-Bold-35" transform="translate(49.8132 0) scale(0.996264)"/>
      <use xlink:href="#TeXGyreTermesX-Bold-30" transform="translate(99.626401 0) scale(0.996264)"/>
      <use xlink:href="#TeXGyreTermesX-Bold-30" transform="translate(149.439601 0) scale(0.996264)"/>
      <use xlink:href="#TeXGyreTermesX-Bold-5b" transform="translate(224.159402 0) scale(0.996264)"/>
      <use xlink:href="#txbsys-e" transform="translate(257.335012 36.164371) scale(0.727268)"/>
      <use xlink:href="#NewTXBMI-49" transform="translate(296.34049 0) scale(0.996264)"/>
      <use xlink:href="#TeXGyreTermesX-Bold-5d" transform="translate(367.822402 0) scale(0.996264)"/>
     </g>
    </g>
    <g id="PathCollection_3">
     <defs>
      <path id="mfc7e3b8101" d="M 0 -3.162278 
L -2.738613 -1.581139 
L -2.738613 1.581139 
L -0 3.162278 
L 2.738613 1.581139 
L 2.738613 -1.581139 
z
" style="stroke: #000000"/>
     </defs>
     <g>
      <use xlink:href="#mfc7e3b8101" x="276.709267" y="15.7125" style="fill: #e7298a; stroke: #000000"/>
     </g>
    </g>
    <g id="text_16">
     <!-- \textbf{$1600$ [$^\circ C $]} -->
     <g transform="translate(296.509267 18.6) scale(0.11 -0.11)">
      <use xlink:href="#TeXGyreTermesX-Bold-31" transform="scale(0.996264)"/>
      <use xlink:href="#TeXGyreTermesX-Bold-36" transform="translate(49.8132 0) scale(0.996264)"/>
      <use xlink:href="#TeXGyreTermesX-Bold-30" transform="translate(99.626401 0) scale(0.996264)"/>
      <use xlink:href="#TeXGyreTermesX-Bold-30" transform="translate(149.439601 0) scale(0.996264)"/>
      <use xlink:href="#TeXGyreTermesX-Bold-5b" transform="translate(224.159402 0) scale(0.996264)"/>
      <use xlink:href="#txbsys-e" transform="translate(257.335012 36.164371) scale(0.727268)"/>
      <use xlink:href="#NewTXBMI-49" transform="translate(296.34049 0) scale(0.996264)"/>
      <use xlink:href="#TeXGyreTermesX-Bold-5d" transform="translate(367.822402 0) scale(0.996264)"/>
     </g>
    </g>
   </g>
   <g id="PathCollection_4">
    <g clip-path="url(#p85585887ed)">
     <use xlink:href="#m06eab013a8" x="231.654509" y="213.451316" style="fill: #d95f02; stroke: #000000"/>
     <use xlink:href="#m06eab013a8" x="297.051474" y="206.312317" style="fill: #d95f02; stroke: #000000"/>
     <use xlink:href="#m06eab013a8" x="339.376028" y="182.251247" style="fill: #d95f02; stroke: #000000"/>
     <use xlink:href="#m06eab013a8" x="350.404299" y="199.702133" style="fill: #d95f02; stroke: #000000"/>
     <use xlink:href="#m06eab013a8" x="359.150165" y="167.97325" style="fill: #d95f02; stroke: #000000"/>
    </g>
   </g>
   <g id="PathCollection_5">
    <g clip-path="url(#p85585887ed)">
     <use xlink:href="#mcc579e9a64" x="158.577869" y="215.830983" style="fill: #7570b3; stroke: #000000"/>
     <use xlink:href="#mcc579e9a64" x="253.333528" y="151.216179" style="fill: #7570b3; stroke: #000000"/>
     <use xlink:href="#mcc579e9a64" x="278.328898" y="153.864326" style="fill: #7570b3; stroke: #000000"/>
     <use xlink:href="#mcc579e9a64" x="298.732193" y="124.469887" style="fill: #7570b3; stroke: #000000"/>
     <use xlink:href="#mcc579e9a64" x="320.306633" y="92.956929" style="fill: #7570b3; stroke: #000000"/>
     <use xlink:href="#mcc579e9a64" x="334.639055" y="92.162485" style="fill: #7570b3; stroke: #000000"/>
    </g>
   </g>
   <g id="PathCollection_6">
    <g clip-path="url(#p85585887ed)">
     <use xlink:href="#mfc7e3b8101" x="90.530802" y="207.510751" style="fill: #e7298a; stroke: #000000"/>
     <use xlink:href="#mfc7e3b8101" x="129.831939" y="196.330439" style="fill: #e7298a; stroke: #000000"/>
     <use xlink:href="#mfc7e3b8101" x="185.045992" y="172.669781" style="fill: #e7298a; stroke: #000000"/>
     <use xlink:href="#mfc7e3b8101" x="209.67887" y="116.768224" style="fill: #e7298a; stroke: #000000"/>
     <use xlink:href="#mfc7e3b8101" x="225.646222" y="53.06645" style="fill: #e7298a; stroke: #000000"/>
     <use xlink:href="#mfc7e3b8101" x="238.139233" y="51.246399" style="fill: #e7298a; stroke: #000000"/>
     <use xlink:href="#mfc7e3b8101" x="245.075077" y="53.846472" style="fill: #e7298a; stroke: #000000"/>
     <use xlink:href="#mfc7e3b8101" x="259.867843" y="48.646327" style="fill: #e7298a; stroke: #000000"/>
    </g>
   </g>
  </g>
 </g>
 <defs>
  <clipPath id="p85585887ed">
   <rect x="40.672353" y="1" width="354.327647" height="257.797179"/>
  </clipPath>
 </defs>
</svg>
