<?xml version="1.0" encoding="utf-8" standalone="no"?>
<!DOCTYPE svg PUBLIC "-//W3C//DTD SVG 1.1//EN"
  "http://www.w3.org/Graphics/SVG/1.1/DTD/svg11.dtd">
<svg xmlns:xlink="http://www.w3.org/1999/xlink" width="234pt" height="180pt" viewBox="0 0 234 180" xmlns="http://www.w3.org/2000/svg" version="1.1">
 <metadata>
  <rdf:RDF xmlns:dc="http://purl.org/dc/elements/1.1/" xmlns:cc="http://creativecommons.org/ns#" xmlns:rdf="http://www.w3.org/1999/02/22-rdf-syntax-ns#">
   <cc:Work>
    <dc:type rdf:resource="http://purl.org/dc/dcmitype/StillImage"/>
    <dc:date>2025-01-02T10:29:41.944608</dc:date>
    <dc:format>image/svg+xml</dc:format>
    <dc:creator>
     <cc:Agent>
      <dc:title>Matplotlib v3.9.0, https://matplotlib.org/</dc:title>
     </cc:Agent>
    </dc:creator>
   </cc:Work>
  </rdf:RDF>
 </metadata>
 <defs>
  <style type="text/css">*{stroke-linejoin: round; stroke-linecap: butt}</style>
 </defs>
 <g id="figure_1">
  <g id="patch_1">
   <path d="M 0 180 
L 234 180 
L 234 0 
L 0 0 
z
" style="fill: #ffffff"/>
  </g>
  <g id="axes_1">
   <g id="patch_2">
    <path d="M 33.297816 150.797179 
L 230.300658 150.797179 
L 230.300658 4.761635 
L 33.297816 4.761635 
z
" style="fill: #ffffff"/>
   </g>
   <g id="matplotlib.axis_1">
    <g id="xtick_1">
     <g id="line2d_1">
      <defs>
       <path id="m36f7adfe73" d="M 0 0 
L 0 -3.5 
" style="stroke: #000000; stroke-width: 0.8"/>
      </defs>
      <g>
       <use xlink:href="#m36f7adfe73" x="36.838383" y="150.797179" style="stroke: #000000; stroke-width: 0.8"/>
      </g>
     </g>
     <g id="text_1">
      <!-- $\mathdefault{10^{-3}}$ -->
      <g transform="translate(26.378622 161.82045) scale(0.11 -0.11)">
       <defs>
        <path id="TeXGyreTermesX-Bold-31" d="M 2829 0 
L 2829 159 
C 2246 159 2138 255 2138 746 
L 2138 4384 
L 2029 4384 
L 416 3686 
L 416 3521 
C 474 3540 525 3559 544 3572 
C 717 3635 877 3680 960 3680 
C 1120 3680 1190 3540 1190 3241 
L 1190 790 
C 1190 267 1062 159 429 159 
L 429 0 
L 2829 0 
z
" transform="scale(0.015625)"/>
        <path id="TeXGyreTermesX-Bold-30" d="M 3046 2166 
C 3046 3440 2426 4403 1600 4403 
C 1184 4403 762 4123 499 3664 
C 294 3313 154 2714 154 2185 
C 154 873 755 -64 1606 -64 
C 2432 -64 3046 886 3046 2166 
z
M 2035 1434 
C 2035 1058 1984 561 1926 389 
C 1856 203 1754 114 1606 114 
C 1286 114 1165 491 1165 1434 
L 1165 2892 
C 1165 3855 1286 4224 1594 4224 
C 1907 4224 2035 3829 2035 2892 
L 2035 1434 
z
" transform="scale(0.015625)"/>
        <path id="txbsys-0" d="M 3929 1341 
L 3929 1955 
L 396 1955 
L 396 1341 
L 3929 1341 
z
" transform="scale(0.015625)"/>
        <path id="TeXGyreTermesX-Bold-33" d="M 2995 1596 
C 2995 1889 2899 2164 2714 2387 
C 2579 2540 2470 2617 2214 2732 
C 2624 2981 2746 3165 2746 3541 
C 2746 4090 2355 4416 1702 4416 
C 1069 4416 589 4097 237 3440 
L 371 3364 
C 614 3753 826 3900 1158 3900 
C 1562 3900 1811 3645 1811 3242 
C 1811 2822 1587 2598 979 2406 
L 979 2297 
C 1510 2112 1722 2004 1952 1786 
C 2150 1601 2266 1314 2266 1007 
C 2266 548 2022 254 1638 254 
C 1485 254 1363 324 1152 528 
C 902 778 710 880 518 880 
C 275 880 102 728 102 510 
C 102 166 493 -64 1082 -64 
C 2150 -64 2995 664 2995 1596 
z
" transform="scale(0.015625)"/>
       </defs>
       <use xlink:href="#TeXGyreTermesX-Bold-31" transform="scale(0.996264)"/>
       <use xlink:href="#TeXGyreTermesX-Bold-30" transform="translate(49.8132 0) scale(0.996264)"/>
       <use xlink:href="#txbsys-0" transform="translate(99.626401 36.164371) scale(0.727268)"/>
       <use xlink:href="#TeXGyreTermesX-Bold-33" transform="translate(148.78971 36.164371) scale(0.727268)"/>
      </g>
     </g>
    </g>
    <g id="xtick_2">
     <g id="line2d_2">
      <g>
       <use xlink:href="#m36f7adfe73" x="90.583456" y="150.797179" style="stroke: #000000; stroke-width: 0.8"/>
      </g>
     </g>
     <g id="text_2">
      <!-- $\mathdefault{10^{-2}}$ -->
      <g transform="translate(80.123695 161.82045) scale(0.11 -0.11)">
       <defs>
        <path id="TeXGyreTermesX-Bold-32" d="M 3059 1341 
L 2906 1341 
C 2720 884 2643 846 1990 846 
L 1024 846 
L 2061 1824 
C 2566 2301 2790 2726 2790 3210 
C 2790 3889 2298 4373 1606 4373 
C 1286 4373 979 4245 755 4016 
C 506 3768 378 3552 198 3075 
L 378 3075 
C 576 3469 813 3648 1158 3648 
C 1440 3648 1651 3527 1792 3298 
C 1869 3164 1920 2987 1920 2841 
C 1920 2561 1798 2211 1594 1900 
C 1267 1405 1043 1137 109 146 
L 109 0 
L 2771 0 
L 3059 1341 
z
" transform="scale(0.015625)"/>
       </defs>
       <use xlink:href="#TeXGyreTermesX-Bold-31" transform="scale(0.996264)"/>
       <use xlink:href="#TeXGyreTermesX-Bold-30" transform="translate(49.8132 0) scale(0.996264)"/>
       <use xlink:href="#txbsys-0" transform="translate(99.626401 36.164371) scale(0.727268)"/>
       <use xlink:href="#TeXGyreTermesX-Bold-32" transform="translate(148.78971 36.164371) scale(0.727268)"/>
      </g>
     </g>
    </g>
    <g id="xtick_3">
     <g id="line2d_3">
      <g>
       <use xlink:href="#m36f7adfe73" x="144.328529" y="150.797179" style="stroke: #000000; stroke-width: 0.8"/>
      </g>
     </g>
     <g id="text_3">
      <!-- $\mathdefault{10^{-1}}$ -->
      <g transform="translate(133.868768 161.82045) scale(0.11 -0.11)">
       <use xlink:href="#TeXGyreTermesX-Bold-31" transform="scale(0.996264)"/>
       <use xlink:href="#TeXGyreTermesX-Bold-30" transform="translate(49.8132 0) scale(0.996264)"/>
       <use xlink:href="#txbsys-0" transform="translate(99.626401 36.164371) scale(0.727268)"/>
       <use xlink:href="#TeXGyreTermesX-Bold-31" transform="translate(148.78971 36.164371) scale(0.727268)"/>
      </g>
     </g>
    </g>
    <g id="xtick_4">
     <g id="line2d_4">
      <g>
       <use xlink:href="#m36f7adfe73" x="198.073602" y="150.797179" style="stroke: #000000; stroke-width: 0.8"/>
      </g>
     </g>
     <g id="text_4">
      <!-- $\mathdefault{10^{0}}$ -->
      <g transform="translate(190.626538 161.82045) scale(0.11 -0.11)">
       <use xlink:href="#TeXGyreTermesX-Bold-31" transform="scale(0.996264)"/>
       <use xlink:href="#TeXGyreTermesX-Bold-30" transform="translate(49.8132 0) scale(0.996264)"/>
       <use xlink:href="#TeXGyreTermesX-Bold-30" transform="translate(99.626401 36.164371) scale(0.727268)"/>
      </g>
     </g>
    </g>
    <g id="xtick_5">
     <g id="line2d_5">
      <defs>
       <path id="m5d7fa95484" d="M 0 0 
L 0 -2 
" style="stroke: #000000; stroke-width: 0.6"/>
      </defs>
      <g>
       <use xlink:href="#m5d7fa95484" x="34.379143" y="150.797179" style="stroke: #000000; stroke-width: 0.6"/>
      </g>
     </g>
    </g>
    <g id="xtick_6">
     <g id="line2d_6">
      <g>
       <use xlink:href="#m5d7fa95484" x="53.017262" y="150.797179" style="stroke: #000000; stroke-width: 0.6"/>
      </g>
     </g>
    </g>
    <g id="xtick_7">
     <g id="line2d_7">
      <g>
       <use xlink:href="#m5d7fa95484" x="62.4813" y="150.797179" style="stroke: #000000; stroke-width: 0.6"/>
      </g>
     </g>
    </g>
    <g id="xtick_8">
     <g id="line2d_8">
      <g>
       <use xlink:href="#m5d7fa95484" x="69.196141" y="150.797179" style="stroke: #000000; stroke-width: 0.6"/>
      </g>
     </g>
    </g>
    <g id="xtick_9">
     <g id="line2d_9">
      <g>
       <use xlink:href="#m5d7fa95484" x="74.404577" y="150.797179" style="stroke: #000000; stroke-width: 0.6"/>
      </g>
     </g>
    </g>
    <g id="xtick_10">
     <g id="line2d_10">
      <g>
       <use xlink:href="#m5d7fa95484" x="78.660179" y="150.797179" style="stroke: #000000; stroke-width: 0.6"/>
      </g>
     </g>
    </g>
    <g id="xtick_11">
     <g id="line2d_11">
      <g>
       <use xlink:href="#m5d7fa95484" x="82.258239" y="150.797179" style="stroke: #000000; stroke-width: 0.6"/>
      </g>
     </g>
    </g>
    <g id="xtick_12">
     <g id="line2d_12">
      <g>
       <use xlink:href="#m5d7fa95484" x="85.37502" y="150.797179" style="stroke: #000000; stroke-width: 0.6"/>
      </g>
     </g>
    </g>
    <g id="xtick_13">
     <g id="line2d_13">
      <g>
       <use xlink:href="#m5d7fa95484" x="88.124216" y="150.797179" style="stroke: #000000; stroke-width: 0.6"/>
      </g>
     </g>
    </g>
    <g id="xtick_14">
     <g id="line2d_14">
      <g>
       <use xlink:href="#m5d7fa95484" x="106.762335" y="150.797179" style="stroke: #000000; stroke-width: 0.6"/>
      </g>
     </g>
    </g>
    <g id="xtick_15">
     <g id="line2d_15">
      <g>
       <use xlink:href="#m5d7fa95484" x="116.226373" y="150.797179" style="stroke: #000000; stroke-width: 0.6"/>
      </g>
     </g>
    </g>
    <g id="xtick_16">
     <g id="line2d_16">
      <g>
       <use xlink:href="#m5d7fa95484" x="122.941214" y="150.797179" style="stroke: #000000; stroke-width: 0.6"/>
      </g>
     </g>
    </g>
    <g id="xtick_17">
     <g id="line2d_17">
      <g>
       <use xlink:href="#m5d7fa95484" x="128.14965" y="150.797179" style="stroke: #000000; stroke-width: 0.6"/>
      </g>
     </g>
    </g>
    <g id="xtick_18">
     <g id="line2d_18">
      <g>
       <use xlink:href="#m5d7fa95484" x="132.405252" y="150.797179" style="stroke: #000000; stroke-width: 0.6"/>
      </g>
     </g>
    </g>
    <g id="xtick_19">
     <g id="line2d_19">
      <g>
       <use xlink:href="#m5d7fa95484" x="136.003312" y="150.797179" style="stroke: #000000; stroke-width: 0.6"/>
      </g>
     </g>
    </g>
    <g id="xtick_20">
     <g id="line2d_20">
      <g>
       <use xlink:href="#m5d7fa95484" x="139.120094" y="150.797179" style="stroke: #000000; stroke-width: 0.6"/>
      </g>
     </g>
    </g>
    <g id="xtick_21">
     <g id="line2d_21">
      <g>
       <use xlink:href="#m5d7fa95484" x="141.86929" y="150.797179" style="stroke: #000000; stroke-width: 0.6"/>
      </g>
     </g>
    </g>
    <g id="xtick_22">
     <g id="line2d_22">
      <g>
       <use xlink:href="#m5d7fa95484" x="160.507408" y="150.797179" style="stroke: #000000; stroke-width: 0.6"/>
      </g>
     </g>
    </g>
    <g id="xtick_23">
     <g id="line2d_23">
      <g>
       <use xlink:href="#m5d7fa95484" x="169.971446" y="150.797179" style="stroke: #000000; stroke-width: 0.6"/>
      </g>
     </g>
    </g>
    <g id="xtick_24">
     <g id="line2d_24">
      <g>
       <use xlink:href="#m5d7fa95484" x="176.686288" y="150.797179" style="stroke: #000000; stroke-width: 0.6"/>
      </g>
     </g>
    </g>
    <g id="xtick_25">
     <g id="line2d_25">
      <g>
       <use xlink:href="#m5d7fa95484" x="181.894723" y="150.797179" style="stroke: #000000; stroke-width: 0.6"/>
      </g>
     </g>
    </g>
    <g id="xtick_26">
     <g id="line2d_26">
      <g>
       <use xlink:href="#m5d7fa95484" x="186.150325" y="150.797179" style="stroke: #000000; stroke-width: 0.6"/>
      </g>
     </g>
    </g>
    <g id="xtick_27">
     <g id="line2d_27">
      <g>
       <use xlink:href="#m5d7fa95484" x="189.748385" y="150.797179" style="stroke: #000000; stroke-width: 0.6"/>
      </g>
     </g>
    </g>
    <g id="xtick_28">
     <g id="line2d_28">
      <g>
       <use xlink:href="#m5d7fa95484" x="192.865167" y="150.797179" style="stroke: #000000; stroke-width: 0.6"/>
      </g>
     </g>
    </g>
    <g id="xtick_29">
     <g id="line2d_29">
      <g>
       <use xlink:href="#m5d7fa95484" x="195.614363" y="150.797179" style="stroke: #000000; stroke-width: 0.6"/>
      </g>
     </g>
    </g>
    <g id="xtick_30">
     <g id="line2d_30">
      <g>
       <use xlink:href="#m5d7fa95484" x="214.252482" y="150.797179" style="stroke: #000000; stroke-width: 0.6"/>
      </g>
     </g>
    </g>
    <g id="xtick_31">
     <g id="line2d_31">
      <g>
       <use xlink:href="#m5d7fa95484" x="223.716519" y="150.797179" style="stroke: #000000; stroke-width: 0.6"/>
      </g>
     </g>
    </g>
    <g id="text_5">
     <!-- $t$ [hr] -->
     <g transform="translate(119.425632 176.40574) scale(0.12 -0.12)">
      <defs>
       <path id="NewTXBMI-74" d="M 1440 837 
L 1299 926 
C 1082 588 915 415 813 415 
C 762 415 710 460 710 511 
C 710 632 826 1073 1056 1864 
L 1267 2624 
L 1798 2624 
L 1798 2893 
L 1338 2893 
L 1587 3808 
L 1363 3808 
C 1018 3303 698 3037 192 2848 
L 192 2624 
L 518 2624 
L 83 1105 
C -13 773 -70 499 -70 383 
C -70 135 109 -32 378 -32 
C 762 -32 1018 180 1440 837 
z
" transform="scale(0.015625)"/>
       <path id="TeXGyreTermesX-Regular-5b" d="M 1914 -1024 
L 1914 -864 
L 1363 -864 
C 1152 -864 1050 -756 1050 -531 
L 1050 3781 
C 1050 3981 1133 4064 1338 4064 
L 1914 4064 
L 1914 4224 
L 563 4224 
L 563 -1024 
L 1914 -1024 
z
" transform="scale(0.015625)"/>
       <path id="TeXGyreTermesX-Regular-68" d="M 3117 32 
L 3117 128 
C 2771 192 2733 243 2733 684 
L 2733 1954 
C 2733 2625 2464 2970 1946 2970 
C 1568 2970 1299 2816 1005 2432 
L 1005 4390 
L 973 4409 
C 755 4332 595 4281 237 4179 
L 64 4128 
L 64 4026 
C 90 4032 109 4032 141 4032 
C 416 4032 467 3980 467 3705 
L 467 686 
C 467 237 429 179 58 128 
L 58 32 
L 1440 32 
L 1440 128 
C 1069 166 1005 243 1005 684 
L 1005 2222 
C 1274 2516 1466 2624 1715 2624 
C 2035 2624 2195 2395 2195 1948 
L 2195 684 
C 2195 250 2131 166 1760 128 
L 1760 32 
L 3117 32 
z
" transform="scale(0.015625)"/>
       <path id="TeXGyreTermesX-Regular-72" d="M 2144 2605 
C 2144 2816 2010 2944 1792 2944 
C 1523 2944 1338 2797 1024 2343 
L 1024 2931 
L 992 2944 
C 653 2803 422 2721 45 2599 
L 45 2496 
C 134 2515 192 2522 269 2522 
C 429 2522 486 2419 486 2138 
L 486 538 
C 486 218 442 173 32 96 
L 32 0 
L 1568 0 
L 1568 102 
C 1133 102 1024 199 1024 565 
L 1024 2013 
C 1024 2219 1299 2541 1472 2541 
C 1510 2541 1568 2509 1638 2445 
C 1741 2355 1811 2317 1894 2317 
C 2048 2317 2144 2426 2144 2605 
z
" transform="scale(0.015625)"/>
       <path id="TeXGyreTermesX-Regular-5d" d="M 1568 -1024 
L 1568 4224 
L 218 4224 
L 218 4064 
L 768 4064 
C 979 4064 1082 3955 1082 3730 
L 1082 -582 
C 1082 -781 992 -864 794 -864 
L 218 -864 
L 218 -1024 
L 1568 -1024 
z
" transform="scale(0.015625)"/>
      </defs>
      <use xlink:href="#NewTXBMI-74" transform="scale(0.996264)"/>
      <use xlink:href="#TeXGyreTermesX-Regular-5b" transform="translate(56.886681 0) scale(0.996264)"/>
      <use xlink:href="#TeXGyreTermesX-Regular-68" transform="translate(90.062291 0) scale(0.996264)"/>
      <use xlink:href="#TeXGyreTermesX-Regular-72" transform="translate(139.875491 0) scale(0.996264)"/>
      <use xlink:href="#TeXGyreTermesX-Regular-5d" transform="translate(173.051101 0) scale(0.996264)"/>
     </g>
    </g>
   </g>
   <g id="matplotlib.axis_2">
    <g id="ytick_1">
     <g id="line2d_32">
      <defs>
       <path id="m18c699e0ed" d="M 0 0 
L 3.5 0 
" style="stroke: #000000; stroke-width: 0.8"/>
      </defs>
      <g>
       <use xlink:href="#m18c699e0ed" x="33.297816" y="129.934959" style="stroke: #000000; stroke-width: 0.8"/>
      </g>
     </g>
     <g id="text_6">
      <!-- $\mathdefault{0.0}$ -->
      <g transform="translate(15.801474 133.696594) scale(0.11 -0.11)">
       <defs>
        <path id="NewTXBMI-93" d="M 1344 473 
C 1344 768 1101 1017 800 1017 
C 493 1017 262 761 262 473 
C 262 173 493 -64 800 -64 
C 1101 -64 1344 166 1344 473 
z
" transform="scale(0.015625)"/>
       </defs>
       <use xlink:href="#TeXGyreTermesX-Bold-30" transform="scale(0.996264)"/>
       <use xlink:href="#NewTXBMI-93" transform="translate(51.407199 0) scale(0.996264)"/>
       <use xlink:href="#TeXGyreTermesX-Bold-30" transform="translate(78.00746 0) scale(0.996264)"/>
      </g>
     </g>
    </g>
    <g id="ytick_2">
     <g id="line2d_33">
      <g>
       <use xlink:href="#m18c699e0ed" x="33.297816" y="88.210517" style="stroke: #000000; stroke-width: 0.8"/>
      </g>
     </g>
     <g id="text_7">
      <!-- $\mathdefault{0.5}$ -->
      <g transform="translate(15.801474 91.972153) scale(0.11 -0.11)">
       <defs>
        <path id="TeXGyreTermesX-Bold-35" d="M 3008 4288 
L 947 4288 
L 326 2093 
C 934 2049 1197 2010 1478 1921 
C 2048 1743 2387 1381 2387 960 
C 2387 604 2106 324 1747 324 
C 1600 324 1427 400 1171 591 
C 896 795 704 877 538 877 
C 307 877 141 718 141 496 
C 141 159 512 -64 1082 -64 
C 2138 -64 2886 575 2886 1476 
C 2886 2140 2477 2652 1779 2850 
C 1536 2920 1338 2946 813 2946 
L 954 3481 
L 2733 3481 
L 3008 4288 
z
" transform="scale(0.015625)"/>
       </defs>
       <use xlink:href="#TeXGyreTermesX-Bold-30" transform="scale(0.996264)"/>
       <use xlink:href="#NewTXBMI-93" transform="translate(51.407199 0) scale(0.996264)"/>
       <use xlink:href="#TeXGyreTermesX-Bold-35" transform="translate(78.00746 0) scale(0.996264)"/>
      </g>
     </g>
    </g>
    <g id="ytick_3">
     <g id="line2d_34">
      <g>
       <use xlink:href="#m18c699e0ed" x="33.297816" y="46.486076" style="stroke: #000000; stroke-width: 0.8"/>
      </g>
     </g>
     <g id="text_8">
      <!-- $\mathdefault{1.0}$ -->
      <g transform="translate(15.801474 50.247712) scale(0.11 -0.11)">
       <use xlink:href="#TeXGyreTermesX-Bold-31" transform="scale(0.996264)"/>
       <use xlink:href="#NewTXBMI-93" transform="translate(51.407199 0) scale(0.996264)"/>
       <use xlink:href="#TeXGyreTermesX-Bold-30" transform="translate(78.00746 0) scale(0.996264)"/>
      </g>
     </g>
    </g>
    <g id="ytick_4">
     <g id="line2d_35">
      <g>
       <use xlink:href="#m18c699e0ed" x="33.297816" y="4.761635" style="stroke: #000000; stroke-width: 0.8"/>
      </g>
     </g>
     <g id="text_9">
      <!-- $\mathdefault{1.5}$ -->
      <g transform="translate(15.801474 8.523271) scale(0.11 -0.11)">
       <use xlink:href="#TeXGyreTermesX-Bold-31" transform="scale(0.996264)"/>
       <use xlink:href="#NewTXBMI-93" transform="translate(51.407199 0) scale(0.996264)"/>
       <use xlink:href="#TeXGyreTermesX-Bold-35" transform="translate(78.00746 0) scale(0.996264)"/>
      </g>
     </g>
    </g>
    <g id="ytick_5">
     <g id="line2d_36">
      <defs>
       <path id="mbeced13a74" d="M 0 0 
L 2 0 
" style="stroke: #000000; stroke-width: 0.6"/>
      </defs>
      <g>
       <use xlink:href="#mbeced13a74" x="33.297816" y="146.624735" style="stroke: #000000; stroke-width: 0.6"/>
      </g>
     </g>
    </g>
    <g id="ytick_6">
     <g id="line2d_37">
      <g>
       <use xlink:href="#mbeced13a74" x="33.297816" y="138.279847" style="stroke: #000000; stroke-width: 0.6"/>
      </g>
     </g>
    </g>
    <g id="ytick_7">
     <g id="line2d_38">
      <g>
       <use xlink:href="#mbeced13a74" x="33.297816" y="121.59007" style="stroke: #000000; stroke-width: 0.6"/>
      </g>
     </g>
    </g>
    <g id="ytick_8">
     <g id="line2d_39">
      <g>
       <use xlink:href="#mbeced13a74" x="33.297816" y="113.245182" style="stroke: #000000; stroke-width: 0.6"/>
      </g>
     </g>
    </g>
    <g id="ytick_9">
     <g id="line2d_40">
      <g>
       <use xlink:href="#mbeced13a74" x="33.297816" y="104.900294" style="stroke: #000000; stroke-width: 0.6"/>
      </g>
     </g>
    </g>
    <g id="ytick_10">
     <g id="line2d_41">
      <g>
       <use xlink:href="#mbeced13a74" x="33.297816" y="96.555406" style="stroke: #000000; stroke-width: 0.6"/>
      </g>
     </g>
    </g>
    <g id="ytick_11">
     <g id="line2d_42">
      <g>
       <use xlink:href="#mbeced13a74" x="33.297816" y="79.865629" style="stroke: #000000; stroke-width: 0.6"/>
      </g>
     </g>
    </g>
    <g id="ytick_12">
     <g id="line2d_43">
      <g>
       <use xlink:href="#mbeced13a74" x="33.297816" y="71.520741" style="stroke: #000000; stroke-width: 0.6"/>
      </g>
     </g>
    </g>
    <g id="ytick_13">
     <g id="line2d_44">
      <g>
       <use xlink:href="#mbeced13a74" x="33.297816" y="63.175853" style="stroke: #000000; stroke-width: 0.6"/>
      </g>
     </g>
    </g>
    <g id="ytick_14">
     <g id="line2d_45">
      <g>
       <use xlink:href="#mbeced13a74" x="33.297816" y="54.830965" style="stroke: #000000; stroke-width: 0.6"/>
      </g>
     </g>
    </g>
    <g id="ytick_15">
     <g id="line2d_46">
      <g>
       <use xlink:href="#mbeced13a74" x="33.297816" y="38.141188" style="stroke: #000000; stroke-width: 0.6"/>
      </g>
     </g>
    </g>
    <g id="ytick_16">
     <g id="line2d_47">
      <g>
       <use xlink:href="#mbeced13a74" x="33.297816" y="29.7963" style="stroke: #000000; stroke-width: 0.6"/>
      </g>
     </g>
    </g>
    <g id="ytick_17">
     <g id="line2d_48">
      <g>
       <use xlink:href="#mbeced13a74" x="33.297816" y="21.451412" style="stroke: #000000; stroke-width: 0.6"/>
      </g>
     </g>
    </g>
    <g id="ytick_18">
     <g id="line2d_49">
      <g>
       <use xlink:href="#mbeced13a74" x="33.297816" y="13.106524" style="stroke: #000000; stroke-width: 0.6"/>
      </g>
     </g>
    </g>
    <g id="text_10">
     <!-- $X$ -->
     <g transform="translate(9.207214 81.766455) rotate(-90) scale(0.12 -0.12)">
      <defs>
       <path id="NewTXBMI-5e" d="M 3750 0 
L 3750 160 
C 3290 211 3194 301 3008 903 
L 2534 2423 
L 3808 3737 
C 4090 4019 4211 4096 4442 4128 
L 4442 4288 
L 3142 4288 
L 3142 4128 
L 3283 4115 
C 3430 4102 3494 4057 3494 3961 
C 3494 3846 3379 3685 3046 3333 
L 2445 2698 
C 2381 2910 2362 2986 2336 3050 
C 2189 3506 2118 3782 2118 3878 
C 2118 4025 2189 4083 2400 4108 
L 2592 4128 
L 2592 4288 
L 640 4288 
L 640 4128 
C 1024 4089 1120 4019 1222 3723 
L 1760 1981 
L 1325 1506 
C 314 390 122 211 -154 160 
L -154 0 
L 1216 0 
L 1216 160 
C 928 186 800 269 800 416 
C 800 499 845 583 992 743 
L 1850 1692 
L 1971 1308 
C 2144 814 2214 545 2214 403 
C 2214 237 2125 192 1779 160 
L 1779 0 
L 3750 0 
z
" transform="scale(0.015625)"/>
      </defs>
      <use xlink:href="#NewTXBMI-5e" transform="scale(0.996264)"/>
     </g>
    </g>
   </g>
   <g id="line2d_50">
    <path d="M -1 129.853081 
L 114.090424 129.852905 
L 130.269303 129.6144 
L 139.733341 129.224664 
L 146.448182 128.687837 
L 151.656618 128.008178 
L 155.91222 127.190333 
L 159.51028 126.239414 
L 162.627061 125.161018 
L 165.376257 123.961223 
L 167.835497 122.646556 
L 170.06015 121.223956 
L 172.091099 119.700731 
L 173.959391 118.084508 
L 175.689159 116.383179 
L 177.299535 114.604843 
L 178.80594 112.757756 
L 180.220991 110.850267 
L 181.555136 108.890766 
L 182.81713 106.887626 
L 184.014376 104.84915 
L 185.153197 102.783519 
L 186.239029 100.698742 
L 187.276586 98.602613 
L 188.269978 96.502665 
L 189.222812 94.406134 
L 190.13827 92.319921 
L 191.019174 90.250565 
L 191.868038 88.204216 
L 192.687111 86.186612 
L 193.478414 84.203062 
L 194.243767 82.258433 
L 194.98482 80.357142 
L 195.703067 78.50315 
L 196.39987 76.699964 
L 197.076474 74.950636 
L 197.734016 73.257772 
L 198.37354 71.623543 
L 198.996009 70.049695 
L 199.602308 68.537566 
L 200.193255 67.088103 
L 200.76961 65.701882 
L 201.332076 64.379131 
L 201.881306 63.11975 
L 202.417908 61.923335 
L 202.942451 60.789205 
L 203.455465 59.716424 
L 203.957446 58.703831 
L 204.448857 57.750057 
L 204.930136 56.853557 
L 205.401691 56.012632 
L 205.863908 55.225452 
L 206.317149 54.490078 
L 206.761757 53.804484 
L 207.198053 53.16658 
L 207.626344 52.574226 
L 208.046917 52.025256 
L 208.460046 51.51749 
L 208.86599 51.048749 
L 209.264995 50.616874 
L 209.657293 50.21973 
L 210.043106 49.855225 
L 210.422646 49.521313 
L 210.796113 49.216008 
L 211.163699 48.937385 
L 211.525585 48.683591 
L 211.881946 48.452845 
L 212.232948 48.243445 
L 212.578749 48.05377 
L 212.919503 47.882278 
L 213.255353 47.727512 
L 213.586439 47.588097 
L 213.912895 47.462741 
L 214.234847 47.35023 
L 214.552419 47.249432 
L 214.865729 47.159291 
L 215.174888 47.078826 
L 215.480006 47.007128 
L 215.781187 46.943356 
L 216.078531 46.886735 
L 216.372134 46.836553 
L 216.662091 46.792158 
L 216.948489 46.752951 
L 217.231416 46.718388 
L 217.510955 46.687972 
L 217.787185 46.661254 
L 218.060185 46.637824 
L 218.330028 46.617315 
L 218.596787 46.599393 
L 218.860532 46.58376 
L 219.121331 46.570147 
L 219.379247 46.558314 
L 219.634344 46.548045 
L 219.886684 46.539151 
L 220.136325 46.531459 
L 220.383324 46.524819 
L 220.627736 46.519097 
L 220.869616 46.514175 
L 221.109015 46.509947 
L 221.345983 46.506323 
" clip-path="url(#p52a3b5c1c8)" style="fill: none; stroke: #b22222; stroke-width: 1.5; stroke-linecap: square"/>
   </g>
   <g id="line2d_51">
    <path d="M -1 129.934959 
L 114.090424 129.934959 
L 130.269303 129.924792 
L 139.733341 129.883543 
L 146.448182 129.792948 
L 151.656618 129.573572 
L 155.91222 129.373162 
L 159.51028 129.045518 
L 162.627061 128.328619 
L 165.376257 127.709871 
L 167.835497 127.002353 
L 170.06015 126.100398 
L 172.091099 125.215783 
L 173.959391 123.961783 
L 175.689159 122.737497 
L 177.299535 121.384147 
L 178.80594 119.551603 
L 180.220991 117.907556 
L 181.555136 116.303112 
L 182.81713 114.2384 
L 184.014376 112.485399 
L 185.153197 110.207757 
L 186.239029 108.07228 
L 187.276586 106.36393 
L 188.269978 104.40082 
L 189.222812 101.973661 
L 190.13827 100.081987 
L 191.019174 98.080154 
L 191.868038 95.92697 
L 192.687111 94.033804 
L 193.478414 91.79938 
L 194.243767 89.98795 
L 194.98482 88.004377 
L 195.703067 86.406787 
L 196.39987 84.695274 
L 197.076474 82.918016 
L 197.734016 81.46078 
L 198.37354 79.930677 
L 198.996009 78.195338 
L 199.602308 76.74242 
L 200.193255 75.07705 
L 200.76961 73.645943 
L 201.332076 72.20347 
L 201.881306 71.033321 
L 202.417908 69.84809 
L 202.942451 68.325905 
L 203.455465 67.116994 
L 203.957446 66.161435 
L 204.448857 65.149154 
L 204.930136 63.920008 
L 205.401691 62.910378 
L 205.863908 61.879504 
L 206.317149 60.925661 
L 206.761757 60.0917 
L 207.198053 59.270328 
L 207.626344 58.50463 
L 208.046917 57.619925 
L 208.460046 56.843826 
L 208.86599 56.220666 
L 209.264995 55.483767 
L 209.657293 54.929416 
L 210.043106 54.407187 
L 210.422646 53.901785 
L 210.796113 53.415537 
L 211.163699 52.970937 
L 211.525585 52.545505 
L 211.881946 52.13902 
L 212.232948 51.757225 
L 212.578749 51.396366 
L 212.919503 51.060187 
L 213.255353 50.746406 
L 213.586439 50.464881 
L 213.912895 50.190389 
L 214.234847 49.927875 
L 214.552419 49.686668 
L 214.865729 49.462468 
L 215.174888 49.246166 
L 215.480006 49.052993 
L 215.781187 48.865844 
L 216.078531 48.689378 
L 216.372134 48.523925 
L 216.662091 48.376129 
L 216.948489 48.226633 
L 217.231416 48.098827 
L 217.510955 47.974205 
L 217.787185 47.858243 
L 218.060185 47.745269 
L 218.330028 47.644184 
L 218.596787 47.556016 
L 218.860532 47.470519 
L 219.121331 47.393492 
L 219.379247 47.320445 
L 219.634344 47.25458 
L 219.886684 47.191685 
L 220.136325 47.133306 
L 220.383324 47.080656 
L 220.627736 47.031509 
L 220.869616 46.986032 
L 221.109015 46.94537 
L 221.345983 46.906544 
" clip-path="url(#p52a3b5c1c8)" style="fill: none; stroke: #000000; stroke-width: 0.75; stroke-linecap: square"/>
   </g>
   <g id="line2d_52">
    <path d="M -1 129.671161 
L 114.090424 129.670594 
L 130.269303 129.113278 
L 139.733341 128.343193 
L 146.448182 127.396344 
L 151.656618 126.221479 
L 155.91222 125.031692 
L 159.51028 123.663421 
L 162.627061 121.943009 
L 165.376257 120.316715 
L 167.835497 118.663372 
L 170.06015 116.8465 
L 172.091099 115.091341 
L 173.959391 113.071787 
L 175.689159 111.163683 
L 177.299535 109.241295 
L 178.80594 106.894828 
L 180.220991 104.890937 
L 181.555136 102.949051 
L 182.81713 100.654074 
L 184.014376 98.715814 
L 185.153197 96.247302 
L 186.239029 93.981005 
L 187.276586 92.235754 
L 188.269978 90.21046 
L 189.222812 87.787245 
L 190.13827 85.750367 
L 191.019174 83.71317 
L 191.868038 81.522447 
L 192.687111 79.565569 
L 193.478414 77.259615 
L 194.243767 75.29187 
L 194.98482 73.169643 
L 195.703067 71.316064 
L 196.39987 69.368045 
L 197.076474 67.404259 
L 197.734016 65.797711 
L 198.37354 64.136444 
L 198.996009 62.248232 
L 199.602308 60.757169 
L 200.193255 59.11543 
L 200.76961 57.679015 
L 201.332076 56.298468 
L 201.881306 55.25971 
L 202.417908 54.235795 
L 202.942451 52.9063 
L 203.455465 51.96623 
L 203.957446 51.291381 
L 204.448857 50.625291 
L 204.930136 49.792111 
L 205.401691 49.211632 
L 205.863908 48.631536 
L 206.317149 48.165717 
L 206.761757 47.847285 
L 207.198053 47.538184 
L 207.626344 47.324021 
L 208.046917 46.97788 
L 208.460046 46.768253 
L 208.86599 46.703706 
L 209.264995 46.511458 
L 209.657293 46.50253 
L 210.043106 46.490971 
L 210.422646 46.488752 
L 210.796113 46.486226 
L 211.163699 46.486156 
L 211.525585 46.486116 
L 211.881946 46.486096 
L 212.232948 46.486086 
L 212.578749 46.486081 
L 212.919503 46.486076 
L 213.255353 46.486076 
L 213.586439 46.486076 
L 213.912895 46.486076 
L 214.234847 46.486076 
L 214.552419 46.486076 
L 214.865729 46.486076 
L 215.174888 46.486076 
L 215.480006 46.486076 
L 215.781187 46.486076 
L 216.078531 46.486076 
L 216.372134 46.486076 
L 216.662091 46.486076 
L 216.948489 46.486076 
L 217.231416 46.486076 
L 217.510955 46.486076 
L 217.787185 46.486076 
L 218.060185 46.486076 
L 218.330028 46.486076 
L 218.596787 46.486076 
L 218.860532 46.486076 
L 219.121331 46.486076 
L 219.379247 46.486076 
L 219.634344 46.486076 
L 219.886684 46.486076 
L 220.136325 46.486076 
L 220.383324 46.486076 
L 220.627736 46.486076 
L 220.869616 46.486076 
L 221.109015 46.486076 
L 221.345983 46.486076 
" clip-path="url(#p52a3b5c1c8)" style="fill: none; stroke: #000000; stroke-width: 0.75; stroke-linecap: square"/>
   </g>
   <g id="LineCollection_1">
    <path d="M 167.511309 136.994078 
L 167.511309 122.875839 
" clip-path="url(#p52a3b5c1c8)" style="fill: none; stroke: #000000; stroke-width: 0.5"/>
    <path d="M 174.113662 118.463889 
L 174.113662 86.445738 
" clip-path="url(#p52a3b5c1c8)" style="fill: none; stroke: #000000; stroke-width: 0.5"/>
    <path d="M 181.577483 123.254006 
L 181.577483 100.311866 
" clip-path="url(#p52a3b5c1c8)" style="fill: none; stroke: #000000; stroke-width: 0.5"/>
    <path d="M 185.210617 122.875839 
L 185.210617 92.370356 
" clip-path="url(#p52a3b5c1c8)" style="fill: none; stroke: #000000; stroke-width: 0.5"/>
    <path d="M 188.445382 118.211777 
L 188.445382 95.521749 
" clip-path="url(#p52a3b5c1c8)" style="fill: none; stroke: #000000; stroke-width: 0.5"/>
    <path d="M 191.123276 84.554902 
L 191.123276 52.536751 
" clip-path="url(#p52a3b5c1c8)" style="fill: none; stroke: #000000; stroke-width: 0.5"/>
    <path d="M 198.06148 80.899286 
L 198.06148 64.259932 
" clip-path="url(#p52a3b5c1c8)" style="fill: none; stroke: #000000; stroke-width: 0.5"/>
    <path d="M 203.306264 61.360651 
L 203.306264 39.426957 
" clip-path="url(#p52a3b5c1c8)" style="fill: none; stroke: #000000; stroke-width: 0.5"/>
    <path d="M 207.545718 64.638099 
L 207.545718 46.233965 
" clip-path="url(#p52a3b5c1c8)" style="fill: none; stroke: #000000; stroke-width: 0.5"/>
    <path d="M 211.881946 65.394433 
L 211.881946 44.469185 
" clip-path="url(#p52a3b5c1c8)" style="fill: none; stroke: #000000; stroke-width: 0.5"/>
   </g>
   <g id="line2d_53">
    <defs>
     <path id="m4032c2f549" d="M 2 0 
L -2 -0 
" style="stroke: #000000"/>
    </defs>
    <g clip-path="url(#p52a3b5c1c8)">
     <use xlink:href="#m4032c2f549" x="167.511309" y="136.994078" style="stroke: #000000"/>
     <use xlink:href="#m4032c2f549" x="174.113662" y="118.463889" style="stroke: #000000"/>
     <use xlink:href="#m4032c2f549" x="181.577483" y="123.254006" style="stroke: #000000"/>
     <use xlink:href="#m4032c2f549" x="185.210617" y="122.875839" style="stroke: #000000"/>
     <use xlink:href="#m4032c2f549" x="188.445382" y="118.211777" style="stroke: #000000"/>
     <use xlink:href="#m4032c2f549" x="191.123276" y="84.554902" style="stroke: #000000"/>
     <use xlink:href="#m4032c2f549" x="198.06148" y="80.899286" style="stroke: #000000"/>
     <use xlink:href="#m4032c2f549" x="203.306264" y="61.360651" style="stroke: #000000"/>
     <use xlink:href="#m4032c2f549" x="207.545718" y="64.638099" style="stroke: #000000"/>
     <use xlink:href="#m4032c2f549" x="211.881946" y="65.394433" style="stroke: #000000"/>
    </g>
   </g>
   <g id="line2d_54">
    <g clip-path="url(#p52a3b5c1c8)">
     <use xlink:href="#m4032c2f549" x="167.511309" y="122.875839" style="stroke: #000000"/>
     <use xlink:href="#m4032c2f549" x="174.113662" y="86.445738" style="stroke: #000000"/>
     <use xlink:href="#m4032c2f549" x="181.577483" y="100.311866" style="stroke: #000000"/>
     <use xlink:href="#m4032c2f549" x="185.210617" y="92.370356" style="stroke: #000000"/>
     <use xlink:href="#m4032c2f549" x="188.445382" y="95.521749" style="stroke: #000000"/>
     <use xlink:href="#m4032c2f549" x="191.123276" y="52.536751" style="stroke: #000000"/>
     <use xlink:href="#m4032c2f549" x="198.06148" y="64.259932" style="stroke: #000000"/>
     <use xlink:href="#m4032c2f549" x="203.306264" y="39.426957" style="stroke: #000000"/>
     <use xlink:href="#m4032c2f549" x="207.545718" y="46.233965" style="stroke: #000000"/>
     <use xlink:href="#m4032c2f549" x="211.881946" y="44.469185" style="stroke: #000000"/>
    </g>
   </g>
   <g id="line2d_55">
    <path d="M -1 129.425244 
L 42.252491 129.424832 
L 58.43137 127.956888 
L 67.895408 125.605112 
L 74.610249 122.459264 
L 79.818685 118.627661 
L 84.074287 114.233347 
L 87.672347 109.408712 
L 90.789128 104.289645 
L 93.538324 99.009789 
L 95.997564 93.695326 
L 98.222217 88.460585 
L 100.253166 83.40469 
L 102.121458 78.609323 
L 103.851226 74.137645 
L 105.461602 70.034263 
L 106.968008 66.32613 
L 108.383058 63.02417 
L 109.717204 60.125447 
L 110.979197 57.615634 
L 112.176443 55.471617 
L 113.315264 53.664033 
L 114.401096 52.159626 
L 115.438653 50.92332 
L 116.432045 49.919936 
L 117.384879 49.11555 
L 118.300337 48.478485 
L 119.181241 47.979959 
L 120.030105 47.594458 
L 120.849178 47.299846 
L 121.640481 47.077309 
L 122.405834 46.911151 
L 123.146887 46.788508 
L 123.865134 46.699011 
L 124.561937 46.634441 
L 125.238541 46.588378 
L 125.896083 46.555885 
L 126.535607 46.533218 
L 127.158076 46.517582 
L 127.764375 46.506914 
L 128.355322 46.499716 
L 128.931677 46.494912 
L 129.494143 46.491741 
L 130.043373 46.489671 
L 130.579975 46.488334 
L 131.104518 46.487479 
L 131.617532 46.486939 
L 132.119513 46.486602 
L 132.610924 46.486393 
L 133.092203 46.486265 
L 133.563758 46.486188 
L 134.025975 46.486142 
L 134.479216 46.486114 
L 134.923824 46.486098 
L 135.36012 46.486089 
L 135.788411 46.486083 
L 136.208984 46.48608 
L 136.622114 46.486079 
L 137.028058 46.486078 
L 137.427062 46.486077 
L 137.81936 46.486077 
L 138.205174 46.486077 
L 138.584713 46.486077 
L 138.95818 46.486077 
L 139.325766 46.486076 
L 139.687652 46.486076 
L 140.044013 46.486076 
L 140.395015 46.486076 
L 140.740817 46.486076 
L 141.08157 46.486076 
L 141.41742 46.486076 
L 141.748506 46.486076 
L 142.074962 46.486076 
L 142.396914 46.486076 
L 142.714487 46.486076 
L 143.027796 46.486076 
L 143.336955 46.486076 
L 143.642073 46.486076 
L 143.943254 46.486076 
L 144.240598 46.486076 
L 144.534202 46.486076 
L 144.824158 46.486076 
L 145.110557 46.486076 
L 145.393483 46.486076 
L 145.673022 46.486076 
L 145.949252 46.486076 
L 146.222252 46.486076 
L 146.492095 46.486076 
L 146.758854 46.486076 
L 147.0226 46.486076 
L 147.283398 46.486076 
L 147.541314 46.486076 
L 147.796411 46.486076 
L 148.048751 46.486076 
L 148.298392 46.486076 
L 148.545391 46.486076 
L 148.789803 46.486076 
L 149.031683 46.486076 
L 149.271082 46.486076 
L 149.508051 46.486076 
" clip-path="url(#p52a3b5c1c8)" style="fill: none; stroke: #b22222; stroke-width: 1.5; stroke-linecap: square"/>
   </g>
   <g id="line2d_56">
    <path d="M -1 129.9116 
L 42.252491 129.911581 
L 58.43137 129.512651 
L 67.895408 128.605384 
L 74.610249 126.709378 
L 79.818685 124.582565 
L 84.074287 120.949733 
L 87.672347 116.94009 
L 90.789128 112.698736 
L 93.538324 107.947523 
L 95.997564 102.886479 
L 98.222217 98.080204 
L 100.253166 93.502403 
L 102.121458 89.191458 
L 103.851226 84.912357 
L 105.461602 80.921545 
L 106.968008 77.068104 
L 108.383058 73.656478 
L 109.717204 70.393483 
L 110.979197 67.096715 
L 112.176443 63.750571 
L 113.315264 61.275105 
L 114.401096 59.2051 
L 115.438653 57.415924 
L 116.432045 55.828436 
L 117.384879 54.46489 
L 118.300337 53.240216 
L 119.181241 52.194514 
L 120.030105 51.309208 
L 120.849178 50.511726 
L 121.640481 49.842621 
L 122.405834 49.280795 
L 123.146887 48.781849 
L 123.865134 48.383819 
L 124.561937 48.044591 
L 125.238541 47.756784 
L 125.896083 47.523427 
L 126.535607 47.329582 
L 127.158076 47.172764 
L 127.764375 47.039159 
L 128.355322 46.930737 
L 128.931677 46.843574 
L 129.494143 46.772138 
L 130.043373 46.715529 
L 130.579975 46.667874 
L 131.104518 46.629883 
L 131.617532 46.59995 
L 132.119513 46.576423 
L 132.610924 46.556831 
L 133.092203 46.541446 
L 133.563758 46.529131 
L 134.025975 46.519566 
L 134.479216 46.511841 
L 134.923824 46.506027 
L 135.36012 46.501376 
L 135.788411 46.49789 
L 136.208984 46.495084 
L 136.622114 46.492921 
L 137.028058 46.491359 
L 137.427062 46.49008 
L 137.81936 46.489101 
L 138.205174 46.48835 
L 138.584713 46.487778 
L 138.95818 46.48735 
L 139.325766 46.487026 
L 139.687652 46.486778 
L 140.044013 46.486604 
L 140.395015 46.486469 
L 140.740817 46.486365 
L 141.08157 46.48629 
L 141.41742 46.486231 
L 141.748506 46.486191 
L 142.074962 46.486161 
L 142.396914 46.486136 
L 142.714487 46.486121 
L 143.027796 46.486106 
L 143.336955 46.486101 
L 143.642073 46.486091 
L 143.943254 46.486086 
L 144.240598 46.486086 
L 144.534202 46.486081 
L 144.824158 46.486081 
L 145.110557 46.486081 
L 145.393483 46.486076 
L 145.673022 46.486076 
L 145.949252 46.486076 
L 146.222252 46.486076 
L 146.492095 46.486076 
L 146.758854 46.486076 
L 147.0226 46.486076 
L 147.283398 46.486076 
L 147.541314 46.486076 
L 147.796411 46.486076 
L 148.048751 46.486076 
L 148.298392 46.486076 
L 148.545391 46.486076 
L 148.789803 46.486076 
L 149.031683 46.486076 
L 149.271082 46.486076 
L 149.508051 46.486076 
" clip-path="url(#p52a3b5c1c8)" style="fill: none; stroke: #000000; stroke-width: 0.75; stroke-linecap: square"/>
   </g>
   <g id="line2d_57">
    <path d="M -1 128.744875 
L 42.252491 128.743914 
L 58.43137 126.109789 
L 67.895408 122.680068 
L 74.610249 118.24368 
L 79.818685 113.759419 
L 84.074287 108.15242 
L 87.672347 102.509076 
L 90.789128 96.985166 
L 93.538324 91.176309 
L 95.997564 85.236429 
L 98.222217 79.50428 
L 100.253166 73.880225 
L 102.121458 68.818365 
L 103.851226 64.040666 
L 105.461602 59.941303 
L 106.968008 56.334604 
L 108.383058 53.432001 
L 109.717204 51.138005 
L 110.979197 49.14802 
L 112.176443 47.520114 
L 113.315264 46.859928 
L 114.401096 46.627451 
L 115.438653 46.534189 
L 116.432045 46.486116 
L 117.384879 46.486081 
L 118.300337 46.486076 
L 119.181241 46.486076 
L 120.030105 46.486076 
L 120.849178 46.486076 
L 121.640481 46.486076 
L 122.405834 46.486076 
L 123.146887 46.486076 
L 123.865134 46.486076 
L 124.561937 46.486076 
L 125.238541 46.486076 
L 125.896083 46.486076 
L 126.535607 46.486076 
L 127.158076 46.486076 
L 127.764375 46.486076 
L 128.355322 46.486076 
L 128.931677 46.486076 
L 129.494143 46.486076 
L 130.043373 46.486076 
L 130.579975 46.486076 
L 131.104518 46.486076 
L 131.617532 46.486076 
L 132.119513 46.486076 
L 132.610924 46.486076 
L 133.092203 46.486076 
L 133.563758 46.486076 
L 134.025975 46.486076 
L 134.479216 46.486076 
L 134.923824 46.486076 
L 135.36012 46.486076 
L 135.788411 46.486076 
L 136.208984 46.486076 
L 136.622114 46.486076 
L 137.028058 46.486076 
L 137.427062 46.486076 
L 137.81936 46.486076 
L 138.205174 46.486076 
L 138.584713 46.486076 
L 138.95818 46.486076 
L 139.325766 46.486076 
L 139.687652 46.486076 
L 140.044013 46.486076 
L 140.395015 46.486076 
L 140.740817 46.486076 
L 141.08157 46.486076 
L 141.41742 46.486076 
L 141.748506 46.486076 
L 142.074962 46.486076 
L 142.396914 46.486076 
L 142.714487 46.486076 
L 143.027796 46.486076 
L 143.336955 46.486076 
L 143.642073 46.486076 
L 143.943254 46.486076 
L 144.240598 46.486076 
L 144.534202 46.486076 
L 144.824158 46.486076 
L 145.110557 46.486076 
L 145.393483 46.486076 
L 145.673022 46.486076 
L 145.949252 46.486076 
L 146.222252 46.486076 
L 146.492095 46.486076 
L 146.758854 46.486076 
L 147.0226 46.486076 
L 147.283398 46.486076 
L 147.541314 46.486076 
L 147.796411 46.486076 
L 148.048751 46.486076 
L 148.298392 46.486076 
L 148.545391 46.486076 
L 148.789803 46.486076 
L 149.031683 46.486076 
L 149.271082 46.486076 
L 149.508051 46.486076 
" clip-path="url(#p52a3b5c1c8)" style="fill: none; stroke: #000000; stroke-width: 0.75; stroke-linecap: square"/>
   </g>
   <g id="LineCollection_2">
    <path d="M 86.248253 130.060069 
L 86.248253 110.292568 
" clip-path="url(#p52a3b5c1c8)" style="fill: none; stroke: #000000; stroke-width: 0.5"/>
    <path d="M 67.945984 114.421223 
L 67.945984 94.4035 
" clip-path="url(#p52a3b5c1c8)" style="fill: none; stroke: #000000; stroke-width: 0.5"/>
    <path d="M 95.712291 99.032599 
L 95.712291 74.010445 
" clip-path="url(#p52a3b5c1c8)" style="fill: none; stroke: #000000; stroke-width: 0.5"/>
    <path d="M 102.172035 95.779719 
L 102.172035 64.752249 
" clip-path="url(#p52a3b5c1c8)" style="fill: none; stroke: #000000; stroke-width: 0.5"/>
    <path d="M 105.843265 70.257122 
L 105.843265 41.731867 
" clip-path="url(#p52a3b5c1c8)" style="fill: none; stroke: #000000; stroke-width: 0.5"/>
    <path d="M 114.451673 64.126695 
L 114.451673 29.09568 
" clip-path="url(#p52a3b5c1c8)" style="fill: none; stroke: #000000; stroke-width: 0.5"/>
    <path d="M 130.478492 57.120492 
L 130.478492 35.851661 
" clip-path="url(#p52a3b5c1c8)" style="fill: none; stroke: #000000; stroke-width: 0.5"/>
    <path d="M 140.044013 60.12315 
L 140.044013 42.357421 
" clip-path="url(#p52a3b5c1c8)" style="fill: none; stroke: #000000; stroke-width: 0.5"/>
   </g>
   <g id="line2d_58">
    <g clip-path="url(#p52a3b5c1c8)">
     <use xlink:href="#m4032c2f549" x="86.248253" y="130.060069" style="stroke: #000000"/>
     <use xlink:href="#m4032c2f549" x="67.945984" y="114.421223" style="stroke: #000000"/>
     <use xlink:href="#m4032c2f549" x="95.712291" y="99.032599" style="stroke: #000000"/>
     <use xlink:href="#m4032c2f549" x="102.172035" y="95.779719" style="stroke: #000000"/>
     <use xlink:href="#m4032c2f549" x="105.843265" y="70.257122" style="stroke: #000000"/>
     <use xlink:href="#m4032c2f549" x="114.451673" y="64.126695" style="stroke: #000000"/>
     <use xlink:href="#m4032c2f549" x="130.478492" y="57.120492" style="stroke: #000000"/>
     <use xlink:href="#m4032c2f549" x="140.044013" y="60.12315" style="stroke: #000000"/>
    </g>
   </g>
   <g id="line2d_59">
    <g clip-path="url(#p52a3b5c1c8)">
     <use xlink:href="#m4032c2f549" x="86.248253" y="110.292568" style="stroke: #000000"/>
     <use xlink:href="#m4032c2f549" x="67.945984" y="94.4035" style="stroke: #000000"/>
     <use xlink:href="#m4032c2f549" x="95.712291" y="74.010445" style="stroke: #000000"/>
     <use xlink:href="#m4032c2f549" x="102.172035" y="64.752249" style="stroke: #000000"/>
     <use xlink:href="#m4032c2f549" x="105.843265" y="41.731867" style="stroke: #000000"/>
     <use xlink:href="#m4032c2f549" x="114.451673" y="29.09568" style="stroke: #000000"/>
     <use xlink:href="#m4032c2f549" x="130.478492" y="35.851661" style="stroke: #000000"/>
     <use xlink:href="#m4032c2f549" x="140.044013" y="42.357421" style="stroke: #000000"/>
    </g>
   </g>
   <g id="patch_3">
    <path d="M 33.297816 150.797179 
L 33.297816 4.761635 
" style="fill: none; stroke: #000000; stroke-width: 0.8; stroke-linejoin: miter; stroke-linecap: square"/>
   </g>
   <g id="patch_4">
    <path d="M 230.300658 150.797179 
L 230.300658 4.761635 
" style="fill: none; stroke: #000000; stroke-width: 0.8; stroke-linejoin: miter; stroke-linecap: square"/>
   </g>
   <g id="patch_5">
    <path d="M 33.297816 150.797179 
L 230.300658 150.797179 
" style="fill: none; stroke: #000000; stroke-width: 0.8; stroke-linejoin: miter; stroke-linecap: square"/>
   </g>
   <g id="patch_6">
    <path d="M 33.297816 4.761635 
L 230.300658 4.761635 
" style="fill: none; stroke: #000000; stroke-width: 0.8; stroke-linejoin: miter; stroke-linecap: square"/>
   </g>
   <g id="legend_1">
    <g id="patch_7">
     <path d="M 40.297816 26.923527 
L 215.347158 26.923527 
Q 217.347158 26.923527 217.347158 24.923527 
L 217.347158 11.761635 
Q 217.347158 9.761635 215.347158 9.761635 
L 40.297816 9.761635 
Q 38.297816 9.761635 38.297816 11.761635 
L 38.297816 24.923527 
Q 38.297816 26.923527 40.297816 26.923527 
z
" style="fill: #ffffff; opacity: 0.8; stroke: #cccccc; stroke-linejoin: miter"/>
    </g>
    <g id="PathCollection_1">
     <defs>
      <path id="m7c63a2c762" d="M 0 -3.535534 
L -3.061862 -1.767767 
L -3.061862 1.767767 
L -0 3.535534 
L 3.061862 1.767767 
L 3.061862 -1.767767 
z
" style="stroke: #000000"/>
     </defs>
     <g>
      <use xlink:href="#m7c63a2c762" x="52.297816" y="18.136635" style="fill: #d95f02; stroke: #000000"/>
     </g>
    </g>
    <g id="text_11">
     <!-- \textbf{$T = 1500$[$^\circ C $]} -->
     <g transform="translate(70.297816 20.761635) scale(0.1 -0.1)">
      <defs>
       <path id="NewTXBMI-5a" d="M 3930 3057 
L 4160 4288 
L 634 4288 
L 390 3192 
L 550 3147 
C 883 3792 1286 4057 1939 4057 
L 992 621 
C 902 288 736 160 410 160 
L 320 160 
L 320 0 
L 2438 0 
L 2438 160 
C 1984 160 1907 199 1907 404 
C 1907 501 1933 629 1978 803 
L 2874 4057 
C 3475 4057 3725 3781 3757 3070 
L 3930 3057 
z
" transform="scale(0.015625)"/>
       <path id="txbmiaX-3d" d="M 3930 2137 
L 3930 2752 
L 397 2752 
L 397 2137 
L 3930 2137 
z
M 3930 576 
L 3930 1190 
L 397 1190 
L 397 576 
L 3930 576 
z
" transform="scale(0.015625)"/>
       <path id="TeXGyreTermesX-Bold-5b" d="M 1926 -960 
L 1926 -750 
L 1414 -750 
C 1152 -750 1094 -686 1094 -413 
L 1094 3650 
C 1094 4020 1165 4096 1523 4096 
L 1926 4096 
L 1926 4306 
L 429 4306 
L 429 -960 
L 1926 -960 
z
" transform="scale(0.015625)"/>
       <path id="txbsys-e" d="M 2955 1640 
C 2955 2347 2386 2915 1676 2915 
C 960 2915 397 2347 397 1640 
C 397 926 960 365 1676 365 
C 2386 365 2955 926 2955 1640 
z
M 2482 1640 
C 2482 1188 2117 838 1676 838 
C 1222 838 870 1188 870 1640 
C 870 2078 1222 2441 1676 2441 
C 2117 2441 2482 2078 2482 1640 
z
" transform="scale(0.015625)"/>
       <path id="NewTXBMI-49" d="M 3686 828 
L 3494 969 
C 3174 590 2995 442 2726 326 
C 2547 249 2349 211 2150 211 
C 1549 211 1190 628 1190 1329 
C 1190 2253 1638 3344 2214 3852 
C 2451 4051 2714 4160 2982 4160 
C 3501 4160 3821 3775 3821 3146 
C 3821 3062 3814 3004 3802 2921 
L 4006 2882 
L 4333 4384 
L 4141 4384 
C 4051 4243 3994 4198 3898 4198 
C 3846 4198 3750 4218 3654 4250 
C 3366 4339 3078 4384 2816 4384 
C 1389 4384 205 3094 205 1534 
C 205 539 902 -128 1946 -128 
C 2400 -128 2822 13 3187 289 
C 3373 431 3482 546 3686 828 
z
" transform="scale(0.015625)"/>
       <path id="TeXGyreTermesX-Bold-5d" d="M 1702 -960 
L 1702 4306 
L 205 4306 
L 205 4096 
L 608 4096 
C 966 4096 1037 4020 1037 3650 
L 1037 -413 
C 1037 -693 986 -750 717 -750 
L 205 -750 
L 205 -960 
L 1702 -960 
z
" transform="scale(0.015625)"/>
      </defs>
      <use xlink:href="#NewTXBMI-5a" transform="scale(0.996264)"/>
      <use xlink:href="#txbmiaX-3d" transform="translate(94.32405 0) scale(0.996264)"/>
      <use xlink:href="#TeXGyreTermesX-Bold-31" transform="translate(189.34539 0) scale(0.996264)"/>
      <use xlink:href="#TeXGyreTermesX-Bold-35" transform="translate(239.15859 0) scale(0.996264)"/>
      <use xlink:href="#TeXGyreTermesX-Bold-30" transform="translate(288.971791 0) scale(0.996264)"/>
      <use xlink:href="#TeXGyreTermesX-Bold-30" transform="translate(338.784991 0) scale(0.996264)"/>
      <use xlink:href="#TeXGyreTermesX-Bold-5b" transform="translate(388.598192 0) scale(0.996264)"/>
      <use xlink:href="#txbsys-e" transform="translate(421.773802 36.164371) scale(0.727268)"/>
      <use xlink:href="#NewTXBMI-49" transform="translate(460.77928 0) scale(0.996264)"/>
      <use xlink:href="#TeXGyreTermesX-Bold-5d" transform="translate(532.261192 0) scale(0.996264)"/>
     </g>
    </g>
    <g id="PathCollection_2">
     <defs>
      <path id="m6f7c2f9c73" d="M 0 -3.535534 
L -3.061862 -1.767767 
L -3.061862 1.767767 
L -0 3.535534 
L 3.061862 1.767767 
L 3.061862 -1.767767 
z
" style="stroke: #000000"/>
     </defs>
     <g>
      <use xlink:href="#m6f7c2f9c73" x="157.289694" y="18.136635" style="fill: #7570b3; stroke: #000000"/>
     </g>
    </g>
    <g id="text_12">
     <!-- \textbf{$1800$[$^\circ C $]} -->
     <g transform="translate(175.289694 20.761635) scale(0.1 -0.1)">
      <defs>
       <path id="TeXGyreTermesX-Bold-38" d="M 3021 1212 
C 3021 1768 2746 2164 2061 2597 
C 2675 2815 2931 3075 2931 3483 
C 2931 4051 2445 4409 1683 4409 
C 819 4409 250 3961 250 3292 
C 250 2814 506 2462 1139 2086 
C 774 1965 627 1881 461 1722 
C 275 1543 179 1301 179 1020 
C 179 370 723 -64 1536 -64 
C 2426 -64 3021 447 3021 1212 
z
M 2170 3439 
C 2170 3139 2118 2993 1907 2712 
C 1370 2986 1075 3337 1075 3694 
C 1075 3994 1306 4224 1606 4224 
C 1965 4224 2170 3937 2170 3439 
z
M 2131 829 
C 2131 402 1920 140 1574 140 
C 1184 140 954 478 954 1046 
C 954 1397 1024 1595 1280 1971 
C 1978 1505 2131 1301 2131 829 
z
" transform="scale(0.015625)"/>
      </defs>
      <use xlink:href="#TeXGyreTermesX-Bold-31" transform="scale(0.996264)"/>
      <use xlink:href="#TeXGyreTermesX-Bold-38" transform="translate(49.8132 0) scale(0.996264)"/>
      <use xlink:href="#TeXGyreTermesX-Bold-30" transform="translate(99.626401 0) scale(0.996264)"/>
      <use xlink:href="#TeXGyreTermesX-Bold-30" transform="translate(149.439601 0) scale(0.996264)"/>
      <use xlink:href="#TeXGyreTermesX-Bold-5b" transform="translate(199.252802 0) scale(0.996264)"/>
      <use xlink:href="#txbsys-e" transform="translate(232.428412 36.164371) scale(0.727268)"/>
      <use xlink:href="#NewTXBMI-49" transform="translate(271.43389 0) scale(0.996264)"/>
      <use xlink:href="#TeXGyreTermesX-Bold-5d" transform="translate(342.915802 0) scale(0.996264)"/>
     </g>
    </g>
   </g>
   <g id="PathCollection_3">
    <g clip-path="url(#p52a3b5c1c8)">
     <use xlink:href="#m7c63a2c762" x="167.511309" y="129.934959" style="fill: #d95f02; stroke: #000000"/>
     <use xlink:href="#m7c63a2c762" x="174.113662" y="102.454813" style="fill: #d95f02; stroke: #000000"/>
     <use xlink:href="#m7c63a2c762" x="181.577483" y="111.782936" style="fill: #d95f02; stroke: #000000"/>
     <use xlink:href="#m7c63a2c762" x="185.210617" y="107.623097" style="fill: #d95f02; stroke: #000000"/>
     <use xlink:href="#m7c63a2c762" x="188.445382" y="106.866763" style="fill: #d95f02; stroke: #000000"/>
     <use xlink:href="#m7c63a2c762" x="191.123276" y="68.545826" style="fill: #d95f02; stroke: #000000"/>
     <use xlink:href="#m7c63a2c762" x="198.06148" y="72.579609" style="fill: #d95f02; stroke: #000000"/>
     <use xlink:href="#m7c63a2c762" x="203.306264" y="50.393804" style="fill: #d95f02; stroke: #000000"/>
     <use xlink:href="#m7c63a2c762" x="207.545718" y="55.436032" style="fill: #d95f02; stroke: #000000"/>
     <use xlink:href="#m7c63a2c762" x="211.881946" y="54.931809" style="fill: #d95f02; stroke: #000000"/>
    </g>
   </g>
   <g id="PathCollection_4">
    <g clip-path="url(#p52a3b5c1c8)">
     <use xlink:href="#m6f7c2f9c73" x="86.248253" y="120.176319" style="fill: #7570b3; stroke: #000000"/>
     <use xlink:href="#m6f7c2f9c73" x="67.945984" y="104.412362" style="fill: #7570b3; stroke: #000000"/>
     <use xlink:href="#m6f7c2f9c73" x="95.712291" y="86.521522" style="fill: #7570b3; stroke: #000000"/>
     <use xlink:href="#m6f7c2f9c73" x="102.172035" y="80.265984" style="fill: #7570b3; stroke: #000000"/>
     <use xlink:href="#m6f7c2f9c73" x="105.843265" y="55.994495" style="fill: #7570b3; stroke: #000000"/>
     <use xlink:href="#m6f7c2f9c73" x="114.451673" y="46.611187" style="fill: #7570b3; stroke: #000000"/>
     <use xlink:href="#m6f7c2f9c73" x="130.478492" y="46.486076" style="fill: #7570b3; stroke: #000000"/>
     <use xlink:href="#m6f7c2f9c73" x="140.044013" y="51.240286" style="fill: #7570b3; stroke: #000000"/>
    </g>
   </g>
  </g>
 </g>
 <defs>
  <clipPath id="p52a3b5c1c8">
   <rect x="33.297816" y="4.761635" width="197.002842" height="146.035544"/>
  </clipPath>
 </defs>
</svg>
