<?xml version="1.0" encoding="utf-8" standalone="no"?>
<!DOCTYPE svg PUBLIC "-//W3C//DTD SVG 1.1//EN"
  "http://www.w3.org/Graphics/SVG/1.1/DTD/svg11.dtd">
<svg xmlns:xlink="http://www.w3.org/1999/xlink" width="234pt" height="180pt" viewBox="0 0 234 180" xmlns="http://www.w3.org/2000/svg" version="1.1">
 <metadata>
  <rdf:RDF xmlns:dc="http://purl.org/dc/elements/1.1/" xmlns:cc="http://creativecommons.org/ns#" xmlns:rdf="http://www.w3.org/1999/02/22-rdf-syntax-ns#">
   <cc:Work>
    <dc:type rdf:resource="http://purl.org/dc/dcmitype/StillImage"/>
    <dc:date>2025-01-02T10:32:29.882375</dc:date>
    <dc:format>image/svg+xml</dc:format>
    <dc:creator>
     <cc:Agent>
      <dc:title>Matplotlib v3.9.0, https://matplotlib.org/</dc:title>
     </cc:Agent>
    </dc:creator>
   </cc:Work>
  </rdf:RDF>
 </metadata>
 <defs>
  <style type="text/css">*{stroke-linejoin: round; stroke-linecap: butt}</style>
 </defs>
 <g id="figure_1">
  <g id="patch_1">
   <path d="M 0 180 
L 234 180 
L 234 0 
L 0 0 
z
" style="fill: #ffffff"/>
  </g>
  <g id="axes_1">
   <g id="patch_2">
    <path d="M 33.297816 150.797179 
L 230.300658 150.797179 
L 230.300658 4.761635 
L 33.297816 4.761635 
z
" style="fill: #ffffff"/>
   </g>
   <g id="matplotlib.axis_1">
    <g id="xtick_1">
     <g id="line2d_1">
      <defs>
       <path id="m61be024a6b" d="M 0 0 
L 0 -3.5 
" style="stroke: #000000; stroke-width: 0.8"/>
      </defs>
      <g>
       <use xlink:href="#m61be024a6b" x="60.942478" y="150.797179" style="stroke: #000000; stroke-width: 0.8"/>
      </g>
     </g>
     <g id="text_1">
      <!-- $\mathdefault{10^{-1}}$ -->
      <g transform="translate(50.482717 161.82045) scale(0.11 -0.11)">
       <defs>
        <path id="TeXGyreTermesX-Bold-31" d="M 2829 0 
L 2829 159 
C 2246 159 2138 255 2138 746 
L 2138 4384 
L 2029 4384 
L 416 3686 
L 416 3521 
C 474 3540 525 3559 544 3572 
C 717 3635 877 3680 960 3680 
C 1120 3680 1190 3540 1190 3241 
L 1190 790 
C 1190 267 1062 159 429 159 
L 429 0 
L 2829 0 
z
" transform="scale(0.015625)"/>
        <path id="TeXGyreTermesX-Bold-30" d="M 3046 2166 
C 3046 3440 2426 4403 1600 4403 
C 1184 4403 762 4123 499 3664 
C 294 3313 154 2714 154 2185 
C 154 873 755 -64 1606 -64 
C 2432 -64 3046 886 3046 2166 
z
M 2035 1434 
C 2035 1058 1984 561 1926 389 
C 1856 203 1754 114 1606 114 
C 1286 114 1165 491 1165 1434 
L 1165 2892 
C 1165 3855 1286 4224 1594 4224 
C 1907 4224 2035 3829 2035 2892 
L 2035 1434 
z
" transform="scale(0.015625)"/>
        <path id="txbsys-0" d="M 3929 1341 
L 3929 1955 
L 396 1955 
L 396 1341 
L 3929 1341 
z
" transform="scale(0.015625)"/>
       </defs>
       <use xlink:href="#TeXGyreTermesX-Bold-31" transform="scale(0.996264)"/>
       <use xlink:href="#TeXGyreTermesX-Bold-30" transform="translate(49.8132 0) scale(0.996264)"/>
       <use xlink:href="#txbsys-0" transform="translate(99.626401 36.164371) scale(0.727268)"/>
       <use xlink:href="#TeXGyreTermesX-Bold-31" transform="translate(148.78971 36.164371) scale(0.727268)"/>
      </g>
     </g>
    </g>
    <g id="xtick_2">
     <g id="line2d_2">
      <g>
       <use xlink:href="#m61be024a6b" x="107.355187" y="150.797179" style="stroke: #000000; stroke-width: 0.8"/>
      </g>
     </g>
     <g id="text_2">
      <!-- $\mathdefault{10^{0}}$ -->
      <g transform="translate(99.908122 161.82045) scale(0.11 -0.11)">
       <use xlink:href="#TeXGyreTermesX-Bold-31" transform="scale(0.996264)"/>
       <use xlink:href="#TeXGyreTermesX-Bold-30" transform="translate(49.8132 0) scale(0.996264)"/>
       <use xlink:href="#TeXGyreTermesX-Bold-30" transform="translate(99.626401 36.164371) scale(0.727268)"/>
      </g>
     </g>
    </g>
    <g id="xtick_3">
     <g id="line2d_3">
      <g>
       <use xlink:href="#m61be024a6b" x="153.767895" y="150.797179" style="stroke: #000000; stroke-width: 0.8"/>
      </g>
     </g>
     <g id="text_3">
      <!-- $\mathdefault{10^{1}}$ -->
      <g transform="translate(146.32083 161.82045) scale(0.11 -0.11)">
       <use xlink:href="#TeXGyreTermesX-Bold-31" transform="scale(0.996264)"/>
       <use xlink:href="#TeXGyreTermesX-Bold-30" transform="translate(49.8132 0) scale(0.996264)"/>
       <use xlink:href="#TeXGyreTermesX-Bold-31" transform="translate(99.626401 36.164371) scale(0.727268)"/>
      </g>
     </g>
    </g>
    <g id="xtick_4">
     <g id="line2d_4">
      <g>
       <use xlink:href="#m61be024a6b" x="200.180603" y="150.797179" style="stroke: #000000; stroke-width: 0.8"/>
      </g>
     </g>
     <g id="text_4">
      <!-- $\mathdefault{10^{2}}$ -->
      <g transform="translate(192.733539 161.82045) scale(0.11 -0.11)">
       <defs>
        <path id="TeXGyreTermesX-Bold-32" d="M 3059 1341 
L 2906 1341 
C 2720 884 2643 846 1990 846 
L 1024 846 
L 2061 1824 
C 2566 2301 2790 2726 2790 3210 
C 2790 3889 2298 4373 1606 4373 
C 1286 4373 979 4245 755 4016 
C 506 3768 378 3552 198 3075 
L 378 3075 
C 576 3469 813 3648 1158 3648 
C 1440 3648 1651 3527 1792 3298 
C 1869 3164 1920 2987 1920 2841 
C 1920 2561 1798 2211 1594 1900 
C 1267 1405 1043 1137 109 146 
L 109 0 
L 2771 0 
L 3059 1341 
z
" transform="scale(0.015625)"/>
       </defs>
       <use xlink:href="#TeXGyreTermesX-Bold-31" transform="scale(0.996264)"/>
       <use xlink:href="#TeXGyreTermesX-Bold-30" transform="translate(49.8132 0) scale(0.996264)"/>
       <use xlink:href="#TeXGyreTermesX-Bold-32" transform="translate(99.626401 36.164371) scale(0.727268)"/>
      </g>
     </g>
    </g>
    <g id="xtick_5">
     <g id="line2d_5">
      <defs>
       <path id="m83703d166c" d="M 0 0 
L 0 -2 
" style="stroke: #000000; stroke-width: 0.6"/>
      </defs>
      <g>
       <use xlink:href="#m83703d166c" x="36.67426" y="150.797179" style="stroke: #000000; stroke-width: 0.6"/>
      </g>
     </g>
    </g>
    <g id="xtick_6">
     <g id="line2d_6">
      <g>
       <use xlink:href="#m83703d166c" x="42.473005" y="150.797179" style="stroke: #000000; stroke-width: 0.6"/>
      </g>
     </g>
    </g>
    <g id="xtick_7">
     <g id="line2d_7">
      <g>
       <use xlink:href="#m83703d166c" x="46.970861" y="150.797179" style="stroke: #000000; stroke-width: 0.6"/>
      </g>
     </g>
    </g>
    <g id="xtick_8">
     <g id="line2d_8">
      <g>
       <use xlink:href="#m83703d166c" x="50.645877" y="150.797179" style="stroke: #000000; stroke-width: 0.6"/>
      </g>
     </g>
    </g>
    <g id="xtick_9">
     <g id="line2d_9">
      <g>
       <use xlink:href="#m83703d166c" x="53.753059" y="150.797179" style="stroke: #000000; stroke-width: 0.6"/>
      </g>
     </g>
    </g>
    <g id="xtick_10">
     <g id="line2d_10">
      <g>
       <use xlink:href="#m83703d166c" x="56.444622" y="150.797179" style="stroke: #000000; stroke-width: 0.6"/>
      </g>
     </g>
    </g>
    <g id="xtick_11">
     <g id="line2d_11">
      <g>
       <use xlink:href="#m83703d166c" x="58.818749" y="150.797179" style="stroke: #000000; stroke-width: 0.6"/>
      </g>
     </g>
    </g>
    <g id="xtick_12">
     <g id="line2d_12">
      <g>
       <use xlink:href="#m83703d166c" x="74.914096" y="150.797179" style="stroke: #000000; stroke-width: 0.6"/>
      </g>
     </g>
    </g>
    <g id="xtick_13">
     <g id="line2d_13">
      <g>
       <use xlink:href="#m83703d166c" x="83.086968" y="150.797179" style="stroke: #000000; stroke-width: 0.6"/>
      </g>
     </g>
    </g>
    <g id="xtick_14">
     <g id="line2d_14">
      <g>
       <use xlink:href="#m83703d166c" x="88.885713" y="150.797179" style="stroke: #000000; stroke-width: 0.6"/>
      </g>
     </g>
    </g>
    <g id="xtick_15">
     <g id="line2d_15">
      <g>
       <use xlink:href="#m83703d166c" x="93.383569" y="150.797179" style="stroke: #000000; stroke-width: 0.6"/>
      </g>
     </g>
    </g>
    <g id="xtick_16">
     <g id="line2d_16">
      <g>
       <use xlink:href="#m83703d166c" x="97.058585" y="150.797179" style="stroke: #000000; stroke-width: 0.6"/>
      </g>
     </g>
    </g>
    <g id="xtick_17">
     <g id="line2d_17">
      <g>
       <use xlink:href="#m83703d166c" x="100.165767" y="150.797179" style="stroke: #000000; stroke-width: 0.6"/>
      </g>
     </g>
    </g>
    <g id="xtick_18">
     <g id="line2d_18">
      <g>
       <use xlink:href="#m83703d166c" x="102.85733" y="150.797179" style="stroke: #000000; stroke-width: 0.6"/>
      </g>
     </g>
    </g>
    <g id="xtick_19">
     <g id="line2d_19">
      <g>
       <use xlink:href="#m83703d166c" x="105.231458" y="150.797179" style="stroke: #000000; stroke-width: 0.6"/>
      </g>
     </g>
    </g>
    <g id="xtick_20">
     <g id="line2d_20">
      <g>
       <use xlink:href="#m83703d166c" x="121.326804" y="150.797179" style="stroke: #000000; stroke-width: 0.6"/>
      </g>
     </g>
    </g>
    <g id="xtick_21">
     <g id="line2d_21">
      <g>
       <use xlink:href="#m83703d166c" x="129.499676" y="150.797179" style="stroke: #000000; stroke-width: 0.6"/>
      </g>
     </g>
    </g>
    <g id="xtick_22">
     <g id="line2d_22">
      <g>
       <use xlink:href="#m83703d166c" x="135.298421" y="150.797179" style="stroke: #000000; stroke-width: 0.6"/>
      </g>
     </g>
    </g>
    <g id="xtick_23">
     <g id="line2d_23">
      <g>
       <use xlink:href="#m83703d166c" x="139.796277" y="150.797179" style="stroke: #000000; stroke-width: 0.6"/>
      </g>
     </g>
    </g>
    <g id="xtick_24">
     <g id="line2d_24">
      <g>
       <use xlink:href="#m83703d166c" x="143.471293" y="150.797179" style="stroke: #000000; stroke-width: 0.6"/>
      </g>
     </g>
    </g>
    <g id="xtick_25">
     <g id="line2d_25">
      <g>
       <use xlink:href="#m83703d166c" x="146.578475" y="150.797179" style="stroke: #000000; stroke-width: 0.6"/>
      </g>
     </g>
    </g>
    <g id="xtick_26">
     <g id="line2d_26">
      <g>
       <use xlink:href="#m83703d166c" x="149.270039" y="150.797179" style="stroke: #000000; stroke-width: 0.6"/>
      </g>
     </g>
    </g>
    <g id="xtick_27">
     <g id="line2d_27">
      <g>
       <use xlink:href="#m83703d166c" x="151.644166" y="150.797179" style="stroke: #000000; stroke-width: 0.6"/>
      </g>
     </g>
    </g>
    <g id="xtick_28">
     <g id="line2d_28">
      <g>
       <use xlink:href="#m83703d166c" x="167.739512" y="150.797179" style="stroke: #000000; stroke-width: 0.6"/>
      </g>
     </g>
    </g>
    <g id="xtick_29">
     <g id="line2d_29">
      <g>
       <use xlink:href="#m83703d166c" x="175.912384" y="150.797179" style="stroke: #000000; stroke-width: 0.6"/>
      </g>
     </g>
    </g>
    <g id="xtick_30">
     <g id="line2d_30">
      <g>
       <use xlink:href="#m83703d166c" x="181.711129" y="150.797179" style="stroke: #000000; stroke-width: 0.6"/>
      </g>
     </g>
    </g>
    <g id="xtick_31">
     <g id="line2d_31">
      <g>
       <use xlink:href="#m83703d166c" x="186.208986" y="150.797179" style="stroke: #000000; stroke-width: 0.6"/>
      </g>
     </g>
    </g>
    <g id="xtick_32">
     <g id="line2d_32">
      <g>
       <use xlink:href="#m83703d166c" x="189.884002" y="150.797179" style="stroke: #000000; stroke-width: 0.6"/>
      </g>
     </g>
    </g>
    <g id="xtick_33">
     <g id="line2d_33">
      <g>
       <use xlink:href="#m83703d166c" x="192.991183" y="150.797179" style="stroke: #000000; stroke-width: 0.6"/>
      </g>
     </g>
    </g>
    <g id="xtick_34">
     <g id="line2d_34">
      <g>
       <use xlink:href="#m83703d166c" x="195.682747" y="150.797179" style="stroke: #000000; stroke-width: 0.6"/>
      </g>
     </g>
    </g>
    <g id="xtick_35">
     <g id="line2d_35">
      <g>
       <use xlink:href="#m83703d166c" x="198.056874" y="150.797179" style="stroke: #000000; stroke-width: 0.6"/>
      </g>
     </g>
    </g>
    <g id="xtick_36">
     <g id="line2d_36">
      <g>
       <use xlink:href="#m83703d166c" x="214.15222" y="150.797179" style="stroke: #000000; stroke-width: 0.6"/>
      </g>
     </g>
    </g>
    <g id="xtick_37">
     <g id="line2d_37">
      <g>
       <use xlink:href="#m83703d166c" x="222.325093" y="150.797179" style="stroke: #000000; stroke-width: 0.6"/>
      </g>
     </g>
    </g>
    <g id="xtick_38">
     <g id="line2d_38">
      <g>
       <use xlink:href="#m83703d166c" x="228.123838" y="150.797179" style="stroke: #000000; stroke-width: 0.6"/>
      </g>
     </g>
    </g>
    <g id="text_5">
     <!-- $t$ [hr] -->
     <g transform="translate(119.425632 176.40574) scale(0.12 -0.12)">
      <defs>
       <path id="NewTXBMI-74" d="M 1440 837 
L 1299 926 
C 1082 588 915 415 813 415 
C 762 415 710 460 710 511 
C 710 632 826 1073 1056 1864 
L 1267 2624 
L 1798 2624 
L 1798 2893 
L 1338 2893 
L 1587 3808 
L 1363 3808 
C 1018 3303 698 3037 192 2848 
L 192 2624 
L 518 2624 
L 83 1105 
C -13 773 -70 499 -70 383 
C -70 135 109 -32 378 -32 
C 762 -32 1018 180 1440 837 
z
" transform="scale(0.015625)"/>
       <path id="TeXGyreTermesX-Regular-5b" d="M 1914 -1024 
L 1914 -864 
L 1363 -864 
C 1152 -864 1050 -756 1050 -531 
L 1050 3781 
C 1050 3981 1133 4064 1338 4064 
L 1914 4064 
L 1914 4224 
L 563 4224 
L 563 -1024 
L 1914 -1024 
z
" transform="scale(0.015625)"/>
       <path id="TeXGyreTermesX-Regular-68" d="M 3117 32 
L 3117 128 
C 2771 192 2733 243 2733 684 
L 2733 1954 
C 2733 2625 2464 2970 1946 2970 
C 1568 2970 1299 2816 1005 2432 
L 1005 4390 
L 973 4409 
C 755 4332 595 4281 237 4179 
L 64 4128 
L 64 4026 
C 90 4032 109 4032 141 4032 
C 416 4032 467 3980 467 3705 
L 467 686 
C 467 237 429 179 58 128 
L 58 32 
L 1440 32 
L 1440 128 
C 1069 166 1005 243 1005 684 
L 1005 2222 
C 1274 2516 1466 2624 1715 2624 
C 2035 2624 2195 2395 2195 1948 
L 2195 684 
C 2195 250 2131 166 1760 128 
L 1760 32 
L 3117 32 
z
" transform="scale(0.015625)"/>
       <path id="TeXGyreTermesX-Regular-72" d="M 2144 2605 
C 2144 2816 2010 2944 1792 2944 
C 1523 2944 1338 2797 1024 2343 
L 1024 2931 
L 992 2944 
C 653 2803 422 2721 45 2599 
L 45 2496 
C 134 2515 192 2522 269 2522 
C 429 2522 486 2419 486 2138 
L 486 538 
C 486 218 442 173 32 96 
L 32 0 
L 1568 0 
L 1568 102 
C 1133 102 1024 199 1024 565 
L 1024 2013 
C 1024 2219 1299 2541 1472 2541 
C 1510 2541 1568 2509 1638 2445 
C 1741 2355 1811 2317 1894 2317 
C 2048 2317 2144 2426 2144 2605 
z
" transform="scale(0.015625)"/>
       <path id="TeXGyreTermesX-Regular-5d" d="M 1568 -1024 
L 1568 4224 
L 218 4224 
L 218 4064 
L 768 4064 
C 979 4064 1082 3955 1082 3730 
L 1082 -582 
C 1082 -781 992 -864 794 -864 
L 218 -864 
L 218 -1024 
L 1568 -1024 
z
" transform="scale(0.015625)"/>
      </defs>
      <use xlink:href="#NewTXBMI-74" transform="scale(0.996264)"/>
      <use xlink:href="#TeXGyreTermesX-Regular-5b" transform="translate(56.886681 0) scale(0.996264)"/>
      <use xlink:href="#TeXGyreTermesX-Regular-68" transform="translate(90.062291 0) scale(0.996264)"/>
      <use xlink:href="#TeXGyreTermesX-Regular-72" transform="translate(139.875491 0) scale(0.996264)"/>
      <use xlink:href="#TeXGyreTermesX-Regular-5d" transform="translate(173.051101 0) scale(0.996264)"/>
     </g>
    </g>
   </g>
   <g id="matplotlib.axis_2">
    <g id="ytick_1">
     <g id="line2d_39">
      <defs>
       <path id="m6937f9e1ce" d="M 0 0 
L 3.5 0 
" style="stroke: #000000; stroke-width: 0.8"/>
      </defs>
      <g>
       <use xlink:href="#m6937f9e1ce" x="33.297816" y="129.934959" style="stroke: #000000; stroke-width: 0.8"/>
      </g>
     </g>
     <g id="text_6">
      <!-- $\mathdefault{0.0}$ -->
      <g transform="translate(15.801474 133.696594) scale(0.11 -0.11)">
       <defs>
        <path id="NewTXBMI-93" d="M 1344 473 
C 1344 768 1101 1017 800 1017 
C 493 1017 262 761 262 473 
C 262 173 493 -64 800 -64 
C 1101 -64 1344 166 1344 473 
z
" transform="scale(0.015625)"/>
       </defs>
       <use xlink:href="#TeXGyreTermesX-Bold-30" transform="scale(0.996264)"/>
       <use xlink:href="#NewTXBMI-93" transform="translate(51.407199 0) scale(0.996264)"/>
       <use xlink:href="#TeXGyreTermesX-Bold-30" transform="translate(78.00746 0) scale(0.996264)"/>
      </g>
     </g>
    </g>
    <g id="ytick_2">
     <g id="line2d_40">
      <g>
       <use xlink:href="#m6937f9e1ce" x="33.297816" y="88.210517" style="stroke: #000000; stroke-width: 0.8"/>
      </g>
     </g>
     <g id="text_7">
      <!-- $\mathdefault{0.5}$ -->
      <g transform="translate(15.801474 91.972153) scale(0.11 -0.11)">
       <defs>
        <path id="TeXGyreTermesX-Bold-35" d="M 3008 4288 
L 947 4288 
L 326 2093 
C 934 2049 1197 2010 1478 1921 
C 2048 1743 2387 1381 2387 960 
C 2387 604 2106 324 1747 324 
C 1600 324 1427 400 1171 591 
C 896 795 704 877 538 877 
C 307 877 141 718 141 496 
C 141 159 512 -64 1082 -64 
C 2138 -64 2886 575 2886 1476 
C 2886 2140 2477 2652 1779 2850 
C 1536 2920 1338 2946 813 2946 
L 954 3481 
L 2733 3481 
L 3008 4288 
z
" transform="scale(0.015625)"/>
       </defs>
       <use xlink:href="#TeXGyreTermesX-Bold-30" transform="scale(0.996264)"/>
       <use xlink:href="#NewTXBMI-93" transform="translate(51.407199 0) scale(0.996264)"/>
       <use xlink:href="#TeXGyreTermesX-Bold-35" transform="translate(78.00746 0) scale(0.996264)"/>
      </g>
     </g>
    </g>
    <g id="ytick_3">
     <g id="line2d_41">
      <g>
       <use xlink:href="#m6937f9e1ce" x="33.297816" y="46.486076" style="stroke: #000000; stroke-width: 0.8"/>
      </g>
     </g>
     <g id="text_8">
      <!-- $\mathdefault{1.0}$ -->
      <g transform="translate(15.801474 50.247712) scale(0.11 -0.11)">
       <use xlink:href="#TeXGyreTermesX-Bold-31" transform="scale(0.996264)"/>
       <use xlink:href="#NewTXBMI-93" transform="translate(51.407199 0) scale(0.996264)"/>
       <use xlink:href="#TeXGyreTermesX-Bold-30" transform="translate(78.00746 0) scale(0.996264)"/>
      </g>
     </g>
    </g>
    <g id="ytick_4">
     <g id="line2d_42">
      <g>
       <use xlink:href="#m6937f9e1ce" x="33.297816" y="4.761635" style="stroke: #000000; stroke-width: 0.8"/>
      </g>
     </g>
     <g id="text_9">
      <!-- $\mathdefault{1.5}$ -->
      <g transform="translate(15.801474 8.523271) scale(0.11 -0.11)">
       <use xlink:href="#TeXGyreTermesX-Bold-31" transform="scale(0.996264)"/>
       <use xlink:href="#NewTXBMI-93" transform="translate(51.407199 0) scale(0.996264)"/>
       <use xlink:href="#TeXGyreTermesX-Bold-35" transform="translate(78.00746 0) scale(0.996264)"/>
      </g>
     </g>
    </g>
    <g id="ytick_5">
     <g id="line2d_43">
      <defs>
       <path id="m0cd65a5ce7" d="M 0 0 
L 2 0 
" style="stroke: #000000; stroke-width: 0.6"/>
      </defs>
      <g>
       <use xlink:href="#m0cd65a5ce7" x="33.297816" y="146.624735" style="stroke: #000000; stroke-width: 0.6"/>
      </g>
     </g>
    </g>
    <g id="ytick_6">
     <g id="line2d_44">
      <g>
       <use xlink:href="#m0cd65a5ce7" x="33.297816" y="138.279847" style="stroke: #000000; stroke-width: 0.6"/>
      </g>
     </g>
    </g>
    <g id="ytick_7">
     <g id="line2d_45">
      <g>
       <use xlink:href="#m0cd65a5ce7" x="33.297816" y="121.59007" style="stroke: #000000; stroke-width: 0.6"/>
      </g>
     </g>
    </g>
    <g id="ytick_8">
     <g id="line2d_46">
      <g>
       <use xlink:href="#m0cd65a5ce7" x="33.297816" y="113.245182" style="stroke: #000000; stroke-width: 0.6"/>
      </g>
     </g>
    </g>
    <g id="ytick_9">
     <g id="line2d_47">
      <g>
       <use xlink:href="#m0cd65a5ce7" x="33.297816" y="104.900294" style="stroke: #000000; stroke-width: 0.6"/>
      </g>
     </g>
    </g>
    <g id="ytick_10">
     <g id="line2d_48">
      <g>
       <use xlink:href="#m0cd65a5ce7" x="33.297816" y="96.555406" style="stroke: #000000; stroke-width: 0.6"/>
      </g>
     </g>
    </g>
    <g id="ytick_11">
     <g id="line2d_49">
      <g>
       <use xlink:href="#m0cd65a5ce7" x="33.297816" y="79.865629" style="stroke: #000000; stroke-width: 0.6"/>
      </g>
     </g>
    </g>
    <g id="ytick_12">
     <g id="line2d_50">
      <g>
       <use xlink:href="#m0cd65a5ce7" x="33.297816" y="71.520741" style="stroke: #000000; stroke-width: 0.6"/>
      </g>
     </g>
    </g>
    <g id="ytick_13">
     <g id="line2d_51">
      <g>
       <use xlink:href="#m0cd65a5ce7" x="33.297816" y="63.175853" style="stroke: #000000; stroke-width: 0.6"/>
      </g>
     </g>
    </g>
    <g id="ytick_14">
     <g id="line2d_52">
      <g>
       <use xlink:href="#m0cd65a5ce7" x="33.297816" y="54.830965" style="stroke: #000000; stroke-width: 0.6"/>
      </g>
     </g>
    </g>
    <g id="ytick_15">
     <g id="line2d_53">
      <g>
       <use xlink:href="#m0cd65a5ce7" x="33.297816" y="38.141188" style="stroke: #000000; stroke-width: 0.6"/>
      </g>
     </g>
    </g>
    <g id="ytick_16">
     <g id="line2d_54">
      <g>
       <use xlink:href="#m0cd65a5ce7" x="33.297816" y="29.7963" style="stroke: #000000; stroke-width: 0.6"/>
      </g>
     </g>
    </g>
    <g id="ytick_17">
     <g id="line2d_55">
      <g>
       <use xlink:href="#m0cd65a5ce7" x="33.297816" y="21.451412" style="stroke: #000000; stroke-width: 0.6"/>
      </g>
     </g>
    </g>
    <g id="ytick_18">
     <g id="line2d_56">
      <g>
       <use xlink:href="#m0cd65a5ce7" x="33.297816" y="13.106524" style="stroke: #000000; stroke-width: 0.6"/>
      </g>
     </g>
    </g>
    <g id="text_10">
     <!-- $X$ -->
     <g transform="translate(9.207214 81.766455) rotate(-90) scale(0.12 -0.12)">
      <defs>
       <path id="NewTXBMI-5e" d="M 3750 0 
L 3750 160 
C 3290 211 3194 301 3008 903 
L 2534 2423 
L 3808 3737 
C 4090 4019 4211 4096 4442 4128 
L 4442 4288 
L 3142 4288 
L 3142 4128 
L 3283 4115 
C 3430 4102 3494 4057 3494 3961 
C 3494 3846 3379 3685 3046 3333 
L 2445 2698 
C 2381 2910 2362 2986 2336 3050 
C 2189 3506 2118 3782 2118 3878 
C 2118 4025 2189 4083 2400 4108 
L 2592 4128 
L 2592 4288 
L 640 4288 
L 640 4128 
C 1024 4089 1120 4019 1222 3723 
L 1760 1981 
L 1325 1506 
C 314 390 122 211 -154 160 
L -154 0 
L 1216 0 
L 1216 160 
C 928 186 800 269 800 416 
C 800 499 845 583 992 743 
L 1850 1692 
L 1971 1308 
C 2144 814 2214 545 2214 403 
C 2214 237 2125 192 1779 160 
L 1779 0 
L 3750 0 
z
" transform="scale(0.015625)"/>
      </defs>
      <use xlink:href="#NewTXBMI-5e" transform="scale(0.996264)"/>
     </g>
    </g>
   </g>
   <g id="line2d_57">
    <path d="M -1 129.934959 
L 128.72315 129.934959 
L 142.694767 129.934959 
L 150.867639 129.934959 
L 156.666384 129.934959 
L 161.16424 129.934959 
L 164.839256 129.934959 
L 167.946438 129.934959 
L 170.638002 129.934959 
L 173.012129 129.934959 
L 175.135858 129.934959 
L 177.057004 129.934959 
L 178.810874 129.934959 
L 180.424277 129.934959 
L 181.918056 129.934959 
L 183.30873 129.934959 
L 184.609619 129.934959 
L 185.831616 129.934959 
L 186.983746 129.934959 
L 188.073567 129.934959 
L 189.107475 129.934959 
L 190.090928 129.934959 
L 191.028622 129.934959 
L 191.924626 129.934959 
L 192.782491 129.934959 
L 193.605331 129.934959 
L 194.395895 129.934959 
L 195.156618 129.934959 
L 195.889673 129.228554 
L 196.597001 127.371041 
L 197.280347 124.769916 
L 197.941285 121.61318 
L 198.581236 118.038902 
L 199.201494 114.161037 
L 199.803234 110.077566 
L 200.387529 105.873761 
L 200.955363 101.62372 
L 201.507638 97.391242 
L 202.045185 93.230451 
L 202.568767 89.186358 
L 203.079092 85.295444 
L 203.576816 81.586287 
L 204.062545 78.080231 
L 204.536844 74.7921 
L 205.000239 71.730928 
L 205.453219 68.900703 
L 205.896244 66.301094 
L 206.329739 63.92816 
L 206.754108 61.775014 
L 207.169727 59.832445 
L 207.576949 58.089485 
L 207.976106 56.533918 
L 208.367512 55.152724 
L 208.751462 53.932462 
L 209.128236 52.8596 
L 209.498095 51.920778 
L 209.86129 51.103027 
L 210.218057 50.39393 
L 210.568618 49.781752 
L 210.913187 49.255517 
L 211.251965 48.805067 
L 211.585142 48.42108 
L 211.912902 48.09508 
L 212.235417 47.819415 
L 212.552854 47.587227 
L 212.865368 47.392415 
L 213.173111 47.229585 
L 213.476226 47.093996 
L 213.774851 46.981508 
L 214.069116 46.888527 
L 214.359146 46.811946 
L 214.645063 46.749097 
L 214.926981 46.697698 
L 215.20501 46.65581 
L 215.479256 46.62179 
L 215.749821 46.594254 
L 216.016802 46.572041 
L 216.280293 46.554181 
L 216.540384 46.539869 
L 216.797162 46.528437 
L 217.05071 46.519336 
L 217.301108 46.512113 
L 217.548433 46.506398 
L 217.792761 46.501892 
L 218.034162 46.498349 
L 218.272707 46.495573 
L 218.508462 46.493403 
L 218.741491 46.491713 
L 218.971856 46.490401 
L 219.199619 46.489385 
L 219.424837 46.4886 
L 219.647566 46.487996 
L 219.867861 46.487533 
L 220.085774 46.487178 
L 220.301357 46.486908 
L 220.514658 46.486702 
L 220.725726 46.486546 
L 220.934606 46.486428 
L 221.141344 46.486339 
L 221.345983 46.486272 
" clip-path="url(#p1cf05c458f)" style="fill: none; stroke: #b22222; stroke-width: 1.5; stroke-linecap: square"/>
   </g>
   <g id="line2d_58">
    <path d="M -1 129.934959 
L 128.72315 129.934959 
L 142.694767 129.934959 
L 150.867639 129.934959 
L 156.666384 129.934959 
L 161.16424 129.934959 
L 164.839256 129.934959 
L 167.946438 129.934959 
L 170.638002 129.934959 
L 173.012129 129.934959 
L 175.135858 129.934959 
L 177.057004 129.934959 
L 178.810874 129.934959 
L 180.424277 129.934959 
L 181.918056 129.934959 
L 183.30873 129.934959 
L 184.609619 129.934959 
L 185.831616 129.934959 
L 186.983746 129.934959 
L 188.073567 129.934959 
L 189.107475 129.934959 
L 190.090928 129.934959 
L 191.028622 129.934959 
L 191.924626 129.934959 
L 192.782491 129.934959 
L 193.605331 129.934959 
L 194.395895 129.934959 
L 195.156618 129.934959 
L 195.889673 128.807187 
L 196.597001 127.250299 
L 197.280347 125.365513 
L 197.941285 122.912216 
L 198.581236 120.132972 
L 199.201494 116.36566 
L 199.803234 112.541574 
L 200.387529 108.141746 
L 200.955363 103.85296 
L 201.507638 99.484661 
L 202.045185 95.186708 
L 202.568767 90.914103 
L 203.079092 86.780519 
L 203.576816 83.317488 
L 204.062545 79.789342 
L 204.536844 76.674765 
L 205.000239 74.070379 
L 205.453219 71.231647 
L 205.896244 68.458864 
L 206.329739 66.371614 
L 206.754108 64.405967 
L 207.169727 62.698065 
L 207.576949 61.052113 
L 207.976106 59.373841 
L 208.367512 57.757723 
L 208.751462 56.570787 
L 209.128236 55.513123 
L 209.498095 54.536768 
L 209.86129 53.443839 
L 210.218057 52.530196 
L 210.568618 51.835809 
L 210.913187 51.153677 
L 211.251965 50.589583 
L 211.585142 50.08336 
L 211.912902 49.635009 
L 212.235417 49.240501 
L 212.552854 48.89325 
L 212.865368 48.580573 
L 213.173111 48.306211 
L 213.476226 48.069501 
L 213.774851 47.862878 
L 214.069116 47.682613 
L 214.359146 47.521905 
L 214.645063 47.383977 
L 214.926981 47.26224 
L 215.20501 47.15527 
L 215.479256 47.06382 
L 215.749821 46.98447 
L 216.016802 46.914189 
L 216.280293 46.853919 
L 216.540384 46.802096 
L 216.797162 46.756833 
L 217.05071 46.717907 
L 217.301108 46.6849 
L 217.548433 46.655922 
L 217.792761 46.631291 
L 218.034162 46.61033 
L 218.272707 46.591867 
L 218.508462 46.57605 
L 218.741491 46.562511 
L 218.971856 46.551101 
L 219.199619 46.541412 
L 219.424837 46.532956 
L 219.647566 46.525808 
L 219.867861 46.519586 
L 220.085774 46.514373 
L 220.301357 46.509966 
L 220.514658 46.506186 
L 220.725726 46.503033 
L 220.934606 46.500297 
L 221.141344 46.498044 
L 221.345983 46.496114 
" clip-path="url(#p1cf05c458f)" style="fill: none; stroke: #000000; stroke-width: 0.75; stroke-linecap: square"/>
   </g>
   <g id="line2d_59">
    <path d="M -1 129.934959 
L 128.72315 129.934959 
L 142.694767 129.934959 
L 150.867639 129.934959 
L 156.666384 129.934959 
L 161.16424 129.934959 
L 164.839256 129.934959 
L 167.946438 129.934959 
L 170.638002 129.934959 
L 173.012129 129.934959 
L 175.135858 129.934959 
L 177.057004 129.934959 
L 178.810874 129.934959 
L 180.424277 129.934959 
L 181.918056 129.934959 
L 183.30873 129.934959 
L 184.609619 129.934959 
L 185.831616 129.934959 
L 186.983746 129.934959 
L 188.073567 129.934959 
L 189.107475 129.934959 
L 190.090928 129.934959 
L 191.028622 129.934959 
L 191.924626 129.934959 
L 192.782491 129.934959 
L 193.605331 129.934959 
L 194.395895 129.898763 
L 195.156618 129.496346 
L 195.889673 128.525224 
L 196.597001 125.742568 
L 197.280347 121.976862 
L 197.941285 117.806541 
L 198.581236 113.615289 
L 199.201494 108.819778 
L 199.803234 104.391086 
L 200.387529 99.795587 
L 200.955363 95.612075 
L 201.507638 91.454208 
L 202.045185 87.345494 
L 202.568767 83.120097 
L 203.079092 78.899827 
L 203.576816 75.130968 
L 204.062545 71.150213 
L 204.536844 67.606146 
L 205.000239 64.53812 
L 205.453219 61.365054 
L 205.896244 58.353258 
L 206.329739 56.174115 
L 206.754108 54.316641 
L 207.169727 52.745314 
L 207.576949 51.378504 
L 207.976106 50.102808 
L 208.367512 48.975429 
L 208.751462 48.344117 
L 209.128236 47.852901 
L 209.498095 47.465251 
L 209.86129 46.978278 
L 210.218057 46.71151 
L 210.568618 46.637846 
L 210.913187 46.533065 
L 211.251965 46.518487 
L 211.585142 46.501182 
L 211.912902 46.493289 
L 212.235417 46.487967 
L 212.552854 46.488101 
L 212.865368 46.486479 
L 213.173111 46.486256 
L 213.476226 46.486151 
L 213.774851 46.486106 
L 214.069116 46.486086 
L 214.359146 46.486081 
L 214.645063 46.486076 
L 214.926981 46.486076 
L 215.20501 46.486076 
L 215.479256 46.486076 
L 215.749821 46.486076 
L 216.016802 46.486076 
L 216.280293 46.486076 
L 216.540384 46.486076 
L 216.797162 46.486076 
L 217.05071 46.486076 
L 217.301108 46.486076 
L 217.548433 46.486076 
L 217.792761 46.486076 
L 218.034162 46.486076 
L 218.272707 46.486076 
L 218.508462 46.486076 
L 218.741491 46.486076 
L 218.971856 46.486076 
L 219.199619 46.486076 
L 219.424837 46.486076 
L 219.647566 46.486076 
L 219.867861 46.486076 
L 220.085774 46.486076 
L 220.301357 46.486076 
L 220.514658 46.486076 
L 220.725726 46.486076 
L 220.934606 46.486076 
L 221.141344 46.486076 
L 221.345983 46.486076 
" clip-path="url(#p1cf05c458f)" style="fill: none; stroke: #000000; stroke-width: 0.75; stroke-linecap: square"/>
   </g>
   <g id="LineCollection_1">
    <path d="M 89.729561 129.957657 
L 89.729561 129.91226 
" clip-path="url(#p1cf05c458f)" style="fill: none; stroke: #000000; stroke-width: 0.5"/>
    <path d="M 166.438623 129.957657 
L 166.438623 129.91226 
" clip-path="url(#p1cf05c458f)" style="fill: none; stroke: #000000; stroke-width: 0.5"/>
    <path d="M 173.418438 129.934959 
L 173.418438 129.74268 
" clip-path="url(#p1cf05c458f)" style="fill: none; stroke: #000000; stroke-width: 0.5"/>
    <path d="M 185.138462 130.220539 
L 185.138462 129.649378 
" clip-path="url(#p1cf05c458f)" style="fill: none; stroke: #000000; stroke-width: 0.5"/>
    <path d="M 188.660194 130.788863 
L 188.660194 129.081054 
" clip-path="url(#p1cf05c458f)" style="fill: none; stroke: #000000; stroke-width: 0.5"/>
    <path d="M 193.972272 130.216283 
L 193.972272 129.461355 
" clip-path="url(#p1cf05c458f)" style="fill: none; stroke: #000000; stroke-width: 0.5"/>
    <path d="M 195.995261 128.419428 
L 195.995261 128.374032 
" clip-path="url(#p1cf05c458f)" style="fill: none; stroke: #000000; stroke-width: 0.5"/>
    <path d="M 199.064217 118.831474 
L 199.064217 113.927171 
" clip-path="url(#p1cf05c458f)" style="fill: none; stroke: #000000; stroke-width: 0.5"/>
    <path d="M 201.320662 98.860478 
L 201.320662 96.403853 
" clip-path="url(#p1cf05c458f)" style="fill: none; stroke: #000000; stroke-width: 0.5"/>
    <path d="M 203.088211 87.383785 
L 203.088211 81.15383 
" clip-path="url(#p1cf05c458f)" style="fill: none; stroke: #000000; stroke-width: 0.5"/>
    <path d="M 207.068026 61.737409 
L 207.068026 57.000067 
" clip-path="url(#p1cf05c458f)" style="fill: none; stroke: #000000; stroke-width: 0.5"/>
    <path d="M 210.907003 49.843858 
L 210.907003 46.012473 
" clip-path="url(#p1cf05c458f)" style="fill: none; stroke: #000000; stroke-width: 0.5"/>
    <path d="M 213.173111 48.102002 
L 213.173111 45.254708 
" clip-path="url(#p1cf05c458f)" style="fill: none; stroke: #000000; stroke-width: 0.5"/>
   </g>
   <g id="line2d_60">
    <defs>
     <path id="mfa3451f352" d="M 2 0 
L -2 -0 
" style="stroke: #000000"/>
    </defs>
    <g clip-path="url(#p1cf05c458f)">
     <use xlink:href="#mfa3451f352" x="89.729561" y="129.957657" style="stroke: #000000"/>
     <use xlink:href="#mfa3451f352" x="166.438623" y="129.957657" style="stroke: #000000"/>
     <use xlink:href="#mfa3451f352" x="173.418438" y="129.934959" style="stroke: #000000"/>
     <use xlink:href="#mfa3451f352" x="185.138462" y="130.220539" style="stroke: #000000"/>
     <use xlink:href="#mfa3451f352" x="188.660194" y="130.788863" style="stroke: #000000"/>
     <use xlink:href="#mfa3451f352" x="193.972272" y="130.216283" style="stroke: #000000"/>
     <use xlink:href="#mfa3451f352" x="195.995261" y="128.419428" style="stroke: #000000"/>
     <use xlink:href="#mfa3451f352" x="199.064217" y="118.831474" style="stroke: #000000"/>
     <use xlink:href="#mfa3451f352" x="201.320662" y="98.860478" style="stroke: #000000"/>
     <use xlink:href="#mfa3451f352" x="203.088211" y="87.383785" style="stroke: #000000"/>
     <use xlink:href="#mfa3451f352" x="207.068026" y="61.737409" style="stroke: #000000"/>
     <use xlink:href="#mfa3451f352" x="210.907003" y="49.843858" style="stroke: #000000"/>
     <use xlink:href="#mfa3451f352" x="213.173111" y="48.102002" style="stroke: #000000"/>
    </g>
   </g>
   <g id="line2d_61">
    <g clip-path="url(#p1cf05c458f)">
     <use xlink:href="#mfa3451f352" x="89.729561" y="129.91226" style="stroke: #000000"/>
     <use xlink:href="#mfa3451f352" x="166.438623" y="129.91226" style="stroke: #000000"/>
     <use xlink:href="#mfa3451f352" x="173.418438" y="129.74268" style="stroke: #000000"/>
     <use xlink:href="#mfa3451f352" x="185.138462" y="129.649378" style="stroke: #000000"/>
     <use xlink:href="#mfa3451f352" x="188.660194" y="129.081054" style="stroke: #000000"/>
     <use xlink:href="#mfa3451f352" x="193.972272" y="129.461355" style="stroke: #000000"/>
     <use xlink:href="#mfa3451f352" x="195.995261" y="128.374032" style="stroke: #000000"/>
     <use xlink:href="#mfa3451f352" x="199.064217" y="113.927171" style="stroke: #000000"/>
     <use xlink:href="#mfa3451f352" x="201.320662" y="96.403853" style="stroke: #000000"/>
     <use xlink:href="#mfa3451f352" x="203.088211" y="81.15383" style="stroke: #000000"/>
     <use xlink:href="#mfa3451f352" x="207.068026" y="57.000067" style="stroke: #000000"/>
     <use xlink:href="#mfa3451f352" x="210.907003" y="46.012473" style="stroke: #000000"/>
     <use xlink:href="#mfa3451f352" x="213.173111" y="45.254708" style="stroke: #000000"/>
    </g>
   </g>
   <g id="line2d_62">
    <path d="M -1 129.934959 
L 81.145874 129.934959 
L 95.117491 129.934959 
L 103.290364 129.934959 
L 109.089109 129.934959 
L 113.586965 129.934959 
L 117.261981 129.934959 
L 120.369163 129.934959 
L 123.060726 129.934959 
L 125.434853 129.934959 
L 127.558582 129.934959 
L 129.479729 129.928681 
L 131.233598 128.564759 
L 132.847002 125.856557 
L 134.34078 122.257578 
L 135.731454 118.02484 
L 137.032343 113.357333 
L 138.254341 108.420697 
L 139.40647 103.355157 
L 140.496292 98.278789 
L 141.5302 93.289341 
L 142.513652 88.465653 
L 143.451346 83.869076 
L 144.347351 79.545021 
L 145.205216 75.524626 
L 146.028056 71.826535 
L 146.818619 68.4587 
L 147.579343 65.420177 
L 148.312397 62.702847 
L 149.019726 60.29302 
L 149.703072 58.172899 
L 150.364009 56.321873 
L 151.003961 54.717632 
L 151.624218 53.337104 
L 152.225958 52.157218 
L 152.810254 51.1555 
L 153.378088 50.310528 
L 153.930363 49.602247 
L 154.467909 49.012179 
L 154.991491 48.52353 
L 155.501817 48.121237 
L 155.999541 47.791933 
L 156.48527 47.523888 
L 156.959569 47.306909 
L 157.422964 47.132217 
L 157.875944 46.992319 
L 158.318968 46.88087 
L 158.752464 46.792543 
L 159.176833 46.722896 
L 159.592451 46.668253 
L 159.999673 46.625594 
L 160.39883 46.592452 
L 160.790236 46.566827 
L 161.174187 46.547109 
L 161.55096 46.532008 
L 161.92082 46.520495 
L 162.284015 46.511759 
L 162.640781 46.50516 
L 162.991343 46.500198 
L 163.335912 46.496482 
L 163.674689 46.493713 
L 164.007867 46.491658 
L 164.335626 46.490139 
L 164.658142 46.489022 
L 164.975578 46.488204 
L 165.288093 46.487606 
L 165.595836 46.487173 
L 165.898951 46.486859 
L 166.197575 46.486632 
L 166.49184 46.48647 
L 166.781871 46.486354 
L 167.067788 46.486272 
L 167.349705 46.486213 
L 167.627734 46.486172 
L 167.90198 46.486143 
L 168.172545 46.486122 
L 168.439526 46.486108 
L 168.703018 46.486098 
L 168.963109 46.486091 
L 169.219886 46.486087 
L 169.473434 46.486083 
L 169.723832 46.486081 
L 169.971158 46.48608 
L 170.215485 46.486079 
L 170.456887 46.486078 
L 170.695432 46.486077 
L 170.931186 46.486077 
L 171.164215 46.486077 
L 171.394581 46.486077 
L 171.622344 46.486077 
L 171.847561 46.486077 
L 172.07029 46.486077 
L 172.290585 46.486077 
L 172.508499 46.486077 
L 172.724081 46.486076 
L 172.937383 46.486076 
L 173.14845 46.486076 
L 173.357331 46.486076 
L 173.564069 46.486076 
L 173.768708 46.486076 
" clip-path="url(#p1cf05c458f)" style="fill: none; stroke: #b22222; stroke-width: 1.5; stroke-linecap: square"/>
   </g>
   <g id="line2d_63">
    <path d="M -1 129.934959 
L 81.145874 129.934959 
L 95.117491 129.934959 
L 103.290364 129.934959 
L 109.089109 129.934959 
L 113.586965 129.934959 
L 117.261981 129.934959 
L 120.369163 129.934959 
L 123.060726 129.934959 
L 125.434853 129.934959 
L 127.558582 129.934959 
L 129.479729 129.934959 
L 131.233598 129.934959 
L 132.847002 129.934959 
L 134.34078 124.770809 
L 135.731454 119.165834 
L 137.032343 113.676911 
L 138.254341 109.01706 
L 139.40647 104.168333 
L 140.496292 99.439448 
L 141.5302 94.388286 
L 142.513652 89.623714 
L 143.451346 85.26875 
L 144.347351 80.518716 
L 145.205216 76.500935 
L 146.028056 72.621381 
L 146.818619 68.87476 
L 147.579343 65.62137 
L 148.312397 62.80781 
L 149.019726 60.236676 
L 149.703072 58.174052 
L 150.364009 56.147355 
L 151.003961 54.48581 
L 151.624218 53.056593 
L 152.225958 51.887244 
L 152.810254 50.899027 
L 153.378088 50.063494 
L 153.930363 49.339248 
L 154.467909 48.811334 
L 154.991491 48.31595 
L 155.501817 47.952354 
L 155.999541 47.671008 
L 156.48527 47.406032 
L 156.959569 47.194465 
L 157.422964 47.047306 
L 157.875944 46.924728 
L 158.318968 46.831124 
L 158.752464 46.753575 
L 159.176833 46.695236 
L 159.592451 46.648182 
L 159.999673 46.611599 
L 160.39883 46.583412 
L 160.790236 46.561203 
L 161.174187 46.543948 
L 161.55096 46.530464 
L 161.92082 46.520019 
L 162.284015 46.511916 
L 162.640781 46.505863 
L 162.991343 46.501187 
L 163.335912 46.497502 
L 163.674689 46.494696 
L 164.007867 46.492587 
L 164.335626 46.491011 
L 164.658142 46.489782 
L 164.975578 46.488877 
L 165.288093 46.48818 
L 165.595836 46.487658 
L 165.898951 46.48725 
L 166.197575 46.486947 
L 166.49184 46.486723 
L 166.781871 46.486554 
L 167.067788 46.48643 
L 167.349705 46.48634 
L 167.627734 46.48627 
L 167.90198 46.486216 
L 168.172545 46.486181 
L 168.439526 46.486151 
L 168.703018 46.486131 
L 168.963109 46.486116 
L 169.219886 46.486106 
L 169.473434 46.486096 
L 169.723832 46.486091 
L 169.971158 46.486086 
L 170.215485 46.486086 
L 170.456887 46.486081 
L 170.695432 46.486081 
L 170.931186 46.486081 
L 171.164215 46.486076 
L 171.394581 46.486076 
L 171.622344 46.486076 
L 171.847561 46.486076 
L 172.07029 46.486076 
L 172.290585 46.486076 
L 172.508499 46.486076 
L 172.724081 46.486076 
L 172.937383 46.486076 
L 173.14845 46.486076 
L 173.357331 46.486076 
L 173.564069 46.486076 
L 173.768708 46.486076 
" clip-path="url(#p1cf05c458f)" style="fill: none; stroke: #000000; stroke-width: 0.75; stroke-linecap: square"/>
   </g>
   <g id="line2d_64">
    <path d="M -1 129.934959 
L 81.145874 129.934959 
L 95.117491 129.934959 
L 103.290364 129.934959 
L 109.089109 129.934959 
L 113.586965 129.934959 
L 117.261981 129.934959 
L 120.369163 129.934959 
L 123.060726 129.873287 
L 125.434853 129.395853 
L 127.558582 128.33704 
L 129.479729 126.673958 
L 131.233598 124.298862 
L 132.847002 121.11641 
L 134.34078 116.17089 
L 135.731454 111.706529 
L 137.032343 106.321855 
L 138.254341 100.426621 
L 139.40647 94.063598 
L 140.496292 87.976414 
L 141.5302 81.913409 
L 142.513652 76.531898 
L 143.451346 71.984418 
L 144.347351 67.405318 
L 145.205216 63.871821 
L 146.028056 60.697024 
L 146.818619 57.769621 
L 147.579343 55.467671 
L 148.312397 53.653237 
L 149.019726 52.084645 
L 149.703072 50.974854 
L 150.364009 49.866974 
L 151.003961 49.05935 
L 151.624218 48.41422 
L 152.225958 47.938771 
L 152.810254 47.5524 
L 153.378088 47.250581 
L 153.930363 46.984794 
L 154.467909 46.855287 
L 154.991491 46.708297 
L 155.501817 46.639269 
L 155.999541 46.599482 
L 156.48527 46.539676 
L 156.959569 46.500088 
L 157.422964 46.493726 
L 157.875944 46.488161 
L 158.318968 46.488374 
L 158.752464 46.486151 
L 159.176833 46.486484 
L 159.592451 46.486086 
L 159.999673 46.486081 
L 160.39883 46.486081 
L 160.790236 46.486076 
L 161.174187 46.486076 
L 161.55096 46.486076 
L 161.92082 46.486076 
L 162.284015 46.486076 
L 162.640781 46.486076 
L 162.991343 46.486076 
L 163.335912 46.486076 
L 163.674689 46.486076 
L 164.007867 46.486076 
L 164.335626 46.486076 
L 164.658142 46.486076 
L 164.975578 46.486076 
L 165.288093 46.486076 
L 165.595836 46.486076 
L 165.898951 46.486076 
L 166.197575 46.486076 
L 166.49184 46.486076 
L 166.781871 46.486076 
L 167.067788 46.486076 
L 167.349705 46.486076 
L 167.627734 46.486076 
L 167.90198 46.486076 
L 168.172545 46.486076 
L 168.439526 46.486076 
L 168.703018 46.486076 
L 168.963109 46.486076 
L 169.219886 46.486076 
L 169.473434 46.486076 
L 169.723832 46.486076 
L 169.971158 46.486076 
L 170.215485 46.486076 
L 170.456887 46.486076 
L 170.695432 46.486076 
L 170.931186 46.486076 
L 171.164215 46.486076 
L 171.394581 46.486076 
L 171.622344 46.486076 
L 171.847561 46.486076 
L 172.07029 46.486076 
L 172.290585 46.486076 
L 172.508499 46.486076 
L 172.724081 46.486076 
L 172.937383 46.486076 
L 173.14845 46.486076 
L 173.357331 46.486076 
L 173.564069 46.486076 
L 173.768708 46.486076 
" clip-path="url(#p1cf05c458f)" style="fill: none; stroke: #000000; stroke-width: 0.75; stroke-linecap: square"/>
   </g>
   <g id="LineCollection_2">
    <path d="M 42.252491 130.908381 
L 42.252491 128.961536 
" clip-path="url(#p1cf05c458f)" style="fill: none; stroke: #000000; stroke-width: 0.5"/>
    <path d="M 107.925236 130.908194 
L 107.925236 128.961723 
" clip-path="url(#p1cf05c458f)" style="fill: none; stroke: #000000; stroke-width: 0.5"/>
    <path d="M 115.838017 132.058416 
L 115.838017 127.811502 
" clip-path="url(#p1cf05c458f)" style="fill: none; stroke: #000000; stroke-width: 0.5"/>
    <path d="M 121.7021 132.058416 
L 121.7021 127.811502 
" clip-path="url(#p1cf05c458f)" style="fill: none; stroke: #000000; stroke-width: 0.5"/>
    <path d="M 126.082195 132.4122 
L 126.082195 127.457717 
" clip-path="url(#p1cf05c458f)" style="fill: none; stroke: #000000; stroke-width: 0.5"/>
    <path d="M 129.809634 132.148781 
L 129.809634 127.01469 
" clip-path="url(#p1cf05c458f)" style="fill: none; stroke: #000000; stroke-width: 0.5"/>
    <path d="M 135.477065 123.248073 
L 135.477065 118.430871 
" clip-path="url(#p1cf05c458f)" style="fill: none; stroke: #000000; stroke-width: 0.5"/>
    <path d="M 139.736376 113.12869 
L 139.736376 101.528711 
" clip-path="url(#p1cf05c458f)" style="fill: none; stroke: #000000; stroke-width: 0.5"/>
    <path d="M 141.787988 104.577458 
L 141.787988 94.714752 
" clip-path="url(#p1cf05c458f)" style="fill: none; stroke: #000000; stroke-width: 0.5"/>
    <path d="M 143.583957 96.82641 
L 143.583957 85.334496 
" clip-path="url(#p1cf05c458f)" style="fill: none; stroke: #000000; stroke-width: 0.5"/>
    <path d="M 148.015617 76.459071 
L 148.015617 70.556168 
" clip-path="url(#p1cf05c458f)" style="fill: none; stroke: #000000; stroke-width: 0.5"/>
    <path d="M 151.646381 54.688955 
L 151.646381 50.999219 
" clip-path="url(#p1cf05c458f)" style="fill: none; stroke: #000000; stroke-width: 0.5"/>
    <path d="M 157.456198 48.076703 
L 157.456198 45.955119 
" clip-path="url(#p1cf05c458f)" style="fill: none; stroke: #000000; stroke-width: 0.5"/>
    <path d="M 165.595836 47.813097 
L 165.595836 45.335668 
" clip-path="url(#p1cf05c458f)" style="fill: none; stroke: #000000; stroke-width: 0.5"/>
   </g>
   <g id="line2d_65">
    <g clip-path="url(#p1cf05c458f)">
     <use xlink:href="#mfa3451f352" x="42.252491" y="130.908381" style="stroke: #000000"/>
     <use xlink:href="#mfa3451f352" x="107.925236" y="130.908194" style="stroke: #000000"/>
     <use xlink:href="#mfa3451f352" x="115.838017" y="132.058416" style="stroke: #000000"/>
     <use xlink:href="#mfa3451f352" x="121.7021" y="132.058416" style="stroke: #000000"/>
     <use xlink:href="#mfa3451f352" x="126.082195" y="132.4122" style="stroke: #000000"/>
     <use xlink:href="#mfa3451f352" x="129.809634" y="132.148781" style="stroke: #000000"/>
     <use xlink:href="#mfa3451f352" x="135.477065" y="123.248073" style="stroke: #000000"/>
     <use xlink:href="#mfa3451f352" x="139.736376" y="113.12869" style="stroke: #000000"/>
     <use xlink:href="#mfa3451f352" x="141.787988" y="104.577458" style="stroke: #000000"/>
     <use xlink:href="#mfa3451f352" x="143.583957" y="96.82641" style="stroke: #000000"/>
     <use xlink:href="#mfa3451f352" x="148.015617" y="76.459071" style="stroke: #000000"/>
     <use xlink:href="#mfa3451f352" x="151.646381" y="54.688955" style="stroke: #000000"/>
     <use xlink:href="#mfa3451f352" x="157.456198" y="48.076703" style="stroke: #000000"/>
     <use xlink:href="#mfa3451f352" x="165.595836" y="47.813097" style="stroke: #000000"/>
    </g>
   </g>
   <g id="line2d_66">
    <g clip-path="url(#p1cf05c458f)">
     <use xlink:href="#mfa3451f352" x="42.252491" y="128.961536" style="stroke: #000000"/>
     <use xlink:href="#mfa3451f352" x="107.925236" y="128.961723" style="stroke: #000000"/>
     <use xlink:href="#mfa3451f352" x="115.838017" y="127.811502" style="stroke: #000000"/>
     <use xlink:href="#mfa3451f352" x="121.7021" y="127.811502" style="stroke: #000000"/>
     <use xlink:href="#mfa3451f352" x="126.082195" y="127.457717" style="stroke: #000000"/>
     <use xlink:href="#mfa3451f352" x="129.809634" y="127.01469" style="stroke: #000000"/>
     <use xlink:href="#mfa3451f352" x="135.477065" y="118.430871" style="stroke: #000000"/>
     <use xlink:href="#mfa3451f352" x="139.736376" y="101.528711" style="stroke: #000000"/>
     <use xlink:href="#mfa3451f352" x="141.787988" y="94.714752" style="stroke: #000000"/>
     <use xlink:href="#mfa3451f352" x="143.583957" y="85.334496" style="stroke: #000000"/>
     <use xlink:href="#mfa3451f352" x="148.015617" y="70.556168" style="stroke: #000000"/>
     <use xlink:href="#mfa3451f352" x="151.646381" y="50.999219" style="stroke: #000000"/>
     <use xlink:href="#mfa3451f352" x="157.456198" y="45.955119" style="stroke: #000000"/>
     <use xlink:href="#mfa3451f352" x="165.595836" y="45.335668" style="stroke: #000000"/>
    </g>
   </g>
   <g id="patch_3">
    <path d="M 33.297816 150.797179 
L 33.297816 4.761635 
" style="fill: none; stroke: #000000; stroke-width: 0.8; stroke-linejoin: miter; stroke-linecap: square"/>
   </g>
   <g id="patch_4">
    <path d="M 230.300658 150.797179 
L 230.300658 4.761635 
" style="fill: none; stroke: #000000; stroke-width: 0.8; stroke-linejoin: miter; stroke-linecap: square"/>
   </g>
   <g id="patch_5">
    <path d="M 33.297816 150.797179 
L 230.300658 150.797179 
" style="fill: none; stroke: #000000; stroke-width: 0.8; stroke-linejoin: miter; stroke-linecap: square"/>
   </g>
   <g id="patch_6">
    <path d="M 33.297816 4.761635 
L 230.300658 4.761635 
" style="fill: none; stroke: #000000; stroke-width: 0.8; stroke-linejoin: miter; stroke-linecap: square"/>
   </g>
   <g id="legend_1">
    <g id="patch_7">
     <path d="M 40.297816 26.923527 
L 215.347158 26.923527 
Q 217.347158 26.923527 217.347158 24.923527 
L 217.347158 11.761635 
Q 217.347158 9.761635 215.347158 9.761635 
L 40.297816 9.761635 
Q 38.297816 9.761635 38.297816 11.761635 
L 38.297816 24.923527 
Q 38.297816 26.923527 40.297816 26.923527 
z
" style="fill: #ffffff; opacity: 0.8; stroke: #cccccc; stroke-linejoin: miter"/>
    </g>
    <g id="PathCollection_1">
     <defs>
      <path id="m6e64c67cee" d="M 0 -3.535534 
L -3.061862 -1.767767 
L -3.061862 1.767767 
L -0 3.535534 
L 3.061862 1.767767 
L 3.061862 -1.767767 
z
" style="stroke: #000000"/>
     </defs>
     <g>
      <use xlink:href="#m6e64c67cee" x="52.297816" y="18.136635" style="fill: #d95f02; stroke: #000000"/>
     </g>
    </g>
    <g id="text_11">
     <!-- \textbf{$T = 1100$[$^\circ C $]} -->
     <g transform="translate(70.297816 20.761635) scale(0.1 -0.1)">
      <defs>
       <path id="NewTXBMI-5a" d="M 3930 3057 
L 4160 4288 
L 634 4288 
L 390 3192 
L 550 3147 
C 883 3792 1286 4057 1939 4057 
L 992 621 
C 902 288 736 160 410 160 
L 320 160 
L 320 0 
L 2438 0 
L 2438 160 
C 1984 160 1907 199 1907 404 
C 1907 501 1933 629 1978 803 
L 2874 4057 
C 3475 4057 3725 3781 3757 3070 
L 3930 3057 
z
" transform="scale(0.015625)"/>
       <path id="txbmiaX-3d" d="M 3930 2137 
L 3930 2752 
L 397 2752 
L 397 2137 
L 3930 2137 
z
M 3930 576 
L 3930 1190 
L 397 1190 
L 397 576 
L 3930 576 
z
" transform="scale(0.015625)"/>
       <path id="TeXGyreTermesX-Bold-5b" d="M 1926 -960 
L 1926 -750 
L 1414 -750 
C 1152 -750 1094 -686 1094 -413 
L 1094 3650 
C 1094 4020 1165 4096 1523 4096 
L 1926 4096 
L 1926 4306 
L 429 4306 
L 429 -960 
L 1926 -960 
z
" transform="scale(0.015625)"/>
       <path id="txbsys-e" d="M 2955 1640 
C 2955 2347 2386 2915 1676 2915 
C 960 2915 397 2347 397 1640 
C 397 926 960 365 1676 365 
C 2386 365 2955 926 2955 1640 
z
M 2482 1640 
C 2482 1188 2117 838 1676 838 
C 1222 838 870 1188 870 1640 
C 870 2078 1222 2441 1676 2441 
C 2117 2441 2482 2078 2482 1640 
z
" transform="scale(0.015625)"/>
       <path id="NewTXBMI-49" d="M 3686 828 
L 3494 969 
C 3174 590 2995 442 2726 326 
C 2547 249 2349 211 2150 211 
C 1549 211 1190 628 1190 1329 
C 1190 2253 1638 3344 2214 3852 
C 2451 4051 2714 4160 2982 4160 
C 3501 4160 3821 3775 3821 3146 
C 3821 3062 3814 3004 3802 2921 
L 4006 2882 
L 4333 4384 
L 4141 4384 
C 4051 4243 3994 4198 3898 4198 
C 3846 4198 3750 4218 3654 4250 
C 3366 4339 3078 4384 2816 4384 
C 1389 4384 205 3094 205 1534 
C 205 539 902 -128 1946 -128 
C 2400 -128 2822 13 3187 289 
C 3373 431 3482 546 3686 828 
z
" transform="scale(0.015625)"/>
       <path id="TeXGyreTermesX-Bold-5d" d="M 1702 -960 
L 1702 4306 
L 205 4306 
L 205 4096 
L 608 4096 
C 966 4096 1037 4020 1037 3650 
L 1037 -413 
C 1037 -693 986 -750 717 -750 
L 205 -750 
L 205 -960 
L 1702 -960 
z
" transform="scale(0.015625)"/>
      </defs>
      <use xlink:href="#NewTXBMI-5a" transform="scale(0.996264)"/>
      <use xlink:href="#txbmiaX-3d" transform="translate(94.32405 0) scale(0.996264)"/>
      <use xlink:href="#TeXGyreTermesX-Bold-31" transform="translate(189.34539 0) scale(0.996264)"/>
      <use xlink:href="#TeXGyreTermesX-Bold-31" transform="translate(239.15859 0) scale(0.996264)"/>
      <use xlink:href="#TeXGyreTermesX-Bold-30" transform="translate(288.971791 0) scale(0.996264)"/>
      <use xlink:href="#TeXGyreTermesX-Bold-30" transform="translate(338.784991 0) scale(0.996264)"/>
      <use xlink:href="#TeXGyreTermesX-Bold-5b" transform="translate(388.598192 0) scale(0.996264)"/>
      <use xlink:href="#txbsys-e" transform="translate(421.773802 36.164371) scale(0.727268)"/>
      <use xlink:href="#NewTXBMI-49" transform="translate(460.77928 0) scale(0.996264)"/>
      <use xlink:href="#TeXGyreTermesX-Bold-5d" transform="translate(532.261192 0) scale(0.996264)"/>
     </g>
    </g>
    <g id="PathCollection_2">
     <defs>
      <path id="mf565e6b0f3" d="M 0 -3.535534 
L -3.061862 -1.767767 
L -3.061862 1.767767 
L -0 3.535534 
L 3.061862 1.767767 
L 3.061862 -1.767767 
z
" style="stroke: #000000"/>
     </defs>
     <g>
      <use xlink:href="#mf565e6b0f3" x="157.289694" y="18.136635" style="fill: #7570b3; stroke: #000000"/>
     </g>
    </g>
    <g id="text_12">
     <!-- \textbf{$1250$[$^\circ C $]} -->
     <g transform="translate(175.289694 20.761635) scale(0.1 -0.1)">
      <use xlink:href="#TeXGyreTermesX-Bold-31" transform="scale(0.996264)"/>
      <use xlink:href="#TeXGyreTermesX-Bold-32" transform="translate(49.8132 0) scale(0.996264)"/>
      <use xlink:href="#TeXGyreTermesX-Bold-35" transform="translate(99.626401 0) scale(0.996264)"/>
      <use xlink:href="#TeXGyreTermesX-Bold-30" transform="translate(149.439601 0) scale(0.996264)"/>
      <use xlink:href="#TeXGyreTermesX-Bold-5b" transform="translate(199.252802 0) scale(0.996264)"/>
      <use xlink:href="#txbsys-e" transform="translate(232.428412 36.164371) scale(0.727268)"/>
      <use xlink:href="#NewTXBMI-49" transform="translate(271.43389 0) scale(0.996264)"/>
      <use xlink:href="#TeXGyreTermesX-Bold-5d" transform="translate(342.915802 0) scale(0.996264)"/>
     </g>
    </g>
   </g>
   <g id="PathCollection_3">
    <g clip-path="url(#p1cf05c458f)">
     <use xlink:href="#m6e64c67cee" x="89.729561" y="129.934959" style="fill: #d95f02; stroke: #000000"/>
     <use xlink:href="#m6e64c67cee" x="166.438623" y="129.934959" style="fill: #d95f02; stroke: #000000"/>
     <use xlink:href="#m6e64c67cee" x="173.418438" y="129.838819" style="fill: #d95f02; stroke: #000000"/>
     <use xlink:href="#m6e64c67cee" x="185.138462" y="129.934959" style="fill: #d95f02; stroke: #000000"/>
     <use xlink:href="#m6e64c67cee" x="188.660194" y="129.934959" style="fill: #d95f02; stroke: #000000"/>
     <use xlink:href="#m6e64c67cee" x="193.972272" y="129.838819" style="fill: #d95f02; stroke: #000000"/>
     <use xlink:href="#m6e64c67cee" x="195.995261" y="128.39673" style="fill: #d95f02; stroke: #000000"/>
     <use xlink:href="#m6e64c67cee" x="199.064217" y="116.379322" style="fill: #d95f02; stroke: #000000"/>
     <use xlink:href="#m6e64c67cee" x="201.320662" y="97.632165" style="fill: #d95f02; stroke: #000000"/>
     <use xlink:href="#m6e64c67cee" x="203.088211" y="84.268808" style="fill: #d95f02; stroke: #000000"/>
     <use xlink:href="#m6e64c67cee" x="207.068026" y="59.368738" style="fill: #d95f02; stroke: #000000"/>
     <use xlink:href="#m6e64c67cee" x="210.907003" y="47.928165" style="fill: #d95f02; stroke: #000000"/>
     <use xlink:href="#m6e64c67cee" x="213.173111" y="46.678355" style="fill: #d95f02; stroke: #000000"/>
    </g>
   </g>
   <g id="PathCollection_4">
    <g clip-path="url(#p1cf05c458f)">
     <use xlink:href="#mf565e6b0f3" x="42.252491" y="129.934959" style="fill: #7570b3; stroke: #000000"/>
     <use xlink:href="#mf565e6b0f3" x="107.925236" y="129.934959" style="fill: #7570b3; stroke: #000000"/>
     <use xlink:href="#mf565e6b0f3" x="115.838017" y="129.934959" style="fill: #7570b3; stroke: #000000"/>
     <use xlink:href="#mf565e6b0f3" x="121.7021" y="129.934959" style="fill: #7570b3; stroke: #000000"/>
     <use xlink:href="#mf565e6b0f3" x="126.082195" y="129.934959" style="fill: #7570b3; stroke: #000000"/>
     <use xlink:href="#mf565e6b0f3" x="129.809634" y="129.581736" style="fill: #7570b3; stroke: #000000"/>
     <use xlink:href="#mf565e6b0f3" x="135.477065" y="120.839472" style="fill: #7570b3; stroke: #000000"/>
     <use xlink:href="#mf565e6b0f3" x="139.736376" y="107.328701" style="fill: #7570b3; stroke: #000000"/>
     <use xlink:href="#mf565e6b0f3" x="141.787988" y="99.646105" style="fill: #7570b3; stroke: #000000"/>
     <use xlink:href="#mf565e6b0f3" x="143.583957" y="91.080453" style="fill: #7570b3; stroke: #000000"/>
     <use xlink:href="#mf565e6b0f3" x="148.015617" y="73.507619" style="fill: #7570b3; stroke: #000000"/>
     <use xlink:href="#mf565e6b0f3" x="151.646381" y="52.844087" style="fill: #7570b3; stroke: #000000"/>
     <use xlink:href="#mf565e6b0f3" x="157.456198" y="47.015911" style="fill: #7570b3; stroke: #000000"/>
     <use xlink:href="#mf565e6b0f3" x="165.595836" y="46.574382" style="fill: #7570b3; stroke: #000000"/>
    </g>
   </g>
  </g>
 </g>
 <defs>
  <clipPath id="p1cf05c458f">
   <rect x="33.297816" y="4.761635" width="197.002842" height="146.035544"/>
  </clipPath>
 </defs>
</svg>
