<?xml version="1.0" encoding="utf-8" standalone="no"?>
<!DOCTYPE svg PUBLIC "-//W3C//DTD SVG 1.1//EN"
  "http://www.w3.org/Graphics/SVG/1.1/DTD/svg11.dtd">
<svg xmlns:xlink="http://www.w3.org/1999/xlink" width="580.646755pt" height="409.522708pt" viewBox="0 0 580.646755 409.522708" xmlns="http://www.w3.org/2000/svg" version="1.1">
 <metadata>
  <rdf:RDF xmlns:dc="http://purl.org/dc/elements/1.1/" xmlns:cc="http://creativecommons.org/ns#" xmlns:rdf="http://www.w3.org/1999/02/22-rdf-syntax-ns#">
   <cc:Work>
    <dc:type rdf:resource="http://purl.org/dc/dcmitype/StillImage"/>
    <dc:date>2024-12-29T15:58:26.307688</dc:date>
    <dc:format>image/svg+xml</dc:format>
    <dc:creator>
     <cc:Agent>
      <dc:title>Matplotlib v3.9.0, https://matplotlib.org/</dc:title>
     </cc:Agent>
    </dc:creator>
   </cc:Work>
  </rdf:RDF>
 </metadata>
 <defs>
  <style type="text/css">*{stroke-linejoin: round; stroke-linecap: butt}</style>
 </defs>
 <g id="figure_1">
  <g id="patch_1">
   <path d="M 0 409.522708 
L 580.646755 409.522708 
L 580.646755 0 
L 0 0 
z
" style="fill: #ffffff"/>
  </g>
  <g id="axes_1">
   <g id="patch_2">
    <path d="M 48.926755 197.28 
L 573.446755 197.28 
L 573.446755 7.2 
L 48.926755 7.2 
z
" style="fill: #ffffff"/>
   </g>
   <g id="matplotlib.axis_1">
    <g id="xtick_1">
     <g id="line2d_1">
      <defs>
       <path id="m04d10a595c" d="M 0 0 
L 0 3.5 
" style="stroke: #000000; stroke-width: 0.8"/>
      </defs>
      <g>
       <use xlink:href="#m04d10a595c" x="72.768573" y="197.28" style="stroke: #000000; stroke-width: 0.8"/>
      </g>
     </g>
     <g id="text_1">
      <!-- $\mathdefault{0}$ -->
      <g transform="translate(70.277913 211.119343) scale(0.1 -0.1)">
       <defs>
        <path id="TeXGyreTermesX-Bold-30" d="M 3046 2166 
C 3046 3440 2426 4403 1600 4403 
C 1184 4403 762 4123 499 3664 
C 294 3313 154 2714 154 2185 
C 154 873 755 -64 1606 -64 
C 2432 -64 3046 886 3046 2166 
z
M 2035 1434 
C 2035 1058 1984 561 1926 389 
C 1856 203 1754 114 1606 114 
C 1286 114 1165 491 1165 1434 
L 1165 2892 
C 1165 3855 1286 4224 1594 4224 
C 1907 4224 2035 3829 2035 2892 
L 2035 1434 
z
" transform="scale(0.015625)"/>
       </defs>
       <use xlink:href="#TeXGyreTermesX-Bold-30" transform="scale(0.996264)"/>
      </g>
     </g>
    </g>
    <g id="xtick_2">
     <g id="line2d_2">
      <g>
       <use xlink:href="#m04d10a595c" x="132.373118" y="197.28" style="stroke: #000000; stroke-width: 0.8"/>
      </g>
     </g>
     <g id="text_2">
      <!-- $\mathdefault{5}$ -->
      <g transform="translate(129.882458 211.119343) scale(0.1 -0.1)">
       <defs>
        <path id="TeXGyreTermesX-Bold-35" d="M 3008 4288 
L 947 4288 
L 326 2093 
C 934 2049 1197 2010 1478 1921 
C 2048 1743 2387 1381 2387 960 
C 2387 604 2106 324 1747 324 
C 1600 324 1427 400 1171 591 
C 896 795 704 877 538 877 
C 307 877 141 718 141 496 
C 141 159 512 -64 1082 -64 
C 2138 -64 2886 575 2886 1476 
C 2886 2140 2477 2652 1779 2850 
C 1536 2920 1338 2946 813 2946 
L 954 3481 
L 2733 3481 
L 3008 4288 
z
" transform="scale(0.015625)"/>
       </defs>
       <use xlink:href="#TeXGyreTermesX-Bold-35" transform="scale(0.996264)"/>
      </g>
     </g>
    </g>
    <g id="xtick_3">
     <g id="line2d_3">
      <g>
       <use xlink:href="#m04d10a595c" x="191.977664" y="197.28" style="stroke: #000000; stroke-width: 0.8"/>
      </g>
     </g>
     <g id="text_3">
      <!-- $\mathdefault{10}$ -->
      <g transform="translate(186.996344 211.119343) scale(0.1 -0.1)">
       <defs>
        <path id="TeXGyreTermesX-Bold-31" d="M 2829 0 
L 2829 159 
C 2246 159 2138 255 2138 746 
L 2138 4384 
L 2029 4384 
L 416 3686 
L 416 3521 
C 474 3540 525 3559 544 3572 
C 717 3635 877 3680 960 3680 
C 1120 3680 1190 3540 1190 3241 
L 1190 790 
C 1190 267 1062 159 429 159 
L 429 0 
L 2829 0 
z
" transform="scale(0.015625)"/>
       </defs>
       <use xlink:href="#TeXGyreTermesX-Bold-31" transform="scale(0.996264)"/>
       <use xlink:href="#TeXGyreTermesX-Bold-30" transform="translate(49.8132 0) scale(0.996264)"/>
      </g>
     </g>
    </g>
    <g id="xtick_4">
     <g id="line2d_4">
      <g>
       <use xlink:href="#m04d10a595c" x="251.582209" y="197.28" style="stroke: #000000; stroke-width: 0.8"/>
      </g>
     </g>
     <g id="text_4">
      <!-- $\mathdefault{15}$ -->
      <g transform="translate(246.600889 211.119343) scale(0.1 -0.1)">
       <use xlink:href="#TeXGyreTermesX-Bold-31" transform="scale(0.996264)"/>
       <use xlink:href="#TeXGyreTermesX-Bold-35" transform="translate(49.8132 0) scale(0.996264)"/>
      </g>
     </g>
    </g>
    <g id="xtick_5">
     <g id="line2d_5">
      <g>
       <use xlink:href="#m04d10a595c" x="311.186755" y="197.28" style="stroke: #000000; stroke-width: 0.8"/>
      </g>
     </g>
     <g id="text_5">
      <!-- $\mathdefault{20}$ -->
      <g transform="translate(306.205435 211.119343) scale(0.1 -0.1)">
       <defs>
        <path id="TeXGyreTermesX-Bold-32" d="M 3059 1341 
L 2906 1341 
C 2720 884 2643 846 1990 846 
L 1024 846 
L 2061 1824 
C 2566 2301 2790 2726 2790 3210 
C 2790 3889 2298 4373 1606 4373 
C 1286 4373 979 4245 755 4016 
C 506 3768 378 3552 198 3075 
L 378 3075 
C 576 3469 813 3648 1158 3648 
C 1440 3648 1651 3527 1792 3298 
C 1869 3164 1920 2987 1920 2841 
C 1920 2561 1798 2211 1594 1900 
C 1267 1405 1043 1137 109 146 
L 109 0 
L 2771 0 
L 3059 1341 
z
" transform="scale(0.015625)"/>
       </defs>
       <use xlink:href="#TeXGyreTermesX-Bold-32" transform="scale(0.996264)"/>
       <use xlink:href="#TeXGyreTermesX-Bold-30" transform="translate(49.8132 0) scale(0.996264)"/>
      </g>
     </g>
    </g>
    <g id="xtick_6">
     <g id="line2d_6">
      <g>
       <use xlink:href="#m04d10a595c" x="370.7913" y="197.28" style="stroke: #000000; stroke-width: 0.8"/>
      </g>
     </g>
     <g id="text_6">
      <!-- $\mathdefault{25}$ -->
      <g transform="translate(365.80998 211.119343) scale(0.1 -0.1)">
       <use xlink:href="#TeXGyreTermesX-Bold-32" transform="scale(0.996264)"/>
       <use xlink:href="#TeXGyreTermesX-Bold-35" transform="translate(49.8132 0) scale(0.996264)"/>
      </g>
     </g>
    </g>
    <g id="xtick_7">
     <g id="line2d_7">
      <g>
       <use xlink:href="#m04d10a595c" x="430.395846" y="197.28" style="stroke: #000000; stroke-width: 0.8"/>
      </g>
     </g>
     <g id="text_7">
      <!-- $\mathdefault{30}$ -->
      <g transform="translate(425.414526 211.119343) scale(0.1 -0.1)">
       <defs>
        <path id="TeXGyreTermesX-Bold-33" d="M 2995 1596 
C 2995 1889 2899 2164 2714 2387 
C 2579 2540 2470 2617 2214 2732 
C 2624 2981 2746 3165 2746 3541 
C 2746 4090 2355 4416 1702 4416 
C 1069 4416 589 4097 237 3440 
L 371 3364 
C 614 3753 826 3900 1158 3900 
C 1562 3900 1811 3645 1811 3242 
C 1811 2822 1587 2598 979 2406 
L 979 2297 
C 1510 2112 1722 2004 1952 1786 
C 2150 1601 2266 1314 2266 1007 
C 2266 548 2022 254 1638 254 
C 1485 254 1363 324 1152 528 
C 902 778 710 880 518 880 
C 275 880 102 728 102 510 
C 102 166 493 -64 1082 -64 
C 2150 -64 2995 664 2995 1596 
z
" transform="scale(0.015625)"/>
       </defs>
       <use xlink:href="#TeXGyreTermesX-Bold-33" transform="scale(0.996264)"/>
       <use xlink:href="#TeXGyreTermesX-Bold-30" transform="translate(49.8132 0) scale(0.996264)"/>
      </g>
     </g>
    </g>
    <g id="xtick_8">
     <g id="line2d_8">
      <g>
       <use xlink:href="#m04d10a595c" x="490.000391" y="197.28" style="stroke: #000000; stroke-width: 0.8"/>
      </g>
     </g>
     <g id="text_8">
      <!-- $\mathdefault{35}$ -->
      <g transform="translate(485.019071 211.119343) scale(0.1 -0.1)">
       <use xlink:href="#TeXGyreTermesX-Bold-33" transform="scale(0.996264)"/>
       <use xlink:href="#TeXGyreTermesX-Bold-35" transform="translate(49.8132 0) scale(0.996264)"/>
      </g>
     </g>
    </g>
    <g id="xtick_9">
     <g id="line2d_9">
      <g>
       <use xlink:href="#m04d10a595c" x="549.604936" y="197.28" style="stroke: #000000; stroke-width: 0.8"/>
      </g>
     </g>
     <g id="text_9">
      <!-- $\mathdefault{40}$ -->
      <g transform="translate(544.623616 211.119343) scale(0.1 -0.1)">
       <defs>
        <path id="TeXGyreTermesX-Bold-34" d="M 3040 896 
L 3040 1602 
L 2637 1602 
L 2637 4352 
L 2125 4352 
L 1747 3863 
C 928 2803 506 2219 122 1615 
L 122 896 
L 1709 896 
L 1709 -32 
L 2637 -32 
L 2637 896 
L 3040 896 
z
M 1722 1602 
L 384 1602 
L 1722 3488 
L 1722 1602 
z
" transform="scale(0.015625)"/>
       </defs>
       <use xlink:href="#TeXGyreTermesX-Bold-34" transform="scale(0.996264)"/>
       <use xlink:href="#TeXGyreTermesX-Bold-30" transform="translate(49.8132 0) scale(0.996264)"/>
      </g>
     </g>
    </g>
    <g id="text_10">
     <!-- \textbf{$t$ [hr]} -->
     <g transform="translate(297.814894 225.488448) scale(0.12 -0.12)">
      <defs>
       <path id="NewTXBMI-74" d="M 1440 837 
L 1299 926 
C 1082 588 915 415 813 415 
C 762 415 710 460 710 511 
C 710 632 826 1073 1056 1864 
L 1267 2624 
L 1798 2624 
L 1798 2893 
L 1338 2893 
L 1587 3808 
L 1363 3808 
C 1018 3303 698 3037 192 2848 
L 192 2624 
L 518 2624 
L 83 1105 
C -13 773 -70 499 -70 383 
C -70 135 109 -32 378 -32 
C 762 -32 1018 180 1440 837 
z
" transform="scale(0.015625)"/>
       <path id="TeXGyreTermesX-Bold-5b" d="M 1926 -960 
L 1926 -750 
L 1414 -750 
C 1152 -750 1094 -686 1094 -413 
L 1094 3650 
C 1094 4020 1165 4096 1523 4096 
L 1926 4096 
L 1926 4306 
L 429 4306 
L 429 -960 
L 1926 -960 
z
" transform="scale(0.015625)"/>
       <path id="TeXGyreTermesX-Bold-68" d="M 3418 -32 
L 3418 121 
C 3187 140 3104 235 3104 503 
L 3104 2086 
C 3104 2635 2765 2986 2240 2986 
C 1901 2986 1664 2859 1331 2490 
L 1331 4288 
L 102 4288 
L 102 4134 
C 397 4076 442 4024 442 3763 
L 442 504 
C 442 236 390 178 102 121 
L 102 -32 
L 1645 -32 
L 1645 121 
C 1408 152 1331 249 1331 485 
L 1331 2190 
C 1331 2216 1376 2279 1440 2336 
C 1581 2484 1734 2560 1882 2560 
C 2106 2560 2214 2387 2214 2030 
L 2214 484 
C 2214 249 2131 146 1914 121 
L 1914 -32 
L 3418 -32 
z
" transform="scale(0.015625)"/>
       <path id="TeXGyreTermesX-Bold-72" d="M 2778 2512 
C 2778 2798 2560 3008 2259 3008 
C 1939 3008 1696 2836 1395 2410 
L 1395 2932 
L 186 2932 
L 186 2779 
C 461 2741 531 2658 531 2404 
L 531 533 
C 531 272 467 203 186 152 
L 186 0 
L 1888 0 
L 1888 165 
C 1498 165 1421 248 1421 645 
L 1421 1854 
C 1421 2186 1600 2461 1811 2461 
C 1862 2461 1920 2417 1990 2315 
C 2112 2143 2208 2086 2374 2086 
C 2611 2086 2778 2264 2778 2512 
z
" transform="scale(0.015625)"/>
       <path id="TeXGyreTermesX-Bold-5d" d="M 1702 -960 
L 1702 4306 
L 205 4306 
L 205 4096 
L 608 4096 
C 966 4096 1037 4020 1037 3650 
L 1037 -413 
C 1037 -693 986 -750 717 -750 
L 205 -750 
L 205 -960 
L 1702 -960 
z
" transform="scale(0.015625)"/>
      </defs>
      <use xlink:href="#NewTXBMI-74" transform="scale(0.996264)"/>
      <use xlink:href="#TeXGyreTermesX-Bold-5b" transform="translate(56.886681 0) scale(0.996264)"/>
      <use xlink:href="#TeXGyreTermesX-Bold-68" transform="translate(90.062291 0) scale(0.996264)"/>
      <use xlink:href="#TeXGyreTermesX-Bold-72" transform="translate(145.454545 0) scale(0.996264)"/>
      <use xlink:href="#TeXGyreTermesX-Bold-5d" transform="translate(189.688692 0) scale(0.996264)"/>
     </g>
    </g>
   </g>
   <g id="matplotlib.axis_2">
    <g id="ytick_1">
     <g id="line2d_10">
      <defs>
       <path id="m03e99a496b" d="M 0 0 
L -3.5 0 
" style="stroke: #000000; stroke-width: 0.8"/>
      </defs>
      <g>
       <use xlink:href="#m03e99a496b" x="48.926755" y="188.64" style="stroke: #000000; stroke-width: 0.8"/>
      </g>
     </g>
     <g id="text_11">
      <!-- $\mathdefault{0.0}$ -->
      <g transform="translate(29.144701 192.059671) scale(0.1 -0.1)">
       <defs>
        <path id="NewTXBMI-93" d="M 1344 473 
C 1344 768 1101 1017 800 1017 
C 493 1017 262 761 262 473 
C 262 173 493 -64 800 -64 
C 1101 -64 1344 166 1344 473 
z
" transform="scale(0.015625)"/>
       </defs>
       <use xlink:href="#TeXGyreTermesX-Bold-30" transform="scale(0.996264)"/>
       <use xlink:href="#NewTXBMI-93" transform="translate(51.407199 0) scale(0.996264)"/>
       <use xlink:href="#TeXGyreTermesX-Bold-30" transform="translate(78.00746 0) scale(0.996264)"/>
      </g>
     </g>
    </g>
    <g id="ytick_2">
     <g id="line2d_11">
      <g>
       <use xlink:href="#m03e99a496b" x="48.926755" y="154.048722" style="stroke: #000000; stroke-width: 0.8"/>
      </g>
     </g>
     <g id="text_12">
      <!-- $\mathdefault{0.2}$ -->
      <g transform="translate(29.144701 157.468394) scale(0.1 -0.1)">
       <use xlink:href="#TeXGyreTermesX-Bold-30" transform="scale(0.996264)"/>
       <use xlink:href="#NewTXBMI-93" transform="translate(51.407199 0) scale(0.996264)"/>
       <use xlink:href="#TeXGyreTermesX-Bold-32" transform="translate(78.00746 0) scale(0.996264)"/>
      </g>
     </g>
    </g>
    <g id="ytick_3">
     <g id="line2d_12">
      <g>
       <use xlink:href="#m03e99a496b" x="48.926755" y="119.457444" style="stroke: #000000; stroke-width: 0.8"/>
      </g>
     </g>
     <g id="text_13">
      <!-- $\mathdefault{0.4}$ -->
      <g transform="translate(29.144701 122.877116) scale(0.1 -0.1)">
       <use xlink:href="#TeXGyreTermesX-Bold-30" transform="scale(0.996264)"/>
       <use xlink:href="#NewTXBMI-93" transform="translate(51.407199 0) scale(0.996264)"/>
       <use xlink:href="#TeXGyreTermesX-Bold-34" transform="translate(78.00746 0) scale(0.996264)"/>
      </g>
     </g>
    </g>
    <g id="ytick_4">
     <g id="line2d_13">
      <g>
       <use xlink:href="#m03e99a496b" x="48.926755" y="84.866167" style="stroke: #000000; stroke-width: 0.8"/>
      </g>
     </g>
     <g id="text_14">
      <!-- $\mathdefault{0.6}$ -->
      <g transform="translate(29.144701 88.285838) scale(0.1 -0.1)">
       <defs>
        <path id="TeXGyreTermesX-Bold-36" d="M 3040 1427 
C 3040 2193 2573 2688 1843 2688 
C 1638 2688 1498 2663 1306 2580 
C 1542 3515 2074 4030 3008 4221 
L 3008 4387 
C 2157 4266 1760 4126 1274 3796 
C 557 3307 179 2596 179 1752 
C 179 654 768 -64 1664 -64 
C 2458 -64 3040 564 3040 1427 
z
M 2067 1046 
C 2067 298 1990 108 1677 108 
C 1530 108 1414 172 1350 291 
C 1242 501 1178 964 1178 1553 
C 1178 1946 1216 2307 1261 2339 
C 1312 2377 1402 2402 1491 2402 
C 1920 2402 2067 2054 2067 1046 
z
" transform="scale(0.015625)"/>
       </defs>
       <use xlink:href="#TeXGyreTermesX-Bold-30" transform="scale(0.996264)"/>
       <use xlink:href="#NewTXBMI-93" transform="translate(51.407199 0) scale(0.996264)"/>
       <use xlink:href="#TeXGyreTermesX-Bold-36" transform="translate(78.00746 0) scale(0.996264)"/>
      </g>
     </g>
    </g>
    <g id="ytick_5">
     <g id="line2d_14">
      <g>
       <use xlink:href="#m03e99a496b" x="48.926755" y="50.274889" style="stroke: #000000; stroke-width: 0.8"/>
      </g>
     </g>
     <g id="text_15">
      <!-- $\mathdefault{0.8}$ -->
      <g transform="translate(29.144701 53.69456) scale(0.1 -0.1)">
       <defs>
        <path id="TeXGyreTermesX-Bold-38" d="M 3021 1212 
C 3021 1768 2746 2164 2061 2597 
C 2675 2815 2931 3075 2931 3483 
C 2931 4051 2445 4409 1683 4409 
C 819 4409 250 3961 250 3292 
C 250 2814 506 2462 1139 2086 
C 774 1965 627 1881 461 1722 
C 275 1543 179 1301 179 1020 
C 179 370 723 -64 1536 -64 
C 2426 -64 3021 447 3021 1212 
z
M 2170 3439 
C 2170 3139 2118 2993 1907 2712 
C 1370 2986 1075 3337 1075 3694 
C 1075 3994 1306 4224 1606 4224 
C 1965 4224 2170 3937 2170 3439 
z
M 2131 829 
C 2131 402 1920 140 1574 140 
C 1184 140 954 478 954 1046 
C 954 1397 1024 1595 1280 1971 
C 1978 1505 2131 1301 2131 829 
z
" transform="scale(0.015625)"/>
       </defs>
       <use xlink:href="#TeXGyreTermesX-Bold-30" transform="scale(0.996264)"/>
       <use xlink:href="#NewTXBMI-93" transform="translate(51.407199 0) scale(0.996264)"/>
       <use xlink:href="#TeXGyreTermesX-Bold-38" transform="translate(78.00746 0) scale(0.996264)"/>
      </g>
     </g>
    </g>
    <g id="ytick_6">
     <g id="line2d_15">
      <g>
       <use xlink:href="#m03e99a496b" x="48.926755" y="15.683611" style="stroke: #000000; stroke-width: 0.8"/>
      </g>
     </g>
     <g id="text_16">
      <!-- $\mathdefault{1.0}$ -->
      <g transform="translate(29.144701 19.103282) scale(0.1 -0.1)">
       <use xlink:href="#TeXGyreTermesX-Bold-31" transform="scale(0.996264)"/>
       <use xlink:href="#NewTXBMI-93" transform="translate(51.407199 0) scale(0.996264)"/>
       <use xlink:href="#TeXGyreTermesX-Bold-30" transform="translate(78.00746 0) scale(0.996264)"/>
      </g>
     </g>
    </g>
    <g id="text_17">
     <!-- $Y$ -->
     <g transform="translate(22.550441 105.892304) rotate(-90) scale(0.12 -0.12)">
      <defs>
       <path id="NewTXBMI-5f" d="M 4218 4127 
L 4218 4288 
L 2886 4288 
L 2886 4121 
C 3226 4121 3315 4063 3315 3838 
C 3315 3722 3283 3645 3149 3452 
L 2323 2256 
L 2163 2751 
L 2042 3130 
C 1894 3555 1830 3780 1830 3896 
C 1830 4076 1926 4121 2278 4121 
L 2278 4288 
L 467 4288 
L 467 4127 
C 794 4082 813 4063 934 3723 
L 1498 2006 
L 1114 622 
C 998 256 909 192 467 160 
L 467 0 
L 2528 0 
L 2528 166 
C 2112 166 2035 211 2035 449 
C 2035 533 2042 578 2086 739 
L 2419 1966 
L 3635 3683 
C 3853 3978 3974 4075 4218 4127 
z
" transform="scale(0.015625)"/>
      </defs>
      <use xlink:href="#NewTXBMI-5f" transform="scale(0.996264)"/>
     </g>
    </g>
   </g>
   <g id="line2d_16">
    <path d="M 72.768573 188.64 
L 111.802788 188.530794 
L 112.408376 188.130453 
L 113.161785 187.348535 
L 114.067783 186.069661 
L 115.140676 184.151013 
L 116.399536 181.421803 
L 117.868207 177.681884 
L 119.584835 172.675311 
L 121.620947 166.019662 
L 124.114826 157.066774 
L 127.452714 144.189413 
L 132.669356 123.995548 
L 141.157128 109.774159 
L 147.379905 99.774175 
L 152.844504 91.405118 
L 157.884715 84.085997 
L 162.648358 77.554882 
L 167.221264 71.658044 
L 171.651118 66.304256 
L 175.980836 61.416514 
L 180.239027 56.941544 
L 184.454303 52.831767 
L 188.640968 49.058103 
L 192.069456 46.236317 
L 201.520447 43.288786 
L 211.138333 40.522583 
L 220.956491 37.930684 
L 231.017839 35.505243 
L 241.365292 33.2404 
L 252.051302 31.130168 
L 263.128321 29.170623 
L 274.663108 27.357316 
L 286.736726 25.686066 
L 299.439773 24.154051 
L 312.891462 22.757884 
L 327.234843 21.49516 
L 342.660654 20.363164 
L 359.416851 19.359725 
L 377.846761 18.482608 
L 398.436761 17.729825 
L 421.91165 17.099506 
L 449.444457 16.589443 
L 483.095135 16.197324 
L 527.031277 15.920274 
L 549.604936 15.840187 
L 549.604936 15.840187 
" clip-path="url(#p27947a8b5d)" style="fill: none; stroke: #000000; stroke-width: 1.5; stroke-linecap: square"/>
   </g>
   <g id="line2d_17">
    <path d="M 72.768573 188.64 
L 111.798019 188.529438 
L 112.403608 188.127955 
L 113.157017 187.344931 
L 114.063015 186.064948 
L 115.140676 184.135765 
L 116.399536 181.403619 
L 117.868207 177.660799 
L 119.589604 172.636674 
L 121.630484 165.960424 
L 124.129131 156.984598 
L 127.476556 144.064505 
L 132.674124 123.946982 
L 141.147591 109.750787 
L 147.370368 99.751827 
L 152.834967 91.383876 
L 157.875178 84.065899 
L 162.638821 77.535944 
L 167.206959 71.646217 
L 171.636813 66.293189 
L 175.966531 61.406194 
L 180.224722 56.931954 
L 184.439998 52.822885 
L 188.626663 49.049907 
L 192.074224 46.21381 
L 201.525215 43.267985 
L 211.143101 40.503444 
L 220.96126 37.91316 
L 231.022608 35.489285 
L 241.374829 33.224964 
L 252.060838 31.116289 
L 263.137858 29.158238 
L 274.677413 27.345655 
L 286.751031 25.67585 
L 299.458847 24.144668 
L 312.915304 22.749408 
L 327.263453 21.487645 
L 342.694032 20.356645 
L 359.459767 19.35396 
L 377.899213 18.477698 
L 398.503519 17.725678 
L 422.00225 17.096007 
L 449.568435 16.586626 
L 483.266798 16.19524 
L 527.288771 15.918899 
L 549.604936 15.84 
L 549.604936 15.84 
" clip-path="url(#p27947a8b5d)" style="fill: none; stroke-dasharray: 3.7,1.6; stroke-dashoffset: 0; stroke: #00ffff"/>
   </g>
   <g id="patch_3">
    <path d="M 48.926755 197.28 
L 48.926755 7.2 
" style="fill: none; stroke: #000000; stroke-width: 0.8; stroke-linejoin: miter; stroke-linecap: square"/>
   </g>
   <g id="patch_4">
    <path d="M 573.446755 197.28 
L 573.446755 7.2 
" style="fill: none; stroke: #000000; stroke-width: 0.8; stroke-linejoin: miter; stroke-linecap: square"/>
   </g>
   <g id="patch_5">
    <path d="M 48.926755 197.28 
L 573.446755 197.28 
" style="fill: none; stroke: #000000; stroke-width: 0.8; stroke-linejoin: miter; stroke-linecap: square"/>
   </g>
   <g id="patch_6">
    <path d="M 48.926755 7.2 
L 573.446755 7.2 
" style="fill: none; stroke: #000000; stroke-width: 0.8; stroke-linejoin: miter; stroke-linecap: square"/>
   </g>
   <g id="legend_1">
    <g id="patch_7">
     <path d="M 437.305788 191.28 
L 565.046755 191.28 
Q 567.446755 191.28 567.446755 188.88 
L 567.446755 156.09148 
Q 567.446755 153.69148 565.046755 153.69148 
L 437.305788 153.69148 
Q 434.905788 153.69148 434.905788 156.09148 
L 434.905788 188.88 
Q 434.905788 191.28 437.305788 191.28 
z
" style="fill: #ffffff; opacity: 0.8; stroke: #cccccc; stroke-linejoin: miter"/>
    </g>
    <g id="line2d_18">
     <path d="M 439.705788 162.69148 
L 451.705788 162.69148 
L 463.705788 162.69148 
" style="fill: none; stroke: #000000; stroke-width: 1.5; stroke-linecap: square"/>
    </g>
    <g id="text_18">
     <!-- RXMAT -->
     <g transform="translate(473.305788 166.89148) scale(0.12 -0.12)">
      <defs>
       <path id="TeXGyreTermesX-Regular-52" d="M 4218 0 
L 4218 121 
C 3974 140 3846 205 3661 424 
L 2342 2061 
C 2771 2143 2963 2219 3174 2388 
C 3379 2553 3501 2818 3501 3113 
C 3501 3385 3418 3618 3251 3801 
C 3008 4059 2477 4224 1875 4224 
L 109 4224 
L 109 4102 
C 589 4051 653 3981 653 3528 
L 653 765 
C 653 236 589 159 109 121 
L 109 0 
L 1882 0 
L 1882 134 
C 1389 134 1306 219 1306 692 
L 1306 1984 
L 1664 1984 
L 3187 0 
L 4218 0 
z
M 2803 3123 
C 2803 2807 2669 2542 2438 2423 
C 2144 2258 1920 2221 1306 2221 
L 1306 3762 
C 1306 3937 1376 3987 1632 3987 
C 2432 3987 2803 3716 2803 3123 
z
" transform="scale(0.015625)"/>
       <path id="TeXGyreTermesX-Regular-58" d="M 4506 0 
L 4506 121 
C 4166 159 4070 223 3795 593 
L 2566 2345 
L 3501 3517 
C 3917 4019 4045 4096 4454 4096 
L 4454 4231 
L 2931 4231 
L 2931 4096 
C 3277 4096 3379 4052 3379 3904 
C 3379 3808 3309 3693 3123 3463 
L 2400 2581 
L 2131 2958 
C 1741 3501 1587 3776 1587 3917 
C 1587 4045 1683 4096 1894 4096 
L 2074 4096 
L 2074 4231 
L 141 4231 
L 141 4096 
C 557 4096 672 4000 1299 3109 
L 1997 2083 
L 992 849 
C 422 172 390 146 64 121 
L 64 0 
L 1555 0 
L 1555 134 
C 1184 134 1069 185 1069 334 
C 1069 431 1165 592 1402 887 
L 2163 1840 
L 2771 942 
C 2982 628 3098 410 3098 313 
C 3098 198 2995 134 2778 134 
C 2752 134 2682 134 2605 121 
L 2605 0 
L 4506 0 
z
" transform="scale(0.015625)"/>
       <path id="TeXGyreTermesX-Regular-4d" d="M 5523 0 
L 5523 134 
C 5056 134 4966 223 4966 681 
L 4966 3536 
C 4966 3993 5050 4077 5523 4115 
L 5523 4237 
L 4250 4237 
L 2835 1004 
L 1357 4237 
L 90 4237 
L 90 4096 
C 614 4096 698 4019 698 3550 
L 698 943 
C 698 282 608 159 77 121 
L 77 0 
L 1581 0 
L 1581 134 
C 1088 134 979 282 979 931 
L 979 3520 
L 2586 0 
L 2675 0 
L 4314 3667 
L 4314 751 
C 4314 217 4237 134 3731 134 
L 3731 0 
L 5523 0 
z
" transform="scale(0.015625)"/>
       <path id="TeXGyreTermesX-Regular-41" d="M 4518 0 
L 4518 128 
C 4230 128 4166 192 3942 667 
L 2349 4320 
L 2221 4320 
L 890 1163 
C 480 224 403 128 96 128 
L 96 0 
L 1363 0 
L 1363 128 
C 1056 128 928 212 928 393 
C 928 470 947 560 979 645 
L 1274 1401 
L 2950 1401 
L 3213 781 
C 3290 600 3334 438 3334 341 
C 3334 283 3296 212 3245 186 
C 3168 140 3117 128 2886 128 
L 2886 0 
L 4518 0 
z
M 2861 1664 
L 1382 1664 
L 2118 3416 
L 2861 1664 
z
" transform="scale(0.015625)"/>
       <path id="TeXGyreTermesX-Regular-54" d="M 3795 3149 
L 3757 4237 
L 147 4237 
L 109 3149 
L 262 3149 
C 416 3853 563 3968 1280 3968 
L 1626 3968 
L 1626 751 
C 1626 204 1555 134 1024 134 
L 1024 0 
L 2893 0 
L 2893 134 
C 2368 134 2278 217 2278 687 
L 2278 3968 
L 2624 3968 
C 3354 3968 3494 3853 3642 3149 
L 3795 3149 
z
" transform="scale(0.015625)"/>
      </defs>
      <use xlink:href="#TeXGyreTermesX-Regular-52" transform="scale(0.996264)"/>
      <use xlink:href="#TeXGyreTermesX-Regular-58" transform="translate(66.450791 0) scale(0.996264)"/>
      <use xlink:href="#TeXGyreTermesX-Regular-4d" transform="translate(138.381065 0) scale(0.996264)"/>
      <use xlink:href="#TeXGyreTermesX-Regular-41" transform="translate(226.948929 0) scale(0.996264)"/>
      <use xlink:href="#TeXGyreTermesX-Regular-54" transform="translate(293.399721 0) scale(0.996264)"/>
     </g>
    </g>
    <g id="line2d_19">
     <path d="M 439.705788 179.68574 
L 451.705788 179.68574 
L 463.705788 179.68574 
" style="fill: none; stroke-dasharray: 3.7,1.6; stroke-dashoffset: 0; stroke: #00ffff"/>
    </g>
    <g id="text_19">
     <!-- Continuous Model -->
     <g transform="translate(473.305788 183.88574) scale(0.12 -0.12)">
      <defs>
       <path id="TeXGyreTermesX-Regular-43" d="M 4051 749 
L 3936 864 
C 3462 410 3040 218 2509 218 
C 2125 218 1779 333 1510 557 
C 1133 871 922 1447 922 2189 
C 922 3348 1517 4096 2445 4096 
C 2816 4096 3142 3962 3398 3706 
C 3603 3501 3699 3322 3821 2906 
L 3968 2906 
L 3910 4352 
L 3776 4352 
C 3738 4218 3635 4141 3514 4141 
C 3450 4141 3360 4160 3258 4199 
C 2944 4301 2630 4352 2317 4352 
C 1824 4352 1318 4167 928 3847 
C 442 3444 179 2836 179 2106 
C 179 807 1030 -64 2304 -64 
C 3027 -64 3661 231 4051 749 
z
" transform="scale(0.015625)"/>
       <path id="TeXGyreTermesX-Regular-6f" d="M 3008 1498 
C 3008 2336 2419 2944 1600 2944 
C 768 2944 186 2330 186 1446 
C 186 582 781 -64 1587 -64 
C 2394 -64 3008 614 3008 1498 
z
M 2432 1274 
C 2432 550 2144 115 1664 115 
C 1414 115 1178 269 1043 525 
C 864 858 762 1306 762 1760 
C 762 2368 1062 2765 1517 2765 
C 2054 2765 2432 2150 2432 1274 
z
" transform="scale(0.015625)"/>
       <path id="TeXGyreTermesX-Regular-6e" d="M 3104 32 
L 3104 128 
C 2790 160 2714 237 2714 550 
L 2714 2016 
C 2714 2618 2432 2976 1958 2976 
C 1664 2976 1466 2867 1030 2458 
L 1030 2963 
L 986 2976 
C 672 2861 454 2790 102 2688 
L 102 2579 
C 141 2598 205 2605 275 2605 
C 454 2605 512 2509 512 2195 
L 512 608 
C 512 243 442 154 115 128 
L 115 32 
L 1472 32 
L 1472 128 
C 1146 154 1050 230 1050 461 
L 1050 2259 
C 1357 2547 1498 2624 1709 2624 
C 2022 2624 2176 2426 2176 2003 
L 2176 666 
C 2176 262 2093 154 1773 128 
L 1773 32 
L 3104 32 
z
" transform="scale(0.015625)"/>
       <path id="TeXGyreTermesX-Regular-74" d="M 1786 422 
L 1702 493 
C 1562 326 1459 269 1318 269 
C 1082 269 986 435 986 845 
L 986 2675 
L 1632 2675 
L 1632 2880 
L 986 2880 
L 986 3622 
C 986 3686 973 3706 941 3706 
C 902 3642 858 3584 813 3526 
C 576 3174 358 2938 192 2836 
C 122 2785 83 2740 83 2697 
C 83 2675 90 2675 109 2675 
L 448 2675 
L 448 749 
C 448 211 640 -64 1011 -64 
C 1331 -64 1574 90 1786 422 
z
" transform="scale(0.015625)"/>
       <path id="TeXGyreTermesX-Regular-69" d="M 1619 0 
L 1619 96 
C 1197 128 1146 191 1146 650 
L 1146 2910 
L 1120 2929 
L 128 2579 
L 128 2484 
L 179 2490 
C 256 2502 339 2509 397 2509 
C 550 2509 608 2406 608 2125 
L 608 640 
C 608 179 544 109 102 109 
L 102 0 
L 1619 0 
z
M 1203 4026 
C 1203 4205 1062 4352 877 4352 
C 698 4352 550 4205 550 4026 
C 550 3840 698 3699 877 3699 
C 1062 3699 1203 3840 1203 4026 
z
" transform="scale(0.015625)"/>
       <path id="TeXGyreTermesX-Regular-75" d="M 3066 230 
L 3066 320 
L 3034 320 
C 2739 320 2669 390 2669 685 
L 2669 2880 
L 1658 2880 
L 1658 2758 
C 2054 2758 2131 2694 2131 2375 
L 2131 875 
C 2131 703 2099 607 2022 550 
C 1843 397 1645 320 1446 320 
C 1197 320 992 537 992 805 
L 992 2880 
L 58 2880 
L 58 2778 
C 365 2778 454 2682 454 2387 
L 454 770 
C 454 263 762 -64 1229 -64 
C 1466 -64 1715 38 1888 211 
L 2163 486 
L 2163 -45 
L 2189 -58 
C 2509 70 2739 141 3066 230 
z
" transform="scale(0.015625)"/>
       <path id="TeXGyreTermesX-Regular-73" d="M 2227 757 
C 2227 1077 2080 1289 1690 1520 
L 998 1930 
C 819 2033 723 2194 723 2367 
C 723 2630 922 2803 1216 2803 
C 1581 2803 1773 2590 1920 2010 
L 2016 2010 
L 1990 2880 
L 1920 2880 
L 1907 2867 
C 1850 2822 1843 2816 1818 2816 
C 1779 2816 1715 2829 1645 2861 
C 1510 2915 1363 2944 1210 2944 
C 685 2944 326 2623 326 2154 
C 326 1796 531 1545 1075 1231 
L 1446 1020 
C 1670 892 1779 737 1779 539 
C 1779 256 1574 77 1248 77 
C 806 77 582 316 435 960 
L 333 960 
L 333 -39 
L 416 -39 
C 461 33 486 48 563 48 
C 634 48 704 35 858 -2 
C 1037 -39 1197 -64 1331 -64 
C 1818 -64 2227 308 2227 757 
z
" transform="scale(0.015625)"/>
       <path id="TeXGyreTermesX-Regular-64" d="M 3142 269 
L 3142 365 
C 3027 365 3014 365 2995 365 
C 2765 365 2714 435 2714 731 
L 2714 4364 
L 2682 4377 
C 2374 4268 2150 4204 1741 4096 
L 1741 3994 
C 1792 4000 1830 4000 1882 4000 
C 2118 4000 2176 3936 2176 3672 
L 2176 2669 
C 1933 2874 1760 2944 1504 2944 
C 768 2944 173 2221 173 1312 
C 173 493 653 -64 1357 -64 
C 1715 -64 1958 64 2176 365 
L 2176 -45 
L 2202 -64 
L 3142 269 
z
M 2176 653 
C 2176 608 2131 531 2067 461 
C 1952 333 1792 269 1606 269 
C 1075 269 723 781 723 1568 
C 723 2291 1037 2765 1523 2765 
C 1862 2765 2176 2464 2176 2125 
L 2176 653 
z
" transform="scale(0.015625)"/>
       <path id="TeXGyreTermesX-Regular-65" d="M 2714 1008 
L 2611 1053 
C 2304 564 2029 378 1619 378 
C 1267 378 998 545 813 892 
C 685 1142 634 1367 621 1779 
L 2592 1779 
C 2541 2193 2477 2377 2317 2581 
C 2125 2811 1830 2944 1498 2944 
C 704 2944 160 2304 160 1370 
C 160 486 621 -64 1357 -64 
C 1971 -64 2445 315 2714 1008 
z
M 1939 1984 
L 634 1984 
C 704 2485 922 2714 1312 2714 
C 1702 2714 1856 2535 1939 1984 
z
" transform="scale(0.015625)"/>
       <path id="TeXGyreTermesX-Regular-6c" d="M 1645 0 
L 1645 109 
C 1235 109 1165 173 1165 528 
L 1165 4371 
L 1139 4384 
C 806 4275 563 4211 122 4103 
L 122 4000 
L 160 4000 
C 230 4000 307 4000 358 4000 
C 563 4000 627 3910 627 3610 
L 627 557 
C 627 211 538 128 134 96 
L 134 0 
L 1645 0 
z
" transform="scale(0.015625)"/>
      </defs>
      <use xlink:href="#TeXGyreTermesX-Regular-43" transform="scale(0.996264)"/>
      <use xlink:href="#TeXGyreTermesX-Regular-6f" transform="translate(66.450791 0) scale(0.996264)"/>
      <use xlink:href="#TeXGyreTermesX-Regular-6e" transform="translate(116.263992 0) scale(0.996264)"/>
      <use xlink:href="#TeXGyreTermesX-Regular-74" transform="translate(166.077192 0) scale(0.996264)"/>
      <use xlink:href="#TeXGyreTermesX-Regular-69" transform="translate(193.77332 0) scale(0.996264)"/>
      <use xlink:href="#TeXGyreTermesX-Regular-6e" transform="translate(221.469447 0) scale(0.996264)"/>
      <use xlink:href="#TeXGyreTermesX-Regular-75" transform="translate(271.282647 0) scale(0.996264)"/>
      <use xlink:href="#TeXGyreTermesX-Regular-6f" transform="translate(321.095848 0) scale(0.996264)"/>
      <use xlink:href="#TeXGyreTermesX-Regular-75" transform="translate(370.909048 0) scale(0.996264)"/>
      <use xlink:href="#TeXGyreTermesX-Regular-73" transform="translate(420.722249 0) scale(0.996264)"/>
      <use xlink:href="#TeXGyreTermesX-Regular-4d" transform="translate(484.383513 0) scale(0.996264)"/>
      <use xlink:href="#TeXGyreTermesX-Regular-6f" transform="translate(572.951377 0) scale(0.996264)"/>
      <use xlink:href="#TeXGyreTermesX-Regular-64" transform="translate(622.764578 0) scale(0.996264)"/>
      <use xlink:href="#TeXGyreTermesX-Regular-65" transform="translate(672.577778 0) scale(0.996264)"/>
      <use xlink:href="#TeXGyreTermesX-Regular-6c" transform="translate(716.811925 0) scale(0.996264)"/>
     </g>
    </g>
   </g>
  </g>
  <g id="axes_2">
   <g id="patch_8">
    <path d="M 48.926755 371.52 
L 331.360601 371.52 
L 331.360601 244.8 
L 48.926755 244.8 
z
" style="fill: #ffffff"/>
   </g>
   <g id="matplotlib.axis_3">
    <g id="xtick_10">
     <g id="line2d_20">
      <g>
       <use xlink:href="#m04d10a595c" x="61.764657" y="371.52" style="stroke: #000000; stroke-width: 0.8"/>
      </g>
     </g>
     <g id="text_20">
      <!-- $\mathdefault{0}$ -->
      <g transform="translate(59.273997 385.359343) scale(0.1 -0.1)">
       <use xlink:href="#TeXGyreTermesX-Bold-30" transform="scale(0.996264)"/>
      </g>
     </g>
    </g>
    <g id="xtick_11">
     <g id="line2d_21">
      <g>
       <use xlink:href="#m04d10a595c" x="93.859412" y="371.52" style="stroke: #000000; stroke-width: 0.8"/>
      </g>
     </g>
     <g id="text_21">
      <!-- $\mathdefault{5}$ -->
      <g transform="translate(91.368752 385.359343) scale(0.1 -0.1)">
       <use xlink:href="#TeXGyreTermesX-Bold-35" transform="scale(0.996264)"/>
      </g>
     </g>
    </g>
    <g id="xtick_12">
     <g id="line2d_22">
      <g>
       <use xlink:href="#m04d10a595c" x="125.954167" y="371.52" style="stroke: #000000; stroke-width: 0.8"/>
      </g>
     </g>
     <g id="text_22">
      <!-- $\mathdefault{10}$ -->
      <g transform="translate(120.972847 385.359343) scale(0.1 -0.1)">
       <use xlink:href="#TeXGyreTermesX-Bold-31" transform="scale(0.996264)"/>
       <use xlink:href="#TeXGyreTermesX-Bold-30" transform="translate(49.8132 0) scale(0.996264)"/>
      </g>
     </g>
    </g>
    <g id="xtick_13">
     <g id="line2d_23">
      <g>
       <use xlink:href="#m04d10a595c" x="158.048922" y="371.52" style="stroke: #000000; stroke-width: 0.8"/>
      </g>
     </g>
     <g id="text_23">
      <!-- $\mathdefault{15}$ -->
      <g transform="translate(153.067602 385.359343) scale(0.1 -0.1)">
       <use xlink:href="#TeXGyreTermesX-Bold-31" transform="scale(0.996264)"/>
       <use xlink:href="#TeXGyreTermesX-Bold-35" transform="translate(49.8132 0) scale(0.996264)"/>
      </g>
     </g>
    </g>
    <g id="xtick_14">
     <g id="line2d_24">
      <g>
       <use xlink:href="#m04d10a595c" x="190.143678" y="371.52" style="stroke: #000000; stroke-width: 0.8"/>
      </g>
     </g>
     <g id="text_24">
      <!-- $\mathdefault{20}$ -->
      <g transform="translate(185.162358 385.359343) scale(0.1 -0.1)">
       <use xlink:href="#TeXGyreTermesX-Bold-32" transform="scale(0.996264)"/>
       <use xlink:href="#TeXGyreTermesX-Bold-30" transform="translate(49.8132 0) scale(0.996264)"/>
      </g>
     </g>
    </g>
    <g id="xtick_15">
     <g id="line2d_25">
      <g>
       <use xlink:href="#m04d10a595c" x="222.238433" y="371.52" style="stroke: #000000; stroke-width: 0.8"/>
      </g>
     </g>
     <g id="text_25">
      <!-- $\mathdefault{25}$ -->
      <g transform="translate(217.257113 385.359343) scale(0.1 -0.1)">
       <use xlink:href="#TeXGyreTermesX-Bold-32" transform="scale(0.996264)"/>
       <use xlink:href="#TeXGyreTermesX-Bold-35" transform="translate(49.8132 0) scale(0.996264)"/>
      </g>
     </g>
    </g>
    <g id="xtick_16">
     <g id="line2d_26">
      <g>
       <use xlink:href="#m04d10a595c" x="254.333188" y="371.52" style="stroke: #000000; stroke-width: 0.8"/>
      </g>
     </g>
     <g id="text_26">
      <!-- $\mathdefault{30}$ -->
      <g transform="translate(249.351868 385.359343) scale(0.1 -0.1)">
       <use xlink:href="#TeXGyreTermesX-Bold-33" transform="scale(0.996264)"/>
       <use xlink:href="#TeXGyreTermesX-Bold-30" transform="translate(49.8132 0) scale(0.996264)"/>
      </g>
     </g>
    </g>
    <g id="xtick_17">
     <g id="line2d_27">
      <g>
       <use xlink:href="#m04d10a595c" x="286.427943" y="371.52" style="stroke: #000000; stroke-width: 0.8"/>
      </g>
     </g>
     <g id="text_27">
      <!-- $\mathdefault{35}$ -->
      <g transform="translate(281.446623 385.359343) scale(0.1 -0.1)">
       <use xlink:href="#TeXGyreTermesX-Bold-33" transform="scale(0.996264)"/>
       <use xlink:href="#TeXGyreTermesX-Bold-35" transform="translate(49.8132 0) scale(0.996264)"/>
      </g>
     </g>
    </g>
    <g id="xtick_18">
     <g id="line2d_28">
      <g>
       <use xlink:href="#m04d10a595c" x="318.522699" y="371.52" style="stroke: #000000; stroke-width: 0.8"/>
      </g>
     </g>
     <g id="text_28">
      <!-- $\mathdefault{40}$ -->
      <g transform="translate(313.541379 385.359343) scale(0.1 -0.1)">
       <use xlink:href="#TeXGyreTermesX-Bold-34" transform="scale(0.996264)"/>
       <use xlink:href="#TeXGyreTermesX-Bold-30" transform="translate(49.8132 0) scale(0.996264)"/>
      </g>
     </g>
    </g>
    <g id="text_29">
     <!-- \textbf{$t$ [hr]} -->
     <g transform="translate(176.771818 399.728448) scale(0.12 -0.12)">
      <use xlink:href="#NewTXBMI-74" transform="scale(0.996264)"/>
      <use xlink:href="#TeXGyreTermesX-Bold-5b" transform="translate(56.886681 0) scale(0.996264)"/>
      <use xlink:href="#TeXGyreTermesX-Bold-68" transform="translate(90.062291 0) scale(0.996264)"/>
      <use xlink:href="#TeXGyreTermesX-Bold-72" transform="translate(145.454545 0) scale(0.996264)"/>
      <use xlink:href="#TeXGyreTermesX-Bold-5d" transform="translate(189.688692 0) scale(0.996264)"/>
     </g>
    </g>
   </g>
   <g id="matplotlib.axis_4">
    <g id="ytick_7">
     <g id="line2d_29">
      <g>
       <use xlink:href="#m03e99a496b" x="48.926755" y="354.24" style="stroke: #000000; stroke-width: 0.8"/>
      </g>
     </g>
     <g id="text_30">
      <!-- $\mathdefault{1160}$ -->
      <g transform="translate(22.001474 357.659671) scale(0.1 -0.1)">
       <use xlink:href="#TeXGyreTermesX-Bold-31" transform="scale(0.996264)"/>
       <use xlink:href="#TeXGyreTermesX-Bold-31" transform="translate(49.8132 0) scale(0.996264)"/>
       <use xlink:href="#TeXGyreTermesX-Bold-36" transform="translate(99.626401 0) scale(0.996264)"/>
       <use xlink:href="#TeXGyreTermesX-Bold-30" transform="translate(149.439601 0) scale(0.996264)"/>
      </g>
     </g>
    </g>
    <g id="ytick_8">
     <g id="line2d_30">
      <g>
       <use xlink:href="#m03e99a496b" x="48.926755" y="331.2" style="stroke: #000000; stroke-width: 0.8"/>
      </g>
     </g>
     <g id="text_31">
      <!-- $\mathdefault{1180}$ -->
      <g transform="translate(22.001474 334.619671) scale(0.1 -0.1)">
       <use xlink:href="#TeXGyreTermesX-Bold-31" transform="scale(0.996264)"/>
       <use xlink:href="#TeXGyreTermesX-Bold-31" transform="translate(49.8132 0) scale(0.996264)"/>
       <use xlink:href="#TeXGyreTermesX-Bold-38" transform="translate(99.626401 0) scale(0.996264)"/>
       <use xlink:href="#TeXGyreTermesX-Bold-30" transform="translate(149.439601 0) scale(0.996264)"/>
      </g>
     </g>
    </g>
    <g id="ytick_9">
     <g id="line2d_31">
      <g>
       <use xlink:href="#m03e99a496b" x="48.926755" y="308.16" style="stroke: #000000; stroke-width: 0.8"/>
      </g>
     </g>
     <g id="text_32">
      <!-- $\mathdefault{1200}$ -->
      <g transform="translate(22.001474 311.579671) scale(0.1 -0.1)">
       <use xlink:href="#TeXGyreTermesX-Bold-31" transform="scale(0.996264)"/>
       <use xlink:href="#TeXGyreTermesX-Bold-32" transform="translate(49.8132 0) scale(0.996264)"/>
       <use xlink:href="#TeXGyreTermesX-Bold-30" transform="translate(99.626401 0) scale(0.996264)"/>
       <use xlink:href="#TeXGyreTermesX-Bold-30" transform="translate(149.439601 0) scale(0.996264)"/>
      </g>
     </g>
    </g>
    <g id="ytick_10">
     <g id="line2d_32">
      <g>
       <use xlink:href="#m03e99a496b" x="48.926755" y="285.12" style="stroke: #000000; stroke-width: 0.8"/>
      </g>
     </g>
     <g id="text_33">
      <!-- $\mathdefault{1220}$ -->
      <g transform="translate(22.001474 288.539671) scale(0.1 -0.1)">
       <use xlink:href="#TeXGyreTermesX-Bold-31" transform="scale(0.996264)"/>
       <use xlink:href="#TeXGyreTermesX-Bold-32" transform="translate(49.8132 0) scale(0.996264)"/>
       <use xlink:href="#TeXGyreTermesX-Bold-32" transform="translate(99.626401 0) scale(0.996264)"/>
       <use xlink:href="#TeXGyreTermesX-Bold-30" transform="translate(149.439601 0) scale(0.996264)"/>
      </g>
     </g>
    </g>
    <g id="ytick_11">
     <g id="line2d_33">
      <g>
       <use xlink:href="#m03e99a496b" x="48.926755" y="262.08" style="stroke: #000000; stroke-width: 0.8"/>
      </g>
     </g>
     <g id="text_34">
      <!-- $\mathdefault{1240}$ -->
      <g transform="translate(22.001474 265.499671) scale(0.1 -0.1)">
       <use xlink:href="#TeXGyreTermesX-Bold-31" transform="scale(0.996264)"/>
       <use xlink:href="#TeXGyreTermesX-Bold-32" transform="translate(49.8132 0) scale(0.996264)"/>
       <use xlink:href="#TeXGyreTermesX-Bold-34" transform="translate(99.626401 0) scale(0.996264)"/>
       <use xlink:href="#TeXGyreTermesX-Bold-30" transform="translate(149.439601 0) scale(0.996264)"/>
      </g>
     </g>
    </g>
    <g id="text_35">
     <!-- \textbf{$T$ [$^\circ$C]} -->
     <g transform="translate(15.407214 324.496337) rotate(-90) scale(0.12 -0.12)">
      <defs>
       <path id="NewTXBMI-5a" d="M 3930 3057 
L 4160 4288 
L 634 4288 
L 390 3192 
L 550 3147 
C 883 3792 1286 4057 1939 4057 
L 992 621 
C 902 288 736 160 410 160 
L 320 160 
L 320 0 
L 2438 0 
L 2438 160 
C 1984 160 1907 199 1907 404 
C 1907 501 1933 629 1978 803 
L 2874 4057 
C 3475 4057 3725 3781 3757 3070 
L 3930 3057 
z
" transform="scale(0.015625)"/>
       <path id="txbsys-e" d="M 2955 1640 
C 2955 2347 2386 2915 1676 2915 
C 960 2915 397 2347 397 1640 
C 397 926 960 365 1676 365 
C 2386 365 2955 926 2955 1640 
z
M 2482 1640 
C 2482 1188 2117 838 1676 838 
C 1222 838 870 1188 870 1640 
C 870 2078 1222 2441 1676 2441 
C 2117 2441 2482 2078 2482 1640 
z
" transform="scale(0.015625)"/>
       <path id="TeXGyreTermesX-Bold-43" d="M 4397 800 
L 4205 959 
C 3827 565 3622 413 3309 292 
C 3123 216 2912 177 2733 177 
C 2310 177 1907 399 1722 729 
C 1536 1064 1446 1513 1446 2153 
C 1446 3463 1850 4160 2624 4160 
C 2925 4160 3200 4047 3475 3809 
C 3750 3570 3898 3357 4122 2880 
L 4282 2880 
L 4282 4369 
L 4109 4369 
C 4013 4127 3949 4059 3827 4059 
C 3763 4059 3680 4084 3533 4148 
C 3162 4300 2848 4370 2541 4370 
C 1267 4370 314 3394 314 2095 
C 314 790 1248 -128 2579 -128 
C 3315 -128 3750 95 4397 800 
z
" transform="scale(0.015625)"/>
      </defs>
      <use xlink:href="#NewTXBMI-5a" transform="scale(0.996264)"/>
      <use xlink:href="#TeXGyreTermesX-Bold-5b" transform="translate(91.556717 0) scale(0.996264)"/>
      <use xlink:href="#txbsys-e" transform="translate(124.732327 36.164371) scale(0.727268)"/>
      <use xlink:href="#TeXGyreTermesX-Bold-43" transform="translate(163.339336 0) scale(0.996264)"/>
      <use xlink:href="#TeXGyreTermesX-Bold-5d" transform="translate(235.26961 0) scale(0.996264)"/>
     </g>
    </g>
   </g>
   <g id="line2d_34">
    <path d="M 61.764657 250.56 
L 93.857165 250.56 
L 93.97014 308.16 
L 125.952242 308.16 
L 126.065216 365.76 
L 318.522699 365.76 
L 318.522699 365.76 
" clip-path="url(#p6ae03c3a51)" style="fill: none; stroke: #000000; stroke-linecap: square"/>
   </g>
   <g id="patch_9">
    <path d="M 48.926755 371.52 
L 48.926755 244.8 
" style="fill: none; stroke: #000000; stroke-width: 0.8; stroke-linejoin: miter; stroke-linecap: square"/>
   </g>
   <g id="patch_10">
    <path d="M 331.360601 371.52 
L 331.360601 244.8 
" style="fill: none; stroke: #000000; stroke-width: 0.8; stroke-linejoin: miter; stroke-linecap: square"/>
   </g>
   <g id="patch_11">
    <path d="M 48.926755 371.52 
L 331.360601 371.52 
" style="fill: none; stroke: #000000; stroke-width: 0.8; stroke-linejoin: miter; stroke-linecap: square"/>
   </g>
   <g id="patch_12">
    <path d="M 48.926755 244.8 
L 331.360601 244.8 
" style="fill: none; stroke: #000000; stroke-width: 0.8; stroke-linejoin: miter; stroke-linecap: square"/>
   </g>
  </g>
  <g id="axes_3">
   <g id="patch_13">
    <path d="M 371.708293 371.52 
L 573.446755 371.52 
L 573.446755 244.8 
L 371.708293 244.8 
z
" style="fill: #ffffff"/>
   </g>
   <g id="PathCollection_1">
    <defs>
     <path id="mb20d221352" d="M 0 3.535534 
C 0.937635 3.535534 1.836992 3.163008 2.5 2.5 
C 3.163008 1.836992 3.535534 0.937635 3.535534 0 
C 3.535534 -0.937635 3.163008 -1.836992 2.5 -2.5 
C 1.836992 -3.163008 0.937635 -3.535534 0 -3.535534 
C -0.937635 -3.535534 -1.836992 -3.163008 -2.5 -2.5 
C -3.163008 -1.836992 -3.535534 -0.937635 -3.535534 0 
C -3.535534 0.937635 -3.163008 1.836992 -2.5 2.5 
C -1.836992 3.163008 -0.937635 3.535534 0 3.535534 
z
" style="stroke: #ff0000"/>
    </defs>
    <g clip-path="url(#p4c91e0ee1d)">
     <use xlink:href="#mb20d221352" x="390.048153" y="323.011516" style="fill: #ff0000; stroke: #ff0000"/>
    </g>
   </g>
   <g id="PathCollection_2">
    <g clip-path="url(#p4c91e0ee1d)">
     <use xlink:href="#mb20d221352" x="380.878223" y="365.76" style="fill: #ff0000; stroke: #ff0000"/>
    </g>
   </g>
   <g id="PathCollection_3">
    <g clip-path="url(#p4c91e0ee1d)">
     <use xlink:href="#mb20d221352" x="404.38099" y="323.011516" style="fill: #ff0000; stroke: #ff0000"/>
    </g>
   </g>
   <g id="PathCollection_4">
    <g clip-path="url(#p4c91e0ee1d)">
     <use xlink:href="#mb20d221352" x="413.55092" y="270.915912" style="fill: #ff0000; stroke: #ff0000"/>
    </g>
   </g>
   <g id="PathCollection_5">
    <g clip-path="url(#p4c91e0ee1d)">
     <use xlink:href="#mb20d221352" x="468.380356" y="270.915912" style="fill: #ff0000; stroke: #ff0000"/>
    </g>
   </g>
   <g id="PathCollection_6">
    <g clip-path="url(#p4c91e0ee1d)">
     <use xlink:href="#mb20d221352" x="523.399936" y="250.664165" style="fill: #ff0000; stroke: #ff0000"/>
    </g>
   </g>
   <g id="matplotlib.axis_5">
    <g id="xtick_19">
     <g id="line2d_35">
      <g>
       <use xlink:href="#m04d10a595c" x="380.878223" y="371.52" style="stroke: #000000; stroke-width: 0.8"/>
      </g>
     </g>
     <g id="text_36">
      <!-- $\mathdefault{0}$ -->
      <g transform="translate(378.387563 385.359343) scale(0.1 -0.1)">
       <use xlink:href="#TeXGyreTermesX-Bold-30" transform="scale(0.996264)"/>
      </g>
     </g>
    </g>
    <g id="xtick_20">
     <g id="line2d_36">
      <g>
       <use xlink:href="#m04d10a595c" x="417.557943" y="371.52" style="stroke: #000000; stroke-width: 0.8"/>
      </g>
     </g>
     <g id="text_37">
      <!-- $\mathdefault{20}$ -->
      <g transform="translate(412.576623 385.359343) scale(0.1 -0.1)">
       <use xlink:href="#TeXGyreTermesX-Bold-32" transform="scale(0.996264)"/>
       <use xlink:href="#TeXGyreTermesX-Bold-30" transform="translate(49.8132 0) scale(0.996264)"/>
      </g>
     </g>
    </g>
    <g id="xtick_21">
     <g id="line2d_37">
      <g>
       <use xlink:href="#m04d10a595c" x="454.237664" y="371.52" style="stroke: #000000; stroke-width: 0.8"/>
      </g>
     </g>
     <g id="text_38">
      <!-- $\mathdefault{40}$ -->
      <g transform="translate(449.256344 385.359343) scale(0.1 -0.1)">
       <use xlink:href="#TeXGyreTermesX-Bold-34" transform="scale(0.996264)"/>
       <use xlink:href="#TeXGyreTermesX-Bold-30" transform="translate(49.8132 0) scale(0.996264)"/>
      </g>
     </g>
    </g>
    <g id="xtick_22">
     <g id="line2d_38">
      <g>
       <use xlink:href="#m04d10a595c" x="490.917384" y="371.52" style="stroke: #000000; stroke-width: 0.8"/>
      </g>
     </g>
     <g id="text_39">
      <!-- $\mathdefault{60}$ -->
      <g transform="translate(485.936064 385.359343) scale(0.1 -0.1)">
       <use xlink:href="#TeXGyreTermesX-Bold-36" transform="scale(0.996264)"/>
       <use xlink:href="#TeXGyreTermesX-Bold-30" transform="translate(49.8132 0) scale(0.996264)"/>
      </g>
     </g>
    </g>
    <g id="xtick_23">
     <g id="line2d_39">
      <g>
       <use xlink:href="#m04d10a595c" x="527.597104" y="371.52" style="stroke: #000000; stroke-width: 0.8"/>
      </g>
     </g>
     <g id="text_40">
      <!-- $\mathdefault{80}$ -->
      <g transform="translate(522.615784 385.359343) scale(0.1 -0.1)">
       <use xlink:href="#TeXGyreTermesX-Bold-38" transform="scale(0.996264)"/>
       <use xlink:href="#TeXGyreTermesX-Bold-30" transform="translate(49.8132 0) scale(0.996264)"/>
      </g>
     </g>
    </g>
    <g id="xtick_24">
     <g id="line2d_40">
      <g>
       <use xlink:href="#m04d10a595c" x="564.276825" y="371.52" style="stroke: #000000; stroke-width: 0.8"/>
      </g>
     </g>
     <g id="text_41">
      <!-- $\mathdefault{100}$ -->
      <g transform="translate(556.804845 385.359343) scale(0.1 -0.1)">
       <use xlink:href="#TeXGyreTermesX-Bold-31" transform="scale(0.996264)"/>
       <use xlink:href="#TeXGyreTermesX-Bold-30" transform="translate(49.8132 0) scale(0.996264)"/>
       <use xlink:href="#TeXGyreTermesX-Bold-30" transform="translate(99.626401 0) scale(0.996264)"/>
      </g>
     </g>
    </g>
    <g id="text_42">
     <!-- \textbf{$t$ [hr]} -->
     <g transform="translate(459.205664 399.728448) scale(0.12 -0.12)">
      <use xlink:href="#NewTXBMI-74" transform="scale(0.996264)"/>
      <use xlink:href="#TeXGyreTermesX-Bold-5b" transform="translate(56.886681 0) scale(0.996264)"/>
      <use xlink:href="#TeXGyreTermesX-Bold-68" transform="translate(90.062291 0) scale(0.996264)"/>
      <use xlink:href="#TeXGyreTermesX-Bold-72" transform="translate(145.454545 0) scale(0.996264)"/>
      <use xlink:href="#TeXGyreTermesX-Bold-5d" transform="translate(189.688692 0) scale(0.996264)"/>
     </g>
    </g>
   </g>
   <g id="matplotlib.axis_6">
    <g id="ytick_12">
     <g id="line2d_41">
      <g>
       <use xlink:href="#m03e99a496b" x="371.708293" y="365.76" style="stroke: #000000; stroke-width: 0.8"/>
      </g>
     </g>
     <g id="text_43">
      <!-- $\mathdefault{0.0}$ -->
      <g transform="translate(351.926239 369.179671) scale(0.1 -0.1)">
       <use xlink:href="#TeXGyreTermesX-Bold-30" transform="scale(0.996264)"/>
       <use xlink:href="#NewTXBMI-93" transform="translate(51.407199 0) scale(0.996264)"/>
       <use xlink:href="#TeXGyreTermesX-Bold-30" transform="translate(78.00746 0) scale(0.996264)"/>
      </g>
     </g>
    </g>
    <g id="ytick_13">
     <g id="line2d_42">
      <g>
       <use xlink:href="#m03e99a496b" x="371.708293" y="342.72" style="stroke: #000000; stroke-width: 0.8"/>
      </g>
     </g>
     <g id="text_44">
      <!-- $\mathdefault{0.2}$ -->
      <g transform="translate(351.926239 346.139671) scale(0.1 -0.1)">
       <use xlink:href="#TeXGyreTermesX-Bold-30" transform="scale(0.996264)"/>
       <use xlink:href="#NewTXBMI-93" transform="translate(51.407199 0) scale(0.996264)"/>
       <use xlink:href="#TeXGyreTermesX-Bold-32" transform="translate(78.00746 0) scale(0.996264)"/>
      </g>
     </g>
    </g>
    <g id="ytick_14">
     <g id="line2d_43">
      <g>
       <use xlink:href="#m03e99a496b" x="371.708293" y="319.68" style="stroke: #000000; stroke-width: 0.8"/>
      </g>
     </g>
     <g id="text_45">
      <!-- $\mathdefault{0.4}$ -->
      <g transform="translate(351.926239 323.099671) scale(0.1 -0.1)">
       <use xlink:href="#TeXGyreTermesX-Bold-30" transform="scale(0.996264)"/>
       <use xlink:href="#NewTXBMI-93" transform="translate(51.407199 0) scale(0.996264)"/>
       <use xlink:href="#TeXGyreTermesX-Bold-34" transform="translate(78.00746 0) scale(0.996264)"/>
      </g>
     </g>
    </g>
    <g id="ytick_15">
     <g id="line2d_44">
      <g>
       <use xlink:href="#m03e99a496b" x="371.708293" y="296.64" style="stroke: #000000; stroke-width: 0.8"/>
      </g>
     </g>
     <g id="text_46">
      <!-- $\mathdefault{0.6}$ -->
      <g transform="translate(351.926239 300.059671) scale(0.1 -0.1)">
       <use xlink:href="#TeXGyreTermesX-Bold-30" transform="scale(0.996264)"/>
       <use xlink:href="#NewTXBMI-93" transform="translate(51.407199 0) scale(0.996264)"/>
       <use xlink:href="#TeXGyreTermesX-Bold-36" transform="translate(78.00746 0) scale(0.996264)"/>
      </g>
     </g>
    </g>
    <g id="ytick_16">
     <g id="line2d_45">
      <g>
       <use xlink:href="#m03e99a496b" x="371.708293" y="273.6" style="stroke: #000000; stroke-width: 0.8"/>
      </g>
     </g>
     <g id="text_47">
      <!-- $\mathdefault{0.8}$ -->
      <g transform="translate(351.926239 277.019671) scale(0.1 -0.1)">
       <use xlink:href="#TeXGyreTermesX-Bold-30" transform="scale(0.996264)"/>
       <use xlink:href="#NewTXBMI-93" transform="translate(51.407199 0) scale(0.996264)"/>
       <use xlink:href="#TeXGyreTermesX-Bold-38" transform="translate(78.00746 0) scale(0.996264)"/>
      </g>
     </g>
    </g>
    <g id="ytick_17">
     <g id="line2d_46">
      <g>
       <use xlink:href="#m03e99a496b" x="371.708293" y="250.56" style="stroke: #000000; stroke-width: 0.8"/>
      </g>
     </g>
     <g id="text_48">
      <!-- $\mathdefault{1.0}$ -->
      <g transform="translate(351.926239 253.979671) scale(0.1 -0.1)">
       <use xlink:href="#TeXGyreTermesX-Bold-31" transform="scale(0.996264)"/>
       <use xlink:href="#NewTXBMI-93" transform="translate(51.407199 0) scale(0.996264)"/>
       <use xlink:href="#TeXGyreTermesX-Bold-30" transform="translate(78.00746 0) scale(0.996264)"/>
      </g>
     </g>
    </g>
    <g id="text_49">
     <!-- $X$ -->
     <g transform="translate(345.331979 312.147047) rotate(-90) scale(0.12 -0.12)">
      <defs>
       <path id="NewTXBMI-5e" d="M 3750 0 
L 3750 160 
C 3290 211 3194 301 3008 903 
L 2534 2423 
L 3808 3737 
C 4090 4019 4211 4096 4442 4128 
L 4442 4288 
L 3142 4288 
L 3142 4128 
L 3283 4115 
C 3430 4102 3494 4057 3494 3961 
C 3494 3846 3379 3685 3046 3333 
L 2445 2698 
C 2381 2910 2362 2986 2336 3050 
C 2189 3506 2118 3782 2118 3878 
C 2118 4025 2189 4083 2400 4108 
L 2592 4128 
L 2592 4288 
L 640 4288 
L 640 4128 
C 1024 4089 1120 4019 1222 3723 
L 1760 1981 
L 1325 1506 
C 314 390 122 211 -154 160 
L -154 0 
L 1216 0 
L 1216 160 
C 928 186 800 269 800 416 
C 800 499 845 583 992 743 
L 1850 1692 
L 1971 1308 
C 2144 814 2214 545 2214 403 
C 2214 237 2125 192 1779 160 
L 1779 0 
L 3750 0 
z
" transform="scale(0.015625)"/>
      </defs>
      <use xlink:href="#NewTXBMI-5e" transform="scale(0.996264)"/>
     </g>
    </g>
   </g>
   <g id="line2d_47">
    <path d="M 380.878223 365.76 
L 386.899259 365.650652 
L 387.084494 364.935809 
L 387.407279 362.671574 
L 387.898792 357.454072 
L 388.634228 346.99759 
L 390.050079 322.978171 
L 391.689679 296.515708 
L 392.779077 282.405982 
L 393.734594 272.759117 
L 394.61675 265.985913 
L 395.449388 261.218972 
L 396.249014 257.863727 
L 397.024798 255.516582 
L 397.789577 253.876506 
L 398.558025 252.73281 
L 399.355817 251.933177 
L 400.225135 251.3743 
L 401.244842 250.988434 
L 402.568993 250.737735 
L 404.612074 250.601438 
L 409.556549 250.560764 
L 564.276825 250.56 
L 564.276825 250.56 
" clip-path="url(#p4c91e0ee1d)" style="fill: none; stroke: #000000; stroke-width: 0.75; stroke-linecap: square"/>
   </g>
   <g id="line2d_48">
    <path d="M 380.878223 365.76 
L 396.984449 365.649073 
L 397.303566 365.173039 
L 397.763901 364.041522 
L 398.385629 361.866424 
L 399.196259 358.152823 
L 400.248977 352.206123 
L 401.683169 342.718119 
L 404.313131 323.511895 
L 407.086145 303.881746 
L 408.936656 292.339218 
L 410.552414 283.611809 
L 412.039791 276.754441 
L 413.442804 271.29734 
L 414.78713 266.930534 
L 416.089273 263.431126 
L 417.363906 260.623361 
L 418.623867 258.370718 
L 419.883828 256.562648 
L 421.160295 255.11196 
L 422.478944 253.945501 
L 423.870953 253.009418 
L 425.384007 252.261187 
L 427.085963 251.671531 
L 429.086862 251.220174 
L 431.590278 250.893597 
L 435.047376 250.683055 
L 440.90702 250.579735 
L 461.18744 250.56001 
L 564.276825 250.56 
L 564.276825 250.56 
" clip-path="url(#p4c91e0ee1d)" style="fill: none; stroke: #000000; stroke-width: 0.75; stroke-linecap: square"/>
   </g>
   <g id="line2d_49">
    <path d="M 380.878223 365.76 
L 427.051117 365.648968 
L 427.740702 365.253043 
L 428.586178 364.49719 
L 429.593047 363.282851 
L 430.777814 361.48778 
L 432.164321 358.964125 
L 433.794751 355.512673 
L 435.736961 350.855177 
L 438.135839 344.492709 
L 441.420541 335.09623 
L 451.351674 306.304345 
L 454.507996 298.048417 
L 457.328695 291.277285 
L 459.953155 285.542254 
L 462.447401 280.614715 
L 464.851781 276.347222 
L 467.195638 272.632181 
L 469.499148 269.391268 
L 471.780649 266.55958 
L 474.060316 264.080339 
L 476.354656 261.910286 
L 478.685675 260.009212 
L 481.077217 258.344409 
L 483.556791 256.888968 
L 486.157409 255.620857 
L 488.923088 254.521162 
L 491.908847 253.575705 
L 495.191715 252.772914 
L 498.881731 252.104179 
L 503.147625 251.563098 
L 508.281004 251.144184 
L 514.844905 250.843006 
L 524.190991 250.654678 
L 541.212386 250.570732 
L 564.276825 250.560392 
L 564.276825 250.560392 
" clip-path="url(#p4c91e0ee1d)" style="fill: none; stroke: #000000; stroke-width: 0.75; stroke-linecap: square"/>
   </g>
   <g id="patch_14">
    <path d="M 371.708293 371.52 
L 371.708293 244.8 
" style="fill: none; stroke: #000000; stroke-width: 0.8; stroke-linejoin: miter; stroke-linecap: square"/>
   </g>
   <g id="patch_15">
    <path d="M 573.446755 371.52 
L 573.446755 244.8 
" style="fill: none; stroke: #000000; stroke-width: 0.8; stroke-linejoin: miter; stroke-linecap: square"/>
   </g>
   <g id="patch_16">
    <path d="M 371.708293 371.52 
L 573.446755 371.52 
" style="fill: none; stroke: #000000; stroke-width: 0.8; stroke-linejoin: miter; stroke-linecap: square"/>
   </g>
   <g id="patch_17">
    <path d="M 371.708293 244.8 
L 573.446755 244.8 
" style="fill: none; stroke: #000000; stroke-width: 0.8; stroke-linejoin: miter; stroke-linecap: square"/>
   </g>
   <g id="patch_18">
    <path d="M 381.29743 363.805739 
Q 385.463156 344.385906 389.159896 327.152406 
" style="fill: none; stroke: #ff0000; stroke-width: 2; stroke-linecap: round"/>
    <path d="M 386.365429 330.643961 
L 389.159896 327.152406 
L 390.27646 331.482912 
" style="fill: none; stroke: #ff0000; stroke-width: 2; stroke-linecap: round"/>
   </g>
   <g id="patch_19">
    <path d="M 392.046212 323.011516 
Q 397.212304 323.011516 400.142327 323.011516 
" style="fill: none; stroke: #ff0000; stroke-width: 2; stroke-linecap: round"/>
    <path d="M 396.142327 321.011516 
L 400.142327 323.011516 
L 396.142327 325.011516 
" style="fill: none; stroke: #ff0000; stroke-width: 2; stroke-linecap: round"/>
   </g>
   <g id="patch_20">
    <path d="M 404.727437 321.043304 
Q 408.966037 296.963248 412.817001 275.085404 
" style="fill: none; stroke: #ff0000; stroke-width: 2; stroke-linecap: round"/>
    <path d="M 410.153858 278.678129 
L 412.817001 275.085404 
L 414.093295 279.371553 
" style="fill: none; stroke: #ff0000; stroke-width: 2; stroke-linecap: round"/>
   </g>
   <g id="patch_21">
    <path d="M 415.548794 270.915912 
Q 440.963342 270.915912 464.141822 270.915912 
" style="fill: none; stroke: #ff0000; stroke-width: 2; stroke-linecap: round"/>
    <path d="M 460.141822 268.915912 
L 464.141822 270.915912 
L 460.141822 272.915912 
" style="fill: none; stroke: #ff0000; stroke-width: 2; stroke-linecap: round"/>
   </g>
   <g id="patch_22">
    <path d="M 470.25755 270.22495 
Q 495.889734 260.79019 519.423489 252.127826 
" style="fill: none; stroke: #ff0000; stroke-width: 2; stroke-linecap: round"/>
    <path d="M 514.978853 251.632636 
L 519.423489 252.127826 
L 516.360556 255.386421 
" style="fill: none; stroke: #ff0000; stroke-width: 2; stroke-linecap: round"/>
   </g>
  </g>
 </g>
 <defs>
  <clipPath id="p27947a8b5d">
   <rect x="48.926755" y="7.2" width="524.52" height="190.08"/>
  </clipPath>
  <clipPath id="p6ae03c3a51">
   <rect x="48.926755" y="244.8" width="282.433846" height="126.72"/>
  </clipPath>
  <clipPath id="p4c91e0ee1d">
   <rect x="371.708293" y="244.8" width="201.738462" height="126.72"/>
  </clipPath>
 </defs>
</svg>
