<?xml version="1.0" encoding="utf-8" standalone="no"?>
<!DOCTYPE svg PUBLIC "-//W3C//DTD SVG 1.1//EN"
  "http://www.w3.org/Graphics/SVG/1.1/DTD/svg11.dtd">
<svg xmlns:xlink="http://www.w3.org/1999/xlink" width="396pt" height="288pt" viewBox="0 0 396 288" xmlns="http://www.w3.org/2000/svg" version="1.1">
 <metadata>
  <rdf:RDF xmlns:dc="http://purl.org/dc/elements/1.1/" xmlns:cc="http://creativecommons.org/ns#" xmlns:rdf="http://www.w3.org/1999/02/22-rdf-syntax-ns#">
   <cc:Work>
    <dc:type rdf:resource="http://purl.org/dc/dcmitype/StillImage"/>
    <dc:date>2024-12-26T14:49:34.874042</dc:date>
    <dc:format>image/svg+xml</dc:format>
    <dc:creator>
     <cc:Agent>
      <dc:title>Matplotlib v3.10.0, https://matplotlib.org/</dc:title>
     </cc:Agent>
    </dc:creator>
   </cc:Work>
  </rdf:RDF>
 </metadata>
 <defs>
  <style type="text/css">*{stroke-linejoin: round; stroke-linecap: butt}</style>
 </defs>
 <g id="figure_1">
  <g id="patch_1">
   <path d="M 0 288 
L 396 288 
L 396 0 
L 0 0 
z
" style="fill: #ffffff"/>
  </g>
  <g id="axes_1">
   <g id="patch_2">
    <path d="M 50.472353 242.357205 
L 374.851129 242.357205 
L 374.851129 14.561635 
L 50.472353 14.561635 
z
" style="fill: #ffffff"/>
   </g>
   <g id="PathCollection_1">
    <defs>
     <path id="m81e00c0383" d="M 0 3.872983 
C 1.027127 3.872983 2.012324 3.464901 2.738613 2.738613 
C 3.464901 2.012324 3.872983 1.027127 3.872983 0 
C 3.872983 -1.027127 3.464901 -2.012324 2.738613 -2.738613 
C 2.012324 -3.464901 1.027127 -3.872983 0 -3.872983 
C -1.027127 -3.872983 -2.012324 -3.464901 -2.738613 -2.738613 
C -3.464901 -2.012324 -3.872983 -1.027127 -3.872983 0 
C -3.872983 1.027127 -3.464901 2.012324 -2.738613 2.738613 
C -2.012324 3.464901 -1.027127 3.872983 0 3.872983 
z
" style="stroke: #000000"/>
    </defs>
    <g clip-path="url(#p6bed658699)">
     <use xlink:href="#m81e00c0383" x="65.216843" y="213.882759" style="fill: #1b9e77; stroke: #000000"/>
     <use xlink:href="#m81e00c0383" x="118.284703" y="225.604339" style="fill: #1b9e77; stroke: #000000"/>
     <use xlink:href="#m81e00c0383" x="168.903278" y="193.076067" style="fill: #1b9e77; stroke: #000000"/>
     <use xlink:href="#m81e00c0383" x="194.212565" y="166.05028" style="fill: #1b9e77; stroke: #000000"/>
     <use xlink:href="#m81e00c0383" x="206.186851" y="114.670234" style="fill: #1b9e77; stroke: #000000"/>
     <use xlink:href="#m81e00c0383" x="221.698995" y="86.817238" style="fill: #1b9e77; stroke: #000000"/>
     <use xlink:href="#m81e00c0383" x="299.259714" y="71.510528" style="fill: #1b9e77; stroke: #000000"/>
    </g>
   </g>
   <g id="PathCollection_2">
    <defs>
     <path id="m7dd908035f" d="M -3.872983 3.872983 
L 3.872983 3.872983 
L 3.872983 -3.872983 
L -3.872983 -3.872983 
z
" style="stroke: #000000"/>
    </defs>
    <g clip-path="url(#p6bed658699)">
     <use xlink:href="#m7dd908035f" x="65.216843" y="213.882759" style="fill: #66a61e; stroke: #000000"/>
     <use xlink:href="#m7dd908035f" x="117.468274" y="211.758613" style="fill: #66a61e; stroke: #000000"/>
     <use xlink:href="#m7dd908035f" x="169.17542" y="185.727292" style="fill: #66a61e; stroke: #000000"/>
     <use xlink:href="#m7dd908035f" x="194.484708" y="197.564262" style="fill: #66a61e; stroke: #000000"/>
     <use xlink:href="#m7dd908035f" x="205.642565" y="201.391381" style="fill: #66a61e; stroke: #000000"/>
     <use xlink:href="#m7dd908035f" x="221.426852" y="198.781295" style="fill: #66a61e; stroke: #000000"/>
     <use xlink:href="#m7dd908035f" x="298.715428" y="71.510528" style="fill: #66a61e; stroke: #000000"/>
    </g>
   </g>
   <g id="PathCollection_3">
    <defs>
     <path id="meedcafee47" d="M 0 -3.872983 
L -3.872983 3.872983 
L 3.872983 3.872983 
z
" style="stroke: #000000"/>
    </defs>
    <g clip-path="url(#p6bed658699)">
     <use xlink:href="#meedcafee47" x="65.761129" y="211.486549" style="fill: #666666; stroke: #000000"/>
     <use xlink:href="#meedcafee47" x="117.468274" y="213.882759" style="fill: #666666; stroke: #000000"/>
     <use xlink:href="#meedcafee47" x="221.154709" y="209.984235" style="fill: #666666; stroke: #000000"/>
     <use xlink:href="#meedcafee47" x="298.715428" y="204.80305" style="fill: #666666; stroke: #000000"/>
    </g>
   </g>
   <g id="matplotlib.axis_1">
    <g id="xtick_1">
     <g id="line2d_1">
      <defs>
       <path id="m5a1b41b463" d="M 0 0 
L 0 -3.5 
" style="stroke: #000000; stroke-width: 0.8"/>
      </defs>
      <g>
       <use xlink:href="#m5a1b41b463" x="65.216843" y="242.357205" style="stroke: #000000; stroke-width: 0.8"/>
      </g>
     </g>
     <g id="text_1">
      <!-- $\mathdefault{10^{-3}}$ -->
      <g transform="translate(54.757082 253.380476) scale(0.11 -0.11)">
       <defs>
        <path id="TeXGyreTermesX-Bold-31" d="M 2829 0 
L 2829 159 
C 2246 159 2138 255 2138 746 
L 2138 4384 
L 2029 4384 
L 416 3686 
L 416 3521 
C 474 3540 525 3559 544 3572 
C 717 3635 877 3680 960 3680 
C 1120 3680 1190 3540 1190 3241 
L 1190 790 
C 1190 267 1062 159 429 159 
L 429 0 
L 2829 0 
z
" transform="scale(0.015625)"/>
        <path id="TeXGyreTermesX-Bold-30" d="M 3046 2166 
C 3046 3440 2426 4403 1600 4403 
C 1184 4403 762 4123 499 3664 
C 294 3313 154 2714 154 2185 
C 154 873 755 -64 1606 -64 
C 2432 -64 3046 886 3046 2166 
z
M 2035 1434 
C 2035 1058 1984 561 1926 389 
C 1856 203 1754 114 1606 114 
C 1286 114 1165 491 1165 1434 
L 1165 2892 
C 1165 3855 1286 4224 1594 4224 
C 1907 4224 2035 3829 2035 2892 
L 2035 1434 
z
" transform="scale(0.015625)"/>
        <path id="txbsys-0" d="M 3929 1341 
L 3929 1955 
L 396 1955 
L 396 1341 
L 3929 1341 
z
" transform="scale(0.015625)"/>
        <path id="TeXGyreTermesX-Bold-33" d="M 2995 1596 
C 2995 1889 2899 2164 2714 2387 
C 2579 2540 2470 2617 2214 2732 
C 2624 2981 2746 3165 2746 3541 
C 2746 4090 2355 4416 1702 4416 
C 1069 4416 589 4097 237 3440 
L 371 3364 
C 614 3753 826 3900 1158 3900 
C 1562 3900 1811 3645 1811 3242 
C 1811 2822 1587 2598 979 2406 
L 979 2297 
C 1510 2112 1722 2004 1952 1786 
C 2150 1601 2266 1314 2266 1007 
C 2266 548 2022 254 1638 254 
C 1485 254 1363 324 1152 528 
C 902 778 710 880 518 880 
C 275 880 102 728 102 510 
C 102 166 493 -64 1082 -64 
C 2150 -64 2995 664 2995 1596 
z
" transform="scale(0.015625)"/>
       </defs>
       <use xlink:href="#TeXGyreTermesX-Bold-31" transform="scale(0.996264)"/>
       <use xlink:href="#TeXGyreTermesX-Bold-30" transform="translate(49.8132 0) scale(0.996264)"/>
       <use xlink:href="#txbsys-0" transform="translate(99.626401 36.164371) scale(0.727268)"/>
       <use xlink:href="#TeXGyreTermesX-Bold-33" transform="translate(148.78971 36.164371) scale(0.727268)"/>
      </g>
     </g>
    </g>
    <g id="xtick_2">
     <g id="line2d_2">
      <g>
       <use xlink:href="#m5a1b41b463" x="102.344906" y="242.357205" style="stroke: #000000; stroke-width: 0.8"/>
      </g>
     </g>
     <g id="text_2">
      <!-- $\mathdefault{10^{-2}}$ -->
      <g transform="translate(91.885145 253.380476) scale(0.11 -0.11)">
       <defs>
        <path id="TeXGyreTermesX-Bold-32" d="M 3059 1341 
L 2906 1341 
C 2720 884 2643 846 1990 846 
L 1024 846 
L 2061 1824 
C 2566 2301 2790 2726 2790 3210 
C 2790 3889 2298 4373 1606 4373 
C 1286 4373 979 4245 755 4016 
C 506 3768 378 3552 198 3075 
L 378 3075 
C 576 3469 813 3648 1158 3648 
C 1440 3648 1651 3527 1792 3298 
C 1869 3164 1920 2987 1920 2841 
C 1920 2561 1798 2211 1594 1900 
C 1267 1405 1043 1137 109 146 
L 109 0 
L 2771 0 
L 3059 1341 
z
" transform="scale(0.015625)"/>
       </defs>
       <use xlink:href="#TeXGyreTermesX-Bold-31" transform="scale(0.996264)"/>
       <use xlink:href="#TeXGyreTermesX-Bold-30" transform="translate(49.8132 0) scale(0.996264)"/>
       <use xlink:href="#txbsys-0" transform="translate(99.626401 36.164371) scale(0.727268)"/>
       <use xlink:href="#TeXGyreTermesX-Bold-32" transform="translate(148.78971 36.164371) scale(0.727268)"/>
      </g>
     </g>
    </g>
    <g id="xtick_3">
     <g id="line2d_3">
      <g>
       <use xlink:href="#m5a1b41b463" x="139.47297" y="242.357205" style="stroke: #000000; stroke-width: 0.8"/>
      </g>
     </g>
     <g id="text_3">
      <!-- $\mathdefault{10^{-1}}$ -->
      <g transform="translate(129.013208 253.380476) scale(0.11 -0.11)">
       <use xlink:href="#TeXGyreTermesX-Bold-31" transform="scale(0.996264)"/>
       <use xlink:href="#TeXGyreTermesX-Bold-30" transform="translate(49.8132 0) scale(0.996264)"/>
       <use xlink:href="#txbsys-0" transform="translate(99.626401 36.164371) scale(0.727268)"/>
       <use xlink:href="#TeXGyreTermesX-Bold-31" transform="translate(148.78971 36.164371) scale(0.727268)"/>
      </g>
     </g>
    </g>
    <g id="xtick_4">
     <g id="line2d_4">
      <g>
       <use xlink:href="#m5a1b41b463" x="176.601033" y="242.357205" style="stroke: #000000; stroke-width: 0.8"/>
      </g>
     </g>
     <g id="text_4">
      <!-- $\mathdefault{10^{0}}$ -->
      <g transform="translate(169.153969 253.380476) scale(0.11 -0.11)">
       <use xlink:href="#TeXGyreTermesX-Bold-31" transform="scale(0.996264)"/>
       <use xlink:href="#TeXGyreTermesX-Bold-30" transform="translate(49.8132 0) scale(0.996264)"/>
       <use xlink:href="#TeXGyreTermesX-Bold-30" transform="translate(99.626401 36.164371) scale(0.727268)"/>
      </g>
     </g>
    </g>
    <g id="xtick_5">
     <g id="line2d_5">
      <g>
       <use xlink:href="#m5a1b41b463" x="213.729097" y="242.357205" style="stroke: #000000; stroke-width: 0.8"/>
      </g>
     </g>
     <g id="text_5">
      <!-- $\mathdefault{10^{1}}$ -->
      <g transform="translate(206.282032 253.380476) scale(0.11 -0.11)">
       <use xlink:href="#TeXGyreTermesX-Bold-31" transform="scale(0.996264)"/>
       <use xlink:href="#TeXGyreTermesX-Bold-30" transform="translate(49.8132 0) scale(0.996264)"/>
       <use xlink:href="#TeXGyreTermesX-Bold-31" transform="translate(99.626401 36.164371) scale(0.727268)"/>
      </g>
     </g>
    </g>
    <g id="xtick_6">
     <g id="line2d_6">
      <g>
       <use xlink:href="#m5a1b41b463" x="250.85716" y="242.357205" style="stroke: #000000; stroke-width: 0.8"/>
      </g>
     </g>
     <g id="text_6">
      <!-- $\mathdefault{10^{2}}$ -->
      <g transform="translate(243.410096 253.380476) scale(0.11 -0.11)">
       <use xlink:href="#TeXGyreTermesX-Bold-31" transform="scale(0.996264)"/>
       <use xlink:href="#TeXGyreTermesX-Bold-30" transform="translate(49.8132 0) scale(0.996264)"/>
       <use xlink:href="#TeXGyreTermesX-Bold-32" transform="translate(99.626401 36.164371) scale(0.727268)"/>
      </g>
     </g>
    </g>
    <g id="xtick_7">
     <g id="line2d_7">
      <g>
       <use xlink:href="#m5a1b41b463" x="287.985223" y="242.357205" style="stroke: #000000; stroke-width: 0.8"/>
      </g>
     </g>
     <g id="text_7">
      <!-- $\mathdefault{10^{3}}$ -->
      <g transform="translate(280.538159 253.380476) scale(0.11 -0.11)">
       <use xlink:href="#TeXGyreTermesX-Bold-31" transform="scale(0.996264)"/>
       <use xlink:href="#TeXGyreTermesX-Bold-30" transform="translate(49.8132 0) scale(0.996264)"/>
       <use xlink:href="#TeXGyreTermesX-Bold-33" transform="translate(99.626401 36.164371) scale(0.727268)"/>
      </g>
     </g>
    </g>
    <g id="xtick_8">
     <g id="line2d_8">
      <g>
       <use xlink:href="#m5a1b41b463" x="325.113287" y="242.357205" style="stroke: #000000; stroke-width: 0.8"/>
      </g>
     </g>
     <g id="text_8">
      <!-- $\mathdefault{10^{4}}$ -->
      <g transform="translate(317.666223 253.380476) scale(0.11 -0.11)">
       <defs>
        <path id="TeXGyreTermesX-Bold-34" d="M 3040 896 
L 3040 1602 
L 2637 1602 
L 2637 4352 
L 2125 4352 
L 1747 3863 
C 928 2803 506 2219 122 1615 
L 122 896 
L 1709 896 
L 1709 -32 
L 2637 -32 
L 2637 896 
L 3040 896 
z
M 1722 1602 
L 384 1602 
L 1722 3488 
L 1722 1602 
z
" transform="scale(0.015625)"/>
       </defs>
       <use xlink:href="#TeXGyreTermesX-Bold-31" transform="scale(0.996264)"/>
       <use xlink:href="#TeXGyreTermesX-Bold-30" transform="translate(49.8132 0) scale(0.996264)"/>
       <use xlink:href="#TeXGyreTermesX-Bold-34" transform="translate(99.626401 36.164371) scale(0.727268)"/>
      </g>
     </g>
    </g>
    <g id="xtick_9">
     <g id="line2d_9">
      <g>
       <use xlink:href="#m5a1b41b463" x="362.24135" y="242.357205" style="stroke: #000000; stroke-width: 0.8"/>
      </g>
     </g>
     <g id="text_9">
      <!-- $\mathdefault{10^{5}}$ -->
      <g transform="translate(354.794286 253.380476) scale(0.11 -0.11)">
       <defs>
        <path id="TeXGyreTermesX-Bold-35" d="M 3008 4288 
L 947 4288 
L 326 2093 
C 934 2049 1197 2010 1478 1921 
C 2048 1743 2387 1381 2387 960 
C 2387 604 2106 324 1747 324 
C 1600 324 1427 400 1171 591 
C 896 795 704 877 538 877 
C 307 877 141 718 141 496 
C 141 159 512 -64 1082 -64 
C 2138 -64 2886 575 2886 1476 
C 2886 2140 2477 2652 1779 2850 
C 1536 2920 1338 2946 813 2946 
L 954 3481 
L 2733 3481 
L 3008 4288 
z
" transform="scale(0.015625)"/>
       </defs>
       <use xlink:href="#TeXGyreTermesX-Bold-31" transform="scale(0.996264)"/>
       <use xlink:href="#TeXGyreTermesX-Bold-30" transform="translate(49.8132 0) scale(0.996264)"/>
       <use xlink:href="#TeXGyreTermesX-Bold-35" transform="translate(99.626401 36.164371) scale(0.727268)"/>
      </g>
     </g>
    </g>
    <g id="xtick_10">
     <g id="line2d_10">
      <defs>
       <path id="mbe65256803" d="M 0 0 
L 0 -2 
" style="stroke: #000000; stroke-width: 0.6"/>
      </defs>
      <g>
       <use xlink:href="#mbe65256803" x="54.040182" y="242.357205" style="stroke: #000000; stroke-width: 0.6"/>
      </g>
     </g>
    </g>
    <g id="xtick_11">
     <g id="line2d_11">
      <g>
       <use xlink:href="#mbe65256803" x="56.980028" y="242.357205" style="stroke: #000000; stroke-width: 0.6"/>
      </g>
     </g>
    </g>
    <g id="xtick_12">
     <g id="line2d_12">
      <g>
       <use xlink:href="#mbe65256803" x="59.465633" y="242.357205" style="stroke: #000000; stroke-width: 0.6"/>
      </g>
     </g>
    </g>
    <g id="xtick_13">
     <g id="line2d_13">
      <g>
       <use xlink:href="#mbe65256803" x="61.618762" y="242.357205" style="stroke: #000000; stroke-width: 0.6"/>
      </g>
     </g>
    </g>
    <g id="xtick_14">
     <g id="line2d_14">
      <g>
       <use xlink:href="#mbe65256803" x="63.517956" y="242.357205" style="stroke: #000000; stroke-width: 0.6"/>
      </g>
     </g>
    </g>
    <g id="xtick_15">
     <g id="line2d_15">
      <g>
       <use xlink:href="#mbe65256803" x="76.393504" y="242.357205" style="stroke: #000000; stroke-width: 0.6"/>
      </g>
     </g>
    </g>
    <g id="xtick_16">
     <g id="line2d_16">
      <g>
       <use xlink:href="#mbe65256803" x="82.931431" y="242.357205" style="stroke: #000000; stroke-width: 0.6"/>
      </g>
     </g>
    </g>
    <g id="xtick_17">
     <g id="line2d_17">
      <g>
       <use xlink:href="#mbe65256803" x="87.570164" y="242.357205" style="stroke: #000000; stroke-width: 0.6"/>
      </g>
     </g>
    </g>
    <g id="xtick_18">
     <g id="line2d_18">
      <g>
       <use xlink:href="#mbe65256803" x="91.168245" y="242.357205" style="stroke: #000000; stroke-width: 0.6"/>
      </g>
     </g>
    </g>
    <g id="xtick_19">
     <g id="line2d_19">
      <g>
       <use xlink:href="#mbe65256803" x="94.108092" y="242.357205" style="stroke: #000000; stroke-width: 0.6"/>
      </g>
     </g>
    </g>
    <g id="xtick_20">
     <g id="line2d_20">
      <g>
       <use xlink:href="#mbe65256803" x="96.593696" y="242.357205" style="stroke: #000000; stroke-width: 0.6"/>
      </g>
     </g>
    </g>
    <g id="xtick_21">
     <g id="line2d_21">
      <g>
       <use xlink:href="#mbe65256803" x="98.746825" y="242.357205" style="stroke: #000000; stroke-width: 0.6"/>
      </g>
     </g>
    </g>
    <g id="xtick_22">
     <g id="line2d_22">
      <g>
       <use xlink:href="#mbe65256803" x="100.646019" y="242.357205" style="stroke: #000000; stroke-width: 0.6"/>
      </g>
     </g>
    </g>
    <g id="xtick_23">
     <g id="line2d_23">
      <g>
       <use xlink:href="#mbe65256803" x="113.521567" y="242.357205" style="stroke: #000000; stroke-width: 0.6"/>
      </g>
     </g>
    </g>
    <g id="xtick_24">
     <g id="line2d_24">
      <g>
       <use xlink:href="#mbe65256803" x="120.059494" y="242.357205" style="stroke: #000000; stroke-width: 0.6"/>
      </g>
     </g>
    </g>
    <g id="xtick_25">
     <g id="line2d_25">
      <g>
       <use xlink:href="#mbe65256803" x="124.698228" y="242.357205" style="stroke: #000000; stroke-width: 0.6"/>
      </g>
     </g>
    </g>
    <g id="xtick_26">
     <g id="line2d_26">
      <g>
       <use xlink:href="#mbe65256803" x="128.296309" y="242.357205" style="stroke: #000000; stroke-width: 0.6"/>
      </g>
     </g>
    </g>
    <g id="xtick_27">
     <g id="line2d_27">
      <g>
       <use xlink:href="#mbe65256803" x="131.236155" y="242.357205" style="stroke: #000000; stroke-width: 0.6"/>
      </g>
     </g>
    </g>
    <g id="xtick_28">
     <g id="line2d_28">
      <g>
       <use xlink:href="#mbe65256803" x="133.72176" y="242.357205" style="stroke: #000000; stroke-width: 0.6"/>
      </g>
     </g>
    </g>
    <g id="xtick_29">
     <g id="line2d_29">
      <g>
       <use xlink:href="#mbe65256803" x="135.874889" y="242.357205" style="stroke: #000000; stroke-width: 0.6"/>
      </g>
     </g>
    </g>
    <g id="xtick_30">
     <g id="line2d_30">
      <g>
       <use xlink:href="#mbe65256803" x="137.774083" y="242.357205" style="stroke: #000000; stroke-width: 0.6"/>
      </g>
     </g>
    </g>
    <g id="xtick_31">
     <g id="line2d_31">
      <g>
       <use xlink:href="#mbe65256803" x="150.64963" y="242.357205" style="stroke: #000000; stroke-width: 0.6"/>
      </g>
     </g>
    </g>
    <g id="xtick_32">
     <g id="line2d_32">
      <g>
       <use xlink:href="#mbe65256803" x="157.187558" y="242.357205" style="stroke: #000000; stroke-width: 0.6"/>
      </g>
     </g>
    </g>
    <g id="xtick_33">
     <g id="line2d_33">
      <g>
       <use xlink:href="#mbe65256803" x="161.826291" y="242.357205" style="stroke: #000000; stroke-width: 0.6"/>
      </g>
     </g>
    </g>
    <g id="xtick_34">
     <g id="line2d_34">
      <g>
       <use xlink:href="#mbe65256803" x="165.424372" y="242.357205" style="stroke: #000000; stroke-width: 0.6"/>
      </g>
     </g>
    </g>
    <g id="xtick_35">
     <g id="line2d_35">
      <g>
       <use xlink:href="#mbe65256803" x="168.364219" y="242.357205" style="stroke: #000000; stroke-width: 0.6"/>
      </g>
     </g>
    </g>
    <g id="xtick_36">
     <g id="line2d_36">
      <g>
       <use xlink:href="#mbe65256803" x="170.849823" y="242.357205" style="stroke: #000000; stroke-width: 0.6"/>
      </g>
     </g>
    </g>
    <g id="xtick_37">
     <g id="line2d_37">
      <g>
       <use xlink:href="#mbe65256803" x="173.002952" y="242.357205" style="stroke: #000000; stroke-width: 0.6"/>
      </g>
     </g>
    </g>
    <g id="xtick_38">
     <g id="line2d_38">
      <g>
       <use xlink:href="#mbe65256803" x="174.902146" y="242.357205" style="stroke: #000000; stroke-width: 0.6"/>
      </g>
     </g>
    </g>
    <g id="xtick_39">
     <g id="line2d_39">
      <g>
       <use xlink:href="#mbe65256803" x="187.777694" y="242.357205" style="stroke: #000000; stroke-width: 0.6"/>
      </g>
     </g>
    </g>
    <g id="xtick_40">
     <g id="line2d_40">
      <g>
       <use xlink:href="#mbe65256803" x="194.315621" y="242.357205" style="stroke: #000000; stroke-width: 0.6"/>
      </g>
     </g>
    </g>
    <g id="xtick_41">
     <g id="line2d_41">
      <g>
       <use xlink:href="#mbe65256803" x="198.954355" y="242.357205" style="stroke: #000000; stroke-width: 0.6"/>
      </g>
     </g>
    </g>
    <g id="xtick_42">
     <g id="line2d_42">
      <g>
       <use xlink:href="#mbe65256803" x="202.552436" y="242.357205" style="stroke: #000000; stroke-width: 0.6"/>
      </g>
     </g>
    </g>
    <g id="xtick_43">
     <g id="line2d_43">
      <g>
       <use xlink:href="#mbe65256803" x="205.492282" y="242.357205" style="stroke: #000000; stroke-width: 0.6"/>
      </g>
     </g>
    </g>
    <g id="xtick_44">
     <g id="line2d_44">
      <g>
       <use xlink:href="#mbe65256803" x="207.977887" y="242.357205" style="stroke: #000000; stroke-width: 0.6"/>
      </g>
     </g>
    </g>
    <g id="xtick_45">
     <g id="line2d_45">
      <g>
       <use xlink:href="#mbe65256803" x="210.131015" y="242.357205" style="stroke: #000000; stroke-width: 0.6"/>
      </g>
     </g>
    </g>
    <g id="xtick_46">
     <g id="line2d_46">
      <g>
       <use xlink:href="#mbe65256803" x="212.03021" y="242.357205" style="stroke: #000000; stroke-width: 0.6"/>
      </g>
     </g>
    </g>
    <g id="xtick_47">
     <g id="line2d_47">
      <g>
       <use xlink:href="#mbe65256803" x="224.905757" y="242.357205" style="stroke: #000000; stroke-width: 0.6"/>
      </g>
     </g>
    </g>
    <g id="xtick_48">
     <g id="line2d_48">
      <g>
       <use xlink:href="#mbe65256803" x="231.443685" y="242.357205" style="stroke: #000000; stroke-width: 0.6"/>
      </g>
     </g>
    </g>
    <g id="xtick_49">
     <g id="line2d_49">
      <g>
       <use xlink:href="#mbe65256803" x="236.082418" y="242.357205" style="stroke: #000000; stroke-width: 0.6"/>
      </g>
     </g>
    </g>
    <g id="xtick_50">
     <g id="line2d_50">
      <g>
       <use xlink:href="#mbe65256803" x="239.680499" y="242.357205" style="stroke: #000000; stroke-width: 0.6"/>
      </g>
     </g>
    </g>
    <g id="xtick_51">
     <g id="line2d_51">
      <g>
       <use xlink:href="#mbe65256803" x="242.620346" y="242.357205" style="stroke: #000000; stroke-width: 0.6"/>
      </g>
     </g>
    </g>
    <g id="xtick_52">
     <g id="line2d_52">
      <g>
       <use xlink:href="#mbe65256803" x="245.10595" y="242.357205" style="stroke: #000000; stroke-width: 0.6"/>
      </g>
     </g>
    </g>
    <g id="xtick_53">
     <g id="line2d_53">
      <g>
       <use xlink:href="#mbe65256803" x="247.259079" y="242.357205" style="stroke: #000000; stroke-width: 0.6"/>
      </g>
     </g>
    </g>
    <g id="xtick_54">
     <g id="line2d_54">
      <g>
       <use xlink:href="#mbe65256803" x="249.158273" y="242.357205" style="stroke: #000000; stroke-width: 0.6"/>
      </g>
     </g>
    </g>
    <g id="xtick_55">
     <g id="line2d_55">
      <g>
       <use xlink:href="#mbe65256803" x="262.033821" y="242.357205" style="stroke: #000000; stroke-width: 0.6"/>
      </g>
     </g>
    </g>
    <g id="xtick_56">
     <g id="line2d_56">
      <g>
       <use xlink:href="#mbe65256803" x="268.571748" y="242.357205" style="stroke: #000000; stroke-width: 0.6"/>
      </g>
     </g>
    </g>
    <g id="xtick_57">
     <g id="line2d_57">
      <g>
       <use xlink:href="#mbe65256803" x="273.210482" y="242.357205" style="stroke: #000000; stroke-width: 0.6"/>
      </g>
     </g>
    </g>
    <g id="xtick_58">
     <g id="line2d_58">
      <g>
       <use xlink:href="#mbe65256803" x="276.808563" y="242.357205" style="stroke: #000000; stroke-width: 0.6"/>
      </g>
     </g>
    </g>
    <g id="xtick_59">
     <g id="line2d_59">
      <g>
       <use xlink:href="#mbe65256803" x="279.748409" y="242.357205" style="stroke: #000000; stroke-width: 0.6"/>
      </g>
     </g>
    </g>
    <g id="xtick_60">
     <g id="line2d_60">
      <g>
       <use xlink:href="#mbe65256803" x="282.234014" y="242.357205" style="stroke: #000000; stroke-width: 0.6"/>
      </g>
     </g>
    </g>
    <g id="xtick_61">
     <g id="line2d_61">
      <g>
       <use xlink:href="#mbe65256803" x="284.387142" y="242.357205" style="stroke: #000000; stroke-width: 0.6"/>
      </g>
     </g>
    </g>
    <g id="xtick_62">
     <g id="line2d_62">
      <g>
       <use xlink:href="#mbe65256803" x="286.286336" y="242.357205" style="stroke: #000000; stroke-width: 0.6"/>
      </g>
     </g>
    </g>
    <g id="xtick_63">
     <g id="line2d_63">
      <g>
       <use xlink:href="#mbe65256803" x="299.161884" y="242.357205" style="stroke: #000000; stroke-width: 0.6"/>
      </g>
     </g>
    </g>
    <g id="xtick_64">
     <g id="line2d_64">
      <g>
       <use xlink:href="#mbe65256803" x="305.699812" y="242.357205" style="stroke: #000000; stroke-width: 0.6"/>
      </g>
     </g>
    </g>
    <g id="xtick_65">
     <g id="line2d_65">
      <g>
       <use xlink:href="#mbe65256803" x="310.338545" y="242.357205" style="stroke: #000000; stroke-width: 0.6"/>
      </g>
     </g>
    </g>
    <g id="xtick_66">
     <g id="line2d_66">
      <g>
       <use xlink:href="#mbe65256803" x="313.936626" y="242.357205" style="stroke: #000000; stroke-width: 0.6"/>
      </g>
     </g>
    </g>
    <g id="xtick_67">
     <g id="line2d_67">
      <g>
       <use xlink:href="#mbe65256803" x="316.876472" y="242.357205" style="stroke: #000000; stroke-width: 0.6"/>
      </g>
     </g>
    </g>
    <g id="xtick_68">
     <g id="line2d_68">
      <g>
       <use xlink:href="#mbe65256803" x="319.362077" y="242.357205" style="stroke: #000000; stroke-width: 0.6"/>
      </g>
     </g>
    </g>
    <g id="xtick_69">
     <g id="line2d_69">
      <g>
       <use xlink:href="#mbe65256803" x="321.515206" y="242.357205" style="stroke: #000000; stroke-width: 0.6"/>
      </g>
     </g>
    </g>
    <g id="xtick_70">
     <g id="line2d_70">
      <g>
       <use xlink:href="#mbe65256803" x="323.4144" y="242.357205" style="stroke: #000000; stroke-width: 0.6"/>
      </g>
     </g>
    </g>
    <g id="xtick_71">
     <g id="line2d_71">
      <g>
       <use xlink:href="#mbe65256803" x="336.289948" y="242.357205" style="stroke: #000000; stroke-width: 0.6"/>
      </g>
     </g>
    </g>
    <g id="xtick_72">
     <g id="line2d_72">
      <g>
       <use xlink:href="#mbe65256803" x="342.827875" y="242.357205" style="stroke: #000000; stroke-width: 0.6"/>
      </g>
     </g>
    </g>
    <g id="xtick_73">
     <g id="line2d_73">
      <g>
       <use xlink:href="#mbe65256803" x="347.466608" y="242.357205" style="stroke: #000000; stroke-width: 0.6"/>
      </g>
     </g>
    </g>
    <g id="xtick_74">
     <g id="line2d_74">
      <g>
       <use xlink:href="#mbe65256803" x="351.06469" y="242.357205" style="stroke: #000000; stroke-width: 0.6"/>
      </g>
     </g>
    </g>
    <g id="xtick_75">
     <g id="line2d_75">
      <g>
       <use xlink:href="#mbe65256803" x="354.004536" y="242.357205" style="stroke: #000000; stroke-width: 0.6"/>
      </g>
     </g>
    </g>
    <g id="xtick_76">
     <g id="line2d_76">
      <g>
       <use xlink:href="#mbe65256803" x="356.490141" y="242.357205" style="stroke: #000000; stroke-width: 0.6"/>
      </g>
     </g>
    </g>
    <g id="xtick_77">
     <g id="line2d_77">
      <g>
       <use xlink:href="#mbe65256803" x="358.643269" y="242.357205" style="stroke: #000000; stroke-width: 0.6"/>
      </g>
     </g>
    </g>
    <g id="xtick_78">
     <g id="line2d_78">
      <g>
       <use xlink:href="#mbe65256803" x="360.542463" y="242.357205" style="stroke: #000000; stroke-width: 0.6"/>
      </g>
     </g>
    </g>
    <g id="xtick_79">
     <g id="line2d_79">
      <g>
       <use xlink:href="#mbe65256803" x="373.418011" y="242.357205" style="stroke: #000000; stroke-width: 0.6"/>
      </g>
     </g>
    </g>
    <g id="text_10">
     <!-- \textbf{Time [$hr$]} -->
     <g transform="translate(187.251042 267.965766) scale(0.12 -0.12)">
      <defs>
       <path id="TeXGyreTermesX-Bold-54" d="M 4070 3013 
L 4058 4288 
L 218 4288 
L 198 3013 
L 384 3013 
C 493 3777 826 4072 1619 4072 
L 1619 740 
C 1619 272 1549 204 998 159 
L 998 0 
L 3283 0 
L 3283 178 
C 2726 178 2656 242 2656 724 
L 2656 4072 
C 3443 4072 3776 3777 3885 3013 
L 4070 3013 
z
" transform="scale(0.015625)"/>
       <path id="TeXGyreTermesX-Bold-69" d="M 1632 -32 
L 1632 121 
C 1408 152 1331 241 1331 484 
L 1331 2908 
L 102 2908 
L 102 2755 
C 384 2698 442 2641 442 2379 
L 442 503 
C 442 241 397 191 102 121 
L 102 -32 
L 1632 -32 
z
M 1370 3882 
C 1370 4162 1152 4372 877 4372 
C 602 4372 384 4162 384 3882 
C 384 3602 602 3392 877 3392 
C 1152 3392 1370 3602 1370 3882 
z
" transform="scale(0.015625)"/>
       <path id="TeXGyreTermesX-Bold-6d" d="M 5210 0 
L 5210 159 
C 4960 159 4890 236 4890 510 
L 4890 2109 
C 4890 2657 4550 3008 4026 3008 
C 3661 3008 3418 2862 3085 2455 
C 2893 2856 2669 3008 2266 3008 
C 1862 3008 1568 2836 1325 2455 
L 1325 2932 
L 102 2932 
L 102 2779 
C 384 2741 454 2665 454 2404 
L 454 534 
C 454 273 384 204 102 153 
L 102 0 
L 1638 0 
L 1638 153 
C 1414 184 1344 273 1344 515 
L 1344 2213 
C 1344 2251 1446 2372 1530 2436 
C 1664 2538 1773 2582 1882 2582 
C 2131 2582 2227 2436 2227 2054 
L 2227 515 
C 2227 254 2157 172 1920 153 
L 1920 0 
L 3418 0 
L 3418 153 
C 3194 178 3117 273 3117 515 
L 3117 2213 
C 3117 2245 3219 2366 3302 2429 
C 3443 2538 3552 2582 3661 2582 
C 3904 2582 4000 2429 4000 2054 
L 4000 515 
C 4000 248 3930 172 3686 153 
L 3686 0 
L 5210 0 
z
" transform="scale(0.015625)"/>
       <path id="TeXGyreTermesX-Bold-65" d="M 2726 736 
L 2573 826 
C 2310 510 2118 394 1843 394 
C 1600 394 1408 504 1280 723 
C 1158 930 1107 1149 1082 1600 
L 2694 1600 
C 2656 2115 2560 2400 2362 2642 
C 2157 2883 1856 3013 1498 3013 
C 698 3013 160 2388 160 1465 
C 160 543 685 -64 1478 -64 
C 1997 -64 2310 134 2726 736 
z
M 1907 1835 
L 1050 1835 
C 1069 2571 1184 2816 1498 2816 
C 1683 2816 1798 2718 1850 2528 
C 1882 2411 1894 2240 1907 1928 
L 1907 1835 
z
" transform="scale(0.015625)"/>
       <path id="TeXGyreTermesX-Bold-5b" d="M 1926 -960 
L 1926 -750 
L 1414 -750 
C 1152 -750 1094 -686 1094 -413 
L 1094 3650 
C 1094 4020 1165 4096 1523 4096 
L 1926 4096 
L 1926 4306 
L 429 4306 
L 429 -960 
L 1926 -960 
z
" transform="scale(0.015625)"/>
       <path id="NewTXBMI-68" d="M 3187 809 
L 3046 905 
C 2771 507 2650 373 2566 373 
C 2515 373 2458 430 2458 475 
C 2458 494 2458 501 2477 552 
L 2848 1694 
C 2976 2091 3040 2354 3040 2476 
C 3040 2778 2854 2957 2554 2957 
C 2118 2957 1830 2714 1197 1810 
L 1882 4461 
C 1389 4365 1069 4313 550 4269 
L 550 4096 
L 691 4096 
C 870 4096 954 4026 954 3880 
C 954 3822 941 3752 902 3612 
L -83 -6 
L 691 -6 
C 1018 1117 1139 1431 1453 1893 
C 1728 2298 1946 2496 2118 2496 
C 2195 2496 2259 2432 2259 2362 
C 2259 2298 2150 1983 2086 1790 
C 1773 866 1696 571 1696 309 
C 1696 90 1869 -64 2118 -64 
C 2509 -64 2765 148 3187 809 
z
" transform="scale(0.015625)"/>
       <path id="NewTXBMI-72" d="M 2490 2515 
C 2490 2771 2342 2938 2125 2938 
C 1798 2938 1536 2617 1030 1597 
L 1453 2938 
C 1069 2842 947 2823 173 2759 
L 173 2579 
C 461 2579 518 2553 518 2431 
C 518 2270 320 1515 -134 -32 
L 640 -32 
L 851 638 
C 1043 1261 1139 1507 1312 1802 
C 1485 2111 1638 2291 1728 2291 
C 1754 2291 1792 2266 1830 2208 
C 1926 2099 2010 2048 2118 2048 
C 2330 2048 2490 2247 2490 2515 
z
" transform="scale(0.015625)"/>
       <path id="TeXGyreTermesX-Bold-5d" d="M 1702 -960 
L 1702 4306 
L 205 4306 
L 205 4096 
L 608 4096 
C 966 4096 1037 4020 1037 3650 
L 1037 -413 
C 1037 -693 986 -750 717 -750 
L 205 -750 
L 205 -960 
L 1702 -960 
z
" transform="scale(0.015625)"/>
      </defs>
      <use xlink:href="#TeXGyreTermesX-Bold-54" transform="scale(0.996264)"/>
      <use xlink:href="#TeXGyreTermesX-Bold-69" transform="translate(64.95635 0) scale(0.996264)"/>
      <use xlink:href="#TeXGyreTermesX-Bold-6d" transform="translate(92.652477 0) scale(0.996264)"/>
      <use xlink:href="#TeXGyreTermesX-Bold-65" transform="translate(175.641287 0) scale(0.996264)"/>
      <use xlink:href="#TeXGyreTermesX-Bold-5b" transform="translate(244.782034 0) scale(0.996264)"/>
      <use xlink:href="#NewTXBMI-68" transform="translate(283.536698 0) scale(0.996264)"/>
      <use xlink:href="#NewTXBMI-72" transform="translate(346.30133 0) scale(0.996264)"/>
      <use xlink:href="#TeXGyreTermesX-Bold-5d" transform="translate(390.336136 0) scale(0.996264)"/>
     </g>
    </g>
   </g>
   <g id="matplotlib.axis_2">
    <g id="ytick_1">
     <g id="line2d_80">
      <defs>
       <path id="mf352ed120a" d="M 0 0 
L 3.5 0 
" style="stroke: #000000; stroke-width: 0.8"/>
      </defs>
      <g>
       <use xlink:href="#mf352ed120a" x="50.472353" y="242.357205" style="stroke: #000000; stroke-width: 0.8"/>
      </g>
     </g>
     <g id="text_11">
      <!-- $\mathdefault{−0.2}$ -->
      <g transform="translate(25.601474 246.118841) scale(0.11 -0.11)">
       <defs>
        <path id="NewTXBMI-93" d="M 1344 473 
C 1344 768 1101 1017 800 1017 
C 493 1017 262 761 262 473 
C 262 173 493 -64 800 -64 
C 1101 -64 1344 166 1344 473 
z
" transform="scale(0.015625)"/>
       </defs>
       <use xlink:href="#txbsys-0" transform="scale(0.996264)"/>
       <use xlink:href="#TeXGyreTermesX-Bold-30" transform="translate(67.347408 0) scale(0.996264)"/>
       <use xlink:href="#NewTXBMI-93" transform="translate(118.754606 0) scale(0.996264)"/>
       <use xlink:href="#TeXGyreTermesX-Bold-32" transform="translate(145.354867 0) scale(0.996264)"/>
      </g>
     </g>
    </g>
    <g id="ytick_2">
     <g id="line2d_81">
      <g>
       <use xlink:href="#mf352ed120a" x="50.472353" y="213.882759" style="stroke: #000000; stroke-width: 0.8"/>
      </g>
     </g>
     <g id="text_12">
      <!-- $\mathdefault{0.0}$ -->
      <g transform="translate(32.976011 217.644394) scale(0.11 -0.11)">
       <use xlink:href="#TeXGyreTermesX-Bold-30" transform="scale(0.996264)"/>
       <use xlink:href="#NewTXBMI-93" transform="translate(51.407199 0) scale(0.996264)"/>
       <use xlink:href="#TeXGyreTermesX-Bold-30" transform="translate(78.00746 0) scale(0.996264)"/>
      </g>
     </g>
    </g>
    <g id="ytick_3">
     <g id="line2d_82">
      <g>
       <use xlink:href="#mf352ed120a" x="50.472353" y="185.408313" style="stroke: #000000; stroke-width: 0.8"/>
      </g>
     </g>
     <g id="text_13">
      <!-- $\mathdefault{0.2}$ -->
      <g transform="translate(32.976011 189.169948) scale(0.11 -0.11)">
       <use xlink:href="#TeXGyreTermesX-Bold-30" transform="scale(0.996264)"/>
       <use xlink:href="#NewTXBMI-93" transform="translate(51.407199 0) scale(0.996264)"/>
       <use xlink:href="#TeXGyreTermesX-Bold-32" transform="translate(78.00746 0) scale(0.996264)"/>
      </g>
     </g>
    </g>
    <g id="ytick_4">
     <g id="line2d_83">
      <g>
       <use xlink:href="#mf352ed120a" x="50.472353" y="156.933866" style="stroke: #000000; stroke-width: 0.8"/>
      </g>
     </g>
     <g id="text_14">
      <!-- $\mathdefault{0.4}$ -->
      <g transform="translate(32.976011 160.695502) scale(0.11 -0.11)">
       <use xlink:href="#TeXGyreTermesX-Bold-30" transform="scale(0.996264)"/>
       <use xlink:href="#NewTXBMI-93" transform="translate(51.407199 0) scale(0.996264)"/>
       <use xlink:href="#TeXGyreTermesX-Bold-34" transform="translate(78.00746 0) scale(0.996264)"/>
      </g>
     </g>
    </g>
    <g id="ytick_5">
     <g id="line2d_84">
      <g>
       <use xlink:href="#mf352ed120a" x="50.472353" y="128.45942" style="stroke: #000000; stroke-width: 0.8"/>
      </g>
     </g>
     <g id="text_15">
      <!-- $\mathdefault{0.6}$ -->
      <g transform="translate(32.976011 132.221056) scale(0.11 -0.11)">
       <defs>
        <path id="TeXGyreTermesX-Bold-36" d="M 3040 1427 
C 3040 2193 2573 2688 1843 2688 
C 1638 2688 1498 2663 1306 2580 
C 1542 3515 2074 4030 3008 4221 
L 3008 4387 
C 2157 4266 1760 4126 1274 3796 
C 557 3307 179 2596 179 1752 
C 179 654 768 -64 1664 -64 
C 2458 -64 3040 564 3040 1427 
z
M 2067 1046 
C 2067 298 1990 108 1677 108 
C 1530 108 1414 172 1350 291 
C 1242 501 1178 964 1178 1553 
C 1178 1946 1216 2307 1261 2339 
C 1312 2377 1402 2402 1491 2402 
C 1920 2402 2067 2054 2067 1046 
z
" transform="scale(0.015625)"/>
       </defs>
       <use xlink:href="#TeXGyreTermesX-Bold-30" transform="scale(0.996264)"/>
       <use xlink:href="#NewTXBMI-93" transform="translate(51.407199 0) scale(0.996264)"/>
       <use xlink:href="#TeXGyreTermesX-Bold-36" transform="translate(78.00746 0) scale(0.996264)"/>
      </g>
     </g>
    </g>
    <g id="ytick_6">
     <g id="line2d_85">
      <g>
       <use xlink:href="#mf352ed120a" x="50.472353" y="99.984974" style="stroke: #000000; stroke-width: 0.8"/>
      </g>
     </g>
     <g id="text_16">
      <!-- $\mathdefault{0.8}$ -->
      <g transform="translate(32.976011 103.746609) scale(0.11 -0.11)">
       <defs>
        <path id="TeXGyreTermesX-Bold-38" d="M 3021 1212 
C 3021 1768 2746 2164 2061 2597 
C 2675 2815 2931 3075 2931 3483 
C 2931 4051 2445 4409 1683 4409 
C 819 4409 250 3961 250 3292 
C 250 2814 506 2462 1139 2086 
C 774 1965 627 1881 461 1722 
C 275 1543 179 1301 179 1020 
C 179 370 723 -64 1536 -64 
C 2426 -64 3021 447 3021 1212 
z
M 2170 3439 
C 2170 3139 2118 2993 1907 2712 
C 1370 2986 1075 3337 1075 3694 
C 1075 3994 1306 4224 1606 4224 
C 1965 4224 2170 3937 2170 3439 
z
M 2131 829 
C 2131 402 1920 140 1574 140 
C 1184 140 954 478 954 1046 
C 954 1397 1024 1595 1280 1971 
C 1978 1505 2131 1301 2131 829 
z
" transform="scale(0.015625)"/>
       </defs>
       <use xlink:href="#TeXGyreTermesX-Bold-30" transform="scale(0.996264)"/>
       <use xlink:href="#NewTXBMI-93" transform="translate(51.407199 0) scale(0.996264)"/>
       <use xlink:href="#TeXGyreTermesX-Bold-38" transform="translate(78.00746 0) scale(0.996264)"/>
      </g>
     </g>
    </g>
    <g id="ytick_7">
     <g id="line2d_86">
      <g>
       <use xlink:href="#mf352ed120a" x="50.472353" y="71.510528" style="stroke: #000000; stroke-width: 0.8"/>
      </g>
     </g>
     <g id="text_17">
      <!-- $\mathdefault{1.0}$ -->
      <g transform="translate(32.976011 75.272163) scale(0.11 -0.11)">
       <use xlink:href="#TeXGyreTermesX-Bold-31" transform="scale(0.996264)"/>
       <use xlink:href="#NewTXBMI-93" transform="translate(51.407199 0) scale(0.996264)"/>
       <use xlink:href="#TeXGyreTermesX-Bold-30" transform="translate(78.00746 0) scale(0.996264)"/>
      </g>
     </g>
    </g>
    <g id="ytick_8">
     <g id="line2d_87">
      <g>
       <use xlink:href="#mf352ed120a" x="50.472353" y="43.036082" style="stroke: #000000; stroke-width: 0.8"/>
      </g>
     </g>
     <g id="text_18">
      <!-- $\mathdefault{1.2}$ -->
      <g transform="translate(32.976011 46.797717) scale(0.11 -0.11)">
       <use xlink:href="#TeXGyreTermesX-Bold-31" transform="scale(0.996264)"/>
       <use xlink:href="#NewTXBMI-93" transform="translate(51.407199 0) scale(0.996264)"/>
       <use xlink:href="#TeXGyreTermesX-Bold-32" transform="translate(78.00746 0) scale(0.996264)"/>
      </g>
     </g>
    </g>
    <g id="ytick_9">
     <g id="line2d_88">
      <g>
       <use xlink:href="#mf352ed120a" x="50.472353" y="14.561635" style="stroke: #000000; stroke-width: 0.8"/>
      </g>
     </g>
     <g id="text_19">
      <!-- $\mathdefault{1.4}$ -->
      <g transform="translate(32.976011 18.323271) scale(0.11 -0.11)">
       <use xlink:href="#TeXGyreTermesX-Bold-31" transform="scale(0.996264)"/>
       <use xlink:href="#NewTXBMI-93" transform="translate(51.407199 0) scale(0.996264)"/>
       <use xlink:href="#TeXGyreTermesX-Bold-34" transform="translate(78.00746 0) scale(0.996264)"/>
      </g>
     </g>
    </g>
    <g id="ytick_10">
     <g id="line2d_89">
      <defs>
       <path id="m8a8517e1a5" d="M 0 0 
L 2 0 
" style="stroke: #000000; stroke-width: 0.6"/>
      </defs>
      <g>
       <use xlink:href="#m8a8517e1a5" x="50.472353" y="236.662316" style="stroke: #000000; stroke-width: 0.6"/>
      </g>
     </g>
    </g>
    <g id="ytick_11">
     <g id="line2d_90">
      <g>
       <use xlink:href="#m8a8517e1a5" x="50.472353" y="230.967427" style="stroke: #000000; stroke-width: 0.6"/>
      </g>
     </g>
    </g>
    <g id="ytick_12">
     <g id="line2d_91">
      <g>
       <use xlink:href="#m8a8517e1a5" x="50.472353" y="225.272537" style="stroke: #000000; stroke-width: 0.6"/>
      </g>
     </g>
    </g>
    <g id="ytick_13">
     <g id="line2d_92">
      <g>
       <use xlink:href="#m8a8517e1a5" x="50.472353" y="219.577648" style="stroke: #000000; stroke-width: 0.6"/>
      </g>
     </g>
    </g>
    <g id="ytick_14">
     <g id="line2d_93">
      <g>
       <use xlink:href="#m8a8517e1a5" x="50.472353" y="208.18787" style="stroke: #000000; stroke-width: 0.6"/>
      </g>
     </g>
    </g>
    <g id="ytick_15">
     <g id="line2d_94">
      <g>
       <use xlink:href="#m8a8517e1a5" x="50.472353" y="202.49298" style="stroke: #000000; stroke-width: 0.6"/>
      </g>
     </g>
    </g>
    <g id="ytick_16">
     <g id="line2d_95">
      <g>
       <use xlink:href="#m8a8517e1a5" x="50.472353" y="196.798091" style="stroke: #000000; stroke-width: 0.6"/>
      </g>
     </g>
    </g>
    <g id="ytick_17">
     <g id="line2d_96">
      <g>
       <use xlink:href="#m8a8517e1a5" x="50.472353" y="191.103202" style="stroke: #000000; stroke-width: 0.6"/>
      </g>
     </g>
    </g>
    <g id="ytick_18">
     <g id="line2d_97">
      <g>
       <use xlink:href="#m8a8517e1a5" x="50.472353" y="179.713423" style="stroke: #000000; stroke-width: 0.6"/>
      </g>
     </g>
    </g>
    <g id="ytick_19">
     <g id="line2d_98">
      <g>
       <use xlink:href="#m8a8517e1a5" x="50.472353" y="174.018534" style="stroke: #000000; stroke-width: 0.6"/>
      </g>
     </g>
    </g>
    <g id="ytick_20">
     <g id="line2d_99">
      <g>
       <use xlink:href="#m8a8517e1a5" x="50.472353" y="168.323645" style="stroke: #000000; stroke-width: 0.6"/>
      </g>
     </g>
    </g>
    <g id="ytick_21">
     <g id="line2d_100">
      <g>
       <use xlink:href="#m8a8517e1a5" x="50.472353" y="162.628756" style="stroke: #000000; stroke-width: 0.6"/>
      </g>
     </g>
    </g>
    <g id="ytick_22">
     <g id="line2d_101">
      <g>
       <use xlink:href="#m8a8517e1a5" x="50.472353" y="151.238977" style="stroke: #000000; stroke-width: 0.6"/>
      </g>
     </g>
    </g>
    <g id="ytick_23">
     <g id="line2d_102">
      <g>
       <use xlink:href="#m8a8517e1a5" x="50.472353" y="145.544088" style="stroke: #000000; stroke-width: 0.6"/>
      </g>
     </g>
    </g>
    <g id="ytick_24">
     <g id="line2d_103">
      <g>
       <use xlink:href="#m8a8517e1a5" x="50.472353" y="139.849199" style="stroke: #000000; stroke-width: 0.6"/>
      </g>
     </g>
    </g>
    <g id="ytick_25">
     <g id="line2d_104">
      <g>
       <use xlink:href="#m8a8517e1a5" x="50.472353" y="134.154309" style="stroke: #000000; stroke-width: 0.6"/>
      </g>
     </g>
    </g>
    <g id="ytick_26">
     <g id="line2d_105">
      <g>
       <use xlink:href="#m8a8517e1a5" x="50.472353" y="122.764531" style="stroke: #000000; stroke-width: 0.6"/>
      </g>
     </g>
    </g>
    <g id="ytick_27">
     <g id="line2d_106">
      <g>
       <use xlink:href="#m8a8517e1a5" x="50.472353" y="117.069642" style="stroke: #000000; stroke-width: 0.6"/>
      </g>
     </g>
    </g>
    <g id="ytick_28">
     <g id="line2d_107">
      <g>
       <use xlink:href="#m8a8517e1a5" x="50.472353" y="111.374753" style="stroke: #000000; stroke-width: 0.6"/>
      </g>
     </g>
    </g>
    <g id="ytick_29">
     <g id="line2d_108">
      <g>
       <use xlink:href="#m8a8517e1a5" x="50.472353" y="105.679863" style="stroke: #000000; stroke-width: 0.6"/>
      </g>
     </g>
    </g>
    <g id="ytick_30">
     <g id="line2d_109">
      <g>
       <use xlink:href="#m8a8517e1a5" x="50.472353" y="94.290085" style="stroke: #000000; stroke-width: 0.6"/>
      </g>
     </g>
    </g>
    <g id="ytick_31">
     <g id="line2d_110">
      <g>
       <use xlink:href="#m8a8517e1a5" x="50.472353" y="88.595196" style="stroke: #000000; stroke-width: 0.6"/>
      </g>
     </g>
    </g>
    <g id="ytick_32">
     <g id="line2d_111">
      <g>
       <use xlink:href="#m8a8517e1a5" x="50.472353" y="82.900306" style="stroke: #000000; stroke-width: 0.6"/>
      </g>
     </g>
    </g>
    <g id="ytick_33">
     <g id="line2d_112">
      <g>
       <use xlink:href="#m8a8517e1a5" x="50.472353" y="77.205417" style="stroke: #000000; stroke-width: 0.6"/>
      </g>
     </g>
    </g>
    <g id="ytick_34">
     <g id="line2d_113">
      <g>
       <use xlink:href="#m8a8517e1a5" x="50.472353" y="65.815639" style="stroke: #000000; stroke-width: 0.6"/>
      </g>
     </g>
    </g>
    <g id="ytick_35">
     <g id="line2d_114">
      <g>
       <use xlink:href="#m8a8517e1a5" x="50.472353" y="60.120749" style="stroke: #000000; stroke-width: 0.6"/>
      </g>
     </g>
    </g>
    <g id="ytick_36">
     <g id="line2d_115">
      <g>
       <use xlink:href="#m8a8517e1a5" x="50.472353" y="54.42586" style="stroke: #000000; stroke-width: 0.6"/>
      </g>
     </g>
    </g>
    <g id="ytick_37">
     <g id="line2d_116">
      <g>
       <use xlink:href="#m8a8517e1a5" x="50.472353" y="48.730971" style="stroke: #000000; stroke-width: 0.6"/>
      </g>
     </g>
    </g>
    <g id="ytick_38">
     <g id="line2d_117">
      <g>
       <use xlink:href="#m8a8517e1a5" x="50.472353" y="37.341192" style="stroke: #000000; stroke-width: 0.6"/>
      </g>
     </g>
    </g>
    <g id="ytick_39">
     <g id="line2d_118">
      <g>
       <use xlink:href="#m8a8517e1a5" x="50.472353" y="31.646303" style="stroke: #000000; stroke-width: 0.6"/>
      </g>
     </g>
    </g>
    <g id="ytick_40">
     <g id="line2d_119">
      <g>
       <use xlink:href="#m8a8517e1a5" x="50.472353" y="25.951414" style="stroke: #000000; stroke-width: 0.6"/>
      </g>
     </g>
    </g>
    <g id="ytick_41">
     <g id="line2d_120">
      <g>
       <use xlink:href="#m8a8517e1a5" x="50.472353" y="20.256525" style="stroke: #000000; stroke-width: 0.6"/>
      </g>
     </g>
    </g>
    <g id="text_20">
     <!-- $X$ -->
     <g transform="translate(19.007214 132.446468) rotate(-90) scale(0.12 -0.12)">
      <defs>
       <path id="NewTXBMI-5e" d="M 3750 0 
L 3750 160 
C 3290 211 3194 301 3008 903 
L 2534 2423 
L 3808 3737 
C 4090 4019 4211 4096 4442 4128 
L 4442 4288 
L 3142 4288 
L 3142 4128 
L 3283 4115 
C 3430 4102 3494 4057 3494 3961 
C 3494 3846 3379 3685 3046 3333 
L 2445 2698 
C 2381 2910 2362 2986 2336 3050 
C 2189 3506 2118 3782 2118 3878 
C 2118 4025 2189 4083 2400 4108 
L 2592 4128 
L 2592 4288 
L 640 4288 
L 640 4128 
C 1024 4089 1120 4019 1222 3723 
L 1760 1981 
L 1325 1506 
C 314 390 122 211 -154 160 
L -154 0 
L 1216 0 
L 1216 160 
C 928 186 800 269 800 416 
C 800 499 845 583 992 743 
L 1850 1692 
L 1971 1308 
C 2144 814 2214 545 2214 403 
C 2214 237 2125 192 1779 160 
L 1779 0 
L 3750 0 
z
" transform="scale(0.015625)"/>
      </defs>
      <use xlink:href="#NewTXBMI-5e" transform="scale(0.996264)"/>
     </g>
    </g>
   </g>
   <g id="line2d_121">
    <path d="M 65.216843 213.882759 
L 246.661568 213.882759 
L 246.843766 213.738244 
L 247.202098 212.70866 
L 247.725095 209.967363 
L 248.397039 204.683757 
L 249.19941 196.195195 
L 250.259607 182.091495 
L 251.796422 157.98378 
L 254.376911 117.242373 
L 255.579965 101.804735 
L 256.600838 91.471134 
L 257.467432 84.775159 
L 258.289818 80.063143 
L 259.072288 76.866389 
L 259.818538 74.770968 
L 260.531774 73.441545 
L 261.214793 72.623975 
L 261.941242 72.096246 
L 262.771868 71.77049 
L 263.879841 71.586826 
L 265.946121 71.515217 
L 282.748793 71.510528 
L 360.106639 71.510528 
L 360.106639 71.510528 
" clip-path="url(#p6bed658699)" style="fill: none; stroke: #000000; stroke-linecap: square"/>
   </g>
   <g id="line2d_122">
    <path d="M 65.216843 213.882759 
L 266.756566 213.771713 
L 277.451833 213.530009 
L 284.115935 213.16838 
L 289.017362 212.688141 
L 292.917333 212.088839 
L 296.166282 211.369953 
L 298.969478 210.526559 
L 301.455081 209.549846 
L 303.704411 208.429188 
L 305.776741 207.149268 
L 307.717015 205.689195 
L 309.556547 204.025372 
L 311.324233 202.124163 
L 313.040052 199.948442 
L 314.723102 197.449787 
L 316.385895 194.576572 
L 318.042741 191.261583 
L 319.705893 187.426676 
L 321.388771 182.975094 
L 323.105622 177.789839 
L 324.875066 171.720449 
L 326.725765 164.555903 
L 328.70542 155.974991 
L 330.917083 145.358613 
L 333.704105 130.80585 
L 339.28855 101.397304 
L 341.143312 92.992487 
L 342.67306 87.043216 
L 344.012965 82.684329 
L 345.224878 79.464657 
L 346.34674 77.088074 
L 347.406945 75.342099 
L 348.431684 74.068123 
L 349.451472 73.146054 
L 350.507962 72.487071 
L 351.666615 72.028416 
L 353.046618 71.729329 
L 354.93676 71.564564 
L 358.661042 71.511863 
L 360.106639 71.510734 
L 360.106639 71.510734 
" clip-path="url(#p6bed658699)" style="fill: none; stroke-dasharray: 3.7,1.6; stroke-dashoffset: 0; stroke: #000000"/>
   </g>
   <g id="line2d_123">
    <path d="M 322.978576 242.357205 
L 322.978576 14.561635 
" clip-path="url(#p6bed658699)" style="fill: none; stroke-dasharray: 1,1.65; stroke-dashoffset: 0; stroke: #0000ff"/>
   </g>
   <g id="line2d_124">
    <path d="M 360.106639 242.357205 
L 360.106639 14.561635 
" clip-path="url(#p6bed658699)" style="fill: none; stroke-dasharray: 1,1.65; stroke-dashoffset: 0; stroke: #0000ff"/>
   </g>
   <g id="patch_3">
    <path d="M 50.472353 242.357205 
L 50.472353 14.561635 
" style="fill: none; stroke: #000000; stroke-width: 0.8; stroke-linejoin: miter; stroke-linecap: square"/>
   </g>
   <g id="patch_4">
    <path d="M 374.851129 242.357205 
L 374.851129 14.561635 
" style="fill: none; stroke: #000000; stroke-width: 0.8; stroke-linejoin: miter; stroke-linecap: square"/>
   </g>
   <g id="patch_5">
    <path d="M 50.472353 242.357205 
L 374.851129 242.357205 
" style="fill: none; stroke: #000000; stroke-width: 0.8; stroke-linejoin: miter; stroke-linecap: square"/>
   </g>
   <g id="patch_6">
    <path d="M 50.472353 14.561635 
L 374.851129 14.561635 
" style="fill: none; stroke: #000000; stroke-width: 0.8; stroke-linejoin: miter; stroke-linecap: square"/>
   </g>
   <g id="text_21">
    <!-- \textbf{$t$ = 1 year} -->
    <g transform="translate(303.108098 265.063513) scale(0.1 -0.1)">
     <defs>
      <path id="NewTXBMI-74" d="M 1440 837 
L 1299 926 
C 1082 588 915 415 813 415 
C 762 415 710 460 710 511 
C 710 632 826 1073 1056 1864 
L 1267 2624 
L 1798 2624 
L 1798 2893 
L 1338 2893 
L 1587 3808 
L 1363 3808 
C 1018 3303 698 3037 192 2848 
L 192 2624 
L 518 2624 
L 83 1105 
C -13 773 -70 499 -70 383 
C -70 135 109 -32 378 -32 
C 762 -32 1018 180 1440 837 
z
" transform="scale(0.015625)"/>
      <path id="TeXGyreTermesX-Bold-3d" d="M 3366 1856 
L 3366 2415 
L 282 2415 
L 282 1856 
L 3366 1856 
z
M 3366 768 
L 3366 1328 
L 282 1328 
L 282 768 
L 3366 768 
z
" transform="scale(0.015625)"/>
      <path id="TeXGyreTermesX-Bold-79" d="M 3072 2791 
L 3072 2944 
L 2106 2944 
L 2106 2785 
C 2381 2785 2458 2740 2458 2587 
C 2458 2517 2445 2460 2387 2301 
L 1952 1080 
L 1491 2253 
C 1363 2576 1363 2576 1363 2627 
C 1363 2715 1440 2772 1600 2785 
L 1702 2785 
L 1702 2944 
L 102 2944 
L 102 2791 
C 250 2772 288 2753 326 2696 
C 346 2696 634 2076 742 1808 
L 1510 -61 
L 1395 -397 
C 1286 -714 1120 -917 973 -917 
C 915 -917 864 -866 864 -809 
C 864 -809 864 -790 870 -771 
C 877 -740 883 -708 883 -683 
C 883 -500 730 -372 512 -372 
C 275 -372 102 -538 102 -778 
C 102 -1070 358 -1280 723 -1280 
C 941 -1280 1126 -1203 1261 -1071 
C 1395 -925 1523 -671 1747 -75 
L 2701 2442 
C 2810 2709 2874 2772 3072 2791 
z
" transform="scale(0.015625)"/>
      <path id="TeXGyreTermesX-Bold-61" d="M 3123 297 
L 3027 430 
L 2963 366 
C 2944 347 2925 341 2893 341 
C 2803 341 2758 392 2758 499 
L 2758 2152 
C 2758 2689 2272 3019 1491 3019 
C 768 3019 282 2696 282 2221 
C 282 1955 435 1803 698 1803 
C 954 1803 1133 1955 1133 2170 
C 1133 2259 1101 2341 1018 2442 
C 960 2506 941 2543 941 2581 
C 941 2714 1114 2816 1344 2816 
C 1722 2816 1882 2645 1882 2259 
L 1882 1797 
C 1133 1569 832 1455 589 1296 
C 301 1107 160 885 160 607 
C 160 221 454 -64 864 -64 
C 1235 -64 1530 63 1882 380 
C 1952 57 2093 -64 2406 -64 
C 2682 -64 2880 38 3123 297 
z
M 1875 658 
C 1702 462 1574 386 1421 386 
C 1229 386 1094 556 1094 810 
C 1094 1176 1363 1436 1875 1575 
L 1875 658 
z
" transform="scale(0.015625)"/>
      <path id="TeXGyreTermesX-Bold-72" d="M 2778 2512 
C 2778 2798 2560 3008 2259 3008 
C 1939 3008 1696 2836 1395 2410 
L 1395 2932 
L 186 2932 
L 186 2779 
C 461 2741 531 2658 531 2404 
L 531 533 
C 531 272 467 203 186 152 
L 186 0 
L 1888 0 
L 1888 165 
C 1498 165 1421 248 1421 645 
L 1421 1854 
C 1421 2186 1600 2461 1811 2461 
C 1862 2461 1920 2417 1990 2315 
C 2112 2143 2208 2086 2374 2086 
C 2611 2086 2778 2264 2778 2512 
z
" transform="scale(0.015625)"/>
     </defs>
     <use xlink:href="#NewTXBMI-74" transform="scale(0.996264)"/>
     <use xlink:href="#TeXGyreTermesX-Bold-3d" transform="translate(56.886681 0) scale(0.996264)"/>
     <use xlink:href="#TeXGyreTermesX-Bold-31" transform="translate(138.580299 0) scale(0.996264)"/>
     <use xlink:href="#TeXGyreTermesX-Bold-79" transform="translate(213.3001 0) scale(0.996264)"/>
     <use xlink:href="#TeXGyreTermesX-Bold-65" transform="translate(259.128245 0) scale(0.996264)"/>
     <use xlink:href="#TeXGyreTermesX-Bold-61" transform="translate(303.362391 0) scale(0.996264)"/>
     <use xlink:href="#TeXGyreTermesX-Bold-72" transform="translate(353.175592 0) scale(0.996264)"/>
    </g>
   </g>
   <g id="text_22">
    <!-- \textbf{$t$ = 10 years} -->
    <g transform="translate(335.807768 275.74143) scale(0.1 -0.1)">
     <defs>
      <path id="TeXGyreTermesX-Bold-73" d="M 2310 899 
C 2310 1348 2067 1627 1427 1887 
C 992 2070 813 2228 813 2444 
C 813 2653 992 2811 1235 2811 
C 1408 2811 1574 2741 1715 2608 
C 1850 2481 1920 2360 2016 2086 
L 2176 2086 
L 2176 3008 
L 2035 3008 
C 1997 2913 1958 2881 1875 2881 
C 1837 2881 1779 2893 1677 2922 
C 1472 2985 1325 3008 1178 3008 
C 595 3008 173 2617 173 2086 
C 173 1669 435 1378 1082 1107 
C 1523 917 1696 759 1696 557 
C 1696 311 1504 146 1216 146 
C 768 146 474 432 339 986 
L 160 986 
L 160 -64 
L 320 -64 
C 390 70 429 114 486 114 
C 518 114 570 102 634 77 
C 819 4 1146 -64 1325 -64 
C 1907 -64 2310 328 2310 899 
z
" transform="scale(0.015625)"/>
     </defs>
     <use xlink:href="#NewTXBMI-74" transform="scale(0.996264)"/>
     <use xlink:href="#TeXGyreTermesX-Bold-3d" transform="translate(56.886681 0) scale(0.996264)"/>
     <use xlink:href="#TeXGyreTermesX-Bold-31" transform="translate(138.580299 0) scale(0.996264)"/>
     <use xlink:href="#TeXGyreTermesX-Bold-30" transform="translate(188.3935 0) scale(0.996264)"/>
     <use xlink:href="#TeXGyreTermesX-Bold-79" transform="translate(263.113301 0) scale(0.996264)"/>
     <use xlink:href="#TeXGyreTermesX-Bold-65" transform="translate(308.941445 0) scale(0.996264)"/>
     <use xlink:href="#TeXGyreTermesX-Bold-61" transform="translate(353.175592 0) scale(0.996264)"/>
     <use xlink:href="#TeXGyreTermesX-Bold-72" transform="translate(402.988792 0) scale(0.996264)"/>
     <use xlink:href="#TeXGyreTermesX-Bold-73" transform="translate(447.222938 0) scale(0.996264)"/>
    </g>
   </g>
   <g id="legend_1">
    <g id="patch_7">
     <path d="M 58.172353 70.095862 
L 301.043521 70.095862 
Q 303.243521 70.095862 303.243521 67.895862 
L 303.243521 22.261635 
Q 303.243521 20.061635 301.043521 20.061635 
L 58.172353 20.061635 
Q 55.972353 20.061635 55.972353 22.261635 
L 55.972353 67.895862 
Q 55.972353 70.095862 58.172353 70.095862 
z
" style="fill: #ffffff; opacity: 0.8; stroke: #cccccc; stroke-linejoin: miter"/>
    </g>
    <g id="PathCollection_4">
     <g>
      <use xlink:href="#m81e00c0383" x="71.372353" y="29.274135" style="fill: #1b9e77; stroke: #000000"/>
     </g>
    </g>
    <g id="text_23">
     <!-- \textbf{Pure W} -->
     <g transform="translate(91.172353 32.161635) scale(0.11 -0.11)">
      <defs>
       <path id="TeXGyreTermesX-Bold-50" d="M 3840 3130 
C 3840 3868 3232 4288 2163 4288 
L 102 4288 
L 102 4129 
C 550 4091 640 3989 640 3545 
L 640 742 
C 640 349 557 222 256 183 
C 237 183 173 171 102 158 
L 102 0 
L 2240 0 
L 2240 158 
C 1734 222 1677 279 1677 741 
L 1677 1920 
C 2541 1920 2758 1939 3040 2054 
C 3558 2251 3840 2640 3840 3130 
z
M 2739 3101 
C 2739 2701 2662 2460 2496 2314 
C 2342 2187 2131 2143 1677 2143 
L 1677 3843 
C 1677 3989 1786 4066 1997 4066 
C 2528 4066 2739 3787 2739 3101 
z
" transform="scale(0.015625)"/>
       <path id="TeXGyreTermesX-Bold-75" d="M 3437 152 
L 3437 305 
C 3155 305 3078 388 3078 660 
L 3078 2944 
L 1792 2944 
L 1792 2792 
C 2112 2767 2189 2690 2189 2419 
L 2189 627 
C 1978 419 1850 349 1664 349 
C 1402 349 1306 476 1306 799 
L 1306 2944 
L 102 2944 
L 102 2792 
C 365 2741 416 2684 416 2419 
L 416 822 
C 416 266 736 -64 1267 -64 
C 1600 -64 1824 38 2195 355 
L 2195 -58 
C 2470 38 2624 63 3040 108 
L 3437 152 
z
" transform="scale(0.015625)"/>
       <path id="TeXGyreTermesX-Bold-57" d="M 6278 4173 
L 6278 4331 
L 5114 4331 
L 5114 4160 
C 5459 4160 5555 4097 5555 3898 
C 5555 3816 5542 3720 5510 3631 
L 4794 1444 
L 4102 3591 
C 4038 3795 4013 3892 4013 3949 
C 4013 4103 4109 4160 4390 4160 
C 4390 4160 4435 4160 4474 4173 
L 4474 4331 
L 2477 4331 
L 2477 4160 
C 2739 4160 2867 4102 2938 3950 
L 3162 3339 
L 2406 1380 
L 1638 3696 
C 1606 3798 1594 3849 1594 3906 
C 1594 4091 1670 4148 2003 4173 
L 2003 4331 
L 122 4331 
L 122 4173 
C 390 4135 454 4078 563 3766 
L 1920 -64 
L 2099 -64 
L 3290 2970 
L 4384 -64 
L 4557 -64 
L 5837 3766 
C 5920 4021 6067 4154 6278 4173 
z
" transform="scale(0.015625)"/>
      </defs>
      <use xlink:href="#TeXGyreTermesX-Bold-50" transform="scale(0.996264)"/>
      <use xlink:href="#TeXGyreTermesX-Bold-75" transform="translate(60.871737 0) scale(0.996264)"/>
      <use xlink:href="#TeXGyreTermesX-Bold-72" transform="translate(116.263992 0) scale(0.996264)"/>
      <use xlink:href="#TeXGyreTermesX-Bold-65" transform="translate(159.501844 0) scale(0.996264)"/>
      <use xlink:href="#TeXGyreTermesX-Bold-57" transform="translate(228.64259 0) scale(0.996264)"/>
     </g>
    </g>
    <g id="PathCollection_5">
     <g>
      <use xlink:href="#m7dd908035f" x="71.372353" y="44.852211" style="fill: #66a61e; stroke: #000000"/>
     </g>
    </g>
    <g id="text_24">
     <!-- \textbf{K-Doped W} -->
     <g transform="translate(91.172353 47.739711) scale(0.11 -0.11)">
      <defs>
       <path id="TeXGyreTermesX-Bold-4b" d="M 4922 0 
L 4922 159 
C 4762 159 4691 191 4608 287 
L 2656 2690 
C 3859 3920 4090 4078 4710 4129 
L 4710 4288 
L 2861 4288 
L 2861 4123 
C 2970 4123 3059 4117 3091 4110 
C 3322 4097 3405 4047 3405 3920 
C 3405 3819 3373 3768 3174 3572 
L 1786 2189 
L 1786 3564 
C 1786 4021 1882 4123 2355 4123 
L 2355 4288 
L 192 4288 
L 192 4123 
C 634 4123 749 4027 749 3696 
L 749 612 
C 749 286 653 210 192 159 
L 192 0 
L 2349 0 
L 2349 159 
C 1888 216 1786 299 1786 610 
L 1786 1852 
L 1958 2011 
L 3123 556 
C 3245 403 3277 345 3277 275 
C 3277 191 3187 159 2976 159 
C 2944 159 2861 159 2771 159 
L 2771 0 
L 4922 0 
z
" transform="scale(0.015625)"/>
       <path id="TeXGyreTermesX-Bold-2d" d="M 1837 1088 
L 1837 1825 
L 282 1825 
L 282 1088 
L 1837 1088 
z
" transform="scale(0.015625)"/>
       <path id="TeXGyreTermesX-Bold-44" d="M 4416 2188 
C 4416 3495 3520 4288 2042 4288 
L 90 4288 
L 90 4129 
C 499 4091 621 3996 621 3703 
L 621 572 
C 621 292 461 165 90 165 
L 90 0 
L 2112 0 
C 3494 0 4416 876 4416 2188 
z
M 3302 2094 
C 3302 1491 3174 946 2970 660 
C 2752 369 2445 223 2029 223 
C 1741 223 1658 305 1658 590 
L 1658 3850 
C 1658 3996 1786 4072 2035 4072 
C 2496 4072 2822 3863 3040 3425 
C 3213 3089 3302 2626 3302 2094 
z
" transform="scale(0.015625)"/>
       <path id="TeXGyreTermesX-Bold-6f" d="M 3046 1471 
C 3046 2356 2432 3013 1606 3013 
C 794 3013 160 2349 160 1490 
C 160 587 768 -64 1606 -64 
C 2432 -64 3046 593 3046 1471 
z
M 2106 1433 
C 2106 462 1978 133 1606 133 
C 1229 133 1101 455 1101 1377 
C 1101 2487 1216 2816 1613 2816 
C 1984 2816 2106 2469 2106 1433 
z
" transform="scale(0.015625)"/>
       <path id="TeXGyreTermesX-Bold-70" d="M 3354 1551 
C 3354 2442 2874 3050 2163 3050 
C 1786 3050 1555 2904 1357 2534 
L 1357 2974 
L 134 2974 
L 134 2821 
C 416 2777 480 2712 480 2444 
L 480 -756 
C 480 -1019 429 -1076 122 -1127 
L 122 -1280 
L 1869 -1280 
L 1869 -1140 
C 1478 -1140 1370 -1012 1370 -584 
L 1370 318 
C 1677 19 1843 -64 2125 -64 
C 2842 -64 3354 603 3354 1551 
z
M 2406 1461 
C 2406 665 2227 286 1862 286 
C 1651 286 1466 434 1370 678 
L 1370 2238 
C 1370 2283 1427 2386 1504 2469 
C 1632 2610 1779 2688 1920 2688 
C 2253 2688 2406 2302 2406 1461 
z
" transform="scale(0.015625)"/>
       <path id="TeXGyreTermesX-Bold-64" d="M 3418 152 
L 3418 305 
C 3123 305 3040 387 3040 655 
L 3040 4320 
L 1664 4320 
L 1664 4169 
C 2093 4137 2150 4093 2150 3803 
L 2150 2650 
C 1875 2942 1683 3044 1389 3044 
C 685 3044 160 2362 160 1436 
C 160 568 646 -64 1318 -64 
C 1658 -64 1869 38 2170 356 
L 2170 -58 
C 2464 25 2624 57 3021 101 
L 3418 152 
z
M 2150 739 
C 2150 702 2086 597 2010 516 
C 1882 373 1747 305 1606 305 
C 1267 305 1107 687 1107 1493 
C 1107 2313 1280 2688 1651 2688 
C 1862 2688 2061 2534 2150 2292 
L 2150 739 
z
" transform="scale(0.015625)"/>
      </defs>
      <use xlink:href="#TeXGyreTermesX-Bold-4b" transform="scale(0.996264)"/>
      <use xlink:href="#TeXGyreTermesX-Bold-2d" transform="translate(73.026125 0) scale(0.996264)"/>
      <use xlink:href="#TeXGyreTermesX-Bold-44" transform="translate(106.201734 0) scale(0.996264)"/>
      <use xlink:href="#TeXGyreTermesX-Bold-6f" transform="translate(178.132008 0) scale(0.996264)"/>
      <use xlink:href="#TeXGyreTermesX-Bold-70" transform="translate(227.945209 0) scale(0.996264)"/>
      <use xlink:href="#TeXGyreTermesX-Bold-65" transform="translate(283.337463 0) scale(0.996264)"/>
      <use xlink:href="#TeXGyreTermesX-Bold-64" transform="translate(327.57161 0) scale(0.996264)"/>
      <use xlink:href="#TeXGyreTermesX-Bold-57" transform="translate(407.870464 0) scale(0.996264)"/>
     </g>
    </g>
    <g id="PathCollection_6">
     <g>
      <use xlink:href="#meedcafee47" x="71.372353" y="60.430287" style="fill: #666666; stroke: #000000"/>
     </g>
    </g>
    <g id="text_25">
     <!-- \textbf{K-Doped W-3\% Re} -->
     <g transform="translate(91.172353 63.317787) scale(0.11 -0.11)">
      <defs>
       <path id="TeXGyreTermesX-Bold-25" d="M 6029 1154 
C 6029 1792 5619 2372 5011 2372 
C 4371 2372 3910 1792 3910 1142 
C 3910 492 4378 -64 5011 -64 
C 5619 -64 6029 517 6029 1154 
z
M 4128 4416 
L 3859 4416 
C 3565 4098 3258 3968 2822 3968 
C 2547 3968 2362 4010 2150 4110 
C 1990 4234 1798 4305 1574 4305 
C 934 4305 474 3728 474 3082 
C 474 2435 941 1884 1574 1884 
C 2182 1884 2592 2466 2592 3105 
C 2592 3340 2534 3567 2438 3764 
C 2560 3739 2682 3726 2810 3726 
C 3066 3726 3315 3784 3578 3898 
L 2381 -64 
L 2765 -64 
L 4128 4416 
z
M 5850 1141 
C 5850 726 5626 229 5254 229 
C 4858 229 4685 688 4685 1141 
C 4685 1589 4858 2048 5254 2048 
C 5626 2048 5850 1551 5850 1141 
z
M 2413 3076 
C 2413 2666 2189 2176 1818 2176 
C 1421 2176 1248 2634 1248 3085 
C 1248 3517 1414 3968 1792 3968 
C 1907 3900 2035 3844 2157 3801 
C 2323 3621 2413 3329 2413 3076 
z
" transform="scale(0.015625)"/>
       <path id="TeXGyreTermesX-Bold-52" d="M 4576 0 
L 4576 159 
C 4461 159 4378 197 4314 280 
L 3027 2086 
C 3405 2207 3565 2290 3744 2448 
C 3930 2620 4032 2873 4032 3159 
C 4032 3889 3398 4288 2227 4288 
L 166 4288 
L 166 4110 
C 640 4110 730 4015 730 3557 
L 730 744 
C 730 280 666 216 166 159 
L 166 0 
L 2330 0 
L 2330 159 
C 1830 223 1766 292 1766 742 
L 1766 1984 
L 1939 1984 
L 3264 0 
L 4576 0 
z
M 2938 3130 
C 2938 2723 2842 2474 2637 2340 
C 2470 2232 2253 2187 1766 2187 
L 1766 3805 
C 1766 3843 1792 3938 1811 3977 
C 1850 4040 1952 4072 2112 4072 
C 2701 4072 2938 3799 2938 3130 
z
" transform="scale(0.015625)"/>
      </defs>
      <use xlink:href="#TeXGyreTermesX-Bold-4b" transform="scale(0.996264)"/>
      <use xlink:href="#TeXGyreTermesX-Bold-2d" transform="translate(73.026125 0) scale(0.996264)"/>
      <use xlink:href="#TeXGyreTermesX-Bold-44" transform="translate(106.201734 0) scale(0.996264)"/>
      <use xlink:href="#TeXGyreTermesX-Bold-6f" transform="translate(178.132008 0) scale(0.996264)"/>
      <use xlink:href="#TeXGyreTermesX-Bold-70" transform="translate(227.945209 0) scale(0.996264)"/>
      <use xlink:href="#TeXGyreTermesX-Bold-65" transform="translate(283.337463 0) scale(0.996264)"/>
      <use xlink:href="#TeXGyreTermesX-Bold-64" transform="translate(327.57161 0) scale(0.996264)"/>
      <use xlink:href="#TeXGyreTermesX-Bold-57" transform="translate(407.870464 0) scale(0.996264)"/>
      <use xlink:href="#TeXGyreTermesX-Bold-2d" transform="translate(502.515515 0) scale(0.996264)"/>
      <use xlink:href="#TeXGyreTermesX-Bold-33" transform="translate(535.691125 0) scale(0.996264)"/>
      <use xlink:href="#TeXGyreTermesX-Bold-25" transform="translate(585.504325 0) scale(0.996264)"/>
      <use xlink:href="#TeXGyreTermesX-Bold-52" transform="translate(710.037326 0) scale(0.996264)"/>
      <use xlink:href="#TeXGyreTermesX-Bold-65" transform="translate(779.975027 0) scale(0.996264)"/>
     </g>
    </g>
    <g id="line2d_125">
     <path d="M 203.835327 28.311635 
L 214.835327 28.311635 
L 225.835327 28.311635 
" style="fill: none; stroke: #000000; stroke-linecap: square"/>
    </g>
    <g id="text_26">
     <!-- \textbf{Alfonso \textit{et. al.}} -->
     <g transform="translate(234.635327 32.161635) scale(0.11 -0.11)">
      <defs>
       <path id="TeXGyreTermesX-Bold-41" d="M 4410 0 
L 4410 159 
C 4128 159 4058 248 3712 1042 
L 2285 4384 
L 2106 4384 
L 685 902 
C 442 305 365 216 58 159 
L 58 0 
L 1357 0 
L 1357 159 
C 979 159 832 232 832 406 
C 832 492 877 647 1018 1013 
L 1114 1280 
L 2554 1280 
C 2771 761 2848 532 2848 387 
C 2848 243 2765 184 2541 184 
L 2336 159 
L 2336 0 
L 4410 0 
z
M 2458 1528 
L 1210 1528 
L 1811 3057 
L 2458 1528 
z
" transform="scale(0.015625)"/>
       <path id="TeXGyreTermesX-Bold-6c" d="M 1632 0 
L 1632 153 
C 1421 153 1318 274 1318 528 
L 1318 4288 
L 102 4288 
L 102 4136 
C 326 4117 429 4002 429 3768 
L 429 533 
C 429 299 320 172 102 153 
L 102 0 
L 1632 0 
z
" transform="scale(0.015625)"/>
       <path id="TeXGyreTermesX-Bold-66" d="M 2490 3776 
C 2490 4153 2118 4416 1574 4416 
C 1146 4416 813 4262 640 3980 
C 499 3757 454 3494 454 2944 
L 90 2944 
L 90 2664 
L 454 2664 
L 454 536 
C 454 262 384 184 90 153 
L 90 0 
L 1869 0 
L 1869 159 
C 1421 159 1344 237 1344 653 
L 1344 2664 
L 1901 2664 
L 1901 2944 
L 1344 2944 
L 1344 3726 
C 1344 4078 1434 4218 1664 4218 
C 1779 4218 1850 4173 1850 4096 
C 1850 4064 1837 4026 1792 3961 
C 1734 3866 1709 3801 1709 3731 
C 1709 3533 1875 3379 2093 3379 
C 2330 3379 2490 3539 2490 3776 
z
" transform="scale(0.015625)"/>
       <path id="TeXGyreTermesX-Bold-6e" d="M 3450 -32 
L 3450 121 
C 3200 140 3136 216 3136 484 
L 3136 2086 
C 3136 2635 2797 2986 2272 2986 
C 1888 2986 1594 2808 1357 2432 
L 1357 2910 
L 134 2910 
L 134 2757 
C 416 2713 474 2649 474 2381 
L 474 503 
C 474 235 422 178 134 121 
L 134 -32 
L 1677 -32 
L 1677 121 
C 1440 152 1363 249 1363 485 
L 1363 2190 
C 1363 2216 1408 2279 1472 2336 
C 1613 2484 1766 2560 1914 2560 
C 2138 2560 2246 2387 2246 2030 
L 2246 484 
C 2246 249 2163 146 1946 121 
L 1946 -32 
L 3450 -32 
z
" transform="scale(0.015625)"/>
       <path id="TeXGyreTermesX-BoldItalic-65" d="M 2214 815 
L 2029 924 
C 1734 484 1549 344 1274 344 
C 1005 344 864 522 864 866 
C 864 968 877 1051 902 1179 
C 1568 1306 1882 1446 2202 1738 
C 2426 1942 2547 2178 2547 2407 
C 2547 2732 2266 2962 1875 2962 
C 947 2962 32 1923 32 873 
C 32 331 442 -64 998 -64 
C 1491 -64 1830 185 2214 815 
z
M 1958 2535 
C 1958 2255 1850 1981 1645 1770 
C 1472 1585 1312 1496 947 1382 
C 1178 2267 1472 2752 1779 2752 
C 1901 2752 1958 2681 1958 2535 
z
" transform="scale(0.015625)"/>
       <path id="TeXGyreTermesX-BoldItalic-74" d="M 1440 837 
L 1299 926 
C 1082 588 915 415 813 415 
C 762 415 710 459 710 510 
C 710 631 826 1072 1056 1864 
L 1267 2624 
L 1798 2624 
L 1798 2892 
L 1338 2892 
L 1587 3808 
L 1363 3808 
C 1018 3302 698 3037 192 2847 
L 192 2624 
L 518 2624 
L 83 1105 
C -13 773 -70 498 -70 383 
C -70 133 109 -32 378 -32 
C 762 -32 1018 179 1440 837 
z
" transform="scale(0.015625)"/>
       <path id="TeXGyreTermesX-BoldItalic-2e" d="M 1018 408 
C 1018 669 806 879 550 879 
C 275 879 70 675 70 401 
C 70 140 275 -64 538 -64 
C 806 -64 1018 140 1018 408 
z
" transform="scale(0.015625)"/>
       <path id="TeXGyreTermesX-BoldItalic-61" d="M 2912 735 
L 2778 830 
C 2515 478 2419 382 2317 382 
C 2266 382 2240 420 2240 478 
C 2240 636 2298 895 2458 1416 
L 2912 2912 
L 2202 2912 
L 2086 2515 
C 2029 2841 1888 2976 1613 2976 
C 826 2976 -134 1747 -134 748 
C -134 262 141 -64 557 -64 
C 947 -64 1242 167 1606 779 
C 1530 519 1517 444 1517 354 
C 1517 120 1709 -64 1946 -64 
C 2246 -64 2541 183 2912 735 
z
M 1939 2389 
C 1939 2006 1728 1299 1478 859 
C 1306 547 1114 382 941 382 
C 774 382 653 528 653 726 
C 653 1057 864 1694 1126 2166 
C 1318 2503 1530 2701 1702 2688 
C 1843 2675 1939 2561 1939 2389 
z
" transform="scale(0.015625)"/>
       <path id="TeXGyreTermesX-BoldItalic-6c" d="M 1523 805 
L 1382 894 
C 1126 517 998 384 883 384 
C 832 384 787 428 787 479 
C 787 568 832 772 928 1117 
L 1856 4453 
C 1306 4351 998 4306 518 4262 
L 518 4090 
C 589 4096 621 4096 653 4096 
C 826 4096 922 4032 922 3918 
C 922 3822 838 3477 710 3011 
L 230 1327 
C 96 848 13 466 13 319 
C 13 89 186 -64 448 -64 
C 838 -64 1082 134 1523 805 
z
" transform="scale(0.015625)"/>
      </defs>
      <use xlink:href="#TeXGyreTermesX-Bold-41" transform="scale(0.996264)"/>
      <use xlink:href="#TeXGyreTermesX-Bold-6c" transform="translate(71.930274 0) scale(0.996264)"/>
      <use xlink:href="#TeXGyreTermesX-Bold-66" transform="translate(99.626401 0) scale(0.996264)"/>
      <use xlink:href="#TeXGyreTermesX-Bold-6f" transform="translate(129.813234 0) scale(0.996264)"/>
      <use xlink:href="#TeXGyreTermesX-Bold-6e" transform="translate(179.626434 0) scale(0.996264)"/>
      <use xlink:href="#TeXGyreTermesX-Bold-73" transform="translate(235.018689 0) scale(0.996264)"/>
      <use xlink:href="#TeXGyreTermesX-Bold-6f" transform="translate(273.773353 0) scale(0.996264)"/>
      <use xlink:href="#TeXGyreTermesX-BoldItalic-65" transform="translate(348.493154 0) scale(0.996264)"/>
      <use xlink:href="#TeXGyreTermesX-BoldItalic-74" transform="translate(392.7273 0) scale(0.996264)"/>
      <use xlink:href="#TeXGyreTermesX-BoldItalic-2e" transform="translate(420.423427 0) scale(0.996264)"/>
      <use xlink:href="#TeXGyreTermesX-BoldItalic-61" transform="translate(481.295164 0) scale(0.996264)"/>
      <use xlink:href="#TeXGyreTermesX-BoldItalic-6c" transform="translate(531.108365 0) scale(0.996264)"/>
      <use xlink:href="#TeXGyreTermesX-BoldItalic-2e" transform="translate(558.804492 0) scale(0.996264)"/>
     </g>
    </g>
    <g id="line2d_126">
     <path d="M 203.835327 43.889711 
L 214.835327 43.889711 
L 225.835327 43.889711 
" style="fill: none; stroke-dasharray: 3.7,1.6; stroke-dashoffset: 0; stroke: #000000"/>
    </g>
    <g id="text_27">
     <!-- \textbf{Richou \textit{et. al.}} -->
     <g transform="translate(234.635327 47.739711) scale(0.11 -0.11)">
      <defs>
       <path id="TeXGyreTermesX-Bold-63" d="M 2752 601 
L 2637 715 
C 2400 450 2234 362 1971 362 
C 1414 362 1062 911 1062 1769 
C 1062 2418 1267 2816 1600 2816 
C 1702 2816 1798 2765 1837 2696 
C 1869 2639 1869 2639 1869 2374 
C 1875 2059 1984 1920 2227 1920 
C 2496 1920 2662 2072 2662 2318 
C 2662 2710 2234 3013 1677 3013 
C 800 3013 160 2349 160 1433 
C 160 555 730 -64 1530 -64 
C 2022 -64 2381 132 2752 601 
z
" transform="scale(0.015625)"/>
       <path id="TeXGyreTermesX-Bold-68" d="M 3418 -32 
L 3418 121 
C 3187 140 3104 235 3104 503 
L 3104 2086 
C 3104 2635 2765 2986 2240 2986 
C 1901 2986 1664 2859 1331 2490 
L 1331 4288 
L 102 4288 
L 102 4134 
C 397 4076 442 4024 442 3763 
L 442 504 
C 442 236 390 178 102 121 
L 102 -32 
L 1645 -32 
L 1645 121 
C 1408 152 1331 249 1331 485 
L 1331 2190 
C 1331 2216 1376 2279 1440 2336 
C 1581 2484 1734 2560 1882 2560 
C 2106 2560 2214 2387 2214 2030 
L 2214 484 
C 2214 249 2131 146 1914 121 
L 1914 -32 
L 3418 -32 
z
" transform="scale(0.015625)"/>
      </defs>
      <use xlink:href="#TeXGyreTermesX-Bold-52" transform="scale(0.996264)"/>
      <use xlink:href="#TeXGyreTermesX-Bold-69" transform="translate(71.930274 0) scale(0.996264)"/>
      <use xlink:href="#TeXGyreTermesX-Bold-63" transform="translate(99.626401 0) scale(0.996264)"/>
      <use xlink:href="#TeXGyreTermesX-Bold-68" transform="translate(142.366106 0) scale(0.996264)"/>
      <use xlink:href="#TeXGyreTermesX-Bold-6f" transform="translate(197.75836 0) scale(0.996264)"/>
      <use xlink:href="#TeXGyreTermesX-Bold-75" transform="translate(247.571561 0) scale(0.996264)"/>
      <use xlink:href="#TeXGyreTermesX-BoldItalic-65" transform="translate(327.870416 0) scale(0.996264)"/>
      <use xlink:href="#TeXGyreTermesX-BoldItalic-74" transform="translate(372.104562 0) scale(0.996264)"/>
      <use xlink:href="#TeXGyreTermesX-BoldItalic-2e" transform="translate(399.800689 0) scale(0.996264)"/>
      <use xlink:href="#TeXGyreTermesX-BoldItalic-61" transform="translate(460.672427 0) scale(0.996264)"/>
      <use xlink:href="#TeXGyreTermesX-BoldItalic-6c" transform="translate(510.485627 0) scale(0.996264)"/>
      <use xlink:href="#TeXGyreTermesX-BoldItalic-2e" transform="translate(538.181754 0) scale(0.996264)"/>
     </g>
    </g>
   </g>
  </g>
 </g>
 <defs>
  <clipPath id="p6bed658699">
   <rect x="50.472353" y="14.561635" width="324.378776" height="227.79557"/>
  </clipPath>
 </defs>
</svg>
