<?xml version="1.0" encoding="utf-8" standalone="no"?>
<!DOCTYPE svg PUBLIC "-//W3C//DTD SVG 1.1//EN"
  "http://www.w3.org/Graphics/SVG/1.1/DTD/svg11.dtd">
<svg xmlns:xlink="http://www.w3.org/1999/xlink" width="334.8pt" height="388.602363pt" viewBox="0 0 334.8 388.602363" xmlns="http://www.w3.org/2000/svg" version="1.1">
 <metadata>
  <rdf:RDF xmlns:dc="http://purl.org/dc/elements/1.1/" xmlns:cc="http://creativecommons.org/ns#" xmlns:rdf="http://www.w3.org/1999/02/22-rdf-syntax-ns#">
   <cc:Work>
    <dc:type rdf:resource="http://purl.org/dc/dcmitype/StillImage"/>
    <dc:date>2025-01-20T16:28:20.342278</dc:date>
    <dc:format>image/svg+xml</dc:format>
    <dc:creator>
     <cc:Agent>
      <dc:title>Matplotlib v3.9.0, https://matplotlib.org/</dc:title>
     </cc:Agent>
    </dc:creator>
   </cc:Work>
  </rdf:RDF>
 </metadata>
 <defs>
  <style type="text/css">*{stroke-linejoin: round; stroke-linecap: butt}</style>
 </defs>
 <g id="figure_1">
  <g id="patch_1">
   <path d="M 0 388.602363 
L 334.8 388.602363 
L 334.8 0 
L 0 0 
z
" style="fill: #ffffff"/>
  </g>
  <g id="axes_1">
   <g id="patch_2">
    <path d="M 51.62463 163.251256 
L 327.6 163.251256 
L 327.6 8.704308 
L 51.62463 8.704308 
z
" style="fill: #ffffff"/>
   </g>
   <g id="patch_3">
    <path d="M 64.168965 163.251256 
L 105.983415 163.251256 
L 105.983415 81.194421 
L 64.168965 81.194421 
z
" clip-path="url(#pf1efe523c7)" style="fill: #1b9e77; stroke: #000000; stroke-linejoin: miter"/>
   </g>
   <g id="patch_4">
    <path d="M 116.437028 163.251256 
L 158.251478 163.251256 
L 158.251478 20.280279 
L 116.437028 20.280279 
z
" clip-path="url(#pf1efe523c7)" style="fill: #7570b3; stroke: #000000; stroke-linejoin: miter"/>
   </g>
   <g id="patch_5">
    <path d="M 168.70509 163.251256 
L 210.51954 163.251256 
L 210.51954 26.321494 
L 168.70509 26.321494 
z
" clip-path="url(#pf1efe523c7)" style="fill: #66a61e; stroke: #000000; stroke-linejoin: miter"/>
   </g>
   <g id="patch_6">
    <path d="M 220.973153 163.251256 
L 262.787603 163.251256 
L 262.787603 46.256068 
L 220.973153 46.256068 
z
" clip-path="url(#pf1efe523c7)" style="fill: #a6761d; stroke: #000000; stroke-linejoin: miter"/>
   </g>
   <g id="patch_7">
    <path d="M 273.241215 163.251256 
L 315.055665 163.251256 
L 315.055665 93.885183 
L 273.241215 93.885183 
z
" clip-path="url(#pf1efe523c7)" style="fill: #666666; stroke: #000000; stroke-linejoin: miter"/>
   </g>
   <g id="matplotlib.axis_1">
    <g id="xtick_1">
     <g id="line2d_1">
      <defs>
       <path id="m225a6ba87e" d="M 0 0 
L 0 3.5 
" style="stroke: #000000; stroke-width: 0.8"/>
      </defs>
      <g>
       <use xlink:href="#m225a6ba87e" x="85.07619" y="163.251256" style="stroke: #000000; stroke-width: 0.8"/>
      </g>
     </g>
    </g>
    <g id="xtick_2">
     <g id="line2d_2">
      <g>
       <use xlink:href="#m225a6ba87e" x="137.344253" y="163.251256" style="stroke: #000000; stroke-width: 0.8"/>
      </g>
     </g>
    </g>
    <g id="xtick_3">
     <g id="line2d_3">
      <g>
       <use xlink:href="#m225a6ba87e" x="189.612315" y="163.251256" style="stroke: #000000; stroke-width: 0.8"/>
      </g>
     </g>
    </g>
    <g id="xtick_4">
     <g id="line2d_4">
      <g>
       <use xlink:href="#m225a6ba87e" x="241.880378" y="163.251256" style="stroke: #000000; stroke-width: 0.8"/>
      </g>
     </g>
    </g>
    <g id="xtick_5">
     <g id="line2d_5">
      <g>
       <use xlink:href="#m225a6ba87e" x="294.14844" y="163.251256" style="stroke: #000000; stroke-width: 0.8"/>
      </g>
     </g>
    </g>
   </g>
   <g id="matplotlib.axis_2">
    <g id="ytick_1">
     <g id="line2d_6">
      <defs>
       <path id="m8ffe9e5e08" d="M 0 0 
L -3.5 0 
" style="stroke: #000000; stroke-width: 0.8"/>
      </defs>
      <g>
       <use xlink:href="#m8ffe9e5e08" x="51.62463" y="163.251256" style="stroke: #000000; stroke-width: 0.8"/>
      </g>
     </g>
     <g id="text_1">
      <!-- $\mathdefault{0}$ -->
      <g transform="translate(39.64331 166.670927) scale(0.1 -0.1)">
       <defs>
        <path id="TeXGyreTermesX-Bold-30" d="M 3046 2166 
C 3046 3440 2426 4403 1600 4403 
C 1184 4403 762 4123 499 3664 
C 294 3313 154 2714 154 2185 
C 154 873 755 -64 1606 -64 
C 2432 -64 3046 886 3046 2166 
z
M 2035 1434 
C 2035 1058 1984 561 1926 389 
C 1856 203 1754 114 1606 114 
C 1286 114 1165 491 1165 1434 
L 1165 2892 
C 1165 3855 1286 4224 1594 4224 
C 1907 4224 2035 3829 2035 2892 
L 2035 1434 
z
" transform="scale(0.015625)"/>
       </defs>
       <use xlink:href="#TeXGyreTermesX-Bold-30" transform="scale(0.996264)"/>
      </g>
     </g>
    </g>
    <g id="ytick_2">
     <g id="line2d_7">
      <g>
       <use xlink:href="#m8ffe9e5e08" x="51.62463" y="137.812659" style="stroke: #000000; stroke-width: 0.8"/>
      </g>
     </g>
     <g id="text_2">
      <!-- $\mathdefault{5}$ -->
      <g transform="translate(39.64331 141.23233) scale(0.1 -0.1)">
       <defs>
        <path id="TeXGyreTermesX-Bold-35" d="M 3008 4288 
L 947 4288 
L 326 2093 
C 934 2049 1197 2010 1478 1921 
C 2048 1743 2387 1381 2387 960 
C 2387 604 2106 324 1747 324 
C 1600 324 1427 400 1171 591 
C 896 795 704 877 538 877 
C 307 877 141 718 141 496 
C 141 159 512 -64 1082 -64 
C 2138 -64 2886 575 2886 1476 
C 2886 2140 2477 2652 1779 2850 
C 1536 2920 1338 2946 813 2946 
L 954 3481 
L 2733 3481 
L 3008 4288 
z
" transform="scale(0.015625)"/>
       </defs>
       <use xlink:href="#TeXGyreTermesX-Bold-35" transform="scale(0.996264)"/>
      </g>
     </g>
    </g>
    <g id="ytick_3">
     <g id="line2d_8">
      <g>
       <use xlink:href="#m8ffe9e5e08" x="51.62463" y="112.374061" style="stroke: #000000; stroke-width: 0.8"/>
      </g>
     </g>
     <g id="text_3">
      <!-- $\mathdefault{10}$ -->
      <g transform="translate(34.66199 115.793732) scale(0.1 -0.1)">
       <defs>
        <path id="TeXGyreTermesX-Bold-31" d="M 2829 0 
L 2829 159 
C 2246 159 2138 255 2138 746 
L 2138 4384 
L 2029 4384 
L 416 3686 
L 416 3521 
C 474 3540 525 3559 544 3572 
C 717 3635 877 3680 960 3680 
C 1120 3680 1190 3540 1190 3241 
L 1190 790 
C 1190 267 1062 159 429 159 
L 429 0 
L 2829 0 
z
" transform="scale(0.015625)"/>
       </defs>
       <use xlink:href="#TeXGyreTermesX-Bold-31" transform="scale(0.996264)"/>
       <use xlink:href="#TeXGyreTermesX-Bold-30" transform="translate(49.8132 0) scale(0.996264)"/>
      </g>
     </g>
    </g>
    <g id="ytick_4">
     <g id="line2d_9">
      <g>
       <use xlink:href="#m8ffe9e5e08" x="51.62463" y="86.935464" style="stroke: #000000; stroke-width: 0.8"/>
      </g>
     </g>
     <g id="text_4">
      <!-- $\mathdefault{15}$ -->
      <g transform="translate(34.66199 90.355135) scale(0.1 -0.1)">
       <use xlink:href="#TeXGyreTermesX-Bold-31" transform="scale(0.996264)"/>
       <use xlink:href="#TeXGyreTermesX-Bold-35" transform="translate(49.8132 0) scale(0.996264)"/>
      </g>
     </g>
    </g>
    <g id="ytick_5">
     <g id="line2d_10">
      <g>
       <use xlink:href="#m8ffe9e5e08" x="51.62463" y="61.496866" style="stroke: #000000; stroke-width: 0.8"/>
      </g>
     </g>
     <g id="text_5">
      <!-- $\mathdefault{20}$ -->
      <g transform="translate(34.66199 64.916538) scale(0.1 -0.1)">
       <defs>
        <path id="TeXGyreTermesX-Bold-32" d="M 3059 1341 
L 2906 1341 
C 2720 884 2643 846 1990 846 
L 1024 846 
L 2061 1824 
C 2566 2301 2790 2726 2790 3210 
C 2790 3889 2298 4373 1606 4373 
C 1286 4373 979 4245 755 4016 
C 506 3768 378 3552 198 3075 
L 378 3075 
C 576 3469 813 3648 1158 3648 
C 1440 3648 1651 3527 1792 3298 
C 1869 3164 1920 2987 1920 2841 
C 1920 2561 1798 2211 1594 1900 
C 1267 1405 1043 1137 109 146 
L 109 0 
L 2771 0 
L 3059 1341 
z
" transform="scale(0.015625)"/>
       </defs>
       <use xlink:href="#TeXGyreTermesX-Bold-32" transform="scale(0.996264)"/>
       <use xlink:href="#TeXGyreTermesX-Bold-30" transform="translate(49.8132 0) scale(0.996264)"/>
      </g>
     </g>
    </g>
    <g id="ytick_6">
     <g id="line2d_11">
      <g>
       <use xlink:href="#m8ffe9e5e08" x="51.62463" y="36.058269" style="stroke: #000000; stroke-width: 0.8"/>
      </g>
     </g>
     <g id="text_6">
      <!-- $\mathdefault{25}$ -->
      <g transform="translate(34.66199 39.47794) scale(0.1 -0.1)">
       <use xlink:href="#TeXGyreTermesX-Bold-32" transform="scale(0.996264)"/>
       <use xlink:href="#TeXGyreTermesX-Bold-35" transform="translate(49.8132 0) scale(0.996264)"/>
      </g>
     </g>
    </g>
    <g id="ytick_7">
     <g id="line2d_12">
      <g>
       <use xlink:href="#m8ffe9e5e08" x="51.62463" y="10.619671" style="stroke: #000000; stroke-width: 0.8"/>
      </g>
     </g>
     <g id="text_7">
      <!-- $\mathdefault{30}$ -->
      <g transform="translate(34.66199 14.039343) scale(0.1 -0.1)">
       <defs>
        <path id="TeXGyreTermesX-Bold-33" d="M 2995 1596 
C 2995 1889 2899 2164 2714 2387 
C 2579 2540 2470 2617 2214 2732 
C 2624 2981 2746 3165 2746 3541 
C 2746 4090 2355 4416 1702 4416 
C 1069 4416 589 4097 237 3440 
L 371 3364 
C 614 3753 826 3900 1158 3900 
C 1562 3900 1811 3645 1811 3242 
C 1811 2822 1587 2598 979 2406 
L 979 2297 
C 1510 2112 1722 2004 1952 1786 
C 2150 1601 2266 1314 2266 1007 
C 2266 548 2022 254 1638 254 
C 1485 254 1363 324 1152 528 
C 902 778 710 880 518 880 
C 275 880 102 728 102 510 
C 102 166 493 -64 1082 -64 
C 2150 -64 2995 664 2995 1596 
z
" transform="scale(0.015625)"/>
       </defs>
       <use xlink:href="#TeXGyreTermesX-Bold-33" transform="scale(0.996264)"/>
       <use xlink:href="#TeXGyreTermesX-Bold-30" transform="translate(49.8132 0) scale(0.996264)"/>
      </g>
     </g>
    </g>
    <g id="text_8">
     <!-- $\ln{(\bar{k})}$ -->
     <g transform="translate(28.06773 100.513255) rotate(-90) scale(0.12 -0.12)">
      <defs>
       <path id="TeXGyreTermesX-Bold-6c" d="M 1632 0 
L 1632 153 
C 1421 153 1318 274 1318 528 
L 1318 4288 
L 102 4288 
L 102 4136 
C 326 4117 429 4002 429 3768 
L 429 533 
C 429 299 320 172 102 153 
L 102 0 
L 1632 0 
z
" transform="scale(0.015625)"/>
       <path id="TeXGyreTermesX-Bold-6e" d="M 3450 -32 
L 3450 121 
C 3200 140 3136 216 3136 484 
L 3136 2086 
C 3136 2635 2797 2986 2272 2986 
C 1888 2986 1594 2808 1357 2432 
L 1357 2910 
L 134 2910 
L 134 2757 
C 416 2713 474 2649 474 2381 
L 474 503 
C 474 235 422 178 134 121 
L 134 -32 
L 1677 -32 
L 1677 121 
C 1440 152 1363 249 1363 485 
L 1363 2190 
C 1363 2216 1408 2279 1472 2336 
C 1613 2484 1766 2560 1914 2560 
C 2138 2560 2246 2387 2246 2030 
L 2246 484 
C 2246 249 2163 146 1946 121 
L 1946 -32 
L 3450 -32 
z
" transform="scale(0.015625)"/>
       <path id="txbsys-b9" d="M 2016 4589 
C 1088 3987 435 3078 435 1645 
C 435 326 1114 -749 1997 -1293 
L 2163 -1062 
C 1318 -397 1178 634 1178 1664 
C 1178 2701 1338 3693 2163 4358 
L 2016 4589 
z
" transform="scale(0.015625)"/>
       <path id="TeXGyreTermesX-Bold-16" d="M 2118 3648 
L 2118 4105 
L 6 4105 
L 6 3648 
L 2118 3648 
z
" transform="scale(0.015625)"/>
       <path id="NewTXBMI-6b" d="M 2861 728 
L 2720 799 
C 2547 493 2445 390 2323 390 
C 2144 390 2074 613 1824 1858 
L 2227 2209 
C 2662 2578 2797 2655 3091 2694 
L 3091 2855 
L 1766 2855 
L 1766 2688 
C 2016 2688 2093 2656 2093 2553 
C 2093 2386 1850 2148 1043 1513 
L 1830 4461 
C 1338 4371 998 4320 499 4269 
L 499 4096 
L 634 4096 
C 819 4096 902 4026 902 3879 
C 902 3815 890 3751 851 3611 
L -147 -13 
L 634 -13 
L 954 1187 
L 1203 1360 
C 1408 274 1594 -64 1990 -64 
C 2310 -64 2541 141 2861 728 
z
" transform="scale(0.015625)"/>
       <path id="txbsys-ba" d="M 582 4589 
L 435 4358 
C 1261 3693 1421 2701 1421 1664 
C 1421 634 1280 -397 435 -1062 
L 602 -1293 
C 1485 -749 2163 326 2163 1645 
C 2163 3078 1510 3987 582 4589 
z
" transform="scale(0.015625)"/>
      </defs>
      <use xlink:href="#TeXGyreTermesX-Bold-6c" transform="scale(0.996264)"/>
      <use xlink:href="#TeXGyreTermesX-Bold-6e" transform="translate(27.696127 0) scale(0.996264)"/>
      <use xlink:href="#txbsys-b9" transform="translate(104.674077 0) scale(0.996264)"/>
      <use xlink:href="#TeXGyreTermesX-Bold-16" transform="translate(160.365229 23.661194) scale(0.996264)"/>
      <use xlink:href="#NewTXBMI-6b" transform="translate(148.410061 0) scale(0.996264)"/>
      <use xlink:href="#txbsys-ba" transform="translate(204.599375 0) scale(0.996264)"/>
     </g>
    </g>
   </g>
   <g id="LineCollection_1">
    <path d="M 85.07619 85.873189 
L 85.07619 76.416969 
" clip-path="url(#pf1efe523c7)" style="fill: none; stroke: #000000; stroke-width: 1.5"/>
    <path d="M 137.344253 22.082652 
L 137.344253 18.288081 
" clip-path="url(#pf1efe523c7)" style="fill: none; stroke: #000000; stroke-width: 1.5"/>
    <path d="M 189.612315 35.645541 
L 189.612315 16.063686 
" clip-path="url(#pf1efe523c7)" style="fill: none; stroke: #000000; stroke-width: 1.5"/>
    <path d="M 241.880378 53.512479 
L 241.880378 39.372675 
" clip-path="url(#pf1efe523c7)" style="fill: none; stroke: #000000; stroke-width: 1.5"/>
    <path d="M 294.14844 100.171054 
L 294.14844 87.425488 
" clip-path="url(#pf1efe523c7)" style="fill: none; stroke: #000000; stroke-width: 1.5"/>
   </g>
   <g id="line2d_13">
    <defs>
     <path id="mf918782436" d="M 5 0 
L -5 -0 
" style="stroke: #000000"/>
    </defs>
    <g clip-path="url(#pf1efe523c7)">
     <use xlink:href="#mf918782436" x="85.07619" y="85.873189" style="stroke: #000000"/>
     <use xlink:href="#mf918782436" x="137.344253" y="22.082652" style="stroke: #000000"/>
     <use xlink:href="#mf918782436" x="189.612315" y="35.645541" style="stroke: #000000"/>
     <use xlink:href="#mf918782436" x="241.880378" y="53.512479" style="stroke: #000000"/>
     <use xlink:href="#mf918782436" x="294.14844" y="100.171054" style="stroke: #000000"/>
    </g>
   </g>
   <g id="line2d_14">
    <g clip-path="url(#pf1efe523c7)">
     <use xlink:href="#mf918782436" x="85.07619" y="76.416969" style="stroke: #000000"/>
     <use xlink:href="#mf918782436" x="137.344253" y="18.288081" style="stroke: #000000"/>
     <use xlink:href="#mf918782436" x="189.612315" y="16.063686" style="stroke: #000000"/>
     <use xlink:href="#mf918782436" x="241.880378" y="39.372675" style="stroke: #000000"/>
     <use xlink:href="#mf918782436" x="294.14844" y="87.425488" style="stroke: #000000"/>
    </g>
   </g>
   <g id="patch_8">
    <path d="M 51.62463 163.251256 
L 51.62463 8.704308 
" style="fill: none; stroke: #000000; stroke-width: 0.8; stroke-linejoin: miter; stroke-linecap: square"/>
   </g>
   <g id="patch_9">
    <path d="M 327.6 163.251256 
L 327.6 8.704308 
" style="fill: none; stroke: #000000; stroke-width: 0.8; stroke-linejoin: miter; stroke-linecap: square"/>
   </g>
   <g id="patch_10">
    <path d="M 51.62463 163.251256 
L 327.6 163.251256 
" style="fill: none; stroke: #000000; stroke-width: 0.8; stroke-linejoin: miter; stroke-linecap: square"/>
   </g>
   <g id="patch_11">
    <path d="M 51.62463 8.704308 
L 327.6 8.704308 
" style="fill: none; stroke: #000000; stroke-width: 0.8; stroke-linejoin: miter; stroke-linecap: square"/>
   </g>
  </g>
  <g id="axes_2">
   <g id="patch_12">
    <path d="M 51.62463 334.179766 
L 327.6 334.179766 
L 327.6 179.632818 
L 51.62463 179.632818 
z
" style="fill: #ffffff"/>
   </g>
   <g id="patch_13">
    <path d="M 64.168965 223.818779 
L 105.983415 223.818779 
L 105.983415 213.747057 
L 64.168965 213.747057 
z
" clip-path="url(#p156657a10a)" style="fill: #1b9e77; stroke: #000000; stroke-linejoin: miter"/>
   </g>
   <g id="patch_14">
    <path d="M 116.437028 223.818779 
L 158.251478 223.818779 
L 158.251478 225.188531 
L 116.437028 225.188531 
z
" clip-path="url(#p156657a10a)" style="fill: #7570b3; stroke: #000000; stroke-linejoin: miter"/>
   </g>
   <g id="patch_15">
    <path d="M 168.70509 223.818779 
L 210.51954 223.818779 
L 210.51954 252.830004 
L 168.70509 252.830004 
z
" clip-path="url(#p156657a10a)" style="fill: #66a61e; stroke: #000000; stroke-linejoin: miter"/>
   </g>
   <g id="patch_16">
    <path d="M 220.973153 223.818779 
L 262.787603 223.818779 
L 262.787603 255.385861 
L 220.973153 255.385861 
z
" clip-path="url(#p156657a10a)" style="fill: #a6761d; stroke: #000000; stroke-linejoin: miter"/>
   </g>
   <g id="patch_17">
    <path d="M 273.241215 223.818779 
L 315.055665 223.818779 
L 315.055665 246.461778 
L 273.241215 246.461778 
z
" clip-path="url(#p156657a10a)" style="fill: #666666; stroke: #000000; stroke-linejoin: miter"/>
   </g>
   <g id="matplotlib.axis_3">
    <g id="xtick_6">
     <g id="line2d_15">
      <g>
       <use xlink:href="#m225a6ba87e" x="85.07619" y="334.179766" style="stroke: #000000; stroke-width: 0.8"/>
      </g>
     </g>
     <g id="text_9">
      <!-- \textbf{Alfonso HR} -->
      <g transform="translate(32.032372 378.163387) rotate(-30) scale(0.12 -0.12)">
       <defs>
        <path id="TeXGyreTermesX-Bold-41" d="M 4410 0 
L 4410 159 
C 4128 159 4058 248 3712 1042 
L 2285 4384 
L 2106 4384 
L 685 902 
C 442 305 365 216 58 159 
L 58 0 
L 1357 0 
L 1357 159 
C 979 159 832 232 832 406 
C 832 492 877 647 1018 1013 
L 1114 1280 
L 2554 1280 
C 2771 761 2848 532 2848 387 
C 2848 243 2765 184 2541 184 
L 2336 159 
L 2336 0 
L 4410 0 
z
M 2458 1528 
L 1210 1528 
L 1811 3057 
L 2458 1528 
z
" transform="scale(0.015625)"/>
        <path id="TeXGyreTermesX-Bold-66" d="M 2490 3776 
C 2490 4153 2118 4416 1574 4416 
C 1146 4416 813 4262 640 3980 
C 499 3757 454 3494 454 2944 
L 90 2944 
L 90 2664 
L 454 2664 
L 454 536 
C 454 262 384 184 90 153 
L 90 0 
L 1869 0 
L 1869 159 
C 1421 159 1344 237 1344 653 
L 1344 2664 
L 1901 2664 
L 1901 2944 
L 1344 2944 
L 1344 3726 
C 1344 4078 1434 4218 1664 4218 
C 1779 4218 1850 4173 1850 4096 
C 1850 4064 1837 4026 1792 3961 
C 1734 3866 1709 3801 1709 3731 
C 1709 3533 1875 3379 2093 3379 
C 2330 3379 2490 3539 2490 3776 
z
" transform="scale(0.015625)"/>
        <path id="TeXGyreTermesX-Bold-6f" d="M 3046 1471 
C 3046 2356 2432 3013 1606 3013 
C 794 3013 160 2349 160 1490 
C 160 587 768 -64 1606 -64 
C 2432 -64 3046 593 3046 1471 
z
M 2106 1433 
C 2106 462 1978 133 1606 133 
C 1229 133 1101 455 1101 1377 
C 1101 2487 1216 2816 1613 2816 
C 1984 2816 2106 2469 2106 1433 
z
" transform="scale(0.015625)"/>
        <path id="TeXGyreTermesX-Bold-73" d="M 2310 899 
C 2310 1348 2067 1627 1427 1887 
C 992 2070 813 2228 813 2444 
C 813 2653 992 2811 1235 2811 
C 1408 2811 1574 2741 1715 2608 
C 1850 2481 1920 2360 2016 2086 
L 2176 2086 
L 2176 3008 
L 2035 3008 
C 1997 2913 1958 2881 1875 2881 
C 1837 2881 1779 2893 1677 2922 
C 1472 2985 1325 3008 1178 3008 
C 595 3008 173 2617 173 2086 
C 173 1669 435 1378 1082 1107 
C 1523 917 1696 759 1696 557 
C 1696 311 1504 146 1216 146 
C 768 146 474 432 339 986 
L 160 986 
L 160 -64 
L 320 -64 
C 390 70 429 114 486 114 
C 518 114 570 102 634 77 
C 819 4 1146 -64 1325 -64 
C 1907 -64 2310 328 2310 899 
z
" transform="scale(0.015625)"/>
        <path id="TeXGyreTermesX-Bold-48" d="M 4858 -32 
L 4858 128 
C 4397 185 4294 269 4294 582 
L 4294 3675 
C 4294 3994 4422 4096 4858 4128 
L 4858 4288 
L 2682 4288 
L 2682 4128 
C 3130 4096 3258 3994 3258 3674 
L 3258 2347 
L 1715 2347 
L 1715 3674 
C 1715 3994 1843 4096 2291 4128 
L 2291 4288 
L 134 4288 
L 134 4128 
C 563 4090 678 3994 678 3675 
L 678 582 
C 678 269 582 185 134 128 
L 134 -32 
L 2291 -32 
L 2291 128 
C 1824 179 1715 268 1715 581 
L 1715 2048 
L 3258 2048 
L 3258 581 
C 3258 268 3149 179 2682 128 
L 2682 -32 
L 4858 -32 
z
" transform="scale(0.015625)"/>
        <path id="TeXGyreTermesX-Bold-52" d="M 4576 0 
L 4576 159 
C 4461 159 4378 197 4314 280 
L 3027 2086 
C 3405 2207 3565 2290 3744 2448 
C 3930 2620 4032 2873 4032 3159 
C 4032 3889 3398 4288 2227 4288 
L 166 4288 
L 166 4110 
C 640 4110 730 4015 730 3557 
L 730 744 
C 730 280 666 216 166 159 
L 166 0 
L 2330 0 
L 2330 159 
C 1830 223 1766 292 1766 742 
L 1766 1984 
L 1939 1984 
L 3264 0 
L 4576 0 
z
M 2938 3130 
C 2938 2723 2842 2474 2637 2340 
C 2470 2232 2253 2187 1766 2187 
L 1766 3805 
C 1766 3843 1792 3938 1811 3977 
C 1850 4040 1952 4072 2112 4072 
C 2701 4072 2938 3799 2938 3130 
z
" transform="scale(0.015625)"/>
       </defs>
       <use xlink:href="#TeXGyreTermesX-Bold-41" transform="scale(0.996264)"/>
       <use xlink:href="#TeXGyreTermesX-Bold-6c" transform="translate(71.930274 0) scale(0.996264)"/>
       <use xlink:href="#TeXGyreTermesX-Bold-66" transform="translate(99.626401 0) scale(0.996264)"/>
       <use xlink:href="#TeXGyreTermesX-Bold-6f" transform="translate(129.813234 0) scale(0.996264)"/>
       <use xlink:href="#TeXGyreTermesX-Bold-6e" transform="translate(179.626434 0) scale(0.996264)"/>
       <use xlink:href="#TeXGyreTermesX-Bold-73" transform="translate(235.018689 0) scale(0.996264)"/>
       <use xlink:href="#TeXGyreTermesX-Bold-6f" transform="translate(273.773353 0) scale(0.996264)"/>
       <use xlink:href="#TeXGyreTermesX-Bold-48" transform="translate(348.493154 0) scale(0.996264)"/>
       <use xlink:href="#TeXGyreTermesX-Bold-52" transform="translate(426.002482 0) scale(0.996264)"/>
      </g>
     </g>
    </g>
    <g id="xtick_7">
     <g id="line2d_16">
      <g>
       <use xlink:href="#m225a6ba87e" x="137.344253" y="334.179766" style="stroke: #000000; stroke-width: 0.8"/>
      </g>
     </g>
     <g id="text_10">
      <!-- \textbf{Alfonso MR} -->
      <g transform="translate(82.581753 379.155668) rotate(-30) scale(0.12 -0.12)">
       <defs>
        <path id="TeXGyreTermesX-Bold-4d" d="M 5894 -32 
L 5894 127 
C 5395 191 5331 262 5331 715 
L 5331 3540 
C 5331 4001 5427 4096 5894 4096 
L 5894 4274 
L 4282 4274 
L 3002 1268 
L 1722 4274 
L 102 4274 
L 102 4115 
C 570 4077 672 3994 672 3663 
L 672 637 
C 672 254 589 178 90 127 
L 90 -32 
L 1587 -32 
L 1587 127 
C 1062 165 941 286 941 758 
L 941 3752 
L 2554 -32 
L 2726 -32 
L 4339 3848 
L 4339 605 
C 4339 248 4250 172 3770 127 
L 3770 -32 
L 5894 -32 
z
" transform="scale(0.015625)"/>
       </defs>
       <use xlink:href="#TeXGyreTermesX-Bold-41" transform="scale(0.996264)"/>
       <use xlink:href="#TeXGyreTermesX-Bold-6c" transform="translate(71.930274 0) scale(0.996264)"/>
       <use xlink:href="#TeXGyreTermesX-Bold-66" transform="translate(99.626401 0) scale(0.996264)"/>
       <use xlink:href="#TeXGyreTermesX-Bold-6f" transform="translate(129.813234 0) scale(0.996264)"/>
       <use xlink:href="#TeXGyreTermesX-Bold-6e" transform="translate(179.626434 0) scale(0.996264)"/>
       <use xlink:href="#TeXGyreTermesX-Bold-73" transform="translate(235.018689 0) scale(0.996264)"/>
       <use xlink:href="#TeXGyreTermesX-Bold-6f" transform="translate(273.773353 0) scale(0.996264)"/>
       <use xlink:href="#TeXGyreTermesX-Bold-4d" transform="translate(348.493154 0) scale(0.996264)"/>
       <use xlink:href="#TeXGyreTermesX-Bold-52" transform="translate(442.540501 0) scale(0.996264)"/>
      </g>
     </g>
    </g>
    <g id="xtick_8">
     <g id="line2d_17">
      <g>
       <use xlink:href="#m225a6ba87e" x="189.612315" y="334.179766" style="stroke: #000000; stroke-width: 0.8"/>
      </g>
     </g>
     <g id="text_11">
      <!-- \textbf{Richou A} -->
      <g transform="translate(146.766681 372.275463) rotate(-30) scale(0.12 -0.12)">
       <defs>
        <path id="TeXGyreTermesX-Bold-69" d="M 1632 -32 
L 1632 121 
C 1408 152 1331 241 1331 484 
L 1331 2908 
L 102 2908 
L 102 2755 
C 384 2698 442 2641 442 2379 
L 442 503 
C 442 241 397 191 102 121 
L 102 -32 
L 1632 -32 
z
M 1370 3882 
C 1370 4162 1152 4372 877 4372 
C 602 4372 384 4162 384 3882 
C 384 3602 602 3392 877 3392 
C 1152 3392 1370 3602 1370 3882 
z
" transform="scale(0.015625)"/>
        <path id="TeXGyreTermesX-Bold-63" d="M 2752 601 
L 2637 715 
C 2400 450 2234 362 1971 362 
C 1414 362 1062 911 1062 1769 
C 1062 2418 1267 2816 1600 2816 
C 1702 2816 1798 2765 1837 2696 
C 1869 2639 1869 2639 1869 2374 
C 1875 2059 1984 1920 2227 1920 
C 2496 1920 2662 2072 2662 2318 
C 2662 2710 2234 3013 1677 3013 
C 800 3013 160 2349 160 1433 
C 160 555 730 -64 1530 -64 
C 2022 -64 2381 132 2752 601 
z
" transform="scale(0.015625)"/>
        <path id="TeXGyreTermesX-Bold-68" d="M 3418 -32 
L 3418 121 
C 3187 140 3104 235 3104 503 
L 3104 2086 
C 3104 2635 2765 2986 2240 2986 
C 1901 2986 1664 2859 1331 2490 
L 1331 4288 
L 102 4288 
L 102 4134 
C 397 4076 442 4024 442 3763 
L 442 504 
C 442 236 390 178 102 121 
L 102 -32 
L 1645 -32 
L 1645 121 
C 1408 152 1331 249 1331 485 
L 1331 2190 
C 1331 2216 1376 2279 1440 2336 
C 1581 2484 1734 2560 1882 2560 
C 2106 2560 2214 2387 2214 2030 
L 2214 484 
C 2214 249 2131 146 1914 121 
L 1914 -32 
L 3418 -32 
z
" transform="scale(0.015625)"/>
        <path id="TeXGyreTermesX-Bold-75" d="M 3437 152 
L 3437 305 
C 3155 305 3078 388 3078 660 
L 3078 2944 
L 1792 2944 
L 1792 2792 
C 2112 2767 2189 2690 2189 2419 
L 2189 627 
C 1978 419 1850 349 1664 349 
C 1402 349 1306 476 1306 799 
L 1306 2944 
L 102 2944 
L 102 2792 
C 365 2741 416 2684 416 2419 
L 416 822 
C 416 266 736 -64 1267 -64 
C 1600 -64 1824 38 2195 355 
L 2195 -58 
C 2470 38 2624 63 3040 108 
L 3437 152 
z
" transform="scale(0.015625)"/>
       </defs>
       <use xlink:href="#TeXGyreTermesX-Bold-52" transform="scale(0.996264)"/>
       <use xlink:href="#TeXGyreTermesX-Bold-69" transform="translate(71.930274 0) scale(0.996264)"/>
       <use xlink:href="#TeXGyreTermesX-Bold-63" transform="translate(99.626401 0) scale(0.996264)"/>
       <use xlink:href="#TeXGyreTermesX-Bold-68" transform="translate(142.366106 0) scale(0.996264)"/>
       <use xlink:href="#TeXGyreTermesX-Bold-6f" transform="translate(197.75836 0) scale(0.996264)"/>
       <use xlink:href="#TeXGyreTermesX-Bold-75" transform="translate(247.571561 0) scale(0.996264)"/>
       <use xlink:href="#TeXGyreTermesX-Bold-41" transform="translate(327.870416 0) scale(0.996264)"/>
      </g>
     </g>
    </g>
    <g id="xtick_9">
     <g id="line2d_18">
      <g>
       <use xlink:href="#m225a6ba87e" x="241.880378" y="334.179766" style="stroke: #000000; stroke-width: 0.8"/>
      </g>
     </g>
     <g id="text_12">
      <!-- \textbf{Richou B} -->
      <g transform="translate(199.604188 371.946694) rotate(-30) scale(0.12 -0.12)">
       <defs>
        <path id="TeXGyreTermesX-Bold-42" d="M 3962 1194 
C 3962 1479 3840 1740 3616 1937 
C 3392 2127 3174 2222 2726 2317 
C 3469 2533 3744 2792 3744 3275 
C 3744 3927 3149 4288 2080 4288 
L 102 4288 
L 102 4117 
C 544 4117 666 4015 666 3691 
L 666 611 
C 666 286 570 210 102 159 
L 102 0 
L 2163 0 
C 3245 0 3962 476 3962 1194 
z
M 2861 1136 
C 2861 521 2598 204 2080 204 
C 1798 204 1690 312 1690 590 
L 1690 2176 
L 1882 2176 
C 2541 2176 2861 1834 2861 1136 
z
M 2688 3223 
C 2688 2553 2477 2374 1690 2374 
L 1690 3788 
C 1690 4016 1786 4097 2035 4097 
C 2483 4097 2688 3823 2688 3223 
z
" transform="scale(0.015625)"/>
       </defs>
       <use xlink:href="#TeXGyreTermesX-Bold-52" transform="scale(0.996264)"/>
       <use xlink:href="#TeXGyreTermesX-Bold-69" transform="translate(71.930274 0) scale(0.996264)"/>
       <use xlink:href="#TeXGyreTermesX-Bold-63" transform="translate(99.626401 0) scale(0.996264)"/>
       <use xlink:href="#TeXGyreTermesX-Bold-68" transform="translate(142.366106 0) scale(0.996264)"/>
       <use xlink:href="#TeXGyreTermesX-Bold-6f" transform="translate(197.75836 0) scale(0.996264)"/>
       <use xlink:href="#TeXGyreTermesX-Bold-75" transform="translate(247.571561 0) scale(0.996264)"/>
       <use xlink:href="#TeXGyreTermesX-Bold-42" transform="translate(327.870416 0) scale(0.996264)"/>
      </g>
     </g>
    </g>
    <g id="xtick_10">
     <g id="line2d_19">
      <g>
       <use xlink:href="#m225a6ba87e" x="294.14844" y="334.179766" style="stroke: #000000; stroke-width: 0.8"/>
      </g>
     </g>
     <g id="text_13">
      <!-- \textbf{Yu} -->
      <g transform="translate(280.396084 355.478451) rotate(-30) scale(0.12 -0.12)">
       <defs>
        <path id="TeXGyreTermesX-Bold-59" d="M 4474 4166 
L 4474 4325 
L 3066 4325 
L 3066 4166 
C 3494 4134 3603 4084 3603 3899 
C 3603 3779 3514 3557 3354 3296 
L 2643 2121 
L 1875 3595 
C 1869 3614 1837 3671 1837 3671 
C 1747 3829 1722 3899 1722 3969 
C 1722 4109 1818 4160 2080 4160 
L 2240 4160 
L 2240 4325 
L 96 4325 
L 96 4160 
C 314 4160 480 4039 608 3822 
L 1779 1709 
L 1779 775 
C 1779 312 1709 242 1184 191 
L 1184 32 
L 3405 32 
L 3405 191 
C 2880 242 2816 305 2816 775 
L 2816 1944 
L 4038 3918 
C 4134 4064 4256 4134 4474 4166 
z
" transform="scale(0.015625)"/>
       </defs>
       <use xlink:href="#TeXGyreTermesX-Bold-59" transform="scale(0.996264)"/>
       <use xlink:href="#TeXGyreTermesX-Bold-75" transform="translate(64.458309 0) scale(0.996264)"/>
      </g>
     </g>
    </g>
   </g>
   <g id="matplotlib.axis_4">
    <g id="ytick_8">
     <g id="line2d_20">
      <g>
       <use xlink:href="#m8ffe9e5e08" x="51.62463" y="328.504646" style="stroke: #000000; stroke-width: 0.8"/>
      </g>
     </g>
     <g id="text_14">
      <!-- $\mathdefault{−200}$ -->
      <g transform="translate(22.945931 331.924317) scale(0.1 -0.1)">
       <defs>
        <path id="txbsys-0" d="M 3929 1341 
L 3929 1955 
L 396 1955 
L 396 1341 
L 3929 1341 
z
" transform="scale(0.015625)"/>
       </defs>
       <use xlink:href="#txbsys-0" transform="scale(0.996264)"/>
       <use xlink:href="#TeXGyreTermesX-Bold-32" transform="translate(67.347408 0) scale(0.996264)"/>
       <use xlink:href="#TeXGyreTermesX-Bold-30" transform="translate(117.160608 0) scale(0.996264)"/>
       <use xlink:href="#TeXGyreTermesX-Bold-30" transform="translate(166.973809 0) scale(0.996264)"/>
      </g>
     </g>
    </g>
    <g id="ytick_9">
     <g id="line2d_21">
      <g>
       <use xlink:href="#m8ffe9e5e08" x="51.62463" y="302.333179" style="stroke: #000000; stroke-width: 0.8"/>
      </g>
     </g>
     <g id="text_15">
      <!-- $\mathdefault{−150}$ -->
      <g transform="translate(22.945931 305.75285) scale(0.1 -0.1)">
       <use xlink:href="#txbsys-0" transform="scale(0.996264)"/>
       <use xlink:href="#TeXGyreTermesX-Bold-31" transform="translate(67.347408 0) scale(0.996264)"/>
       <use xlink:href="#TeXGyreTermesX-Bold-35" transform="translate(117.160608 0) scale(0.996264)"/>
       <use xlink:href="#TeXGyreTermesX-Bold-30" transform="translate(166.973809 0) scale(0.996264)"/>
      </g>
     </g>
    </g>
    <g id="ytick_10">
     <g id="line2d_22">
      <g>
       <use xlink:href="#m8ffe9e5e08" x="51.62463" y="276.161712" style="stroke: #000000; stroke-width: 0.8"/>
      </g>
     </g>
     <g id="text_16">
      <!-- $\mathdefault{−100}$ -->
      <g transform="translate(22.945931 279.581384) scale(0.1 -0.1)">
       <use xlink:href="#txbsys-0" transform="scale(0.996264)"/>
       <use xlink:href="#TeXGyreTermesX-Bold-31" transform="translate(67.347408 0) scale(0.996264)"/>
       <use xlink:href="#TeXGyreTermesX-Bold-30" transform="translate(117.160608 0) scale(0.996264)"/>
       <use xlink:href="#TeXGyreTermesX-Bold-30" transform="translate(166.973809 0) scale(0.996264)"/>
      </g>
     </g>
    </g>
    <g id="ytick_11">
     <g id="line2d_23">
      <g>
       <use xlink:href="#m8ffe9e5e08" x="51.62463" y="249.990246" style="stroke: #000000; stroke-width: 0.8"/>
      </g>
     </g>
     <g id="text_17">
      <!-- $\mathdefault{−50}$ -->
      <g transform="translate(27.927251 253.409917) scale(0.1 -0.1)">
       <use xlink:href="#txbsys-0" transform="scale(0.996264)"/>
       <use xlink:href="#TeXGyreTermesX-Bold-35" transform="translate(67.347408 0) scale(0.996264)"/>
       <use xlink:href="#TeXGyreTermesX-Bold-30" transform="translate(117.160608 0) scale(0.996264)"/>
      </g>
     </g>
    </g>
    <g id="ytick_12">
     <g id="line2d_24">
      <g>
       <use xlink:href="#m8ffe9e5e08" x="51.62463" y="223.818779" style="stroke: #000000; stroke-width: 0.8"/>
      </g>
     </g>
     <g id="text_18">
      <!-- $\mathdefault{0}$ -->
      <g transform="translate(39.64331 227.23845) scale(0.1 -0.1)">
       <use xlink:href="#TeXGyreTermesX-Bold-30" transform="scale(0.996264)"/>
      </g>
     </g>
    </g>
    <g id="ytick_13">
     <g id="line2d_25">
      <g>
       <use xlink:href="#m8ffe9e5e08" x="51.62463" y="197.647312" style="stroke: #000000; stroke-width: 0.8"/>
      </g>
     </g>
     <g id="text_19">
      <!-- $\mathdefault{50}$ -->
      <g transform="translate(34.66199 201.066984) scale(0.1 -0.1)">
       <use xlink:href="#TeXGyreTermesX-Bold-35" transform="scale(0.996264)"/>
       <use xlink:href="#TeXGyreTermesX-Bold-30" transform="translate(49.8132 0) scale(0.996264)"/>
      </g>
     </g>
    </g>
    <g id="text_20">
     <!-- $\ln{(\bar{t_{inc}})}$ -->
     <g transform="translate(16.351671 276.53884) rotate(-90) scale(0.12 -0.12)">
      <defs>
       <path id="NewTXBMI-74" d="M 1440 837 
L 1299 926 
C 1082 588 915 415 813 415 
C 762 415 710 460 710 511 
C 710 632 826 1073 1056 1864 
L 1267 2624 
L 1798 2624 
L 1798 2893 
L 1338 2893 
L 1587 3808 
L 1363 3808 
C 1018 3303 698 3037 192 2848 
L 192 2624 
L 518 2624 
L 83 1105 
C -13 773 -70 499 -70 383 
C -70 135 109 -32 378 -32 
C 762 -32 1018 180 1440 837 
z
" transform="scale(0.015625)"/>
       <path id="NewTXBMI-69" d="M 1523 803 
L 1382 892 
L 1293 765 
C 1126 516 979 382 883 382 
C 832 382 787 427 787 478 
C 787 535 819 701 845 809 
L 1427 2939 
C 1082 2862 634 2799 134 2761 
L 134 2589 
L 218 2589 
C 410 2589 512 2525 512 2404 
C 512 2353 493 2258 467 2149 
L 96 778 
C 45 594 13 427 13 339 
C 13 95 192 -64 454 -64 
C 838 -64 1075 127 1523 803 
z
M 1702 3757 
C 1702 3994 1504 4192 1261 4192 
C 1037 4192 838 3994 838 3770 
C 838 3520 1024 3328 1261 3328 
C 1504 3328 1702 3520 1702 3757 
z
" transform="scale(0.015625)"/>
       <path id="NewTXBMI-6e" d="M 3155 807 
L 3014 890 
C 2758 493 2675 404 2566 404 
C 2515 404 2477 448 2477 512 
C 2477 576 2515 710 2637 1067 
L 2867 1763 
C 2970 2063 3034 2344 3034 2497 
C 3034 2809 2867 2976 2566 2976 
C 2330 2976 2099 2881 1926 2714 
C 1690 2492 1536 2371 1139 1709 
L 1549 2970 
C 1139 2881 627 2810 269 2810 
L 269 2624 
C 538 2624 614 2592 614 2471 
C 614 2394 525 2055 320 1332 
L -38 26 
L 736 26 
C 1037 1133 1267 1690 1664 2208 
C 1792 2381 1990 2522 2106 2522 
C 2189 2522 2266 2458 2266 2388 
C 2266 2368 2253 2317 2234 2253 
L 1882 1191 
C 1779 884 1702 519 1702 352 
C 1702 109 1862 -32 2138 -32 
C 2522 -32 2784 186 3155 807 
z
" transform="scale(0.015625)"/>
       <path id="NewTXBMI-63" d="M 2214 803 
L 2035 918 
C 1728 492 1530 345 1254 345 
C 973 345 787 575 787 912 
C 787 1313 954 1886 1184 2299 
C 1357 2599 1536 2752 1734 2752 
C 1811 2752 1875 2707 1875 2644 
C 1875 2618 1862 2580 1824 2523 
C 1766 2421 1741 2350 1741 2275 
C 1741 2083 1894 1943 2112 1943 
C 2349 1943 2509 2121 2509 2389 
C 2509 2727 2221 2963 1792 2963 
C 890 2963 -32 1917 -32 898 
C -32 331 365 -64 947 -64 
C 1229 -64 1504 38 1722 223 
C 1888 364 1990 484 2214 803 
z
" transform="scale(0.015625)"/>
      </defs>
      <use xlink:href="#TeXGyreTermesX-Bold-6c" transform="scale(0.996264)"/>
      <use xlink:href="#TeXGyreTermesX-Bold-6e" transform="translate(27.696127 0) scale(0.996264)"/>
      <use xlink:href="#txbsys-b9" transform="translate(104.674077 0) scale(0.996264)"/>
      <use xlink:href="#TeXGyreTermesX-Bold-16" transform="translate(197.282195 13.897849) scale(0.996264)"/>
      <use xlink:href="#NewTXBMI-74" transform="translate(146.915634 0) scale(0.996264)"/>
      <use xlink:href="#NewTXBMI-69" transform="translate(180.509688 -14.943915) scale(0.727268)"/>
      <use xlink:href="#NewTXBMI-6e" transform="translate(206.836758 -14.943915) scale(0.727268)"/>
      <use xlink:href="#NewTXBMI-63" transform="translate(250.472882 -14.943915) scale(0.727268)"/>
      <use xlink:href="#txbsys-ba" transform="translate(285.407125 0) scale(0.996264)"/>
     </g>
    </g>
   </g>
   <g id="LineCollection_2">
    <path d="M 85.07619 214.144297 
L 85.07619 213.156863 
" clip-path="url(#p156657a10a)" style="fill: none; stroke: #000000; stroke-width: 1.5"/>
    <path d="M 137.344253 247.59911 
L 137.344253 207.737804 
" clip-path="url(#p156657a10a)" style="fill: none; stroke: #000000; stroke-width: 1.5"/>
    <path d="M 189.612315 315.380335 
L 189.612315 207.861693 
" clip-path="url(#p156657a10a)" style="fill: none; stroke: #000000; stroke-width: 1.5"/>
    <path d="M 241.880378 327.154905 
L 241.880378 186.65768 
" clip-path="url(#p156657a10a)" style="fill: none; stroke: #000000; stroke-width: 1.5"/>
    <path d="M 294.14844 304.684743 
L 294.14844 209.733527 
" clip-path="url(#p156657a10a)" style="fill: none; stroke: #000000; stroke-width: 1.5"/>
   </g>
   <g id="line2d_26">
    <g clip-path="url(#p156657a10a)">
     <use xlink:href="#mf918782436" x="85.07619" y="214.144297" style="stroke: #000000"/>
     <use xlink:href="#mf918782436" x="137.344253" y="247.59911" style="stroke: #000000"/>
     <use xlink:href="#mf918782436" x="189.612315" y="315.380335" style="stroke: #000000"/>
     <use xlink:href="#mf918782436" x="241.880378" y="327.154905" style="stroke: #000000"/>
     <use xlink:href="#mf918782436" x="294.14844" y="304.684743" style="stroke: #000000"/>
    </g>
   </g>
   <g id="line2d_27">
    <g clip-path="url(#p156657a10a)">
     <use xlink:href="#mf918782436" x="85.07619" y="213.156863" style="stroke: #000000"/>
     <use xlink:href="#mf918782436" x="137.344253" y="207.737804" style="stroke: #000000"/>
     <use xlink:href="#mf918782436" x="189.612315" y="207.861693" style="stroke: #000000"/>
     <use xlink:href="#mf918782436" x="241.880378" y="186.65768" style="stroke: #000000"/>
     <use xlink:href="#mf918782436" x="294.14844" y="209.733527" style="stroke: #000000"/>
    </g>
   </g>
   <g id="patch_18">
    <path d="M 51.62463 334.179766 
L 51.62463 179.632818 
" style="fill: none; stroke: #000000; stroke-width: 0.8; stroke-linejoin: miter; stroke-linecap: square"/>
   </g>
   <g id="patch_19">
    <path d="M 327.6 334.179766 
L 327.6 179.632818 
" style="fill: none; stroke: #000000; stroke-width: 0.8; stroke-linejoin: miter; stroke-linecap: square"/>
   </g>
   <g id="patch_20">
    <path d="M 51.62463 334.179766 
L 327.6 334.179766 
" style="fill: none; stroke: #000000; stroke-width: 0.8; stroke-linejoin: miter; stroke-linecap: square"/>
   </g>
   <g id="patch_21">
    <path d="M 51.62463 179.632818 
L 327.6 179.632818 
" style="fill: none; stroke: #000000; stroke-width: 0.8; stroke-linejoin: miter; stroke-linecap: square"/>
   </g>
  </g>
 </g>
 <defs>
  <clipPath id="pf1efe523c7">
   <rect x="51.62463" y="8.704308" width="275.97537" height="154.546948"/>
  </clipPath>
  <clipPath id="p156657a10a">
   <rect x="51.62463" y="179.632818" width="275.97537" height="154.546948"/>
  </clipPath>
 </defs>
</svg>
