<?xml version="1.0" encoding="utf-8" standalone="no"?>
<!DOCTYPE svg PUBLIC "-//W3C//DTD SVG 1.1//EN"
  "http://www.w3.org/Graphics/SVG/1.1/DTD/svg11.dtd">
<svg xmlns:xlink="http://www.w3.org/1999/xlink" width="324pt" height="252pt" viewBox="0 0 324 252" xmlns="http://www.w3.org/2000/svg" version="1.1">
 <metadata>
  <rdf:RDF xmlns:dc="http://purl.org/dc/elements/1.1/" xmlns:cc="http://creativecommons.org/ns#" xmlns:rdf="http://www.w3.org/1999/02/22-rdf-syntax-ns#">
   <cc:Work>
    <dc:type rdf:resource="http://purl.org/dc/dcmitype/StillImage"/>
    <dc:date>2025-01-23T17:24:38.614266</dc:date>
    <dc:format>image/svg+xml</dc:format>
    <dc:creator>
     <cc:Agent>
      <dc:title>Matplotlib v3.9.0, https://matplotlib.org/</dc:title>
     </cc:Agent>
    </dc:creator>
   </cc:Work>
  </rdf:RDF>
 </metadata>
 <defs>
  <style type="text/css">*{stroke-linejoin: round; stroke-linecap: butt}</style>
 </defs>
 <g id="figure_1">
  <g id="patch_1">
   <path d="M 0 252 
L 324 252 
L 324 0 
L 0 0 
z
" style="fill: #ffffff"/>
  </g>
  <g id="axes_1">
   <g id="patch_2">
    <path d="M 50.472353 212.997179 
L 313.2 212.997179 
L 313.2 10.8 
L 50.472353 10.8 
z
" style="fill: #ffffff"/>
   </g>
   <g id="matplotlib.axis_1">
    <g id="xtick_1">
     <g id="line2d_1">
      <defs>
       <path id="m9b24d2de59" d="M 0 0 
L 0 -3.5 
" style="stroke: #000000; stroke-width: 0.8"/>
      </defs>
      <g>
       <use xlink:href="#m9b24d2de59" x="62.414519" y="212.997179" style="stroke: #000000; stroke-width: 0.8"/>
      </g>
     </g>
     <g id="text_1">
      <!-- $\mathdefault{0}$ -->
      <g transform="translate(59.687251 224.02045) scale(0.11 -0.11)">
       <defs>
        <path id="TeXGyreTermesX-Bold-30" d="M 3046 2166 
C 3046 3440 2426 4403 1600 4403 
C 1184 4403 762 4123 499 3664 
C 294 3313 154 2714 154 2185 
C 154 873 755 -64 1606 -64 
C 2432 -64 3046 886 3046 2166 
z
M 2035 1434 
C 2035 1058 1984 561 1926 389 
C 1856 203 1754 114 1606 114 
C 1286 114 1165 491 1165 1434 
L 1165 2892 
C 1165 3855 1286 4224 1594 4224 
C 1907 4224 2035 3829 2035 2892 
L 2035 1434 
z
" transform="scale(0.015625)"/>
       </defs>
       <use xlink:href="#TeXGyreTermesX-Bold-30" transform="scale(0.996264)"/>
      </g>
     </g>
    </g>
    <g id="xtick_2">
     <g id="line2d_2">
      <g>
       <use xlink:href="#m9b24d2de59" x="134.57072" y="212.997179" style="stroke: #000000; stroke-width: 0.8"/>
      </g>
     </g>
     <g id="text_2">
      <!-- $\mathdefault{1000}$ -->
      <g transform="translate(123.661647 224.02045) scale(0.11 -0.11)">
       <defs>
        <path id="TeXGyreTermesX-Bold-31" d="M 2829 0 
L 2829 159 
C 2246 159 2138 255 2138 746 
L 2138 4384 
L 2029 4384 
L 416 3686 
L 416 3521 
C 474 3540 525 3559 544 3572 
C 717 3635 877 3680 960 3680 
C 1120 3680 1190 3540 1190 3241 
L 1190 790 
C 1190 267 1062 159 429 159 
L 429 0 
L 2829 0 
z
" transform="scale(0.015625)"/>
       </defs>
       <use xlink:href="#TeXGyreTermesX-Bold-31" transform="scale(0.996264)"/>
       <use xlink:href="#TeXGyreTermesX-Bold-30" transform="translate(49.8132 0) scale(0.996264)"/>
       <use xlink:href="#TeXGyreTermesX-Bold-30" transform="translate(99.626401 0) scale(0.996264)"/>
       <use xlink:href="#TeXGyreTermesX-Bold-30" transform="translate(149.439601 0) scale(0.996264)"/>
      </g>
     </g>
    </g>
    <g id="xtick_3">
     <g id="line2d_3">
      <g>
       <use xlink:href="#m9b24d2de59" x="206.726921" y="212.997179" style="stroke: #000000; stroke-width: 0.8"/>
      </g>
     </g>
     <g id="text_3">
      <!-- $\mathdefault{2000}$ -->
      <g transform="translate(195.817848 224.02045) scale(0.11 -0.11)">
       <defs>
        <path id="TeXGyreTermesX-Bold-32" d="M 3059 1341 
L 2906 1341 
C 2720 884 2643 846 1990 846 
L 1024 846 
L 2061 1824 
C 2566 2301 2790 2726 2790 3210 
C 2790 3889 2298 4373 1606 4373 
C 1286 4373 979 4245 755 4016 
C 506 3768 378 3552 198 3075 
L 378 3075 
C 576 3469 813 3648 1158 3648 
C 1440 3648 1651 3527 1792 3298 
C 1869 3164 1920 2987 1920 2841 
C 1920 2561 1798 2211 1594 1900 
C 1267 1405 1043 1137 109 146 
L 109 0 
L 2771 0 
L 3059 1341 
z
" transform="scale(0.015625)"/>
       </defs>
       <use xlink:href="#TeXGyreTermesX-Bold-32" transform="scale(0.996264)"/>
       <use xlink:href="#TeXGyreTermesX-Bold-30" transform="translate(49.8132 0) scale(0.996264)"/>
       <use xlink:href="#TeXGyreTermesX-Bold-30" transform="translate(99.626401 0) scale(0.996264)"/>
       <use xlink:href="#TeXGyreTermesX-Bold-30" transform="translate(149.439601 0) scale(0.996264)"/>
      </g>
     </g>
    </g>
    <g id="xtick_4">
     <g id="line2d_4">
      <g>
       <use xlink:href="#m9b24d2de59" x="278.883122" y="212.997179" style="stroke: #000000; stroke-width: 0.8"/>
      </g>
     </g>
     <g id="text_4">
      <!-- $\mathdefault{3000}$ -->
      <g transform="translate(267.974049 224.02045) scale(0.11 -0.11)">
       <defs>
        <path id="TeXGyreTermesX-Bold-33" d="M 2995 1596 
C 2995 1889 2899 2164 2714 2387 
C 2579 2540 2470 2617 2214 2732 
C 2624 2981 2746 3165 2746 3541 
C 2746 4090 2355 4416 1702 4416 
C 1069 4416 589 4097 237 3440 
L 371 3364 
C 614 3753 826 3900 1158 3900 
C 1562 3900 1811 3645 1811 3242 
C 1811 2822 1587 2598 979 2406 
L 979 2297 
C 1510 2112 1722 2004 1952 1786 
C 2150 1601 2266 1314 2266 1007 
C 2266 548 2022 254 1638 254 
C 1485 254 1363 324 1152 528 
C 902 778 710 880 518 880 
C 275 880 102 728 102 510 
C 102 166 493 -64 1082 -64 
C 2150 -64 2995 664 2995 1596 
z
" transform="scale(0.015625)"/>
       </defs>
       <use xlink:href="#TeXGyreTermesX-Bold-33" transform="scale(0.996264)"/>
       <use xlink:href="#TeXGyreTermesX-Bold-30" transform="translate(49.8132 0) scale(0.996264)"/>
       <use xlink:href="#TeXGyreTermesX-Bold-30" transform="translate(99.626401 0) scale(0.996264)"/>
       <use xlink:href="#TeXGyreTermesX-Bold-30" transform="translate(149.439601 0) scale(0.996264)"/>
      </g>
     </g>
    </g>
    <g id="xtick_5">
     <g id="line2d_5">
      <defs>
       <path id="m2fc1ecefc7" d="M 0 0 
L 0 -2 
" style="stroke: #000000; stroke-width: 0.6"/>
      </defs>
      <g>
       <use xlink:href="#m2fc1ecefc7" x="76.845759" y="212.997179" style="stroke: #000000; stroke-width: 0.6"/>
      </g>
     </g>
    </g>
    <g id="xtick_6">
     <g id="line2d_6">
      <g>
       <use xlink:href="#m2fc1ecefc7" x="91.276999" y="212.997179" style="stroke: #000000; stroke-width: 0.6"/>
      </g>
     </g>
    </g>
    <g id="xtick_7">
     <g id="line2d_7">
      <g>
       <use xlink:href="#m2fc1ecefc7" x="105.708239" y="212.997179" style="stroke: #000000; stroke-width: 0.6"/>
      </g>
     </g>
    </g>
    <g id="xtick_8">
     <g id="line2d_8">
      <g>
       <use xlink:href="#m2fc1ecefc7" x="120.13948" y="212.997179" style="stroke: #000000; stroke-width: 0.6"/>
      </g>
     </g>
    </g>
    <g id="xtick_9">
     <g id="line2d_9">
      <g>
       <use xlink:href="#m2fc1ecefc7" x="149.00196" y="212.997179" style="stroke: #000000; stroke-width: 0.6"/>
      </g>
     </g>
    </g>
    <g id="xtick_10">
     <g id="line2d_10">
      <g>
       <use xlink:href="#m2fc1ecefc7" x="163.4332" y="212.997179" style="stroke: #000000; stroke-width: 0.6"/>
      </g>
     </g>
    </g>
    <g id="xtick_11">
     <g id="line2d_11">
      <g>
       <use xlink:href="#m2fc1ecefc7" x="177.86444" y="212.997179" style="stroke: #000000; stroke-width: 0.6"/>
      </g>
     </g>
    </g>
    <g id="xtick_12">
     <g id="line2d_12">
      <g>
       <use xlink:href="#m2fc1ecefc7" x="192.295681" y="212.997179" style="stroke: #000000; stroke-width: 0.6"/>
      </g>
     </g>
    </g>
    <g id="xtick_13">
     <g id="line2d_13">
      <g>
       <use xlink:href="#m2fc1ecefc7" x="221.158161" y="212.997179" style="stroke: #000000; stroke-width: 0.6"/>
      </g>
     </g>
    </g>
    <g id="xtick_14">
     <g id="line2d_14">
      <g>
       <use xlink:href="#m2fc1ecefc7" x="235.589401" y="212.997179" style="stroke: #000000; stroke-width: 0.6"/>
      </g>
     </g>
    </g>
    <g id="xtick_15">
     <g id="line2d_15">
      <g>
       <use xlink:href="#m2fc1ecefc7" x="250.020641" y="212.997179" style="stroke: #000000; stroke-width: 0.6"/>
      </g>
     </g>
    </g>
    <g id="xtick_16">
     <g id="line2d_16">
      <g>
       <use xlink:href="#m2fc1ecefc7" x="264.451882" y="212.997179" style="stroke: #000000; stroke-width: 0.6"/>
      </g>
     </g>
    </g>
    <g id="xtick_17">
     <g id="line2d_17">
      <g>
       <use xlink:href="#m2fc1ecefc7" x="293.314362" y="212.997179" style="stroke: #000000; stroke-width: 0.6"/>
      </g>
     </g>
    </g>
    <g id="xtick_18">
     <g id="line2d_18">
      <g>
       <use xlink:href="#m2fc1ecefc7" x="307.745602" y="212.997179" style="stroke: #000000; stroke-width: 0.6"/>
      </g>
     </g>
    </g>
    <g id="text_5">
     <!-- $t$ \textbf{[hr]} -->
     <g transform="translate(168.464316 238.60574) scale(0.12 -0.12)">
      <defs>
       <path id="NewTXBMI-74" d="M 1440 837 
L 1299 926 
C 1082 588 915 415 813 415 
C 762 415 710 460 710 511 
C 710 632 826 1073 1056 1864 
L 1267 2624 
L 1798 2624 
L 1798 2893 
L 1338 2893 
L 1587 3808 
L 1363 3808 
C 1018 3303 698 3037 192 2848 
L 192 2624 
L 518 2624 
L 83 1105 
C -13 773 -70 499 -70 383 
C -70 135 109 -32 378 -32 
C 762 -32 1018 180 1440 837 
z
" transform="scale(0.015625)"/>
       <path id="TeXGyreTermesX-Bold-5b" d="M 1926 -960 
L 1926 -750 
L 1414 -750 
C 1152 -750 1094 -686 1094 -413 
L 1094 3650 
C 1094 4020 1165 4096 1523 4096 
L 1926 4096 
L 1926 4306 
L 429 4306 
L 429 -960 
L 1926 -960 
z
" transform="scale(0.015625)"/>
       <path id="TeXGyreTermesX-Bold-68" d="M 3418 -32 
L 3418 121 
C 3187 140 3104 235 3104 503 
L 3104 2086 
C 3104 2635 2765 2986 2240 2986 
C 1901 2986 1664 2859 1331 2490 
L 1331 4288 
L 102 4288 
L 102 4134 
C 397 4076 442 4024 442 3763 
L 442 504 
C 442 236 390 178 102 121 
L 102 -32 
L 1645 -32 
L 1645 121 
C 1408 152 1331 249 1331 485 
L 1331 2190 
C 1331 2216 1376 2279 1440 2336 
C 1581 2484 1734 2560 1882 2560 
C 2106 2560 2214 2387 2214 2030 
L 2214 484 
C 2214 249 2131 146 1914 121 
L 1914 -32 
L 3418 -32 
z
" transform="scale(0.015625)"/>
       <path id="TeXGyreTermesX-Bold-72" d="M 2778 2512 
C 2778 2798 2560 3008 2259 3008 
C 1939 3008 1696 2836 1395 2410 
L 1395 2932 
L 186 2932 
L 186 2779 
C 461 2741 531 2658 531 2404 
L 531 533 
C 531 272 467 203 186 152 
L 186 0 
L 1888 0 
L 1888 165 
C 1498 165 1421 248 1421 645 
L 1421 1854 
C 1421 2186 1600 2461 1811 2461 
C 1862 2461 1920 2417 1990 2315 
C 2112 2143 2208 2086 2374 2086 
C 2611 2086 2778 2264 2778 2512 
z
" transform="scale(0.015625)"/>
       <path id="TeXGyreTermesX-Bold-5d" d="M 1702 -960 
L 1702 4306 
L 205 4306 
L 205 4096 
L 608 4096 
C 966 4096 1037 4020 1037 3650 
L 1037 -413 
C 1037 -693 986 -750 717 -750 
L 205 -750 
L 205 -960 
L 1702 -960 
z
" transform="scale(0.015625)"/>
      </defs>
      <use xlink:href="#NewTXBMI-74" transform="scale(0.996264)"/>
      <use xlink:href="#TeXGyreTermesX-Bold-5b" transform="translate(56.886681 0) scale(0.996264)"/>
      <use xlink:href="#TeXGyreTermesX-Bold-68" transform="translate(90.062291 0) scale(0.996264)"/>
      <use xlink:href="#TeXGyreTermesX-Bold-72" transform="translate(145.454545 0) scale(0.996264)"/>
      <use xlink:href="#TeXGyreTermesX-Bold-5d" transform="translate(189.688692 0) scale(0.996264)"/>
     </g>
    </g>
   </g>
   <g id="matplotlib.axis_2">
    <g id="ytick_1">
     <g id="line2d_19">
      <defs>
       <path id="md25562ec73" d="M 0 0 
L 3.5 0 
" style="stroke: #000000; stroke-width: 0.8"/>
      </defs>
      <g>
       <use xlink:href="#md25562ec73" x="50.472353" y="206.678517" style="stroke: #000000; stroke-width: 0.8"/>
      </g>
     </g>
     <g id="text_6">
      <!-- $\mathdefault{−0.2}$ -->
      <g transform="translate(25.601474 210.440153) scale(0.11 -0.11)">
       <defs>
        <path id="txbsys-0" d="M 3929 1341 
L 3929 1955 
L 396 1955 
L 396 1341 
L 3929 1341 
z
" transform="scale(0.015625)"/>
        <path id="NewTXBMI-93" d="M 1344 473 
C 1344 768 1101 1017 800 1017 
C 493 1017 262 761 262 473 
C 262 173 493 -64 800 -64 
C 1101 -64 1344 166 1344 473 
z
" transform="scale(0.015625)"/>
       </defs>
       <use xlink:href="#txbsys-0" transform="scale(0.996264)"/>
       <use xlink:href="#TeXGyreTermesX-Bold-30" transform="translate(67.347408 0) scale(0.996264)"/>
       <use xlink:href="#NewTXBMI-93" transform="translate(118.754606 0) scale(0.996264)"/>
       <use xlink:href="#TeXGyreTermesX-Bold-32" transform="translate(145.354867 0) scale(0.996264)"/>
      </g>
     </g>
    </g>
    <g id="ytick_2">
     <g id="line2d_20">
      <g>
       <use xlink:href="#md25562ec73" x="50.472353" y="181.40387" style="stroke: #000000; stroke-width: 0.8"/>
      </g>
     </g>
     <g id="text_7">
      <!-- $\mathdefault{0.0}$ -->
      <g transform="translate(32.976011 185.165505) scale(0.11 -0.11)">
       <use xlink:href="#TeXGyreTermesX-Bold-30" transform="scale(0.996264)"/>
       <use xlink:href="#NewTXBMI-93" transform="translate(51.407199 0) scale(0.996264)"/>
       <use xlink:href="#TeXGyreTermesX-Bold-30" transform="translate(78.00746 0) scale(0.996264)"/>
      </g>
     </g>
    </g>
    <g id="ytick_3">
     <g id="line2d_21">
      <g>
       <use xlink:href="#md25562ec73" x="50.472353" y="156.129222" style="stroke: #000000; stroke-width: 0.8"/>
      </g>
     </g>
     <g id="text_8">
      <!-- $\mathdefault{0.2}$ -->
      <g transform="translate(32.976011 159.890858) scale(0.11 -0.11)">
       <use xlink:href="#TeXGyreTermesX-Bold-30" transform="scale(0.996264)"/>
       <use xlink:href="#NewTXBMI-93" transform="translate(51.407199 0) scale(0.996264)"/>
       <use xlink:href="#TeXGyreTermesX-Bold-32" transform="translate(78.00746 0) scale(0.996264)"/>
      </g>
     </g>
    </g>
    <g id="ytick_4">
     <g id="line2d_22">
      <g>
       <use xlink:href="#md25562ec73" x="50.472353" y="130.854575" style="stroke: #000000; stroke-width: 0.8"/>
      </g>
     </g>
     <g id="text_9">
      <!-- $\mathdefault{0.4}$ -->
      <g transform="translate(32.976011 134.61621) scale(0.11 -0.11)">
       <defs>
        <path id="TeXGyreTermesX-Bold-34" d="M 3040 896 
L 3040 1602 
L 2637 1602 
L 2637 4352 
L 2125 4352 
L 1747 3863 
C 928 2803 506 2219 122 1615 
L 122 896 
L 1709 896 
L 1709 -32 
L 2637 -32 
L 2637 896 
L 3040 896 
z
M 1722 1602 
L 384 1602 
L 1722 3488 
L 1722 1602 
z
" transform="scale(0.015625)"/>
       </defs>
       <use xlink:href="#TeXGyreTermesX-Bold-30" transform="scale(0.996264)"/>
       <use xlink:href="#NewTXBMI-93" transform="translate(51.407199 0) scale(0.996264)"/>
       <use xlink:href="#TeXGyreTermesX-Bold-34" transform="translate(78.00746 0) scale(0.996264)"/>
      </g>
     </g>
    </g>
    <g id="ytick_5">
     <g id="line2d_23">
      <g>
       <use xlink:href="#md25562ec73" x="50.472353" y="105.579928" style="stroke: #000000; stroke-width: 0.8"/>
      </g>
     </g>
     <g id="text_10">
      <!-- $\mathdefault{0.6}$ -->
      <g transform="translate(32.976011 109.341563) scale(0.11 -0.11)">
       <defs>
        <path id="TeXGyreTermesX-Bold-36" d="M 3040 1427 
C 3040 2193 2573 2688 1843 2688 
C 1638 2688 1498 2663 1306 2580 
C 1542 3515 2074 4030 3008 4221 
L 3008 4387 
C 2157 4266 1760 4126 1274 3796 
C 557 3307 179 2596 179 1752 
C 179 654 768 -64 1664 -64 
C 2458 -64 3040 564 3040 1427 
z
M 2067 1046 
C 2067 298 1990 108 1677 108 
C 1530 108 1414 172 1350 291 
C 1242 501 1178 964 1178 1553 
C 1178 1946 1216 2307 1261 2339 
C 1312 2377 1402 2402 1491 2402 
C 1920 2402 2067 2054 2067 1046 
z
" transform="scale(0.015625)"/>
       </defs>
       <use xlink:href="#TeXGyreTermesX-Bold-30" transform="scale(0.996264)"/>
       <use xlink:href="#NewTXBMI-93" transform="translate(51.407199 0) scale(0.996264)"/>
       <use xlink:href="#TeXGyreTermesX-Bold-36" transform="translate(78.00746 0) scale(0.996264)"/>
      </g>
     </g>
    </g>
    <g id="ytick_6">
     <g id="line2d_24">
      <g>
       <use xlink:href="#md25562ec73" x="50.472353" y="80.30528" style="stroke: #000000; stroke-width: 0.8"/>
      </g>
     </g>
     <g id="text_11">
      <!-- $\mathdefault{0.8}$ -->
      <g transform="translate(32.976011 84.066916) scale(0.11 -0.11)">
       <defs>
        <path id="TeXGyreTermesX-Bold-38" d="M 3021 1212 
C 3021 1768 2746 2164 2061 2597 
C 2675 2815 2931 3075 2931 3483 
C 2931 4051 2445 4409 1683 4409 
C 819 4409 250 3961 250 3292 
C 250 2814 506 2462 1139 2086 
C 774 1965 627 1881 461 1722 
C 275 1543 179 1301 179 1020 
C 179 370 723 -64 1536 -64 
C 2426 -64 3021 447 3021 1212 
z
M 2170 3439 
C 2170 3139 2118 2993 1907 2712 
C 1370 2986 1075 3337 1075 3694 
C 1075 3994 1306 4224 1606 4224 
C 1965 4224 2170 3937 2170 3439 
z
M 2131 829 
C 2131 402 1920 140 1574 140 
C 1184 140 954 478 954 1046 
C 954 1397 1024 1595 1280 1971 
C 1978 1505 2131 1301 2131 829 
z
" transform="scale(0.015625)"/>
       </defs>
       <use xlink:href="#TeXGyreTermesX-Bold-30" transform="scale(0.996264)"/>
       <use xlink:href="#NewTXBMI-93" transform="translate(51.407199 0) scale(0.996264)"/>
       <use xlink:href="#TeXGyreTermesX-Bold-38" transform="translate(78.00746 0) scale(0.996264)"/>
      </g>
     </g>
    </g>
    <g id="ytick_7">
     <g id="line2d_25">
      <g>
       <use xlink:href="#md25562ec73" x="50.472353" y="55.030633" style="stroke: #000000; stroke-width: 0.8"/>
      </g>
     </g>
     <g id="text_12">
      <!-- $\mathdefault{1.0}$ -->
      <g transform="translate(32.976011 58.792268) scale(0.11 -0.11)">
       <use xlink:href="#TeXGyreTermesX-Bold-31" transform="scale(0.996264)"/>
       <use xlink:href="#NewTXBMI-93" transform="translate(51.407199 0) scale(0.996264)"/>
       <use xlink:href="#TeXGyreTermesX-Bold-30" transform="translate(78.00746 0) scale(0.996264)"/>
      </g>
     </g>
    </g>
    <g id="ytick_8">
     <g id="line2d_26">
      <g>
       <use xlink:href="#md25562ec73" x="50.472353" y="29.755986" style="stroke: #000000; stroke-width: 0.8"/>
      </g>
     </g>
     <g id="text_13">
      <!-- $\mathdefault{1.2}$ -->
      <g transform="translate(32.976011 33.517621) scale(0.11 -0.11)">
       <use xlink:href="#TeXGyreTermesX-Bold-31" transform="scale(0.996264)"/>
       <use xlink:href="#NewTXBMI-93" transform="translate(51.407199 0) scale(0.996264)"/>
       <use xlink:href="#TeXGyreTermesX-Bold-32" transform="translate(78.00746 0) scale(0.996264)"/>
      </g>
     </g>
    </g>
    <g id="ytick_9">
     <g id="line2d_27">
      <defs>
       <path id="m46fc960818" d="M 0 0 
L 2 0 
" style="stroke: #000000; stroke-width: 0.6"/>
      </defs>
      <g>
       <use xlink:href="#m46fc960818" x="50.472353" y="211.733447" style="stroke: #000000; stroke-width: 0.6"/>
      </g>
     </g>
    </g>
    <g id="ytick_10">
     <g id="line2d_28">
      <g>
       <use xlink:href="#m46fc960818" x="50.472353" y="201.623588" style="stroke: #000000; stroke-width: 0.6"/>
      </g>
     </g>
    </g>
    <g id="ytick_11">
     <g id="line2d_29">
      <g>
       <use xlink:href="#m46fc960818" x="50.472353" y="196.568658" style="stroke: #000000; stroke-width: 0.6"/>
      </g>
     </g>
    </g>
    <g id="ytick_12">
     <g id="line2d_30">
      <g>
       <use xlink:href="#m46fc960818" x="50.472353" y="191.513729" style="stroke: #000000; stroke-width: 0.6"/>
      </g>
     </g>
    </g>
    <g id="ytick_13">
     <g id="line2d_31">
      <g>
       <use xlink:href="#m46fc960818" x="50.472353" y="186.458799" style="stroke: #000000; stroke-width: 0.6"/>
      </g>
     </g>
    </g>
    <g id="ytick_14">
     <g id="line2d_32">
      <g>
       <use xlink:href="#m46fc960818" x="50.472353" y="176.34894" style="stroke: #000000; stroke-width: 0.6"/>
      </g>
     </g>
    </g>
    <g id="ytick_15">
     <g id="line2d_33">
      <g>
       <use xlink:href="#m46fc960818" x="50.472353" y="171.294011" style="stroke: #000000; stroke-width: 0.6"/>
      </g>
     </g>
    </g>
    <g id="ytick_16">
     <g id="line2d_34">
      <g>
       <use xlink:href="#m46fc960818" x="50.472353" y="166.239081" style="stroke: #000000; stroke-width: 0.6"/>
      </g>
     </g>
    </g>
    <g id="ytick_17">
     <g id="line2d_35">
      <g>
       <use xlink:href="#m46fc960818" x="50.472353" y="161.184152" style="stroke: #000000; stroke-width: 0.6"/>
      </g>
     </g>
    </g>
    <g id="ytick_18">
     <g id="line2d_36">
      <g>
       <use xlink:href="#m46fc960818" x="50.472353" y="151.074293" style="stroke: #000000; stroke-width: 0.6"/>
      </g>
     </g>
    </g>
    <g id="ytick_19">
     <g id="line2d_37">
      <g>
       <use xlink:href="#m46fc960818" x="50.472353" y="146.019363" style="stroke: #000000; stroke-width: 0.6"/>
      </g>
     </g>
    </g>
    <g id="ytick_20">
     <g id="line2d_38">
      <g>
       <use xlink:href="#m46fc960818" x="50.472353" y="140.964434" style="stroke: #000000; stroke-width: 0.6"/>
      </g>
     </g>
    </g>
    <g id="ytick_21">
     <g id="line2d_39">
      <g>
       <use xlink:href="#m46fc960818" x="50.472353" y="135.909505" style="stroke: #000000; stroke-width: 0.6"/>
      </g>
     </g>
    </g>
    <g id="ytick_22">
     <g id="line2d_40">
      <g>
       <use xlink:href="#m46fc960818" x="50.472353" y="125.799646" style="stroke: #000000; stroke-width: 0.6"/>
      </g>
     </g>
    </g>
    <g id="ytick_23">
     <g id="line2d_41">
      <g>
       <use xlink:href="#m46fc960818" x="50.472353" y="120.744716" style="stroke: #000000; stroke-width: 0.6"/>
      </g>
     </g>
    </g>
    <g id="ytick_24">
     <g id="line2d_42">
      <g>
       <use xlink:href="#m46fc960818" x="50.472353" y="115.689787" style="stroke: #000000; stroke-width: 0.6"/>
      </g>
     </g>
    </g>
    <g id="ytick_25">
     <g id="line2d_43">
      <g>
       <use xlink:href="#m46fc960818" x="50.472353" y="110.634857" style="stroke: #000000; stroke-width: 0.6"/>
      </g>
     </g>
    </g>
    <g id="ytick_26">
     <g id="line2d_44">
      <g>
       <use xlink:href="#m46fc960818" x="50.472353" y="100.524998" style="stroke: #000000; stroke-width: 0.6"/>
      </g>
     </g>
    </g>
    <g id="ytick_27">
     <g id="line2d_45">
      <g>
       <use xlink:href="#m46fc960818" x="50.472353" y="95.470069" style="stroke: #000000; stroke-width: 0.6"/>
      </g>
     </g>
    </g>
    <g id="ytick_28">
     <g id="line2d_46">
      <g>
       <use xlink:href="#m46fc960818" x="50.472353" y="90.415139" style="stroke: #000000; stroke-width: 0.6"/>
      </g>
     </g>
    </g>
    <g id="ytick_29">
     <g id="line2d_47">
      <g>
       <use xlink:href="#m46fc960818" x="50.472353" y="85.36021" style="stroke: #000000; stroke-width: 0.6"/>
      </g>
     </g>
    </g>
    <g id="ytick_30">
     <g id="line2d_48">
      <g>
       <use xlink:href="#m46fc960818" x="50.472353" y="75.250351" style="stroke: #000000; stroke-width: 0.6"/>
      </g>
     </g>
    </g>
    <g id="ytick_31">
     <g id="line2d_49">
      <g>
       <use xlink:href="#m46fc960818" x="50.472353" y="70.195421" style="stroke: #000000; stroke-width: 0.6"/>
      </g>
     </g>
    </g>
    <g id="ytick_32">
     <g id="line2d_50">
      <g>
       <use xlink:href="#m46fc960818" x="50.472353" y="65.140492" style="stroke: #000000; stroke-width: 0.6"/>
      </g>
     </g>
    </g>
    <g id="ytick_33">
     <g id="line2d_51">
      <g>
       <use xlink:href="#m46fc960818" x="50.472353" y="60.085562" style="stroke: #000000; stroke-width: 0.6"/>
      </g>
     </g>
    </g>
    <g id="ytick_34">
     <g id="line2d_52">
      <g>
       <use xlink:href="#m46fc960818" x="50.472353" y="49.975703" style="stroke: #000000; stroke-width: 0.6"/>
      </g>
     </g>
    </g>
    <g id="ytick_35">
     <g id="line2d_53">
      <g>
       <use xlink:href="#m46fc960818" x="50.472353" y="44.920774" style="stroke: #000000; stroke-width: 0.6"/>
      </g>
     </g>
    </g>
    <g id="ytick_36">
     <g id="line2d_54">
      <g>
       <use xlink:href="#m46fc960818" x="50.472353" y="39.865844" style="stroke: #000000; stroke-width: 0.6"/>
      </g>
     </g>
    </g>
    <g id="ytick_37">
     <g id="line2d_55">
      <g>
       <use xlink:href="#m46fc960818" x="50.472353" y="34.810915" style="stroke: #000000; stroke-width: 0.6"/>
      </g>
     </g>
    </g>
    <g id="ytick_38">
     <g id="line2d_56">
      <g>
       <use xlink:href="#m46fc960818" x="50.472353" y="24.701056" style="stroke: #000000; stroke-width: 0.6"/>
      </g>
     </g>
    </g>
    <g id="ytick_39">
     <g id="line2d_57">
      <g>
       <use xlink:href="#m46fc960818" x="50.472353" y="19.646127" style="stroke: #000000; stroke-width: 0.6"/>
      </g>
     </g>
    </g>
    <g id="ytick_40">
     <g id="line2d_58">
      <g>
       <use xlink:href="#m46fc960818" x="50.472353" y="14.591197" style="stroke: #000000; stroke-width: 0.6"/>
      </g>
     </g>
    </g>
    <g id="text_14">
     <!-- $X$ -->
     <g transform="translate(19.007214 115.885637) rotate(-90) scale(0.12 -0.12)">
      <defs>
       <path id="NewTXBMI-5e" d="M 3750 0 
L 3750 160 
C 3290 211 3194 301 3008 903 
L 2534 2423 
L 3808 3737 
C 4090 4019 4211 4096 4442 4128 
L 4442 4288 
L 3142 4288 
L 3142 4128 
L 3283 4115 
C 3430 4102 3494 4057 3494 3961 
C 3494 3846 3379 3685 3046 3333 
L 2445 2698 
C 2381 2910 2362 2986 2336 3050 
C 2189 3506 2118 3782 2118 3878 
C 2118 4025 2189 4083 2400 4108 
L 2592 4128 
L 2592 4288 
L 640 4288 
L 640 4128 
C 1024 4089 1120 4019 1222 3723 
L 1760 1981 
L 1325 1506 
C 314 390 122 211 -154 160 
L -154 0 
L 1216 0 
L 1216 160 
C 928 186 800 269 800 416 
C 800 499 845 583 992 743 
L 1850 1692 
L 1971 1308 
C 2144 814 2214 545 2214 403 
C 2214 237 2125 192 1779 160 
L 1779 0 
L 3750 0 
z
" transform="scale(0.015625)"/>
      </defs>
      <use xlink:href="#NewTXBMI-5e" transform="scale(0.996264)"/>
     </g>
    </g>
   </g>
   <g id="LineCollection_1">
    <path d="M 62.594235 189.683964 
L 62.594235 173.123776 
" clip-path="url(#p09f5bfb338)" style="fill: none; stroke: #000000"/>
    <path d="M 67.626299 184.93309 
L 67.626299 177.874649 
" clip-path="url(#p09f5bfb338)" style="fill: none; stroke: #000000"/>
    <path d="M 70.322048 184.93309 
L 70.322048 177.874649 
" clip-path="url(#p09f5bfb338)" style="fill: none; stroke: #000000"/>
    <path d="M 72.83808 183.439958 
L 72.83808 179.367781 
" clip-path="url(#p09f5bfb338)" style="fill: none; stroke: #000000"/>
    <path d="M 83.80079 183.711437 
L 83.80079 179.096303 
" clip-path="url(#p09f5bfb338)" style="fill: none; stroke: #000000"/>
    <path d="M 85.238523 183.982915 
L 85.238523 178.824824 
" clip-path="url(#p09f5bfb338)" style="fill: none; stroke: #000000"/>
    <path d="M 89.911153 185.340308 
L 89.911153 177.467432 
" clip-path="url(#p09f5bfb338)" style="fill: none; stroke: #000000"/>
    <path d="M 94.583784 185.476047 
L 94.583784 177.331692 
" clip-path="url(#p09f5bfb338)" style="fill: none; stroke: #000000"/>
    <path d="M 100.873864 185.883265 
L 100.873864 176.924475 
" clip-path="url(#p09f5bfb338)" style="fill: none; stroke: #000000"/>
    <path d="M 116.509205 186.154743 
L 116.509205 176.652996 
" clip-path="url(#p09f5bfb338)" style="fill: none; stroke: #000000"/>
    <path d="M 130.706814 168.101424 
L 130.706814 159.414112 
" clip-path="url(#p09f5bfb338)" style="fill: none; stroke: #000000"/>
    <path d="M 150.116203 141.632271 
L 150.116203 130.230175 
" clip-path="url(#p09f5bfb338)" style="fill: none; stroke: #000000"/>
    <path d="M 161.797779 129.28 
L 161.797779 121.407124 
" clip-path="url(#p09f5bfb338)" style="fill: none; stroke: #000000"/>
    <path d="M 176.534538 108.919113 
L 176.534538 99.688844 
" clip-path="url(#p09f5bfb338)" style="fill: none; stroke: #000000"/>
    <path d="M 199.717975 87.743791 
L 199.717975 82.042743 
" clip-path="url(#p09f5bfb338)" style="fill: none; stroke: #000000"/>
    <path d="M 221.643396 77.563348 
L 221.643396 71.862299 
" clip-path="url(#p09f5bfb338)" style="fill: none; stroke: #000000"/>
   </g>
   <g id="line2d_59">
    <defs>
     <path id="m4c4a991366" d="M 3 0 
L -3 -0 
" style="stroke: #000000"/>
    </defs>
    <g clip-path="url(#p09f5bfb338)">
     <use xlink:href="#m4c4a991366" x="62.594235" y="189.683964" style="stroke: #000000"/>
     <use xlink:href="#m4c4a991366" x="67.626299" y="184.93309" style="stroke: #000000"/>
     <use xlink:href="#m4c4a991366" x="70.322048" y="184.93309" style="stroke: #000000"/>
     <use xlink:href="#m4c4a991366" x="72.83808" y="183.439958" style="stroke: #000000"/>
     <use xlink:href="#m4c4a991366" x="83.80079" y="183.711437" style="stroke: #000000"/>
     <use xlink:href="#m4c4a991366" x="85.238523" y="183.982915" style="stroke: #000000"/>
     <use xlink:href="#m4c4a991366" x="89.911153" y="185.340308" style="stroke: #000000"/>
     <use xlink:href="#m4c4a991366" x="94.583784" y="185.476047" style="stroke: #000000"/>
     <use xlink:href="#m4c4a991366" x="100.873864" y="185.883265" style="stroke: #000000"/>
     <use xlink:href="#m4c4a991366" x="116.509205" y="186.154743" style="stroke: #000000"/>
     <use xlink:href="#m4c4a991366" x="130.706814" y="168.101424" style="stroke: #000000"/>
     <use xlink:href="#m4c4a991366" x="150.116203" y="141.632271" style="stroke: #000000"/>
     <use xlink:href="#m4c4a991366" x="161.797779" y="129.28" style="stroke: #000000"/>
     <use xlink:href="#m4c4a991366" x="176.534538" y="108.919113" style="stroke: #000000"/>
     <use xlink:href="#m4c4a991366" x="199.717975" y="87.743791" style="stroke: #000000"/>
     <use xlink:href="#m4c4a991366" x="221.643396" y="77.563348" style="stroke: #000000"/>
    </g>
   </g>
   <g id="line2d_60">
    <g clip-path="url(#p09f5bfb338)">
     <use xlink:href="#m4c4a991366" x="62.594235" y="173.123776" style="stroke: #000000"/>
     <use xlink:href="#m4c4a991366" x="67.626299" y="177.874649" style="stroke: #000000"/>
     <use xlink:href="#m4c4a991366" x="70.322048" y="177.874649" style="stroke: #000000"/>
     <use xlink:href="#m4c4a991366" x="72.83808" y="179.367781" style="stroke: #000000"/>
     <use xlink:href="#m4c4a991366" x="83.80079" y="179.096303" style="stroke: #000000"/>
     <use xlink:href="#m4c4a991366" x="85.238523" y="178.824824" style="stroke: #000000"/>
     <use xlink:href="#m4c4a991366" x="89.911153" y="177.467432" style="stroke: #000000"/>
     <use xlink:href="#m4c4a991366" x="94.583784" y="177.331692" style="stroke: #000000"/>
     <use xlink:href="#m4c4a991366" x="100.873864" y="176.924475" style="stroke: #000000"/>
     <use xlink:href="#m4c4a991366" x="116.509205" y="176.652996" style="stroke: #000000"/>
     <use xlink:href="#m4c4a991366" x="130.706814" y="159.414112" style="stroke: #000000"/>
     <use xlink:href="#m4c4a991366" x="150.116203" y="130.230175" style="stroke: #000000"/>
     <use xlink:href="#m4c4a991366" x="161.797779" y="121.407124" style="stroke: #000000"/>
     <use xlink:href="#m4c4a991366" x="176.534538" y="99.688844" style="stroke: #000000"/>
     <use xlink:href="#m4c4a991366" x="199.717975" y="82.042743" style="stroke: #000000"/>
     <use xlink:href="#m4c4a991366" x="221.643396" y="71.862299" style="stroke: #000000"/>
    </g>
   </g>
   <g id="line2d_61">
    <path d="M 62.504377 181.396299 
L 79.950826 181.261374 
L 87.837577 180.984872 
L 93.573395 180.565322 
L 98.114252 180.023775 
L 102.177124 179.325154 
L 106.001003 178.436617 
L 109.58589 177.362656 
L 112.931784 176.121449 
L 116.038686 174.742681 
L 119.145588 173.131921 
L 122.252489 171.279958 
L 125.359391 169.182644 
L 128.705286 166.651089 
L 132.05118 163.844952 
L 135.636067 160.551247 
L 139.459946 156.740281 
L 143.76181 152.135741 
L 148.780651 146.42703 
L 155.47244 138.445123 
L 172.679896 117.745902 
L 178.654708 111.006447 
L 183.912541 105.410776 
L 188.69239 100.634235 
L 193.472239 96.17371 
L 198.013096 92.237321 
L 202.553953 88.595579 
L 207.094809 85.243511 
L 211.635666 82.172418 
L 216.176522 79.370293 
L 220.717379 76.822591 
L 225.497228 74.398647 
L 230.516069 72.11736 
L 235.534911 70.084258 
L 240.792744 68.196458 
L 246.289571 66.46152 
L 252.02539 64.882971 
L 258.000201 63.460622 
L 264.691989 62.102283 
L 271.861763 60.882203 
L 279.748514 59.776622 
L 288.352242 58.803508 
L 297.91194 57.951348 
L 301.257834 57.700451 
L 301.257834 57.700451 
" clip-path="url(#p09f5bfb338)" style="fill: none; stroke: #000000; stroke-width: 1.5; stroke-linecap: square"/>
   </g>
   <g id="line2d_62">
    <path d="M 62.504377 199.152185 
L 68.001203 199.148274 
L 68.240196 199.022465 
L 68.479188 199.141743 
L 68.957173 199.007442 
L 72.303067 198.981016 
L 72.781052 199.057758 
L 80.667803 198.887281 
L 80.906796 198.573156 
L 81.145788 198.8882 
L 81.623773 198.967083 
L 82.101758 198.863051 
L 82.818735 198.852326 
L 84.730675 198.820231 
L 86.16463 198.706506 
L 86.642614 198.713634 
L 87.120599 198.514147 
L 89.032539 198.406617 
L 89.510524 198.259622 
L 90.466494 198.164216 
L 90.944479 198.191973 
L 91.183471 198.15896 
L 91.422463 198.614985 
L 92.139441 198.265347 
L 92.617426 198.507386 
L 92.856418 198.284669 
L 94.05138 198.167265 
L 94.290373 197.760696 
L 95.724328 197.664466 
L 98.114252 197.337675 
L 98.592237 197.375094 
L 100.265184 197.224295 
L 101.699139 196.795968 
L 101.938131 196.94702 
L 103.133093 196.773689 
L 103.850071 196.63832 
L 104.089063 195.731635 
L 105.284025 195.433497 
L 105.523018 195.572854 
L 105.76201 195.277632 
L 107.195965 194.85636 
L 107.434958 195.018095 
L 108.151935 194.739922 
L 108.62992 194.618134 
L 109.824882 194.179315 
L 110.780852 194.032359 
L 111.019844 193.651941 
L 111.497829 193.439257 
L 111.736822 193.483578 
L 113.648761 192.571369 
L 118.189618 190.53638 
L 118.42861 190.707534 
L 122.252489 188.50755 
L 123.447452 187.698759 
L 123.686444 187.547694 
L 124.164429 187.11617 
L 124.403421 187.464572 
L 124.642414 186.970832 
L 124.881406 187.178065 
L 125.837376 186.501158 
L 127.271331 185.555302 
L 127.510323 185.07255 
L 128.227301 184.483179 
L 130.856218 182.446757 
L 131.334203 182.06043 
L 131.573195 182.009545 
L 132.290172 181.310571 
L 132.768157 180.688703 
L 133.00715 180.816182 
L 133.724127 180.220881 
L 133.963119 179.656085 
L 134.202112 179.701648 
L 134.441104 179.529894 
L 134.919089 178.981396 
L 136.592036 177.470699 
L 137.070021 176.960608 
L 138.025991 176.016292 
L 139.937931 174.05382 
L 140.176923 173.40035 
L 141.132893 172.303773 
L 141.610878 171.892997 
L 143.283825 170.06162 
L 143.76181 169.273641 
L 146.151734 166.619182 
L 146.390727 166.198185 
L 146.868712 165.780531 
L 148.063674 164.451734 
L 150.214606 162.0324 
L 150.931583 161.16467 
L 151.409568 160.419772 
L 153.799493 157.627112 
L 154.277478 157.10609 
L 155.950425 154.892163 
L 156.189417 154.984221 
L 156.42841 154.283085 
L 157.862364 152.532262 
L 158.101357 152.74284 
L 158.340349 152.468206 
L 158.579342 151.767716 
L 159.057327 151.237774 
L 159.296319 150.61354 
L 159.535312 150.309422 
L 159.774304 150.68717 
L 164.793145 144.732459 
L 165.510123 143.950916 
L 165.988108 143.059016 
L 167.18307 141.653001 
L 167.422062 141.815901 
L 167.661055 141.077101 
L 168.13904 140.503134 
L 168.378032 140.542592 
L 168.617025 139.929238 
L 168.856017 139.64168 
L 169.09501 139.684208 
L 169.334002 139.11975 
L 170.767957 137.589499 
L 171.006949 137.522709 
L 171.962919 136.385349 
L 172.918889 135.235324 
L 173.396874 134.618312 
L 173.635866 134.471283 
L 175.069821 132.816852 
L 176.025791 131.767652 
L 176.264783 131.823693 
L 178.176723 129.873245 
L 178.415715 129.594862 
L 178.8937 128.645459 
L 179.84967 127.849296 
L 180.327655 127.32517 
L 180.566647 127.118021 
L 181.044632 126.497948 
L 181.522617 125.984499 
L 181.761609 126.065089 
L 182.000602 125.482606 
L 182.956572 124.463701 
L 183.195564 124.443624 
L 183.673549 123.646011 
L 184.390526 122.925662 
L 184.629519 122.091874 
L 185.107504 121.61715 
L 185.346496 121.828955 
L 187.258436 119.885444 
L 187.975413 119.238807 
L 188.453398 118.63497 
L 189.170375 117.9591 
L 189.64836 117.342156 
L 191.799292 115.369924 
L 195.384179 112.23003 
L 196.101156 111.509854 
L 197.296119 110.63094 
L 197.535111 110.596215 
L 200.642013 107.855465 
L 200.881005 107.828175 
L 201.119998 107.525582 
L 201.35899 107.501109 
L 203.031937 106.128918 
L 203.509922 105.579322 
L 205.899847 103.931233 
L 206.138839 103.806979 
L 206.616824 103.281373 
L 207.094809 103.020999 
L 209.962718 101.158628 
L 210.201711 100.782278 
L 210.440703 100.699007 
L 210.918688 100.372649 
L 211.635666 99.809841 
L 211.874658 99.244298 
L 212.11365 99.500092 
L 212.352643 98.917074 
L 213.786598 98.052072 
L 214.02559 98.290406 
L 214.264583 97.720894 
L 214.742567 97.408539 
L 214.98156 97.40063 
L 215.698537 96.944858 
L 215.93753 97.013945 
L 216.176522 96.519991 
L 217.132492 96.047753 
L 217.371484 96.080805 
L 217.849469 95.792275 
L 218.088462 95.961981 
L 218.327454 96.530054 
L 219.283424 95.936762 
L 219.522416 95.920726 
L 221.195364 94.886274 
L 222.868311 94.024873 
L 223.346296 93.632004 
L 227.409167 91.537664 
L 227.64816 91.697954 
L 230.038084 90.647835 
L 230.277077 89.970858 
L 232.667001 88.934968 
L 232.905994 89.270598 
L 233.144986 89.178762 
L 233.622971 88.711631 
L 234.578941 88.367308 
L 238.641812 86.746954 
L 239.119797 86.618285 
L 239.35879 86.353581 
L 241.748714 85.566803 
L 242.943677 85.199122 
L 243.182669 84.966913 
L 246.528563 83.920718 
L 246.767556 84.117766 
L 251.06942 82.856077 
L 251.786397 82.669129 
L 252.02539 82.420197 
L 258.239193 80.752125 
L 262.78005 79.906399 
L 263.019042 80.056957 
L 264.691989 79.685299 
L 264.930982 79.536504 
L 265.169974 79.683047 
L 268.037884 79.17051 
L 274.729672 78.096785 
L 275.207657 78.052682 
L 277.597582 77.746723 
L 286.20131 76.722658 
L 286.918287 76.58477 
L 289.547204 76.326091 
L 290.025189 76.199493 
L 290.503174 76.146329 
L 290.742166 76.271865 
L 296 75.733921 
L 301.257834 75.18907 
L 301.257834 75.18907 
" clip-path="url(#p09f5bfb338)" style="fill: none; stroke-dasharray: 1,1.65; stroke-dashoffset: 0; stroke: #000000"/>
   </g>
   <g id="line2d_63">
    <path d="M 62.504377 164.487623 
L 68.001203 164.475192 
L 68.240196 164.351502 
L 68.479188 164.473046 
L 68.957173 164.340853 
L 72.303067 164.31887 
L 72.781052 164.401143 
L 78.516871 164.29161 
L 80.667803 164.198279 
L 80.906796 163.89119 
L 81.145788 164.198946 
L 81.623773 164.291522 
L 82.101758 164.207942 
L 82.818735 164.227326 
L 84.969667 164.160363 
L 85.686645 164.13094 
L 86.16463 164.038019 
L 86.881607 163.871466 
L 87.837577 163.807203 
L 89.032539 163.721369 
L 89.510524 163.597739 
L 90.466494 163.460013 
L 90.944479 163.476575 
L 91.183471 163.4347 
L 91.422463 163.881806 
L 92.139441 163.516022 
L 92.617426 163.738157 
L 92.856418 163.531706 
L 94.05138 163.37918 
L 94.290373 162.954014 
L 95.485335 162.938998 
L 96.202312 162.781542 
L 97.158282 162.609652 
L 100.743169 162.161516 
L 101.699139 161.709018 
L 101.938131 161.854934 
L 103.133093 161.61071 
L 103.850071 161.412519 
L 104.089063 160.501439 
L 105.045033 160.265024 
L 105.284025 160.116777 
L 105.523018 160.246683 
L 105.76201 159.953018 
L 107.195965 159.424849 
L 107.434958 159.581688 
L 108.868912 159.022442 
L 109.58589 158.706639 
L 110.302867 158.359809 
L 110.541859 158.428668 
L 110.780852 158.350122 
L 111.019844 157.941109 
L 111.497829 157.68362 
L 111.736822 157.71758 
L 113.409769 156.739375 
L 113.887754 156.579573 
L 118.189618 154.258693 
L 118.42861 154.443415 
L 122.252489 151.805213 
L 123.447452 150.863628 
L 124.164429 150.212717 
L 124.403421 150.536646 
L 124.642414 150.006935 
L 124.881406 150.202063 
L 126.554354 148.791735 
L 126.793346 148.733039 
L 127.032338 148.418545 
L 127.271331 148.333375 
L 127.510323 147.831892 
L 130.13924 145.560156 
L 130.856218 144.884945 
L 132.290172 143.62599 
L 132.768157 142.975429 
L 133.00715 143.085504 
L 133.724127 142.439647 
L 133.963119 141.85429 
L 134.202112 141.894133 
L 134.441104 141.70279 
L 134.919089 141.143933 
L 138.025991 138.116498 
L 139.937931 136.010113 
L 140.176923 135.338559 
L 141.132893 134.212593 
L 141.610878 133.806877 
L 142.327855 132.921289 
L 142.80584 132.309441 
L 144.239795 130.56928 
L 144.478787 130.170746 
L 144.71778 130.072004 
L 145.434757 129.12294 
L 146.151734 128.399156 
L 146.390727 127.95881 
L 146.868712 127.562751 
L 152.604531 120.584405 
L 155.950425 116.339861 
L 156.189417 116.420119 
L 156.42841 115.711362 
L 157.862364 113.913717 
L 158.101357 114.110042 
L 158.340349 113.831244 
L 158.579342 113.133673 
L 159.057327 112.59631 
L 159.296319 111.960136 
L 159.535312 111.677022 
L 159.774304 112.064656 
L 161.686244 109.721226 
L 164.554153 106.317847 
L 165.510123 105.259405 
L 165.988108 104.339122 
L 167.18307 102.940711 
L 167.422062 103.101461 
L 167.661055 102.358394 
L 168.378032 101.805626 
L 168.617025 101.1904 
L 168.856017 100.907 
L 169.09501 100.977496 
L 169.334002 100.39954 
L 170.767957 98.862042 
L 171.006949 98.803094 
L 173.396874 95.922097 
L 173.874859 95.488138 
L 174.352843 94.930316 
L 175.308813 93.913619 
L 176.025791 93.082061 
L 176.264783 93.14403 
L 178.415715 90.90204 
L 178.8937 89.94585 
L 179.84967 89.148128 
L 180.327655 88.623961 
L 180.566647 88.412578 
L 181.044632 87.801954 
L 181.522617 87.300445 
L 181.761609 87.379264 
L 182.000602 86.789618 
L 182.956572 85.770081 
L 183.195564 85.743536 
L 183.673549 84.945513 
L 184.390526 84.239393 
L 184.629519 83.409078 
L 185.107504 82.963647 
L 185.346496 83.20058 
L 187.019443 81.527107 
L 187.975413 80.69799 
L 188.453398 80.107944 
L 189.170375 79.415269 
L 189.64836 78.828696 
L 193.472239 75.448766 
L 193.950224 75.167648 
L 195.862164 73.419649 
L 196.579141 72.806826 
L 196.818134 72.751568 
L 197.296119 72.356959 
L 197.535111 72.319447 
L 200.642013 69.714597 
L 200.881005 69.700571 
L 201.119998 69.408215 
L 201.35899 69.398076 
L 203.031937 68.075562 
L 203.509922 67.566106 
L 205.660854 66.096031 
L 206.138839 65.894825 
L 206.616824 65.403522 
L 207.094809 65.170062 
L 209.484734 63.531946 
L 209.723726 63.377667 
L 209.962718 63.414056 
L 210.201711 63.052492 
L 210.440703 62.972814 
L 210.918688 62.675961 
L 211.635666 62.164328 
L 211.874658 61.597482 
L 212.11365 61.866307 
L 212.352643 61.292705 
L 213.786598 60.484859 
L 214.02559 60.724368 
L 214.264583 60.164588 
L 214.742567 59.877278 
L 214.98156 59.875433 
L 215.698537 59.450845 
L 215.93753 59.533491 
L 216.176522 59.04673 
L 217.132492 58.627648 
L 217.371484 58.669084 
L 217.849469 58.397381 
L 218.088462 58.583817 
L 218.327454 59.158225 
L 218.805439 58.909564 
L 219.044432 58.841622 
L 219.283424 58.643232 
L 219.522416 58.636905 
L 222.629318 57.117365 
L 222.868311 56.999867 
L 223.346296 56.64191 
L 227.409167 54.737064 
L 227.64816 54.901783 
L 230.038084 53.989862 
L 230.277077 53.319671 
L 232.189016 52.609303 
L 232.667001 52.396617 
L 232.905994 52.752554 
L 233.144986 52.671551 
L 233.622971 52.223793 
L 234.578941 51.940046 
L 238.880805 50.48832 
L 239.119797 50.41613 
L 239.35879 50.170452 
L 240.792744 49.799434 
L 242.943677 49.178988 
L 243.182669 48.958032 
L 246.528563 48.042871 
L 246.767556 48.249561 
L 249.874458 47.476101 
L 250.11345 47.252825 
L 250.591435 47.140019 
L 250.830427 47.223418 
L 251.786397 47.008698 
L 252.02539 46.748634 
L 258.956171 45.179071 
L 260.151133 44.954725 
L 262.78005 44.539402 
L 263.019042 44.697643 
L 264.452997 44.388015 
L 265.169974 44.346782 
L 271.861763 43.226875 
L 272.100755 43.359928 
L 283.572393 42.036013 
L 284.528363 41.984551 
L 284.767355 41.889176 
L 285.24534 41.90421 
L 289.547204 41.39541 
L 290.025189 41.269904 
L 290.503174 41.219316 
L 290.742166 41.354599 
L 297.194963 40.73584 
L 297.672947 40.644863 
L 300.779849 40.413316 
L 301.257834 40.32603 
L 301.257834 40.32603 
" clip-path="url(#p09f5bfb338)" style="fill: none; stroke-dasharray: 1,1.65; stroke-dashoffset: 0; stroke: #000000"/>
   </g>
   <g id="LineCollection_2">
    <path d="M 62.414519 190.449673 
L 62.414519 172.358066 
" clip-path="url(#p09f5bfb338)" style="fill: none; stroke: #000000"/>
    <path d="M 67.70038 183.665005 
L 67.70038 178.876405 
" clip-path="url(#p09f5bfb338)" style="fill: none; stroke: #000000"/>
    <path d="M 72.860387 183.79831 
L 72.860387 179.00943 
" clip-path="url(#p09f5bfb338)" style="fill: none; stroke: #000000"/>
    <path d="M 79.530641 185.261859 
L 79.530641 177.54588 
" clip-path="url(#p09f5bfb338)" style="fill: none; stroke: #000000"/>
    <path d="M 86.830163 186.458939 
L 86.830163 176.3488 
" clip-path="url(#p09f5bfb338)" style="fill: none; stroke: #000000"/>
    <path d="M 95.262371 144.600249 
L 95.262371 133.781113 
" clip-path="url(#p09f5bfb338)" style="fill: none; stroke: #000000"/>
    <path d="M 101.303355 125.808757 
L 101.303355 119.281447 
" clip-path="url(#p09f5bfb338)" style="fill: none; stroke: #000000"/>
    <path d="M 109.232147 111.544862 
L 109.232147 104.781781 
" clip-path="url(#p09f5bfb338)" style="fill: none; stroke: #000000"/>
    <path d="M 119.552162 93.415409 
L 119.552162 86.690454 
" clip-path="url(#p09f5bfb338)" style="fill: none; stroke: #000000"/>
    <path d="M 128.236077 79.420086 
L 128.236077 74.31918 
" clip-path="url(#p09f5bfb338)" style="fill: none; stroke: #000000"/>
    <path d="M 157.560021 60.623828 
L 157.560021 55.296682 
" clip-path="url(#p09f5bfb338)" style="fill: none; stroke: #000000"/>
    <path d="M 173.795166 57.425073 
L 173.795166 52.902522 
" clip-path="url(#p09f5bfb338)" style="fill: none; stroke: #000000"/>
   </g>
   <g id="line2d_64">
    <g clip-path="url(#p09f5bfb338)">
     <use xlink:href="#m4c4a991366" x="62.414519" y="190.449673" style="stroke: #000000"/>
     <use xlink:href="#m4c4a991366" x="67.70038" y="183.665005" style="stroke: #000000"/>
     <use xlink:href="#m4c4a991366" x="72.860387" y="183.79831" style="stroke: #000000"/>
     <use xlink:href="#m4c4a991366" x="79.530641" y="185.261859" style="stroke: #000000"/>
     <use xlink:href="#m4c4a991366" x="86.830163" y="186.458939" style="stroke: #000000"/>
     <use xlink:href="#m4c4a991366" x="95.262371" y="144.600249" style="stroke: #000000"/>
     <use xlink:href="#m4c4a991366" x="101.303355" y="125.808757" style="stroke: #000000"/>
     <use xlink:href="#m4c4a991366" x="109.232147" y="111.544862" style="stroke: #000000"/>
     <use xlink:href="#m4c4a991366" x="119.552162" y="93.415409" style="stroke: #000000"/>
     <use xlink:href="#m4c4a991366" x="128.236077" y="79.420086" style="stroke: #000000"/>
     <use xlink:href="#m4c4a991366" x="157.560021" y="60.623828" style="stroke: #000000"/>
     <use xlink:href="#m4c4a991366" x="173.795166" y="57.425073" style="stroke: #000000"/>
    </g>
   </g>
   <g id="line2d_65">
    <g clip-path="url(#p09f5bfb338)">
     <use xlink:href="#m4c4a991366" x="62.414519" y="172.358066" style="stroke: #000000"/>
     <use xlink:href="#m4c4a991366" x="67.70038" y="178.876405" style="stroke: #000000"/>
     <use xlink:href="#m4c4a991366" x="72.860387" y="179.00943" style="stroke: #000000"/>
     <use xlink:href="#m4c4a991366" x="79.530641" y="177.54588" style="stroke: #000000"/>
     <use xlink:href="#m4c4a991366" x="86.830163" y="176.3488" style="stroke: #000000"/>
     <use xlink:href="#m4c4a991366" x="95.262371" y="133.781113" style="stroke: #000000"/>
     <use xlink:href="#m4c4a991366" x="101.303355" y="119.281447" style="stroke: #000000"/>
     <use xlink:href="#m4c4a991366" x="109.232147" y="104.781781" style="stroke: #000000"/>
     <use xlink:href="#m4c4a991366" x="119.552162" y="86.690454" style="stroke: #000000"/>
     <use xlink:href="#m4c4a991366" x="128.236077" y="74.31918" style="stroke: #000000"/>
     <use xlink:href="#m4c4a991366" x="157.560021" y="55.296682" style="stroke: #000000"/>
     <use xlink:href="#m4c4a991366" x="173.795166" y="52.902522" style="stroke: #000000"/>
    </g>
   </g>
   <g id="line2d_66">
    <path d="M 62.414519 181.396429 
L 69.773 181.262461 
L 73.117764 180.984418 
L 75.459099 180.580956 
L 77.465958 180.014521 
L 79.13834 179.330249 
L 80.810722 178.403412 
L 82.315866 177.323591 
L 83.82101 175.978728 
L 85.326153 174.342465 
L 86.831297 172.395163 
L 88.503679 169.852997 
L 90.176061 166.910342 
L 92.015682 163.225464 
L 94.02254 158.711185 
L 96.363875 152.883277 
L 99.206925 145.188947 
L 103.889595 131.757359 
L 109.241217 116.592679 
L 112.585982 107.80035 
L 115.429031 100.933619 
L 118.104842 95.043807 
L 120.613416 90.045301 
L 123.121989 85.550247 
L 125.463324 81.793085 
L 127.804659 78.436889 
L 130.145994 75.454581 
L 132.487329 72.816671 
L 134.828663 70.492403 
L 137.337237 68.315869 
L 139.84581 66.428618 
L 142.521621 64.696709 
L 145.364671 63.132803 
L 148.374958 61.743461 
L 151.552484 60.528133 
L 154.897249 59.480816 
L 158.743727 58.517072 
L 162.924683 57.701694 
L 167.774591 56.989849 
L 173.293452 56.40613 
L 179.815742 55.935278 
L 188.34489 55.55318 
L 199.382612 55.287127 
L 216.608148 55.115064 
L 229.48549 55.067459 
L 229.48549 55.067459 
" clip-path="url(#p09f5bfb338)" style="fill: none; stroke: #000000; stroke-width: 1.5; stroke-linecap: square"/>
   </g>
   <g id="line2d_67">
    <path d="M 62.414519 199.152298 
L 64.755854 199.142924 
L 64.923092 199.025002 
L 65.09033 199.141419 
L 65.424806 198.987481 
L 65.926521 199.020381 
L 66.595474 198.976329 
L 66.92995 199.056527 
L 68.100618 198.977263 
L 68.435094 198.918199 
L 68.936809 198.936451 
L 72.950526 198.657383 
L 73.285002 198.381824 
L 73.452241 198.65683 
L 73.786717 198.282014 
L 74.957384 198.159444 
L 75.124623 198.556419 
L 75.291861 198.239979 
L 75.793575 198.194888 
L 76.128052 198.068242 
L 76.462528 197.705086 
L 77.131481 197.546048 
L 77.298719 197.60576 
L 77.800434 197.371013 
L 77.967672 197.464875 
L 78.469387 197.240399 
L 78.803863 197.047828 
L 80.476245 196.398311 
L 80.643484 195.454469 
L 80.810722 195.445362 
L 80.97796 195.074801 
L 82.315866 194.39778 
L 82.650342 194.198267 
L 82.984818 193.823688 
L 83.319295 193.613458 
L 83.486533 193.571984 
L 83.988248 193.096918 
L 84.489962 192.481832 
L 84.991677 191.991498 
L 85.158915 191.897402 
L 85.493392 191.276024 
L 85.827868 191.004874 
L 85.995106 191.018693 
L 86.329583 190.642072 
L 86.998536 189.688755 
L 87.333012 189.393432 
L 87.667488 188.917741 
L 88.001965 188.292538 
L 88.169203 188.201683 
L 90.176061 185.054039 
L 90.677776 184.052464 
L 91.012253 183.558487 
L 91.179491 183.782488 
L 92.18292 181.613407 
L 92.851873 180.491926 
L 93.688064 178.544884 
L 94.691493 176.366692 
L 96.86559 171.116502 
L 97.200066 170.186309 
L 99.206925 164.705647 
L 99.541401 163.501044 
L 100.712069 160.538725 
L 101.213783 158.954468 
L 101.715498 157.701291 
L 102.384451 155.669923 
L 102.718927 154.587017 
L 104.725786 148.722697 
L 105.060262 147.920146 
L 105.394739 146.687799 
L 105.896453 145.363093 
L 106.398168 143.933494 
L 106.565406 144.205121 
L 107.903312 140.546129 
L 108.237788 138.82794 
L 109.91017 134.215971 
L 110.244647 133.342442 
L 110.411885 133.091563 
L 111.248076 131.070646 
L 113.756649 124.472002 
L 113.923887 124.465882 
L 114.258364 123.22955 
L 114.425602 122.810506 
L 114.59284 122.763854 
L 115.930746 119.510035 
L 116.599699 118.101041 
L 116.766937 118.363501 
L 117.101413 117.053506 
L 117.268651 116.711699 
L 117.603128 115.618088 
L 119.27551 112.006784 
L 119.442748 112.077528 
L 122.453036 106.167695 
L 122.620274 106.257226 
L 123.95818 103.991169 
L 124.125418 102.930512 
L 124.292656 103.465579 
L 124.794371 102.654712 
L 125.296085 101.254772 
L 125.463324 101.397903 
L 127.470182 98.683411 
L 127.63742 97.808451 
L 127.971897 97.34776 
L 128.139135 97.591826 
L 128.306373 97.357469 
L 128.473611 96.689139 
L 129.142564 95.755615 
L 130.982185 93.501685 
L 131.316661 93.120318 
L 133.490758 90.79651 
L 133.825234 90.221748 
L 133.992472 90.39223 
L 134.494187 89.834912 
L 134.661425 90.08514 
L 135.330378 89.402144 
L 135.664854 88.979642 
L 135.832093 89.003701 
L 136.333807 88.666866 
L 136.835522 88.114543 
L 137.00276 87.822171 
L 137.169998 87.897081 
L 137.337237 87.830879 
L 137.504475 87.320963 
L 137.671713 87.47751 
L 137.838951 87.307277 
L 138.173428 86.757869 
L 139.678572 85.525367 
L 139.84581 85.458102 
L 140.013048 84.343694 
L 140.180286 84.39618 
L 141.016477 83.817403 
L 141.183715 83.544692 
L 141.350954 83.602345 
L 143.692289 82.225273 
L 143.859527 82.135012 
L 144.194003 81.754571 
L 144.695718 81.475638 
L 144.862956 81.617361 
L 147.538767 80.173823 
L 151.05077 78.695741 
L 151.385246 78.703552 
L 152.555914 78.218788 
L 154.562772 77.639182 
L 155.231725 77.489015 
L 155.900678 77.33967 
L 159.747157 76.259241 
L 160.917824 75.981264 
L 164.597065 75.357872 
L 164.764303 75.888758 
L 165.767732 75.730494 
L 166.436685 75.654582 
L 166.603923 75.349827 
L 168.443544 75.051159 
L 168.77802 75.084528 
L 171.119355 74.749817 
L 171.286593 74.638337 
L 171.453831 74.877386 
L 171.62107 74.598686 
L 171.788308 74.790597 
L 172.122784 74.757243 
L 172.290022 74.581482 
L 172.457261 74.737245 
L 172.958975 74.519482 
L 173.126213 74.747572 
L 174.129643 74.599853 
L 174.631357 74.275205 
L 174.798596 74.477007 
L 174.965834 74.461678 
L 175.133072 74.234553 
L 180.150218 73.795548 
L 180.819171 73.77173 
L 185.167364 73.55286 
L 185.501841 73.566517 
L 190.184511 73.397248 
L 190.518987 73.434579 
L 191.522416 73.36928 
L 192.358608 73.37453 
L 204.901473 73.198806 
L 208.246237 73.21256 
L 208.580714 73.111897 
L 208.91519 73.192772 
L 210.085858 73.19397 
L 217.946054 73.088855 
L 218.113292 72.75031 
L 229.48549 72.675792 
L 229.48549 72.675792 
" clip-path="url(#p09f5bfb338)" style="fill: none; stroke-dasharray: 1,1.65; stroke-dashoffset: 0; stroke: #000000"/>
   </g>
   <g id="line2d_68">
    <path d="M 62.414519 164.487721 
L 64.755854 164.474987 
L 64.923092 164.35219 
L 65.09033 164.472607 
L 65.424806 164.323154 
L 65.926521 164.362306 
L 66.595474 164.317147 
L 66.92995 164.401118 
L 68.100618 164.352617 
L 68.602332 164.327881 
L 72.950526 163.97 
L 73.285002 163.702246 
L 73.452241 163.964348 
L 73.786717 163.597689 
L 74.957384 163.424623 
L 75.124623 163.812787 
L 75.291861 163.496091 
L 75.793575 163.43888 
L 76.128052 163.271267 
L 76.462528 162.890035 
L 77.633196 162.599361 
L 77.800434 162.49747 
L 77.967672 162.581046 
L 78.302149 162.444874 
L 79.305578 161.831911 
L 79.640054 161.704719 
L 80.476245 161.1851 
L 80.643484 160.211506 
L 80.810722 160.203164 
L 81.145198 159.677073 
L 81.312436 159.655332 
L 82.315866 158.966458 
L 82.650342 158.700231 
L 82.984818 158.257716 
L 83.319295 157.963991 
L 83.486533 157.909079 
L 84.991677 156.072861 
L 85.158915 155.925901 
L 85.493392 155.248688 
L 85.827868 154.901686 
L 85.995106 154.883714 
L 86.664059 154.000318 
L 86.998536 153.410991 
L 87.333012 153.063387 
L 87.667488 152.539346 
L 88.001965 151.850445 
L 88.169203 151.72663 
L 90.176061 148.206416 
L 90.677776 147.098817 
L 91.012253 146.518308 
L 91.179491 146.70947 
L 91.681205 145.686667 
L 95.193208 137.689831 
L 96.531113 134.189656 
L 96.698352 133.64812 
L 96.86559 133.574245 
L 97.367305 132.208295 
L 98.872448 128.113654 
L 99.206925 127.195082 
L 99.541401 125.958836 
L 100.712069 122.973206 
L 101.046545 121.688738 
L 101.381022 121.048598 
L 106.398168 106.319263 
L 106.565406 106.609533 
L 107.903312 102.902718 
L 108.237788 101.208734 
L 111.582552 92.61209 
L 113.254934 88.169371 
L 113.756649 86.808381 
L 113.923887 86.80173 
L 114.258364 85.551527 
L 114.425602 85.141514 
L 114.59284 85.091394 
L 116.43246 80.73645 
L 116.599699 80.419809 
L 116.766937 80.685652 
L 117.101413 79.382631 
L 117.268651 79.028298 
L 117.603128 77.958504 
L 119.27551 74.3878 
L 119.442748 74.470913 
L 121.951321 69.575616 
L 122.453036 68.747734 
L 122.620274 68.828685 
L 123.95818 66.696125 
L 124.125418 65.643076 
L 124.292656 66.193433 
L 124.794371 65.40484 
L 125.296085 64.041259 
L 125.463324 64.195154 
L 127.470182 61.712849 
L 127.63742 60.838756 
L 127.971897 60.426995 
L 128.139135 60.673471 
L 128.306373 60.452771 
L 128.473611 59.797826 
L 128.975326 59.215916 
L 129.309803 58.744596 
L 129.477041 58.6705 
L 132.487329 55.29872 
L 133.825234 53.803298 
L 133.992472 53.990449 
L 134.494187 53.471314 
L 134.661425 53.738279 
L 135.330378 53.113614 
L 135.664854 52.728993 
L 135.832093 52.785561 
L 137.169998 51.805396 
L 137.337237 51.749024 
L 137.504475 51.257367 
L 137.671713 51.433851 
L 137.838951 51.273456 
L 138.006189 50.874825 
L 139.344095 49.889492 
L 139.84581 49.565673 
L 140.013048 48.461705 
L 140.180286 48.521196 
L 141.016477 48.00655 
L 141.183715 47.741363 
L 141.350954 47.823512 
L 143.023336 46.878508 
L 143.190574 46.915417 
L 144.695718 45.948644 
L 144.862956 46.101718 
L 147.538767 44.870663 
L 149.378388 44.102204 
L 149.712864 44.056603 
L 150.549055 43.733296 
L 150.883532 43.499203 
L 151.385246 43.540752 
L 152.221437 43.264854 
L 153.559343 42.801805 
L 153.893819 42.799334 
L 158.910966 41.464392 
L 159.078204 41.512795 
L 159.579918 41.340317 
L 160.583348 41.172947 
L 162.422968 40.892996 
L 164.597065 40.506176 
L 164.764303 41.024498 
L 166.436685 40.812309 
L 166.603923 40.507155 
L 168.77802 40.294274 
L 171.119355 39.969174 
L 171.286593 39.856127 
L 171.453831 40.096562 
L 171.62107 39.812816 
L 171.788308 40.011792 
L 172.122784 39.983094 
L 172.290022 39.803731 
L 172.457261 39.954802 
L 172.958975 39.736286 
L 173.126213 39.962304 
L 174.129643 39.822397 
L 174.631357 39.497945 
L 174.798596 39.702044 
L 174.965834 39.689118 
L 175.133072 39.467002 
L 189.013843 38.708471 
L 189.515558 38.743903 
L 191.522416 38.669965 
L 192.358608 38.673113 
L 197.877468 38.59327 
L 208.91519 38.492531 
L 210.085858 38.500169 
L 217.946054 38.384049 
L 218.113292 38.0464 
L 229.48549 38.003601 
L 229.48549 38.003601 
" clip-path="url(#p09f5bfb338)" style="fill: none; stroke-dasharray: 1,1.65; stroke-dashoffset: 0; stroke: #000000"/>
   </g>
   <g id="patch_3">
    <path d="M 50.472353 212.997179 
L 50.472353 10.8 
" style="fill: none; stroke: #000000; stroke-width: 0.8; stroke-linejoin: miter; stroke-linecap: square"/>
   </g>
   <g id="patch_4">
    <path d="M 313.2 212.997179 
L 313.2 10.8 
" style="fill: none; stroke: #000000; stroke-width: 0.8; stroke-linejoin: miter; stroke-linecap: square"/>
   </g>
   <g id="patch_5">
    <path d="M 50.472353 212.997179 
L 313.2 212.997179 
" style="fill: none; stroke: #000000; stroke-width: 0.8; stroke-linejoin: miter; stroke-linecap: square"/>
   </g>
   <g id="patch_6">
    <path d="M 50.472353 10.8 
L 313.2 10.8 
" style="fill: none; stroke: #000000; stroke-width: 0.8; stroke-linejoin: miter; stroke-linecap: square"/>
   </g>
   <g id="text_15">
    <!-- Lopez et al. (2015) - MR -->
    <g transform="translate(179.208809 200.29306) scale(0.12 -0.12)">
     <defs>
      <path id="TeXGyreTermesX-Regular-4c" d="M 3827 1114 
L 3667 1114 
C 3565 890 3482 742 3392 640 
C 3168 371 2816 250 2266 250 
L 1837 250 
C 1370 250 1286 288 1286 513 
L 1286 3550 
C 1286 4007 1376 4096 1882 4096 
L 1882 4237 
L 77 4237 
L 77 4115 
C 550 4077 634 3993 634 3536 
L 634 681 
C 634 223 544 134 77 134 
L 77 0 
L 3520 0 
L 3827 1114 
z
" transform="scale(0.015625)"/>
      <path id="TeXGyreTermesX-Regular-6f" d="M 3008 1498 
C 3008 2336 2419 2944 1600 2944 
C 768 2944 186 2330 186 1446 
C 186 582 781 -64 1587 -64 
C 2394 -64 3008 614 3008 1498 
z
M 2432 1274 
C 2432 550 2144 115 1664 115 
C 1414 115 1178 269 1043 525 
C 864 858 762 1306 762 1760 
C 762 2368 1062 2765 1517 2765 
C 2054 2765 2432 2150 2432 1274 
z
" transform="scale(0.015625)"/>
      <path id="TeXGyreTermesX-Regular-70" d="M 3008 1575 
C 3008 2372 2560 2944 1939 2944 
C 1581 2944 1299 2784 1018 2438 
L 1018 2931 
L 979 2944 
C 634 2810 410 2726 58 2618 
L 58 2516 
C 115 2522 160 2522 218 2522 
C 435 2522 480 2458 480 2155 
L 480 -855 
C 480 -1189 410 -1261 32 -1299 
L 32 -1408 
L 1581 -1408 
L 1581 -1293 
C 1101 -1293 1018 -1222 1018 -816 
L 1018 199 
C 1242 -13 1395 -77 1664 -77 
C 2419 -77 3008 643 3008 1575 
z
M 2458 1324 
C 2458 611 2144 128 1683 128 
C 1382 128 1018 359 1018 552 
L 1018 2136 
C 1018 2329 1376 2560 1670 2560 
C 2144 2560 2458 2071 2458 1324 
z
" transform="scale(0.015625)"/>
      <path id="TeXGyreTermesX-Regular-65" d="M 2714 1008 
L 2611 1053 
C 2304 564 2029 378 1619 378 
C 1267 378 998 545 813 892 
C 685 1142 634 1367 621 1779 
L 2592 1779 
C 2541 2193 2477 2377 2317 2581 
C 2125 2811 1830 2944 1498 2944 
C 704 2944 160 2304 160 1370 
C 160 486 621 -64 1357 -64 
C 1971 -64 2445 315 2714 1008 
z
M 1939 1984 
L 634 1984 
C 704 2485 922 2714 1312 2714 
C 1702 2714 1856 2535 1939 1984 
z
" transform="scale(0.015625)"/>
      <path id="TeXGyreTermesX-Regular-7a" d="M 2675 864 
L 2560 890 
C 2496 570 2458 467 2374 358 
C 2285 250 2067 192 1741 192 
L 858 192 
L 2579 2784 
L 2579 2880 
L 358 2880 
L 339 2125 
L 454 2125 
C 512 2592 608 2688 992 2688 
L 1875 2688 
L 173 96 
L 173 0 
L 2586 0 
L 2675 864 
z
" transform="scale(0.015625)"/>
      <path id="TeXGyreTermesX-Regular-74" d="M 1786 422 
L 1702 493 
C 1562 326 1459 269 1318 269 
C 1082 269 986 435 986 845 
L 986 2675 
L 1632 2675 
L 1632 2880 
L 986 2880 
L 986 3622 
C 986 3686 973 3706 941 3706 
C 902 3642 858 3584 813 3526 
C 576 3174 358 2938 192 2836 
C 122 2785 83 2740 83 2697 
C 83 2675 90 2675 109 2675 
L 448 2675 
L 448 749 
C 448 211 640 -64 1011 -64 
C 1331 -64 1574 90 1786 422 
z
" transform="scale(0.015625)"/>
      <path id="TeXGyreTermesX-Regular-61" d="M 2829 256 
L 2829 423 
C 2720 333 2643 301 2547 301 
C 2400 301 2355 390 2355 672 
L 2355 1920 
C 2355 2246 2323 2426 2234 2573 
C 2099 2816 1824 2944 1434 2944 
C 1107 2944 800 2854 621 2707 
C 461 2573 358 2387 358 2227 
C 358 2080 480 1952 634 1952 
C 787 1952 922 2080 922 2221 
C 922 2246 915 2278 909 2323 
C 896 2381 890 2432 890 2477 
C 890 2650 1094 2790 1350 2790 
C 1664 2790 1837 2605 1837 2259 
L 1837 1869 
C 851 1472 742 1421 467 1178 
C 326 1050 237 832 237 621 
C 237 218 512 -64 909 -64 
C 1190 -64 1453 70 1843 403 
C 1875 64 1990 -64 2253 -64 
C 2470 -64 2605 13 2829 256 
z
M 1837 783 
C 1837 584 1805 526 1670 443 
C 1517 352 1338 301 1203 301 
C 979 301 800 520 800 796 
L 800 822 
C 800 1201 1062 1433 1837 1715 
L 1837 783 
z
" transform="scale(0.015625)"/>
      <path id="TeXGyreTermesX-Regular-6c" d="M 1645 0 
L 1645 109 
C 1235 109 1165 173 1165 528 
L 1165 4371 
L 1139 4384 
C 806 4275 563 4211 122 4103 
L 122 4000 
L 160 4000 
C 230 4000 307 4000 358 4000 
C 563 4000 627 3910 627 3610 
L 627 557 
C 627 211 538 128 134 96 
L 134 0 
L 1645 0 
z
" transform="scale(0.015625)"/>
      <path id="TeXGyreTermesX-Regular-2e" d="M 1158 281 
C 1158 480 992 646 800 646 
C 608 646 448 480 448 281 
C 448 96 608 -64 794 -64 
C 992 -64 1158 96 1158 281 
z
" transform="scale(0.015625)"/>
      <path id="TeXGyreTermesX-Regular-28" d="M 1946 -1030 
C 1434 -627 1254 -403 1082 77 
C 928 506 858 992 858 1632 
C 858 2304 941 2829 1114 3226 
C 1293 3622 1485 3853 1946 4224 
L 1888 4326 
C 1414 4019 1222 3853 986 3558 
C 531 3002 307 2362 307 1613 
C 307 800 544 173 1107 -480 
C 1370 -787 1536 -928 1869 -1133 
L 1946 -1030 
z
" transform="scale(0.015625)"/>
      <path id="TeXGyreTermesX-Regular-32" d="M 3040 875 
L 2957 907 
C 2720 544 2637 486 2349 486 
L 819 486 
L 1894 1609 
C 2464 2202 2714 2687 2714 3185 
C 2714 3823 2195 4313 1530 4313 
C 1178 4313 845 4173 608 3918 
C 403 3700 307 3496 198 3043 
L 333 3011 
C 589 3636 819 3840 1261 3840 
C 1798 3840 2163 3476 2163 2940 
C 2163 2443 1869 1850 1331 1282 
L 192 77 
L 192 0 
L 2688 0 
L 3040 875 
z
" transform="scale(0.015625)"/>
      <path id="TeXGyreTermesX-Regular-30" d="M 3046 2138 
C 3046 3450 2464 4352 1626 4352 
C 1274 4352 1005 4244 768 4020 
C 397 3661 154 2925 154 2176 
C 154 1479 365 730 666 372 
C 902 90 1229 -64 1600 -64 
C 1926 -64 2202 45 2432 269 
C 2803 621 3046 1364 3046 2138 
z
M 2432 2125 
C 2432 788 2150 103 1600 103 
C 1050 103 768 788 768 2119 
C 768 3476 1056 4186 1606 4186 
C 2144 4186 2432 3463 2432 2125 
z
" transform="scale(0.015625)"/>
      <path id="TeXGyreTermesX-Regular-31" d="M 2522 0 
L 2522 96 
C 2016 96 1914 160 1914 470 
L 1914 4327 
L 1862 4339 
L 710 3757 
L 710 3667 
C 787 3699 858 3725 883 3738 
C 998 3783 1107 3808 1171 3808 
C 1306 3808 1363 3711 1363 3505 
L 1363 592 
C 1363 379 1312 232 1210 173 
C 1114 116 1024 96 755 96 
L 755 0 
L 2522 0 
z
" transform="scale(0.015625)"/>
      <path id="TeXGyreTermesX-Regular-35" d="M 2803 4403 
L 2746 4448 
C 2650 4314 2586 4282 2451 4282 
L 1114 4282 
L 416 2759 
C 410 2746 410 2727 410 2727 
C 410 2695 435 2676 486 2676 
C 691 2676 947 2631 1210 2547 
C 1946 2309 2285 1910 2285 1274 
C 2285 656 1894 173 1395 173 
C 1267 173 1158 218 966 360 
C 762 508 614 572 480 572 
C 294 572 205 495 205 334 
C 205 90 506 -64 986 -64 
C 1523 -64 1984 110 2304 438 
C 2598 728 2733 1094 2733 1583 
C 2733 2046 2611 2342 2291 2663 
C 2010 2947 1645 3094 890 3229 
L 1158 3776 
L 2413 3776 
C 2515 3776 2541 3789 2560 3834 
L 2803 4403 
z
" transform="scale(0.015625)"/>
      <path id="TeXGyreTermesX-Regular-29" d="M 1824 1581 
C 1824 2400 1587 3021 1024 3674 
C 762 3981 595 4122 262 4326 
L 186 4224 
C 698 3821 870 3597 1050 3117 
C 1203 2688 1274 2202 1274 1562 
C 1274 896 1190 365 1018 -26 
C 838 -429 646 -659 186 -1030 
L 243 -1133 
C 717 -826 909 -659 1146 -365 
C 1600 192 1824 832 1824 1581 
z
" transform="scale(0.015625)"/>
      <path id="TeXGyreTermesX-Regular-2d" d="M 1824 1216 
L 1824 1619 
L 250 1619 
L 250 1216 
L 1824 1216 
z
" transform="scale(0.015625)"/>
      <path id="TeXGyreTermesX-Regular-4d" d="M 5523 0 
L 5523 134 
C 5056 134 4966 223 4966 681 
L 4966 3536 
C 4966 3993 5050 4077 5523 4115 
L 5523 4237 
L 4250 4237 
L 2835 1004 
L 1357 4237 
L 90 4237 
L 90 4096 
C 614 4096 698 4019 698 3550 
L 698 943 
C 698 282 608 159 77 121 
L 77 0 
L 1581 0 
L 1581 134 
C 1088 134 979 282 979 931 
L 979 3520 
L 2586 0 
L 2675 0 
L 4314 3667 
L 4314 751 
C 4314 217 4237 134 3731 134 
L 3731 0 
L 5523 0 
z
" transform="scale(0.015625)"/>
      <path id="TeXGyreTermesX-Regular-52" d="M 4218 0 
L 4218 121 
C 3974 140 3846 205 3661 424 
L 2342 2061 
C 2771 2143 2963 2219 3174 2388 
C 3379 2553 3501 2818 3501 3113 
C 3501 3385 3418 3618 3251 3801 
C 3008 4059 2477 4224 1875 4224 
L 109 4224 
L 109 4102 
C 589 4051 653 3981 653 3528 
L 653 765 
C 653 236 589 159 109 121 
L 109 0 
L 1882 0 
L 1882 134 
C 1389 134 1306 219 1306 692 
L 1306 1984 
L 1664 1984 
L 3187 0 
L 4218 0 
z
M 2803 3123 
C 2803 2807 2669 2542 2438 2423 
C 2144 2258 1920 2221 1306 2221 
L 1306 3762 
C 1306 3937 1376 3987 1632 3987 
C 2432 3987 2803 3716 2803 3123 
z
" transform="scale(0.015625)"/>
     </defs>
     <use xlink:href="#TeXGyreTermesX-Regular-4c" transform="scale(0.996264)"/>
     <use xlink:href="#TeXGyreTermesX-Regular-6f" transform="translate(60.871737 0) scale(0.996264)"/>
     <use xlink:href="#TeXGyreTermesX-Regular-70" transform="translate(110.684938 0) scale(0.996264)"/>
     <use xlink:href="#TeXGyreTermesX-Regular-65" transform="translate(160.498138 0) scale(0.996264)"/>
     <use xlink:href="#TeXGyreTermesX-Regular-7a" transform="translate(204.732284 0) scale(0.996264)"/>
     <use xlink:href="#TeXGyreTermesX-Regular-65" transform="translate(273.873031 0) scale(0.996264)"/>
     <use xlink:href="#TeXGyreTermesX-Regular-74" transform="translate(318.107177 0) scale(0.996264)"/>
     <use xlink:href="#TeXGyreTermesX-Regular-61" transform="translate(370.709905 0) scale(0.996264)"/>
     <use xlink:href="#TeXGyreTermesX-Regular-6c" transform="translate(414.944051 0) scale(0.996264)"/>
     <use xlink:href="#TeXGyreTermesX-Regular-2e" transform="translate(442.640179 0) scale(0.996264)"/>
     <use xlink:href="#TeXGyreTermesX-Regular-28" transform="translate(503.511916 0) scale(0.996264)"/>
     <use xlink:href="#TeXGyreTermesX-Regular-32" transform="translate(536.687526 0) scale(0.996264)"/>
     <use xlink:href="#TeXGyreTermesX-Regular-30" transform="translate(586.500726 0) scale(0.996264)"/>
     <use xlink:href="#TeXGyreTermesX-Regular-31" transform="translate(636.313927 0) scale(0.996264)"/>
     <use xlink:href="#TeXGyreTermesX-Regular-35" transform="translate(686.127127 0) scale(0.996264)"/>
     <use xlink:href="#TeXGyreTermesX-Regular-29" transform="translate(735.940328 0) scale(0.996264)"/>
     <use xlink:href="#TeXGyreTermesX-Regular-2d" transform="translate(794.022538 0) scale(0.996264)"/>
     <use xlink:href="#TeXGyreTermesX-Regular-4d" transform="translate(852.104748 0) scale(0.996264)"/>
     <use xlink:href="#TeXGyreTermesX-Regular-52" transform="translate(940.672612 0) scale(0.996264)"/>
    </g>
   </g>
   <g id="legend_1">
    <g id="patch_7">
     <path d="M 58.872353 37.39426 
L 274.751693 37.39426 
Q 277.151693 37.39426 277.151693 34.99426 
L 277.151693 19.2 
Q 277.151693 16.8 274.751693 16.8 
L 58.872353 16.8 
Q 56.472353 16.8 56.472353 19.2 
L 56.472353 34.99426 
Q 56.472353 37.39426 58.872353 37.39426 
z
" style="fill: #ffffff; opacity: 0.8; stroke: #cccccc; stroke-linejoin: miter"/>
    </g>
    <g id="PathCollection_1">
     <defs>
      <path id="m99c859684d" d="M 0 -3.535534 
L -3.061862 -1.767767 
L -3.061862 1.767767 
L -0 3.535534 
L 3.061862 1.767767 
L 3.061862 -1.767767 
z
" style="stroke: #000000"/>
     </defs>
     <g>
      <use xlink:href="#m99c859684d" x="73.272353" y="26.85" style="fill: #d95f02; stroke: #000000"/>
     </g>
    </g>
    <g id="text_16">
     <!-- \textbf{$T = 1150$ [$^\circ C $]} -->
     <g transform="translate(94.872353 30) scale(0.12 -0.12)">
      <defs>
       <path id="NewTXBMI-5a" d="M 3930 3057 
L 4160 4288 
L 634 4288 
L 390 3192 
L 550 3147 
C 883 3792 1286 4057 1939 4057 
L 992 621 
C 902 288 736 160 410 160 
L 320 160 
L 320 0 
L 2438 0 
L 2438 160 
C 1984 160 1907 199 1907 404 
C 1907 501 1933 629 1978 803 
L 2874 4057 
C 3475 4057 3725 3781 3757 3070 
L 3930 3057 
z
" transform="scale(0.015625)"/>
       <path id="txbmiaX-3d" d="M 3930 2137 
L 3930 2752 
L 397 2752 
L 397 2137 
L 3930 2137 
z
M 3930 576 
L 3930 1190 
L 397 1190 
L 397 576 
L 3930 576 
z
" transform="scale(0.015625)"/>
       <path id="TeXGyreTermesX-Bold-35" d="M 3008 4288 
L 947 4288 
L 326 2093 
C 934 2049 1197 2010 1478 1921 
C 2048 1743 2387 1381 2387 960 
C 2387 604 2106 324 1747 324 
C 1600 324 1427 400 1171 591 
C 896 795 704 877 538 877 
C 307 877 141 718 141 496 
C 141 159 512 -64 1082 -64 
C 2138 -64 2886 575 2886 1476 
C 2886 2140 2477 2652 1779 2850 
C 1536 2920 1338 2946 813 2946 
L 954 3481 
L 2733 3481 
L 3008 4288 
z
" transform="scale(0.015625)"/>
       <path id="txbsys-e" d="M 2955 1640 
C 2955 2347 2386 2915 1676 2915 
C 960 2915 397 2347 397 1640 
C 397 926 960 365 1676 365 
C 2386 365 2955 926 2955 1640 
z
M 2482 1640 
C 2482 1188 2117 838 1676 838 
C 1222 838 870 1188 870 1640 
C 870 2078 1222 2441 1676 2441 
C 2117 2441 2482 2078 2482 1640 
z
" transform="scale(0.015625)"/>
       <path id="NewTXBMI-49" d="M 3686 828 
L 3494 969 
C 3174 590 2995 442 2726 326 
C 2547 249 2349 211 2150 211 
C 1549 211 1190 628 1190 1329 
C 1190 2253 1638 3344 2214 3852 
C 2451 4051 2714 4160 2982 4160 
C 3501 4160 3821 3775 3821 3146 
C 3821 3062 3814 3004 3802 2921 
L 4006 2882 
L 4333 4384 
L 4141 4384 
C 4051 4243 3994 4198 3898 4198 
C 3846 4198 3750 4218 3654 4250 
C 3366 4339 3078 4384 2816 4384 
C 1389 4384 205 3094 205 1534 
C 205 539 902 -128 1946 -128 
C 2400 -128 2822 13 3187 289 
C 3373 431 3482 546 3686 828 
z
" transform="scale(0.015625)"/>
      </defs>
      <use xlink:href="#NewTXBMI-5a" transform="scale(0.996264)"/>
      <use xlink:href="#txbmiaX-3d" transform="translate(94.32405 0) scale(0.996264)"/>
      <use xlink:href="#TeXGyreTermesX-Bold-31" transform="translate(189.34539 0) scale(0.996264)"/>
      <use xlink:href="#TeXGyreTermesX-Bold-31" transform="translate(239.15859 0) scale(0.996264)"/>
      <use xlink:href="#TeXGyreTermesX-Bold-35" transform="translate(288.971791 0) scale(0.996264)"/>
      <use xlink:href="#TeXGyreTermesX-Bold-30" transform="translate(338.784991 0) scale(0.996264)"/>
      <use xlink:href="#TeXGyreTermesX-Bold-5b" transform="translate(413.504792 0) scale(0.996264)"/>
      <use xlink:href="#txbsys-e" transform="translate(446.680402 36.164371) scale(0.727268)"/>
      <use xlink:href="#NewTXBMI-49" transform="translate(485.68588 0) scale(0.996264)"/>
      <use xlink:href="#TeXGyreTermesX-Bold-5d" transform="translate(557.167792 0) scale(0.996264)"/>
     </g>
    </g>
    <g id="PathCollection_2">
     <defs>
      <path id="m750928f636" d="M 0 -3.535534 
L -3.061862 -1.767767 
L -3.061862 1.767767 
L -0 3.535534 
L 3.061862 1.767767 
L 3.061862 -1.767767 
z
" style="stroke: #000000"/>
     </defs>
     <g>
      <use xlink:href="#m750928f636" x="202.172695" y="26.85" style="fill: #7570b3; stroke: #000000"/>
     </g>
    </g>
    <g id="text_17">
     <!-- \textbf{$1175$ [$^\circ C $]} -->
     <g transform="translate(223.772695 30) scale(0.12 -0.12)">
      <defs>
       <path id="TeXGyreTermesX-Bold-37" d="M 3053 4327 
L 390 4327 
L 109 2916 
L 269 2916 
C 390 3322 544 3456 896 3456 
L 2221 3456 
L 941 32 
L 1549 32 
L 3053 4327 
z
" transform="scale(0.015625)"/>
      </defs>
      <use xlink:href="#TeXGyreTermesX-Bold-31" transform="scale(0.996264)"/>
      <use xlink:href="#TeXGyreTermesX-Bold-31" transform="translate(49.8132 0) scale(0.996264)"/>
      <use xlink:href="#TeXGyreTermesX-Bold-37" transform="translate(99.626401 0) scale(0.996264)"/>
      <use xlink:href="#TeXGyreTermesX-Bold-35" transform="translate(149.439601 0) scale(0.996264)"/>
      <use xlink:href="#TeXGyreTermesX-Bold-5b" transform="translate(224.159402 0) scale(0.996264)"/>
      <use xlink:href="#txbsys-e" transform="translate(257.335012 36.164371) scale(0.727268)"/>
      <use xlink:href="#NewTXBMI-49" transform="translate(296.34049 0) scale(0.996264)"/>
      <use xlink:href="#TeXGyreTermesX-Bold-5d" transform="translate(367.822402 0) scale(0.996264)"/>
     </g>
    </g>
   </g>
   <g id="PathCollection_3">
    <g clip-path="url(#p09f5bfb338)">
     <use xlink:href="#m99c859684d" x="62.594235" y="181.40387" style="fill: #d95f02; stroke: #000000"/>
     <use xlink:href="#m99c859684d" x="67.626299" y="181.40387" style="fill: #d95f02; stroke: #000000"/>
     <use xlink:href="#m99c859684d" x="70.322048" y="181.40387" style="fill: #d95f02; stroke: #000000"/>
     <use xlink:href="#m99c859684d" x="72.83808" y="181.40387" style="fill: #d95f02; stroke: #000000"/>
     <use xlink:href="#m99c859684d" x="83.80079" y="181.40387" style="fill: #d95f02; stroke: #000000"/>
     <use xlink:href="#m99c859684d" x="85.238523" y="181.40387" style="fill: #d95f02; stroke: #000000"/>
     <use xlink:href="#m99c859684d" x="89.911153" y="181.40387" style="fill: #d95f02; stroke: #000000"/>
     <use xlink:href="#m99c859684d" x="94.583784" y="181.40387" style="fill: #d95f02; stroke: #000000"/>
     <use xlink:href="#m99c859684d" x="100.873864" y="181.40387" style="fill: #d95f02; stroke: #000000"/>
     <use xlink:href="#m99c859684d" x="116.509205" y="181.40387" style="fill: #d95f02; stroke: #000000"/>
     <use xlink:href="#m99c859684d" x="130.706814" y="163.757768" style="fill: #d95f02; stroke: #000000"/>
     <use xlink:href="#m99c859684d" x="150.116203" y="135.931223" style="fill: #d95f02; stroke: #000000"/>
     <use xlink:href="#m99c859684d" x="161.797779" y="125.343562" style="fill: #d95f02; stroke: #000000"/>
     <use xlink:href="#m99c859684d" x="176.534538" y="104.303979" style="fill: #d95f02; stroke: #000000"/>
     <use xlink:href="#m99c859684d" x="199.717975" y="84.893267" style="fill: #d95f02; stroke: #000000"/>
     <use xlink:href="#m99c859684d" x="221.643396" y="74.712823" style="fill: #d95f02; stroke: #000000"/>
    </g>
   </g>
   <g id="PathCollection_4">
    <g clip-path="url(#p09f5bfb338)">
     <use xlink:href="#m750928f636" x="62.414519" y="181.40387" style="fill: #7570b3; stroke: #000000"/>
     <use xlink:href="#m750928f636" x="67.70038" y="181.270705" style="fill: #7570b3; stroke: #000000"/>
     <use xlink:href="#m750928f636" x="72.860387" y="181.40387" style="fill: #7570b3; stroke: #000000"/>
     <use xlink:href="#m750928f636" x="79.530641" y="181.40387" style="fill: #7570b3; stroke: #000000"/>
     <use xlink:href="#m750928f636" x="86.830163" y="181.40387" style="fill: #7570b3; stroke: #000000"/>
     <use xlink:href="#m750928f636" x="95.262371" y="139.190681" style="fill: #7570b3; stroke: #000000"/>
     <use xlink:href="#m750928f636" x="101.303355" y="122.545102" style="fill: #7570b3; stroke: #000000"/>
     <use xlink:href="#m750928f636" x="109.232147" y="108.163322" style="fill: #7570b3; stroke: #000000"/>
     <use xlink:href="#m750928f636" x="119.552162" y="90.052931" style="fill: #7570b3; stroke: #000000"/>
     <use xlink:href="#m750928f636" x="128.236077" y="76.869633" style="fill: #7570b3; stroke: #000000"/>
     <use xlink:href="#m750928f636" x="157.560021" y="57.960255" style="fill: #7570b3; stroke: #000000"/>
     <use xlink:href="#m750928f636" x="173.795166" y="55.163798" style="fill: #7570b3; stroke: #000000"/>
    </g>
   </g>
  </g>
 </g>
 <defs>
  <clipPath id="p09f5bfb338">
   <rect x="50.472353" y="10.8" width="262.727647" height="202.197179"/>
  </clipPath>
 </defs>
</svg>
