<?xml version="1.0" encoding="utf-8" standalone="no"?>
<!DOCTYPE svg PUBLIC "-//W3C//DTD SVG 1.1//EN"
  "http://www.w3.org/Graphics/SVG/1.1/DTD/svg11.dtd">
<svg xmlns:xlink="http://www.w3.org/1999/xlink" width="234pt" height="162pt" viewBox="0 0 234 162" xmlns="http://www.w3.org/2000/svg" version="1.1">
 <metadata>
  <rdf:RDF xmlns:dc="http://purl.org/dc/elements/1.1/" xmlns:cc="http://creativecommons.org/ns#" xmlns:rdf="http://www.w3.org/1999/02/22-rdf-syntax-ns#">
   <cc:Work>
    <dc:type rdf:resource="http://purl.org/dc/dcmitype/StillImage"/>
    <dc:date>2025-04-13T15:03:01.964010</dc:date>
    <dc:format>image/svg+xml</dc:format>
    <dc:creator>
     <cc:Agent>
      <dc:title>Matplotlib v3.10.1, https://matplotlib.org/</dc:title>
     </cc:Agent>
    </dc:creator>
   </cc:Work>
  </rdf:RDF>
 </metadata>
 <defs>
  <style type="text/css">*{stroke-linejoin: round; stroke-linecap: butt}</style>
 </defs>
 <g id="figure_1">
  <g id="patch_1">
   <path d="M 0 162 
L 234 162 
L 234 0 
L 0 0 
z
" style="fill: #ffffff"/>
  </g>
  <g id="axes_1">
   <g id="patch_2">
    <path d="M 48.552353 122.997179 
L 177.87066 122.997179 
L 177.87066 10.8 
L 48.552353 10.8 
z
" style="fill: #ffffff"/>
   </g>
   <g id="matplotlib.axis_1">
    <g id="xtick_1">
     <g id="line2d_1">
      <defs>
       <path id="m8ea1c57963" d="M 0 0 
L 0 -3.5 
" style="stroke: #000000; stroke-width: 0.8"/>
      </defs>
      <g>
       <use xlink:href="#m8ea1c57963" x="54.430457" y="122.997179" style="stroke: #000000; stroke-width: 0.8"/>
      </g>
     </g>
     <g id="text_1">
      <!-- $\mathdefault{0}$ -->
      <g transform="translate(51.703189 134.02045) scale(0.11 -0.11)">
       <defs>
        <path id="TeXGyreTermesX-Bold-30" d="M 3046 2166 
C 3046 3440 2426 4403 1600 4403 
C 1184 4403 762 4123 499 3664 
C 294 3313 154 2714 154 2185 
C 154 873 755 -64 1606 -64 
C 2432 -64 3046 886 3046 2166 
z
M 2035 1434 
C 2035 1058 1984 561 1926 389 
C 1856 203 1754 114 1606 114 
C 1286 114 1165 491 1165 1434 
L 1165 2892 
C 1165 3855 1286 4224 1594 4224 
C 1907 4224 2035 3829 2035 2892 
L 2035 1434 
z
" transform="scale(0.015625)"/>
       </defs>
       <use xlink:href="#TeXGyreTermesX-Bold-30" transform="scale(0.996264)"/>
      </g>
     </g>
    </g>
    <g id="xtick_2">
     <g id="line2d_2">
      <g>
       <use xlink:href="#m8ea1c57963" x="107.704929" y="122.997179" style="stroke: #000000; stroke-width: 0.8"/>
      </g>
     </g>
     <g id="text_2">
      <!-- $\mathdefault{1000}$ -->
      <g transform="translate(96.795857 134.02045) scale(0.11 -0.11)">
       <defs>
        <path id="TeXGyreTermesX-Bold-31" d="M 2829 0 
L 2829 159 
C 2246 159 2138 255 2138 746 
L 2138 4384 
L 2029 4384 
L 416 3686 
L 416 3521 
C 474 3540 525 3559 544 3572 
C 717 3635 877 3680 960 3680 
C 1120 3680 1190 3540 1190 3241 
L 1190 790 
C 1190 267 1062 159 429 159 
L 429 0 
L 2829 0 
z
" transform="scale(0.015625)"/>
       </defs>
       <use xlink:href="#TeXGyreTermesX-Bold-31" transform="scale(0.996264)"/>
       <use xlink:href="#TeXGyreTermesX-Bold-30" transform="translate(49.8132 0) scale(0.996264)"/>
       <use xlink:href="#TeXGyreTermesX-Bold-30" transform="translate(99.626401 0) scale(0.996264)"/>
       <use xlink:href="#TeXGyreTermesX-Bold-30" transform="translate(149.439601 0) scale(0.996264)"/>
      </g>
     </g>
    </g>
    <g id="xtick_3">
     <g id="line2d_3">
      <g>
       <use xlink:href="#m8ea1c57963" x="160.979401" y="122.997179" style="stroke: #000000; stroke-width: 0.8"/>
      </g>
     </g>
     <g id="text_3">
      <!-- $\mathdefault{2000}$ -->
      <g transform="translate(150.070328 134.02045) scale(0.11 -0.11)">
       <defs>
        <path id="TeXGyreTermesX-Bold-32" d="M 3059 1341 
L 2906 1341 
C 2720 884 2643 846 1990 846 
L 1024 846 
L 2061 1824 
C 2566 2301 2790 2726 2790 3210 
C 2790 3889 2298 4373 1606 4373 
C 1286 4373 979 4245 755 4016 
C 506 3768 378 3552 198 3075 
L 378 3075 
C 576 3469 813 3648 1158 3648 
C 1440 3648 1651 3527 1792 3298 
C 1869 3164 1920 2987 1920 2841 
C 1920 2561 1798 2211 1594 1900 
C 1267 1405 1043 1137 109 146 
L 109 0 
L 2771 0 
L 3059 1341 
z
" transform="scale(0.015625)"/>
       </defs>
       <use xlink:href="#TeXGyreTermesX-Bold-32" transform="scale(0.996264)"/>
       <use xlink:href="#TeXGyreTermesX-Bold-30" transform="translate(49.8132 0) scale(0.996264)"/>
       <use xlink:href="#TeXGyreTermesX-Bold-30" transform="translate(99.626401 0) scale(0.996264)"/>
       <use xlink:href="#TeXGyreTermesX-Bold-30" transform="translate(149.439601 0) scale(0.996264)"/>
      </g>
     </g>
    </g>
    <g id="xtick_4">
     <g id="line2d_4">
      <defs>
       <path id="m1dd889c143" d="M 0 0 
L 0 -2 
" style="stroke: #000000; stroke-width: 0.6"/>
      </defs>
      <g>
       <use xlink:href="#m1dd889c143" x="65.085352" y="122.997179" style="stroke: #000000; stroke-width: 0.6"/>
      </g>
     </g>
    </g>
    <g id="xtick_5">
     <g id="line2d_5">
      <g>
       <use xlink:href="#m1dd889c143" x="75.740246" y="122.997179" style="stroke: #000000; stroke-width: 0.6"/>
      </g>
     </g>
    </g>
    <g id="xtick_6">
     <g id="line2d_6">
      <g>
       <use xlink:href="#m1dd889c143" x="86.395141" y="122.997179" style="stroke: #000000; stroke-width: 0.6"/>
      </g>
     </g>
    </g>
    <g id="xtick_7">
     <g id="line2d_7">
      <g>
       <use xlink:href="#m1dd889c143" x="97.050035" y="122.997179" style="stroke: #000000; stroke-width: 0.6"/>
      </g>
     </g>
    </g>
    <g id="xtick_8">
     <g id="line2d_8">
      <g>
       <use xlink:href="#m1dd889c143" x="118.359824" y="122.997179" style="stroke: #000000; stroke-width: 0.6"/>
      </g>
     </g>
    </g>
    <g id="xtick_9">
     <g id="line2d_9">
      <g>
       <use xlink:href="#m1dd889c143" x="129.014718" y="122.997179" style="stroke: #000000; stroke-width: 0.6"/>
      </g>
     </g>
    </g>
    <g id="xtick_10">
     <g id="line2d_10">
      <g>
       <use xlink:href="#m1dd889c143" x="139.669612" y="122.997179" style="stroke: #000000; stroke-width: 0.6"/>
      </g>
     </g>
    </g>
    <g id="xtick_11">
     <g id="line2d_11">
      <g>
       <use xlink:href="#m1dd889c143" x="150.324507" y="122.997179" style="stroke: #000000; stroke-width: 0.6"/>
      </g>
     </g>
    </g>
    <g id="xtick_12">
     <g id="line2d_12">
      <g>
       <use xlink:href="#m1dd889c143" x="171.634296" y="122.997179" style="stroke: #000000; stroke-width: 0.6"/>
      </g>
     </g>
    </g>
    <g id="text_4">
     <!-- $t$ \textbf{[hr]} -->
     <g transform="translate(99.839646 148.60574) scale(0.12 -0.12)">
      <defs>
       <path id="NewTXBMI-74" d="M 1440 837 
L 1299 926 
C 1082 588 915 415 813 415 
C 762 415 710 460 710 511 
C 710 632 826 1073 1056 1864 
L 1267 2624 
L 1798 2624 
L 1798 2893 
L 1338 2893 
L 1587 3808 
L 1363 3808 
C 1018 3303 698 3037 192 2848 
L 192 2624 
L 518 2624 
L 83 1105 
C -13 773 -70 499 -70 383 
C -70 135 109 -32 378 -32 
C 762 -32 1018 180 1440 837 
z
" transform="scale(0.015625)"/>
       <path id="TeXGyreTermesX-Bold-5b" d="M 1926 -960 
L 1926 -750 
L 1414 -750 
C 1152 -750 1094 -686 1094 -413 
L 1094 3650 
C 1094 4020 1165 4096 1523 4096 
L 1926 4096 
L 1926 4306 
L 429 4306 
L 429 -960 
L 1926 -960 
z
" transform="scale(0.015625)"/>
       <path id="TeXGyreTermesX-Bold-68" d="M 3418 -32 
L 3418 121 
C 3187 140 3104 235 3104 503 
L 3104 2086 
C 3104 2635 2765 2986 2240 2986 
C 1901 2986 1664 2859 1331 2490 
L 1331 4288 
L 102 4288 
L 102 4134 
C 397 4076 442 4024 442 3763 
L 442 504 
C 442 236 390 178 102 121 
L 102 -32 
L 1645 -32 
L 1645 121 
C 1408 152 1331 249 1331 485 
L 1331 2190 
C 1331 2216 1376 2279 1440 2336 
C 1581 2484 1734 2560 1882 2560 
C 2106 2560 2214 2387 2214 2030 
L 2214 484 
C 2214 249 2131 146 1914 121 
L 1914 -32 
L 3418 -32 
z
" transform="scale(0.015625)"/>
       <path id="TeXGyreTermesX-Bold-72" d="M 2778 2512 
C 2778 2798 2560 3008 2259 3008 
C 1939 3008 1696 2836 1395 2410 
L 1395 2932 
L 186 2932 
L 186 2779 
C 461 2741 531 2658 531 2404 
L 531 533 
C 531 272 467 203 186 152 
L 186 0 
L 1888 0 
L 1888 165 
C 1498 165 1421 248 1421 645 
L 1421 1854 
C 1421 2186 1600 2461 1811 2461 
C 1862 2461 1920 2417 1990 2315 
C 2112 2143 2208 2086 2374 2086 
C 2611 2086 2778 2264 2778 2512 
z
" transform="scale(0.015625)"/>
       <path id="TeXGyreTermesX-Bold-5d" d="M 1702 -960 
L 1702 4306 
L 205 4306 
L 205 4096 
L 608 4096 
C 966 4096 1037 4020 1037 3650 
L 1037 -413 
C 1037 -693 986 -750 717 -750 
L 205 -750 
L 205 -960 
L 1702 -960 
z
" transform="scale(0.015625)"/>
      </defs>
      <use xlink:href="#NewTXBMI-74" transform="scale(0.996264)"/>
      <use xlink:href="#TeXGyreTermesX-Bold-5b" transform="translate(56.886681 0) scale(0.996264)"/>
      <use xlink:href="#TeXGyreTermesX-Bold-68" transform="translate(90.062291 0) scale(0.996264)"/>
      <use xlink:href="#TeXGyreTermesX-Bold-72" transform="translate(145.454545 0) scale(0.996264)"/>
      <use xlink:href="#TeXGyreTermesX-Bold-5d" transform="translate(189.688692 0) scale(0.996264)"/>
     </g>
    </g>
   </g>
   <g id="matplotlib.axis_2">
    <g id="ytick_1">
     <g id="line2d_13">
      <defs>
       <path id="m67f86e4863" d="M 0 0 
L 3.5 0 
" style="stroke: #000000; stroke-width: 0.8"/>
      </defs>
      <g>
       <use xlink:href="#m67f86e4863" x="48.552353" y="114.686277" style="stroke: #000000; stroke-width: 0.8"/>
      </g>
     </g>
     <g id="text_5">
      <!-- $\mathdefault{0.0}$ -->
      <g transform="translate(31.056011 118.447912) scale(0.11 -0.11)">
       <defs>
        <path id="NewTXBMI-93" d="M 1344 473 
C 1344 768 1101 1017 800 1017 
C 493 1017 262 761 262 473 
C 262 173 493 -64 800 -64 
C 1101 -64 1344 166 1344 473 
z
" transform="scale(0.015625)"/>
       </defs>
       <use xlink:href="#TeXGyreTermesX-Bold-30" transform="scale(0.996264)"/>
       <use xlink:href="#NewTXBMI-93" transform="translate(51.407199 0) scale(0.996264)"/>
       <use xlink:href="#TeXGyreTermesX-Bold-30" transform="translate(78.00746 0) scale(0.996264)"/>
      </g>
     </g>
    </g>
    <g id="ytick_2">
     <g id="line2d_14">
      <g>
       <use xlink:href="#m67f86e4863" x="48.552353" y="73.131766" style="stroke: #000000; stroke-width: 0.8"/>
      </g>
     </g>
     <g id="text_6">
      <!-- $\mathdefault{0.5}$ -->
      <g transform="translate(31.056011 76.893402) scale(0.11 -0.11)">
       <defs>
        <path id="TeXGyreTermesX-Bold-35" d="M 3008 4288 
L 947 4288 
L 326 2093 
C 934 2049 1197 2010 1478 1921 
C 2048 1743 2387 1381 2387 960 
C 2387 604 2106 324 1747 324 
C 1600 324 1427 400 1171 591 
C 896 795 704 877 538 877 
C 307 877 141 718 141 496 
C 141 159 512 -64 1082 -64 
C 2138 -64 2886 575 2886 1476 
C 2886 2140 2477 2652 1779 2850 
C 1536 2920 1338 2946 813 2946 
L 954 3481 
L 2733 3481 
L 3008 4288 
z
" transform="scale(0.015625)"/>
       </defs>
       <use xlink:href="#TeXGyreTermesX-Bold-30" transform="scale(0.996264)"/>
       <use xlink:href="#NewTXBMI-93" transform="translate(51.407199 0) scale(0.996264)"/>
       <use xlink:href="#TeXGyreTermesX-Bold-35" transform="translate(78.00746 0) scale(0.996264)"/>
      </g>
     </g>
    </g>
    <g id="ytick_3">
     <g id="line2d_15">
      <g>
       <use xlink:href="#m67f86e4863" x="48.552353" y="31.577255" style="stroke: #000000; stroke-width: 0.8"/>
      </g>
     </g>
     <g id="text_7">
      <!-- $\mathdefault{1.0}$ -->
      <g transform="translate(31.056011 35.338891) scale(0.11 -0.11)">
       <use xlink:href="#TeXGyreTermesX-Bold-31" transform="scale(0.996264)"/>
       <use xlink:href="#NewTXBMI-93" transform="translate(51.407199 0) scale(0.996264)"/>
       <use xlink:href="#TeXGyreTermesX-Bold-30" transform="translate(78.00746 0) scale(0.996264)"/>
      </g>
     </g>
    </g>
    <g id="ytick_4">
     <g id="line2d_16">
      <defs>
       <path id="m6c1bcc1cb8" d="M 0 0 
L 2 0 
" style="stroke: #000000; stroke-width: 0.6"/>
      </defs>
      <g>
       <use xlink:href="#m6c1bcc1cb8" x="48.552353" y="122.997179" style="stroke: #000000; stroke-width: 0.6"/>
      </g>
     </g>
    </g>
    <g id="ytick_5">
     <g id="line2d_17">
      <g>
       <use xlink:href="#m6c1bcc1cb8" x="48.552353" y="106.375375" style="stroke: #000000; stroke-width: 0.6"/>
      </g>
     </g>
    </g>
    <g id="ytick_6">
     <g id="line2d_18">
      <g>
       <use xlink:href="#m6c1bcc1cb8" x="48.552353" y="98.064473" style="stroke: #000000; stroke-width: 0.6"/>
      </g>
     </g>
    </g>
    <g id="ytick_7">
     <g id="line2d_19">
      <g>
       <use xlink:href="#m6c1bcc1cb8" x="48.552353" y="89.75357" style="stroke: #000000; stroke-width: 0.6"/>
      </g>
     </g>
    </g>
    <g id="ytick_8">
     <g id="line2d_20">
      <g>
       <use xlink:href="#m6c1bcc1cb8" x="48.552353" y="81.442668" style="stroke: #000000; stroke-width: 0.6"/>
      </g>
     </g>
    </g>
    <g id="ytick_9">
     <g id="line2d_21">
      <g>
       <use xlink:href="#m6c1bcc1cb8" x="48.552353" y="64.820864" style="stroke: #000000; stroke-width: 0.6"/>
      </g>
     </g>
    </g>
    <g id="ytick_10">
     <g id="line2d_22">
      <g>
       <use xlink:href="#m6c1bcc1cb8" x="48.552353" y="56.509962" style="stroke: #000000; stroke-width: 0.6"/>
      </g>
     </g>
    </g>
    <g id="ytick_11">
     <g id="line2d_23">
      <g>
       <use xlink:href="#m6c1bcc1cb8" x="48.552353" y="48.19906" style="stroke: #000000; stroke-width: 0.6"/>
      </g>
     </g>
    </g>
    <g id="ytick_12">
     <g id="line2d_24">
      <g>
       <use xlink:href="#m6c1bcc1cb8" x="48.552353" y="39.888158" style="stroke: #000000; stroke-width: 0.6"/>
      </g>
     </g>
    </g>
    <g id="ytick_13">
     <g id="line2d_25">
      <g>
       <use xlink:href="#m6c1bcc1cb8" x="48.552353" y="23.266353" style="stroke: #000000; stroke-width: 0.6"/>
      </g>
     </g>
    </g>
    <g id="ytick_14">
     <g id="line2d_26">
      <g>
       <use xlink:href="#m6c1bcc1cb8" x="48.552353" y="14.955451" style="stroke: #000000; stroke-width: 0.6"/>
      </g>
     </g>
    </g>
    <g id="text_8">
     <!-- $X$ -->
     <g transform="translate(24.461751 70.885637) rotate(-90) scale(0.12 -0.12)">
      <defs>
       <path id="NewTXBMI-5e" d="M 3750 0 
L 3750 160 
C 3290 211 3194 301 3008 903 
L 2534 2423 
L 3808 3737 
C 4090 4019 4211 4096 4442 4128 
L 4442 4288 
L 3142 4288 
L 3142 4128 
L 3283 4115 
C 3430 4102 3494 4057 3494 3961 
C 3494 3846 3379 3685 3046 3333 
L 2445 2698 
C 2381 2910 2362 2986 2336 3050 
C 2189 3506 2118 3782 2118 3878 
C 2118 4025 2189 4083 2400 4108 
L 2592 4128 
L 2592 4288 
L 640 4288 
L 640 4128 
C 1024 4089 1120 4019 1222 3723 
L 1760 1981 
L 1325 1506 
C 314 390 122 211 -154 160 
L -154 0 
L 1216 0 
L 1216 160 
C 928 186 800 269 800 416 
C 800 499 845 583 992 743 
L 1850 1692 
L 1971 1308 
C 2144 814 2214 545 2214 403 
C 2214 237 2125 192 1779 160 
L 1779 0 
L 3750 0 
z
" transform="scale(0.015625)"/>
      </defs>
      <use xlink:href="#NewTXBMI-5e" transform="scale(0.996264)"/>
     </g>
    </g>
   </g>
   <g id="LineCollection_1">
    <path d="M 54.563146 120.131659 
L 54.563146 109.240895 
" clip-path="url(#pd977562318)" style="fill: none; stroke: #000000"/>
    <path d="M 58.278427 117.007259 
L 58.278427 112.365295 
" clip-path="url(#pd977562318)" style="fill: none; stroke: #000000"/>
    <path d="M 60.268756 117.007259 
L 60.268756 112.365295 
" clip-path="url(#pd977562318)" style="fill: none; stroke: #000000"/>
    <path d="M 62.126396 116.025305 
L 62.126396 113.347249 
" clip-path="url(#pd977562318)" style="fill: none; stroke: #000000"/>
    <path d="M 70.220401 116.203842 
L 70.220401 113.168712 
" clip-path="url(#pd977562318)" style="fill: none; stroke: #000000"/>
    <path d="M 71.281909 116.382379 
L 71.281909 112.990174 
" clip-path="url(#pd977562318)" style="fill: none; stroke: #000000"/>
    <path d="M 74.731813 117.275065 
L 74.731813 112.097489 
" clip-path="url(#pd977562318)" style="fill: none; stroke: #000000"/>
    <path d="M 78.181716 117.364333 
L 78.181716 112.00822 
" clip-path="url(#pd977562318)" style="fill: none; stroke: #000000"/>
    <path d="M 82.825817 117.632139 
L 82.825817 111.740415 
" clip-path="url(#pd977562318)" style="fill: none; stroke: #000000"/>
    <path d="M 94.369725 117.810676 
L 94.369725 111.561878 
" clip-path="url(#pd977562318)" style="fill: none; stroke: #000000"/>
    <path d="M 104.852124 105.937959 
L 104.852124 100.224772 
" clip-path="url(#pd977562318)" style="fill: none; stroke: #000000"/>
    <path d="M 119.182493 88.530591 
L 119.182493 81.032033 
" clip-path="url(#pd977562318)" style="fill: none; stroke: #000000"/>
    <path d="M 127.807252 80.407153 
L 127.807252 75.229577 
" clip-path="url(#pd977562318)" style="fill: none; stroke: #000000"/>
    <path d="M 138.687717 67.01687 
L 138.687717 60.946609 
" clip-path="url(#pd977562318)" style="fill: none; stroke: #000000"/>
    <path d="M 155.804546 53.090976 
L 155.804546 49.341697 
" clip-path="url(#pd977562318)" style="fill: none; stroke: #000000"/>
    <path d="M 171.992555 46.395835 
L 171.992555 42.646556 
" clip-path="url(#pd977562318)" style="fill: none; stroke: #000000"/>
   </g>
   <g id="line2d_27">
    <defs>
     <path id="m28d82ee0dc" d="M 3 0 
L -3 -0 
" style="stroke: #000000"/>
    </defs>
    <g clip-path="url(#pd977562318)">
     <use xlink:href="#m28d82ee0dc" x="54.563146" y="120.131659" style="stroke: #000000"/>
     <use xlink:href="#m28d82ee0dc" x="58.278427" y="117.007259" style="stroke: #000000"/>
     <use xlink:href="#m28d82ee0dc" x="60.268756" y="117.007259" style="stroke: #000000"/>
     <use xlink:href="#m28d82ee0dc" x="62.126396" y="116.025305" style="stroke: #000000"/>
     <use xlink:href="#m28d82ee0dc" x="70.220401" y="116.203842" style="stroke: #000000"/>
     <use xlink:href="#m28d82ee0dc" x="71.281909" y="116.382379" style="stroke: #000000"/>
     <use xlink:href="#m28d82ee0dc" x="74.731813" y="117.275065" style="stroke: #000000"/>
     <use xlink:href="#m28d82ee0dc" x="78.181716" y="117.364333" style="stroke: #000000"/>
     <use xlink:href="#m28d82ee0dc" x="82.825817" y="117.632139" style="stroke: #000000"/>
     <use xlink:href="#m28d82ee0dc" x="94.369725" y="117.810676" style="stroke: #000000"/>
     <use xlink:href="#m28d82ee0dc" x="104.852124" y="105.937959" style="stroke: #000000"/>
     <use xlink:href="#m28d82ee0dc" x="119.182493" y="88.530591" style="stroke: #000000"/>
     <use xlink:href="#m28d82ee0dc" x="127.807252" y="80.407153" style="stroke: #000000"/>
     <use xlink:href="#m28d82ee0dc" x="138.687717" y="67.01687" style="stroke: #000000"/>
     <use xlink:href="#m28d82ee0dc" x="155.804546" y="53.090976" style="stroke: #000000"/>
     <use xlink:href="#m28d82ee0dc" x="171.992555" y="46.395835" style="stroke: #000000"/>
    </g>
   </g>
   <g id="line2d_28">
    <g clip-path="url(#pd977562318)">
     <use xlink:href="#m28d82ee0dc" x="54.563146" y="109.240895" style="stroke: #000000"/>
     <use xlink:href="#m28d82ee0dc" x="58.278427" y="112.365295" style="stroke: #000000"/>
     <use xlink:href="#m28d82ee0dc" x="60.268756" y="112.365295" style="stroke: #000000"/>
     <use xlink:href="#m28d82ee0dc" x="62.126396" y="113.347249" style="stroke: #000000"/>
     <use xlink:href="#m28d82ee0dc" x="70.220401" y="113.168712" style="stroke: #000000"/>
     <use xlink:href="#m28d82ee0dc" x="71.281909" y="112.990174" style="stroke: #000000"/>
     <use xlink:href="#m28d82ee0dc" x="74.731813" y="112.097489" style="stroke: #000000"/>
     <use xlink:href="#m28d82ee0dc" x="78.181716" y="112.00822" style="stroke: #000000"/>
     <use xlink:href="#m28d82ee0dc" x="82.825817" y="111.740415" style="stroke: #000000"/>
     <use xlink:href="#m28d82ee0dc" x="94.369725" y="111.561878" style="stroke: #000000"/>
     <use xlink:href="#m28d82ee0dc" x="104.852124" y="100.224772" style="stroke: #000000"/>
     <use xlink:href="#m28d82ee0dc" x="119.182493" y="81.032033" style="stroke: #000000"/>
     <use xlink:href="#m28d82ee0dc" x="127.807252" y="75.229577" style="stroke: #000000"/>
     <use xlink:href="#m28d82ee0dc" x="138.687717" y="60.946609" style="stroke: #000000"/>
     <use xlink:href="#m28d82ee0dc" x="155.804546" y="49.341697" style="stroke: #000000"/>
     <use xlink:href="#m28d82ee0dc" x="171.992555" y="42.646556" style="stroke: #000000"/>
    </g>
   </g>
   <g id="LineCollection_2">
    <path d="M 54.430457 120.635225 
L 54.430457 108.737328 
" clip-path="url(#pd977562318)" style="fill: none; stroke: #000000"/>
    <path d="M 58.333122 116.173307 
L 58.333122 113.024096 
" clip-path="url(#pd977562318)" style="fill: none; stroke: #000000"/>
    <path d="M 62.142866 116.260974 
L 62.142866 113.11158 
" clip-path="url(#pd977562318)" style="fill: none; stroke: #000000"/>
    <path d="M 67.067658 117.223473 
L 67.067658 112.14908 
" clip-path="url(#pd977562318)" style="fill: none; stroke: #000000"/>
    <path d="M 72.457052 118.01073 
L 72.457052 111.361824 
" clip-path="url(#pd977562318)" style="fill: none; stroke: #000000"/>
    <path d="M 78.682732 90.482474 
L 78.682732 83.367298 
" clip-path="url(#pd977562318)" style="fill: none; stroke: #000000"/>
    <path d="M 83.14292 78.124299 
L 83.14292 73.831632 
" clip-path="url(#pd977562318)" style="fill: none; stroke: #000000"/>
    <path d="M 88.996917 68.743687 
L 88.996917 64.295965 
" clip-path="url(#pd977562318)" style="fill: none; stroke: #000000"/>
    <path d="M 96.616406 56.8209 
L 96.616406 52.398252 
" clip-path="url(#pd977562318)" style="fill: none; stroke: #000000"/>
    <path d="M 103.027926 47.616914 
L 103.027926 44.262317 
" clip-path="url(#pd977562318)" style="fill: none; stroke: #000000"/>
    <path d="M 124.678424 35.255605 
L 124.678424 31.752222 
" clip-path="url(#pd977562318)" style="fill: none; stroke: #000000"/>
    <path d="M 136.66518 33.151953 
L 136.66518 30.177709 
" clip-path="url(#pd977562318)" style="fill: none; stroke: #000000"/>
   </g>
   <g id="line2d_29">
    <g clip-path="url(#pd977562318)">
     <use xlink:href="#m28d82ee0dc" x="54.430457" y="120.635225" style="stroke: #000000"/>
     <use xlink:href="#m28d82ee0dc" x="58.333122" y="116.173307" style="stroke: #000000"/>
     <use xlink:href="#m28d82ee0dc" x="62.142866" y="116.260974" style="stroke: #000000"/>
     <use xlink:href="#m28d82ee0dc" x="67.067658" y="117.223473" style="stroke: #000000"/>
     <use xlink:href="#m28d82ee0dc" x="72.457052" y="118.01073" style="stroke: #000000"/>
     <use xlink:href="#m28d82ee0dc" x="78.682732" y="90.482474" style="stroke: #000000"/>
     <use xlink:href="#m28d82ee0dc" x="83.14292" y="78.124299" style="stroke: #000000"/>
     <use xlink:href="#m28d82ee0dc" x="88.996917" y="68.743687" style="stroke: #000000"/>
     <use xlink:href="#m28d82ee0dc" x="96.616406" y="56.8209" style="stroke: #000000"/>
     <use xlink:href="#m28d82ee0dc" x="103.027926" y="47.616914" style="stroke: #000000"/>
     <use xlink:href="#m28d82ee0dc" x="124.678424" y="35.255605" style="stroke: #000000"/>
     <use xlink:href="#m28d82ee0dc" x="136.66518" y="33.151953" style="stroke: #000000"/>
    </g>
   </g>
   <g id="line2d_30">
    <g clip-path="url(#pd977562318)">
     <use xlink:href="#m28d82ee0dc" x="54.430457" y="108.737328" style="stroke: #000000"/>
     <use xlink:href="#m28d82ee0dc" x="58.333122" y="113.024096" style="stroke: #000000"/>
     <use xlink:href="#m28d82ee0dc" x="62.142866" y="113.11158" style="stroke: #000000"/>
     <use xlink:href="#m28d82ee0dc" x="67.067658" y="112.14908" style="stroke: #000000"/>
     <use xlink:href="#m28d82ee0dc" x="72.457052" y="111.361824" style="stroke: #000000"/>
     <use xlink:href="#m28d82ee0dc" x="78.682732" y="83.367298" style="stroke: #000000"/>
     <use xlink:href="#m28d82ee0dc" x="83.14292" y="73.831632" style="stroke: #000000"/>
     <use xlink:href="#m28d82ee0dc" x="88.996917" y="64.295965" style="stroke: #000000"/>
     <use xlink:href="#m28d82ee0dc" x="96.616406" y="52.398252" style="stroke: #000000"/>
     <use xlink:href="#m28d82ee0dc" x="103.027926" y="44.262317" style="stroke: #000000"/>
     <use xlink:href="#m28d82ee0dc" x="124.678424" y="31.752222" style="stroke: #000000"/>
     <use xlink:href="#m28d82ee0dc" x="136.66518" y="30.177709" style="stroke: #000000"/>
    </g>
   </g>
   <g id="patch_3">
    <path d="M 48.552353 122.997179 
L 48.552353 10.8 
" style="fill: none; stroke: #000000; stroke-width: 0.8; stroke-linejoin: miter; stroke-linecap: square"/>
   </g>
   <g id="patch_4">
    <path d="M 177.87066 122.997179 
L 177.87066 10.8 
" style="fill: none; stroke: #000000; stroke-width: 0.8; stroke-linejoin: miter; stroke-linecap: square"/>
   </g>
   <g id="patch_5">
    <path d="M 48.552353 122.997179 
L 177.87066 122.997179 
" style="fill: none; stroke: #000000; stroke-width: 0.8; stroke-linejoin: miter; stroke-linecap: square"/>
   </g>
   <g id="patch_6">
    <path d="M 48.552353 10.8 
L 177.87066 10.8 
" style="fill: none; stroke: #000000; stroke-width: 0.8; stroke-linejoin: miter; stroke-linecap: square"/>
   </g>
   <g id="legend_1">
    <g id="patch_7">
     <path d="M 56.952353 37.39426 
L 272.831693 37.39426 
Q 275.231693 37.39426 275.231693 34.99426 
L 275.231693 19.2 
Q 275.231693 16.8 272.831693 16.8 
L 56.952353 16.8 
Q 54.552353 16.8 54.552353 19.2 
L 54.552353 34.99426 
Q 54.552353 37.39426 56.952353 37.39426 
z
" style="fill: #ffffff; opacity: 0.8; stroke: #cccccc; stroke-linejoin: miter"/>
    </g>
    <g id="PathCollection_1">
     <defs>
      <path id="mdac52c9ef2" d="M -1.35299 -3.266407 
L -3.266407 -1.35299 
L -3.266407 1.35299 
L -1.35299 3.266407 
L 1.35299 3.266407 
L 3.266407 1.35299 
L 3.266407 -1.35299 
L 1.35299 -3.266407 
z
" style="stroke: #000000; stroke-width: 0.75"/>
     </defs>
     <g>
      <use xlink:href="#mdac52c9ef2" x="71.352353" y="26.85" style="fill: #d95f02; stroke: #000000; stroke-width: 0.75"/>
     </g>
    </g>
    <g id="text_9">
     <!-- \textbf{$T = 1150$ [$^\circ C $]} -->
     <g transform="translate(92.952353 30) scale(0.12 -0.12)">
      <defs>
       <path id="NewTXBMI-5a" d="M 3930 3057 
L 4160 4288 
L 634 4288 
L 390 3192 
L 550 3147 
C 883 3792 1286 4057 1939 4057 
L 992 621 
C 902 288 736 160 410 160 
L 320 160 
L 320 0 
L 2438 0 
L 2438 160 
C 1984 160 1907 199 1907 404 
C 1907 501 1933 629 1978 803 
L 2874 4057 
C 3475 4057 3725 3781 3757 3070 
L 3930 3057 
z
" transform="scale(0.015625)"/>
       <path id="txbmiaX-3d" d="M 3930 2137 
L 3930 2752 
L 397 2752 
L 397 2137 
L 3930 2137 
z
M 3930 576 
L 3930 1190 
L 397 1190 
L 397 576 
L 3930 576 
z
" transform="scale(0.015625)"/>
       <path id="txbsys-e" d="M 2955 1640 
C 2955 2347 2386 2915 1676 2915 
C 960 2915 397 2347 397 1640 
C 397 926 960 365 1676 365 
C 2386 365 2955 926 2955 1640 
z
M 2482 1640 
C 2482 1188 2117 838 1676 838 
C 1222 838 870 1188 870 1640 
C 870 2078 1222 2441 1676 2441 
C 2117 2441 2482 2078 2482 1640 
z
" transform="scale(0.015625)"/>
       <path id="NewTXBMI-49" d="M 3686 828 
L 3494 969 
C 3174 590 2995 442 2726 326 
C 2547 249 2349 211 2150 211 
C 1549 211 1190 628 1190 1329 
C 1190 2253 1638 3344 2214 3852 
C 2451 4051 2714 4160 2982 4160 
C 3501 4160 3821 3775 3821 3146 
C 3821 3062 3814 3004 3802 2921 
L 4006 2882 
L 4333 4384 
L 4141 4384 
C 4051 4243 3994 4198 3898 4198 
C 3846 4198 3750 4218 3654 4250 
C 3366 4339 3078 4384 2816 4384 
C 1389 4384 205 3094 205 1534 
C 205 539 902 -128 1946 -128 
C 2400 -128 2822 13 3187 289 
C 3373 431 3482 546 3686 828 
z
" transform="scale(0.015625)"/>
      </defs>
      <use xlink:href="#NewTXBMI-5a" transform="scale(0.996264)"/>
      <use xlink:href="#txbmiaX-3d" transform="translate(94.32405 0) scale(0.996264)"/>
      <use xlink:href="#TeXGyreTermesX-Bold-31" transform="translate(189.34539 0) scale(0.996264)"/>
      <use xlink:href="#TeXGyreTermesX-Bold-31" transform="translate(239.15859 0) scale(0.996264)"/>
      <use xlink:href="#TeXGyreTermesX-Bold-35" transform="translate(288.971791 0) scale(0.996264)"/>
      <use xlink:href="#TeXGyreTermesX-Bold-30" transform="translate(338.784991 0) scale(0.996264)"/>
      <use xlink:href="#TeXGyreTermesX-Bold-5b" transform="translate(413.504792 0) scale(0.996264)"/>
      <use xlink:href="#txbsys-e" transform="translate(446.680402 36.164371) scale(0.727268)"/>
      <use xlink:href="#NewTXBMI-49" transform="translate(485.68588 0) scale(0.996264)"/>
      <use xlink:href="#TeXGyreTermesX-Bold-5d" transform="translate(557.167792 0) scale(0.996264)"/>
     </g>
    </g>
    <g id="PathCollection_2">
     <defs>
      <path id="mdf8f9d9e17" d="M -1.35299 -3.266407 
L -3.266407 -1.35299 
L -3.266407 1.35299 
L -1.35299 3.266407 
L 1.35299 3.266407 
L 3.266407 1.35299 
L 3.266407 -1.35299 
L 1.35299 -3.266407 
z
" style="stroke: #000000; stroke-width: 0.75"/>
     </defs>
     <g>
      <use xlink:href="#mdf8f9d9e17" x="200.252695" y="26.85" style="fill: #7570b3; stroke: #000000; stroke-width: 0.75"/>
     </g>
    </g>
    <g id="text_10">
     <!-- \textbf{$1175$ [$^\circ C $]} -->
     <g transform="translate(221.852695 30) scale(0.12 -0.12)">
      <defs>
       <path id="TeXGyreTermesX-Bold-37" d="M 3053 4327 
L 390 4327 
L 109 2916 
L 269 2916 
C 390 3322 544 3456 896 3456 
L 2221 3456 
L 941 32 
L 1549 32 
L 3053 4327 
z
" transform="scale(0.015625)"/>
      </defs>
      <use xlink:href="#TeXGyreTermesX-Bold-31" transform="scale(0.996264)"/>
      <use xlink:href="#TeXGyreTermesX-Bold-31" transform="translate(49.8132 0) scale(0.996264)"/>
      <use xlink:href="#TeXGyreTermesX-Bold-37" transform="translate(99.626401 0) scale(0.996264)"/>
      <use xlink:href="#TeXGyreTermesX-Bold-35" transform="translate(149.439601 0) scale(0.996264)"/>
      <use xlink:href="#TeXGyreTermesX-Bold-5b" transform="translate(224.159402 0) scale(0.996264)"/>
      <use xlink:href="#txbsys-e" transform="translate(257.335012 36.164371) scale(0.727268)"/>
      <use xlink:href="#NewTXBMI-49" transform="translate(296.34049 0) scale(0.996264)"/>
      <use xlink:href="#TeXGyreTermesX-Bold-5d" transform="translate(367.822402 0) scale(0.996264)"/>
     </g>
    </g>
   </g>
   <g id="PathCollection_3">
    <g clip-path="url(#pd977562318)">
     <use xlink:href="#mdac52c9ef2" x="54.563146" y="114.686277" style="fill: #d95f02; stroke: #000000; stroke-width: 0.75"/>
     <use xlink:href="#mdac52c9ef2" x="58.278427" y="114.686277" style="fill: #d95f02; stroke: #000000; stroke-width: 0.75"/>
     <use xlink:href="#mdac52c9ef2" x="60.268756" y="114.686277" style="fill: #d95f02; stroke: #000000; stroke-width: 0.75"/>
     <use xlink:href="#mdac52c9ef2" x="62.126396" y="114.686277" style="fill: #d95f02; stroke: #000000; stroke-width: 0.75"/>
     <use xlink:href="#mdac52c9ef2" x="70.220401" y="114.686277" style="fill: #d95f02; stroke: #000000; stroke-width: 0.75"/>
     <use xlink:href="#mdac52c9ef2" x="71.281909" y="114.686277" style="fill: #d95f02; stroke: #000000; stroke-width: 0.75"/>
     <use xlink:href="#mdac52c9ef2" x="74.731813" y="114.686277" style="fill: #d95f02; stroke: #000000; stroke-width: 0.75"/>
     <use xlink:href="#mdac52c9ef2" x="78.181716" y="114.686277" style="fill: #d95f02; stroke: #000000; stroke-width: 0.75"/>
     <use xlink:href="#mdac52c9ef2" x="82.825817" y="114.686277" style="fill: #d95f02; stroke: #000000; stroke-width: 0.75"/>
     <use xlink:href="#mdac52c9ef2" x="94.369725" y="114.686277" style="fill: #d95f02; stroke: #000000; stroke-width: 0.75"/>
     <use xlink:href="#mdac52c9ef2" x="104.852124" y="103.081365" style="fill: #d95f02; stroke: #000000; stroke-width: 0.75"/>
     <use xlink:href="#mdac52c9ef2" x="119.182493" y="84.781312" style="fill: #d95f02; stroke: #000000; stroke-width: 0.75"/>
     <use xlink:href="#mdac52c9ef2" x="127.807252" y="77.818365" style="fill: #d95f02; stroke: #000000; stroke-width: 0.75"/>
     <use xlink:href="#mdac52c9ef2" x="138.687717" y="63.98174" style="fill: #d95f02; stroke: #000000; stroke-width: 0.75"/>
     <use xlink:href="#mdac52c9ef2" x="155.804546" y="51.216337" style="fill: #d95f02; stroke: #000000; stroke-width: 0.75"/>
     <use xlink:href="#mdac52c9ef2" x="171.992555" y="44.521195" style="fill: #d95f02; stroke: #000000; stroke-width: 0.75"/>
    </g>
   </g>
   <g id="PathCollection_4">
    <g clip-path="url(#pd977562318)">
     <use xlink:href="#mdf8f9d9e17" x="54.430457" y="114.686277" style="fill: #7570b3; stroke: #000000; stroke-width: 0.75"/>
     <use xlink:href="#mdf8f9d9e17" x="58.333122" y="114.598702" style="fill: #7570b3; stroke: #000000; stroke-width: 0.75"/>
     <use xlink:href="#mdf8f9d9e17" x="62.142866" y="114.686277" style="fill: #7570b3; stroke: #000000; stroke-width: 0.75"/>
     <use xlink:href="#mdf8f9d9e17" x="67.067658" y="114.686277" style="fill: #7570b3; stroke: #000000; stroke-width: 0.75"/>
     <use xlink:href="#mdf8f9d9e17" x="72.457052" y="114.686277" style="fill: #7570b3; stroke: #000000; stroke-width: 0.75"/>
     <use xlink:href="#mdf8f9d9e17" x="78.682732" y="86.924886" style="fill: #7570b3; stroke: #000000; stroke-width: 0.75"/>
     <use xlink:href="#mdf8f9d9e17" x="83.14292" y="75.977965" style="fill: #7570b3; stroke: #000000; stroke-width: 0.75"/>
     <use xlink:href="#mdf8f9d9e17" x="88.996917" y="66.519826" style="fill: #7570b3; stroke: #000000; stroke-width: 0.75"/>
     <use xlink:href="#mdf8f9d9e17" x="96.616406" y="54.609576" style="fill: #7570b3; stroke: #000000; stroke-width: 0.75"/>
     <use xlink:href="#mdf8f9d9e17" x="103.027926" y="45.939615" style="fill: #7570b3; stroke: #000000; stroke-width: 0.75"/>
     <use xlink:href="#mdf8f9d9e17" x="124.678424" y="33.503913" style="fill: #7570b3; stroke: #000000; stroke-width: 0.75"/>
     <use xlink:href="#mdf8f9d9e17" x="136.66518" y="31.664831" style="fill: #7570b3; stroke: #000000; stroke-width: 0.75"/>
    </g>
   </g>
  </g>
 </g>
 <defs>
  <clipPath id="pd977562318">
   <rect x="48.552353" y="10.8" width="129.318307" height="112.197179"/>
  </clipPath>
 </defs>
</svg>
