<?xml version="1.0" encoding="utf-8" standalone="no"?>
<!DOCTYPE svg PUBLIC "-//W3C//DTD SVG 1.1//EN"
  "http://www.w3.org/Graphics/SVG/1.1/DTD/svg11.dtd">
<svg xmlns:xlink="http://www.w3.org/1999/xlink" width="460.8pt" height="280.8pt" viewBox="0 0 460.8 280.8" xmlns="http://www.w3.org/2000/svg" version="1.1">
 <metadata>
  <rdf:RDF xmlns:dc="http://purl.org/dc/elements/1.1/" xmlns:cc="http://creativecommons.org/ns#" xmlns:rdf="http://www.w3.org/1999/02/22-rdf-syntax-ns#">
   <cc:Work>
    <dc:type rdf:resource="http://purl.org/dc/dcmitype/StillImage"/>
    <dc:date>2025-01-20T17:11:58.884279</dc:date>
    <dc:format>image/svg+xml</dc:format>
    <dc:creator>
     <cc:Agent>
      <dc:title>Matplotlib v3.9.0, https://matplotlib.org/</dc:title>
     </cc:Agent>
    </dc:creator>
   </cc:Work>
  </rdf:RDF>
 </metadata>
 <defs>
  <style type="text/css">*{stroke-linejoin: round; stroke-linecap: butt}</style>
 </defs>
 <g id="figure_1">
  <g id="patch_1">
   <path d="M 0 280.8 
L 460.8 280.8 
L 460.8 0 
L 0 0 
z
" style="fill: #ffffff"/>
  </g>
  <g id="axes_1">
   <g id="patch_2">
    <path d="M 47.45829 245.110261 
L 453.6 245.110261 
L 453.6 7.2 
L 47.45829 7.2 
z
" style="fill: #ffffff"/>
   </g>
   <g id="matplotlib.axis_1">
    <g id="xtick_1">
     <g id="line2d_1">
      <defs>
       <path id="m91f2d28e9b" d="M 0 0 
L 0 -3.5 
" style="stroke: #000000; stroke-width: 0.8"/>
      </defs>
      <g>
       <use xlink:href="#m91f2d28e9b" x="84.835945" y="245.110261" style="stroke: #000000; stroke-width: 0.8"/>
      </g>
     </g>
     <g id="text_1">
      <!-- $\mathdefault{15}$ -->
      <g transform="translate(79.381409 256.133531) scale(0.11 -0.11)">
       <defs>
        <path id="TeXGyreTermesX-Bold-31" d="M 2829 0 
L 2829 159 
C 2246 159 2138 255 2138 746 
L 2138 4384 
L 2029 4384 
L 416 3686 
L 416 3521 
C 474 3540 525 3559 544 3572 
C 717 3635 877 3680 960 3680 
C 1120 3680 1190 3540 1190 3241 
L 1190 790 
C 1190 267 1062 159 429 159 
L 429 0 
L 2829 0 
z
" transform="scale(0.015625)"/>
        <path id="TeXGyreTermesX-Bold-35" d="M 3008 4288 
L 947 4288 
L 326 2093 
C 934 2049 1197 2010 1478 1921 
C 2048 1743 2387 1381 2387 960 
C 2387 604 2106 324 1747 324 
C 1600 324 1427 400 1171 591 
C 896 795 704 877 538 877 
C 307 877 141 718 141 496 
C 141 159 512 -64 1082 -64 
C 2138 -64 2886 575 2886 1476 
C 2886 2140 2477 2652 1779 2850 
C 1536 2920 1338 2946 813 2946 
L 954 3481 
L 2733 3481 
L 3008 4288 
z
" transform="scale(0.015625)"/>
       </defs>
       <use xlink:href="#TeXGyreTermesX-Bold-31" transform="scale(0.996264)"/>
       <use xlink:href="#TeXGyreTermesX-Bold-35" transform="translate(49.8132 0) scale(0.996264)"/>
      </g>
     </g>
    </g>
    <g id="xtick_2">
     <g id="line2d_2">
      <g>
       <use xlink:href="#m91f2d28e9b" x="150.768037" y="245.110261" style="stroke: #000000; stroke-width: 0.8"/>
      </g>
     </g>
     <g id="text_2">
      <!-- $\mathdefault{20}$ -->
      <g transform="translate(145.3135 256.133531) scale(0.11 -0.11)">
       <defs>
        <path id="TeXGyreTermesX-Bold-32" d="M 3059 1341 
L 2906 1341 
C 2720 884 2643 846 1990 846 
L 1024 846 
L 2061 1824 
C 2566 2301 2790 2726 2790 3210 
C 2790 3889 2298 4373 1606 4373 
C 1286 4373 979 4245 755 4016 
C 506 3768 378 3552 198 3075 
L 378 3075 
C 576 3469 813 3648 1158 3648 
C 1440 3648 1651 3527 1792 3298 
C 1869 3164 1920 2987 1920 2841 
C 1920 2561 1798 2211 1594 1900 
C 1267 1405 1043 1137 109 146 
L 109 0 
L 2771 0 
L 3059 1341 
z
" transform="scale(0.015625)"/>
        <path id="TeXGyreTermesX-Bold-30" d="M 3046 2166 
C 3046 3440 2426 4403 1600 4403 
C 1184 4403 762 4123 499 3664 
C 294 3313 154 2714 154 2185 
C 154 873 755 -64 1606 -64 
C 2432 -64 3046 886 3046 2166 
z
M 2035 1434 
C 2035 1058 1984 561 1926 389 
C 1856 203 1754 114 1606 114 
C 1286 114 1165 491 1165 1434 
L 1165 2892 
C 1165 3855 1286 4224 1594 4224 
C 1907 4224 2035 3829 2035 2892 
L 2035 1434 
z
" transform="scale(0.015625)"/>
       </defs>
       <use xlink:href="#TeXGyreTermesX-Bold-32" transform="scale(0.996264)"/>
       <use xlink:href="#TeXGyreTermesX-Bold-30" transform="translate(49.8132 0) scale(0.996264)"/>
      </g>
     </g>
    </g>
    <g id="xtick_3">
     <g id="line2d_3">
      <g>
       <use xlink:href="#m91f2d28e9b" x="216.700128" y="245.110261" style="stroke: #000000; stroke-width: 0.8"/>
      </g>
     </g>
     <g id="text_3">
      <!-- $\mathdefault{25}$ -->
      <g transform="translate(211.245591 256.133531) scale(0.11 -0.11)">
       <use xlink:href="#TeXGyreTermesX-Bold-32" transform="scale(0.996264)"/>
       <use xlink:href="#TeXGyreTermesX-Bold-35" transform="translate(49.8132 0) scale(0.996264)"/>
      </g>
     </g>
    </g>
    <g id="xtick_4">
     <g id="line2d_4">
      <g>
       <use xlink:href="#m91f2d28e9b" x="282.632219" y="245.110261" style="stroke: #000000; stroke-width: 0.8"/>
      </g>
     </g>
     <g id="text_4">
      <!-- $\mathdefault{30}$ -->
      <g transform="translate(277.177683 256.133531) scale(0.11 -0.11)">
       <defs>
        <path id="TeXGyreTermesX-Bold-33" d="M 2995 1596 
C 2995 1889 2899 2164 2714 2387 
C 2579 2540 2470 2617 2214 2732 
C 2624 2981 2746 3165 2746 3541 
C 2746 4090 2355 4416 1702 4416 
C 1069 4416 589 4097 237 3440 
L 371 3364 
C 614 3753 826 3900 1158 3900 
C 1562 3900 1811 3645 1811 3242 
C 1811 2822 1587 2598 979 2406 
L 979 2297 
C 1510 2112 1722 2004 1952 1786 
C 2150 1601 2266 1314 2266 1007 
C 2266 548 2022 254 1638 254 
C 1485 254 1363 324 1152 528 
C 902 778 710 880 518 880 
C 275 880 102 728 102 510 
C 102 166 493 -64 1082 -64 
C 2150 -64 2995 664 2995 1596 
z
" transform="scale(0.015625)"/>
       </defs>
       <use xlink:href="#TeXGyreTermesX-Bold-33" transform="scale(0.996264)"/>
       <use xlink:href="#TeXGyreTermesX-Bold-30" transform="translate(49.8132 0) scale(0.996264)"/>
      </g>
     </g>
    </g>
    <g id="xtick_5">
     <g id="line2d_5">
      <g>
       <use xlink:href="#m91f2d28e9b" x="348.56431" y="245.110261" style="stroke: #000000; stroke-width: 0.8"/>
      </g>
     </g>
     <g id="text_5">
      <!-- $\mathdefault{35}$ -->
      <g transform="translate(343.109774 256.133531) scale(0.11 -0.11)">
       <use xlink:href="#TeXGyreTermesX-Bold-33" transform="scale(0.996264)"/>
       <use xlink:href="#TeXGyreTermesX-Bold-35" transform="translate(49.8132 0) scale(0.996264)"/>
      </g>
     </g>
    </g>
    <g id="xtick_6">
     <g id="line2d_6">
      <g>
       <use xlink:href="#m91f2d28e9b" x="414.496401" y="245.110261" style="stroke: #000000; stroke-width: 0.8"/>
      </g>
     </g>
     <g id="text_6">
      <!-- $\mathdefault{40}$ -->
      <g transform="translate(409.041865 256.133531) scale(0.11 -0.11)">
       <defs>
        <path id="TeXGyreTermesX-Bold-34" d="M 3040 896 
L 3040 1602 
L 2637 1602 
L 2637 4352 
L 2125 4352 
L 1747 3863 
C 928 2803 506 2219 122 1615 
L 122 896 
L 1709 896 
L 1709 -32 
L 2637 -32 
L 2637 896 
L 3040 896 
z
M 1722 1602 
L 384 1602 
L 1722 3488 
L 1722 1602 
z
" transform="scale(0.015625)"/>
       </defs>
       <use xlink:href="#TeXGyreTermesX-Bold-34" transform="scale(0.996264)"/>
       <use xlink:href="#TeXGyreTermesX-Bold-30" transform="translate(49.8132 0) scale(0.996264)"/>
      </g>
     </g>
    </g>
    <g id="xtick_7">
     <g id="line2d_7">
      <defs>
       <path id="md99f3d9729" d="M 0 0 
L 0 -2 
" style="stroke: #000000; stroke-width: 0.6"/>
      </defs>
      <g>
       <use xlink:href="#md99f3d9729" x="58.463109" y="245.110261" style="stroke: #000000; stroke-width: 0.6"/>
      </g>
     </g>
    </g>
    <g id="xtick_8">
     <g id="line2d_8">
      <g>
       <use xlink:href="#md99f3d9729" x="71.649527" y="245.110261" style="stroke: #000000; stroke-width: 0.6"/>
      </g>
     </g>
    </g>
    <g id="xtick_9">
     <g id="line2d_9">
      <g>
       <use xlink:href="#md99f3d9729" x="98.022364" y="245.110261" style="stroke: #000000; stroke-width: 0.6"/>
      </g>
     </g>
    </g>
    <g id="xtick_10">
     <g id="line2d_10">
      <g>
       <use xlink:href="#md99f3d9729" x="111.208782" y="245.110261" style="stroke: #000000; stroke-width: 0.6"/>
      </g>
     </g>
    </g>
    <g id="xtick_11">
     <g id="line2d_11">
      <g>
       <use xlink:href="#md99f3d9729" x="124.3952" y="245.110261" style="stroke: #000000; stroke-width: 0.6"/>
      </g>
     </g>
    </g>
    <g id="xtick_12">
     <g id="line2d_12">
      <g>
       <use xlink:href="#md99f3d9729" x="137.581618" y="245.110261" style="stroke: #000000; stroke-width: 0.6"/>
      </g>
     </g>
    </g>
    <g id="xtick_13">
     <g id="line2d_13">
      <g>
       <use xlink:href="#md99f3d9729" x="163.954455" y="245.110261" style="stroke: #000000; stroke-width: 0.6"/>
      </g>
     </g>
    </g>
    <g id="xtick_14">
     <g id="line2d_14">
      <g>
       <use xlink:href="#md99f3d9729" x="177.140873" y="245.110261" style="stroke: #000000; stroke-width: 0.6"/>
      </g>
     </g>
    </g>
    <g id="xtick_15">
     <g id="line2d_15">
      <g>
       <use xlink:href="#md99f3d9729" x="190.327291" y="245.110261" style="stroke: #000000; stroke-width: 0.6"/>
      </g>
     </g>
    </g>
    <g id="xtick_16">
     <g id="line2d_16">
      <g>
       <use xlink:href="#md99f3d9729" x="203.51371" y="245.110261" style="stroke: #000000; stroke-width: 0.6"/>
      </g>
     </g>
    </g>
    <g id="xtick_17">
     <g id="line2d_17">
      <g>
       <use xlink:href="#md99f3d9729" x="229.886546" y="245.110261" style="stroke: #000000; stroke-width: 0.6"/>
      </g>
     </g>
    </g>
    <g id="xtick_18">
     <g id="line2d_18">
      <g>
       <use xlink:href="#md99f3d9729" x="243.072964" y="245.110261" style="stroke: #000000; stroke-width: 0.6"/>
      </g>
     </g>
    </g>
    <g id="xtick_19">
     <g id="line2d_19">
      <g>
       <use xlink:href="#md99f3d9729" x="256.259382" y="245.110261" style="stroke: #000000; stroke-width: 0.6"/>
      </g>
     </g>
    </g>
    <g id="xtick_20">
     <g id="line2d_20">
      <g>
       <use xlink:href="#md99f3d9729" x="269.445801" y="245.110261" style="stroke: #000000; stroke-width: 0.6"/>
      </g>
     </g>
    </g>
    <g id="xtick_21">
     <g id="line2d_21">
      <g>
       <use xlink:href="#md99f3d9729" x="295.818637" y="245.110261" style="stroke: #000000; stroke-width: 0.6"/>
      </g>
     </g>
    </g>
    <g id="xtick_22">
     <g id="line2d_22">
      <g>
       <use xlink:href="#md99f3d9729" x="309.005055" y="245.110261" style="stroke: #000000; stroke-width: 0.6"/>
      </g>
     </g>
    </g>
    <g id="xtick_23">
     <g id="line2d_23">
      <g>
       <use xlink:href="#md99f3d9729" x="322.191474" y="245.110261" style="stroke: #000000; stroke-width: 0.6"/>
      </g>
     </g>
    </g>
    <g id="xtick_24">
     <g id="line2d_24">
      <g>
       <use xlink:href="#md99f3d9729" x="335.377892" y="245.110261" style="stroke: #000000; stroke-width: 0.6"/>
      </g>
     </g>
    </g>
    <g id="xtick_25">
     <g id="line2d_25">
      <g>
       <use xlink:href="#md99f3d9729" x="361.750728" y="245.110261" style="stroke: #000000; stroke-width: 0.6"/>
      </g>
     </g>
    </g>
    <g id="xtick_26">
     <g id="line2d_26">
      <g>
       <use xlink:href="#md99f3d9729" x="374.937147" y="245.110261" style="stroke: #000000; stroke-width: 0.6"/>
      </g>
     </g>
    </g>
    <g id="xtick_27">
     <g id="line2d_27">
      <g>
       <use xlink:href="#md99f3d9729" x="388.123565" y="245.110261" style="stroke: #000000; stroke-width: 0.6"/>
      </g>
     </g>
    </g>
    <g id="xtick_28">
     <g id="line2d_28">
      <g>
       <use xlink:href="#md99f3d9729" x="401.309983" y="245.110261" style="stroke: #000000; stroke-width: 0.6"/>
      </g>
     </g>
    </g>
    <g id="xtick_29">
     <g id="line2d_29">
      <g>
       <use xlink:href="#md99f3d9729" x="427.68282" y="245.110261" style="stroke: #000000; stroke-width: 0.6"/>
      </g>
     </g>
    </g>
    <g id="xtick_30">
     <g id="line2d_30">
      <g>
       <use xlink:href="#md99f3d9729" x="440.869238" y="245.110261" style="stroke: #000000; stroke-width: 0.6"/>
      </g>
     </g>
    </g>
    <g id="text_7">
     <!-- $\ln{\overline{k}}$ -->
     <g transform="translate(240.811603 271.00574) scale(0.12 -0.12)">
      <defs>
       <path id="TeXGyreTermesX-Bold-6c" d="M 1632 0 
L 1632 153 
C 1421 153 1318 274 1318 528 
L 1318 4288 
L 102 4288 
L 102 4136 
C 326 4117 429 4002 429 3768 
L 429 533 
C 429 299 320 172 102 153 
L 102 0 
L 1632 0 
z
" transform="scale(0.015625)"/>
       <path id="TeXGyreTermesX-Bold-6e" d="M 3450 -32 
L 3450 121 
C 3200 140 3136 216 3136 484 
L 3136 2086 
C 3136 2635 2797 2986 2272 2986 
C 1888 2986 1594 2808 1357 2432 
L 1357 2910 
L 134 2910 
L 134 2757 
C 416 2713 474 2649 474 2381 
L 474 503 
C 474 235 422 178 134 121 
L 134 -32 
L 1677 -32 
L 1677 121 
C 1440 152 1363 249 1363 485 
L 1363 2190 
C 1363 2216 1408 2279 1472 2336 
C 1613 2484 1766 2560 1914 2560 
C 2138 2560 2246 2387 2246 2030 
L 2246 484 
C 2246 249 2163 146 1946 121 
L 1946 -32 
L 3450 -32 
z
" transform="scale(0.015625)"/>
       <path id="NewTXBMI-6b" d="M 2861 728 
L 2720 799 
C 2547 493 2445 390 2323 390 
C 2144 390 2074 613 1824 1858 
L 2227 2209 
C 2662 2578 2797 2655 3091 2694 
L 3091 2855 
L 1766 2855 
L 1766 2688 
C 2016 2688 2093 2656 2093 2553 
C 2093 2386 1850 2148 1043 1513 
L 1830 4461 
C 1338 4371 998 4320 499 4269 
L 499 4096 
L 634 4096 
C 819 4096 902 4026 902 3879 
C 902 3815 890 3751 851 3611 
L -147 -13 
L 634 -13 
L 954 1187 
L 1203 1360 
C 1408 274 1594 -64 1990 -64 
C 2310 -64 2541 141 2861 728 
z
" transform="scale(0.015625)"/>
      </defs>
      <use xlink:href="#TeXGyreTermesX-Bold-6c" transform="scale(0.996264)"/>
      <use xlink:href="#TeXGyreTermesX-Bold-6e" transform="translate(27.696127 0) scale(0.996264)"/>
      <use xlink:href="#NewTXBMI-6b" transform="translate(105.769928 0) scale(0.996264)"/>
      <path d="M 99.692742 86.326164 
L 161.959242 86.326164 
L 161.959242 91.905218 
L 99.692742 91.905218 
L 99.692742 86.326164 
z
"/>
     </g>
    </g>
   </g>
   <g id="matplotlib.axis_2">
    <g id="ytick_1">
     <g id="line2d_31">
      <defs>
       <path id="m72a64deae5" d="M 0 0 
L 3.5 0 
" style="stroke: #000000; stroke-width: 0.8"/>
      </defs>
      <g>
       <use xlink:href="#m72a64deae5" x="47.45829" y="218.617679" style="stroke: #000000; stroke-width: 0.8"/>
      </g>
     </g>
     <g id="text_8">
      <!-- $\mathdefault{800}$ -->
      <g transform="translate(27.594681 222.379314) scale(0.11 -0.11)">
       <defs>
        <path id="TeXGyreTermesX-Bold-38" d="M 3021 1212 
C 3021 1768 2746 2164 2061 2597 
C 2675 2815 2931 3075 2931 3483 
C 2931 4051 2445 4409 1683 4409 
C 819 4409 250 3961 250 3292 
C 250 2814 506 2462 1139 2086 
C 774 1965 627 1881 461 1722 
C 275 1543 179 1301 179 1020 
C 179 370 723 -64 1536 -64 
C 2426 -64 3021 447 3021 1212 
z
M 2170 3439 
C 2170 3139 2118 2993 1907 2712 
C 1370 2986 1075 3337 1075 3694 
C 1075 3994 1306 4224 1606 4224 
C 1965 4224 2170 3937 2170 3439 
z
M 2131 829 
C 2131 402 1920 140 1574 140 
C 1184 140 954 478 954 1046 
C 954 1397 1024 1595 1280 1971 
C 1978 1505 2131 1301 2131 829 
z
" transform="scale(0.015625)"/>
       </defs>
       <use xlink:href="#TeXGyreTermesX-Bold-38" transform="scale(0.996264)"/>
       <use xlink:href="#TeXGyreTermesX-Bold-30" transform="translate(49.8132 0) scale(0.996264)"/>
       <use xlink:href="#TeXGyreTermesX-Bold-30" transform="translate(99.626401 0) scale(0.996264)"/>
      </g>
     </g>
    </g>
    <g id="ytick_2">
     <g id="line2d_32">
      <g>
       <use xlink:href="#m72a64deae5" x="47.45829" y="169.549993" style="stroke: #000000; stroke-width: 0.8"/>
      </g>
     </g>
     <g id="text_9">
      <!-- $\mathdefault{900}$ -->
      <g transform="translate(27.594681 173.311629) scale(0.11 -0.11)">
       <defs>
        <path id="TeXGyreTermesX-Bold-39" d="M 3027 2537 
C 3027 3634 2438 4352 1542 4352 
C 742 4352 166 3724 166 2856 
C 166 2107 634 1600 1331 1600 
C 1574 1600 1741 1632 1914 1721 
C 1638 755 1120 252 198 68 
L 198 -98 
C 1094 30 1530 188 2029 563 
C 2682 1051 3027 1730 3027 2537 
z
M 2029 2894 
C 2029 2723 2016 2521 1997 2235 
L 1978 2070 
C 1971 1988 1965 1957 1946 1944 
C 1901 1912 1779 1887 1683 1887 
C 1286 1887 1139 2261 1139 3255 
C 1139 3990 1216 4180 1530 4180 
C 1690 4180 1798 4110 1869 3965 
C 1965 3788 2029 3343 2029 2894 
z
" transform="scale(0.015625)"/>
       </defs>
       <use xlink:href="#TeXGyreTermesX-Bold-39" transform="scale(0.996264)"/>
       <use xlink:href="#TeXGyreTermesX-Bold-30" transform="translate(49.8132 0) scale(0.996264)"/>
       <use xlink:href="#TeXGyreTermesX-Bold-30" transform="translate(99.626401 0) scale(0.996264)"/>
      </g>
     </g>
    </g>
    <g id="ytick_3">
     <g id="line2d_33">
      <g>
       <use xlink:href="#m72a64deae5" x="47.45829" y="120.482308" style="stroke: #000000; stroke-width: 0.8"/>
      </g>
     </g>
     <g id="text_10">
      <!-- $\mathdefault{1000}$ -->
      <g transform="translate(22.140145 124.243944) scale(0.11 -0.11)">
       <use xlink:href="#TeXGyreTermesX-Bold-31" transform="scale(0.996264)"/>
       <use xlink:href="#TeXGyreTermesX-Bold-30" transform="translate(49.8132 0) scale(0.996264)"/>
       <use xlink:href="#TeXGyreTermesX-Bold-30" transform="translate(99.626401 0) scale(0.996264)"/>
       <use xlink:href="#TeXGyreTermesX-Bold-30" transform="translate(149.439601 0) scale(0.996264)"/>
      </g>
     </g>
    </g>
    <g id="ytick_4">
     <g id="line2d_34">
      <g>
       <use xlink:href="#m72a64deae5" x="47.45829" y="71.414623" style="stroke: #000000; stroke-width: 0.8"/>
      </g>
     </g>
     <g id="text_11">
      <!-- $\mathdefault{1100}$ -->
      <g transform="translate(22.140145 75.176258) scale(0.11 -0.11)">
       <use xlink:href="#TeXGyreTermesX-Bold-31" transform="scale(0.996264)"/>
       <use xlink:href="#TeXGyreTermesX-Bold-31" transform="translate(49.8132 0) scale(0.996264)"/>
       <use xlink:href="#TeXGyreTermesX-Bold-30" transform="translate(99.626401 0) scale(0.996264)"/>
       <use xlink:href="#TeXGyreTermesX-Bold-30" transform="translate(149.439601 0) scale(0.996264)"/>
      </g>
     </g>
    </g>
    <g id="ytick_5">
     <g id="line2d_35">
      <g>
       <use xlink:href="#m72a64deae5" x="47.45829" y="22.346937" style="stroke: #000000; stroke-width: 0.8"/>
      </g>
     </g>
     <g id="text_12">
      <!-- $\mathdefault{1200}$ -->
      <g transform="translate(22.140145 26.108573) scale(0.11 -0.11)">
       <use xlink:href="#TeXGyreTermesX-Bold-31" transform="scale(0.996264)"/>
       <use xlink:href="#TeXGyreTermesX-Bold-32" transform="translate(49.8132 0) scale(0.996264)"/>
       <use xlink:href="#TeXGyreTermesX-Bold-30" transform="translate(99.626401 0) scale(0.996264)"/>
       <use xlink:href="#TeXGyreTermesX-Bold-30" transform="translate(149.439601 0) scale(0.996264)"/>
      </g>
     </g>
    </g>
    <g id="ytick_6">
     <g id="line2d_36">
      <defs>
       <path id="mcfd7fed028" d="M 0 0 
L 2 0 
" style="stroke: #000000; stroke-width: 0.6"/>
      </defs>
      <g>
       <use xlink:href="#mcfd7fed028" x="47.45829" y="238.244753" style="stroke: #000000; stroke-width: 0.6"/>
      </g>
     </g>
    </g>
    <g id="ytick_7">
     <g id="line2d_37">
      <g>
       <use xlink:href="#mcfd7fed028" x="47.45829" y="228.431216" style="stroke: #000000; stroke-width: 0.6"/>
      </g>
     </g>
    </g>
    <g id="ytick_8">
     <g id="line2d_38">
      <g>
       <use xlink:href="#mcfd7fed028" x="47.45829" y="208.804142" style="stroke: #000000; stroke-width: 0.6"/>
      </g>
     </g>
    </g>
    <g id="ytick_9">
     <g id="line2d_39">
      <g>
       <use xlink:href="#mcfd7fed028" x="47.45829" y="198.990605" style="stroke: #000000; stroke-width: 0.6"/>
      </g>
     </g>
    </g>
    <g id="ytick_10">
     <g id="line2d_40">
      <g>
       <use xlink:href="#mcfd7fed028" x="47.45829" y="189.177068" style="stroke: #000000; stroke-width: 0.6"/>
      </g>
     </g>
    </g>
    <g id="ytick_11">
     <g id="line2d_41">
      <g>
       <use xlink:href="#mcfd7fed028" x="47.45829" y="179.36353" style="stroke: #000000; stroke-width: 0.6"/>
      </g>
     </g>
    </g>
    <g id="ytick_12">
     <g id="line2d_42">
      <g>
       <use xlink:href="#mcfd7fed028" x="47.45829" y="159.736456" style="stroke: #000000; stroke-width: 0.6"/>
      </g>
     </g>
    </g>
    <g id="ytick_13">
     <g id="line2d_43">
      <g>
       <use xlink:href="#mcfd7fed028" x="47.45829" y="149.922919" style="stroke: #000000; stroke-width: 0.6"/>
      </g>
     </g>
    </g>
    <g id="ytick_14">
     <g id="line2d_44">
      <g>
       <use xlink:href="#mcfd7fed028" x="47.45829" y="140.109382" style="stroke: #000000; stroke-width: 0.6"/>
      </g>
     </g>
    </g>
    <g id="ytick_15">
     <g id="line2d_45">
      <g>
       <use xlink:href="#mcfd7fed028" x="47.45829" y="130.295845" style="stroke: #000000; stroke-width: 0.6"/>
      </g>
     </g>
    </g>
    <g id="ytick_16">
     <g id="line2d_46">
      <g>
       <use xlink:href="#mcfd7fed028" x="47.45829" y="110.668771" style="stroke: #000000; stroke-width: 0.6"/>
      </g>
     </g>
    </g>
    <g id="ytick_17">
     <g id="line2d_47">
      <g>
       <use xlink:href="#mcfd7fed028" x="47.45829" y="100.855234" style="stroke: #000000; stroke-width: 0.6"/>
      </g>
     </g>
    </g>
    <g id="ytick_18">
     <g id="line2d_48">
      <g>
       <use xlink:href="#mcfd7fed028" x="47.45829" y="91.041697" style="stroke: #000000; stroke-width: 0.6"/>
      </g>
     </g>
    </g>
    <g id="ytick_19">
     <g id="line2d_49">
      <g>
       <use xlink:href="#mcfd7fed028" x="47.45829" y="81.22816" style="stroke: #000000; stroke-width: 0.6"/>
      </g>
     </g>
    </g>
    <g id="ytick_20">
     <g id="line2d_50">
      <g>
       <use xlink:href="#mcfd7fed028" x="47.45829" y="61.601086" style="stroke: #000000; stroke-width: 0.6"/>
      </g>
     </g>
    </g>
    <g id="ytick_21">
     <g id="line2d_51">
      <g>
       <use xlink:href="#mcfd7fed028" x="47.45829" y="51.787549" style="stroke: #000000; stroke-width: 0.6"/>
      </g>
     </g>
    </g>
    <g id="ytick_22">
     <g id="line2d_52">
      <g>
       <use xlink:href="#mcfd7fed028" x="47.45829" y="41.974012" style="stroke: #000000; stroke-width: 0.6"/>
      </g>
     </g>
    </g>
    <g id="ytick_23">
     <g id="line2d_53">
      <g>
       <use xlink:href="#mcfd7fed028" x="47.45829" y="32.160475" style="stroke: #000000; stroke-width: 0.6"/>
      </g>
     </g>
    </g>
    <g id="ytick_24">
     <g id="line2d_54">
      <g>
       <use xlink:href="#mcfd7fed028" x="47.45829" y="12.5334" style="stroke: #000000; stroke-width: 0.6"/>
      </g>
     </g>
    </g>
    <g id="text_13">
     <!-- \textbf{Recrystallization Temperature [$^\circ C$]} -->
     <g transform="translate(15.545885 216.144247) rotate(-90) scale(0.12 -0.12)">
      <defs>
       <path id="TeXGyreTermesX-Bold-52" d="M 4576 0 
L 4576 159 
C 4461 159 4378 197 4314 280 
L 3027 2086 
C 3405 2207 3565 2290 3744 2448 
C 3930 2620 4032 2873 4032 3159 
C 4032 3889 3398 4288 2227 4288 
L 166 4288 
L 166 4110 
C 640 4110 730 4015 730 3557 
L 730 744 
C 730 280 666 216 166 159 
L 166 0 
L 2330 0 
L 2330 159 
C 1830 223 1766 292 1766 742 
L 1766 1984 
L 1939 1984 
L 3264 0 
L 4576 0 
z
M 2938 3130 
C 2938 2723 2842 2474 2637 2340 
C 2470 2232 2253 2187 1766 2187 
L 1766 3805 
C 1766 3843 1792 3938 1811 3977 
C 1850 4040 1952 4072 2112 4072 
C 2701 4072 2938 3799 2938 3130 
z
" transform="scale(0.015625)"/>
       <path id="TeXGyreTermesX-Bold-65" d="M 2726 736 
L 2573 826 
C 2310 510 2118 394 1843 394 
C 1600 394 1408 504 1280 723 
C 1158 930 1107 1149 1082 1600 
L 2694 1600 
C 2656 2115 2560 2400 2362 2642 
C 2157 2883 1856 3013 1498 3013 
C 698 3013 160 2388 160 1465 
C 160 543 685 -64 1478 -64 
C 1997 -64 2310 134 2726 736 
z
M 1907 1835 
L 1050 1835 
C 1069 2571 1184 2816 1498 2816 
C 1683 2816 1798 2718 1850 2528 
C 1882 2411 1894 2240 1907 1928 
L 1907 1835 
z
" transform="scale(0.015625)"/>
       <path id="TeXGyreTermesX-Bold-63" d="M 2752 601 
L 2637 715 
C 2400 450 2234 362 1971 362 
C 1414 362 1062 911 1062 1769 
C 1062 2418 1267 2816 1600 2816 
C 1702 2816 1798 2765 1837 2696 
C 1869 2639 1869 2639 1869 2374 
C 1875 2059 1984 1920 2227 1920 
C 2496 1920 2662 2072 2662 2318 
C 2662 2710 2234 3013 1677 3013 
C 800 3013 160 2349 160 1433 
C 160 555 730 -64 1530 -64 
C 2022 -64 2381 132 2752 601 
z
" transform="scale(0.015625)"/>
       <path id="TeXGyreTermesX-Bold-72" d="M 2778 2512 
C 2778 2798 2560 3008 2259 3008 
C 1939 3008 1696 2836 1395 2410 
L 1395 2932 
L 186 2932 
L 186 2779 
C 461 2741 531 2658 531 2404 
L 531 533 
C 531 272 467 203 186 152 
L 186 0 
L 1888 0 
L 1888 165 
C 1498 165 1421 248 1421 645 
L 1421 1854 
C 1421 2186 1600 2461 1811 2461 
C 1862 2461 1920 2417 1990 2315 
C 2112 2143 2208 2086 2374 2086 
C 2611 2086 2778 2264 2778 2512 
z
" transform="scale(0.015625)"/>
       <path id="TeXGyreTermesX-Bold-79" d="M 3072 2791 
L 3072 2944 
L 2106 2944 
L 2106 2785 
C 2381 2785 2458 2740 2458 2587 
C 2458 2517 2445 2460 2387 2301 
L 1952 1080 
L 1491 2253 
C 1363 2576 1363 2576 1363 2627 
C 1363 2715 1440 2772 1600 2785 
L 1702 2785 
L 1702 2944 
L 102 2944 
L 102 2791 
C 250 2772 288 2753 326 2696 
C 346 2696 634 2076 742 1808 
L 1510 -61 
L 1395 -397 
C 1286 -714 1120 -917 973 -917 
C 915 -917 864 -866 864 -809 
C 864 -809 864 -790 870 -771 
C 877 -740 883 -708 883 -683 
C 883 -500 730 -372 512 -372 
C 275 -372 102 -538 102 -778 
C 102 -1070 358 -1280 723 -1280 
C 941 -1280 1126 -1203 1261 -1071 
C 1395 -925 1523 -671 1747 -75 
L 2701 2442 
C 2810 2709 2874 2772 3072 2791 
z
" transform="scale(0.015625)"/>
       <path id="TeXGyreTermesX-Bold-73" d="M 2310 899 
C 2310 1348 2067 1627 1427 1887 
C 992 2070 813 2228 813 2444 
C 813 2653 992 2811 1235 2811 
C 1408 2811 1574 2741 1715 2608 
C 1850 2481 1920 2360 2016 2086 
L 2176 2086 
L 2176 3008 
L 2035 3008 
C 1997 2913 1958 2881 1875 2881 
C 1837 2881 1779 2893 1677 2922 
C 1472 2985 1325 3008 1178 3008 
C 595 3008 173 2617 173 2086 
C 173 1669 435 1378 1082 1107 
C 1523 917 1696 759 1696 557 
C 1696 311 1504 146 1216 146 
C 768 146 474 432 339 986 
L 160 986 
L 160 -64 
L 320 -64 
C 390 70 429 114 486 114 
C 518 114 570 102 634 77 
C 819 4 1146 -64 1325 -64 
C 1907 -64 2310 328 2310 899 
z
" transform="scale(0.015625)"/>
       <path id="TeXGyreTermesX-Bold-74" d="M 2125 648 
L 1965 718 
C 1837 476 1734 387 1600 387 
C 1421 387 1350 495 1350 750 
L 1350 2664 
L 1952 2664 
L 1952 2944 
L 1350 2944 
L 1350 4032 
L 1190 4032 
C 800 3479 544 3190 128 2836 
L 128 2664 
L 461 2664 
L 461 603 
C 461 190 736 -64 1178 -64 
C 1606 -64 1862 126 2125 648 
z
" transform="scale(0.015625)"/>
       <path id="TeXGyreTermesX-Bold-61" d="M 3123 297 
L 3027 430 
L 2963 366 
C 2944 347 2925 341 2893 341 
C 2803 341 2758 392 2758 499 
L 2758 2152 
C 2758 2689 2272 3019 1491 3019 
C 768 3019 282 2696 282 2221 
C 282 1955 435 1803 698 1803 
C 954 1803 1133 1955 1133 2170 
C 1133 2259 1101 2341 1018 2442 
C 960 2506 941 2543 941 2581 
C 941 2714 1114 2816 1344 2816 
C 1722 2816 1882 2645 1882 2259 
L 1882 1797 
C 1133 1569 832 1455 589 1296 
C 301 1107 160 885 160 607 
C 160 221 454 -64 864 -64 
C 1235 -64 1530 63 1882 380 
C 1952 57 2093 -64 2406 -64 
C 2682 -64 2880 38 3123 297 
z
M 1875 658 
C 1702 462 1574 386 1421 386 
C 1229 386 1094 556 1094 810 
C 1094 1176 1363 1436 1875 1575 
L 1875 658 
z
" transform="scale(0.015625)"/>
       <path id="TeXGyreTermesX-Bold-69" d="M 1632 -32 
L 1632 121 
C 1408 152 1331 241 1331 484 
L 1331 2908 
L 102 2908 
L 102 2755 
C 384 2698 442 2641 442 2379 
L 442 503 
C 442 241 397 191 102 121 
L 102 -32 
L 1632 -32 
z
M 1370 3882 
C 1370 4162 1152 4372 877 4372 
C 602 4372 384 4162 384 3882 
C 384 3602 602 3392 877 3392 
C 1152 3392 1370 3602 1370 3882 
z
" transform="scale(0.015625)"/>
       <path id="TeXGyreTermesX-Bold-7a" d="M 2688 1022 
L 2509 1022 
C 2451 817 2400 702 2298 568 
C 2093 286 1882 204 1370 204 
L 1184 204 
L 2662 2778 
L 2662 2944 
L 288 2944 
L 243 2038 
L 410 2038 
C 570 2645 736 2740 1632 2740 
L 134 159 
L 134 0 
L 2586 0 
L 2688 1022 
z
" transform="scale(0.015625)"/>
       <path id="TeXGyreTermesX-Bold-6f" d="M 3046 1471 
C 3046 2356 2432 3013 1606 3013 
C 794 3013 160 2349 160 1490 
C 160 587 768 -64 1606 -64 
C 2432 -64 3046 593 3046 1471 
z
M 2106 1433 
C 2106 462 1978 133 1606 133 
C 1229 133 1101 455 1101 1377 
C 1101 2487 1216 2816 1613 2816 
C 1984 2816 2106 2469 2106 1433 
z
" transform="scale(0.015625)"/>
       <path id="TeXGyreTermesX-Bold-54" d="M 4070 3013 
L 4058 4288 
L 218 4288 
L 198 3013 
L 384 3013 
C 493 3777 826 4072 1619 4072 
L 1619 740 
C 1619 272 1549 204 998 159 
L 998 0 
L 3283 0 
L 3283 178 
C 2726 178 2656 242 2656 724 
L 2656 4072 
C 3443 4072 3776 3777 3885 3013 
L 4070 3013 
z
" transform="scale(0.015625)"/>
       <path id="TeXGyreTermesX-Bold-6d" d="M 5210 0 
L 5210 159 
C 4960 159 4890 236 4890 510 
L 4890 2109 
C 4890 2657 4550 3008 4026 3008 
C 3661 3008 3418 2862 3085 2455 
C 2893 2856 2669 3008 2266 3008 
C 1862 3008 1568 2836 1325 2455 
L 1325 2932 
L 102 2932 
L 102 2779 
C 384 2741 454 2665 454 2404 
L 454 534 
C 454 273 384 204 102 153 
L 102 0 
L 1638 0 
L 1638 153 
C 1414 184 1344 273 1344 515 
L 1344 2213 
C 1344 2251 1446 2372 1530 2436 
C 1664 2538 1773 2582 1882 2582 
C 2131 2582 2227 2436 2227 2054 
L 2227 515 
C 2227 254 2157 172 1920 153 
L 1920 0 
L 3418 0 
L 3418 153 
C 3194 178 3117 273 3117 515 
L 3117 2213 
C 3117 2245 3219 2366 3302 2429 
C 3443 2538 3552 2582 3661 2582 
C 3904 2582 4000 2429 4000 2054 
L 4000 515 
C 4000 248 3930 172 3686 153 
L 3686 0 
L 5210 0 
z
" transform="scale(0.015625)"/>
       <path id="TeXGyreTermesX-Bold-70" d="M 3354 1551 
C 3354 2442 2874 3050 2163 3050 
C 1786 3050 1555 2904 1357 2534 
L 1357 2974 
L 134 2974 
L 134 2821 
C 416 2777 480 2712 480 2444 
L 480 -756 
C 480 -1019 429 -1076 122 -1127 
L 122 -1280 
L 1869 -1280 
L 1869 -1140 
C 1478 -1140 1370 -1012 1370 -584 
L 1370 318 
C 1677 19 1843 -64 2125 -64 
C 2842 -64 3354 603 3354 1551 
z
M 2406 1461 
C 2406 665 2227 286 1862 286 
C 1651 286 1466 434 1370 678 
L 1370 2238 
C 1370 2283 1427 2386 1504 2469 
C 1632 2610 1779 2688 1920 2688 
C 2253 2688 2406 2302 2406 1461 
z
" transform="scale(0.015625)"/>
       <path id="TeXGyreTermesX-Bold-75" d="M 3437 152 
L 3437 305 
C 3155 305 3078 388 3078 660 
L 3078 2944 
L 1792 2944 
L 1792 2792 
C 2112 2767 2189 2690 2189 2419 
L 2189 627 
C 1978 419 1850 349 1664 349 
C 1402 349 1306 476 1306 799 
L 1306 2944 
L 102 2944 
L 102 2792 
C 365 2741 416 2684 416 2419 
L 416 822 
C 416 266 736 -64 1267 -64 
C 1600 -64 1824 38 2195 355 
L 2195 -58 
C 2470 38 2624 63 3040 108 
L 3437 152 
z
" transform="scale(0.015625)"/>
       <path id="TeXGyreTermesX-Bold-5b" d="M 1926 -960 
L 1926 -750 
L 1414 -750 
C 1152 -750 1094 -686 1094 -413 
L 1094 3650 
C 1094 4020 1165 4096 1523 4096 
L 1926 4096 
L 1926 4306 
L 429 4306 
L 429 -960 
L 1926 -960 
z
" transform="scale(0.015625)"/>
       <path id="txbsys-e" d="M 2955 1640 
C 2955 2347 2386 2915 1676 2915 
C 960 2915 397 2347 397 1640 
C 397 926 960 365 1676 365 
C 2386 365 2955 926 2955 1640 
z
M 2482 1640 
C 2482 1188 2117 838 1676 838 
C 1222 838 870 1188 870 1640 
C 870 2078 1222 2441 1676 2441 
C 2117 2441 2482 2078 2482 1640 
z
" transform="scale(0.015625)"/>
       <path id="NewTXBMI-49" d="M 3686 828 
L 3494 969 
C 3174 590 2995 442 2726 326 
C 2547 249 2349 211 2150 211 
C 1549 211 1190 628 1190 1329 
C 1190 2253 1638 3344 2214 3852 
C 2451 4051 2714 4160 2982 4160 
C 3501 4160 3821 3775 3821 3146 
C 3821 3062 3814 3004 3802 2921 
L 4006 2882 
L 4333 4384 
L 4141 4384 
C 4051 4243 3994 4198 3898 4198 
C 3846 4198 3750 4218 3654 4250 
C 3366 4339 3078 4384 2816 4384 
C 1389 4384 205 3094 205 1534 
C 205 539 902 -128 1946 -128 
C 2400 -128 2822 13 3187 289 
C 3373 431 3482 546 3686 828 
z
" transform="scale(0.015625)"/>
       <path id="TeXGyreTermesX-Bold-5d" d="M 1702 -960 
L 1702 4306 
L 205 4306 
L 205 4096 
L 608 4096 
C 966 4096 1037 4020 1037 3650 
L 1037 -413 
C 1037 -693 986 -750 717 -750 
L 205 -750 
L 205 -960 
L 1702 -960 
z
" transform="scale(0.015625)"/>
      </defs>
      <use xlink:href="#TeXGyreTermesX-Bold-52" transform="scale(0.996264)"/>
      <use xlink:href="#TeXGyreTermesX-Bold-65" transform="translate(69.9377 0) scale(0.996264)"/>
      <use xlink:href="#TeXGyreTermesX-Bold-63" transform="translate(114.171846 0) scale(0.996264)"/>
      <use xlink:href="#TeXGyreTermesX-Bold-72" transform="translate(158.405993 0) scale(0.996264)"/>
      <use xlink:href="#TeXGyreTermesX-Bold-79" transform="translate(202.640139 0) scale(0.996264)"/>
      <use xlink:href="#TeXGyreTermesX-Bold-73" transform="translate(249.96271 0) scale(0.996264)"/>
      <use xlink:href="#TeXGyreTermesX-Bold-74" transform="translate(288.717374 0) scale(0.996264)"/>
      <use xlink:href="#TeXGyreTermesX-Bold-61" transform="translate(322.889263 0) scale(0.996264)"/>
      <use xlink:href="#TeXGyreTermesX-Bold-6c" transform="translate(372.702463 0) scale(0.996264)"/>
      <use xlink:href="#TeXGyreTermesX-Bold-6c" transform="translate(400.398591 0) scale(0.996264)"/>
      <use xlink:href="#TeXGyreTermesX-Bold-69" transform="translate(428.094718 0) scale(0.996264)"/>
      <use xlink:href="#TeXGyreTermesX-Bold-7a" transform="translate(455.790845 0) scale(0.996264)"/>
      <use xlink:href="#TeXGyreTermesX-Bold-61" transform="translate(500.024992 0) scale(0.996264)"/>
      <use xlink:href="#TeXGyreTermesX-Bold-74" transform="translate(549.838192 0) scale(0.996264)"/>
      <use xlink:href="#TeXGyreTermesX-Bold-69" transform="translate(583.013802 0) scale(0.996264)"/>
      <use xlink:href="#TeXGyreTermesX-Bold-6f" transform="translate(610.709929 0) scale(0.996264)"/>
      <use xlink:href="#TeXGyreTermesX-Bold-6e" transform="translate(660.52313 0) scale(0.996264)"/>
      <use xlink:href="#TeXGyreTermesX-Bold-54" transform="translate(740.821985 0) scale(0.996264)"/>
      <use xlink:href="#TeXGyreTermesX-Bold-65" transform="translate(798.804517 0) scale(0.996264)"/>
      <use xlink:href="#TeXGyreTermesX-Bold-6d" transform="translate(843.038663 0) scale(0.996264)"/>
      <use xlink:href="#TeXGyreTermesX-Bold-70" transform="translate(924.533032 0) scale(0.996264)"/>
      <use xlink:href="#TeXGyreTermesX-Bold-65" transform="translate(979.925286 0) scale(0.996264)"/>
      <use xlink:href="#TeXGyreTermesX-Bold-72" transform="translate(1024.159433 0) scale(0.996264)"/>
      <use xlink:href="#TeXGyreTermesX-Bold-61" transform="translate(1068.393579 0) scale(0.996264)"/>
      <use xlink:href="#TeXGyreTermesX-Bold-74" transform="translate(1118.20678 0) scale(0.996264)"/>
      <use xlink:href="#TeXGyreTermesX-Bold-75" transform="translate(1151.382389 0) scale(0.996264)"/>
      <use xlink:href="#TeXGyreTermesX-Bold-72" transform="translate(1206.774644 0) scale(0.996264)"/>
      <use xlink:href="#TeXGyreTermesX-Bold-65" transform="translate(1250.012496 0) scale(0.996264)"/>
      <use xlink:href="#TeXGyreTermesX-Bold-5b" transform="translate(1319.153242 0) scale(0.996264)"/>
      <use xlink:href="#txbsys-e" transform="translate(1352.328852 36.164371) scale(0.727268)"/>
      <use xlink:href="#NewTXBMI-49" transform="translate(1391.33433 0) scale(0.996264)"/>
      <use xlink:href="#TeXGyreTermesX-Bold-5d" transform="translate(1462.816243 0) scale(0.996264)"/>
     </g>
    </g>
   </g>
   <g id="line2d_55">
    <path d="M 65.919277 234.296158 
L 69.64877 227.714008 
L 73.378263 221.396663 
L 77.107755 215.329269 
L 80.837248 209.498169 
L 84.566741 203.889766 
L 88.296233 198.491722 
L 92.025726 193.292236 
L 95.755219 188.280828 
L 99.484699 183.447193 
L 103.214204 178.78199 
L 106.943684 174.276472 
L 110.673164 169.922673 
L 114.402669 165.712867 
L 118.132175 161.639926 
L 121.861655 157.69732 
L 125.591135 153.878822 
L 129.32064 150.17856 
L 133.050145 146.591025 
L 136.779625 143.111244 
L 140.509105 139.734247 
L 144.238611 136.455601 
L 147.968116 133.270993 
L 151.697596 130.17653 
L 155.427076 127.1682 
L 159.156581 124.242407 
L 162.886061 121.395978 
L 166.615567 118.625559 
L 170.345047 115.928094 
L 174.074552 113.300828 
L 177.804032 110.740887 
L 181.533537 108.245934 
L 185.263017 105.813215 
L 188.992523 103.440512 
L 192.722003 101.125849 
L 196.451483 98.866831 
L 200.180988 96.66136 
L 203.910493 94.507821 
L 207.639973 92.404236 
L 211.369453 90.348927 
L 215.098959 88.340219 
L 218.828464 86.376493 
L 222.557944 84.456313 
L 226.287424 82.57818 
L 230.016929 80.740777 
L 233.746409 78.942787 
L 237.475915 77.182771 
L 241.205395 75.459832 
L 244.9349 73.772591 
L 248.66438 72.119911 
L 252.393885 70.500833 
L 256.123365 68.914339 
L 259.852871 67.359291 
L 263.582351 65.83503 
L 267.311856 64.340359 
L 271.041336 62.874617 
L 274.770841 61.437028 
L 278.500321 60.026392 
L 282.229827 58.64241 
L 285.959307 57.284064 
L 289.688812 55.950815 
L 293.418292 54.641824 
L 297.147772 53.356493 
L 300.877277 52.094102 
L 304.606757 50.854113 
L 308.336263 49.635926 
L 312.065743 48.438883 
L 315.795248 47.262744 
L 319.524753 46.106491 
L 323.254208 44.970004 
L 326.983713 43.852624 
L 330.713219 42.753872 
L 334.442724 41.673268 
L 338.172179 40.610395 
L 341.901684 39.564891 
L 345.631189 38.536099 
L 349.360695 37.523839 
L 353.090149 36.52769 
L 356.819655 35.547235 
L 360.54916 34.581994 
L 364.278615 33.631726 
L 368.00812 32.696134 
L 371.737625 31.774737 
L 375.467131 30.867416 
L 379.196636 29.973512 
L 382.926091 29.093265 
L 386.655596 28.225716 
L 390.385101 27.371104 
L 394.114556 26.528772 
L 397.844061 25.698898 
L 401.573567 24.880584 
L 405.303072 24.074309 
L 409.032527 23.279176 
L 412.762032 22.495303 
L 416.491537 21.722451 
L 420.220992 20.96014 
L 423.950497 20.208492 
L 427.680003 19.467026 
L 431.409508 18.735683 
L 435.139013 18.014103 
" clip-path="url(#pc5a44d6c05)" style="fill: none; stroke: #000000; stroke-linecap: square"/>
   </g>
   <g id="patch_3">
    <path d="M 47.45829 245.110261 
L 47.45829 7.2 
" style="fill: none; stroke: #000000; stroke-width: 0.8; stroke-linejoin: miter; stroke-linecap: square"/>
   </g>
   <g id="patch_4">
    <path d="M 453.6 245.110261 
L 453.6 7.2 
" style="fill: none; stroke: #000000; stroke-width: 0.8; stroke-linejoin: miter; stroke-linecap: square"/>
   </g>
   <g id="patch_5">
    <path d="M 47.45829 245.110261 
L 453.6 245.110261 
" style="fill: none; stroke: #000000; stroke-width: 0.8; stroke-linejoin: miter; stroke-linecap: square"/>
   </g>
   <g id="patch_6">
    <path d="M 47.45829 7.2 
L 453.6 7.2 
" style="fill: none; stroke: #000000; stroke-width: 0.8; stroke-linejoin: miter; stroke-linecap: square"/>
   </g>
  </g>
 </g>
 <defs>
  <clipPath id="pc5a44d6c05">
   <rect x="47.45829" y="7.2" width="406.14171" height="237.910261"/>
  </clipPath>
 </defs>
</svg>
