<?xml version="1.0" encoding="utf-8" standalone="no"?>
<!DOCTYPE svg PUBLIC "-//W3C//DTD SVG 1.1//EN"
  "http://www.w3.org/Graphics/SVG/1.1/DTD/svg11.dtd">
<svg xmlns:xlink="http://www.w3.org/1999/xlink" width="494.43962pt" height="343.562821pt" viewBox="0 0 494.43962 343.562821" xmlns="http://www.w3.org/2000/svg" version="1.1">
 <metadata>
  <rdf:RDF xmlns:dc="http://purl.org/dc/elements/1.1/" xmlns:cc="http://creativecommons.org/ns#" xmlns:rdf="http://www.w3.org/1999/02/22-rdf-syntax-ns#">
   <cc:Work>
    <dc:type rdf:resource="http://purl.org/dc/dcmitype/StillImage"/>
    <dc:date>2025-01-20T19:56:21.275452</dc:date>
    <dc:format>image/svg+xml</dc:format>
    <dc:creator>
     <cc:Agent>
      <dc:title>Matplotlib v3.9.0, https://matplotlib.org/</dc:title>
     </cc:Agent>
    </dc:creator>
   </cc:Work>
  </rdf:RDF>
 </metadata>
 <defs>
  <style type="text/css">*{stroke-linejoin: round; stroke-linecap: butt}</style>
 </defs>
 <g id="figure_1">
  <g id="patch_1">
   <path d="M 0 343.562821 
L 494.43962 343.562821 
L 494.43962 0 
L 0 0 
z
" style="fill: #ffffff"/>
  </g>
  <g id="axes_1">
   <g id="patch_2">
    <path d="M 47.31962 167.712 
L 487.23962 167.712 
L 487.23962 7.2 
L 47.31962 7.2 
z
" style="fill: #ffffff"/>
   </g>
   <g id="matplotlib.axis_1">
    <g id="xtick_1">
     <g id="line2d_1">
      <defs>
       <path id="m9b2e7200a1" d="M 0 0 
L 0 -3.5 
" style="stroke: #000000; stroke-width: 0.8"/>
      </defs>
      <g>
       <use xlink:href="#m9b2e7200a1" x="67.315983" y="167.712" style="stroke: #000000; stroke-width: 0.8"/>
      </g>
     </g>
     <g id="text_1">
      <!-- $\mathdefault{0}$ -->
      <g transform="translate(64.588715 178.735271) scale(0.11 -0.11)">
       <defs>
        <path id="TeXGyreTermesX-Bold-30" d="M 3046 2166 
C 3046 3440 2426 4403 1600 4403 
C 1184 4403 762 4123 499 3664 
C 294 3313 154 2714 154 2185 
C 154 873 755 -64 1606 -64 
C 2432 -64 3046 886 3046 2166 
z
M 2035 1434 
C 2035 1058 1984 561 1926 389 
C 1856 203 1754 114 1606 114 
C 1286 114 1165 491 1165 1434 
L 1165 2892 
C 1165 3855 1286 4224 1594 4224 
C 1907 4224 2035 3829 2035 2892 
L 2035 1434 
z
" transform="scale(0.015625)"/>
       </defs>
       <use xlink:href="#TeXGyreTermesX-Bold-30" transform="scale(0.996264)"/>
      </g>
     </g>
    </g>
    <g id="xtick_2">
     <g id="line2d_2">
      <g>
       <use xlink:href="#m9b2e7200a1" x="124.448451" y="167.712" style="stroke: #000000; stroke-width: 0.8"/>
      </g>
     </g>
     <g id="text_2">
      <!-- $\mathdefault{10}$ -->
      <g transform="translate(118.993915 178.735271) scale(0.11 -0.11)">
       <defs>
        <path id="TeXGyreTermesX-Bold-31" d="M 2829 0 
L 2829 159 
C 2246 159 2138 255 2138 746 
L 2138 4384 
L 2029 4384 
L 416 3686 
L 416 3521 
C 474 3540 525 3559 544 3572 
C 717 3635 877 3680 960 3680 
C 1120 3680 1190 3540 1190 3241 
L 1190 790 
C 1190 267 1062 159 429 159 
L 429 0 
L 2829 0 
z
" transform="scale(0.015625)"/>
       </defs>
       <use xlink:href="#TeXGyreTermesX-Bold-31" transform="scale(0.996264)"/>
       <use xlink:href="#TeXGyreTermesX-Bold-30" transform="translate(49.8132 0) scale(0.996264)"/>
      </g>
     </g>
    </g>
    <g id="xtick_3">
     <g id="line2d_3">
      <g>
       <use xlink:href="#m9b2e7200a1" x="181.580918" y="167.712" style="stroke: #000000; stroke-width: 0.8"/>
      </g>
     </g>
     <g id="text_3">
      <!-- $\mathdefault{20}$ -->
      <g transform="translate(176.126382 178.735271) scale(0.11 -0.11)">
       <defs>
        <path id="TeXGyreTermesX-Bold-32" d="M 3059 1341 
L 2906 1341 
C 2720 884 2643 846 1990 846 
L 1024 846 
L 2061 1824 
C 2566 2301 2790 2726 2790 3210 
C 2790 3889 2298 4373 1606 4373 
C 1286 4373 979 4245 755 4016 
C 506 3768 378 3552 198 3075 
L 378 3075 
C 576 3469 813 3648 1158 3648 
C 1440 3648 1651 3527 1792 3298 
C 1869 3164 1920 2987 1920 2841 
C 1920 2561 1798 2211 1594 1900 
C 1267 1405 1043 1137 109 146 
L 109 0 
L 2771 0 
L 3059 1341 
z
" transform="scale(0.015625)"/>
       </defs>
       <use xlink:href="#TeXGyreTermesX-Bold-32" transform="scale(0.996264)"/>
       <use xlink:href="#TeXGyreTermesX-Bold-30" transform="translate(49.8132 0) scale(0.996264)"/>
      </g>
     </g>
    </g>
    <g id="xtick_4">
     <g id="line2d_4">
      <g>
       <use xlink:href="#m9b2e7200a1" x="238.713386" y="167.712" style="stroke: #000000; stroke-width: 0.8"/>
      </g>
     </g>
     <g id="text_4">
      <!-- $\mathdefault{30}$ -->
      <g transform="translate(233.25885 178.735271) scale(0.11 -0.11)">
       <defs>
        <path id="TeXGyreTermesX-Bold-33" d="M 2995 1596 
C 2995 1889 2899 2164 2714 2387 
C 2579 2540 2470 2617 2214 2732 
C 2624 2981 2746 3165 2746 3541 
C 2746 4090 2355 4416 1702 4416 
C 1069 4416 589 4097 237 3440 
L 371 3364 
C 614 3753 826 3900 1158 3900 
C 1562 3900 1811 3645 1811 3242 
C 1811 2822 1587 2598 979 2406 
L 979 2297 
C 1510 2112 1722 2004 1952 1786 
C 2150 1601 2266 1314 2266 1007 
C 2266 548 2022 254 1638 254 
C 1485 254 1363 324 1152 528 
C 902 778 710 880 518 880 
C 275 880 102 728 102 510 
C 102 166 493 -64 1082 -64 
C 2150 -64 2995 664 2995 1596 
z
" transform="scale(0.015625)"/>
       </defs>
       <use xlink:href="#TeXGyreTermesX-Bold-33" transform="scale(0.996264)"/>
       <use xlink:href="#TeXGyreTermesX-Bold-30" transform="translate(49.8132 0) scale(0.996264)"/>
      </g>
     </g>
    </g>
    <g id="xtick_5">
     <g id="line2d_5">
      <g>
       <use xlink:href="#m9b2e7200a1" x="295.845854" y="167.712" style="stroke: #000000; stroke-width: 0.8"/>
      </g>
     </g>
     <g id="text_5">
      <!-- $\mathdefault{40}$ -->
      <g transform="translate(290.391317 178.735271) scale(0.11 -0.11)">
       <defs>
        <path id="TeXGyreTermesX-Bold-34" d="M 3040 896 
L 3040 1602 
L 2637 1602 
L 2637 4352 
L 2125 4352 
L 1747 3863 
C 928 2803 506 2219 122 1615 
L 122 896 
L 1709 896 
L 1709 -32 
L 2637 -32 
L 2637 896 
L 3040 896 
z
M 1722 1602 
L 384 1602 
L 1722 3488 
L 1722 1602 
z
" transform="scale(0.015625)"/>
       </defs>
       <use xlink:href="#TeXGyreTermesX-Bold-34" transform="scale(0.996264)"/>
       <use xlink:href="#TeXGyreTermesX-Bold-30" transform="translate(49.8132 0) scale(0.996264)"/>
      </g>
     </g>
    </g>
    <g id="xtick_6">
     <g id="line2d_6">
      <g>
       <use xlink:href="#m9b2e7200a1" x="352.978321" y="167.712" style="stroke: #000000; stroke-width: 0.8"/>
      </g>
     </g>
     <g id="text_6">
      <!-- $\mathdefault{50}$ -->
      <g transform="translate(347.523785 178.735271) scale(0.11 -0.11)">
       <defs>
        <path id="TeXGyreTermesX-Bold-35" d="M 3008 4288 
L 947 4288 
L 326 2093 
C 934 2049 1197 2010 1478 1921 
C 2048 1743 2387 1381 2387 960 
C 2387 604 2106 324 1747 324 
C 1600 324 1427 400 1171 591 
C 896 795 704 877 538 877 
C 307 877 141 718 141 496 
C 141 159 512 -64 1082 -64 
C 2138 -64 2886 575 2886 1476 
C 2886 2140 2477 2652 1779 2850 
C 1536 2920 1338 2946 813 2946 
L 954 3481 
L 2733 3481 
L 3008 4288 
z
" transform="scale(0.015625)"/>
       </defs>
       <use xlink:href="#TeXGyreTermesX-Bold-35" transform="scale(0.996264)"/>
       <use xlink:href="#TeXGyreTermesX-Bold-30" transform="translate(49.8132 0) scale(0.996264)"/>
      </g>
     </g>
    </g>
    <g id="xtick_7">
     <g id="line2d_7">
      <g>
       <use xlink:href="#m9b2e7200a1" x="410.110789" y="167.712" style="stroke: #000000; stroke-width: 0.8"/>
      </g>
     </g>
     <g id="text_7">
      <!-- $\mathdefault{60}$ -->
      <g transform="translate(404.656252 178.735271) scale(0.11 -0.11)">
       <defs>
        <path id="TeXGyreTermesX-Bold-36" d="M 3040 1427 
C 3040 2193 2573 2688 1843 2688 
C 1638 2688 1498 2663 1306 2580 
C 1542 3515 2074 4030 3008 4221 
L 3008 4387 
C 2157 4266 1760 4126 1274 3796 
C 557 3307 179 2596 179 1752 
C 179 654 768 -64 1664 -64 
C 2458 -64 3040 564 3040 1427 
z
M 2067 1046 
C 2067 298 1990 108 1677 108 
C 1530 108 1414 172 1350 291 
C 1242 501 1178 964 1178 1553 
C 1178 1946 1216 2307 1261 2339 
C 1312 2377 1402 2402 1491 2402 
C 1920 2402 2067 2054 2067 1046 
z
" transform="scale(0.015625)"/>
       </defs>
       <use xlink:href="#TeXGyreTermesX-Bold-36" transform="scale(0.996264)"/>
       <use xlink:href="#TeXGyreTermesX-Bold-30" transform="translate(49.8132 0) scale(0.996264)"/>
      </g>
     </g>
    </g>
    <g id="xtick_8">
     <g id="line2d_8">
      <g>
       <use xlink:href="#m9b2e7200a1" x="467.243256" y="167.712" style="stroke: #000000; stroke-width: 0.8"/>
      </g>
     </g>
     <g id="text_8">
      <!-- $\mathdefault{70}$ -->
      <g transform="translate(461.78872 178.735271) scale(0.11 -0.11)">
       <defs>
        <path id="TeXGyreTermesX-Bold-37" d="M 3053 4327 
L 390 4327 
L 109 2916 
L 269 2916 
C 390 3322 544 3456 896 3456 
L 2221 3456 
L 941 32 
L 1549 32 
L 3053 4327 
z
" transform="scale(0.015625)"/>
       </defs>
       <use xlink:href="#TeXGyreTermesX-Bold-37" transform="scale(0.996264)"/>
       <use xlink:href="#TeXGyreTermesX-Bold-30" transform="translate(49.8132 0) scale(0.996264)"/>
      </g>
     </g>
    </g>
    <g id="xtick_9">
     <g id="line2d_9">
      <defs>
       <path id="mac0f04774a" d="M 0 0 
L 0 -2 
" style="stroke: #000000; stroke-width: 0.6"/>
      </defs>
      <g>
       <use xlink:href="#mac0f04774a" x="55.88949" y="167.712" style="stroke: #000000; stroke-width: 0.6"/>
      </g>
     </g>
    </g>
    <g id="xtick_10">
     <g id="line2d_10">
      <g>
       <use xlink:href="#mac0f04774a" x="78.742477" y="167.712" style="stroke: #000000; stroke-width: 0.6"/>
      </g>
     </g>
    </g>
    <g id="xtick_11">
     <g id="line2d_11">
      <g>
       <use xlink:href="#mac0f04774a" x="90.16897" y="167.712" style="stroke: #000000; stroke-width: 0.6"/>
      </g>
     </g>
    </g>
    <g id="xtick_12">
     <g id="line2d_12">
      <g>
       <use xlink:href="#mac0f04774a" x="101.595464" y="167.712" style="stroke: #000000; stroke-width: 0.6"/>
      </g>
     </g>
    </g>
    <g id="xtick_13">
     <g id="line2d_13">
      <g>
       <use xlink:href="#mac0f04774a" x="113.021957" y="167.712" style="stroke: #000000; stroke-width: 0.6"/>
      </g>
     </g>
    </g>
    <g id="xtick_14">
     <g id="line2d_14">
      <g>
       <use xlink:href="#mac0f04774a" x="135.874944" y="167.712" style="stroke: #000000; stroke-width: 0.6"/>
      </g>
     </g>
    </g>
    <g id="xtick_15">
     <g id="line2d_15">
      <g>
       <use xlink:href="#mac0f04774a" x="147.301438" y="167.712" style="stroke: #000000; stroke-width: 0.6"/>
      </g>
     </g>
    </g>
    <g id="xtick_16">
     <g id="line2d_16">
      <g>
       <use xlink:href="#mac0f04774a" x="158.727931" y="167.712" style="stroke: #000000; stroke-width: 0.6"/>
      </g>
     </g>
    </g>
    <g id="xtick_17">
     <g id="line2d_17">
      <g>
       <use xlink:href="#mac0f04774a" x="170.154425" y="167.712" style="stroke: #000000; stroke-width: 0.6"/>
      </g>
     </g>
    </g>
    <g id="xtick_18">
     <g id="line2d_18">
      <g>
       <use xlink:href="#mac0f04774a" x="193.007412" y="167.712" style="stroke: #000000; stroke-width: 0.6"/>
      </g>
     </g>
    </g>
    <g id="xtick_19">
     <g id="line2d_19">
      <g>
       <use xlink:href="#mac0f04774a" x="204.433905" y="167.712" style="stroke: #000000; stroke-width: 0.6"/>
      </g>
     </g>
    </g>
    <g id="xtick_20">
     <g id="line2d_20">
      <g>
       <use xlink:href="#mac0f04774a" x="215.860399" y="167.712" style="stroke: #000000; stroke-width: 0.6"/>
      </g>
     </g>
    </g>
    <g id="xtick_21">
     <g id="line2d_21">
      <g>
       <use xlink:href="#mac0f04774a" x="227.286893" y="167.712" style="stroke: #000000; stroke-width: 0.6"/>
      </g>
     </g>
    </g>
    <g id="xtick_22">
     <g id="line2d_22">
      <g>
       <use xlink:href="#mac0f04774a" x="250.13988" y="167.712" style="stroke: #000000; stroke-width: 0.6"/>
      </g>
     </g>
    </g>
    <g id="xtick_23">
     <g id="line2d_23">
      <g>
       <use xlink:href="#mac0f04774a" x="261.566373" y="167.712" style="stroke: #000000; stroke-width: 0.6"/>
      </g>
     </g>
    </g>
    <g id="xtick_24">
     <g id="line2d_24">
      <g>
       <use xlink:href="#mac0f04774a" x="272.992867" y="167.712" style="stroke: #000000; stroke-width: 0.6"/>
      </g>
     </g>
    </g>
    <g id="xtick_25">
     <g id="line2d_25">
      <g>
       <use xlink:href="#mac0f04774a" x="284.41936" y="167.712" style="stroke: #000000; stroke-width: 0.6"/>
      </g>
     </g>
    </g>
    <g id="xtick_26">
     <g id="line2d_26">
      <g>
       <use xlink:href="#mac0f04774a" x="307.272347" y="167.712" style="stroke: #000000; stroke-width: 0.6"/>
      </g>
     </g>
    </g>
    <g id="xtick_27">
     <g id="line2d_27">
      <g>
       <use xlink:href="#mac0f04774a" x="318.698841" y="167.712" style="stroke: #000000; stroke-width: 0.6"/>
      </g>
     </g>
    </g>
    <g id="xtick_28">
     <g id="line2d_28">
      <g>
       <use xlink:href="#mac0f04774a" x="330.125334" y="167.712" style="stroke: #000000; stroke-width: 0.6"/>
      </g>
     </g>
    </g>
    <g id="xtick_29">
     <g id="line2d_29">
      <g>
       <use xlink:href="#mac0f04774a" x="341.551828" y="167.712" style="stroke: #000000; stroke-width: 0.6"/>
      </g>
     </g>
    </g>
    <g id="xtick_30">
     <g id="line2d_30">
      <g>
       <use xlink:href="#mac0f04774a" x="364.404815" y="167.712" style="stroke: #000000; stroke-width: 0.6"/>
      </g>
     </g>
    </g>
    <g id="xtick_31">
     <g id="line2d_31">
      <g>
       <use xlink:href="#mac0f04774a" x="375.831308" y="167.712" style="stroke: #000000; stroke-width: 0.6"/>
      </g>
     </g>
    </g>
    <g id="xtick_32">
     <g id="line2d_32">
      <g>
       <use xlink:href="#mac0f04774a" x="387.257802" y="167.712" style="stroke: #000000; stroke-width: 0.6"/>
      </g>
     </g>
    </g>
    <g id="xtick_33">
     <g id="line2d_33">
      <g>
       <use xlink:href="#mac0f04774a" x="398.684295" y="167.712" style="stroke: #000000; stroke-width: 0.6"/>
      </g>
     </g>
    </g>
    <g id="xtick_34">
     <g id="line2d_34">
      <g>
       <use xlink:href="#mac0f04774a" x="421.537282" y="167.712" style="stroke: #000000; stroke-width: 0.6"/>
      </g>
     </g>
    </g>
    <g id="xtick_35">
     <g id="line2d_35">
      <g>
       <use xlink:href="#mac0f04774a" x="432.963776" y="167.712" style="stroke: #000000; stroke-width: 0.6"/>
      </g>
     </g>
    </g>
    <g id="xtick_36">
     <g id="line2d_36">
      <g>
       <use xlink:href="#mac0f04774a" x="444.390269" y="167.712" style="stroke: #000000; stroke-width: 0.6"/>
      </g>
     </g>
    </g>
    <g id="xtick_37">
     <g id="line2d_37">
      <g>
       <use xlink:href="#mac0f04774a" x="455.816763" y="167.712" style="stroke: #000000; stroke-width: 0.6"/>
      </g>
     </g>
    </g>
    <g id="xtick_38">
     <g id="line2d_38">
      <g>
       <use xlink:href="#mac0f04774a" x="478.66975" y="167.712" style="stroke: #000000; stroke-width: 0.6"/>
      </g>
     </g>
    </g>
    <g id="text_9">
     <!-- \textbf{$t$ [hr]} -->
     <g transform="translate(253.90776 193.320561) scale(0.12 -0.12)">
      <defs>
       <path id="NewTXBMI-74" d="M 1440 837 
L 1299 926 
C 1082 588 915 415 813 415 
C 762 415 710 460 710 511 
C 710 632 826 1073 1056 1864 
L 1267 2624 
L 1798 2624 
L 1798 2893 
L 1338 2893 
L 1587 3808 
L 1363 3808 
C 1018 3303 698 3037 192 2848 
L 192 2624 
L 518 2624 
L 83 1105 
C -13 773 -70 499 -70 383 
C -70 135 109 -32 378 -32 
C 762 -32 1018 180 1440 837 
z
" transform="scale(0.015625)"/>
       <path id="TeXGyreTermesX-Bold-5b" d="M 1926 -960 
L 1926 -750 
L 1414 -750 
C 1152 -750 1094 -686 1094 -413 
L 1094 3650 
C 1094 4020 1165 4096 1523 4096 
L 1926 4096 
L 1926 4306 
L 429 4306 
L 429 -960 
L 1926 -960 
z
" transform="scale(0.015625)"/>
       <path id="TeXGyreTermesX-Bold-68" d="M 3418 -32 
L 3418 121 
C 3187 140 3104 235 3104 503 
L 3104 2086 
C 3104 2635 2765 2986 2240 2986 
C 1901 2986 1664 2859 1331 2490 
L 1331 4288 
L 102 4288 
L 102 4134 
C 397 4076 442 4024 442 3763 
L 442 504 
C 442 236 390 178 102 121 
L 102 -32 
L 1645 -32 
L 1645 121 
C 1408 152 1331 249 1331 485 
L 1331 2190 
C 1331 2216 1376 2279 1440 2336 
C 1581 2484 1734 2560 1882 2560 
C 2106 2560 2214 2387 2214 2030 
L 2214 484 
C 2214 249 2131 146 1914 121 
L 1914 -32 
L 3418 -32 
z
" transform="scale(0.015625)"/>
       <path id="TeXGyreTermesX-Bold-72" d="M 2778 2512 
C 2778 2798 2560 3008 2259 3008 
C 1939 3008 1696 2836 1395 2410 
L 1395 2932 
L 186 2932 
L 186 2779 
C 461 2741 531 2658 531 2404 
L 531 533 
C 531 272 467 203 186 152 
L 186 0 
L 1888 0 
L 1888 165 
C 1498 165 1421 248 1421 645 
L 1421 1854 
C 1421 2186 1600 2461 1811 2461 
C 1862 2461 1920 2417 1990 2315 
C 2112 2143 2208 2086 2374 2086 
C 2611 2086 2778 2264 2778 2512 
z
" transform="scale(0.015625)"/>
       <path id="TeXGyreTermesX-Bold-5d" d="M 1702 -960 
L 1702 4306 
L 205 4306 
L 205 4096 
L 608 4096 
C 966 4096 1037 4020 1037 3650 
L 1037 -413 
C 1037 -693 986 -750 717 -750 
L 205 -750 
L 205 -960 
L 1702 -960 
z
" transform="scale(0.015625)"/>
      </defs>
      <use xlink:href="#NewTXBMI-74" transform="scale(0.996264)"/>
      <use xlink:href="#TeXGyreTermesX-Bold-5b" transform="translate(56.886681 0) scale(0.996264)"/>
      <use xlink:href="#TeXGyreTermesX-Bold-68" transform="translate(90.062291 0) scale(0.996264)"/>
      <use xlink:href="#TeXGyreTermesX-Bold-72" transform="translate(145.454545 0) scale(0.996264)"/>
      <use xlink:href="#TeXGyreTermesX-Bold-5d" transform="translate(189.688692 0) scale(0.996264)"/>
     </g>
    </g>
   </g>
   <g id="matplotlib.axis_2">
    <g id="ytick_1">
     <g id="line2d_39">
      <defs>
       <path id="m9fe7f49602" d="M 0 0 
L 3.5 0 
" style="stroke: #000000; stroke-width: 0.8"/>
      </defs>
      <g>
       <use xlink:href="#m9fe7f49602" x="47.31962" y="160.416" style="stroke: #000000; stroke-width: 0.8"/>
      </g>
     </g>
     <g id="text_10">
      <!-- $\mathdefault{0.0}$ -->
      <g transform="translate(29.823278 164.177635) scale(0.11 -0.11)">
       <defs>
        <path id="NewTXBMI-93" d="M 1344 473 
C 1344 768 1101 1017 800 1017 
C 493 1017 262 761 262 473 
C 262 173 493 -64 800 -64 
C 1101 -64 1344 166 1344 473 
z
" transform="scale(0.015625)"/>
       </defs>
       <use xlink:href="#TeXGyreTermesX-Bold-30" transform="scale(0.996264)"/>
       <use xlink:href="#NewTXBMI-93" transform="translate(51.407199 0) scale(0.996264)"/>
       <use xlink:href="#TeXGyreTermesX-Bold-30" transform="translate(78.00746 0) scale(0.996264)"/>
      </g>
     </g>
    </g>
    <g id="ytick_2">
     <g id="line2d_40">
      <g>
       <use xlink:href="#m9fe7f49602" x="47.31962" y="131.150441" style="stroke: #000000; stroke-width: 0.8"/>
      </g>
     </g>
     <g id="text_11">
      <!-- $\mathdefault{0.2}$ -->
      <g transform="translate(29.823278 134.912077) scale(0.11 -0.11)">
       <use xlink:href="#TeXGyreTermesX-Bold-30" transform="scale(0.996264)"/>
       <use xlink:href="#NewTXBMI-93" transform="translate(51.407199 0) scale(0.996264)"/>
       <use xlink:href="#TeXGyreTermesX-Bold-32" transform="translate(78.00746 0) scale(0.996264)"/>
      </g>
     </g>
    </g>
    <g id="ytick_3">
     <g id="line2d_41">
      <g>
       <use xlink:href="#m9fe7f49602" x="47.31962" y="101.884883" style="stroke: #000000; stroke-width: 0.8"/>
      </g>
     </g>
     <g id="text_12">
      <!-- $\mathdefault{0.4}$ -->
      <g transform="translate(29.823278 105.646518) scale(0.11 -0.11)">
       <use xlink:href="#TeXGyreTermesX-Bold-30" transform="scale(0.996264)"/>
       <use xlink:href="#NewTXBMI-93" transform="translate(51.407199 0) scale(0.996264)"/>
       <use xlink:href="#TeXGyreTermesX-Bold-34" transform="translate(78.00746 0) scale(0.996264)"/>
      </g>
     </g>
    </g>
    <g id="ytick_4">
     <g id="line2d_42">
      <g>
       <use xlink:href="#m9fe7f49602" x="47.31962" y="72.619324" style="stroke: #000000; stroke-width: 0.8"/>
      </g>
     </g>
     <g id="text_13">
      <!-- $\mathdefault{0.6}$ -->
      <g transform="translate(29.823278 76.38096) scale(0.11 -0.11)">
       <use xlink:href="#TeXGyreTermesX-Bold-30" transform="scale(0.996264)"/>
       <use xlink:href="#NewTXBMI-93" transform="translate(51.407199 0) scale(0.996264)"/>
       <use xlink:href="#TeXGyreTermesX-Bold-36" transform="translate(78.00746 0) scale(0.996264)"/>
      </g>
     </g>
    </g>
    <g id="ytick_5">
     <g id="line2d_43">
      <g>
       <use xlink:href="#m9fe7f49602" x="47.31962" y="43.353766" style="stroke: #000000; stroke-width: 0.8"/>
      </g>
     </g>
     <g id="text_14">
      <!-- $\mathdefault{0.8}$ -->
      <g transform="translate(29.823278 47.115401) scale(0.11 -0.11)">
       <defs>
        <path id="TeXGyreTermesX-Bold-38" d="M 3021 1212 
C 3021 1768 2746 2164 2061 2597 
C 2675 2815 2931 3075 2931 3483 
C 2931 4051 2445 4409 1683 4409 
C 819 4409 250 3961 250 3292 
C 250 2814 506 2462 1139 2086 
C 774 1965 627 1881 461 1722 
C 275 1543 179 1301 179 1020 
C 179 370 723 -64 1536 -64 
C 2426 -64 3021 447 3021 1212 
z
M 2170 3439 
C 2170 3139 2118 2993 1907 2712 
C 1370 2986 1075 3337 1075 3694 
C 1075 3994 1306 4224 1606 4224 
C 1965 4224 2170 3937 2170 3439 
z
M 2131 829 
C 2131 402 1920 140 1574 140 
C 1184 140 954 478 954 1046 
C 954 1397 1024 1595 1280 1971 
C 1978 1505 2131 1301 2131 829 
z
" transform="scale(0.015625)"/>
       </defs>
       <use xlink:href="#TeXGyreTermesX-Bold-30" transform="scale(0.996264)"/>
       <use xlink:href="#NewTXBMI-93" transform="translate(51.407199 0) scale(0.996264)"/>
       <use xlink:href="#TeXGyreTermesX-Bold-38" transform="translate(78.00746 0) scale(0.996264)"/>
      </g>
     </g>
    </g>
    <g id="ytick_6">
     <g id="line2d_44">
      <g>
       <use xlink:href="#m9fe7f49602" x="47.31962" y="14.088207" style="stroke: #000000; stroke-width: 0.8"/>
      </g>
     </g>
     <g id="text_15">
      <!-- $\mathdefault{1.0}$ -->
      <g transform="translate(29.823278 17.849842) scale(0.11 -0.11)">
       <use xlink:href="#TeXGyreTermesX-Bold-31" transform="scale(0.996264)"/>
       <use xlink:href="#NewTXBMI-93" transform="translate(51.407199 0) scale(0.996264)"/>
       <use xlink:href="#TeXGyreTermesX-Bold-30" transform="translate(78.00746 0) scale(0.996264)"/>
      </g>
     </g>
    </g>
    <g id="ytick_7">
     <g id="line2d_45">
      <defs>
       <path id="m69450e5990" d="M 0 0 
L 2 0 
" style="stroke: #000000; stroke-width: 0.6"/>
      </defs>
      <g>
       <use xlink:href="#m69450e5990" x="47.31962" y="166.269112" style="stroke: #000000; stroke-width: 0.6"/>
      </g>
     </g>
    </g>
    <g id="ytick_8">
     <g id="line2d_46">
      <g>
       <use xlink:href="#m69450e5990" x="47.31962" y="154.562888" style="stroke: #000000; stroke-width: 0.6"/>
      </g>
     </g>
    </g>
    <g id="ytick_9">
     <g id="line2d_47">
      <g>
       <use xlink:href="#m69450e5990" x="47.31962" y="148.709777" style="stroke: #000000; stroke-width: 0.6"/>
      </g>
     </g>
    </g>
    <g id="ytick_10">
     <g id="line2d_48">
      <g>
       <use xlink:href="#m69450e5990" x="47.31962" y="142.856665" style="stroke: #000000; stroke-width: 0.6"/>
      </g>
     </g>
    </g>
    <g id="ytick_11">
     <g id="line2d_49">
      <g>
       <use xlink:href="#m69450e5990" x="47.31962" y="137.003553" style="stroke: #000000; stroke-width: 0.6"/>
      </g>
     </g>
    </g>
    <g id="ytick_12">
     <g id="line2d_50">
      <g>
       <use xlink:href="#m69450e5990" x="47.31962" y="125.29733" style="stroke: #000000; stroke-width: 0.6"/>
      </g>
     </g>
    </g>
    <g id="ytick_13">
     <g id="line2d_51">
      <g>
       <use xlink:href="#m69450e5990" x="47.31962" y="119.444218" style="stroke: #000000; stroke-width: 0.6"/>
      </g>
     </g>
    </g>
    <g id="ytick_14">
     <g id="line2d_52">
      <g>
       <use xlink:href="#m69450e5990" x="47.31962" y="113.591106" style="stroke: #000000; stroke-width: 0.6"/>
      </g>
     </g>
    </g>
    <g id="ytick_15">
     <g id="line2d_53">
      <g>
       <use xlink:href="#m69450e5990" x="47.31962" y="107.737995" style="stroke: #000000; stroke-width: 0.6"/>
      </g>
     </g>
    </g>
    <g id="ytick_16">
     <g id="line2d_54">
      <g>
       <use xlink:href="#m69450e5990" x="47.31962" y="96.031771" style="stroke: #000000; stroke-width: 0.6"/>
      </g>
     </g>
    </g>
    <g id="ytick_17">
     <g id="line2d_55">
      <g>
       <use xlink:href="#m69450e5990" x="47.31962" y="90.178659" style="stroke: #000000; stroke-width: 0.6"/>
      </g>
     </g>
    </g>
    <g id="ytick_18">
     <g id="line2d_56">
      <g>
       <use xlink:href="#m69450e5990" x="47.31962" y="84.325548" style="stroke: #000000; stroke-width: 0.6"/>
      </g>
     </g>
    </g>
    <g id="ytick_19">
     <g id="line2d_57">
      <g>
       <use xlink:href="#m69450e5990" x="47.31962" y="78.472436" style="stroke: #000000; stroke-width: 0.6"/>
      </g>
     </g>
    </g>
    <g id="ytick_20">
     <g id="line2d_58">
      <g>
       <use xlink:href="#m69450e5990" x="47.31962" y="66.766212" style="stroke: #000000; stroke-width: 0.6"/>
      </g>
     </g>
    </g>
    <g id="ytick_21">
     <g id="line2d_59">
      <g>
       <use xlink:href="#m69450e5990" x="47.31962" y="60.913101" style="stroke: #000000; stroke-width: 0.6"/>
      </g>
     </g>
    </g>
    <g id="ytick_22">
     <g id="line2d_60">
      <g>
       <use xlink:href="#m69450e5990" x="47.31962" y="55.059989" style="stroke: #000000; stroke-width: 0.6"/>
      </g>
     </g>
    </g>
    <g id="ytick_23">
     <g id="line2d_61">
      <g>
       <use xlink:href="#m69450e5990" x="47.31962" y="49.206877" style="stroke: #000000; stroke-width: 0.6"/>
      </g>
     </g>
    </g>
    <g id="ytick_24">
     <g id="line2d_62">
      <g>
       <use xlink:href="#m69450e5990" x="47.31962" y="37.500654" style="stroke: #000000; stroke-width: 0.6"/>
      </g>
     </g>
    </g>
    <g id="ytick_25">
     <g id="line2d_63">
      <g>
       <use xlink:href="#m69450e5990" x="47.31962" y="31.647542" style="stroke: #000000; stroke-width: 0.6"/>
      </g>
     </g>
    </g>
    <g id="ytick_26">
     <g id="line2d_64">
      <g>
       <use xlink:href="#m69450e5990" x="47.31962" y="25.79443" style="stroke: #000000; stroke-width: 0.6"/>
      </g>
     </g>
    </g>
    <g id="ytick_27">
     <g id="line2d_65">
      <g>
       <use xlink:href="#m69450e5990" x="47.31962" y="19.941319" style="stroke: #000000; stroke-width: 0.6"/>
      </g>
     </g>
    </g>
    <g id="ytick_28">
     <g id="line2d_66">
      <g>
       <use xlink:href="#m69450e5990" x="47.31962" y="8.235095" style="stroke: #000000; stroke-width: 0.6"/>
      </g>
     </g>
    </g>
    <g id="text_16">
     <!-- $Y(t)$ -->
     <g transform="translate(23.229018 98.586259) rotate(-90) scale(0.12 -0.12)">
      <defs>
       <path id="NewTXBMI-5f" d="M 4218 4127 
L 4218 4288 
L 2886 4288 
L 2886 4121 
C 3226 4121 3315 4063 3315 3838 
C 3315 3722 3283 3645 3149 3452 
L 2323 2256 
L 2163 2751 
L 2042 3130 
C 1894 3555 1830 3780 1830 3896 
C 1830 4076 1926 4121 2278 4121 
L 2278 4288 
L 467 4288 
L 467 4127 
C 794 4082 813 4063 934 3723 
L 1498 2006 
L 1114 622 
C 998 256 909 192 467 160 
L 467 0 
L 2528 0 
L 2528 166 
C 2112 166 2035 211 2035 449 
C 2035 533 2042 578 2086 739 
L 2419 1966 
L 3635 3683 
C 3853 3978 3974 4075 4218 4127 
z
" transform="scale(0.015625)"/>
       <path id="txbsys-b9" d="M 2016 4589 
C 1088 3987 435 3078 435 1645 
C 435 326 1114 -749 1997 -1293 
L 2163 -1062 
C 1318 -397 1178 634 1178 1664 
C 1178 2701 1338 3693 2163 4358 
L 2016 4589 
z
" transform="scale(0.015625)"/>
       <path id="txbsys-ba" d="M 582 4589 
L 435 4358 
C 1261 3693 1421 2701 1421 1664 
C 1421 634 1280 -397 435 -1062 
L 602 -1293 
C 1485 -749 2163 326 2163 1645 
C 2163 3078 1510 3987 582 4589 
z
" transform="scale(0.015625)"/>
      </defs>
      <use xlink:href="#NewTXBMI-5f" transform="scale(0.996264)"/>
      <use xlink:href="#txbsys-b9" transform="translate(73.623919 0) scale(0.996264)"/>
      <use xlink:href="#NewTXBMI-74" transform="translate(115.865477 0) scale(0.996264)"/>
      <use xlink:href="#txbsys-ba" transform="translate(147.845558 0) scale(0.996264)"/>
     </g>
    </g>
   </g>
   <g id="line2d_67">
    <path d="M 67.315983 160.416 
L 78.33409 160.305036 
L 82.377395 160.013422 
L 85.828802 159.54492 
L 88.964263 158.896934 
L 91.899759 158.064592 
L 94.707276 157.038094 
L 97.434808 155.803807 
L 100.114347 154.346228 
L 102.77389 152.644938 
L 105.437432 150.67519 
L 108.12897 148.405477 
L 110.868499 145.80105 
L 113.680016 142.817076 
L 116.587516 139.401689 
L 119.618995 135.491556 
L 122.810447 131.005601 
L 124.778109 128.322934 
L 130.833068 123.726147 
L 137.311955 118.523811 
L 144.426732 112.519336 
L 152.605326 105.316252 
L 163.207505 95.661161 
L 187.947253 73.027843 
L 196.28582 65.771379 
L 203.508579 59.77491 
L 210.103445 54.584343 
L 216.286383 49.997331 
L 222.189369 45.891983 
L 227.892388 42.194056 
L 233.463431 38.844879 
L 238.742524 35.924019 
L 249.740634 33.275007 
L 260.790735 30.842184 
L 271.960815 28.610852 
L 283.318863 26.569232 
L 294.936867 24.707595 
L 306.894812 23.017719 
L 319.288682 21.492134 
L 332.230458 20.124735 
L 345.868114 18.909421 
L 360.38562 17.841433 
L 376.030931 16.91644 
L 393.159987 16.130162 
L 412.300698 15.47876 
L 434.304917 14.958396 
L 460.680384 14.56522 
L 467.243256 14.496156 
L 467.243256 14.496156 
" clip-path="url(#p02173a7a57)" style="fill: none; stroke: #000000; stroke-width: 1.5; stroke-linecap: square"/>
   </g>
   <g id="line2d_68">
    <path d="M 67.315983 160.416 
L 78.33409 160.304959 
L 82.377395 160.013244 
L 85.828802 159.544626 
L 88.960264 158.897491 
L 91.895759 158.06533 
L 94.703277 157.039024 
L 97.430808 155.804941 
L 100.110348 154.347574 
L 102.769891 152.646507 
L 105.433433 150.676991 
L 108.12497 148.407519 
L 110.8645 145.80334 
L 113.676016 142.819621 
L 116.583517 139.404495 
L 119.614996 135.494625 
L 122.806447 131.008933 
L 124.782108 128.315565 
L 130.837067 123.71833 
L 137.319953 118.512275 
L 144.434731 112.507252 
L 152.613325 105.303695 
L 163.219502 95.64458 
L 187.927256 73.040267 
L 196.269823 65.779876 
L 203.492582 59.78299 
L 210.087448 54.591981 
L 216.270386 50.004511 
L 222.173371 45.898696 
L 227.880391 42.197799 
L 233.451433 38.848339 
L 238.742524 35.920016 
L 249.740634 33.271336 
L 260.790735 30.83884 
L 271.960815 28.60783 
L 283.318863 26.566525 
L 294.936867 24.705195 
L 306.894812 23.015615 
L 319.288682 21.490313 
L 332.234457 20.122796 
L 345.872114 18.907802 
L 360.389619 17.840113 
L 376.03893 16.915186 
L 393.171985 16.12905 
L 412.316695 15.477844 
L 434.328912 14.957633 
L 460.712378 14.564681 
L 467.243256 14.496 
L 467.243256 14.496 
" clip-path="url(#p02173a7a57)" style="fill: none; stroke-dasharray: 3.7,1.6; stroke-dashoffset: 0; stroke: #00ffff"/>
   </g>
   <g id="patch_3">
    <path d="M 47.31962 167.712 
L 47.31962 7.2 
" style="fill: none; stroke: #000000; stroke-width: 0.8; stroke-linejoin: miter; stroke-linecap: square"/>
   </g>
   <g id="patch_4">
    <path d="M 487.23962 167.712 
L 487.23962 7.2 
" style="fill: none; stroke: #000000; stroke-width: 0.8; stroke-linejoin: miter; stroke-linecap: square"/>
   </g>
   <g id="patch_5">
    <path d="M 47.31962 167.712 
L 487.23962 167.712 
" style="fill: none; stroke: #000000; stroke-width: 0.8; stroke-linejoin: miter; stroke-linecap: square"/>
   </g>
   <g id="patch_6">
    <path d="M 47.31962 7.2 
L 487.23962 7.2 
" style="fill: none; stroke: #000000; stroke-width: 0.8; stroke-linejoin: miter; stroke-linecap: square"/>
   </g>
   <g id="legend_1">
    <g id="patch_7">
     <path d="M 55.71962 50.78852 
L 188.780632 50.78852 
Q 191.180632 50.78852 191.180632 48.38852 
L 191.180632 15.6 
Q 191.180632 13.2 188.780632 13.2 
L 55.71962 13.2 
Q 53.31962 13.2 53.31962 15.6 
L 53.31962 48.38852 
Q 53.31962 50.78852 55.71962 50.78852 
z
" style="fill: #ffffff; opacity: 0.8; stroke: #cccccc; stroke-linejoin: miter"/>
    </g>
    <g id="line2d_69">
     <path d="M 58.11962 22.2 
L 70.11962 22.2 
L 82.11962 22.2 
" style="fill: none; stroke: #000000; stroke-width: 1.5; stroke-linecap: square"/>
    </g>
    <g id="text_17">
     <!-- \textbf{RXMAT} -->
     <g transform="translate(91.71962 26.4) scale(0.12 -0.12)">
      <defs>
       <path id="TeXGyreTermesX-Bold-52" d="M 4576 0 
L 4576 159 
C 4461 159 4378 197 4314 280 
L 3027 2086 
C 3405 2207 3565 2290 3744 2448 
C 3930 2620 4032 2873 4032 3159 
C 4032 3889 3398 4288 2227 4288 
L 166 4288 
L 166 4110 
C 640 4110 730 4015 730 3557 
L 730 744 
C 730 280 666 216 166 159 
L 166 0 
L 2330 0 
L 2330 159 
C 1830 223 1766 292 1766 742 
L 1766 1984 
L 1939 1984 
L 3264 0 
L 4576 0 
z
M 2938 3130 
C 2938 2723 2842 2474 2637 2340 
C 2470 2232 2253 2187 1766 2187 
L 1766 3805 
C 1766 3843 1792 3938 1811 3977 
C 1850 4040 1952 4072 2112 4072 
C 2701 4072 2938 3799 2938 3130 
z
" transform="scale(0.015625)"/>
       <path id="TeXGyreTermesX-Bold-58" d="M 4474 0 
L 4474 159 
C 4256 159 4160 242 3853 700 
L 2688 2499 
L 3200 3203 
C 3763 3964 3930 4085 4403 4129 
L 4403 4288 
L 2803 4288 
L 2803 4129 
C 2861 4119 2912 4119 2931 4110 
C 3187 4110 3264 4053 3264 3900 
C 3264 3765 3194 3632 2893 3225 
L 2534 2734 
L 1914 3686 
C 1830 3812 1818 3844 1818 3920 
C 1818 4058 1894 4110 2125 4110 
C 2157 4110 2234 4110 2323 4129 
L 2323 4288 
L 109 4288 
L 109 4129 
C 339 4110 422 4047 621 3761 
L 1888 1916 
L 768 514 
C 576 280 422 197 102 159 
L 102 0 
L 1702 0 
L 1702 159 
C 1312 197 1184 261 1184 419 
C 1184 559 1312 761 1786 1395 
L 2029 1719 
L 2675 675 
C 2752 552 2810 398 2810 327 
C 2810 218 2701 159 2477 159 
C 2451 159 2381 159 2298 159 
L 2298 0 
L 4474 0 
z
" transform="scale(0.015625)"/>
       <path id="TeXGyreTermesX-Bold-4d" d="M 5894 -32 
L 5894 127 
C 5395 191 5331 262 5331 715 
L 5331 3540 
C 5331 4001 5427 4096 5894 4096 
L 5894 4274 
L 4282 4274 
L 3002 1268 
L 1722 4274 
L 102 4274 
L 102 4115 
C 570 4077 672 3994 672 3663 
L 672 637 
C 672 254 589 178 90 127 
L 90 -32 
L 1587 -32 
L 1587 127 
C 1062 165 941 286 941 758 
L 941 3752 
L 2554 -32 
L 2726 -32 
L 4339 3848 
L 4339 605 
C 4339 248 4250 172 3770 127 
L 3770 -32 
L 5894 -32 
z
" transform="scale(0.015625)"/>
       <path id="TeXGyreTermesX-Bold-41" d="M 4410 0 
L 4410 159 
C 4128 159 4058 248 3712 1042 
L 2285 4384 
L 2106 4384 
L 685 902 
C 442 305 365 216 58 159 
L 58 0 
L 1357 0 
L 1357 159 
C 979 159 832 232 832 406 
C 832 492 877 647 1018 1013 
L 1114 1280 
L 2554 1280 
C 2771 761 2848 532 2848 387 
C 2848 243 2765 184 2541 184 
L 2336 159 
L 2336 0 
L 4410 0 
z
M 2458 1528 
L 1210 1528 
L 1811 3057 
L 2458 1528 
z
" transform="scale(0.015625)"/>
       <path id="TeXGyreTermesX-Bold-54" d="M 4070 3013 
L 4058 4288 
L 218 4288 
L 198 3013 
L 384 3013 
C 493 3777 826 4072 1619 4072 
L 1619 740 
C 1619 272 1549 204 998 159 
L 998 0 
L 3283 0 
L 3283 178 
C 2726 178 2656 242 2656 724 
L 2656 4072 
C 3443 4072 3776 3777 3885 3013 
L 4070 3013 
z
" transform="scale(0.015625)"/>
      </defs>
      <use xlink:href="#TeXGyreTermesX-Bold-52" transform="scale(0.996264)"/>
      <use xlink:href="#TeXGyreTermesX-Bold-58" transform="translate(71.930274 0) scale(0.996264)"/>
      <use xlink:href="#TeXGyreTermesX-Bold-4d" transform="translate(143.860547 0) scale(0.996264)"/>
      <use xlink:href="#TeXGyreTermesX-Bold-41" transform="translate(237.907894 0) scale(0.996264)"/>
      <use xlink:href="#TeXGyreTermesX-Bold-54" transform="translate(303.860538 0) scale(0.996264)"/>
     </g>
    </g>
    <g id="line2d_70">
     <path d="M 58.11962 39.19426 
L 70.11962 39.19426 
L 82.11962 39.19426 
" style="fill: none; stroke-dasharray: 3.7,1.6; stroke-dashoffset: 0; stroke: #00ffff"/>
    </g>
    <g id="text_18">
     <!-- \textbf{Continuous Model} -->
     <g transform="translate(91.71962 43.39426) scale(0.12 -0.12)">
      <defs>
       <path id="TeXGyreTermesX-Bold-43" d="M 4397 800 
L 4205 959 
C 3827 565 3622 413 3309 292 
C 3123 216 2912 177 2733 177 
C 2310 177 1907 399 1722 729 
C 1536 1064 1446 1513 1446 2153 
C 1446 3463 1850 4160 2624 4160 
C 2925 4160 3200 4047 3475 3809 
C 3750 3570 3898 3357 4122 2880 
L 4282 2880 
L 4282 4369 
L 4109 4369 
C 4013 4127 3949 4059 3827 4059 
C 3763 4059 3680 4084 3533 4148 
C 3162 4300 2848 4370 2541 4370 
C 1267 4370 314 3394 314 2095 
C 314 790 1248 -128 2579 -128 
C 3315 -128 3750 95 4397 800 
z
" transform="scale(0.015625)"/>
       <path id="TeXGyreTermesX-Bold-6f" d="M 3046 1471 
C 3046 2356 2432 3013 1606 3013 
C 794 3013 160 2349 160 1490 
C 160 587 768 -64 1606 -64 
C 2432 -64 3046 593 3046 1471 
z
M 2106 1433 
C 2106 462 1978 133 1606 133 
C 1229 133 1101 455 1101 1377 
C 1101 2487 1216 2816 1613 2816 
C 1984 2816 2106 2469 2106 1433 
z
" transform="scale(0.015625)"/>
       <path id="TeXGyreTermesX-Bold-6e" d="M 3450 -32 
L 3450 121 
C 3200 140 3136 216 3136 484 
L 3136 2086 
C 3136 2635 2797 2986 2272 2986 
C 1888 2986 1594 2808 1357 2432 
L 1357 2910 
L 134 2910 
L 134 2757 
C 416 2713 474 2649 474 2381 
L 474 503 
C 474 235 422 178 134 121 
L 134 -32 
L 1677 -32 
L 1677 121 
C 1440 152 1363 249 1363 485 
L 1363 2190 
C 1363 2216 1408 2279 1472 2336 
C 1613 2484 1766 2560 1914 2560 
C 2138 2560 2246 2387 2246 2030 
L 2246 484 
C 2246 249 2163 146 1946 121 
L 1946 -32 
L 3450 -32 
z
" transform="scale(0.015625)"/>
       <path id="TeXGyreTermesX-Bold-74" d="M 2125 648 
L 1965 718 
C 1837 476 1734 387 1600 387 
C 1421 387 1350 495 1350 750 
L 1350 2664 
L 1952 2664 
L 1952 2944 
L 1350 2944 
L 1350 4032 
L 1190 4032 
C 800 3479 544 3190 128 2836 
L 128 2664 
L 461 2664 
L 461 603 
C 461 190 736 -64 1178 -64 
C 1606 -64 1862 126 2125 648 
z
" transform="scale(0.015625)"/>
       <path id="TeXGyreTermesX-Bold-69" d="M 1632 -32 
L 1632 121 
C 1408 152 1331 241 1331 484 
L 1331 2908 
L 102 2908 
L 102 2755 
C 384 2698 442 2641 442 2379 
L 442 503 
C 442 241 397 191 102 121 
L 102 -32 
L 1632 -32 
z
M 1370 3882 
C 1370 4162 1152 4372 877 4372 
C 602 4372 384 4162 384 3882 
C 384 3602 602 3392 877 3392 
C 1152 3392 1370 3602 1370 3882 
z
" transform="scale(0.015625)"/>
       <path id="TeXGyreTermesX-Bold-75" d="M 3437 152 
L 3437 305 
C 3155 305 3078 388 3078 660 
L 3078 2944 
L 1792 2944 
L 1792 2792 
C 2112 2767 2189 2690 2189 2419 
L 2189 627 
C 1978 419 1850 349 1664 349 
C 1402 349 1306 476 1306 799 
L 1306 2944 
L 102 2944 
L 102 2792 
C 365 2741 416 2684 416 2419 
L 416 822 
C 416 266 736 -64 1267 -64 
C 1600 -64 1824 38 2195 355 
L 2195 -58 
C 2470 38 2624 63 3040 108 
L 3437 152 
z
" transform="scale(0.015625)"/>
       <path id="TeXGyreTermesX-Bold-73" d="M 2310 899 
C 2310 1348 2067 1627 1427 1887 
C 992 2070 813 2228 813 2444 
C 813 2653 992 2811 1235 2811 
C 1408 2811 1574 2741 1715 2608 
C 1850 2481 1920 2360 2016 2086 
L 2176 2086 
L 2176 3008 
L 2035 3008 
C 1997 2913 1958 2881 1875 2881 
C 1837 2881 1779 2893 1677 2922 
C 1472 2985 1325 3008 1178 3008 
C 595 3008 173 2617 173 2086 
C 173 1669 435 1378 1082 1107 
C 1523 917 1696 759 1696 557 
C 1696 311 1504 146 1216 146 
C 768 146 474 432 339 986 
L 160 986 
L 160 -64 
L 320 -64 
C 390 70 429 114 486 114 
C 518 114 570 102 634 77 
C 819 4 1146 -64 1325 -64 
C 1907 -64 2310 328 2310 899 
z
" transform="scale(0.015625)"/>
       <path id="TeXGyreTermesX-Bold-64" d="M 3418 152 
L 3418 305 
C 3123 305 3040 387 3040 655 
L 3040 4320 
L 1664 4320 
L 1664 4169 
C 2093 4137 2150 4093 2150 3803 
L 2150 2650 
C 1875 2942 1683 3044 1389 3044 
C 685 3044 160 2362 160 1436 
C 160 568 646 -64 1318 -64 
C 1658 -64 1869 38 2170 356 
L 2170 -58 
C 2464 25 2624 57 3021 101 
L 3418 152 
z
M 2150 739 
C 2150 702 2086 597 2010 516 
C 1882 373 1747 305 1606 305 
C 1267 305 1107 687 1107 1493 
C 1107 2313 1280 2688 1651 2688 
C 1862 2688 2061 2534 2150 2292 
L 2150 739 
z
" transform="scale(0.015625)"/>
       <path id="TeXGyreTermesX-Bold-65" d="M 2726 736 
L 2573 826 
C 2310 510 2118 394 1843 394 
C 1600 394 1408 504 1280 723 
C 1158 930 1107 1149 1082 1600 
L 2694 1600 
C 2656 2115 2560 2400 2362 2642 
C 2157 2883 1856 3013 1498 3013 
C 698 3013 160 2388 160 1465 
C 160 543 685 -64 1478 -64 
C 1997 -64 2310 134 2726 736 
z
M 1907 1835 
L 1050 1835 
C 1069 2571 1184 2816 1498 2816 
C 1683 2816 1798 2718 1850 2528 
C 1882 2411 1894 2240 1907 1928 
L 1907 1835 
z
" transform="scale(0.015625)"/>
       <path id="TeXGyreTermesX-Bold-6c" d="M 1632 0 
L 1632 153 
C 1421 153 1318 274 1318 528 
L 1318 4288 
L 102 4288 
L 102 4136 
C 326 4117 429 4002 429 3768 
L 429 533 
C 429 299 320 172 102 153 
L 102 0 
L 1632 0 
z
" transform="scale(0.015625)"/>
      </defs>
      <use xlink:href="#TeXGyreTermesX-Bold-43" transform="scale(0.996264)"/>
      <use xlink:href="#TeXGyreTermesX-Bold-6f" transform="translate(71.930274 0) scale(0.996264)"/>
      <use xlink:href="#TeXGyreTermesX-Bold-6e" transform="translate(121.743474 0) scale(0.996264)"/>
      <use xlink:href="#TeXGyreTermesX-Bold-74" transform="translate(177.135729 0) scale(0.996264)"/>
      <use xlink:href="#TeXGyreTermesX-Bold-69" transform="translate(210.311339 0) scale(0.996264)"/>
      <use xlink:href="#TeXGyreTermesX-Bold-6e" transform="translate(238.007466 0) scale(0.996264)"/>
      <use xlink:href="#TeXGyreTermesX-Bold-75" transform="translate(293.399721 0) scale(0.996264)"/>
      <use xlink:href="#TeXGyreTermesX-Bold-6f" transform="translate(348.791975 0) scale(0.996264)"/>
      <use xlink:href="#TeXGyreTermesX-Bold-75" transform="translate(398.605176 0) scale(0.996264)"/>
      <use xlink:href="#TeXGyreTermesX-Bold-73" transform="translate(453.99743 0) scale(0.996264)"/>
      <use xlink:href="#TeXGyreTermesX-Bold-4d" transform="translate(517.658694 0) scale(0.996264)"/>
      <use xlink:href="#TeXGyreTermesX-Bold-6f" transform="translate(611.706041 0) scale(0.996264)"/>
      <use xlink:href="#TeXGyreTermesX-Bold-64" transform="translate(661.519242 0) scale(0.996264)"/>
      <use xlink:href="#TeXGyreTermesX-Bold-65" transform="translate(716.911496 0) scale(0.996264)"/>
      <use xlink:href="#TeXGyreTermesX-Bold-6c" transform="translate(761.145643 0) scale(0.996264)"/>
     </g>
    </g>
   </g>
  </g>
  <g id="axes_2">
   <g id="patch_8">
    <path d="M 47.31962 308.16 
L 283.10408 308.16 
L 283.10408 201.152 
L 47.31962 201.152 
z
" style="fill: #ffffff"/>
   </g>
   <g id="matplotlib.axis_3">
    <g id="xtick_39">
     <g id="line2d_71">
      <g>
       <use xlink:href="#m9b2e7200a1" x="58.037095" y="308.16" style="stroke: #000000; stroke-width: 0.8"/>
      </g>
     </g>
     <g id="text_19">
      <!-- $\mathdefault{0}$ -->
      <g transform="translate(55.309827 319.183271) scale(0.11 -0.11)">
       <use xlink:href="#TeXGyreTermesX-Bold-30" transform="scale(0.996264)"/>
      </g>
     </g>
    </g>
    <g id="xtick_40">
     <g id="line2d_72">
      <g>
       <use xlink:href="#m9b2e7200a1" x="119.279812" y="308.16" style="stroke: #000000; stroke-width: 0.8"/>
      </g>
     </g>
     <g id="text_20">
      <!-- $\mathdefault{20}$ -->
      <g transform="translate(113.825276 319.183271) scale(0.11 -0.11)">
       <use xlink:href="#TeXGyreTermesX-Bold-32" transform="scale(0.996264)"/>
       <use xlink:href="#TeXGyreTermesX-Bold-30" transform="translate(49.8132 0) scale(0.996264)"/>
      </g>
     </g>
    </g>
    <g id="xtick_41">
     <g id="line2d_73">
      <g>
       <use xlink:href="#m9b2e7200a1" x="180.522529" y="308.16" style="stroke: #000000; stroke-width: 0.8"/>
      </g>
     </g>
     <g id="text_21">
      <!-- $\mathdefault{40}$ -->
      <g transform="translate(175.067993 319.183271) scale(0.11 -0.11)">
       <use xlink:href="#TeXGyreTermesX-Bold-34" transform="scale(0.996264)"/>
       <use xlink:href="#TeXGyreTermesX-Bold-30" transform="translate(49.8132 0) scale(0.996264)"/>
      </g>
     </g>
    </g>
    <g id="xtick_42">
     <g id="line2d_74">
      <g>
       <use xlink:href="#m9b2e7200a1" x="241.765246" y="308.16" style="stroke: #000000; stroke-width: 0.8"/>
      </g>
     </g>
     <g id="text_22">
      <!-- $\mathdefault{60}$ -->
      <g transform="translate(236.31071 319.183271) scale(0.11 -0.11)">
       <use xlink:href="#TeXGyreTermesX-Bold-36" transform="scale(0.996264)"/>
       <use xlink:href="#TeXGyreTermesX-Bold-30" transform="translate(49.8132 0) scale(0.996264)"/>
      </g>
     </g>
    </g>
    <g id="xtick_43">
     <g id="line2d_75">
      <g>
       <use xlink:href="#mac0f04774a" x="70.285639" y="308.16" style="stroke: #000000; stroke-width: 0.6"/>
      </g>
     </g>
    </g>
    <g id="xtick_44">
     <g id="line2d_76">
      <g>
       <use xlink:href="#mac0f04774a" x="82.534182" y="308.16" style="stroke: #000000; stroke-width: 0.6"/>
      </g>
     </g>
    </g>
    <g id="xtick_45">
     <g id="line2d_77">
      <g>
       <use xlink:href="#mac0f04774a" x="94.782725" y="308.16" style="stroke: #000000; stroke-width: 0.6"/>
      </g>
     </g>
    </g>
    <g id="xtick_46">
     <g id="line2d_78">
      <g>
       <use xlink:href="#mac0f04774a" x="107.031269" y="308.16" style="stroke: #000000; stroke-width: 0.6"/>
      </g>
     </g>
    </g>
    <g id="xtick_47">
     <g id="line2d_79">
      <g>
       <use xlink:href="#mac0f04774a" x="131.528356" y="308.16" style="stroke: #000000; stroke-width: 0.6"/>
      </g>
     </g>
    </g>
    <g id="xtick_48">
     <g id="line2d_80">
      <g>
       <use xlink:href="#mac0f04774a" x="143.776899" y="308.16" style="stroke: #000000; stroke-width: 0.6"/>
      </g>
     </g>
    </g>
    <g id="xtick_49">
     <g id="line2d_81">
      <g>
       <use xlink:href="#mac0f04774a" x="156.025442" y="308.16" style="stroke: #000000; stroke-width: 0.6"/>
      </g>
     </g>
    </g>
    <g id="xtick_50">
     <g id="line2d_82">
      <g>
       <use xlink:href="#mac0f04774a" x="168.273986" y="308.16" style="stroke: #000000; stroke-width: 0.6"/>
      </g>
     </g>
    </g>
    <g id="xtick_51">
     <g id="line2d_83">
      <g>
       <use xlink:href="#mac0f04774a" x="192.771073" y="308.16" style="stroke: #000000; stroke-width: 0.6"/>
      </g>
     </g>
    </g>
    <g id="xtick_52">
     <g id="line2d_84">
      <g>
       <use xlink:href="#mac0f04774a" x="205.019616" y="308.16" style="stroke: #000000; stroke-width: 0.6"/>
      </g>
     </g>
    </g>
    <g id="xtick_53">
     <g id="line2d_85">
      <g>
       <use xlink:href="#mac0f04774a" x="217.268159" y="308.16" style="stroke: #000000; stroke-width: 0.6"/>
      </g>
     </g>
    </g>
    <g id="xtick_54">
     <g id="line2d_86">
      <g>
       <use xlink:href="#mac0f04774a" x="229.516703" y="308.16" style="stroke: #000000; stroke-width: 0.6"/>
      </g>
     </g>
    </g>
    <g id="xtick_55">
     <g id="line2d_87">
      <g>
       <use xlink:href="#mac0f04774a" x="254.01379" y="308.16" style="stroke: #000000; stroke-width: 0.6"/>
      </g>
     </g>
    </g>
    <g id="xtick_56">
     <g id="line2d_88">
      <g>
       <use xlink:href="#mac0f04774a" x="266.262333" y="308.16" style="stroke: #000000; stroke-width: 0.6"/>
      </g>
     </g>
    </g>
    <g id="xtick_57">
     <g id="line2d_89">
      <g>
       <use xlink:href="#mac0f04774a" x="278.510876" y="308.16" style="stroke: #000000; stroke-width: 0.6"/>
      </g>
     </g>
    </g>
    <g id="text_23">
     <!-- \textbf{$t$ [hr]} -->
     <g transform="translate(151.83999 333.768561) scale(0.12 -0.12)">
      <use xlink:href="#NewTXBMI-74" transform="scale(0.996264)"/>
      <use xlink:href="#TeXGyreTermesX-Bold-5b" transform="translate(56.886681 0) scale(0.996264)"/>
      <use xlink:href="#TeXGyreTermesX-Bold-68" transform="translate(90.062291 0) scale(0.996264)"/>
      <use xlink:href="#TeXGyreTermesX-Bold-72" transform="translate(145.454545 0) scale(0.996264)"/>
      <use xlink:href="#TeXGyreTermesX-Bold-5d" transform="translate(189.688692 0) scale(0.996264)"/>
     </g>
    </g>
   </g>
   <g id="matplotlib.axis_4">
    <g id="ytick_29">
     <g id="line2d_90">
      <g>
       <use xlink:href="#m9fe7f49602" x="47.31962" y="283.84" style="stroke: #000000; stroke-width: 0.8"/>
      </g>
     </g>
     <g id="text_24">
      <!-- $\mathdefault{1260}$ -->
      <g transform="translate(22.001474 287.601635) scale(0.11 -0.11)">
       <use xlink:href="#TeXGyreTermesX-Bold-31" transform="scale(0.996264)"/>
       <use xlink:href="#TeXGyreTermesX-Bold-32" transform="translate(49.8132 0) scale(0.996264)"/>
       <use xlink:href="#TeXGyreTermesX-Bold-36" transform="translate(99.626401 0) scale(0.996264)"/>
       <use xlink:href="#TeXGyreTermesX-Bold-30" transform="translate(149.439601 0) scale(0.996264)"/>
      </g>
     </g>
    </g>
    <g id="ytick_30">
     <g id="line2d_91">
      <g>
       <use xlink:href="#m9fe7f49602" x="47.31962" y="244.928" style="stroke: #000000; stroke-width: 0.8"/>
      </g>
     </g>
     <g id="text_25">
      <!-- $\mathdefault{1280}$ -->
      <g transform="translate(22.001474 248.689635) scale(0.11 -0.11)">
       <use xlink:href="#TeXGyreTermesX-Bold-31" transform="scale(0.996264)"/>
       <use xlink:href="#TeXGyreTermesX-Bold-32" transform="translate(49.8132 0) scale(0.996264)"/>
       <use xlink:href="#TeXGyreTermesX-Bold-38" transform="translate(99.626401 0) scale(0.996264)"/>
       <use xlink:href="#TeXGyreTermesX-Bold-30" transform="translate(149.439601 0) scale(0.996264)"/>
      </g>
     </g>
    </g>
    <g id="ytick_31">
     <g id="line2d_92">
      <g>
       <use xlink:href="#m9fe7f49602" x="47.31962" y="206.016" style="stroke: #000000; stroke-width: 0.8"/>
      </g>
     </g>
     <g id="text_26">
      <!-- $\mathdefault{1300}$ -->
      <g transform="translate(22.001474 209.777635) scale(0.11 -0.11)">
       <use xlink:href="#TeXGyreTermesX-Bold-31" transform="scale(0.996264)"/>
       <use xlink:href="#TeXGyreTermesX-Bold-33" transform="translate(49.8132 0) scale(0.996264)"/>
       <use xlink:href="#TeXGyreTermesX-Bold-30" transform="translate(99.626401 0) scale(0.996264)"/>
       <use xlink:href="#TeXGyreTermesX-Bold-30" transform="translate(149.439601 0) scale(0.996264)"/>
      </g>
     </g>
    </g>
    <g id="ytick_32">
     <g id="line2d_93">
      <g>
       <use xlink:href="#m69450e5990" x="47.31962" y="307.1872" style="stroke: #000000; stroke-width: 0.6"/>
      </g>
     </g>
    </g>
    <g id="ytick_33">
     <g id="line2d_94">
      <g>
       <use xlink:href="#m69450e5990" x="47.31962" y="299.4048" style="stroke: #000000; stroke-width: 0.6"/>
      </g>
     </g>
    </g>
    <g id="ytick_34">
     <g id="line2d_95">
      <g>
       <use xlink:href="#m69450e5990" x="47.31962" y="291.6224" style="stroke: #000000; stroke-width: 0.6"/>
      </g>
     </g>
    </g>
    <g id="ytick_35">
     <g id="line2d_96">
      <g>
       <use xlink:href="#m69450e5990" x="47.31962" y="276.0576" style="stroke: #000000; stroke-width: 0.6"/>
      </g>
     </g>
    </g>
    <g id="ytick_36">
     <g id="line2d_97">
      <g>
       <use xlink:href="#m69450e5990" x="47.31962" y="268.2752" style="stroke: #000000; stroke-width: 0.6"/>
      </g>
     </g>
    </g>
    <g id="ytick_37">
     <g id="line2d_98">
      <g>
       <use xlink:href="#m69450e5990" x="47.31962" y="260.4928" style="stroke: #000000; stroke-width: 0.6"/>
      </g>
     </g>
    </g>
    <g id="ytick_38">
     <g id="line2d_99">
      <g>
       <use xlink:href="#m69450e5990" x="47.31962" y="252.7104" style="stroke: #000000; stroke-width: 0.6"/>
      </g>
     </g>
    </g>
    <g id="ytick_39">
     <g id="line2d_100">
      <g>
       <use xlink:href="#m69450e5990" x="47.31962" y="237.1456" style="stroke: #000000; stroke-width: 0.6"/>
      </g>
     </g>
    </g>
    <g id="ytick_40">
     <g id="line2d_101">
      <g>
       <use xlink:href="#m69450e5990" x="47.31962" y="229.3632" style="stroke: #000000; stroke-width: 0.6"/>
      </g>
     </g>
    </g>
    <g id="ytick_41">
     <g id="line2d_102">
      <g>
       <use xlink:href="#m69450e5990" x="47.31962" y="221.5808" style="stroke: #000000; stroke-width: 0.6"/>
      </g>
     </g>
    </g>
    <g id="ytick_42">
     <g id="line2d_103">
      <g>
       <use xlink:href="#m69450e5990" x="47.31962" y="213.7984" style="stroke: #000000; stroke-width: 0.6"/>
      </g>
     </g>
    </g>
    <g id="text_27">
     <!-- \textbf{$T$ [$^\circ$C]} -->
     <g transform="translate(15.407214 270.992337) rotate(-90) scale(0.12 -0.12)">
      <defs>
       <path id="NewTXBMI-5a" d="M 3930 3057 
L 4160 4288 
L 634 4288 
L 390 3192 
L 550 3147 
C 883 3792 1286 4057 1939 4057 
L 992 621 
C 902 288 736 160 410 160 
L 320 160 
L 320 0 
L 2438 0 
L 2438 160 
C 1984 160 1907 199 1907 404 
C 1907 501 1933 629 1978 803 
L 2874 4057 
C 3475 4057 3725 3781 3757 3070 
L 3930 3057 
z
" transform="scale(0.015625)"/>
       <path id="txbsys-e" d="M 2955 1640 
C 2955 2347 2386 2915 1676 2915 
C 960 2915 397 2347 397 1640 
C 397 926 960 365 1676 365 
C 2386 365 2955 926 2955 1640 
z
M 2482 1640 
C 2482 1188 2117 838 1676 838 
C 1222 838 870 1188 870 1640 
C 870 2078 1222 2441 1676 2441 
C 2117 2441 2482 2078 2482 1640 
z
" transform="scale(0.015625)"/>
      </defs>
      <use xlink:href="#NewTXBMI-5a" transform="scale(0.996264)"/>
      <use xlink:href="#TeXGyreTermesX-Bold-5b" transform="translate(91.556717 0) scale(0.996264)"/>
      <use xlink:href="#txbsys-e" transform="translate(124.732327 36.164371) scale(0.727268)"/>
      <use xlink:href="#TeXGyreTermesX-Bold-43" transform="translate(163.339336 0) scale(0.996264)"/>
      <use xlink:href="#TeXGyreTermesX-Bold-5d" transform="translate(235.26961 0) scale(0.996264)"/>
     </g>
    </g>
   </g>
   <g id="line2d_104">
    <path d="M 58.037095 206.016 
L 88.657229 206.016 
L 88.768692 254.656 
L 149.89964 254.656 
L 150.011103 303.296 
L 272.386605 303.296 
L 272.386605 303.296 
" clip-path="url(#p3870d35516)" style="fill: none; stroke: #000000; stroke-linecap: square"/>
   </g>
   <g id="patch_9">
    <path d="M 47.31962 308.16 
L 47.31962 201.152 
" style="fill: none; stroke: #000000; stroke-width: 0.8; stroke-linejoin: miter; stroke-linecap: square"/>
   </g>
   <g id="patch_10">
    <path d="M 283.10408 308.16 
L 283.10408 201.152 
" style="fill: none; stroke: #000000; stroke-width: 0.8; stroke-linejoin: miter; stroke-linecap: square"/>
   </g>
   <g id="patch_11">
    <path d="M 47.31962 308.16 
L 283.10408 308.16 
" style="fill: none; stroke: #000000; stroke-width: 0.8; stroke-linejoin: miter; stroke-linecap: square"/>
   </g>
   <g id="patch_12">
    <path d="M 47.31962 201.152 
L 283.10408 201.152 
" style="fill: none; stroke: #000000; stroke-width: 0.8; stroke-linejoin: miter; stroke-linecap: square"/>
   </g>
  </g>
  <g id="axes_3">
   <g id="patch_13">
    <path d="M 319.500339 308.16 
L 487.23962 308.16 
L 487.23962 201.152 
L 319.500339 201.152 
z
" style="fill: #ffffff"/>
   </g>
   <g id="PathCollection_1">
    <defs>
     <path id="mca7f432bdd" d="M 0 3.162278 
C 0.838646 3.162278 1.643056 2.82908 2.236068 2.236068 
C 2.82908 1.643056 3.162278 0.838646 3.162278 0 
C 3.162278 -0.838646 2.82908 -1.643056 2.236068 -2.236068 
C 1.643056 -2.82908 0.838646 -3.162278 0 -3.162278 
C -0.838646 -3.162278 -1.643056 -2.82908 -2.236068 -2.236068 
C -2.82908 -1.643056 -3.162278 -0.838646 -3.162278 0 
C -3.162278 0.838646 -2.82908 1.643056 -2.236068 2.236068 
C -1.643056 2.82908 -0.838646 3.162278 0 3.162278 
z
" style="stroke: #000000"/>
    </defs>
    <g clip-path="url(#p76b29256d5)">
     <use xlink:href="#mca7f432bdd" x="338.017013" y="282.118423" style="fill: #ff0000; stroke: #000000"/>
    </g>
   </g>
   <g id="PathCollection_2">
    <g clip-path="url(#p76b29256d5)">
     <use xlink:href="#mca7f432bdd" x="327.124852" y="303.296" style="fill: #ff0000; stroke: #000000"/>
    </g>
   </g>
   <g id="PathCollection_3">
    <g clip-path="url(#p76b29256d5)">
     <use xlink:href="#mca7f432bdd" x="349.063647" y="282.118423" style="fill: #ff0000; stroke: #000000"/>
    </g>
   </g>
   <g id="PathCollection_4">
    <g clip-path="url(#p76b29256d5)">
     <use xlink:href="#mca7f432bdd" x="370.84797" y="220.534846" style="fill: #ff0000; stroke: #000000"/>
    </g>
   </g>
   <g id="PathCollection_5">
    <g clip-path="url(#p76b29256d5)">
     <use xlink:href="#mca7f432bdd" x="419.006169" y="220.534846" style="fill: #ff0000; stroke: #000000"/>
    </g>
   </g>
   <g id="PathCollection_6">
    <g clip-path="url(#p76b29256d5)">
     <use xlink:href="#mca7f432bdd" x="462.574813" y="206.287104" style="fill: #ff0000; stroke: #000000"/>
    </g>
   </g>
   <g id="matplotlib.axis_5">
    <g id="xtick_58">
     <g id="line2d_105">
      <g>
       <use xlink:href="#m9b2e7200a1" x="327.124852" y="308.16" style="stroke: #000000; stroke-width: 0.8"/>
      </g>
     </g>
     <g id="text_28">
      <!-- $\mathdefault{0}$ -->
      <g transform="translate(324.397584 319.183271) scale(0.11 -0.11)">
       <use xlink:href="#TeXGyreTermesX-Bold-30" transform="scale(0.996264)"/>
      </g>
     </g>
    </g>
    <g id="xtick_59">
     <g id="line2d_106">
      <g>
       <use xlink:href="#m9b2e7200a1" x="381.585657" y="308.16" style="stroke: #000000; stroke-width: 0.8"/>
      </g>
     </g>
     <g id="text_29">
      <!-- $\mathdefault{50}$ -->
      <g transform="translate(376.131121 319.183271) scale(0.11 -0.11)">
       <use xlink:href="#TeXGyreTermesX-Bold-35" transform="scale(0.996264)"/>
       <use xlink:href="#TeXGyreTermesX-Bold-30" transform="translate(49.8132 0) scale(0.996264)"/>
      </g>
     </g>
    </g>
    <g id="xtick_60">
     <g id="line2d_107">
      <g>
       <use xlink:href="#m9b2e7200a1" x="436.046463" y="308.16" style="stroke: #000000; stroke-width: 0.8"/>
      </g>
     </g>
     <g id="text_30">
      <!-- $\mathdefault{100}$ -->
      <g transform="translate(427.864658 319.183271) scale(0.11 -0.11)">
       <use xlink:href="#TeXGyreTermesX-Bold-31" transform="scale(0.996264)"/>
       <use xlink:href="#TeXGyreTermesX-Bold-30" transform="translate(49.8132 0) scale(0.996264)"/>
       <use xlink:href="#TeXGyreTermesX-Bold-30" transform="translate(99.626401 0) scale(0.996264)"/>
      </g>
     </g>
    </g>
    <g id="xtick_61">
     <g id="line2d_108">
      <g>
       <use xlink:href="#mac0f04774a" x="338.017013" y="308.16" style="stroke: #000000; stroke-width: 0.6"/>
      </g>
     </g>
    </g>
    <g id="xtick_62">
     <g id="line2d_109">
      <g>
       <use xlink:href="#mac0f04774a" x="348.909174" y="308.16" style="stroke: #000000; stroke-width: 0.6"/>
      </g>
     </g>
    </g>
    <g id="xtick_63">
     <g id="line2d_110">
      <g>
       <use xlink:href="#mac0f04774a" x="359.801335" y="308.16" style="stroke: #000000; stroke-width: 0.6"/>
      </g>
     </g>
    </g>
    <g id="xtick_64">
     <g id="line2d_111">
      <g>
       <use xlink:href="#mac0f04774a" x="370.693496" y="308.16" style="stroke: #000000; stroke-width: 0.6"/>
      </g>
     </g>
    </g>
    <g id="xtick_65">
     <g id="line2d_112">
      <g>
       <use xlink:href="#mac0f04774a" x="392.477818" y="308.16" style="stroke: #000000; stroke-width: 0.6"/>
      </g>
     </g>
    </g>
    <g id="xtick_66">
     <g id="line2d_113">
      <g>
       <use xlink:href="#mac0f04774a" x="403.369979" y="308.16" style="stroke: #000000; stroke-width: 0.6"/>
      </g>
     </g>
    </g>
    <g id="xtick_67">
     <g id="line2d_114">
      <g>
       <use xlink:href="#mac0f04774a" x="414.262141" y="308.16" style="stroke: #000000; stroke-width: 0.6"/>
      </g>
     </g>
    </g>
    <g id="xtick_68">
     <g id="line2d_115">
      <g>
       <use xlink:href="#mac0f04774a" x="425.154302" y="308.16" style="stroke: #000000; stroke-width: 0.6"/>
      </g>
     </g>
    </g>
    <g id="xtick_69">
     <g id="line2d_116">
      <g>
       <use xlink:href="#mac0f04774a" x="446.938624" y="308.16" style="stroke: #000000; stroke-width: 0.6"/>
      </g>
     </g>
    </g>
    <g id="xtick_70">
     <g id="line2d_117">
      <g>
       <use xlink:href="#mac0f04774a" x="457.830785" y="308.16" style="stroke: #000000; stroke-width: 0.6"/>
      </g>
     </g>
    </g>
    <g id="xtick_71">
     <g id="line2d_118">
      <g>
       <use xlink:href="#mac0f04774a" x="468.722946" y="308.16" style="stroke: #000000; stroke-width: 0.6"/>
      </g>
     </g>
    </g>
    <g id="xtick_72">
     <g id="line2d_119">
      <g>
       <use xlink:href="#mac0f04774a" x="479.615107" y="308.16" style="stroke: #000000; stroke-width: 0.6"/>
      </g>
     </g>
    </g>
    <g id="text_31">
     <!-- \textbf{$t$ [hr]} -->
     <g transform="translate(389.998119 333.768561) scale(0.12 -0.12)">
      <use xlink:href="#NewTXBMI-74" transform="scale(0.996264)"/>
      <use xlink:href="#TeXGyreTermesX-Bold-5b" transform="translate(56.886681 0) scale(0.996264)"/>
      <use xlink:href="#TeXGyreTermesX-Bold-68" transform="translate(90.062291 0) scale(0.996264)"/>
      <use xlink:href="#TeXGyreTermesX-Bold-72" transform="translate(145.454545 0) scale(0.996264)"/>
      <use xlink:href="#TeXGyreTermesX-Bold-5d" transform="translate(189.688692 0) scale(0.996264)"/>
     </g>
    </g>
   </g>
   <g id="matplotlib.axis_6">
    <g id="ytick_43">
     <g id="line2d_120">
      <g>
       <use xlink:href="#m9fe7f49602" x="319.500339" y="303.296" style="stroke: #000000; stroke-width: 0.8"/>
      </g>
     </g>
     <g id="text_32">
      <!-- $\mathdefault{0.0}$ -->
      <g transform="translate(302.003997 307.057635) scale(0.11 -0.11)">
       <use xlink:href="#TeXGyreTermesX-Bold-30" transform="scale(0.996264)"/>
       <use xlink:href="#NewTXBMI-93" transform="translate(51.407199 0) scale(0.996264)"/>
       <use xlink:href="#TeXGyreTermesX-Bold-30" transform="translate(78.00746 0) scale(0.996264)"/>
      </g>
     </g>
    </g>
    <g id="ytick_44">
     <g id="line2d_121">
      <g>
       <use xlink:href="#m9fe7f49602" x="319.500339" y="254.656" style="stroke: #000000; stroke-width: 0.8"/>
      </g>
     </g>
     <g id="text_33">
      <!-- $\mathdefault{0.5}$ -->
      <g transform="translate(302.003997 258.417635) scale(0.11 -0.11)">
       <use xlink:href="#TeXGyreTermesX-Bold-30" transform="scale(0.996264)"/>
       <use xlink:href="#NewTXBMI-93" transform="translate(51.407199 0) scale(0.996264)"/>
       <use xlink:href="#TeXGyreTermesX-Bold-35" transform="translate(78.00746 0) scale(0.996264)"/>
      </g>
     </g>
    </g>
    <g id="ytick_45">
     <g id="line2d_122">
      <g>
       <use xlink:href="#m9fe7f49602" x="319.500339" y="206.016" style="stroke: #000000; stroke-width: 0.8"/>
      </g>
     </g>
     <g id="text_34">
      <!-- $\mathdefault{1.0}$ -->
      <g transform="translate(302.003997 209.777635) scale(0.11 -0.11)">
       <use xlink:href="#TeXGyreTermesX-Bold-31" transform="scale(0.996264)"/>
       <use xlink:href="#NewTXBMI-93" transform="translate(51.407199 0) scale(0.996264)"/>
       <use xlink:href="#TeXGyreTermesX-Bold-30" transform="translate(78.00746 0) scale(0.996264)"/>
      </g>
     </g>
    </g>
    <g id="ytick_46">
     <g id="line2d_123">
      <g>
       <use xlink:href="#m69450e5990" x="319.500339" y="293.568" style="stroke: #000000; stroke-width: 0.6"/>
      </g>
     </g>
    </g>
    <g id="ytick_47">
     <g id="line2d_124">
      <g>
       <use xlink:href="#m69450e5990" x="319.500339" y="283.84" style="stroke: #000000; stroke-width: 0.6"/>
      </g>
     </g>
    </g>
    <g id="ytick_48">
     <g id="line2d_125">
      <g>
       <use xlink:href="#m69450e5990" x="319.500339" y="274.112" style="stroke: #000000; stroke-width: 0.6"/>
      </g>
     </g>
    </g>
    <g id="ytick_49">
     <g id="line2d_126">
      <g>
       <use xlink:href="#m69450e5990" x="319.500339" y="264.384" style="stroke: #000000; stroke-width: 0.6"/>
      </g>
     </g>
    </g>
    <g id="ytick_50">
     <g id="line2d_127">
      <g>
       <use xlink:href="#m69450e5990" x="319.500339" y="244.928" style="stroke: #000000; stroke-width: 0.6"/>
      </g>
     </g>
    </g>
    <g id="ytick_51">
     <g id="line2d_128">
      <g>
       <use xlink:href="#m69450e5990" x="319.500339" y="235.2" style="stroke: #000000; stroke-width: 0.6"/>
      </g>
     </g>
    </g>
    <g id="ytick_52">
     <g id="line2d_129">
      <g>
       <use xlink:href="#m69450e5990" x="319.500339" y="225.472" style="stroke: #000000; stroke-width: 0.6"/>
      </g>
     </g>
    </g>
    <g id="ytick_53">
     <g id="line2d_130">
      <g>
       <use xlink:href="#m69450e5990" x="319.500339" y="215.744" style="stroke: #000000; stroke-width: 0.6"/>
      </g>
     </g>
    </g>
    <g id="text_35">
     <!-- $X(t)$ -->
     <g transform="translate(295.409737 266.019378) rotate(-90) scale(0.12 -0.12)">
      <defs>
       <path id="NewTXBMI-5e" d="M 3750 0 
L 3750 160 
C 3290 211 3194 301 3008 903 
L 2534 2423 
L 3808 3737 
C 4090 4019 4211 4096 4442 4128 
L 4442 4288 
L 3142 4288 
L 3142 4128 
L 3283 4115 
C 3430 4102 3494 4057 3494 3961 
C 3494 3846 3379 3685 3046 3333 
L 2445 2698 
C 2381 2910 2362 2986 2336 3050 
C 2189 3506 2118 3782 2118 3878 
C 2118 4025 2189 4083 2400 4108 
L 2592 4128 
L 2592 4288 
L 640 4288 
L 640 4128 
C 1024 4089 1120 4019 1222 3723 
L 1760 1981 
L 1325 1506 
C 314 390 122 211 -154 160 
L -154 0 
L 1216 0 
L 1216 160 
C 928 186 800 269 800 416 
C 800 499 845 583 992 743 
L 1850 1692 
L 1971 1308 
C 2144 814 2214 545 2214 403 
C 2214 237 2125 192 1779 160 
L 1779 0 
L 3750 0 
z
" transform="scale(0.015625)"/>
      </defs>
      <use xlink:href="#NewTXBMI-5e" transform="scale(0.996264)"/>
      <use xlink:href="#txbsys-b9" transform="translate(77.509313 0) scale(0.996264)"/>
      <use xlink:href="#NewTXBMI-74" transform="translate(119.75087 0) scale(0.996264)"/>
      <use xlink:href="#txbsys-ba" transform="translate(151.730951 0) scale(0.996264)"/>
     </g>
    </g>
   </g>
   <g id="line2d_131">
    <path d="M 327.124852 303.296 
L 329.427685 303.186115 
L 330.327468 302.890754 
L 331.120496 302.394075 
L 331.883024 301.650428 
L 332.660802 300.573912 
L 333.484332 299.036657 
L 334.368863 296.884598 
L 335.314398 293.972351 
L 336.351435 290.031067 
L 337.525727 284.644796 
L 338.883026 277.31376 
L 340.606339 266.690807 
L 346.081286 231.985554 
L 347.499588 224.910085 
L 348.750133 219.7537 
L 349.893924 215.94515 
L 350.961462 213.132896 
L 351.983249 211.04623 
L 352.974535 209.511089 
L 353.965821 208.377328 
L 354.972357 207.555382 
L 356.055146 206.954557 
L 357.290441 206.526087 
L 358.830747 206.238285 
L 361.026826 206.075036 
L 365.464736 206.018345 
L 425.246894 206.016 
L 479.615107 206.016 
L 479.615107 206.016 
" clip-path="url(#p76b29256d5)" style="fill: none; stroke: #000000; stroke-width: 0.75; stroke-linecap: square"/>
   </g>
   <g id="line2d_132">
    <path d="M 327.124852 303.296 
L 331.288252 303.186063 
L 333.133569 302.894458 
L 334.719626 302.421175 
L 336.183679 301.75296 
L 337.58673 300.868111 
L 338.97453 299.728194 
L 340.37758 298.283444 
L 341.826383 296.462385 
L 343.320937 294.217787 
L 344.906994 291.420773 
L 346.599805 287.967061 
L 348.429871 283.711211 
L 350.473445 278.374112 
L 352.852531 271.510365 
L 356.009395 261.664786 
L 363.024648 239.588473 
L 365.510488 232.624318 
L 367.645565 227.279103 
L 369.582385 223.010623 
L 371.38195 219.565254 
L 373.090011 216.7594 
L 374.752321 214.447886 
L 376.36888 212.571825 
L 377.985438 211.030645 
L 379.617247 209.777432 
L 381.310058 208.755752 
L 383.109623 207.930684 
L 385.076944 207.276932 
L 387.303524 206.775816 
L 389.972371 206.410259 
L 393.464747 206.169638 
L 398.863442 206.045384 
L 413.397216 206.016092 
L 479.615107 206.016 
L 479.615107 206.016 
" clip-path="url(#p76b29256d5)" style="fill: none; stroke: #000000; stroke-width: 0.75; stroke-linecap: square"/>
   </g>
   <g id="line2d_133">
    <path d="M 327.124852 303.296 
L 335.177143 303.185165 
L 339.081284 302.893132 
L 342.405904 302.425549 
L 345.440763 301.776596 
L 348.292616 300.940765 
L 351.037715 299.904393 
L 353.706562 298.659467 
L 356.360157 297.174623 
L 359.013753 295.432376 
L 361.69785 293.401176 
L 364.442949 291.041489 
L 367.279552 288.306172 
L 370.253409 285.124686 
L 373.425523 281.397953 
L 376.872148 276.996362 
L 380.761038 271.656435 
L 385.488709 264.766614 
L 394.517035 251.105498 
L 400.418998 242.411895 
L 404.689152 236.50723 
L 408.379785 231.772626 
L 411.750157 227.802121 
L 414.922272 224.403241 
L 417.957131 221.473274 
L 420.900487 218.937005 
L 423.798092 216.731005 
L 426.680446 214.814035 
L 429.578051 213.15182 
L 432.536657 211.709846 
L 435.602018 210.464006 
L 438.819884 209.398412 
L 442.251258 208.499277 
L 445.987643 207.753824 
L 450.166294 207.1519 
L 455.000718 206.68641 
L 460.917932 206.349298 
L 468.863469 206.134403 
L 479.615107 206.040239 
L 479.615107 206.040239 
" clip-path="url(#p76b29256d5)" style="fill: none; stroke: #000000; stroke-width: 0.75; stroke-linecap: square"/>
   </g>
   <g id="patch_14">
    <path d="M 319.500339 308.16 
L 319.500339 201.152 
" style="fill: none; stroke: #000000; stroke-width: 0.8; stroke-linejoin: miter; stroke-linecap: square"/>
   </g>
   <g id="patch_15">
    <path d="M 487.23962 308.16 
L 487.23962 201.152 
" style="fill: none; stroke: #000000; stroke-width: 0.8; stroke-linejoin: miter; stroke-linecap: square"/>
   </g>
   <g id="patch_16">
    <path d="M 319.500339 308.16 
L 487.23962 308.16 
" style="fill: none; stroke: #000000; stroke-width: 0.8; stroke-linejoin: miter; stroke-linecap: square"/>
   </g>
   <g id="patch_17">
    <path d="M 319.500339 201.152 
L 487.23962 201.152 
" style="fill: none; stroke: #000000; stroke-width: 0.8; stroke-linejoin: miter; stroke-linecap: square"/>
   </g>
   <g id="patch_18">
    <path d="M 328.038294 301.52 
Q 332.570255 292.708529 336.079493 285.885535 
" style="fill: none; stroke: #ff0000; stroke-width: 2; stroke-linecap: round"/>
    <path d="M 332.471442 288.527877 
L 336.079493 285.885535 
L 336.028537 290.35738 
" style="fill: none; stroke: #ff0000; stroke-width: 2; stroke-linecap: round"/>
   </g>
   <g id="patch_19">
    <path d="M 340.01544 282.118423 
Q 343.538851 282.118423 344.826194 282.118423 
" style="fill: none; stroke: #ff0000; stroke-width: 2; stroke-linecap: round"/>
    <path d="M 340.826194 280.118423 
L 344.826194 282.118423 
L 340.826194 284.118423 
" style="fill: none; stroke: #ff0000; stroke-width: 2; stroke-linecap: round"/>
   </g>
   <g id="patch_20">
    <path d="M 349.729782 280.235283 
Q 359.955682 251.326993 369.435884 224.526768 
" style="fill: none; stroke: #ff0000; stroke-width: 2; stroke-linecap: round"/>
    <path d="M 366.216429 227.630815 
L 369.435884 224.526768 
L 369.987448 228.96476 
" style="fill: none; stroke: #ff0000; stroke-width: 2; stroke-linecap: round"/>
   </g>
   <g id="patch_21">
    <path d="M 372.849662 220.534846 
Q 394.929229 220.534846 414.772728 220.534846 
" style="fill: none; stroke: #ff0000; stroke-width: 2; stroke-linecap: round"/>
    <path d="M 410.772728 218.534846 
L 414.772728 220.534846 
L 410.772728 222.534846 
" style="fill: none; stroke: #ff0000; stroke-width: 2; stroke-linecap: round"/>
   </g>
   <g id="patch_22">
    <path d="M 420.90751 219.913073 
Q 440.791288 213.410715 458.549753 207.603373 
" style="fill: none; stroke: #ff0000; stroke-width: 2; stroke-linecap: round"/>
    <path d="M 454.126237 206.945718 
L 458.549753 207.603373 
L 455.369519 210.747592 
" style="fill: none; stroke: #ff0000; stroke-width: 2; stroke-linecap: round"/>
   </g>
  </g>
 </g>
 <defs>
  <clipPath id="p02173a7a57">
   <rect x="47.31962" y="7.2" width="439.92" height="160.512"/>
  </clipPath>
  <clipPath id="p3870d35516">
   <rect x="47.31962" y="201.152" width="235.78446" height="107.008"/>
  </clipPath>
  <clipPath id="p76b29256d5">
   <rect x="319.500339" y="201.152" width="167.739281" height="107.008"/>
  </clipPath>
 </defs>
</svg>
