<?xml version="1.0" encoding="utf-8" standalone="no"?>
<!DOCTYPE svg PUBLIC "-//W3C//DTD SVG 1.1//EN"
  "http://www.w3.org/Graphics/SVG/1.1/DTD/svg11.dtd">
<svg xmlns:xlink="http://www.w3.org/1999/xlink" width="288pt" height="180pt" viewBox="0 0 288 180" xmlns="http://www.w3.org/2000/svg" version="1.1">
 <metadata>
  <rdf:RDF xmlns:dc="http://purl.org/dc/elements/1.1/" xmlns:cc="http://creativecommons.org/ns#" xmlns:rdf="http://www.w3.org/1999/02/22-rdf-syntax-ns#">
   <cc:Work>
    <dc:type rdf:resource="http://purl.org/dc/dcmitype/StillImage"/>
    <dc:date>2024-10-24T13:53:48.999596</dc:date>
    <dc:format>image/svg+xml</dc:format>
    <dc:creator>
     <cc:Agent>
      <dc:title>Matplotlib v3.9.0, https://matplotlib.org/</dc:title>
     </cc:Agent>
    </dc:creator>
   </cc:Work>
  </rdf:RDF>
 </metadata>
 <defs>
  <style type="text/css">*{stroke-linejoin: round; stroke-linecap: butt}</style>
 </defs>
 <g id="figure_1">
  <g id="patch_1">
   <path d="M 0 180 
L 288 180 
L 288 0 
L 0 0 
z
" style="fill: #ffffff"/>
  </g>
  <g id="axes_1">
   <g id="patch_2">
    <path d="M 33.345307 153.497532 
L 287 153.497532 
L 287 1 
L 33.345307 1 
z
" style="fill: #ffffff"/>
   </g>
   <g id="matplotlib.axis_1">
    <g id="xtick_1">
     <g id="line2d_1">
      <defs>
       <path id="mf1c8b77385" d="M 0 0 
L 0 -3.5 
" style="stroke: #000000; stroke-width: 0.8"/>
      </defs>
      <g>
       <use xlink:href="#mf1c8b77385" x="44.687755" y="153.497532" style="stroke: #000000; stroke-width: 0.8"/>
      </g>
     </g>
     <g id="text_1">
      <!-- $\mathdefault{0}$ -->
      <g transform="translate(42.197095 163.836875) scale(0.1 -0.1)">
       <defs>
        <path id="TeXGyreTermesX-Bold-30" d="M 3046 2166 
C 3046 3440 2426 4403 1600 4403 
C 1184 4403 762 4123 499 3664 
C 294 3313 154 2714 154 2185 
C 154 873 755 -64 1606 -64 
C 2432 -64 3046 886 3046 2166 
z
M 2035 1434 
C 2035 1058 1984 561 1926 389 
C 1856 203 1754 114 1606 114 
C 1286 114 1165 491 1165 1434 
L 1165 2892 
C 1165 3855 1286 4224 1594 4224 
C 1907 4224 2035 3829 2035 2892 
L 2035 1434 
z
" transform="scale(0.015625)"/>
       </defs>
       <use xlink:href="#TeXGyreTermesX-Bold-30" transform="scale(0.996264)"/>
      </g>
     </g>
    </g>
    <g id="xtick_2">
     <g id="line2d_2">
      <g>
       <use xlink:href="#mf1c8b77385" x="107.302125" y="153.497532" style="stroke: #000000; stroke-width: 0.8"/>
      </g>
     </g>
     <g id="text_2">
      <!-- $\mathdefault{20}$ -->
      <g transform="translate(102.320805 163.836875) scale(0.1 -0.1)">
       <defs>
        <path id="TeXGyreTermesX-Bold-32" d="M 3059 1341 
L 2906 1341 
C 2720 884 2643 846 1990 846 
L 1024 846 
L 2061 1824 
C 2566 2301 2790 2726 2790 3210 
C 2790 3889 2298 4373 1606 4373 
C 1286 4373 979 4245 755 4016 
C 506 3768 378 3552 198 3075 
L 378 3075 
C 576 3469 813 3648 1158 3648 
C 1440 3648 1651 3527 1792 3298 
C 1869 3164 1920 2987 1920 2841 
C 1920 2561 1798 2211 1594 1900 
C 1267 1405 1043 1137 109 146 
L 109 0 
L 2771 0 
L 3059 1341 
z
" transform="scale(0.015625)"/>
       </defs>
       <use xlink:href="#TeXGyreTermesX-Bold-32" transform="scale(0.996264)"/>
       <use xlink:href="#TeXGyreTermesX-Bold-30" transform="translate(49.8132 0) scale(0.996264)"/>
      </g>
     </g>
    </g>
    <g id="xtick_3">
     <g id="line2d_3">
      <g>
       <use xlink:href="#mf1c8b77385" x="169.916496" y="153.497532" style="stroke: #000000; stroke-width: 0.8"/>
      </g>
     </g>
     <g id="text_3">
      <!-- $\mathdefault{40}$ -->
      <g transform="translate(164.935176 163.836875) scale(0.1 -0.1)">
       <defs>
        <path id="TeXGyreTermesX-Bold-34" d="M 3040 896 
L 3040 1602 
L 2637 1602 
L 2637 4352 
L 2125 4352 
L 1747 3863 
C 928 2803 506 2219 122 1615 
L 122 896 
L 1709 896 
L 1709 -32 
L 2637 -32 
L 2637 896 
L 3040 896 
z
M 1722 1602 
L 384 1602 
L 1722 3488 
L 1722 1602 
z
" transform="scale(0.015625)"/>
       </defs>
       <use xlink:href="#TeXGyreTermesX-Bold-34" transform="scale(0.996264)"/>
       <use xlink:href="#TeXGyreTermesX-Bold-30" transform="translate(49.8132 0) scale(0.996264)"/>
      </g>
     </g>
    </g>
    <g id="xtick_4">
     <g id="line2d_4">
      <g>
       <use xlink:href="#mf1c8b77385" x="232.530866" y="153.497532" style="stroke: #000000; stroke-width: 0.8"/>
      </g>
     </g>
     <g id="text_4">
      <!-- $\mathdefault{60}$ -->
      <g transform="translate(227.549546 163.836875) scale(0.1 -0.1)">
       <defs>
        <path id="TeXGyreTermesX-Bold-36" d="M 3040 1427 
C 3040 2193 2573 2688 1843 2688 
C 1638 2688 1498 2663 1306 2580 
C 1542 3515 2074 4030 3008 4221 
L 3008 4387 
C 2157 4266 1760 4126 1274 3796 
C 557 3307 179 2596 179 1752 
C 179 654 768 -64 1664 -64 
C 2458 -64 3040 564 3040 1427 
z
M 2067 1046 
C 2067 298 1990 108 1677 108 
C 1530 108 1414 172 1350 291 
C 1242 501 1178 964 1178 1553 
C 1178 1946 1216 2307 1261 2339 
C 1312 2377 1402 2402 1491 2402 
C 1920 2402 2067 2054 2067 1046 
z
" transform="scale(0.015625)"/>
       </defs>
       <use xlink:href="#TeXGyreTermesX-Bold-36" transform="scale(0.996264)"/>
       <use xlink:href="#TeXGyreTermesX-Bold-30" transform="translate(49.8132 0) scale(0.996264)"/>
      </g>
     </g>
    </g>
    <g id="xtick_5">
     <g id="line2d_5">
      <defs>
       <path id="mdfce7f04c0" d="M 0 0 
L 0 -2 
" style="stroke: #000000; stroke-width: 0.6"/>
      </defs>
      <g>
       <use xlink:href="#mdfce7f04c0" x="57.210629" y="153.497532" style="stroke: #000000; stroke-width: 0.6"/>
      </g>
     </g>
    </g>
    <g id="xtick_6">
     <g id="line2d_6">
      <g>
       <use xlink:href="#mdfce7f04c0" x="69.733503" y="153.497532" style="stroke: #000000; stroke-width: 0.6"/>
      </g>
     </g>
    </g>
    <g id="xtick_7">
     <g id="line2d_7">
      <g>
       <use xlink:href="#mdfce7f04c0" x="82.256377" y="153.497532" style="stroke: #000000; stroke-width: 0.6"/>
      </g>
     </g>
    </g>
    <g id="xtick_8">
     <g id="line2d_8">
      <g>
       <use xlink:href="#mdfce7f04c0" x="94.779251" y="153.497532" style="stroke: #000000; stroke-width: 0.6"/>
      </g>
     </g>
    </g>
    <g id="xtick_9">
     <g id="line2d_9">
      <g>
       <use xlink:href="#mdfce7f04c0" x="119.825" y="153.497532" style="stroke: #000000; stroke-width: 0.6"/>
      </g>
     </g>
    </g>
    <g id="xtick_10">
     <g id="line2d_10">
      <g>
       <use xlink:href="#mdfce7f04c0" x="132.347874" y="153.497532" style="stroke: #000000; stroke-width: 0.6"/>
      </g>
     </g>
    </g>
    <g id="xtick_11">
     <g id="line2d_11">
      <g>
       <use xlink:href="#mdfce7f04c0" x="144.870748" y="153.497532" style="stroke: #000000; stroke-width: 0.6"/>
      </g>
     </g>
    </g>
    <g id="xtick_12">
     <g id="line2d_12">
      <g>
       <use xlink:href="#mdfce7f04c0" x="157.393622" y="153.497532" style="stroke: #000000; stroke-width: 0.6"/>
      </g>
     </g>
    </g>
    <g id="xtick_13">
     <g id="line2d_13">
      <g>
       <use xlink:href="#mdfce7f04c0" x="182.43937" y="153.497532" style="stroke: #000000; stroke-width: 0.6"/>
      </g>
     </g>
    </g>
    <g id="xtick_14">
     <g id="line2d_14">
      <g>
       <use xlink:href="#mdfce7f04c0" x="194.962244" y="153.497532" style="stroke: #000000; stroke-width: 0.6"/>
      </g>
     </g>
    </g>
    <g id="xtick_15">
     <g id="line2d_15">
      <g>
       <use xlink:href="#mdfce7f04c0" x="207.485118" y="153.497532" style="stroke: #000000; stroke-width: 0.6"/>
      </g>
     </g>
    </g>
    <g id="xtick_16">
     <g id="line2d_16">
      <g>
       <use xlink:href="#mdfce7f04c0" x="220.007992" y="153.497532" style="stroke: #000000; stroke-width: 0.6"/>
      </g>
     </g>
    </g>
    <g id="xtick_17">
     <g id="line2d_17">
      <g>
       <use xlink:href="#mdfce7f04c0" x="245.05374" y="153.497532" style="stroke: #000000; stroke-width: 0.6"/>
      </g>
     </g>
    </g>
    <g id="xtick_18">
     <g id="line2d_18">
      <g>
       <use xlink:href="#mdfce7f04c0" x="257.576614" y="153.497532" style="stroke: #000000; stroke-width: 0.6"/>
      </g>
     </g>
    </g>
    <g id="xtick_19">
     <g id="line2d_19">
      <g>
       <use xlink:href="#mdfce7f04c0" x="270.099489" y="153.497532" style="stroke: #000000; stroke-width: 0.6"/>
      </g>
     </g>
    </g>
    <g id="xtick_20">
     <g id="line2d_20">
      <g>
       <use xlink:href="#mdfce7f04c0" x="282.622363" y="153.497532" style="stroke: #000000; stroke-width: 0.6"/>
      </g>
     </g>
    </g>
    <g id="text_5">
     <!-- $t$ [h] -->
     <g transform="translate(151.520103 176.838109) scale(0.1 -0.1)">
      <defs>
       <path id="NewTXBMI-74" d="M 1440 837 
L 1299 926 
C 1082 588 915 415 813 415 
C 762 415 710 460 710 511 
C 710 632 826 1073 1056 1864 
L 1267 2624 
L 1798 2624 
L 1798 2893 
L 1338 2893 
L 1587 3808 
L 1363 3808 
C 1018 3303 698 3037 192 2848 
L 192 2624 
L 518 2624 
L 83 1105 
C -13 773 -70 499 -70 383 
C -70 135 109 -32 378 -32 
C 762 -32 1018 180 1440 837 
z
" transform="scale(0.015625)"/>
       <path id="TeXGyreTermesX-Regular-5b" d="M 1914 -1024 
L 1914 -864 
L 1363 -864 
C 1152 -864 1050 -756 1050 -531 
L 1050 3781 
C 1050 3981 1133 4064 1338 4064 
L 1914 4064 
L 1914 4224 
L 563 4224 
L 563 -1024 
L 1914 -1024 
z
" transform="scale(0.015625)"/>
       <path id="TeXGyreTermesX-Regular-68" d="M 3117 32 
L 3117 128 
C 2771 192 2733 243 2733 684 
L 2733 1954 
C 2733 2625 2464 2970 1946 2970 
C 1568 2970 1299 2816 1005 2432 
L 1005 4390 
L 973 4409 
C 755 4332 595 4281 237 4179 
L 64 4128 
L 64 4026 
C 90 4032 109 4032 141 4032 
C 416 4032 467 3980 467 3705 
L 467 686 
C 467 237 429 179 58 128 
L 58 32 
L 1440 32 
L 1440 128 
C 1069 166 1005 243 1005 684 
L 1005 2222 
C 1274 2516 1466 2624 1715 2624 
C 2035 2624 2195 2395 2195 1948 
L 2195 684 
C 2195 250 2131 166 1760 128 
L 1760 32 
L 3117 32 
z
" transform="scale(0.015625)"/>
       <path id="TeXGyreTermesX-Regular-5d" d="M 1568 -1024 
L 1568 4224 
L 218 4224 
L 218 4064 
L 768 4064 
C 979 4064 1082 3955 1082 3730 
L 1082 -582 
C 1082 -781 992 -864 794 -864 
L 218 -864 
L 218 -1024 
L 1568 -1024 
z
" transform="scale(0.015625)"/>
      </defs>
      <use xlink:href="#NewTXBMI-74" transform="scale(0.996264)"/>
      <use xlink:href="#TeXGyreTermesX-Regular-5b" transform="translate(56.886681 0) scale(0.996264)"/>
      <use xlink:href="#TeXGyreTermesX-Regular-68" transform="translate(90.062291 0) scale(0.996264)"/>
      <use xlink:href="#TeXGyreTermesX-Regular-5d" transform="translate(139.875491 0) scale(0.996264)"/>
     </g>
    </g>
   </g>
   <g id="matplotlib.axis_2">
    <g id="ytick_1">
     <g id="line2d_21">
      <defs>
       <path id="mf94630a76e" d="M 0 0 
L 3.5 0 
" style="stroke: #000000; stroke-width: 0.8"/>
      </defs>
      <g>
       <use xlink:href="#mf94630a76e" x="33.345307" y="129.34104" style="stroke: #000000; stroke-width: 0.8"/>
      </g>
     </g>
     <g id="text_6">
      <!-- $\mathdefault{360}$ -->
      <g transform="translate(14.901347 132.760711) scale(0.1 -0.1)">
       <defs>
        <path id="TeXGyreTermesX-Bold-33" d="M 2995 1596 
C 2995 1889 2899 2164 2714 2387 
C 2579 2540 2470 2617 2214 2732 
C 2624 2981 2746 3165 2746 3541 
C 2746 4090 2355 4416 1702 4416 
C 1069 4416 589 4097 237 3440 
L 371 3364 
C 614 3753 826 3900 1158 3900 
C 1562 3900 1811 3645 1811 3242 
C 1811 2822 1587 2598 979 2406 
L 979 2297 
C 1510 2112 1722 2004 1952 1786 
C 2150 1601 2266 1314 2266 1007 
C 2266 548 2022 254 1638 254 
C 1485 254 1363 324 1152 528 
C 902 778 710 880 518 880 
C 275 880 102 728 102 510 
C 102 166 493 -64 1082 -64 
C 2150 -64 2995 664 2995 1596 
z
" transform="scale(0.015625)"/>
       </defs>
       <use xlink:href="#TeXGyreTermesX-Bold-33" transform="scale(0.996264)"/>
       <use xlink:href="#TeXGyreTermesX-Bold-36" transform="translate(49.8132 0) scale(0.996264)"/>
       <use xlink:href="#TeXGyreTermesX-Bold-30" transform="translate(99.626401 0) scale(0.996264)"/>
      </g>
     </g>
    </g>
    <g id="ytick_2">
     <g id="line2d_22">
      <g>
       <use xlink:href="#mf94630a76e" x="33.345307" y="96.928343" style="stroke: #000000; stroke-width: 0.8"/>
      </g>
     </g>
     <g id="text_7">
      <!-- $\mathdefault{380}$ -->
      <g transform="translate(14.901347 100.348015) scale(0.1 -0.1)">
       <defs>
        <path id="TeXGyreTermesX-Bold-38" d="M 3021 1212 
C 3021 1768 2746 2164 2061 2597 
C 2675 2815 2931 3075 2931 3483 
C 2931 4051 2445 4409 1683 4409 
C 819 4409 250 3961 250 3292 
C 250 2814 506 2462 1139 2086 
C 774 1965 627 1881 461 1722 
C 275 1543 179 1301 179 1020 
C 179 370 723 -64 1536 -64 
C 2426 -64 3021 447 3021 1212 
z
M 2170 3439 
C 2170 3139 2118 2993 1907 2712 
C 1370 2986 1075 3337 1075 3694 
C 1075 3994 1306 4224 1606 4224 
C 1965 4224 2170 3937 2170 3439 
z
M 2131 829 
C 2131 402 1920 140 1574 140 
C 1184 140 954 478 954 1046 
C 954 1397 1024 1595 1280 1971 
C 1978 1505 2131 1301 2131 829 
z
" transform="scale(0.015625)"/>
       </defs>
       <use xlink:href="#TeXGyreTermesX-Bold-33" transform="scale(0.996264)"/>
       <use xlink:href="#TeXGyreTermesX-Bold-38" transform="translate(49.8132 0) scale(0.996264)"/>
       <use xlink:href="#TeXGyreTermesX-Bold-30" transform="translate(99.626401 0) scale(0.996264)"/>
      </g>
     </g>
    </g>
    <g id="ytick_3">
     <g id="line2d_23">
      <g>
       <use xlink:href="#mf94630a76e" x="33.345307" y="64.515646" style="stroke: #000000; stroke-width: 0.8"/>
      </g>
     </g>
     <g id="text_8">
      <!-- $\mathdefault{400}$ -->
      <g transform="translate(14.901347 67.935318) scale(0.1 -0.1)">
       <use xlink:href="#TeXGyreTermesX-Bold-34" transform="scale(0.996264)"/>
       <use xlink:href="#TeXGyreTermesX-Bold-30" transform="translate(49.8132 0) scale(0.996264)"/>
       <use xlink:href="#TeXGyreTermesX-Bold-30" transform="translate(99.626401 0) scale(0.996264)"/>
      </g>
     </g>
    </g>
    <g id="ytick_4">
     <g id="line2d_24">
      <g>
       <use xlink:href="#mf94630a76e" x="33.345307" y="32.102949" style="stroke: #000000; stroke-width: 0.8"/>
      </g>
     </g>
     <g id="text_9">
      <!-- $\mathdefault{420}$ -->
      <g transform="translate(14.901347 35.522621) scale(0.1 -0.1)">
       <use xlink:href="#TeXGyreTermesX-Bold-34" transform="scale(0.996264)"/>
       <use xlink:href="#TeXGyreTermesX-Bold-32" transform="translate(49.8132 0) scale(0.996264)"/>
       <use xlink:href="#TeXGyreTermesX-Bold-30" transform="translate(99.626401 0) scale(0.996264)"/>
      </g>
     </g>
    </g>
    <g id="ytick_5">
     <g id="line2d_25">
      <defs>
       <path id="mb68e6f163a" d="M 0 0 
L 2 0 
" style="stroke: #000000; stroke-width: 0.6"/>
      </defs>
      <g>
       <use xlink:href="#mb68e6f163a" x="33.345307" y="148.788658" style="stroke: #000000; stroke-width: 0.6"/>
      </g>
     </g>
    </g>
    <g id="ytick_6">
     <g id="line2d_26">
      <g>
       <use xlink:href="#mb68e6f163a" x="33.345307" y="142.306119" style="stroke: #000000; stroke-width: 0.6"/>
      </g>
     </g>
    </g>
    <g id="ytick_7">
     <g id="line2d_27">
      <g>
       <use xlink:href="#mb68e6f163a" x="33.345307" y="135.82358" style="stroke: #000000; stroke-width: 0.6"/>
      </g>
     </g>
    </g>
    <g id="ytick_8">
     <g id="line2d_28">
      <g>
       <use xlink:href="#mb68e6f163a" x="33.345307" y="122.858501" style="stroke: #000000; stroke-width: 0.6"/>
      </g>
     </g>
    </g>
    <g id="ytick_9">
     <g id="line2d_29">
      <g>
       <use xlink:href="#mb68e6f163a" x="33.345307" y="116.375961" style="stroke: #000000; stroke-width: 0.6"/>
      </g>
     </g>
    </g>
    <g id="ytick_10">
     <g id="line2d_30">
      <g>
       <use xlink:href="#mb68e6f163a" x="33.345307" y="109.893422" style="stroke: #000000; stroke-width: 0.6"/>
      </g>
     </g>
    </g>
    <g id="ytick_11">
     <g id="line2d_31">
      <g>
       <use xlink:href="#mb68e6f163a" x="33.345307" y="103.410883" style="stroke: #000000; stroke-width: 0.6"/>
      </g>
     </g>
    </g>
    <g id="ytick_12">
     <g id="line2d_32">
      <g>
       <use xlink:href="#mb68e6f163a" x="33.345307" y="90.445804" style="stroke: #000000; stroke-width: 0.6"/>
      </g>
     </g>
    </g>
    <g id="ytick_13">
     <g id="line2d_33">
      <g>
       <use xlink:href="#mb68e6f163a" x="33.345307" y="83.963264" style="stroke: #000000; stroke-width: 0.6"/>
      </g>
     </g>
    </g>
    <g id="ytick_14">
     <g id="line2d_34">
      <g>
       <use xlink:href="#mb68e6f163a" x="33.345307" y="77.480725" style="stroke: #000000; stroke-width: 0.6"/>
      </g>
     </g>
    </g>
    <g id="ytick_15">
     <g id="line2d_35">
      <g>
       <use xlink:href="#mb68e6f163a" x="33.345307" y="70.998186" style="stroke: #000000; stroke-width: 0.6"/>
      </g>
     </g>
    </g>
    <g id="ytick_16">
     <g id="line2d_36">
      <g>
       <use xlink:href="#mb68e6f163a" x="33.345307" y="58.033107" style="stroke: #000000; stroke-width: 0.6"/>
      </g>
     </g>
    </g>
    <g id="ytick_17">
     <g id="line2d_37">
      <g>
       <use xlink:href="#mb68e6f163a" x="33.345307" y="51.550567" style="stroke: #000000; stroke-width: 0.6"/>
      </g>
     </g>
    </g>
    <g id="ytick_18">
     <g id="line2d_38">
      <g>
       <use xlink:href="#mb68e6f163a" x="33.345307" y="45.068028" style="stroke: #000000; stroke-width: 0.6"/>
      </g>
     </g>
    </g>
    <g id="ytick_19">
     <g id="line2d_39">
      <g>
       <use xlink:href="#mb68e6f163a" x="33.345307" y="38.585489" style="stroke: #000000; stroke-width: 0.6"/>
      </g>
     </g>
    </g>
    <g id="ytick_20">
     <g id="line2d_40">
      <g>
       <use xlink:href="#mb68e6f163a" x="33.345307" y="25.62041" style="stroke: #000000; stroke-width: 0.6"/>
      </g>
     </g>
    </g>
    <g id="ytick_21">
     <g id="line2d_41">
      <g>
       <use xlink:href="#mb68e6f163a" x="33.345307" y="19.137871" style="stroke: #000000; stroke-width: 0.6"/>
      </g>
     </g>
    </g>
    <g id="ytick_22">
     <g id="line2d_42">
      <g>
       <use xlink:href="#mb68e6f163a" x="33.345307" y="12.655331" style="stroke: #000000; stroke-width: 0.6"/>
      </g>
     </g>
    </g>
    <g id="ytick_23">
     <g id="line2d_43">
      <g>
       <use xlink:href="#mb68e6f163a" x="33.345307" y="6.172792" style="stroke: #000000; stroke-width: 0.6"/>
      </g>
     </g>
    </g>
    <g id="text_10">
     <!-- $HV$ -->
     <g transform="translate(8.523271 85.190557) rotate(-90) scale(0.11 -0.11)">
      <defs>
       <path id="NewTXBMI-4e" d="M 4205 0 
L 4205 166 
C 3853 166 3738 230 3738 416 
C 3738 512 3763 640 3859 974 
L 3898 1116 
L 4595 3665 
C 4698 4005 4787 4082 5114 4127 
L 5114 4288 
L 3206 4288 
L 3206 4127 
L 3411 4095 
C 3610 4069 3674 4018 3674 3890 
C 3674 3813 3642 3621 3610 3499 
L 3309 2393 
L 1779 2393 
L 2125 3671 
C 2227 4025 2355 4121 2771 4121 
L 2771 4288 
L 742 4288 
L 742 4127 
L 941 4095 
C 1146 4069 1210 4011 1210 3871 
C 1210 3794 1190 3678 1139 3498 
L 358 622 
C 256 288 166 205 -154 160 
L -154 0 
L 1741 0 
L 1741 160 
C 1331 192 1274 230 1274 436 
C 1274 532 1293 647 1357 847 
L 1382 949 
L 1702 2112 
L 3232 2112 
L 2822 607 
C 2733 256 2605 166 2176 166 
L 2176 0 
L 4205 0 
z
" transform="scale(0.015625)"/>
       <path id="NewTXBMI-5c" d="M 4576 4096 
L 4576 4256 
L 3347 4256 
L 3347 4096 
L 3507 4083 
C 3686 4064 3763 4006 3763 3885 
C 3763 3745 3635 3470 3386 3075 
L 2170 1148 
L 1843 3706 
C 1837 3745 1837 3777 1837 3809 
C 1837 4025 1888 4057 2323 4096 
L 2323 4256 
L 416 4256 
L 416 4096 
C 813 4096 851 4032 992 3119 
L 1478 -128 
L 1683 -128 
L 4198 3841 
C 4282 3961 4397 4038 4576 4096 
z
" transform="scale(0.015625)"/>
      </defs>
      <use xlink:href="#NewTXBMI-4e" transform="scale(0.996264)"/>
      <use xlink:href="#NewTXBMI-5c" transform="translate(78.605194 0) scale(0.996264)"/>
     </g>
    </g>
   </g>
   <g id="LineCollection_1">
    <path d="M 45.660754 11.176663 
L 45.660754 7.931706 
" clip-path="url(#p94883dca76)" style="fill: none; stroke: #000000; stroke-width: 1.5"/>
    <path d="M 57.459419 19.289056 
L 57.459419 15.749103 
" clip-path="url(#p94883dca76)" style="fill: none; stroke: #000000; stroke-width: 1.5"/>
    <path d="M 60.703452 20.321542 
L 60.703452 16.191597 
" clip-path="url(#p94883dca76)" style="fill: none; stroke: #000000; stroke-width: 1.5"/>
    <path d="M 64.406018 22.091519 
L 64.406018 18.846562 
" clip-path="url(#p94883dca76)" style="fill: none; stroke: #000000; stroke-width: 1.5"/>
    <path d="M 73.438708 25.04148 
L 73.438708 22.386515 
" clip-path="url(#p94883dca76)" style="fill: none; stroke: #000000; stroke-width: 1.5"/>
    <path d="M 82.691694 32.563881 
L 82.691694 27.843943 
" clip-path="url(#p94883dca76)" style="fill: none; stroke: #000000; stroke-width: 1.5"/>
    <path d="M 104.485495 33.301371 
L 104.485495 30.056414 
" clip-path="url(#p94883dca76)" style="fill: none; stroke: #000000; stroke-width: 1.5"/>
    <path d="M 120.224963 42.151254 
L 120.224963 38.021309 
" clip-path="url(#p94883dca76)" style="fill: none; stroke: #000000; stroke-width: 1.5"/>
    <path d="M 138.69611 65.455946 
L 138.69611 60.146016 
" clip-path="url(#p94883dca76)" style="fill: none; stroke: #000000; stroke-width: 1.5"/>
    <path d="M 176.624594 94.365565 
L 176.624594 89.350631 
" clip-path="url(#p94883dca76)" style="fill: none; stroke: #000000; stroke-width: 1.5"/>
    <path d="M 207.818861 125.635152 
L 207.818861 121.21021 
" clip-path="url(#p94883dca76)" style="fill: none; stroke: #000000; stroke-width: 1.5"/>
    <path d="M 219.857874 129.912595 
L 219.857874 128.142618 
" clip-path="url(#p94883dca76)" style="fill: none; stroke: #000000; stroke-width: 1.5"/>
    <path d="M 275.470241 143.18742 
L 275.470241 139.942463 
" clip-path="url(#p94883dca76)" style="fill: none; stroke: #000000; stroke-width: 1.5"/>
   </g>
   <g id="line2d_44">
    <defs>
     <path id="mfb539d0738" d="M 2 0 
L -2 -0 
" style="stroke: #000000"/>
    </defs>
    <g clip-path="url(#p94883dca76)">
     <use xlink:href="#mfb539d0738" x="45.660754" y="11.176663" style="stroke: #000000"/>
     <use xlink:href="#mfb539d0738" x="57.459419" y="19.289056" style="stroke: #000000"/>
     <use xlink:href="#mfb539d0738" x="60.703452" y="20.321542" style="stroke: #000000"/>
     <use xlink:href="#mfb539d0738" x="64.406018" y="22.091519" style="stroke: #000000"/>
     <use xlink:href="#mfb539d0738" x="73.438708" y="25.04148" style="stroke: #000000"/>
     <use xlink:href="#mfb539d0738" x="82.691694" y="32.563881" style="stroke: #000000"/>
     <use xlink:href="#mfb539d0738" x="104.485495" y="33.301371" style="stroke: #000000"/>
     <use xlink:href="#mfb539d0738" x="120.224963" y="42.151254" style="stroke: #000000"/>
     <use xlink:href="#mfb539d0738" x="138.69611" y="65.455946" style="stroke: #000000"/>
     <use xlink:href="#mfb539d0738" x="176.624594" y="94.365565" style="stroke: #000000"/>
     <use xlink:href="#mfb539d0738" x="207.818861" y="125.635152" style="stroke: #000000"/>
     <use xlink:href="#mfb539d0738" x="219.857874" y="129.912595" style="stroke: #000000"/>
     <use xlink:href="#mfb539d0738" x="275.470241" y="143.18742" style="stroke: #000000"/>
    </g>
   </g>
   <g id="line2d_45">
    <g clip-path="url(#p94883dca76)">
     <use xlink:href="#mfb539d0738" x="45.660754" y="7.931706" style="stroke: #000000"/>
     <use xlink:href="#mfb539d0738" x="57.459419" y="15.749103" style="stroke: #000000"/>
     <use xlink:href="#mfb539d0738" x="60.703452" y="16.191597" style="stroke: #000000"/>
     <use xlink:href="#mfb539d0738" x="64.406018" y="18.846562" style="stroke: #000000"/>
     <use xlink:href="#mfb539d0738" x="73.438708" y="22.386515" style="stroke: #000000"/>
     <use xlink:href="#mfb539d0738" x="82.691694" y="27.843943" style="stroke: #000000"/>
     <use xlink:href="#mfb539d0738" x="104.485495" y="30.056414" style="stroke: #000000"/>
     <use xlink:href="#mfb539d0738" x="120.224963" y="38.021309" style="stroke: #000000"/>
     <use xlink:href="#mfb539d0738" x="138.69611" y="60.146016" style="stroke: #000000"/>
     <use xlink:href="#mfb539d0738" x="176.624594" y="89.350631" style="stroke: #000000"/>
     <use xlink:href="#mfb539d0738" x="207.818861" y="121.21021" style="stroke: #000000"/>
     <use xlink:href="#mfb539d0738" x="219.857874" y="128.142618" style="stroke: #000000"/>
     <use xlink:href="#mfb539d0738" x="275.470241" y="139.942463" style="stroke: #000000"/>
    </g>
   </g>
   <g id="LineCollection_2">
    <path d="M 44.875065 10.799074 
L 44.875065 8.701232 
" clip-path="url(#p94883dca76)" style="fill: none; stroke: #000000; stroke-width: 1.5"/>
    <path d="M 47.975218 22.925227 
L 47.975218 18.72842 
" clip-path="url(#p94883dca76)" style="fill: none; stroke: #000000; stroke-width: 1.5"/>
    <path d="M 49.672409 27.862473 
L 49.672409 23.967124 
" clip-path="url(#p94883dca76)" style="fill: none; stroke: #000000; stroke-width: 1.5"/>
    <path d="M 51.196264 30.104019 
L 51.196264 25.907774 
" clip-path="url(#p94883dca76)" style="fill: none; stroke: #000000; stroke-width: 1.5"/>
    <path d="M 52.603975 31.146759 
L 52.603975 26.350409 
" clip-path="url(#p94883dca76)" style="fill: none; stroke: #000000; stroke-width: 1.5"/>
    <path d="M 54.126067 34.886884 
L 54.126067 30.689516 
" clip-path="url(#p94883dca76)" style="fill: none; stroke: #000000; stroke-width: 1.5"/>
    <path d="M 57.395891 53.156676 
L 57.395891 48.660659 
" clip-path="url(#p94883dca76)" style="fill: none; stroke: #000000; stroke-width: 1.5"/>
    <path d="M 60.430441 73.526837 
L 60.430441 65.732767 
" clip-path="url(#p94883dca76)" style="fill: none; stroke: #000000; stroke-width: 1.5"/>
    <path d="M 62.064471 84.160592 
L 62.064471 75.167997 
" clip-path="url(#p94883dca76)" style="fill: none; stroke: #000000; stroke-width: 1.5"/>
    <path d="M 63.58005 92.99712 
L 63.58005 88.799752 
" clip-path="url(#p94883dca76)" style="fill: none; stroke: #000000; stroke-width: 1.5"/>
    <path d="M 65.144949 117.720717 
L 65.144949 107.228139 
" clip-path="url(#p94883dca76)" style="fill: none; stroke: #000000; stroke-width: 1.5"/>
    <path d="M 72.809884 140.317254 
L 72.809884 134.32013 
" clip-path="url(#p94883dca76)" style="fill: none; stroke: #000000; stroke-width: 1.5"/>
    <path d="M 82.311085 146.565826 
L 82.311085 139.971406 
" clip-path="url(#p94883dca76)" style="fill: none; stroke: #000000; stroke-width: 1.5"/>
    <path d="M 100.913289 145.578574 
L 100.913289 141.380081 
" clip-path="url(#p94883dca76)" style="fill: none; stroke: #000000; stroke-width: 1.5"/>
   </g>
   <g id="line2d_46">
    <g clip-path="url(#p94883dca76)">
     <use xlink:href="#mfb539d0738" x="44.875065" y="10.799074" style="stroke: #000000"/>
     <use xlink:href="#mfb539d0738" x="47.975218" y="22.925227" style="stroke: #000000"/>
     <use xlink:href="#mfb539d0738" x="49.672409" y="27.862473" style="stroke: #000000"/>
     <use xlink:href="#mfb539d0738" x="51.196264" y="30.104019" style="stroke: #000000"/>
     <use xlink:href="#mfb539d0738" x="52.603975" y="31.146759" style="stroke: #000000"/>
     <use xlink:href="#mfb539d0738" x="54.126067" y="34.886884" style="stroke: #000000"/>
     <use xlink:href="#mfb539d0738" x="57.395891" y="53.156676" style="stroke: #000000"/>
     <use xlink:href="#mfb539d0738" x="60.430441" y="73.526837" style="stroke: #000000"/>
     <use xlink:href="#mfb539d0738" x="62.064471" y="84.160592" style="stroke: #000000"/>
     <use xlink:href="#mfb539d0738" x="63.58005" y="92.99712" style="stroke: #000000"/>
     <use xlink:href="#mfb539d0738" x="65.144949" y="117.720717" style="stroke: #000000"/>
     <use xlink:href="#mfb539d0738" x="72.809884" y="140.317254" style="stroke: #000000"/>
     <use xlink:href="#mfb539d0738" x="82.311085" y="146.565826" style="stroke: #000000"/>
     <use xlink:href="#mfb539d0738" x="100.913289" y="145.578574" style="stroke: #000000"/>
    </g>
   </g>
   <g id="line2d_47">
    <g clip-path="url(#p94883dca76)">
     <use xlink:href="#mfb539d0738" x="44.875065" y="8.701232" style="stroke: #000000"/>
     <use xlink:href="#mfb539d0738" x="47.975218" y="18.72842" style="stroke: #000000"/>
     <use xlink:href="#mfb539d0738" x="49.672409" y="23.967124" style="stroke: #000000"/>
     <use xlink:href="#mfb539d0738" x="51.196264" y="25.907774" style="stroke: #000000"/>
     <use xlink:href="#mfb539d0738" x="52.603975" y="26.350409" style="stroke: #000000"/>
     <use xlink:href="#mfb539d0738" x="54.126067" y="30.689516" style="stroke: #000000"/>
     <use xlink:href="#mfb539d0738" x="57.395891" y="48.660659" style="stroke: #000000"/>
     <use xlink:href="#mfb539d0738" x="60.430441" y="65.732767" style="stroke: #000000"/>
     <use xlink:href="#mfb539d0738" x="62.064471" y="75.167997" style="stroke: #000000"/>
     <use xlink:href="#mfb539d0738" x="63.58005" y="88.799752" style="stroke: #000000"/>
     <use xlink:href="#mfb539d0738" x="65.144949" y="107.228139" style="stroke: #000000"/>
     <use xlink:href="#mfb539d0738" x="72.809884" y="134.32013" style="stroke: #000000"/>
     <use xlink:href="#mfb539d0738" x="82.311085" y="139.971406" style="stroke: #000000"/>
     <use xlink:href="#mfb539d0738" x="100.913289" y="141.380081" style="stroke: #000000"/>
    </g>
   </g>
   <g id="patch_3">
    <path d="M 33.345307 153.497532 
L 33.345307 1 
" style="fill: none; stroke: #000000; stroke-width: 0.8; stroke-linejoin: miter; stroke-linecap: square"/>
   </g>
   <g id="patch_4">
    <path d="M 287 153.497532 
L 287 1 
" style="fill: none; stroke: #000000; stroke-width: 0.8; stroke-linejoin: miter; stroke-linecap: square"/>
   </g>
   <g id="patch_5">
    <path d="M 33.345307 153.497532 
L 287 153.497532 
" style="fill: none; stroke: #000000; stroke-width: 0.8; stroke-linejoin: miter; stroke-linecap: square"/>
   </g>
   <g id="patch_6">
    <path d="M 33.345307 1 
L 287 1 
" style="fill: none; stroke: #000000; stroke-width: 0.8; stroke-linejoin: miter; stroke-linecap: square"/>
   </g>
   <g id="PathCollection_1">
    <defs>
     <path id="m36752d5033" d="M 0 -3.162278 
L -2.738613 -1.581139 
L -2.738613 1.581139 
L -0 3.162278 
L 2.738613 1.581139 
L 2.738613 -1.581139 
z
" style="stroke: #000000"/>
    </defs>
    <g clip-path="url(#p94883dca76)">
     <use xlink:href="#m36752d5033" x="45.660754" y="9.554185" style="fill: #1b9e77; stroke: #000000"/>
     <use xlink:href="#m36752d5033" x="57.459419" y="17.519079" style="fill: #1b9e77; stroke: #000000"/>
     <use xlink:href="#m36752d5033" x="60.703452" y="18.25657" style="fill: #1b9e77; stroke: #000000"/>
     <use xlink:href="#m36752d5033" x="64.406018" y="20.46904" style="fill: #1b9e77; stroke: #000000"/>
     <use xlink:href="#m36752d5033" x="73.438708" y="23.713998" style="fill: #1b9e77; stroke: #000000"/>
     <use xlink:href="#m36752d5033" x="82.691694" y="30.203912" style="fill: #1b9e77; stroke: #000000"/>
     <use xlink:href="#m36752d5033" x="104.485495" y="31.678892" style="fill: #1b9e77; stroke: #000000"/>
     <use xlink:href="#m36752d5033" x="120.224963" y="40.086281" style="fill: #1b9e77; stroke: #000000"/>
     <use xlink:href="#m36752d5033" x="138.69611" y="62.800981" style="fill: #1b9e77; stroke: #000000"/>
     <use xlink:href="#m36752d5033" x="176.624594" y="91.858098" style="fill: #1b9e77; stroke: #000000"/>
     <use xlink:href="#m36752d5033" x="207.818861" y="123.422681" style="fill: #1b9e77; stroke: #000000"/>
     <use xlink:href="#m36752d5033" x="219.857874" y="129.027607" style="fill: #1b9e77; stroke: #000000"/>
     <use xlink:href="#m36752d5033" x="275.470241" y="141.564941" style="fill: #1b9e77; stroke: #000000"/>
    </g>
   </g>
   <g id="PathCollection_2">
    <defs>
     <path id="mc653f53120" d="M 0 -3.162278 
L -2.738613 -1.581139 
L -2.738613 1.581139 
L -0 3.162278 
L 2.738613 1.581139 
L 2.738613 -1.581139 
z
" style="stroke: #000000"/>
    </defs>
    <g clip-path="url(#p94883dca76)">
     <use xlink:href="#mc653f53120" x="44.875065" y="9.750153" style="fill: #d95f02; stroke: #000000"/>
     <use xlink:href="#mc653f53120" x="47.975218" y="20.826823" style="fill: #d95f02; stroke: #000000"/>
     <use xlink:href="#mc653f53120" x="49.672409" y="25.914798" style="fill: #d95f02; stroke: #000000"/>
     <use xlink:href="#mc653f53120" x="51.196264" y="28.005897" style="fill: #d95f02; stroke: #000000"/>
     <use xlink:href="#mc653f53120" x="52.603975" y="28.748584" style="fill: #d95f02; stroke: #000000"/>
     <use xlink:href="#mc653f53120" x="54.126067" y="32.7882" style="fill: #d95f02; stroke: #000000"/>
     <use xlink:href="#mc653f53120" x="57.395891" y="50.908667" style="fill: #d95f02; stroke: #000000"/>
     <use xlink:href="#mc653f53120" x="60.430441" y="69.629802" style="fill: #d95f02; stroke: #000000"/>
     <use xlink:href="#mc653f53120" x="62.064471" y="79.664294" style="fill: #d95f02; stroke: #000000"/>
     <use xlink:href="#mc653f53120" x="63.58005" y="90.898436" style="fill: #d95f02; stroke: #000000"/>
     <use xlink:href="#mc653f53120" x="65.144949" y="112.474428" style="fill: #d95f02; stroke: #000000"/>
     <use xlink:href="#mc653f53120" x="72.809884" y="137.318692" style="fill: #d95f02; stroke: #000000"/>
     <use xlink:href="#mc653f53120" x="82.311085" y="143.268616" style="fill: #d95f02; stroke: #000000"/>
     <use xlink:href="#mc653f53120" x="100.913289" y="143.479328" style="fill: #d95f02; stroke: #000000"/>
    </g>
   </g>
  </g>
 </g>
 <defs>
  <clipPath id="p94883dca76">
   <rect x="33.345307" y="1" width="253.654693" height="152.497532"/>
  </clipPath>
 </defs>
</svg>
