<?xml version="1.0" encoding="utf-8" standalone="no"?>
<!DOCTYPE svg PUBLIC "-//W3C//DTD SVG 1.1//EN"
  "http://www.w3.org/Graphics/SVG/1.1/DTD/svg11.dtd">
<svg xmlns:xlink="http://www.w3.org/1999/xlink" width="216pt" height="252pt" viewBox="0 0 216 252" xmlns="http://www.w3.org/2000/svg" version="1.1">
 <metadata>
  <rdf:RDF xmlns:dc="http://purl.org/dc/elements/1.1/" xmlns:cc="http://creativecommons.org/ns#" xmlns:rdf="http://www.w3.org/1999/02/22-rdf-syntax-ns#">
   <cc:Work>
    <dc:type rdf:resource="http://purl.org/dc/dcmitype/StillImage"/>
    <dc:date>2024-10-17T16:53:44.230831</dc:date>
    <dc:format>image/svg+xml</dc:format>
    <dc:creator>
     <cc:Agent>
      <dc:title>Matplotlib v3.9.0, https://matplotlib.org/</dc:title>
     </cc:Agent>
    </dc:creator>
   </cc:Work>
  </rdf:RDF>
 </metadata>
 <defs>
  <style type="text/css">*{stroke-linejoin: round; stroke-linecap: butt}</style>
 </defs>
 <g id="figure_1">
  <g id="patch_1">
   <path d="M 0 252 
L 216 252 
L 216 0 
L 0 0 
z
" style="fill: #ffffff"/>
  </g>
  <g id="axes_1">
   <g id="patch_2">
    <path d="M 55.745479 206.797179 
L 215 206.797179 
L 215 1 
L 55.745479 1 
z
" style="fill: #ffffff"/>
   </g>
   <g id="matplotlib.axis_1">
    <g id="xtick_1">
     <g id="line2d_1">
      <defs>
       <path id="m7d7c3a58c7" d="M 0 0 
L 0 -3.5 
" style="stroke: #000000; stroke-width: 0.8"/>
      </defs>
      <g>
       <use xlink:href="#m7d7c3a58c7" x="62.984321" y="206.797179" style="stroke: #000000; stroke-width: 0.8"/>
      </g>
     </g>
     <g id="text_1">
      <!-- $\mathdefault{0.000}$ -->
      <g transform="translate(50.531614 217.82045) scale(0.11 -0.11)">
       <defs>
        <path id="TeXGyreTermesX-Bold-30" d="M 3046 2166 
C 3046 3440 2426 4403 1600 4403 
C 1184 4403 762 4123 499 3664 
C 294 3313 154 2714 154 2185 
C 154 873 755 -64 1606 -64 
C 2432 -64 3046 886 3046 2166 
z
M 2035 1434 
C 2035 1058 1984 561 1926 389 
C 1856 203 1754 114 1606 114 
C 1286 114 1165 491 1165 1434 
L 1165 2892 
C 1165 3855 1286 4224 1594 4224 
C 1907 4224 2035 3829 2035 2892 
L 2035 1434 
z
" transform="scale(0.015625)"/>
        <path id="NewTXBMI-93" d="M 1344 473 
C 1344 768 1101 1017 800 1017 
C 493 1017 262 761 262 473 
C 262 173 493 -64 800 -64 
C 1101 -64 1344 166 1344 473 
z
" transform="scale(0.015625)"/>
       </defs>
       <use xlink:href="#TeXGyreTermesX-Bold-30" transform="scale(0.996264)"/>
       <use xlink:href="#NewTXBMI-93" transform="translate(51.407199 0) scale(0.996264)"/>
       <use xlink:href="#TeXGyreTermesX-Bold-30" transform="translate(78.00746 0) scale(0.996264)"/>
       <use xlink:href="#TeXGyreTermesX-Bold-30" transform="translate(127.82066 0) scale(0.996264)"/>
       <use xlink:href="#TeXGyreTermesX-Bold-30" transform="translate(177.633861 0) scale(0.996264)"/>
      </g>
     </g>
    </g>
    <g id="xtick_2">
     <g id="line2d_2">
      <g>
       <use xlink:href="#m7d7c3a58c7" x="108.227083" y="206.797179" style="stroke: #000000; stroke-width: 0.8"/>
      </g>
     </g>
     <g id="text_2">
      <!-- $\mathdefault{0.005}$ -->
      <g transform="translate(95.774375 217.82045) scale(0.11 -0.11)">
       <defs>
        <path id="TeXGyreTermesX-Bold-35" d="M 3008 4288 
L 947 4288 
L 326 2093 
C 934 2049 1197 2010 1478 1921 
C 2048 1743 2387 1381 2387 960 
C 2387 604 2106 324 1747 324 
C 1600 324 1427 400 1171 591 
C 896 795 704 877 538 877 
C 307 877 141 718 141 496 
C 141 159 512 -64 1082 -64 
C 2138 -64 2886 575 2886 1476 
C 2886 2140 2477 2652 1779 2850 
C 1536 2920 1338 2946 813 2946 
L 954 3481 
L 2733 3481 
L 3008 4288 
z
" transform="scale(0.015625)"/>
       </defs>
       <use xlink:href="#TeXGyreTermesX-Bold-30" transform="scale(0.996264)"/>
       <use xlink:href="#NewTXBMI-93" transform="translate(51.407199 0) scale(0.996264)"/>
       <use xlink:href="#TeXGyreTermesX-Bold-30" transform="translate(78.00746 0) scale(0.996264)"/>
       <use xlink:href="#TeXGyreTermesX-Bold-30" transform="translate(127.82066 0) scale(0.996264)"/>
       <use xlink:href="#TeXGyreTermesX-Bold-35" transform="translate(177.633861 0) scale(0.996264)"/>
      </g>
     </g>
    </g>
    <g id="xtick_3">
     <g id="line2d_3">
      <g>
       <use xlink:href="#m7d7c3a58c7" x="153.469844" y="206.797179" style="stroke: #000000; stroke-width: 0.8"/>
      </g>
     </g>
     <g id="text_3">
      <!-- $\mathdefault{0.010}$ -->
      <g transform="translate(141.017137 217.82045) scale(0.11 -0.11)">
       <defs>
        <path id="TeXGyreTermesX-Bold-31" d="M 2829 0 
L 2829 159 
C 2246 159 2138 255 2138 746 
L 2138 4384 
L 2029 4384 
L 416 3686 
L 416 3521 
C 474 3540 525 3559 544 3572 
C 717 3635 877 3680 960 3680 
C 1120 3680 1190 3540 1190 3241 
L 1190 790 
C 1190 267 1062 159 429 159 
L 429 0 
L 2829 0 
z
" transform="scale(0.015625)"/>
       </defs>
       <use xlink:href="#TeXGyreTermesX-Bold-30" transform="scale(0.996264)"/>
       <use xlink:href="#NewTXBMI-93" transform="translate(51.407199 0) scale(0.996264)"/>
       <use xlink:href="#TeXGyreTermesX-Bold-30" transform="translate(78.00746 0) scale(0.996264)"/>
       <use xlink:href="#TeXGyreTermesX-Bold-31" transform="translate(127.82066 0) scale(0.996264)"/>
       <use xlink:href="#TeXGyreTermesX-Bold-30" transform="translate(177.633861 0) scale(0.996264)"/>
      </g>
     </g>
    </g>
    <g id="xtick_4">
     <g id="line2d_4">
      <g>
       <use xlink:href="#m7d7c3a58c7" x="198.712606" y="206.797179" style="stroke: #000000; stroke-width: 0.8"/>
      </g>
     </g>
     <g id="text_4">
      <!-- $\mathdefault{0.015}$ -->
      <g transform="translate(186.259899 217.82045) scale(0.11 -0.11)">
       <use xlink:href="#TeXGyreTermesX-Bold-30" transform="scale(0.996264)"/>
       <use xlink:href="#NewTXBMI-93" transform="translate(51.407199 0) scale(0.996264)"/>
       <use xlink:href="#TeXGyreTermesX-Bold-30" transform="translate(78.00746 0) scale(0.996264)"/>
       <use xlink:href="#TeXGyreTermesX-Bold-31" transform="translate(127.82066 0) scale(0.996264)"/>
       <use xlink:href="#TeXGyreTermesX-Bold-35" transform="translate(177.633861 0) scale(0.996264)"/>
      </g>
     </g>
    </g>
    <g id="xtick_5">
     <g id="line2d_5">
      <defs>
       <path id="m274638df45" d="M 0 0 
L 0 -2 
" style="stroke: #000000; stroke-width: 0.6"/>
      </defs>
      <g>
       <use xlink:href="#m274638df45" x="72.032873" y="206.797179" style="stroke: #000000; stroke-width: 0.6"/>
      </g>
     </g>
    </g>
    <g id="xtick_6">
     <g id="line2d_6">
      <g>
       <use xlink:href="#m274638df45" x="81.081426" y="206.797179" style="stroke: #000000; stroke-width: 0.6"/>
      </g>
     </g>
    </g>
    <g id="xtick_7">
     <g id="line2d_7">
      <g>
       <use xlink:href="#m274638df45" x="90.129978" y="206.797179" style="stroke: #000000; stroke-width: 0.6"/>
      </g>
     </g>
    </g>
    <g id="xtick_8">
     <g id="line2d_8">
      <g>
       <use xlink:href="#m274638df45" x="99.17853" y="206.797179" style="stroke: #000000; stroke-width: 0.6"/>
      </g>
     </g>
    </g>
    <g id="xtick_9">
     <g id="line2d_9">
      <g>
       <use xlink:href="#m274638df45" x="117.275635" y="206.797179" style="stroke: #000000; stroke-width: 0.6"/>
      </g>
     </g>
    </g>
    <g id="xtick_10">
     <g id="line2d_10">
      <g>
       <use xlink:href="#m274638df45" x="126.324187" y="206.797179" style="stroke: #000000; stroke-width: 0.6"/>
      </g>
     </g>
    </g>
    <g id="xtick_11">
     <g id="line2d_11">
      <g>
       <use xlink:href="#m274638df45" x="135.372739" y="206.797179" style="stroke: #000000; stroke-width: 0.6"/>
      </g>
     </g>
    </g>
    <g id="xtick_12">
     <g id="line2d_12">
      <g>
       <use xlink:href="#m274638df45" x="144.421292" y="206.797179" style="stroke: #000000; stroke-width: 0.6"/>
      </g>
     </g>
    </g>
    <g id="xtick_13">
     <g id="line2d_13">
      <g>
       <use xlink:href="#m274638df45" x="162.518396" y="206.797179" style="stroke: #000000; stroke-width: 0.6"/>
      </g>
     </g>
    </g>
    <g id="xtick_14">
     <g id="line2d_14">
      <g>
       <use xlink:href="#m274638df45" x="171.566949" y="206.797179" style="stroke: #000000; stroke-width: 0.6"/>
      </g>
     </g>
    </g>
    <g id="xtick_15">
     <g id="line2d_15">
      <g>
       <use xlink:href="#m274638df45" x="180.615501" y="206.797179" style="stroke: #000000; stroke-width: 0.6"/>
      </g>
     </g>
    </g>
    <g id="xtick_16">
     <g id="line2d_16">
      <g>
       <use xlink:href="#m274638df45" x="189.664053" y="206.797179" style="stroke: #000000; stroke-width: 0.6"/>
      </g>
     </g>
    </g>
    <g id="xtick_17">
     <g id="line2d_17">
      <g>
       <use xlink:href="#m274638df45" x="207.761158" y="206.797179" style="stroke: #000000; stroke-width: 0.6"/>
      </g>
     </g>
    </g>
    <g id="text_5">
     <!-- $\varepsilon$ -->
     <g transform="translate(132.306244 248.40574) scale(0.12 -0.12)">
      <defs>
       <path id="NewTXBMI-39" d="M 3264 2330 
C 3264 2829 2394 2944 2022 2944 
C 1491 2944 634 2715 634 2040 
C 634 1759 851 1628 1088 1543 
C 659 1485 109 1219 109 724 
C 109 70 896 -64 1402 -64 
C 1907 -64 2515 86 2854 495 
C 2938 592 3008 715 3008 844 
C 3008 1000 2874 1117 2726 1117 
C 2298 1117 2291 135 1472 135 
C 1114 135 973 338 973 673 
C 973 1021 1197 1344 1574 1344 
C 1760 1344 1939 1274 2131 1274 
C 2298 1274 2362 1370 2362 1530 
C 2362 1677 2272 1728 2138 1728 
C 2029 1728 1926 1671 1818 1671 
C 1632 1671 1414 1730 1414 1961 
C 1414 2337 1587 2739 2010 2739 
C 2618 2739 2496 2029 2976 2029 
C 3174 2029 3264 2138 3264 2330 
z
" transform="scale(0.015625)"/>
      </defs>
      <use xlink:href="#NewTXBMI-39" transform="scale(0.996264)"/>
     </g>
    </g>
   </g>
   <g id="matplotlib.axis_2">
    <g id="ytick_1">
     <g id="line2d_18">
      <defs>
       <path id="md5b2b10006" d="M 0 0 
L 3.5 0 
" style="stroke: #000000; stroke-width: 0.8"/>
      </defs>
      <g>
       <use xlink:href="#md5b2b10006" x="55.745479" y="197.442762" style="stroke: #000000; stroke-width: 0.8"/>
      </g>
     </g>
     <g id="text_6">
      <!-- $\mathdefault{0}$ -->
      <g transform="translate(46.790943 201.204397) scale(0.11 -0.11)">
       <use xlink:href="#TeXGyreTermesX-Bold-30" transform="scale(0.996264)"/>
      </g>
     </g>
    </g>
    <g id="ytick_2">
     <g id="line2d_19">
      <g>
       <use xlink:href="#md5b2b10006" x="55.745479" y="160.042796" style="stroke: #000000; stroke-width: 0.8"/>
      </g>
     </g>
     <g id="text_7">
      <!-- $\mathdefault{200}$ -->
      <g transform="translate(35.88187 163.804431) scale(0.11 -0.11)">
       <defs>
        <path id="TeXGyreTermesX-Bold-32" d="M 3059 1341 
L 2906 1341 
C 2720 884 2643 846 1990 846 
L 1024 846 
L 2061 1824 
C 2566 2301 2790 2726 2790 3210 
C 2790 3889 2298 4373 1606 4373 
C 1286 4373 979 4245 755 4016 
C 506 3768 378 3552 198 3075 
L 378 3075 
C 576 3469 813 3648 1158 3648 
C 1440 3648 1651 3527 1792 3298 
C 1869 3164 1920 2987 1920 2841 
C 1920 2561 1798 2211 1594 1900 
C 1267 1405 1043 1137 109 146 
L 109 0 
L 2771 0 
L 3059 1341 
z
" transform="scale(0.015625)"/>
       </defs>
       <use xlink:href="#TeXGyreTermesX-Bold-32" transform="scale(0.996264)"/>
       <use xlink:href="#TeXGyreTermesX-Bold-30" transform="translate(49.8132 0) scale(0.996264)"/>
       <use xlink:href="#TeXGyreTermesX-Bold-30" transform="translate(99.626401 0) scale(0.996264)"/>
      </g>
     </g>
    </g>
    <g id="ytick_3">
     <g id="line2d_20">
      <g>
       <use xlink:href="#md5b2b10006" x="55.745479" y="122.64283" style="stroke: #000000; stroke-width: 0.8"/>
      </g>
     </g>
     <g id="text_8">
      <!-- $\mathdefault{400}$ -->
      <g transform="translate(35.88187 126.404465) scale(0.11 -0.11)">
       <defs>
        <path id="TeXGyreTermesX-Bold-34" d="M 3040 896 
L 3040 1602 
L 2637 1602 
L 2637 4352 
L 2125 4352 
L 1747 3863 
C 928 2803 506 2219 122 1615 
L 122 896 
L 1709 896 
L 1709 -32 
L 2637 -32 
L 2637 896 
L 3040 896 
z
M 1722 1602 
L 384 1602 
L 1722 3488 
L 1722 1602 
z
" transform="scale(0.015625)"/>
       </defs>
       <use xlink:href="#TeXGyreTermesX-Bold-34" transform="scale(0.996264)"/>
       <use xlink:href="#TeXGyreTermesX-Bold-30" transform="translate(49.8132 0) scale(0.996264)"/>
       <use xlink:href="#TeXGyreTermesX-Bold-30" transform="translate(99.626401 0) scale(0.996264)"/>
      </g>
     </g>
    </g>
    <g id="ytick_4">
     <g id="line2d_21">
      <g>
       <use xlink:href="#md5b2b10006" x="55.745479" y="85.242864" style="stroke: #000000; stroke-width: 0.8"/>
      </g>
     </g>
     <g id="text_9">
      <!-- $\mathdefault{600}$ -->
      <g transform="translate(35.88187 89.0045) scale(0.11 -0.11)">
       <defs>
        <path id="TeXGyreTermesX-Bold-36" d="M 3040 1427 
C 3040 2193 2573 2688 1843 2688 
C 1638 2688 1498 2663 1306 2580 
C 1542 3515 2074 4030 3008 4221 
L 3008 4387 
C 2157 4266 1760 4126 1274 3796 
C 557 3307 179 2596 179 1752 
C 179 654 768 -64 1664 -64 
C 2458 -64 3040 564 3040 1427 
z
M 2067 1046 
C 2067 298 1990 108 1677 108 
C 1530 108 1414 172 1350 291 
C 1242 501 1178 964 1178 1553 
C 1178 1946 1216 2307 1261 2339 
C 1312 2377 1402 2402 1491 2402 
C 1920 2402 2067 2054 2067 1046 
z
" transform="scale(0.015625)"/>
       </defs>
       <use xlink:href="#TeXGyreTermesX-Bold-36" transform="scale(0.996264)"/>
       <use xlink:href="#TeXGyreTermesX-Bold-30" transform="translate(49.8132 0) scale(0.996264)"/>
       <use xlink:href="#TeXGyreTermesX-Bold-30" transform="translate(99.626401 0) scale(0.996264)"/>
      </g>
     </g>
    </g>
    <g id="ytick_5">
     <g id="line2d_22">
      <g>
       <use xlink:href="#md5b2b10006" x="55.745479" y="47.842898" style="stroke: #000000; stroke-width: 0.8"/>
      </g>
     </g>
     <g id="text_10">
      <!-- $\mathdefault{800}$ -->
      <g transform="translate(35.88187 51.604534) scale(0.11 -0.11)">
       <defs>
        <path id="TeXGyreTermesX-Bold-38" d="M 3021 1212 
C 3021 1768 2746 2164 2061 2597 
C 2675 2815 2931 3075 2931 3483 
C 2931 4051 2445 4409 1683 4409 
C 819 4409 250 3961 250 3292 
C 250 2814 506 2462 1139 2086 
C 774 1965 627 1881 461 1722 
C 275 1543 179 1301 179 1020 
C 179 370 723 -64 1536 -64 
C 2426 -64 3021 447 3021 1212 
z
M 2170 3439 
C 2170 3139 2118 2993 1907 2712 
C 1370 2986 1075 3337 1075 3694 
C 1075 3994 1306 4224 1606 4224 
C 1965 4224 2170 3937 2170 3439 
z
M 2131 829 
C 2131 402 1920 140 1574 140 
C 1184 140 954 478 954 1046 
C 954 1397 1024 1595 1280 1971 
C 1978 1505 2131 1301 2131 829 
z
" transform="scale(0.015625)"/>
       </defs>
       <use xlink:href="#TeXGyreTermesX-Bold-38" transform="scale(0.996264)"/>
       <use xlink:href="#TeXGyreTermesX-Bold-30" transform="translate(49.8132 0) scale(0.996264)"/>
       <use xlink:href="#TeXGyreTermesX-Bold-30" transform="translate(99.626401 0) scale(0.996264)"/>
      </g>
     </g>
    </g>
    <g id="ytick_6">
     <g id="line2d_23">
      <g>
       <use xlink:href="#md5b2b10006" x="55.745479" y="10.442932" style="stroke: #000000; stroke-width: 0.8"/>
      </g>
     </g>
     <g id="text_11">
      <!-- $\mathdefault{1000}$ -->
      <g transform="translate(30.427334 14.204568) scale(0.11 -0.11)">
       <use xlink:href="#TeXGyreTermesX-Bold-31" transform="scale(0.996264)"/>
       <use xlink:href="#TeXGyreTermesX-Bold-30" transform="translate(49.8132 0) scale(0.996264)"/>
       <use xlink:href="#TeXGyreTermesX-Bold-30" transform="translate(99.626401 0) scale(0.996264)"/>
       <use xlink:href="#TeXGyreTermesX-Bold-30" transform="translate(149.439601 0) scale(0.996264)"/>
      </g>
     </g>
    </g>
    <g id="ytick_7">
     <g id="line2d_24">
      <defs>
       <path id="mf0d5727b78" d="M 0 0 
L 2 0 
" style="stroke: #000000; stroke-width: 0.6"/>
      </defs>
      <g>
       <use xlink:href="#mf0d5727b78" x="55.745479" y="204.922755" style="stroke: #000000; stroke-width: 0.6"/>
      </g>
     </g>
    </g>
    <g id="ytick_8">
     <g id="line2d_25">
      <g>
       <use xlink:href="#mf0d5727b78" x="55.745479" y="189.962769" style="stroke: #000000; stroke-width: 0.6"/>
      </g>
     </g>
    </g>
    <g id="ytick_9">
     <g id="line2d_26">
      <g>
       <use xlink:href="#mf0d5727b78" x="55.745479" y="182.482775" style="stroke: #000000; stroke-width: 0.6"/>
      </g>
     </g>
    </g>
    <g id="ytick_10">
     <g id="line2d_27">
      <g>
       <use xlink:href="#mf0d5727b78" x="55.745479" y="175.002782" style="stroke: #000000; stroke-width: 0.6"/>
      </g>
     </g>
    </g>
    <g id="ytick_11">
     <g id="line2d_28">
      <g>
       <use xlink:href="#mf0d5727b78" x="55.745479" y="167.522789" style="stroke: #000000; stroke-width: 0.6"/>
      </g>
     </g>
    </g>
    <g id="ytick_12">
     <g id="line2d_29">
      <g>
       <use xlink:href="#mf0d5727b78" x="55.745479" y="152.562803" style="stroke: #000000; stroke-width: 0.6"/>
      </g>
     </g>
    </g>
    <g id="ytick_13">
     <g id="line2d_30">
      <g>
       <use xlink:href="#mf0d5727b78" x="55.745479" y="145.08281" style="stroke: #000000; stroke-width: 0.6"/>
      </g>
     </g>
    </g>
    <g id="ytick_14">
     <g id="line2d_31">
      <g>
       <use xlink:href="#mf0d5727b78" x="55.745479" y="137.602816" style="stroke: #000000; stroke-width: 0.6"/>
      </g>
     </g>
    </g>
    <g id="ytick_15">
     <g id="line2d_32">
      <g>
       <use xlink:href="#mf0d5727b78" x="55.745479" y="130.122823" style="stroke: #000000; stroke-width: 0.6"/>
      </g>
     </g>
    </g>
    <g id="ytick_16">
     <g id="line2d_33">
      <g>
       <use xlink:href="#mf0d5727b78" x="55.745479" y="115.162837" style="stroke: #000000; stroke-width: 0.6"/>
      </g>
     </g>
    </g>
    <g id="ytick_17">
     <g id="line2d_34">
      <g>
       <use xlink:href="#mf0d5727b78" x="55.745479" y="107.682844" style="stroke: #000000; stroke-width: 0.6"/>
      </g>
     </g>
    </g>
    <g id="ytick_18">
     <g id="line2d_35">
      <g>
       <use xlink:href="#mf0d5727b78" x="55.745479" y="100.20285" style="stroke: #000000; stroke-width: 0.6"/>
      </g>
     </g>
    </g>
    <g id="ytick_19">
     <g id="line2d_36">
      <g>
       <use xlink:href="#mf0d5727b78" x="55.745479" y="92.722857" style="stroke: #000000; stroke-width: 0.6"/>
      </g>
     </g>
    </g>
    <g id="ytick_20">
     <g id="line2d_37">
      <g>
       <use xlink:href="#mf0d5727b78" x="55.745479" y="77.762871" style="stroke: #000000; stroke-width: 0.6"/>
      </g>
     </g>
    </g>
    <g id="ytick_21">
     <g id="line2d_38">
      <g>
       <use xlink:href="#mf0d5727b78" x="55.745479" y="70.282878" style="stroke: #000000; stroke-width: 0.6"/>
      </g>
     </g>
    </g>
    <g id="ytick_22">
     <g id="line2d_39">
      <g>
       <use xlink:href="#mf0d5727b78" x="55.745479" y="62.802885" style="stroke: #000000; stroke-width: 0.6"/>
      </g>
     </g>
    </g>
    <g id="ytick_23">
     <g id="line2d_40">
      <g>
       <use xlink:href="#mf0d5727b78" x="55.745479" y="55.322891" style="stroke: #000000; stroke-width: 0.6"/>
      </g>
     </g>
    </g>
    <g id="ytick_24">
     <g id="line2d_41">
      <g>
       <use xlink:href="#mf0d5727b78" x="55.745479" y="40.362905" style="stroke: #000000; stroke-width: 0.6"/>
      </g>
     </g>
    </g>
    <g id="ytick_25">
     <g id="line2d_42">
      <g>
       <use xlink:href="#mf0d5727b78" x="55.745479" y="32.882912" style="stroke: #000000; stroke-width: 0.6"/>
      </g>
     </g>
    </g>
    <g id="ytick_26">
     <g id="line2d_43">
      <g>
       <use xlink:href="#mf0d5727b78" x="55.745479" y="25.402919" style="stroke: #000000; stroke-width: 0.6"/>
      </g>
     </g>
    </g>
    <g id="ytick_27">
     <g id="line2d_44">
      <g>
       <use xlink:href="#mf0d5727b78" x="55.745479" y="17.922925" style="stroke: #000000; stroke-width: 0.6"/>
      </g>
     </g>
    </g>
    <g id="ytick_28">
     <g id="line2d_45">
      <g>
       <use xlink:href="#mf0d5727b78" x="55.745479" y="2.962939" style="stroke: #000000; stroke-width: 0.6"/>
      </g>
     </g>
    </g>
    <g id="text_12">
     <!-- $\sigma$ [MPa] -->
     <g transform="translate(23.833073 124.957619) rotate(-90) scale(0.12 -0.12)">
      <defs>
       <path id="NewTXBMI-32" d="M 4467 2944 
L 2118 2944 
C 1075 2944 160 2110 160 1026 
C 160 347 557 -64 1286 -64 
C 2144 -64 3181 719 3181 1873 
C 3181 2111 3104 2341 3104 2341 
L 4301 2341 
L 4467 2944 
z
M 2438 1867 
C 2438 969 2016 109 1376 109 
C 960 109 934 654 934 956 
C 934 2156 1517 2746 1952 2746 
C 2240 2746 2438 2521 2438 1867 
z
" transform="scale(0.015625)"/>
       <path id="TeXGyreTermesX-Regular-5b" d="M 1914 -1024 
L 1914 -864 
L 1363 -864 
C 1152 -864 1050 -756 1050 -531 
L 1050 3781 
C 1050 3981 1133 4064 1338 4064 
L 1914 4064 
L 1914 4224 
L 563 4224 
L 563 -1024 
L 1914 -1024 
z
" transform="scale(0.015625)"/>
       <path id="TeXGyreTermesX-Regular-4d" d="M 5523 0 
L 5523 134 
C 5056 134 4966 223 4966 681 
L 4966 3536 
C 4966 3993 5050 4077 5523 4115 
L 5523 4237 
L 4250 4237 
L 2835 1004 
L 1357 4237 
L 90 4237 
L 90 4096 
C 614 4096 698 4019 698 3550 
L 698 943 
C 698 282 608 159 77 121 
L 77 0 
L 1581 0 
L 1581 134 
C 1088 134 979 282 979 931 
L 979 3520 
L 2586 0 
L 2675 0 
L 4314 3667 
L 4314 751 
C 4314 217 4237 134 3731 134 
L 3731 0 
L 5523 0 
z
" transform="scale(0.015625)"/>
       <path id="TeXGyreTermesX-Regular-50" d="M 3469 3078 
C 3469 3344 3379 3584 3206 3768 
C 2950 4047 2394 4224 1792 4224 
L 102 4224 
L 102 4102 
C 576 4051 640 3987 640 3528 
L 640 766 
C 640 230 589 166 102 122 
L 102 0 
L 1894 0 
L 1894 128 
C 1389 128 1293 218 1293 693 
L 1293 1875 
C 1459 1856 1568 1856 1734 1856 
C 2234 1856 2579 1919 2854 2072 
C 3238 2274 3469 2660 3469 3078 
z
M 2771 3040 
C 2771 2428 2394 2112 1658 2112 
C 1530 2112 1440 2119 1293 2131 
L 1293 3772 
C 1293 3943 1338 3987 1510 3987 
C 2374 3987 2771 3690 2771 3040 
z
" transform="scale(0.015625)"/>
       <path id="TeXGyreTermesX-Regular-61" d="M 2829 256 
L 2829 423 
C 2720 333 2643 301 2547 301 
C 2400 301 2355 390 2355 672 
L 2355 1920 
C 2355 2246 2323 2426 2234 2573 
C 2099 2816 1824 2944 1434 2944 
C 1107 2944 800 2854 621 2707 
C 461 2573 358 2387 358 2227 
C 358 2080 480 1952 634 1952 
C 787 1952 922 2080 922 2221 
C 922 2246 915 2278 909 2323 
C 896 2381 890 2432 890 2477 
C 890 2650 1094 2790 1350 2790 
C 1664 2790 1837 2605 1837 2259 
L 1837 1869 
C 851 1472 742 1421 467 1178 
C 326 1050 237 832 237 621 
C 237 218 512 -64 909 -64 
C 1190 -64 1453 70 1843 403 
C 1875 64 1990 -64 2253 -64 
C 2470 -64 2605 13 2829 256 
z
M 1837 783 
C 1837 584 1805 526 1670 443 
C 1517 352 1338 301 1203 301 
C 979 301 800 520 800 796 
L 800 822 
C 800 1201 1062 1433 1837 1715 
L 1837 783 
z
" transform="scale(0.015625)"/>
       <path id="TeXGyreTermesX-Regular-5d" d="M 1568 -1024 
L 1568 4224 
L 218 4224 
L 218 4064 
L 768 4064 
C 979 4064 1082 3955 1082 3730 
L 1082 -582 
C 1082 -781 992 -864 794 -864 
L 218 -864 
L 218 -1024 
L 1568 -1024 
z
" transform="scale(0.015625)"/>
      </defs>
      <use xlink:href="#NewTXBMI-32" transform="scale(0.996264)"/>
      <use xlink:href="#TeXGyreTermesX-Regular-5b" transform="translate(98.430978 0) scale(0.996264)"/>
      <use xlink:href="#TeXGyreTermesX-Regular-4d" transform="translate(131.606588 0) scale(0.996264)"/>
      <use xlink:href="#TeXGyreTermesX-Regular-50" transform="translate(220.174453 0) scale(0.996264)"/>
      <use xlink:href="#TeXGyreTermesX-Regular-61" transform="translate(273.574134 0) scale(0.996264)"/>
      <use xlink:href="#TeXGyreTermesX-Regular-5d" transform="translate(317.80828 0) scale(0.996264)"/>
     </g>
    </g>
   </g>
   <g id="line2d_46">
    <path d="M 62.984321 197.442762 
L 86.932369 73.713551 
L 87.658068 72.037286 
L 90.198012 67.455247 
L 92.737957 63.368541 
L 95.277901 59.748843 
L 97.817846 56.567827 
L 99.994941 54.168925 
L 102.172036 52.05367 
L 104.349132 50.204225 
L 106.889076 48.358696 
L 109.429021 46.822357 
L 111.968965 45.566884 
L 114.50891 44.56395 
L 117.048854 43.785229 
L 119.951648 43.133471 
L 123.217291 42.653421 
L 126.845783 42.363826 
L 131.562823 42.239313 
L 139.182656 42.297395 
L 144.262545 42.584024 
L 149.342434 43.099957 
L 154.422323 43.845194 
L 159.502212 44.819734 
L 164.582101 46.023578 
L 169.66199 47.456725 
L 174.741879 49.119176 
L 179.821768 51.010931 
L 184.901658 53.131989 
L 189.981547 55.482351 
L 195.424285 58.255052 
L 200.867023 61.290985 
L 206.309761 64.590148 
L 207.761158 65.514382 
L 207.761158 65.514382 
" clip-path="url(#pb410e6f7f1)" style="fill: none; stroke: #d95f02; stroke-width: 1.5; stroke-linecap: square"/>
   </g>
   <g id="line2d_47">
    <path d="M 62.984321 197.442762 
L 92.012258 47.637058 
L 94.189353 41.804684 
L 96.366449 36.610922 
L 98.543544 32.019034 
L 100.720639 27.992281 
L 102.897735 24.493921 
L 104.711981 21.95575 
L 106.526227 19.737743 
L 108.340473 17.818641 
L 110.154719 16.17718 
L 111.968965 14.792101 
L 113.783211 13.64214 
L 115.960306 12.542608 
L 118.137402 11.714292 
L 120.314497 11.120451 
L 122.854442 10.674973 
L 125.757235 10.420574 
L 129.385727 10.357085 
L 139.908355 10.553052 
L 144.625395 10.901208 
L 149.342434 11.487576 
L 154.059474 12.312155 
L 158.776514 13.374947 
L 163.493554 14.67595 
L 168.210594 16.215165 
L 172.927633 17.992592 
L 177.644673 20.008231 
L 182.361713 22.262081 
L 187.078753 24.754144 
L 191.795793 27.484418 
L 196.875682 30.691116 
L 201.955571 34.174083 
L 207.03546 37.93332 
L 207.761158 38.492907 
L 207.761158 38.492907 
" clip-path="url(#pb410e6f7f1)" style="fill: none; stroke: #000000; stroke-width: 1.5; stroke-linecap: square"/>
   </g>
   <g id="line2d_48">
    <path d="M 55.745479 47.842898 
L 87.596383 47.842898 
" clip-path="url(#pb410e6f7f1)" style="fill: none; stroke-dasharray: 2.96,1.28; stroke-dashoffset: 0; stroke: #000000; stroke-width: 0.8"/>
   </g>
   <g id="line2d_49">
    <path d="M 55.745479 10.442932 
L 135.372739 10.442932 
" clip-path="url(#pb410e6f7f1)" style="fill: none; stroke-dasharray: 2.96,1.28; stroke-dashoffset: 0; stroke: #000000; stroke-width: 0.8"/>
   </g>
   <g id="line2d_50">
    <path d="M 91.939688 206.797179 
L 91.939688 47.842898 
" clip-path="url(#pb410e6f7f1)" style="fill: none; stroke-dasharray: 2.96,1.28; stroke-dashoffset: 0; stroke: #000000; stroke-width: 0.8"/>
   </g>
   <g id="line2d_51">
    <path d="M 135.372739 206.797179 
L 135.372739 10.442932 
" clip-path="url(#pb410e6f7f1)" style="fill: none; stroke-dasharray: 2.96,1.28; stroke-dashoffset: 0; stroke: #000000; stroke-width: 0.8"/>
   </g>
   <g id="line2d_52">
    <path d="M 207.761158 206.797179 
L 207.761158 38.492907 
" clip-path="url(#pb410e6f7f1)" style="fill: none; stroke-dasharray: 2.96,1.28; stroke-dashoffset: 0; stroke: #000000; stroke-width: 0.8"/>
   </g>
   <g id="patch_3">
    <path d="M 55.745479 206.797179 
L 55.745479 1 
" style="fill: none; stroke: #000000; stroke-width: 0.8; stroke-linejoin: miter; stroke-linecap: square"/>
   </g>
   <g id="patch_4">
    <path d="M 215 206.797179 
L 215 1 
" style="fill: none; stroke: #000000; stroke-width: 0.8; stroke-linejoin: miter; stroke-linecap: square"/>
   </g>
   <g id="patch_5">
    <path d="M 55.745479 206.797179 
L 215 206.797179 
" style="fill: none; stroke: #000000; stroke-width: 0.8; stroke-linejoin: miter; stroke-linecap: square"/>
   </g>
   <g id="patch_6">
    <path d="M 55.745479 1 
L 215 1 
" style="fill: none; stroke: #000000; stroke-width: 0.8; stroke-linejoin: miter; stroke-linecap: square"/>
   </g>
   <g id="text_13">
    <!-- $S_y$ -->
    <g transform="translate(10.138478 49.746169) scale(0.1 -0.1)">
     <defs>
      <path id="NewTXBMI-59" d="M 2995 1175 
C 2995 1734 2707 2157 1920 2754 
C 1523 3056 1427 3197 1427 3486 
C 1427 3903 1683 4160 2093 4160 
C 2605 4160 2854 3843 2938 3086 
L 3110 3060 
L 3366 4358 
L 3174 4358 
C 3117 4243 3027 4192 2893 4192 
C 2829 4192 2733 4211 2566 4262 
C 2298 4352 2125 4384 1939 4384 
C 1210 4384 653 3844 653 3138 
C 653 2966 685 2824 736 2715 
C 877 2445 1133 2163 1498 1880 
C 2003 1495 2221 1200 2221 898 
C 2221 757 2176 597 2099 462 
C 1952 211 1734 89 1414 89 
C 1082 89 800 241 634 501 
C 506 697 454 893 429 1280 
L 243 1280 
L 13 -128 
L 205 -128 
C 282 51 326 89 448 89 
C 512 89 595 71 742 20 
C 1056 -84 1274 -128 1530 -128 
C 2426 -128 2995 379 2995 1175 
z
" transform="scale(0.015625)"/>
      <path id="NewTXBMI-79" d="M 2509 2567 
C 2509 2785 2323 2976 2112 2976 
C 1920 2976 1747 2804 1747 2613 
C 1747 2453 1792 2377 1946 2262 
C 2067 2173 2099 2122 2099 2039 
C 2099 1842 1990 1587 1542 733 
L 1466 1211 
C 1325 1969 1158 2676 1043 2976 
C 736 2900 506 2863 90 2825 
L 90 2656 
C 205 2656 237 2650 282 2624 
C 390 2560 493 2299 589 1845 
C 806 810 909 203 909 5 
C 909 -142 858 -283 749 -436 
C 614 -627 429 -768 320 -768 
C 275 -768 160 -723 102 -678 
C -6 -602 -166 -544 -282 -544 
C -448 -544 -602 -710 -602 -896 
C -602 -1114 -429 -1280 -205 -1280 
C 147 -1280 563 -1031 915 -604 
C 1747 411 2509 1923 2509 2567 
z
" transform="scale(0.015625)"/>
     </defs>
     <use xlink:href="#NewTXBMI-59" transform="scale(0.996264)"/>
     <use xlink:href="#NewTXBMI-79" transform="translate(62.346188 -14.943915) scale(0.727268)"/>
    </g>
   </g>
   <g id="text_14">
    <!-- $S_{uts}$ -->
    <g transform="translate(2.851245 12.781658) scale(0.1 -0.1)">
     <defs>
      <path id="NewTXBMI-75" d="M 3149 757 
L 3014 840 
C 2790 499 2662 372 2554 372 
C 2502 372 2464 416 2464 481 
C 2464 558 2534 866 2624 1156 
L 3123 2880 
L 2368 2880 
C 2010 1638 1830 1214 1459 751 
C 1261 507 1120 397 992 397 
C 902 397 858 448 858 558 
C 858 654 864 693 954 983 
L 1555 2963 
C 1517 2954 1472 2947 1376 2923 
C 902 2818 525 2752 218 2752 
L 218 2560 
C 512 2560 576 2528 576 2401 
C 576 2299 544 2121 486 1937 
L 230 1092 
C 141 775 96 565 96 406 
C 96 95 256 -64 576 -64 
C 1005 -64 1197 102 1856 1017 
C 1741 667 1702 502 1702 318 
C 1702 57 1837 -64 2118 -64 
C 2502 -64 2816 191 3149 757 
z
" transform="scale(0.015625)"/>
      <path id="NewTXBMI-74" d="M 1440 837 
L 1299 926 
C 1082 588 915 415 813 415 
C 762 415 710 460 710 511 
C 710 632 826 1073 1056 1864 
L 1267 2624 
L 1798 2624 
L 1798 2893 
L 1338 2893 
L 1587 3808 
L 1363 3808 
C 1018 3303 698 3037 192 2848 
L 192 2624 
L 518 2624 
L 83 1105 
C -13 773 -70 499 -70 383 
C -70 135 109 -32 378 -32 
C 762 -32 1018 180 1440 837 
z
" transform="scale(0.015625)"/>
      <path id="NewTXBMI-73" d="M 1786 777 
C 1786 1064 1626 1375 1267 1789 
C 1018 2076 909 2267 909 2414 
C 909 2618 1043 2752 1248 2752 
C 1542 2752 1709 2522 1811 1994 
L 1984 1981 
L 2131 2956 
L 1946 2956 
C 1875 2835 1856 2822 1760 2822 
C 1696 2822 1645 2834 1530 2877 
C 1370 2938 1286 2956 1158 2956 
C 640 2956 301 2644 301 2155 
C 301 1812 390 1634 813 1132 
C 1056 846 1171 629 1171 471 
C 1171 280 1011 128 806 128 
C 480 128 275 408 192 975 
L 19 994 
L -122 -64 
L 51 -64 
C 77 13 154 64 237 64 
C 282 64 352 45 435 13 
C 589 -39 704 -64 838 -64 
C 1382 -64 1786 299 1786 777 
z
" transform="scale(0.015625)"/>
     </defs>
     <use xlink:href="#NewTXBMI-59" transform="scale(0.996264)"/>
     <use xlink:href="#NewTXBMI-75" transform="translate(59.218908 -14.943915) scale(0.727268)"/>
     <use xlink:href="#NewTXBMI-74" transform="translate(105.473159 -14.943915) scale(0.727268)"/>
     <use xlink:href="#NewTXBMI-73" transform="translate(132.16387 -14.943915) scale(0.727268)"/>
    </g>
   </g>
   <g id="text_15">
    <!-- $\varepsilon_{yield}$ -->
    <g transform="translate(80.616679 228.184377) scale(0.1 -0.1)">
     <defs>
      <path id="NewTXBMI-69" d="M 1523 803 
L 1382 892 
L 1293 765 
C 1126 516 979 382 883 382 
C 832 382 787 427 787 478 
C 787 535 819 701 845 809 
L 1427 2939 
C 1082 2862 634 2799 134 2761 
L 134 2589 
L 218 2589 
C 410 2589 512 2525 512 2404 
C 512 2353 493 2258 467 2149 
L 96 778 
C 45 594 13 427 13 339 
C 13 95 192 -64 454 -64 
C 838 -64 1075 127 1523 803 
z
M 1702 3757 
C 1702 3994 1504 4192 1261 4192 
C 1037 4192 838 3994 838 3770 
C 838 3520 1024 3328 1261 3328 
C 1504 3328 1702 3520 1702 3757 
z
" transform="scale(0.015625)"/>
      <path id="NewTXBMI-65" d="M 2214 815 
L 2029 924 
C 1734 485 1549 345 1274 345 
C 1005 345 864 524 864 867 
C 864 970 877 1052 902 1180 
C 1568 1307 1882 1448 2202 1740 
C 2426 1944 2547 2180 2547 2409 
C 2547 2733 2266 2963 1875 2963 
C 947 2963 32 1924 32 873 
C 32 331 442 -64 998 -64 
C 1491 -64 1830 184 2214 815 
z
M 1958 2535 
C 1958 2255 1850 1981 1645 1771 
C 1472 1586 1312 1497 947 1383 
C 1178 2267 1472 2752 1779 2752 
C 1901 2752 1958 2681 1958 2535 
z
" transform="scale(0.015625)"/>
      <path id="NewTXBMI-6c" d="M 1523 805 
L 1382 894 
C 1126 518 998 384 883 384 
C 832 384 787 429 787 480 
C 787 569 832 774 928 1118 
L 1856 4455 
C 1306 4352 998 4307 518 4263 
L 518 4090 
C 589 4096 621 4096 653 4096 
C 826 4096 922 4032 922 3918 
C 922 3822 838 3477 710 3011 
L 230 1328 
C 96 849 13 466 13 319 
C 13 90 186 -64 448 -64 
C 838 -64 1082 135 1523 805 
z
" transform="scale(0.015625)"/>
      <path id="NewTXBMI-64" d="M 2874 752 
L 2733 855 
C 2554 568 2400 397 2304 397 
C 2266 397 2234 435 2234 473 
C 2234 531 2381 1106 2598 1899 
L 3309 4487 
C 2925 4397 2611 4352 1971 4301 
L 1971 4128 
L 2106 4128 
C 2272 4128 2368 4064 2368 3948 
C 2368 3890 2336 3755 2182 3189 
L 2067 2752 
C 1914 2905 1792 2963 1606 2963 
C 826 2963 -134 1733 -134 733 
C -134 268 154 -64 544 -64 
C 954 -64 1242 165 1606 772 
C 1549 520 1536 435 1536 331 
C 1536 85 1677 -64 1920 -64 
C 2234 -64 2522 182 2874 752 
z
M 1971 2382 
C 1971 2102 1696 1275 1472 867 
C 1293 556 1107 397 922 397 
C 768 397 659 556 659 765 
C 659 771 659 784 659 797 
C 678 1139 877 1723 1107 2136 
C 1306 2485 1530 2688 1715 2688 
C 1722 2688 1728 2688 1734 2688 
C 1875 2688 1971 2561 1971 2382 
z
" transform="scale(0.015625)"/>
     </defs>
     <use xlink:href="#NewTXBMI-39" transform="scale(0.996264)"/>
     <use xlink:href="#NewTXBMI-79" transform="translate(58.460795 -15.651497) scale(0.727268)"/>
     <use xlink:href="#NewTXBMI-69" transform="translate(96.42413 -15.651497) scale(0.727268)"/>
     <use xlink:href="#NewTXBMI-65" transform="translate(122.023917 -15.651497) scale(0.727268)"/>
     <use xlink:href="#NewTXBMI-6c" transform="translate(159.987282 -15.651497) scale(0.727268)"/>
     <use xlink:href="#NewTXBMI-64" transform="translate(190.09616 -15.651497) scale(0.727268)"/>
    </g>
   </g>
   <g id="text_16">
    <!-- $\varepsilon_{u}$ -->
    <g transform="translate(130.449711 229.07131) scale(0.1 -0.1)">
     <use xlink:href="#NewTXBMI-39" transform="scale(0.996264)"/>
     <use xlink:href="#NewTXBMI-75" transform="translate(55.333515 -14.943915) scale(0.727268)"/>
    </g>
   </g>
   <g id="text_17">
    <!-- $\varepsilon_{tr}$ -->
    <g transform="translate(202.163603 229.07131) scale(0.1 -0.1)">
     <defs>
      <path id="NewTXBMI-72" d="M 2490 2515 
C 2490 2771 2342 2938 2125 2938 
C 1798 2938 1536 2617 1030 1597 
L 1453 2938 
C 1069 2842 947 2823 173 2759 
L 173 2579 
C 461 2579 518 2553 518 2431 
C 518 2270 320 1515 -134 -32 
L 640 -32 
L 851 638 
C 1043 1261 1139 1507 1312 1802 
C 1485 2111 1638 2291 1728 2291 
C 1754 2291 1792 2266 1830 2208 
C 1926 2099 2010 2048 2118 2048 
C 2330 2048 2490 2247 2490 2515 
z
" transform="scale(0.015625)"/>
     </defs>
     <use xlink:href="#NewTXBMI-39" transform="scale(0.996264)"/>
     <use xlink:href="#NewTXBMI-74" transform="translate(57.442549 -14.943915) scale(0.727268)"/>
     <use xlink:href="#NewTXBMI-72" transform="translate(84.715094 -14.943915) scale(0.727268)"/>
    </g>
   </g>
   <g id="PathCollection_1">
    <path d="M 87.017276 75.510943 
C 87.610288 75.510943 88.179092 75.275337 88.598415 74.856014 
C 89.017738 74.436691 89.253344 73.867887 89.253344 73.274875 
C 89.253344 72.681863 89.017738 72.113059 88.598415 71.693736 
C 88.179092 71.274413 87.610288 71.038807 87.017276 71.038807 
C 86.424264 71.038807 85.85546 71.274413 85.436137 71.693736 
C 85.016814 72.113059 84.781208 72.681863 84.781208 73.274875 
C 84.781208 73.867887 85.016814 74.436691 85.436137 74.856014 
C 85.85546 75.275337 86.424264 75.510943 87.017276 75.510943 
z
" clip-path="url(#pb410e6f7f1)" style="fill: #d95f02"/>
   </g>
   <g id="PathCollection_2">
    <path d="M 135.372739 44.468971 
C 135.965752 44.468971 136.534555 44.233365 136.953878 43.814042 
C 137.373201 43.394719 137.608807 42.825915 137.608807 42.232903 
C 137.608807 41.639891 137.373201 41.071087 136.953878 40.651764 
C 136.534555 40.232442 135.965752 39.996835 135.372739 39.996835 
C 134.779727 39.996835 134.210924 40.232442 133.791601 40.651764 
C 133.372278 41.071087 133.136672 41.639891 133.136672 42.232903 
C 133.136672 42.825915 133.372278 43.394719 133.791601 43.814042 
C 134.210924 44.233365 134.779727 44.468971 135.372739 44.468971 
z
" clip-path="url(#pb410e6f7f1)" style="fill: #d95f02"/>
   </g>
   <g id="PathCollection_3">
    <path d="M 207.761158 67.75045 
C 208.35417 67.75045 208.922974 67.514844 209.342297 67.095521 
C 209.76162 66.676198 209.997226 66.107394 209.997226 65.514382 
C 209.997226 64.92137 209.76162 64.352566 209.342297 63.933243 
C 208.922974 63.51392 208.35417 63.278314 207.761158 63.278314 
C 207.168146 63.278314 206.599342 63.51392 206.180019 63.933243 
C 205.760696 64.352566 205.52509 64.92137 205.52509 65.514382 
C 205.52509 66.107394 205.760696 66.676198 206.180019 67.095521 
C 206.599342 67.514844 207.168146 67.75045 207.761158 67.75045 
z
" clip-path="url(#pb410e6f7f1)" style="fill: #d95f02"/>
   </g>
   <g id="PathCollection_4">
    <path d="M 91.939688 50.078966 
C 92.5327 50.078966 93.101504 49.84336 93.520827 49.424037 
C 93.94015 49.004714 94.175756 48.43591 94.175756 47.842898 
C 94.175756 47.249886 93.94015 46.681082 93.520827 46.261759 
C 93.101504 45.842436 92.5327 45.60683 91.939688 45.60683 
C 91.346676 45.60683 90.777872 45.842436 90.358549 46.261759 
C 89.939227 46.681082 89.70362 47.249886 89.70362 47.842898 
C 89.70362 48.43591 89.939227 49.004714 90.358549 49.424037 
C 90.777872 49.84336 91.346676 50.078966 91.939688 50.078966 
z
" clip-path="url(#pb410e6f7f1)"/>
   </g>
   <g id="PathCollection_5">
    <path d="M 135.372739 12.679 
C 135.965752 12.679 136.534555 12.443394 136.953878 12.024071 
C 137.373201 11.604748 137.608807 11.035944 137.608807 10.442932 
C 137.608807 9.84992 137.373201 9.281116 136.953878 8.861793 
C 136.534555 8.44247 135.965752 8.206864 135.372739 8.206864 
C 134.779727 8.206864 134.210924 8.44247 133.791601 8.861793 
C 133.372278 9.281116 133.136672 9.84992 133.136672 10.442932 
C 133.136672 11.035944 133.372278 11.604748 133.791601 12.024071 
C 134.210924 12.443394 134.779727 12.679 135.372739 12.679 
z
" clip-path="url(#pb410e6f7f1)"/>
   </g>
   <g id="PathCollection_6">
    <path d="M 207.761158 40.728975 
C 208.35417 40.728975 208.922974 40.493368 209.342297 40.074046 
C 209.76162 39.654723 209.997226 39.085919 209.997226 38.492907 
C 209.997226 37.899895 209.76162 37.331091 209.342297 36.911768 
C 208.922974 36.492445 208.35417 36.256839 207.761158 36.256839 
C 207.168146 36.256839 206.599342 36.492445 206.180019 36.911768 
C 205.760696 37.331091 205.52509 37.899895 205.52509 38.492907 
C 205.52509 39.085919 205.760696 39.654723 206.180019 40.074046 
C 206.599342 40.493368 207.168146 40.728975 207.761158 40.728975 
z
" clip-path="url(#pb410e6f7f1)"/>
   </g>
  </g>
 </g>
 <defs>
  <clipPath id="pb410e6f7f1">
   <rect x="55.745479" y="1" width="159.254521" height="205.797179"/>
  </clipPath>
 </defs>
</svg>
