<?xml version="1.0" encoding="utf-8" standalone="no"?>
<!DOCTYPE svg PUBLIC "-//W3C//DTD SVG 1.1//EN"
  "http://www.w3.org/Graphics/SVG/1.1/DTD/svg11.dtd">
<svg xmlns:xlink="http://www.w3.org/1999/xlink" width="216pt" height="252pt" viewBox="0 0 216 252" xmlns="http://www.w3.org/2000/svg" version="1.1">
 <metadata>
  <rdf:RDF xmlns:dc="http://purl.org/dc/elements/1.1/" xmlns:cc="http://creativecommons.org/ns#" xmlns:rdf="http://www.w3.org/1999/02/22-rdf-syntax-ns#">
   <cc:Work>
    <dc:type rdf:resource="http://purl.org/dc/dcmitype/StillImage"/>
    <dc:date>2024-10-17T16:24:41.422169</dc:date>
    <dc:format>image/svg+xml</dc:format>
    <dc:creator>
     <cc:Agent>
      <dc:title>Matplotlib v3.9.0, https://matplotlib.org/</dc:title>
     </cc:Agent>
    </dc:creator>
   </cc:Work>
  </rdf:RDF>
 </metadata>
 <defs>
  <style type="text/css">*{stroke-linejoin: round; stroke-linecap: butt}</style>
 </defs>
 <g id="figure_1">
  <g id="patch_1">
   <path d="M 0 252 
L 216 252 
L 216 0 
L 0 0 
z
" style="fill: #ffffff"/>
  </g>
  <g id="axes_1">
   <g id="patch_2">
    <path d="M 57.085465 206.797179 
L 215 206.797179 
L 215 1 
L 57.085465 1 
z
" style="fill: #ffffff"/>
   </g>
   <g id="matplotlib.axis_1">
    <g id="xtick_1">
     <g id="line2d_1">
      <defs>
       <path id="m857aae8361" d="M 0 0 
L 0 -3.5 
" style="stroke: #000000; stroke-width: 0.8"/>
      </defs>
      <g>
       <use xlink:href="#m857aae8361" x="64.263398" y="206.797179" style="stroke: #000000; stroke-width: 0.8"/>
      </g>
     </g>
     <g id="text_1">
      <!-- $\mathdefault{0.000}$ -->
      <g transform="translate(51.810691 217.82045) scale(0.11 -0.11)">
       <defs>
        <path id="TeXGyreTermesX-Bold-30" d="M 3046 2166 
C 3046 3440 2426 4403 1600 4403 
C 1184 4403 762 4123 499 3664 
C 294 3313 154 2714 154 2185 
C 154 873 755 -64 1606 -64 
C 2432 -64 3046 886 3046 2166 
z
M 2035 1434 
C 2035 1058 1984 561 1926 389 
C 1856 203 1754 114 1606 114 
C 1286 114 1165 491 1165 1434 
L 1165 2892 
C 1165 3855 1286 4224 1594 4224 
C 1907 4224 2035 3829 2035 2892 
L 2035 1434 
z
" transform="scale(0.015625)"/>
        <path id="NewTXBMI-93" d="M 1344 473 
C 1344 768 1101 1017 800 1017 
C 493 1017 262 761 262 473 
C 262 173 493 -64 800 -64 
C 1101 -64 1344 166 1344 473 
z
" transform="scale(0.015625)"/>
       </defs>
       <use xlink:href="#TeXGyreTermesX-Bold-30" transform="scale(0.996264)"/>
       <use xlink:href="#NewTXBMI-93" transform="translate(51.407199 0) scale(0.996264)"/>
       <use xlink:href="#TeXGyreTermesX-Bold-30" transform="translate(78.00746 0) scale(0.996264)"/>
       <use xlink:href="#TeXGyreTermesX-Bold-30" transform="translate(127.82066 0) scale(0.996264)"/>
       <use xlink:href="#TeXGyreTermesX-Bold-30" transform="translate(177.633861 0) scale(0.996264)"/>
      </g>
     </g>
    </g>
    <g id="xtick_2">
     <g id="line2d_2">
      <g>
       <use xlink:href="#m857aae8361" x="109.125482" y="206.797179" style="stroke: #000000; stroke-width: 0.8"/>
      </g>
     </g>
     <g id="text_2">
      <!-- $\mathdefault{0.005}$ -->
      <g transform="translate(96.672775 217.82045) scale(0.11 -0.11)">
       <defs>
        <path id="TeXGyreTermesX-Bold-35" d="M 3008 4288 
L 947 4288 
L 326 2093 
C 934 2049 1197 2010 1478 1921 
C 2048 1743 2387 1381 2387 960 
C 2387 604 2106 324 1747 324 
C 1600 324 1427 400 1171 591 
C 896 795 704 877 538 877 
C 307 877 141 718 141 496 
C 141 159 512 -64 1082 -64 
C 2138 -64 2886 575 2886 1476 
C 2886 2140 2477 2652 1779 2850 
C 1536 2920 1338 2946 813 2946 
L 954 3481 
L 2733 3481 
L 3008 4288 
z
" transform="scale(0.015625)"/>
       </defs>
       <use xlink:href="#TeXGyreTermesX-Bold-30" transform="scale(0.996264)"/>
       <use xlink:href="#NewTXBMI-93" transform="translate(51.407199 0) scale(0.996264)"/>
       <use xlink:href="#TeXGyreTermesX-Bold-30" transform="translate(78.00746 0) scale(0.996264)"/>
       <use xlink:href="#TeXGyreTermesX-Bold-30" transform="translate(127.82066 0) scale(0.996264)"/>
       <use xlink:href="#TeXGyreTermesX-Bold-35" transform="translate(177.633861 0) scale(0.996264)"/>
      </g>
     </g>
    </g>
    <g id="xtick_3">
     <g id="line2d_3">
      <g>
       <use xlink:href="#m857aae8361" x="153.987566" y="206.797179" style="stroke: #000000; stroke-width: 0.8"/>
      </g>
     </g>
     <g id="text_3">
      <!-- $\mathdefault{0.010}$ -->
      <g transform="translate(141.534859 217.82045) scale(0.11 -0.11)">
       <defs>
        <path id="TeXGyreTermesX-Bold-31" d="M 2829 0 
L 2829 159 
C 2246 159 2138 255 2138 746 
L 2138 4384 
L 2029 4384 
L 416 3686 
L 416 3521 
C 474 3540 525 3559 544 3572 
C 717 3635 877 3680 960 3680 
C 1120 3680 1190 3540 1190 3241 
L 1190 790 
C 1190 267 1062 159 429 159 
L 429 0 
L 2829 0 
z
" transform="scale(0.015625)"/>
       </defs>
       <use xlink:href="#TeXGyreTermesX-Bold-30" transform="scale(0.996264)"/>
       <use xlink:href="#NewTXBMI-93" transform="translate(51.407199 0) scale(0.996264)"/>
       <use xlink:href="#TeXGyreTermesX-Bold-30" transform="translate(78.00746 0) scale(0.996264)"/>
       <use xlink:href="#TeXGyreTermesX-Bold-31" transform="translate(127.82066 0) scale(0.996264)"/>
       <use xlink:href="#TeXGyreTermesX-Bold-30" transform="translate(177.633861 0) scale(0.996264)"/>
      </g>
     </g>
    </g>
    <g id="xtick_4">
     <g id="line2d_4">
      <g>
       <use xlink:href="#m857aae8361" x="198.84965" y="206.797179" style="stroke: #000000; stroke-width: 0.8"/>
      </g>
     </g>
     <g id="text_4">
      <!-- $\mathdefault{0.015}$ -->
      <g transform="translate(186.396943 217.82045) scale(0.11 -0.11)">
       <use xlink:href="#TeXGyreTermesX-Bold-30" transform="scale(0.996264)"/>
       <use xlink:href="#NewTXBMI-93" transform="translate(51.407199 0) scale(0.996264)"/>
       <use xlink:href="#TeXGyreTermesX-Bold-30" transform="translate(78.00746 0) scale(0.996264)"/>
       <use xlink:href="#TeXGyreTermesX-Bold-31" transform="translate(127.82066 0) scale(0.996264)"/>
       <use xlink:href="#TeXGyreTermesX-Bold-35" transform="translate(177.633861 0) scale(0.996264)"/>
      </g>
     </g>
    </g>
    <g id="xtick_5">
     <g id="line2d_5">
      <defs>
       <path id="mabbbf37b9a" d="M 0 0 
L 0 -2 
" style="stroke: #000000; stroke-width: 0.6"/>
      </defs>
      <g>
       <use xlink:href="#mabbbf37b9a" x="73.235815" y="206.797179" style="stroke: #000000; stroke-width: 0.6"/>
      </g>
     </g>
    </g>
    <g id="xtick_6">
     <g id="line2d_6">
      <g>
       <use xlink:href="#mabbbf37b9a" x="82.208232" y="206.797179" style="stroke: #000000; stroke-width: 0.6"/>
      </g>
     </g>
    </g>
    <g id="xtick_7">
     <g id="line2d_7">
      <g>
       <use xlink:href="#mabbbf37b9a" x="91.180648" y="206.797179" style="stroke: #000000; stroke-width: 0.6"/>
      </g>
     </g>
    </g>
    <g id="xtick_8">
     <g id="line2d_8">
      <g>
       <use xlink:href="#mabbbf37b9a" x="100.153065" y="206.797179" style="stroke: #000000; stroke-width: 0.6"/>
      </g>
     </g>
    </g>
    <g id="xtick_9">
     <g id="line2d_9">
      <g>
       <use xlink:href="#mabbbf37b9a" x="118.097899" y="206.797179" style="stroke: #000000; stroke-width: 0.6"/>
      </g>
     </g>
    </g>
    <g id="xtick_10">
     <g id="line2d_10">
      <g>
       <use xlink:href="#mabbbf37b9a" x="127.070315" y="206.797179" style="stroke: #000000; stroke-width: 0.6"/>
      </g>
     </g>
    </g>
    <g id="xtick_11">
     <g id="line2d_11">
      <g>
       <use xlink:href="#mabbbf37b9a" x="136.042732" y="206.797179" style="stroke: #000000; stroke-width: 0.6"/>
      </g>
     </g>
    </g>
    <g id="xtick_12">
     <g id="line2d_12">
      <g>
       <use xlink:href="#mabbbf37b9a" x="145.015149" y="206.797179" style="stroke: #000000; stroke-width: 0.6"/>
      </g>
     </g>
    </g>
    <g id="xtick_13">
     <g id="line2d_13">
      <g>
       <use xlink:href="#mabbbf37b9a" x="162.959983" y="206.797179" style="stroke: #000000; stroke-width: 0.6"/>
      </g>
     </g>
    </g>
    <g id="xtick_14">
     <g id="line2d_14">
      <g>
       <use xlink:href="#mabbbf37b9a" x="171.932399" y="206.797179" style="stroke: #000000; stroke-width: 0.6"/>
      </g>
     </g>
    </g>
    <g id="xtick_15">
     <g id="line2d_15">
      <g>
       <use xlink:href="#mabbbf37b9a" x="180.904816" y="206.797179" style="stroke: #000000; stroke-width: 0.6"/>
      </g>
     </g>
    </g>
    <g id="xtick_16">
     <g id="line2d_16">
      <g>
       <use xlink:href="#mabbbf37b9a" x="189.877233" y="206.797179" style="stroke: #000000; stroke-width: 0.6"/>
      </g>
     </g>
    </g>
    <g id="xtick_17">
     <g id="line2d_17">
      <g>
       <use xlink:href="#mabbbf37b9a" x="207.822067" y="206.797179" style="stroke: #000000; stroke-width: 0.6"/>
      </g>
     </g>
    </g>
    <g id="text_5">
     <!-- $\varepsilon$ -->
     <g transform="translate(132.976236 248.40574) scale(0.12 -0.12)">
      <defs>
       <path id="NewTXBMI-39" d="M 3264 2330 
C 3264 2829 2394 2944 2022 2944 
C 1491 2944 634 2715 634 2040 
C 634 1759 851 1628 1088 1543 
C 659 1485 109 1219 109 724 
C 109 70 896 -64 1402 -64 
C 1907 -64 2515 86 2854 495 
C 2938 592 3008 715 3008 844 
C 3008 1000 2874 1117 2726 1117 
C 2298 1117 2291 135 1472 135 
C 1114 135 973 338 973 673 
C 973 1021 1197 1344 1574 1344 
C 1760 1344 1939 1274 2131 1274 
C 2298 1274 2362 1370 2362 1530 
C 2362 1677 2272 1728 2138 1728 
C 2029 1728 1926 1671 1818 1671 
C 1632 1671 1414 1730 1414 1961 
C 1414 2337 1587 2739 2010 2739 
C 2618 2739 2496 2029 2976 2029 
C 3174 2029 3264 2138 3264 2330 
z
" transform="scale(0.015625)"/>
      </defs>
      <use xlink:href="#NewTXBMI-39" transform="scale(0.996264)"/>
     </g>
    </g>
   </g>
   <g id="matplotlib.axis_2">
    <g id="ytick_1">
     <g id="line2d_18">
      <defs>
       <path id="m5c139ee66b" d="M 0 0 
L 3.5 0 
" style="stroke: #000000; stroke-width: 0.8"/>
      </defs>
      <g>
       <use xlink:href="#m5c139ee66b" x="57.085465" y="197.442762" style="stroke: #000000; stroke-width: 0.8"/>
      </g>
     </g>
     <g id="text_6">
      <!-- $\mathdefault{0}$ -->
      <g transform="translate(48.130928 201.204397) scale(0.11 -0.11)">
       <use xlink:href="#TeXGyreTermesX-Bold-30" transform="scale(0.996264)"/>
      </g>
     </g>
    </g>
    <g id="ytick_2">
     <g id="line2d_19">
      <g>
       <use xlink:href="#m5c139ee66b" x="57.085465" y="160.042796" style="stroke: #000000; stroke-width: 0.8"/>
      </g>
     </g>
     <g id="text_7">
      <!-- $\mathdefault{200}$ -->
      <g transform="translate(37.221856 163.804431) scale(0.11 -0.11)">
       <defs>
        <path id="TeXGyreTermesX-Bold-32" d="M 3059 1341 
L 2906 1341 
C 2720 884 2643 846 1990 846 
L 1024 846 
L 2061 1824 
C 2566 2301 2790 2726 2790 3210 
C 2790 3889 2298 4373 1606 4373 
C 1286 4373 979 4245 755 4016 
C 506 3768 378 3552 198 3075 
L 378 3075 
C 576 3469 813 3648 1158 3648 
C 1440 3648 1651 3527 1792 3298 
C 1869 3164 1920 2987 1920 2841 
C 1920 2561 1798 2211 1594 1900 
C 1267 1405 1043 1137 109 146 
L 109 0 
L 2771 0 
L 3059 1341 
z
" transform="scale(0.015625)"/>
       </defs>
       <use xlink:href="#TeXGyreTermesX-Bold-32" transform="scale(0.996264)"/>
       <use xlink:href="#TeXGyreTermesX-Bold-30" transform="translate(49.8132 0) scale(0.996264)"/>
       <use xlink:href="#TeXGyreTermesX-Bold-30" transform="translate(99.626401 0) scale(0.996264)"/>
      </g>
     </g>
    </g>
    <g id="ytick_3">
     <g id="line2d_20">
      <g>
       <use xlink:href="#m5c139ee66b" x="57.085465" y="122.64283" style="stroke: #000000; stroke-width: 0.8"/>
      </g>
     </g>
     <g id="text_8">
      <!-- $\mathdefault{400}$ -->
      <g transform="translate(37.221856 126.404465) scale(0.11 -0.11)">
       <defs>
        <path id="TeXGyreTermesX-Bold-34" d="M 3040 896 
L 3040 1602 
L 2637 1602 
L 2637 4352 
L 2125 4352 
L 1747 3863 
C 928 2803 506 2219 122 1615 
L 122 896 
L 1709 896 
L 1709 -32 
L 2637 -32 
L 2637 896 
L 3040 896 
z
M 1722 1602 
L 384 1602 
L 1722 3488 
L 1722 1602 
z
" transform="scale(0.015625)"/>
       </defs>
       <use xlink:href="#TeXGyreTermesX-Bold-34" transform="scale(0.996264)"/>
       <use xlink:href="#TeXGyreTermesX-Bold-30" transform="translate(49.8132 0) scale(0.996264)"/>
       <use xlink:href="#TeXGyreTermesX-Bold-30" transform="translate(99.626401 0) scale(0.996264)"/>
      </g>
     </g>
    </g>
    <g id="ytick_4">
     <g id="line2d_21">
      <g>
       <use xlink:href="#m5c139ee66b" x="57.085465" y="85.242864" style="stroke: #000000; stroke-width: 0.8"/>
      </g>
     </g>
     <g id="text_9">
      <!-- $\mathdefault{600}$ -->
      <g transform="translate(37.221856 89.0045) scale(0.11 -0.11)">
       <defs>
        <path id="TeXGyreTermesX-Bold-36" d="M 3040 1427 
C 3040 2193 2573 2688 1843 2688 
C 1638 2688 1498 2663 1306 2580 
C 1542 3515 2074 4030 3008 4221 
L 3008 4387 
C 2157 4266 1760 4126 1274 3796 
C 557 3307 179 2596 179 1752 
C 179 654 768 -64 1664 -64 
C 2458 -64 3040 564 3040 1427 
z
M 2067 1046 
C 2067 298 1990 108 1677 108 
C 1530 108 1414 172 1350 291 
C 1242 501 1178 964 1178 1553 
C 1178 1946 1216 2307 1261 2339 
C 1312 2377 1402 2402 1491 2402 
C 1920 2402 2067 2054 2067 1046 
z
" transform="scale(0.015625)"/>
       </defs>
       <use xlink:href="#TeXGyreTermesX-Bold-36" transform="scale(0.996264)"/>
       <use xlink:href="#TeXGyreTermesX-Bold-30" transform="translate(49.8132 0) scale(0.996264)"/>
       <use xlink:href="#TeXGyreTermesX-Bold-30" transform="translate(99.626401 0) scale(0.996264)"/>
      </g>
     </g>
    </g>
    <g id="ytick_5">
     <g id="line2d_22">
      <g>
       <use xlink:href="#m5c139ee66b" x="57.085465" y="47.842898" style="stroke: #000000; stroke-width: 0.8"/>
      </g>
     </g>
     <g id="text_10">
      <!-- $\mathdefault{800}$ -->
      <g transform="translate(37.221856 51.604534) scale(0.11 -0.11)">
       <defs>
        <path id="TeXGyreTermesX-Bold-38" d="M 3021 1212 
C 3021 1768 2746 2164 2061 2597 
C 2675 2815 2931 3075 2931 3483 
C 2931 4051 2445 4409 1683 4409 
C 819 4409 250 3961 250 3292 
C 250 2814 506 2462 1139 2086 
C 774 1965 627 1881 461 1722 
C 275 1543 179 1301 179 1020 
C 179 370 723 -64 1536 -64 
C 2426 -64 3021 447 3021 1212 
z
M 2170 3439 
C 2170 3139 2118 2993 1907 2712 
C 1370 2986 1075 3337 1075 3694 
C 1075 3994 1306 4224 1606 4224 
C 1965 4224 2170 3937 2170 3439 
z
M 2131 829 
C 2131 402 1920 140 1574 140 
C 1184 140 954 478 954 1046 
C 954 1397 1024 1595 1280 1971 
C 1978 1505 2131 1301 2131 829 
z
" transform="scale(0.015625)"/>
       </defs>
       <use xlink:href="#TeXGyreTermesX-Bold-38" transform="scale(0.996264)"/>
       <use xlink:href="#TeXGyreTermesX-Bold-30" transform="translate(49.8132 0) scale(0.996264)"/>
       <use xlink:href="#TeXGyreTermesX-Bold-30" transform="translate(99.626401 0) scale(0.996264)"/>
      </g>
     </g>
    </g>
    <g id="ytick_6">
     <g id="line2d_23">
      <g>
       <use xlink:href="#m5c139ee66b" x="57.085465" y="10.442932" style="stroke: #000000; stroke-width: 0.8"/>
      </g>
     </g>
     <g id="text_11">
      <!-- $\mathdefault{1000}$ -->
      <g transform="translate(31.767319 14.204568) scale(0.11 -0.11)">
       <use xlink:href="#TeXGyreTermesX-Bold-31" transform="scale(0.996264)"/>
       <use xlink:href="#TeXGyreTermesX-Bold-30" transform="translate(49.8132 0) scale(0.996264)"/>
       <use xlink:href="#TeXGyreTermesX-Bold-30" transform="translate(99.626401 0) scale(0.996264)"/>
       <use xlink:href="#TeXGyreTermesX-Bold-30" transform="translate(149.439601 0) scale(0.996264)"/>
      </g>
     </g>
    </g>
    <g id="ytick_7">
     <g id="line2d_24">
      <defs>
       <path id="maa4a0f67fe" d="M 0 0 
L 2 0 
" style="stroke: #000000; stroke-width: 0.6"/>
      </defs>
      <g>
       <use xlink:href="#maa4a0f67fe" x="57.085465" y="204.922755" style="stroke: #000000; stroke-width: 0.6"/>
      </g>
     </g>
    </g>
    <g id="ytick_8">
     <g id="line2d_25">
      <g>
       <use xlink:href="#maa4a0f67fe" x="57.085465" y="189.962769" style="stroke: #000000; stroke-width: 0.6"/>
      </g>
     </g>
    </g>
    <g id="ytick_9">
     <g id="line2d_26">
      <g>
       <use xlink:href="#maa4a0f67fe" x="57.085465" y="182.482775" style="stroke: #000000; stroke-width: 0.6"/>
      </g>
     </g>
    </g>
    <g id="ytick_10">
     <g id="line2d_27">
      <g>
       <use xlink:href="#maa4a0f67fe" x="57.085465" y="175.002782" style="stroke: #000000; stroke-width: 0.6"/>
      </g>
     </g>
    </g>
    <g id="ytick_11">
     <g id="line2d_28">
      <g>
       <use xlink:href="#maa4a0f67fe" x="57.085465" y="167.522789" style="stroke: #000000; stroke-width: 0.6"/>
      </g>
     </g>
    </g>
    <g id="ytick_12">
     <g id="line2d_29">
      <g>
       <use xlink:href="#maa4a0f67fe" x="57.085465" y="152.562803" style="stroke: #000000; stroke-width: 0.6"/>
      </g>
     </g>
    </g>
    <g id="ytick_13">
     <g id="line2d_30">
      <g>
       <use xlink:href="#maa4a0f67fe" x="57.085465" y="145.08281" style="stroke: #000000; stroke-width: 0.6"/>
      </g>
     </g>
    </g>
    <g id="ytick_14">
     <g id="line2d_31">
      <g>
       <use xlink:href="#maa4a0f67fe" x="57.085465" y="137.602816" style="stroke: #000000; stroke-width: 0.6"/>
      </g>
     </g>
    </g>
    <g id="ytick_15">
     <g id="line2d_32">
      <g>
       <use xlink:href="#maa4a0f67fe" x="57.085465" y="130.122823" style="stroke: #000000; stroke-width: 0.6"/>
      </g>
     </g>
    </g>
    <g id="ytick_16">
     <g id="line2d_33">
      <g>
       <use xlink:href="#maa4a0f67fe" x="57.085465" y="115.162837" style="stroke: #000000; stroke-width: 0.6"/>
      </g>
     </g>
    </g>
    <g id="ytick_17">
     <g id="line2d_34">
      <g>
       <use xlink:href="#maa4a0f67fe" x="57.085465" y="107.682844" style="stroke: #000000; stroke-width: 0.6"/>
      </g>
     </g>
    </g>
    <g id="ytick_18">
     <g id="line2d_35">
      <g>
       <use xlink:href="#maa4a0f67fe" x="57.085465" y="100.20285" style="stroke: #000000; stroke-width: 0.6"/>
      </g>
     </g>
    </g>
    <g id="ytick_19">
     <g id="line2d_36">
      <g>
       <use xlink:href="#maa4a0f67fe" x="57.085465" y="92.722857" style="stroke: #000000; stroke-width: 0.6"/>
      </g>
     </g>
    </g>
    <g id="ytick_20">
     <g id="line2d_37">
      <g>
       <use xlink:href="#maa4a0f67fe" x="57.085465" y="77.762871" style="stroke: #000000; stroke-width: 0.6"/>
      </g>
     </g>
    </g>
    <g id="ytick_21">
     <g id="line2d_38">
      <g>
       <use xlink:href="#maa4a0f67fe" x="57.085465" y="70.282878" style="stroke: #000000; stroke-width: 0.6"/>
      </g>
     </g>
    </g>
    <g id="ytick_22">
     <g id="line2d_39">
      <g>
       <use xlink:href="#maa4a0f67fe" x="57.085465" y="62.802885" style="stroke: #000000; stroke-width: 0.6"/>
      </g>
     </g>
    </g>
    <g id="ytick_23">
     <g id="line2d_40">
      <g>
       <use xlink:href="#maa4a0f67fe" x="57.085465" y="55.322891" style="stroke: #000000; stroke-width: 0.6"/>
      </g>
     </g>
    </g>
    <g id="ytick_24">
     <g id="line2d_41">
      <g>
       <use xlink:href="#maa4a0f67fe" x="57.085465" y="40.362905" style="stroke: #000000; stroke-width: 0.6"/>
      </g>
     </g>
    </g>
    <g id="ytick_25">
     <g id="line2d_42">
      <g>
       <use xlink:href="#maa4a0f67fe" x="57.085465" y="32.882912" style="stroke: #000000; stroke-width: 0.6"/>
      </g>
     </g>
    </g>
    <g id="ytick_26">
     <g id="line2d_43">
      <g>
       <use xlink:href="#maa4a0f67fe" x="57.085465" y="25.402919" style="stroke: #000000; stroke-width: 0.6"/>
      </g>
     </g>
    </g>
    <g id="ytick_27">
     <g id="line2d_44">
      <g>
       <use xlink:href="#maa4a0f67fe" x="57.085465" y="17.922925" style="stroke: #000000; stroke-width: 0.6"/>
      </g>
     </g>
    </g>
    <g id="ytick_28">
     <g id="line2d_45">
      <g>
       <use xlink:href="#maa4a0f67fe" x="57.085465" y="2.962939" style="stroke: #000000; stroke-width: 0.6"/>
      </g>
     </g>
    </g>
    <g id="text_12">
     <!-- $\sigma$ [MPa] -->
     <g transform="translate(25.173059 124.957619) rotate(-90) scale(0.12 -0.12)">
      <defs>
       <path id="NewTXBMI-32" d="M 4467 2944 
L 2118 2944 
C 1075 2944 160 2110 160 1026 
C 160 347 557 -64 1286 -64 
C 2144 -64 3181 719 3181 1873 
C 3181 2111 3104 2341 3104 2341 
L 4301 2341 
L 4467 2944 
z
M 2438 1867 
C 2438 969 2016 109 1376 109 
C 960 109 934 654 934 956 
C 934 2156 1517 2746 1952 2746 
C 2240 2746 2438 2521 2438 1867 
z
" transform="scale(0.015625)"/>
       <path id="TeXGyreTermesX-Regular-5b" d="M 1914 -1024 
L 1914 -864 
L 1363 -864 
C 1152 -864 1050 -756 1050 -531 
L 1050 3781 
C 1050 3981 1133 4064 1338 4064 
L 1914 4064 
L 1914 4224 
L 563 4224 
L 563 -1024 
L 1914 -1024 
z
" transform="scale(0.015625)"/>
       <path id="TeXGyreTermesX-Regular-4d" d="M 5523 0 
L 5523 134 
C 5056 134 4966 223 4966 681 
L 4966 3536 
C 4966 3993 5050 4077 5523 4115 
L 5523 4237 
L 4250 4237 
L 2835 1004 
L 1357 4237 
L 90 4237 
L 90 4096 
C 614 4096 698 4019 698 3550 
L 698 943 
C 698 282 608 159 77 121 
L 77 0 
L 1581 0 
L 1581 134 
C 1088 134 979 282 979 931 
L 979 3520 
L 2586 0 
L 2675 0 
L 4314 3667 
L 4314 751 
C 4314 217 4237 134 3731 134 
L 3731 0 
L 5523 0 
z
" transform="scale(0.015625)"/>
       <path id="TeXGyreTermesX-Regular-50" d="M 3469 3078 
C 3469 3344 3379 3584 3206 3768 
C 2950 4047 2394 4224 1792 4224 
L 102 4224 
L 102 4102 
C 576 4051 640 3987 640 3528 
L 640 766 
C 640 230 589 166 102 122 
L 102 0 
L 1894 0 
L 1894 128 
C 1389 128 1293 218 1293 693 
L 1293 1875 
C 1459 1856 1568 1856 1734 1856 
C 2234 1856 2579 1919 2854 2072 
C 3238 2274 3469 2660 3469 3078 
z
M 2771 3040 
C 2771 2428 2394 2112 1658 2112 
C 1530 2112 1440 2119 1293 2131 
L 1293 3772 
C 1293 3943 1338 3987 1510 3987 
C 2374 3987 2771 3690 2771 3040 
z
" transform="scale(0.015625)"/>
       <path id="TeXGyreTermesX-Regular-61" d="M 2829 256 
L 2829 423 
C 2720 333 2643 301 2547 301 
C 2400 301 2355 390 2355 672 
L 2355 1920 
C 2355 2246 2323 2426 2234 2573 
C 2099 2816 1824 2944 1434 2944 
C 1107 2944 800 2854 621 2707 
C 461 2573 358 2387 358 2227 
C 358 2080 480 1952 634 1952 
C 787 1952 922 2080 922 2221 
C 922 2246 915 2278 909 2323 
C 896 2381 890 2432 890 2477 
C 890 2650 1094 2790 1350 2790 
C 1664 2790 1837 2605 1837 2259 
L 1837 1869 
C 851 1472 742 1421 467 1178 
C 326 1050 237 832 237 621 
C 237 218 512 -64 909 -64 
C 1190 -64 1453 70 1843 403 
C 1875 64 1990 -64 2253 -64 
C 2470 -64 2605 13 2829 256 
z
M 1837 783 
C 1837 584 1805 526 1670 443 
C 1517 352 1338 301 1203 301 
C 979 301 800 520 800 796 
L 800 822 
C 800 1201 1062 1433 1837 1715 
L 1837 783 
z
" transform="scale(0.015625)"/>
       <path id="TeXGyreTermesX-Regular-5d" d="M 1568 -1024 
L 1568 4224 
L 218 4224 
L 218 4064 
L 768 4064 
C 979 4064 1082 3955 1082 3730 
L 1082 -582 
C 1082 -781 992 -864 794 -864 
L 218 -864 
L 218 -1024 
L 1568 -1024 
z
" transform="scale(0.015625)"/>
      </defs>
      <use xlink:href="#NewTXBMI-32" transform="scale(0.996264)"/>
      <use xlink:href="#TeXGyreTermesX-Regular-5b" transform="translate(98.430978 0) scale(0.996264)"/>
      <use xlink:href="#TeXGyreTermesX-Regular-4d" transform="translate(131.606588 0) scale(0.996264)"/>
      <use xlink:href="#TeXGyreTermesX-Regular-50" transform="translate(220.174453 0) scale(0.996264)"/>
      <use xlink:href="#TeXGyreTermesX-Regular-61" transform="translate(273.574134 0) scale(0.996264)"/>
      <use xlink:href="#TeXGyreTermesX-Regular-5d" transform="translate(317.80828 0) scale(0.996264)"/>
     </g>
    </g>
   </g>
   <g id="line2d_46">
    <path d="M 64.263398 197.442762 
L 93.047272 47.636542 
L 95.211473 41.790388 
L 97.375674 36.585964 
L 99.539875 31.986254 
L 101.487656 28.33295 
L 103.435437 25.112494 
L 105.383218 22.2979 
L 107.330999 19.862183 
L 107.330999 19.862183 
" clip-path="url(#p819e411eff)" style="fill: none; stroke: #000000; stroke-width: 1.5; stroke-linecap: square"/>
   </g>
   <g id="line2d_47">
    <path d="M 57.085465 47.842898 
L 88.668372 47.842898 
" clip-path="url(#p819e411eff)" style="fill: none; stroke-dasharray: 2.96,1.28; stroke-dashoffset: 0; stroke: #000000; stroke-width: 0.8"/>
   </g>
   <g id="line2d_48">
    <path d="M 57.085465 19.862183 
L 104.459825 19.862183 
" clip-path="url(#p819e411eff)" style="fill: none; stroke-dasharray: 2.96,1.28; stroke-dashoffset: 0; stroke: #000000; stroke-width: 0.8"/>
   </g>
   <g id="line2d_49">
    <path d="M 92.975132 206.797179 
L 92.975132 47.842898 
" clip-path="url(#p819e411eff)" style="fill: none; stroke-dasharray: 2.96,1.28; stroke-dashoffset: 0; stroke: #000000; stroke-width: 0.8"/>
   </g>
   <g id="line2d_50">
    <path d="M 107.330999 206.797179 
L 107.330999 19.862183 
" clip-path="url(#p819e411eff)" style="fill: none; stroke-dasharray: 2.96,1.28; stroke-dashoffset: 0; stroke: #000000; stroke-width: 0.8"/>
   </g>
   <g id="patch_3">
    <path d="M 57.085465 206.797179 
L 57.085465 1 
" style="fill: none; stroke: #000000; stroke-width: 0.8; stroke-linejoin: miter; stroke-linecap: square"/>
   </g>
   <g id="patch_4">
    <path d="M 215 206.797179 
L 215 1 
" style="fill: none; stroke: #000000; stroke-width: 0.8; stroke-linejoin: miter; stroke-linecap: square"/>
   </g>
   <g id="patch_5">
    <path d="M 57.085465 206.797179 
L 215 206.797179 
" style="fill: none; stroke: #000000; stroke-width: 0.8; stroke-linejoin: miter; stroke-linecap: square"/>
   </g>
   <g id="patch_6">
    <path d="M 57.085465 1 
L 215 1 
" style="fill: none; stroke: #000000; stroke-width: 0.8; stroke-linejoin: miter; stroke-linecap: square"/>
   </g>
   <g id="patch_7">
    <path d="M 131.351801 48.142001 
Q 119.405917 48.204538 107.460033 48.267076 
L 107.470503 50.267048 
Q 102.46427 49.043239 97.458038 47.81943 
Q 102.451183 46.543273 107.444328 45.267117 
L 107.454798 47.267089 
Q 119.400682 47.204552 131.346566 47.142015 
L 131.351801 48.142001 
z
" style="stroke: #000000; stroke-linecap: round"/>
   </g>
   <g id="text_13">
    <!-- Yield -->
    <g transform="translate(137.837216 49.712896) scale(0.09 -0.09)">
     <defs>
      <path id="TeXGyreTermesX-Regular-59" d="M 4499 4102 
L 4499 4224 
L 3098 4224 
L 3098 4096 
C 3430 4096 3539 4045 3539 3892 
C 3539 3828 3507 3751 3450 3655 
L 2534 2214 
L 1587 3640 
C 1517 3743 1478 3852 1478 3922 
C 1478 4038 1568 4096 1773 4096 
C 1798 4096 1862 4096 1933 4102 
L 1933 4224 
L 141 4224 
L 141 4096 
C 448 4096 538 4007 1178 3104 
L 2016 1876 
L 2016 758 
C 2016 198 1952 134 1370 134 
L 1370 0 
L 3328 0 
L 3328 134 
C 2758 134 2669 211 2669 696 
L 2669 1933 
L 3616 3375 
C 4006 3937 4173 4077 4499 4102 
z
" transform="scale(0.015625)"/>
      <path id="TeXGyreTermesX-Regular-69" d="M 1619 0 
L 1619 96 
C 1197 128 1146 191 1146 650 
L 1146 2910 
L 1120 2929 
L 128 2579 
L 128 2484 
L 179 2490 
C 256 2502 339 2509 397 2509 
C 550 2509 608 2406 608 2125 
L 608 640 
C 608 179 544 109 102 109 
L 102 0 
L 1619 0 
z
M 1203 4026 
C 1203 4205 1062 4352 877 4352 
C 698 4352 550 4205 550 4026 
C 550 3840 698 3699 877 3699 
C 1062 3699 1203 3840 1203 4026 
z
" transform="scale(0.015625)"/>
      <path id="TeXGyreTermesX-Regular-65" d="M 2714 1008 
L 2611 1053 
C 2304 564 2029 378 1619 378 
C 1267 378 998 545 813 892 
C 685 1142 634 1367 621 1779 
L 2592 1779 
C 2541 2193 2477 2377 2317 2581 
C 2125 2811 1830 2944 1498 2944 
C 704 2944 160 2304 160 1370 
C 160 486 621 -64 1357 -64 
C 1971 -64 2445 315 2714 1008 
z
M 1939 1984 
L 634 1984 
C 704 2485 922 2714 1312 2714 
C 1702 2714 1856 2535 1939 1984 
z
" transform="scale(0.015625)"/>
      <path id="TeXGyreTermesX-Regular-6c" d="M 1645 0 
L 1645 109 
C 1235 109 1165 173 1165 528 
L 1165 4371 
L 1139 4384 
C 806 4275 563 4211 122 4103 
L 122 4000 
L 160 4000 
C 230 4000 307 4000 358 4000 
C 563 4000 627 3910 627 3610 
L 627 557 
C 627 211 538 128 134 96 
L 134 0 
L 1645 0 
z
" transform="scale(0.015625)"/>
      <path id="TeXGyreTermesX-Regular-64" d="M 3142 269 
L 3142 365 
C 3027 365 3014 365 2995 365 
C 2765 365 2714 435 2714 731 
L 2714 4364 
L 2682 4377 
C 2374 4268 2150 4204 1741 4096 
L 1741 3994 
C 1792 4000 1830 4000 1882 4000 
C 2118 4000 2176 3936 2176 3672 
L 2176 2669 
C 1933 2874 1760 2944 1504 2944 
C 768 2944 173 2221 173 1312 
C 173 493 653 -64 1357 -64 
C 1715 -64 1958 64 2176 365 
L 2176 -45 
L 2202 -64 
L 3142 269 
z
M 2176 653 
C 2176 608 2131 531 2067 461 
C 1952 333 1792 269 1606 269 
C 1075 269 723 781 723 1568 
C 723 2291 1037 2765 1523 2765 
C 1862 2765 2176 2464 2176 2125 
L 2176 653 
z
" transform="scale(0.015625)"/>
     </defs>
     <use xlink:href="#TeXGyreTermesX-Regular-59" transform="scale(0.996264)"/>
     <use xlink:href="#TeXGyreTermesX-Regular-69" transform="translate(70.435832 0) scale(0.996264)"/>
     <use xlink:href="#TeXGyreTermesX-Regular-65" transform="translate(98.131959 0) scale(0.996264)"/>
     <use xlink:href="#TeXGyreTermesX-Regular-6c" transform="translate(142.366106 0) scale(0.996264)"/>
     <use xlink:href="#TeXGyreTermesX-Regular-64" transform="translate(170.062233 0) scale(0.996264)"/>
    </g>
   </g>
   <g id="patch_8">
    <path d="M 145.707668 20.161286 
Q 133.761784 20.223823 121.8159 20.28636 
L 121.82637 22.286333 
Q 116.820137 21.062524 111.813905 19.838715 
Q 116.80705 18.562558 121.800195 17.286402 
L 121.810665 19.286374 
Q 133.756549 19.223837 145.702433 19.161299 
L 145.707668 20.161286 
z
" style="stroke: #000000; stroke-linecap: round"/>
   </g>
   <g id="text_14">
    <!-- Break -->
    <g transform="translate(152.193082 21.732181) scale(0.09 -0.09)">
     <defs>
      <path id="TeXGyreTermesX-Regular-42" d="M 3795 1165 
C 3795 1451 3680 1710 3482 1897 
C 3290 2072 3117 2150 2701 2253 
C 3034 2335 3168 2398 3322 2531 
C 3482 2671 3578 2903 3578 3163 
C 3578 3871 3008 4237 1901 4237 
L 109 4237 
L 109 4096 
C 646 4096 723 4026 723 3548 
L 723 689 
C 723 212 640 128 109 128 
L 109 0 
L 2246 0 
C 2746 0 3200 136 3437 356 
C 3667 564 3795 855 3795 1165 
z
M 3059 1159 
C 3059 809 2925 555 2669 406 
C 2464 290 2202 238 1779 238 
C 1466 238 1376 296 1376 504 
L 1376 2112 
C 1997 2112 2291 2080 2522 1982 
C 2886 1827 3059 1568 3059 1159 
z
M 2925 3137 
C 2925 2646 2586 2368 1984 2368 
L 1376 2368 
L 1376 3812 
C 1376 3944 1421 4001 1517 4001 
L 1798 4001 
C 2534 4001 2925 3699 2925 3137 
z
" transform="scale(0.015625)"/>
      <path id="TeXGyreTermesX-Regular-72" d="M 2144 2605 
C 2144 2816 2010 2944 1792 2944 
C 1523 2944 1338 2797 1024 2343 
L 1024 2931 
L 992 2944 
C 653 2803 422 2721 45 2599 
L 45 2496 
C 134 2515 192 2522 269 2522 
C 429 2522 486 2419 486 2138 
L 486 538 
C 486 218 442 173 32 96 
L 32 0 
L 1568 0 
L 1568 102 
C 1133 102 1024 199 1024 565 
L 1024 2013 
C 1024 2219 1299 2541 1472 2541 
C 1510 2541 1568 2509 1638 2445 
C 1741 2355 1811 2317 1894 2317 
C 2048 2317 2144 2426 2144 2605 
z
" transform="scale(0.015625)"/>
      <path id="TeXGyreTermesX-Regular-6b" d="M 3232 0 
L 3232 102 
C 2950 102 2752 225 2483 553 
L 1504 1805 
L 1690 1978 
C 2144 2400 2541 2694 2726 2746 
C 2822 2771 2912 2784 3021 2784 
L 3072 2784 
L 3072 2880 
L 1766 2880 
L 1766 2784 
C 2016 2784 2086 2758 2086 2669 
C 2086 2618 2029 2528 1939 2451 
L 1062 1670 
L 1062 4358 
L 1037 4371 
L 237 4141 
L 45 4090 
L 45 3987 
C 128 3994 186 4000 250 4000 
C 461 4000 525 3917 525 3610 
L 525 525 
C 525 192 506 173 45 96 
L 45 0 
L 1542 0 
L 1542 102 
L 1414 102 
C 1158 102 1062 193 1062 419 
L 1062 1606 
L 1958 415 
L 1978 389 
C 1990 370 2003 351 2022 331 
C 2074 267 2093 229 2093 198 
C 2093 140 2035 102 1958 102 
L 1837 102 
L 1837 0 
L 3232 0 
z
" transform="scale(0.015625)"/>
     </defs>
     <use xlink:href="#TeXGyreTermesX-Regular-42" transform="scale(0.996264)"/>
     <use xlink:href="#TeXGyreTermesX-Regular-72" transform="translate(66.450791 0) scale(0.996264)"/>
     <use xlink:href="#TeXGyreTermesX-Regular-65" transform="translate(99.626401 0) scale(0.996264)"/>
     <use xlink:href="#TeXGyreTermesX-Regular-61" transform="translate(143.860547 0) scale(0.996264)"/>
     <use xlink:href="#TeXGyreTermesX-Regular-6b" transform="translate(188.094694 0) scale(0.996264)"/>
    </g>
   </g>
   <g id="text_15">
    <!-- $S_y$ -->
    <g transform="translate(18.960939 49.746169) scale(0.1 -0.1)">
     <defs>
      <path id="NewTXBMI-59" d="M 2995 1175 
C 2995 1734 2707 2157 1920 2754 
C 1523 3056 1427 3197 1427 3486 
C 1427 3903 1683 4160 2093 4160 
C 2605 4160 2854 3843 2938 3086 
L 3110 3060 
L 3366 4358 
L 3174 4358 
C 3117 4243 3027 4192 2893 4192 
C 2829 4192 2733 4211 2566 4262 
C 2298 4352 2125 4384 1939 4384 
C 1210 4384 653 3844 653 3138 
C 653 2966 685 2824 736 2715 
C 877 2445 1133 2163 1498 1880 
C 2003 1495 2221 1200 2221 898 
C 2221 757 2176 597 2099 462 
C 1952 211 1734 89 1414 89 
C 1082 89 800 241 634 501 
C 506 697 454 893 429 1280 
L 243 1280 
L 13 -128 
L 205 -128 
C 282 51 326 89 448 89 
C 512 89 595 71 742 20 
C 1056 -84 1274 -128 1530 -128 
C 2426 -128 2995 379 2995 1175 
z
" transform="scale(0.015625)"/>
      <path id="NewTXBMI-79" d="M 2509 2567 
C 2509 2785 2323 2976 2112 2976 
C 1920 2976 1747 2804 1747 2613 
C 1747 2453 1792 2377 1946 2262 
C 2067 2173 2099 2122 2099 2039 
C 2099 1842 1990 1587 1542 733 
L 1466 1211 
C 1325 1969 1158 2676 1043 2976 
C 736 2900 506 2863 90 2825 
L 90 2656 
C 205 2656 237 2650 282 2624 
C 390 2560 493 2299 589 1845 
C 806 810 909 203 909 5 
C 909 -142 858 -283 749 -436 
C 614 -627 429 -768 320 -768 
C 275 -768 160 -723 102 -678 
C -6 -602 -166 -544 -282 -544 
C -448 -544 -602 -710 -602 -896 
C -602 -1114 -429 -1280 -205 -1280 
C 147 -1280 563 -1031 915 -604 
C 1747 411 2509 1923 2509 2567 
z
" transform="scale(0.015625)"/>
     </defs>
     <use xlink:href="#NewTXBMI-59" transform="scale(0.996264)"/>
     <use xlink:href="#NewTXBMI-79" transform="translate(62.346188 -14.943915) scale(0.727268)"/>
    </g>
   </g>
   <g id="text_16">
    <!-- $S_{break}$ -->
    <g transform="translate(2.72463 22.200909) scale(0.1 -0.1)">
     <defs>
      <path id="NewTXBMI-62" d="M 2842 2196 
C 2842 2666 2547 2995 2125 2995 
C 1798 2995 1568 2848 1242 2412 
L 1818 4493 
C 1370 4409 1056 4365 486 4301 
L 486 4128 
L 602 4128 
C 794 4128 890 4064 890 3936 
C 890 3853 813 3533 640 2931 
L 38 838 
C -26 608 -90 358 -90 320 
C -90 141 371 -64 794 -64 
C 1837 -64 2842 1044 2842 2196 
z
M 2042 2114 
C 2042 1733 1869 1134 1638 734 
C 1421 341 1171 147 896 147 
C 781 147 698 218 698 321 
C 698 399 806 902 877 1153 
C 960 1443 1088 1798 1190 2018 
C 1350 2373 1549 2560 1760 2560 
C 1946 2560 2042 2411 2042 2114 
z
" transform="scale(0.015625)"/>
      <path id="NewTXBMI-72" d="M 2490 2515 
C 2490 2771 2342 2938 2125 2938 
C 1798 2938 1536 2617 1030 1597 
L 1453 2938 
C 1069 2842 947 2823 173 2759 
L 173 2579 
C 461 2579 518 2553 518 2431 
C 518 2270 320 1515 -134 -32 
L 640 -32 
L 851 638 
C 1043 1261 1139 1507 1312 1802 
C 1485 2111 1638 2291 1728 2291 
C 1754 2291 1792 2266 1830 2208 
C 1926 2099 2010 2048 2118 2048 
C 2330 2048 2490 2247 2490 2515 
z
" transform="scale(0.015625)"/>
      <path id="NewTXBMI-65" d="M 2214 815 
L 2029 924 
C 1734 485 1549 345 1274 345 
C 1005 345 864 524 864 867 
C 864 970 877 1052 902 1180 
C 1568 1307 1882 1448 2202 1740 
C 2426 1944 2547 2180 2547 2409 
C 2547 2733 2266 2963 1875 2963 
C 947 2963 32 1924 32 873 
C 32 331 442 -64 998 -64 
C 1491 -64 1830 184 2214 815 
z
M 1958 2535 
C 1958 2255 1850 1981 1645 1771 
C 1472 1586 1312 1497 947 1383 
C 1178 2267 1472 2752 1779 2752 
C 1901 2752 1958 2681 1958 2535 
z
" transform="scale(0.015625)"/>
      <path id="NewTXBMI-61" d="M 2912 733 
L 2778 828 
C 2515 479 2419 384 2317 384 
C 2266 384 2240 421 2240 478 
C 2240 636 2298 893 2458 1409 
L 2912 2893 
L 2202 2893 
L 2086 2498 
C 2029 2823 1888 2957 1613 2957 
C 826 2957 -134 1736 -134 744 
C -134 260 141 -64 557 -64 
C 947 -64 1242 165 1606 778 
C 1530 518 1517 442 1517 354 
C 1517 120 1709 -64 1946 -64 
C 2246 -64 2541 183 2912 733 
z
M 1939 2389 
C 1939 2007 1728 1301 1478 861 
C 1306 550 1114 384 941 384 
C 774 384 653 530 653 728 
C 653 1059 864 1696 1126 2166 
C 1312 2491 1517 2688 1690 2688 
C 1690 2688 1696 2688 1702 2688 
C 1843 2675 1939 2561 1939 2389 
z
" transform="scale(0.015625)"/>
      <path id="NewTXBMI-6b" d="M 2861 728 
L 2720 799 
C 2547 493 2445 390 2323 390 
C 2144 390 2074 613 1824 1858 
L 2227 2209 
C 2662 2578 2797 2655 3091 2694 
L 3091 2855 
L 1766 2855 
L 1766 2688 
C 2016 2688 2093 2656 2093 2553 
C 2093 2386 1850 2148 1043 1513 
L 1830 4461 
C 1338 4371 998 4320 499 4269 
L 499 4096 
L 634 4096 
C 819 4096 902 4026 902 3879 
C 902 3815 890 3751 851 3611 
L -147 -13 
L 634 -13 
L 954 1187 
L 1203 1360 
C 1408 274 1594 -64 1990 -64 
C 2310 -64 2541 141 2861 728 
z
" transform="scale(0.015625)"/>
     </defs>
     <use xlink:href="#NewTXBMI-59" transform="scale(0.996264)"/>
     <use xlink:href="#NewTXBMI-62" transform="translate(61.182492 -15.651497) scale(0.727268)"/>
     <use xlink:href="#NewTXBMI-72" transform="translate(104.164087 -15.651497) scale(0.727268)"/>
     <use xlink:href="#NewTXBMI-65" transform="translate(138.854737 -15.651497) scale(0.727268)"/>
     <use xlink:href="#NewTXBMI-61" transform="translate(177.472707 -15.651497) scale(0.727268)"/>
     <use xlink:href="#NewTXBMI-6b" transform="translate(220.963319 -15.651497) scale(0.727268)"/>
    </g>
   </g>
   <g id="PathCollection_1">
    <path d="M 92.975132 50.078966 
C 93.568144 50.078966 94.136948 49.84336 94.556271 49.424037 
C 94.975593 49.004714 95.2112 48.43591 95.2112 47.842898 
C 95.2112 47.249886 94.975593 46.681082 94.556271 46.261759 
C 94.136948 45.842436 93.568144 45.60683 92.975132 45.60683 
C 92.38212 45.60683 91.813316 45.842436 91.393993 46.261759 
C 90.97467 46.681082 90.739064 47.249886 90.739064 47.842898 
C 90.739064 48.43591 90.97467 49.004714 91.393993 49.424037 
C 91.813316 49.84336 92.38212 50.078966 92.975132 50.078966 
z
" clip-path="url(#p819e411eff)"/>
   </g>
   <g id="PathCollection_2">
    <path d="M 107.330999 22.098251 
C 107.924011 22.098251 108.492814 21.862645 108.912137 21.443322 
C 109.33146 21.023999 109.567067 20.455195 109.567067 19.862183 
C 109.567067 19.269171 109.33146 18.700367 108.912137 18.281044 
C 108.492814 17.861721 107.924011 17.626115 107.330999 17.626115 
C 106.737986 17.626115 106.169183 17.861721 105.74986 18.281044 
C 105.330537 18.700367 105.094931 19.269171 105.094931 19.862183 
C 105.094931 20.455195 105.330537 21.023999 105.74986 21.443322 
C 106.169183 21.862645 106.737986 22.098251 107.330999 22.098251 
z
" clip-path="url(#p819e411eff)"/>
   </g>
  </g>
 </g>
 <defs>
  <clipPath id="p819e411eff">
   <rect x="57.085465" y="1" width="157.914535" height="205.797179"/>
  </clipPath>
 </defs>
</svg>
