<?xml version="1.0" encoding="utf-8" standalone="no"?>
<!DOCTYPE svg PUBLIC "-//W3C//DTD SVG 1.1//EN"
  "http://www.w3.org/Graphics/SVG/1.1/DTD/svg11.dtd">
<svg xmlns:xlink="http://www.w3.org/1999/xlink" width="324pt" height="252pt" viewBox="0 0 324 252" xmlns="http://www.w3.org/2000/svg" version="1.1">
 <metadata>
  <rdf:RDF xmlns:dc="http://purl.org/dc/elements/1.1/" xmlns:cc="http://creativecommons.org/ns#" xmlns:rdf="http://www.w3.org/1999/02/22-rdf-syntax-ns#">
   <cc:Work>
    <dc:type rdf:resource="http://purl.org/dc/dcmitype/StillImage"/>
    <dc:date>2024-10-18T14:12:38.069604</dc:date>
    <dc:format>image/svg+xml</dc:format>
    <dc:creator>
     <cc:Agent>
      <dc:title>Matplotlib v3.9.0, https://matplotlib.org/</dc:title>
     </cc:Agent>
    </dc:creator>
   </cc:Work>
  </rdf:RDF>
 </metadata>
 <defs>
  <style type="text/css">*{stroke-linejoin: round; stroke-linecap: butt}</style>
 </defs>
 <g id="figure_1">
  <g id="patch_1">
   <path d="M 0 252 
L 324 252 
L 324 0 
L 0 0 
z
" style="fill: #ffffff"/>
  </g>
  <g id="axes_1">
   <g id="patch_2">
    <path d="M 31.1834 225.497532 
L 323 225.497532 
L 323 1 
L 31.1834 1 
z
" style="fill: #ffffff"/>
   </g>
   <g id="matplotlib.axis_1">
    <g id="xtick_1">
     <g id="line2d_1">
      <defs>
       <path id="mbff7f17bd8" d="M 0 0 
L 0 -3.5 
" style="stroke: #000000; stroke-width: 0.8"/>
      </defs>
      <g>
       <use xlink:href="#mbff7f17bd8" x="44.447791" y="225.497532" style="stroke: #000000; stroke-width: 0.8"/>
      </g>
     </g>
     <g id="text_1">
      <!-- $\mathdefault{0}$ -->
      <g transform="translate(41.957131 235.836875) scale(0.1 -0.1)">
       <defs>
        <path id="TeXGyreTermesX-Bold-30" d="M 3046 2166 
C 3046 3440 2426 4403 1600 4403 
C 1184 4403 762 4123 499 3664 
C 294 3313 154 2714 154 2185 
C 154 873 755 -64 1606 -64 
C 2432 -64 3046 886 3046 2166 
z
M 2035 1434 
C 2035 1058 1984 561 1926 389 
C 1856 203 1754 114 1606 114 
C 1286 114 1165 491 1165 1434 
L 1165 2892 
C 1165 3855 1286 4224 1594 4224 
C 1907 4224 2035 3829 2035 2892 
L 2035 1434 
z
" transform="scale(0.015625)"/>
       </defs>
       <use xlink:href="#TeXGyreTermesX-Bold-30" transform="scale(0.996264)"/>
      </g>
     </g>
    </g>
    <g id="xtick_2">
     <g id="line2d_2">
      <g>
       <use xlink:href="#mbff7f17bd8" x="97.396519" y="225.497532" style="stroke: #000000; stroke-width: 0.8"/>
      </g>
     </g>
     <g id="text_2">
      <!-- $\mathdefault{5}$ -->
      <g transform="translate(94.905859 235.836875) scale(0.1 -0.1)">
       <defs>
        <path id="TeXGyreTermesX-Bold-35" d="M 3008 4288 
L 947 4288 
L 326 2093 
C 934 2049 1197 2010 1478 1921 
C 2048 1743 2387 1381 2387 960 
C 2387 604 2106 324 1747 324 
C 1600 324 1427 400 1171 591 
C 896 795 704 877 538 877 
C 307 877 141 718 141 496 
C 141 159 512 -64 1082 -64 
C 2138 -64 2886 575 2886 1476 
C 2886 2140 2477 2652 1779 2850 
C 1536 2920 1338 2946 813 2946 
L 954 3481 
L 2733 3481 
L 3008 4288 
z
" transform="scale(0.015625)"/>
       </defs>
       <use xlink:href="#TeXGyreTermesX-Bold-35" transform="scale(0.996264)"/>
      </g>
     </g>
    </g>
    <g id="xtick_3">
     <g id="line2d_3">
      <g>
       <use xlink:href="#mbff7f17bd8" x="150.345246" y="225.497532" style="stroke: #000000; stroke-width: 0.8"/>
      </g>
     </g>
     <g id="text_3">
      <!-- $\mathdefault{10}$ -->
      <g transform="translate(145.363926 235.836875) scale(0.1 -0.1)">
       <defs>
        <path id="TeXGyreTermesX-Bold-31" d="M 2829 0 
L 2829 159 
C 2246 159 2138 255 2138 746 
L 2138 4384 
L 2029 4384 
L 416 3686 
L 416 3521 
C 474 3540 525 3559 544 3572 
C 717 3635 877 3680 960 3680 
C 1120 3680 1190 3540 1190 3241 
L 1190 790 
C 1190 267 1062 159 429 159 
L 429 0 
L 2829 0 
z
" transform="scale(0.015625)"/>
       </defs>
       <use xlink:href="#TeXGyreTermesX-Bold-31" transform="scale(0.996264)"/>
       <use xlink:href="#TeXGyreTermesX-Bold-30" transform="translate(49.8132 0) scale(0.996264)"/>
      </g>
     </g>
    </g>
    <g id="xtick_4">
     <g id="line2d_4">
      <g>
       <use xlink:href="#mbff7f17bd8" x="203.293974" y="225.497532" style="stroke: #000000; stroke-width: 0.8"/>
      </g>
     </g>
     <g id="text_4">
      <!-- $\mathdefault{15}$ -->
      <g transform="translate(198.312654 235.836875) scale(0.1 -0.1)">
       <use xlink:href="#TeXGyreTermesX-Bold-31" transform="scale(0.996264)"/>
       <use xlink:href="#TeXGyreTermesX-Bold-35" transform="translate(49.8132 0) scale(0.996264)"/>
      </g>
     </g>
    </g>
    <g id="xtick_5">
     <g id="line2d_5">
      <g>
       <use xlink:href="#mbff7f17bd8" x="256.242701" y="225.497532" style="stroke: #000000; stroke-width: 0.8"/>
      </g>
     </g>
     <g id="text_5">
      <!-- $\mathdefault{20}$ -->
      <g transform="translate(251.261381 235.836875) scale(0.1 -0.1)">
       <defs>
        <path id="TeXGyreTermesX-Bold-32" d="M 3059 1341 
L 2906 1341 
C 2720 884 2643 846 1990 846 
L 1024 846 
L 2061 1824 
C 2566 2301 2790 2726 2790 3210 
C 2790 3889 2298 4373 1606 4373 
C 1286 4373 979 4245 755 4016 
C 506 3768 378 3552 198 3075 
L 378 3075 
C 576 3469 813 3648 1158 3648 
C 1440 3648 1651 3527 1792 3298 
C 1869 3164 1920 2987 1920 2841 
C 1920 2561 1798 2211 1594 1900 
C 1267 1405 1043 1137 109 146 
L 109 0 
L 2771 0 
L 3059 1341 
z
" transform="scale(0.015625)"/>
       </defs>
       <use xlink:href="#TeXGyreTermesX-Bold-32" transform="scale(0.996264)"/>
       <use xlink:href="#TeXGyreTermesX-Bold-30" transform="translate(49.8132 0) scale(0.996264)"/>
      </g>
     </g>
    </g>
    <g id="xtick_6">
     <g id="line2d_6">
      <g>
       <use xlink:href="#mbff7f17bd8" x="309.191429" y="225.497532" style="stroke: #000000; stroke-width: 0.8"/>
      </g>
     </g>
     <g id="text_6">
      <!-- $\mathdefault{25}$ -->
      <g transform="translate(304.210109 235.836875) scale(0.1 -0.1)">
       <use xlink:href="#TeXGyreTermesX-Bold-32" transform="scale(0.996264)"/>
       <use xlink:href="#TeXGyreTermesX-Bold-35" transform="translate(49.8132 0) scale(0.996264)"/>
      </g>
     </g>
    </g>
    <g id="xtick_7">
     <g id="line2d_7">
      <defs>
       <path id="mb47c7f0324" d="M 0 0 
L 0 -2 
" style="stroke: #000000; stroke-width: 0.6"/>
      </defs>
      <g>
       <use xlink:href="#mb47c7f0324" x="33.858046" y="225.497532" style="stroke: #000000; stroke-width: 0.6"/>
      </g>
     </g>
    </g>
    <g id="xtick_8">
     <g id="line2d_8">
      <g>
       <use xlink:href="#mb47c7f0324" x="55.037537" y="225.497532" style="stroke: #000000; stroke-width: 0.6"/>
      </g>
     </g>
    </g>
    <g id="xtick_9">
     <g id="line2d_9">
      <g>
       <use xlink:href="#mb47c7f0324" x="65.627282" y="225.497532" style="stroke: #000000; stroke-width: 0.6"/>
      </g>
     </g>
    </g>
    <g id="xtick_10">
     <g id="line2d_10">
      <g>
       <use xlink:href="#mb47c7f0324" x="76.217028" y="225.497532" style="stroke: #000000; stroke-width: 0.6"/>
      </g>
     </g>
    </g>
    <g id="xtick_11">
     <g id="line2d_11">
      <g>
       <use xlink:href="#mb47c7f0324" x="86.806773" y="225.497532" style="stroke: #000000; stroke-width: 0.6"/>
      </g>
     </g>
    </g>
    <g id="xtick_12">
     <g id="line2d_12">
      <g>
       <use xlink:href="#mb47c7f0324" x="107.986264" y="225.497532" style="stroke: #000000; stroke-width: 0.6"/>
      </g>
     </g>
    </g>
    <g id="xtick_13">
     <g id="line2d_13">
      <g>
       <use xlink:href="#mb47c7f0324" x="118.57601" y="225.497532" style="stroke: #000000; stroke-width: 0.6"/>
      </g>
     </g>
    </g>
    <g id="xtick_14">
     <g id="line2d_14">
      <g>
       <use xlink:href="#mb47c7f0324" x="129.165755" y="225.497532" style="stroke: #000000; stroke-width: 0.6"/>
      </g>
     </g>
    </g>
    <g id="xtick_15">
     <g id="line2d_15">
      <g>
       <use xlink:href="#mb47c7f0324" x="139.755501" y="225.497532" style="stroke: #000000; stroke-width: 0.6"/>
      </g>
     </g>
    </g>
    <g id="xtick_16">
     <g id="line2d_16">
      <g>
       <use xlink:href="#mb47c7f0324" x="160.934992" y="225.497532" style="stroke: #000000; stroke-width: 0.6"/>
      </g>
     </g>
    </g>
    <g id="xtick_17">
     <g id="line2d_17">
      <g>
       <use xlink:href="#mb47c7f0324" x="171.524737" y="225.497532" style="stroke: #000000; stroke-width: 0.6"/>
      </g>
     </g>
    </g>
    <g id="xtick_18">
     <g id="line2d_18">
      <g>
       <use xlink:href="#mb47c7f0324" x="182.114483" y="225.497532" style="stroke: #000000; stroke-width: 0.6"/>
      </g>
     </g>
    </g>
    <g id="xtick_19">
     <g id="line2d_19">
      <g>
       <use xlink:href="#mb47c7f0324" x="192.704228" y="225.497532" style="stroke: #000000; stroke-width: 0.6"/>
      </g>
     </g>
    </g>
    <g id="xtick_20">
     <g id="line2d_20">
      <g>
       <use xlink:href="#mb47c7f0324" x="213.883719" y="225.497532" style="stroke: #000000; stroke-width: 0.6"/>
      </g>
     </g>
    </g>
    <g id="xtick_21">
     <g id="line2d_21">
      <g>
       <use xlink:href="#mb47c7f0324" x="224.473465" y="225.497532" style="stroke: #000000; stroke-width: 0.6"/>
      </g>
     </g>
    </g>
    <g id="xtick_22">
     <g id="line2d_22">
      <g>
       <use xlink:href="#mb47c7f0324" x="235.06321" y="225.497532" style="stroke: #000000; stroke-width: 0.6"/>
      </g>
     </g>
    </g>
    <g id="xtick_23">
     <g id="line2d_23">
      <g>
       <use xlink:href="#mb47c7f0324" x="245.652956" y="225.497532" style="stroke: #000000; stroke-width: 0.6"/>
      </g>
     </g>
    </g>
    <g id="xtick_24">
     <g id="line2d_24">
      <g>
       <use xlink:href="#mb47c7f0324" x="266.832447" y="225.497532" style="stroke: #000000; stroke-width: 0.6"/>
      </g>
     </g>
    </g>
    <g id="xtick_25">
     <g id="line2d_25">
      <g>
       <use xlink:href="#mb47c7f0324" x="277.422192" y="225.497532" style="stroke: #000000; stroke-width: 0.6"/>
      </g>
     </g>
    </g>
    <g id="xtick_26">
     <g id="line2d_26">
      <g>
       <use xlink:href="#mb47c7f0324" x="288.011938" y="225.497532" style="stroke: #000000; stroke-width: 0.6"/>
      </g>
     </g>
    </g>
    <g id="xtick_27">
     <g id="line2d_27">
      <g>
       <use xlink:href="#mb47c7f0324" x="298.601683" y="225.497532" style="stroke: #000000; stroke-width: 0.6"/>
      </g>
     </g>
    </g>
    <g id="xtick_28">
     <g id="line2d_28">
      <g>
       <use xlink:href="#mb47c7f0324" x="319.781174" y="225.497532" style="stroke: #000000; stroke-width: 0.6"/>
      </g>
     </g>
    </g>
    <g id="text_7">
     <!-- $t$ [h] -->
     <g transform="translate(168.43915 248.838109) scale(0.1 -0.1)">
      <defs>
       <path id="NewTXBMI-74" d="M 1440 837 
L 1299 926 
C 1082 588 915 415 813 415 
C 762 415 710 460 710 511 
C 710 632 826 1073 1056 1864 
L 1267 2624 
L 1798 2624 
L 1798 2893 
L 1338 2893 
L 1587 3808 
L 1363 3808 
C 1018 3303 698 3037 192 2848 
L 192 2624 
L 518 2624 
L 83 1105 
C -13 773 -70 499 -70 383 
C -70 135 109 -32 378 -32 
C 762 -32 1018 180 1440 837 
z
" transform="scale(0.015625)"/>
       <path id="TeXGyreTermesX-Regular-5b" d="M 1914 -1024 
L 1914 -864 
L 1363 -864 
C 1152 -864 1050 -756 1050 -531 
L 1050 3781 
C 1050 3981 1133 4064 1338 4064 
L 1914 4064 
L 1914 4224 
L 563 4224 
L 563 -1024 
L 1914 -1024 
z
" transform="scale(0.015625)"/>
       <path id="TeXGyreTermesX-Regular-68" d="M 3117 32 
L 3117 128 
C 2771 192 2733 243 2733 684 
L 2733 1954 
C 2733 2625 2464 2970 1946 2970 
C 1568 2970 1299 2816 1005 2432 
L 1005 4390 
L 973 4409 
C 755 4332 595 4281 237 4179 
L 64 4128 
L 64 4026 
C 90 4032 109 4032 141 4032 
C 416 4032 467 3980 467 3705 
L 467 686 
C 467 237 429 179 58 128 
L 58 32 
L 1440 32 
L 1440 128 
C 1069 166 1005 243 1005 684 
L 1005 2222 
C 1274 2516 1466 2624 1715 2624 
C 2035 2624 2195 2395 2195 1948 
L 2195 684 
C 2195 250 2131 166 1760 128 
L 1760 32 
L 3117 32 
z
" transform="scale(0.015625)"/>
       <path id="TeXGyreTermesX-Regular-5d" d="M 1568 -1024 
L 1568 4224 
L 218 4224 
L 218 4064 
L 768 4064 
C 979 4064 1082 3955 1082 3730 
L 1082 -582 
C 1082 -781 992 -864 794 -864 
L 218 -864 
L 218 -1024 
L 1568 -1024 
z
" transform="scale(0.015625)"/>
      </defs>
      <use xlink:href="#NewTXBMI-74" transform="scale(0.996264)"/>
      <use xlink:href="#TeXGyreTermesX-Regular-5b" transform="translate(56.886681 0) scale(0.996264)"/>
      <use xlink:href="#TeXGyreTermesX-Regular-68" transform="translate(90.062291 0) scale(0.996264)"/>
      <use xlink:href="#TeXGyreTermesX-Regular-5d" transform="translate(139.875491 0) scale(0.996264)"/>
     </g>
    </g>
   </g>
   <g id="matplotlib.axis_2">
    <g id="ytick_1">
     <g id="line2d_29">
      <defs>
       <path id="m92b9cc707c" d="M 0 0 
L 3.5 0 
" style="stroke: #000000; stroke-width: 0.8"/>
      </defs>
      <g>
       <use xlink:href="#m92b9cc707c" x="31.1834" y="207.912005" style="stroke: #000000; stroke-width: 0.8"/>
      </g>
     </g>
     <g id="text_8">
      <!-- $\mathdefault{0.0}$ -->
      <g transform="translate(14.901347 211.331676) scale(0.1 -0.1)">
       <defs>
        <path id="NewTXBMI-93" d="M 1344 473 
C 1344 768 1101 1017 800 1017 
C 493 1017 262 761 262 473 
C 262 173 493 -64 800 -64 
C 1101 -64 1344 166 1344 473 
z
" transform="scale(0.015625)"/>
       </defs>
       <use xlink:href="#TeXGyreTermesX-Bold-30" transform="scale(0.996264)"/>
       <use xlink:href="#NewTXBMI-93" transform="translate(51.407199 0) scale(0.996264)"/>
       <use xlink:href="#TeXGyreTermesX-Bold-30" transform="translate(78.00746 0) scale(0.996264)"/>
      </g>
     </g>
    </g>
    <g id="ytick_2">
     <g id="line2d_30">
      <g>
       <use xlink:href="#m92b9cc707c" x="31.1834" y="169.288774" style="stroke: #000000; stroke-width: 0.8"/>
      </g>
     </g>
     <g id="text_9">
      <!-- $\mathdefault{0.2}$ -->
      <g transform="translate(14.901347 172.708445) scale(0.1 -0.1)">
       <use xlink:href="#TeXGyreTermesX-Bold-30" transform="scale(0.996264)"/>
       <use xlink:href="#NewTXBMI-93" transform="translate(51.407199 0) scale(0.996264)"/>
       <use xlink:href="#TeXGyreTermesX-Bold-32" transform="translate(78.00746 0) scale(0.996264)"/>
      </g>
     </g>
    </g>
    <g id="ytick_3">
     <g id="line2d_31">
      <g>
       <use xlink:href="#m92b9cc707c" x="31.1834" y="130.665542" style="stroke: #000000; stroke-width: 0.8"/>
      </g>
     </g>
     <g id="text_10">
      <!-- $\mathdefault{0.4}$ -->
      <g transform="translate(14.901347 134.085213) scale(0.1 -0.1)">
       <defs>
        <path id="TeXGyreTermesX-Bold-34" d="M 3040 896 
L 3040 1602 
L 2637 1602 
L 2637 4352 
L 2125 4352 
L 1747 3863 
C 928 2803 506 2219 122 1615 
L 122 896 
L 1709 896 
L 1709 -32 
L 2637 -32 
L 2637 896 
L 3040 896 
z
M 1722 1602 
L 384 1602 
L 1722 3488 
L 1722 1602 
z
" transform="scale(0.015625)"/>
       </defs>
       <use xlink:href="#TeXGyreTermesX-Bold-30" transform="scale(0.996264)"/>
       <use xlink:href="#NewTXBMI-93" transform="translate(51.407199 0) scale(0.996264)"/>
       <use xlink:href="#TeXGyreTermesX-Bold-34" transform="translate(78.00746 0) scale(0.996264)"/>
      </g>
     </g>
    </g>
    <g id="ytick_4">
     <g id="line2d_32">
      <g>
       <use xlink:href="#m92b9cc707c" x="31.1834" y="92.042311" style="stroke: #000000; stroke-width: 0.8"/>
      </g>
     </g>
     <g id="text_11">
      <!-- $\mathdefault{0.6}$ -->
      <g transform="translate(14.901347 95.461982) scale(0.1 -0.1)">
       <defs>
        <path id="TeXGyreTermesX-Bold-36" d="M 3040 1427 
C 3040 2193 2573 2688 1843 2688 
C 1638 2688 1498 2663 1306 2580 
C 1542 3515 2074 4030 3008 4221 
L 3008 4387 
C 2157 4266 1760 4126 1274 3796 
C 557 3307 179 2596 179 1752 
C 179 654 768 -64 1664 -64 
C 2458 -64 3040 564 3040 1427 
z
M 2067 1046 
C 2067 298 1990 108 1677 108 
C 1530 108 1414 172 1350 291 
C 1242 501 1178 964 1178 1553 
C 1178 1946 1216 2307 1261 2339 
C 1312 2377 1402 2402 1491 2402 
C 1920 2402 2067 2054 2067 1046 
z
" transform="scale(0.015625)"/>
       </defs>
       <use xlink:href="#TeXGyreTermesX-Bold-30" transform="scale(0.996264)"/>
       <use xlink:href="#NewTXBMI-93" transform="translate(51.407199 0) scale(0.996264)"/>
       <use xlink:href="#TeXGyreTermesX-Bold-36" transform="translate(78.00746 0) scale(0.996264)"/>
      </g>
     </g>
    </g>
    <g id="ytick_5">
     <g id="line2d_33">
      <g>
       <use xlink:href="#m92b9cc707c" x="31.1834" y="53.419079" style="stroke: #000000; stroke-width: 0.8"/>
      </g>
     </g>
     <g id="text_12">
      <!-- $\mathdefault{0.8}$ -->
      <g transform="translate(14.901347 56.838751) scale(0.1 -0.1)">
       <defs>
        <path id="TeXGyreTermesX-Bold-38" d="M 3021 1212 
C 3021 1768 2746 2164 2061 2597 
C 2675 2815 2931 3075 2931 3483 
C 2931 4051 2445 4409 1683 4409 
C 819 4409 250 3961 250 3292 
C 250 2814 506 2462 1139 2086 
C 774 1965 627 1881 461 1722 
C 275 1543 179 1301 179 1020 
C 179 370 723 -64 1536 -64 
C 2426 -64 3021 447 3021 1212 
z
M 2170 3439 
C 2170 3139 2118 2993 1907 2712 
C 1370 2986 1075 3337 1075 3694 
C 1075 3994 1306 4224 1606 4224 
C 1965 4224 2170 3937 2170 3439 
z
M 2131 829 
C 2131 402 1920 140 1574 140 
C 1184 140 954 478 954 1046 
C 954 1397 1024 1595 1280 1971 
C 1978 1505 2131 1301 2131 829 
z
" transform="scale(0.015625)"/>
       </defs>
       <use xlink:href="#TeXGyreTermesX-Bold-30" transform="scale(0.996264)"/>
       <use xlink:href="#NewTXBMI-93" transform="translate(51.407199 0) scale(0.996264)"/>
       <use xlink:href="#TeXGyreTermesX-Bold-38" transform="translate(78.00746 0) scale(0.996264)"/>
      </g>
     </g>
    </g>
    <g id="ytick_6">
     <g id="line2d_34">
      <g>
       <use xlink:href="#m92b9cc707c" x="31.1834" y="14.795848" style="stroke: #000000; stroke-width: 0.8"/>
      </g>
     </g>
     <g id="text_13">
      <!-- $\mathdefault{1.0}$ -->
      <g transform="translate(14.901347 18.215519) scale(0.1 -0.1)">
       <use xlink:href="#TeXGyreTermesX-Bold-31" transform="scale(0.996264)"/>
       <use xlink:href="#NewTXBMI-93" transform="translate(51.407199 0) scale(0.996264)"/>
       <use xlink:href="#TeXGyreTermesX-Bold-30" transform="translate(78.00746 0) scale(0.996264)"/>
      </g>
     </g>
    </g>
    <g id="ytick_7">
     <g id="line2d_35">
      <defs>
       <path id="me5b3b890d3" d="M 0 0 
L 2 0 
" style="stroke: #000000; stroke-width: 0.6"/>
      </defs>
      <g>
       <use xlink:href="#me5b3b890d3" x="31.1834" y="223.361297" style="stroke: #000000; stroke-width: 0.6"/>
      </g>
     </g>
    </g>
    <g id="ytick_8">
     <g id="line2d_36">
      <g>
       <use xlink:href="#me5b3b890d3" x="31.1834" y="215.636651" style="stroke: #000000; stroke-width: 0.6"/>
      </g>
     </g>
    </g>
    <g id="ytick_9">
     <g id="line2d_37">
      <g>
       <use xlink:href="#me5b3b890d3" x="31.1834" y="200.187359" style="stroke: #000000; stroke-width: 0.6"/>
      </g>
     </g>
    </g>
    <g id="ytick_10">
     <g id="line2d_38">
      <g>
       <use xlink:href="#me5b3b890d3" x="31.1834" y="192.462712" style="stroke: #000000; stroke-width: 0.6"/>
      </g>
     </g>
    </g>
    <g id="ytick_11">
     <g id="line2d_39">
      <g>
       <use xlink:href="#me5b3b890d3" x="31.1834" y="184.738066" style="stroke: #000000; stroke-width: 0.6"/>
      </g>
     </g>
    </g>
    <g id="ytick_12">
     <g id="line2d_40">
      <g>
       <use xlink:href="#me5b3b890d3" x="31.1834" y="177.01342" style="stroke: #000000; stroke-width: 0.6"/>
      </g>
     </g>
    </g>
    <g id="ytick_13">
     <g id="line2d_41">
      <g>
       <use xlink:href="#me5b3b890d3" x="31.1834" y="161.564127" style="stroke: #000000; stroke-width: 0.6"/>
      </g>
     </g>
    </g>
    <g id="ytick_14">
     <g id="line2d_42">
      <g>
       <use xlink:href="#me5b3b890d3" x="31.1834" y="153.839481" style="stroke: #000000; stroke-width: 0.6"/>
      </g>
     </g>
    </g>
    <g id="ytick_15">
     <g id="line2d_43">
      <g>
       <use xlink:href="#me5b3b890d3" x="31.1834" y="146.114835" style="stroke: #000000; stroke-width: 0.6"/>
      </g>
     </g>
    </g>
    <g id="ytick_16">
     <g id="line2d_44">
      <g>
       <use xlink:href="#me5b3b890d3" x="31.1834" y="138.390188" style="stroke: #000000; stroke-width: 0.6"/>
      </g>
     </g>
    </g>
    <g id="ytick_17">
     <g id="line2d_45">
      <g>
       <use xlink:href="#me5b3b890d3" x="31.1834" y="122.940896" style="stroke: #000000; stroke-width: 0.6"/>
      </g>
     </g>
    </g>
    <g id="ytick_18">
     <g id="line2d_46">
      <g>
       <use xlink:href="#me5b3b890d3" x="31.1834" y="115.21625" style="stroke: #000000; stroke-width: 0.6"/>
      </g>
     </g>
    </g>
    <g id="ytick_19">
     <g id="line2d_47">
      <g>
       <use xlink:href="#me5b3b890d3" x="31.1834" y="107.491603" style="stroke: #000000; stroke-width: 0.6"/>
      </g>
     </g>
    </g>
    <g id="ytick_20">
     <g id="line2d_48">
      <g>
       <use xlink:href="#me5b3b890d3" x="31.1834" y="99.766957" style="stroke: #000000; stroke-width: 0.6"/>
      </g>
     </g>
    </g>
    <g id="ytick_21">
     <g id="line2d_49">
      <g>
       <use xlink:href="#me5b3b890d3" x="31.1834" y="84.317664" style="stroke: #000000; stroke-width: 0.6"/>
      </g>
     </g>
    </g>
    <g id="ytick_22">
     <g id="line2d_50">
      <g>
       <use xlink:href="#me5b3b890d3" x="31.1834" y="76.593018" style="stroke: #000000; stroke-width: 0.6"/>
      </g>
     </g>
    </g>
    <g id="ytick_23">
     <g id="line2d_51">
      <g>
       <use xlink:href="#me5b3b890d3" x="31.1834" y="68.868372" style="stroke: #000000; stroke-width: 0.6"/>
      </g>
     </g>
    </g>
    <g id="ytick_24">
     <g id="line2d_52">
      <g>
       <use xlink:href="#me5b3b890d3" x="31.1834" y="61.143726" style="stroke: #000000; stroke-width: 0.6"/>
      </g>
     </g>
    </g>
    <g id="ytick_25">
     <g id="line2d_53">
      <g>
       <use xlink:href="#me5b3b890d3" x="31.1834" y="45.694433" style="stroke: #000000; stroke-width: 0.6"/>
      </g>
     </g>
    </g>
    <g id="ytick_26">
     <g id="line2d_54">
      <g>
       <use xlink:href="#me5b3b890d3" x="31.1834" y="37.969787" style="stroke: #000000; stroke-width: 0.6"/>
      </g>
     </g>
    </g>
    <g id="ytick_27">
     <g id="line2d_55">
      <g>
       <use xlink:href="#me5b3b890d3" x="31.1834" y="30.245141" style="stroke: #000000; stroke-width: 0.6"/>
      </g>
     </g>
    </g>
    <g id="ytick_28">
     <g id="line2d_56">
      <g>
       <use xlink:href="#me5b3b890d3" x="31.1834" y="22.520494" style="stroke: #000000; stroke-width: 0.6"/>
      </g>
     </g>
    </g>
    <g id="ytick_29">
     <g id="line2d_57">
      <g>
       <use xlink:href="#me5b3b890d3" x="31.1834" y="7.071202" style="stroke: #000000; stroke-width: 0.6"/>
      </g>
     </g>
    </g>
    <g id="text_14">
     <!-- $X$ -->
     <g transform="translate(8.523271 116.88694) rotate(-90) scale(0.11 -0.11)">
      <defs>
       <path id="NewTXBMI-5e" d="M 3750 0 
L 3750 160 
C 3290 211 3194 301 3008 903 
L 2534 2423 
L 3808 3737 
C 4090 4019 4211 4096 4442 4128 
L 4442 4288 
L 3142 4288 
L 3142 4128 
L 3283 4115 
C 3430 4102 3494 4057 3494 3961 
C 3494 3846 3379 3685 3046 3333 
L 2445 2698 
C 2381 2910 2362 2986 2336 3050 
C 2189 3506 2118 3782 2118 3878 
C 2118 4025 2189 4083 2400 4108 
L 2592 4128 
L 2592 4288 
L 640 4288 
L 640 4128 
C 1024 4089 1120 4019 1222 3723 
L 1760 1981 
L 1325 1506 
C 314 390 122 211 -154 160 
L -154 0 
L 1216 0 
L 1216 160 
C 928 186 800 269 800 416 
C 800 499 845 583 992 743 
L 1850 1692 
L 1971 1308 
C 2144 814 2214 545 2214 403 
C 2214 237 2125 192 1779 160 
L 1779 0 
L 3750 0 
z
" transform="scale(0.015625)"/>
      </defs>
      <use xlink:href="#NewTXBMI-5e" transform="scale(0.996264)"/>
     </g>
    </g>
   </g>
   <g id="LineCollection_1">
    <path d="M 44.991971 210.705419 
L 44.991971 204.720002 
" clip-path="url(#pd032793cf0)" style="fill: none; stroke: #000000; stroke-width: 1.5"/>
    <path d="M 71.656798 213.298509 
L 71.656798 202.525501 
" clip-path="url(#pd032793cf0)" style="fill: none; stroke: #000000; stroke-width: 1.5"/>
    <path d="M 87.438022 215.093187 
L 87.438022 201.528 
" clip-path="url(#pd032793cf0)" style="fill: none; stroke: #000000; stroke-width: 1.5"/>
    <path d="M 98.049535 215.293099 
L 98.049535 200.929499 
" clip-path="url(#pd032793cf0)" style="fill: none; stroke: #000000; stroke-width: 1.5"/>
    <path d="M 103.491336 212.698774 
L 103.491336 204.321002 
" clip-path="url(#pd032793cf0)" style="fill: none; stroke: #000000; stroke-width: 1.5"/>
    <path d="M 119.54465 210.51086 
L 119.54465 200.131499 
" clip-path="url(#pd032793cf0)" style="fill: none; stroke: #000000; stroke-width: 1.5"/>
    <path d="M 129.884073 205.538179 
L 129.884073 190.754991 
" clip-path="url(#pd032793cf0)" style="fill: none; stroke: #000000; stroke-width: 1.5"/>
    <path d="M 135.325875 198.567203 
L 135.325875 186.565488 
" clip-path="url(#pd032793cf0)" style="fill: none; stroke: #000000; stroke-width: 1.5"/>
    <path d="M 140.495586 200.170205 
L 140.495586 178.186481 
" clip-path="url(#pd032793cf0)" style="fill: none; stroke: #000000; stroke-width: 1.5"/>
    <path d="M 151.379189 185.62934 
L 151.379189 170.804975 
" clip-path="url(#pd032793cf0)" style="fill: none; stroke: #000000; stroke-width: 1.5"/>
    <path d="M 161.718611 166.718413 
L 161.718611 149.458457 
" clip-path="url(#pd032793cf0)" style="fill: none; stroke: #000000; stroke-width: 1.5"/>
    <path d="M 182.941637 134.082327 
L 182.941637 102.775419 
" clip-path="url(#pd032793cf0)" style="fill: none; stroke: #000000; stroke-width: 1.5"/>
    <path d="M 203.620482 96.244002 
L 203.620482 76.042398 
" clip-path="url(#pd032793cf0)" style="fill: none; stroke: #000000; stroke-width: 1.5"/>
    <path d="M 256.405955 43.685489 
L 256.405955 22.576354 
" clip-path="url(#pd032793cf0)" style="fill: none; stroke: #000000; stroke-width: 1.5"/>
    <path d="M 309.735609 18.785851 
L 309.735609 11.204433 
" clip-path="url(#pd032793cf0)" style="fill: none; stroke: #000000; stroke-width: 1.5"/>
   </g>
   <g id="line2d_58">
    <defs>
     <path id="mbdec96a968" d="M 2 0 
L -2 -0 
" style="stroke: #000000"/>
    </defs>
    <g clip-path="url(#pd032793cf0)">
     <use xlink:href="#mbdec96a968" x="44.991971" y="210.705419" style="stroke: #000000"/>
     <use xlink:href="#mbdec96a968" x="71.656798" y="213.298509" style="stroke: #000000"/>
     <use xlink:href="#mbdec96a968" x="87.438022" y="215.093187" style="stroke: #000000"/>
     <use xlink:href="#mbdec96a968" x="98.049535" y="215.293099" style="stroke: #000000"/>
     <use xlink:href="#mbdec96a968" x="103.491336" y="212.698774" style="stroke: #000000"/>
     <use xlink:href="#mbdec96a968" x="119.54465" y="210.51086" style="stroke: #000000"/>
     <use xlink:href="#mbdec96a968" x="129.884073" y="205.538179" style="stroke: #000000"/>
     <use xlink:href="#mbdec96a968" x="135.325875" y="198.567203" style="stroke: #000000"/>
     <use xlink:href="#mbdec96a968" x="140.495586" y="200.170205" style="stroke: #000000"/>
     <use xlink:href="#mbdec96a968" x="151.379189" y="185.62934" style="stroke: #000000"/>
     <use xlink:href="#mbdec96a968" x="161.718611" y="166.718413" style="stroke: #000000"/>
     <use xlink:href="#mbdec96a968" x="182.941637" y="134.082327" style="stroke: #000000"/>
     <use xlink:href="#mbdec96a968" x="203.620482" y="96.244002" style="stroke: #000000"/>
     <use xlink:href="#mbdec96a968" x="256.405955" y="43.685489" style="stroke: #000000"/>
     <use xlink:href="#mbdec96a968" x="309.735609" y="18.785851" style="stroke: #000000"/>
    </g>
   </g>
   <g id="line2d_59">
    <g clip-path="url(#pd032793cf0)">
     <use xlink:href="#mbdec96a968" x="44.991971" y="204.720002" style="stroke: #000000"/>
     <use xlink:href="#mbdec96a968" x="71.656798" y="202.525501" style="stroke: #000000"/>
     <use xlink:href="#mbdec96a968" x="87.438022" y="201.528" style="stroke: #000000"/>
     <use xlink:href="#mbdec96a968" x="98.049535" y="200.929499" style="stroke: #000000"/>
     <use xlink:href="#mbdec96a968" x="103.491336" y="204.321002" style="stroke: #000000"/>
     <use xlink:href="#mbdec96a968" x="119.54465" y="200.131499" style="stroke: #000000"/>
     <use xlink:href="#mbdec96a968" x="129.884073" y="190.754991" style="stroke: #000000"/>
     <use xlink:href="#mbdec96a968" x="135.325875" y="186.565488" style="stroke: #000000"/>
     <use xlink:href="#mbdec96a968" x="140.495586" y="178.186481" style="stroke: #000000"/>
     <use xlink:href="#mbdec96a968" x="151.379189" y="170.804975" style="stroke: #000000"/>
     <use xlink:href="#mbdec96a968" x="161.718611" y="149.458457" style="stroke: #000000"/>
     <use xlink:href="#mbdec96a968" x="182.941637" y="102.775419" style="stroke: #000000"/>
     <use xlink:href="#mbdec96a968" x="203.620482" y="76.042398" style="stroke: #000000"/>
     <use xlink:href="#mbdec96a968" x="256.405955" y="22.576354" style="stroke: #000000"/>
     <use xlink:href="#mbdec96a968" x="309.735609" y="11.204433" style="stroke: #000000"/>
    </g>
   </g>
   <g id="line2d_60">
    <path d="M 44.447791 207.912005 
L 111.367241 207.8021 
L 117.209415 207.543139 
L 121.192716 207.155017 
L 124.379356 206.640044 
L 127.300443 205.946166 
L 129.955977 205.081104 
L 132.345957 204.073183 
L 134.735937 202.814427 
L 136.860364 201.460531 
L 138.984791 199.865854 
L 141.109218 198.014739 
L 143.233645 195.895252 
L 145.623626 193.180608 
L 148.013606 190.112538 
L 150.403586 186.694369 
L 153.05912 182.49895 
L 155.980207 177.429531 
L 159.166848 171.408375 
L 162.619041 164.390378 
L 166.867895 155.200817 
L 172.444516 142.552562 
L 185.191078 113.44654 
L 189.971039 103.15216 
L 194.219893 94.495433 
L 198.203193 86.866002 
L 201.92094 80.201486 
L 205.638688 73.992255 
L 209.090881 68.636987 
L 212.543075 63.672403 
L 215.995269 59.08865 
L 219.447463 54.871849 
L 222.899657 51.005192 
L 226.351851 47.46987 
L 229.804044 44.245857 
L 233.256238 41.312537 
L 236.973985 38.454938 
L 240.691733 35.885042 
L 244.40948 33.578245 
L 248.39278 31.371993 
L 252.376081 29.413659 
L 256.624935 27.569586 
L 261.139342 25.856339 
L 265.919303 24.285318 
L 270.964817 22.862937 
L 276.541438 21.532871 
L 282.383612 20.370403 
L 288.756893 19.326933 
L 295.926834 18.382325 
L 303.893435 17.560126 
L 309.735609 17.078858 
L 309.735609 17.078858 
" clip-path="url(#pd032793cf0)" style="fill: none; stroke-dasharray: 3.7,1.6; stroke-dashoffset: 0; stroke: #000000"/>
   </g>
   <g id="LineCollection_2">
    <path d="M 44.866772 210.164685 
L 44.866772 205.659324 
" clip-path="url(#pd032793cf0)" style="fill: none; stroke: #000000; stroke-width: 1.5"/>
    <path d="M 55.341298 210.368608 
L 55.341298 205.864114 
" clip-path="url(#pd032793cf0)" style="fill: none; stroke: #000000; stroke-width: 1.5"/>
    <path d="M 60.578561 213.234789 
L 60.578561 203.406644 
" clip-path="url(#pd032793cf0)" style="fill: none; stroke: #000000; stroke-width: 1.5"/>
    <path d="M 66.025314 213.234789 
L 66.025314 203.406644 
" clip-path="url(#pd032793cf0)" style="fill: none; stroke: #000000; stroke-width: 1.5"/>
    <path d="M 71.262577 214.257868 
L 71.262577 202.792276 
" clip-path="url(#pd032793cf0)" style="fill: none; stroke: #000000; stroke-width: 1.5"/>
    <path d="M 76.709331 213.035201 
L 76.709331 201.153963 
" clip-path="url(#pd032793cf0)" style="fill: none; stroke: #000000; stroke-width: 1.5"/>
    <path d="M 87.183856 192.437314 
L 87.183856 181.289417 
" clip-path="url(#pd032793cf0)" style="fill: none; stroke: #000000; stroke-width: 1.5"/>
    <path d="M 97.239401 169.019189 
L 97.239401 142.174692 
" clip-path="url(#pd032793cf0)" style="fill: none; stroke: #000000; stroke-width: 1.5"/>
    <path d="M 102.895645 149.230057 
L 102.895645 126.405928 
" clip-path="url(#pd032793cf0)" style="fill: none; stroke: #000000; stroke-width: 1.5"/>
    <path d="M 108.342398 131.292695 
L 108.342398 104.698279 
" clip-path="url(#pd032793cf0)" style="fill: none; stroke: #000000; stroke-width: 1.5"/>
    <path d="M 124.054187 84.158904 
L 124.054187 70.498493 
" clip-path="url(#pd032793cf0)" style="fill: none; stroke: #000000; stroke-width: 1.5"/>
    <path d="M 139.765975 33.778826 
L 139.765975 25.240094 
" clip-path="url(#pd032793cf0)" style="fill: none; stroke: #000000; stroke-width: 1.5"/>
    <path d="M 171.608534 18.476851 
L 171.608534 13.567113 
" clip-path="url(#pd032793cf0)" style="fill: none; stroke: #000000; stroke-width: 1.5"/>
    <path d="M 234.874669 17.866818 
L 234.874669 12.133589 
" clip-path="url(#pd032793cf0)" style="fill: none; stroke: #000000; stroke-width: 1.5"/>
   </g>
   <g id="line2d_61">
    <g clip-path="url(#pd032793cf0)">
     <use xlink:href="#mbdec96a968" x="44.866772" y="210.164685" style="stroke: #000000"/>
     <use xlink:href="#mbdec96a968" x="55.341298" y="210.368608" style="stroke: #000000"/>
     <use xlink:href="#mbdec96a968" x="60.578561" y="213.234789" style="stroke: #000000"/>
     <use xlink:href="#mbdec96a968" x="66.025314" y="213.234789" style="stroke: #000000"/>
     <use xlink:href="#mbdec96a968" x="71.262577" y="214.257868" style="stroke: #000000"/>
     <use xlink:href="#mbdec96a968" x="76.709331" y="213.035201" style="stroke: #000000"/>
     <use xlink:href="#mbdec96a968" x="87.183856" y="192.437314" style="stroke: #000000"/>
     <use xlink:href="#mbdec96a968" x="97.239401" y="169.019189" style="stroke: #000000"/>
     <use xlink:href="#mbdec96a968" x="102.895645" y="149.230057" style="stroke: #000000"/>
     <use xlink:href="#mbdec96a968" x="108.342398" y="131.292695" style="stroke: #000000"/>
     <use xlink:href="#mbdec96a968" x="124.054187" y="84.158904" style="stroke: #000000"/>
     <use xlink:href="#mbdec96a968" x="139.765975" y="33.778826" style="stroke: #000000"/>
     <use xlink:href="#mbdec96a968" x="171.608534" y="18.476851" style="stroke: #000000"/>
     <use xlink:href="#mbdec96a968" x="234.874669" y="17.866818" style="stroke: #000000"/>
    </g>
   </g>
   <g id="line2d_62">
    <g clip-path="url(#pd032793cf0)">
     <use xlink:href="#mbdec96a968" x="44.866772" y="205.659324" style="stroke: #000000"/>
     <use xlink:href="#mbdec96a968" x="55.341298" y="205.864114" style="stroke: #000000"/>
     <use xlink:href="#mbdec96a968" x="60.578561" y="203.406644" style="stroke: #000000"/>
     <use xlink:href="#mbdec96a968" x="66.025314" y="203.406644" style="stroke: #000000"/>
     <use xlink:href="#mbdec96a968" x="71.262577" y="202.792276" style="stroke: #000000"/>
     <use xlink:href="#mbdec96a968" x="76.709331" y="201.153963" style="stroke: #000000"/>
     <use xlink:href="#mbdec96a968" x="87.183856" y="181.289417" style="stroke: #000000"/>
     <use xlink:href="#mbdec96a968" x="97.239401" y="142.174692" style="stroke: #000000"/>
     <use xlink:href="#mbdec96a968" x="102.895645" y="126.405928" style="stroke: #000000"/>
     <use xlink:href="#mbdec96a968" x="108.342398" y="104.698279" style="stroke: #000000"/>
     <use xlink:href="#mbdec96a968" x="124.054187" y="70.498493" style="stroke: #000000"/>
     <use xlink:href="#mbdec96a968" x="139.765975" y="25.240094" style="stroke: #000000"/>
     <use xlink:href="#mbdec96a968" x="171.608534" y="13.567113" style="stroke: #000000"/>
     <use xlink:href="#mbdec96a968" x="234.874669" y="12.133589" style="stroke: #000000"/>
    </g>
   </g>
   <g id="line2d_63">
    <path d="M 44.447791 207.912005 
L 70.371771 207.803401 
L 72.849798 207.567566 
L 74.755973 207.165345 
L 76.280913 206.611941 
L 77.615235 205.888888 
L 78.75894 205.042696 
L 79.902645 203.944975 
L 81.04635 202.556367 
L 82.190055 200.840619 
L 83.524378 198.384385 
L 84.8587 195.403867 
L 86.193023 191.877982 
L 87.717963 187.176997 
L 89.43352 181.062549 
L 91.339695 173.334865 
L 93.436488 163.883378 
L 96.29575 149.855371 
L 106.017242 101.058751 
L 108.685887 89.231379 
L 111.163915 79.241426 
L 113.451325 70.91639 
L 115.738734 63.452705 
L 117.835527 57.34381 
L 119.932319 51.898759 
L 122.029112 47.072565 
L 124.125904 42.815442 
L 126.222697 39.075777 
L 128.319489 35.802301 
L 130.416282 32.945602 
L 132.513074 30.459113 
L 134.609866 28.299694 
L 136.897276 26.270758 
L 139.184686 24.538149 
L 141.662714 22.948301 
L 144.331359 21.519598 
L 147.190621 20.261277 
L 150.240501 19.174383 
L 153.480999 18.25313 
L 157.102731 17.449248 
L 161.296316 16.747726 
L 166.252371 16.152856 
L 172.161513 15.675038 
L 179.595595 15.304791 
L 189.698323 15.037816 
L 205.328957 14.872385 
L 234.874669 14.804531 
L 234.874669 14.804531 
" clip-path="url(#pd032793cf0)" style="fill: none; stroke-dasharray: 3.7,1.6; stroke-dashoffset: 0; stroke: #000000"/>
   </g>
   <g id="patch_3">
    <path d="M 31.1834 225.497532 
L 31.1834 1 
" style="fill: none; stroke: #000000; stroke-width: 0.8; stroke-linejoin: miter; stroke-linecap: square"/>
   </g>
   <g id="patch_4">
    <path d="M 323 225.497532 
L 323 1 
" style="fill: none; stroke: #000000; stroke-width: 0.8; stroke-linejoin: miter; stroke-linecap: square"/>
   </g>
   <g id="patch_5">
    <path d="M 31.1834 225.497532 
L 323 225.497532 
" style="fill: none; stroke: #000000; stroke-width: 0.8; stroke-linejoin: miter; stroke-linecap: square"/>
   </g>
   <g id="patch_6">
    <path d="M 31.1834 1 
L 323 1 
" style="fill: none; stroke: #000000; stroke-width: 0.8; stroke-linejoin: miter; stroke-linecap: square"/>
   </g>
   <g id="legend_1">
    <g id="patch_7">
     <path d="M 225.554196 219.997532 
L 315.3 219.997532 
Q 317.5 219.997532 317.5 217.797532 
L 317.5 187.741381 
Q 317.5 185.541381 315.3 185.541381 
L 225.554196 185.541381 
Q 223.354196 185.541381 223.354196 187.741381 
L 223.354196 217.797532 
Q 223.354196 219.997532 225.554196 219.997532 
z
" style="fill: #ffffff; opacity: 0.8; stroke: #cccccc; stroke-linejoin: miter"/>
    </g>
    <g id="PathCollection_1">
     <defs>
      <path id="m0c0da56d74" d="M 0 -3.162278 
L -2.738613 -1.581139 
L -2.738613 1.581139 
L -0 3.162278 
L 2.738613 1.581139 
L 2.738613 -1.581139 
z
" style="stroke: #000000"/>
     </defs>
     <g>
      <use xlink:href="#m0c0da56d74" x="238.754196" y="194.753881" style="fill: #d95f02; stroke: #000000"/>
     </g>
    </g>
    <g id="text_15">
     <!-- $T = 1200 ^\circ C$ -->
     <g transform="translate(258.554196 197.641381) scale(0.11 -0.11)">
      <defs>
       <path id="NewTXBMI-5a" d="M 3930 3057 
L 4160 4288 
L 634 4288 
L 390 3192 
L 550 3147 
C 883 3792 1286 4057 1939 4057 
L 992 621 
C 902 288 736 160 410 160 
L 320 160 
L 320 0 
L 2438 0 
L 2438 160 
C 1984 160 1907 199 1907 404 
C 1907 501 1933 629 1978 803 
L 2874 4057 
C 3475 4057 3725 3781 3757 3070 
L 3930 3057 
z
" transform="scale(0.015625)"/>
       <path id="txbmiaX-3d" d="M 3930 2137 
L 3930 2752 
L 397 2752 
L 397 2137 
L 3930 2137 
z
M 3930 576 
L 3930 1190 
L 397 1190 
L 397 576 
L 3930 576 
z
" transform="scale(0.015625)"/>
       <path id="txbsys-e" d="M 2955 1640 
C 2955 2347 2386 2915 1676 2915 
C 960 2915 397 2347 397 1640 
C 397 926 960 365 1676 365 
C 2386 365 2955 926 2955 1640 
z
M 2482 1640 
C 2482 1188 2117 838 1676 838 
C 1222 838 870 1188 870 1640 
C 870 2078 1222 2441 1676 2441 
C 2117 2441 2482 2078 2482 1640 
z
" transform="scale(0.015625)"/>
       <path id="NewTXBMI-49" d="M 3686 828 
L 3494 969 
C 3174 590 2995 442 2726 326 
C 2547 249 2349 211 2150 211 
C 1549 211 1190 628 1190 1329 
C 1190 2253 1638 3344 2214 3852 
C 2451 4051 2714 4160 2982 4160 
C 3501 4160 3821 3775 3821 3146 
C 3821 3062 3814 3004 3802 2921 
L 4006 2882 
L 4333 4384 
L 4141 4384 
C 4051 4243 3994 4198 3898 4198 
C 3846 4198 3750 4218 3654 4250 
C 3366 4339 3078 4384 2816 4384 
C 1389 4384 205 3094 205 1534 
C 205 539 902 -128 1946 -128 
C 2400 -128 2822 13 3187 289 
C 3373 431 3482 546 3686 828 
z
" transform="scale(0.015625)"/>
      </defs>
      <use xlink:href="#NewTXBMI-5a" transform="scale(0.996264)"/>
      <use xlink:href="#txbmiaX-3d" transform="translate(94.32405 0) scale(0.996264)"/>
      <use xlink:href="#TeXGyreTermesX-Bold-31" transform="translate(189.34539 0) scale(0.996264)"/>
      <use xlink:href="#TeXGyreTermesX-Bold-32" transform="translate(239.15859 0) scale(0.996264)"/>
      <use xlink:href="#TeXGyreTermesX-Bold-30" transform="translate(288.971791 0) scale(0.996264)"/>
      <use xlink:href="#TeXGyreTermesX-Bold-30" transform="translate(338.784991 0) scale(0.996264)"/>
      <use xlink:href="#txbsys-e" transform="translate(388.598192 36.164371) scale(0.727268)"/>
      <use xlink:href="#NewTXBMI-49" transform="translate(427.60367 0) scale(0.996264)"/>
     </g>
    </g>
    <g id="PathCollection_2">
     <defs>
      <path id="m1cb5260268" d="M -3.162278 3.162278 
L 3.162278 3.162278 
L 3.162278 -3.162278 
L -3.162278 -3.162278 
z
" style="stroke: #000000"/>
     </defs>
     <g>
      <use xlink:href="#m1cb5260268" x="238.754196" y="210.331957" style="fill: #7570b3; stroke: #000000"/>
     </g>
    </g>
    <g id="text_16">
     <!-- $T = 1250 ^\circ C$ -->
     <g transform="translate(258.554196 213.219457) scale(0.11 -0.11)">
      <use xlink:href="#NewTXBMI-5a" transform="scale(0.996264)"/>
      <use xlink:href="#txbmiaX-3d" transform="translate(94.32405 0) scale(0.996264)"/>
      <use xlink:href="#TeXGyreTermesX-Bold-31" transform="translate(189.34539 0) scale(0.996264)"/>
      <use xlink:href="#TeXGyreTermesX-Bold-32" transform="translate(239.15859 0) scale(0.996264)"/>
      <use xlink:href="#TeXGyreTermesX-Bold-35" transform="translate(288.971791 0) scale(0.996264)"/>
      <use xlink:href="#TeXGyreTermesX-Bold-30" transform="translate(338.784991 0) scale(0.996264)"/>
      <use xlink:href="#txbsys-e" transform="translate(388.598192 36.164371) scale(0.727268)"/>
      <use xlink:href="#NewTXBMI-49" transform="translate(427.60367 0) scale(0.996264)"/>
     </g>
    </g>
   </g>
   <g id="PathCollection_3">
    <g clip-path="url(#pd032793cf0)">
     <use xlink:href="#m0c0da56d74" x="44.991971" y="207.712711" style="fill: #d95f02; stroke: #000000"/>
     <use xlink:href="#m0c0da56d74" x="71.656798" y="207.912005" style="fill: #d95f02; stroke: #000000"/>
     <use xlink:href="#m0c0da56d74" x="87.438022" y="208.310593" style="fill: #d95f02; stroke: #000000"/>
     <use xlink:href="#m0c0da56d74" x="98.049535" y="208.111299" style="fill: #d95f02; stroke: #000000"/>
     <use xlink:href="#m0c0da56d74" x="103.491336" y="208.509888" style="fill: #d95f02; stroke: #000000"/>
     <use xlink:href="#m0c0da56d74" x="119.54465" y="205.321179" style="fill: #d95f02; stroke: #000000"/>
     <use xlink:href="#m0c0da56d74" x="129.884073" y="198.146585" style="fill: #d95f02; stroke: #000000"/>
     <use xlink:href="#m0c0da56d74" x="135.325875" y="192.566345" style="fill: #d95f02; stroke: #000000"/>
     <use xlink:href="#m0c0da56d74" x="140.495586" y="189.178343" style="fill: #d95f02; stroke: #000000"/>
     <use xlink:href="#m0c0da56d74" x="151.379189" y="178.217157" style="fill: #d95f02; stroke: #000000"/>
     <use xlink:href="#m0c0da56d74" x="161.718611" y="158.088435" style="fill: #d95f02; stroke: #000000"/>
     <use xlink:href="#m0c0da56d74" x="182.941637" y="118.428873" style="fill: #d95f02; stroke: #000000"/>
     <use xlink:href="#m0c0da56d74" x="203.620482" y="86.1432" style="fill: #d95f02; stroke: #000000"/>
     <use xlink:href="#m0c0da56d74" x="256.405955" y="33.130922" style="fill: #d95f02; stroke: #000000"/>
     <use xlink:href="#m0c0da56d74" x="309.735609" y="14.995142" style="fill: #d95f02; stroke: #000000"/>
    </g>
   </g>
   <g id="PathCollection_4">
    <g clip-path="url(#pd032793cf0)">
     <use xlink:href="#m1cb5260268" x="44.866772" y="207.912005" style="fill: #7570b3; stroke: #000000"/>
     <use xlink:href="#m1cb5260268" x="55.341298" y="208.116361" style="fill: #7570b3; stroke: #000000"/>
     <use xlink:href="#m1cb5260268" x="60.578561" y="208.320716" style="fill: #7570b3; stroke: #000000"/>
     <use xlink:href="#m1cb5260268" x="66.025314" y="208.320716" style="fill: #7570b3; stroke: #000000"/>
     <use xlink:href="#m1cb5260268" x="71.262577" y="208.525072" style="fill: #7570b3; stroke: #000000"/>
     <use xlink:href="#m1cb5260268" x="76.709331" y="207.094582" style="fill: #7570b3; stroke: #000000"/>
     <use xlink:href="#m1cb5260268" x="87.183856" y="186.863366" style="fill: #7570b3; stroke: #000000"/>
     <use xlink:href="#m1cb5260268" x="97.239401" y="155.59694" style="fill: #7570b3; stroke: #000000"/>
     <use xlink:href="#m1cb5260268" x="102.895645" y="137.817992" style="fill: #7570b3; stroke: #000000"/>
     <use xlink:href="#m1cb5260268" x="108.342398" y="117.995487" style="fill: #7570b3; stroke: #000000"/>
     <use xlink:href="#m1cb5260268" x="124.054187" y="77.328699" style="fill: #7570b3; stroke: #000000"/>
     <use xlink:href="#m1cb5260268" x="139.765975" y="29.50946" style="fill: #7570b3; stroke: #000000"/>
     <use xlink:href="#m1cb5260268" x="171.608534" y="16.021982" style="fill: #7570b3; stroke: #000000"/>
     <use xlink:href="#m1cb5260268" x="234.874669" y="15.000204" style="fill: #7570b3; stroke: #000000"/>
    </g>
   </g>
  </g>
 </g>
 <defs>
  <clipPath id="pd032793cf0">
   <rect x="31.1834" y="1" width="291.8166" height="224.497532"/>
  </clipPath>
 </defs>
</svg>
