<?xml version="1.0" encoding="utf-8" standalone="no"?>
<!DOCTYPE svg PUBLIC "-//W3C//DTD SVG 1.1//EN"
  "http://www.w3.org/Graphics/SVG/1.1/DTD/svg11.dtd">
<svg xmlns:xlink="http://www.w3.org/1999/xlink" width="324pt" height="252pt" viewBox="0 0 324 252" xmlns="http://www.w3.org/2000/svg" version="1.1">
 <metadata>
  <rdf:RDF xmlns:dc="http://purl.org/dc/elements/1.1/" xmlns:cc="http://creativecommons.org/ns#" xmlns:rdf="http://www.w3.org/1999/02/22-rdf-syntax-ns#">
   <cc:Work>
    <dc:type rdf:resource="http://purl.org/dc/dcmitype/StillImage"/>
    <dc:date>2024-11-20T14:57:58.219226</dc:date>
    <dc:format>image/svg+xml</dc:format>
    <dc:creator>
     <cc:Agent>
      <dc:title>Matplotlib v3.9.0, https://matplotlib.org/</dc:title>
     </cc:Agent>
    </dc:creator>
   </cc:Work>
  </rdf:RDF>
 </metadata>
 <defs>
  <style type="text/css">*{stroke-linejoin: round; stroke-linecap: butt}</style>
 </defs>
 <g id="figure_1">
  <g id="patch_1">
   <path d="M 0 252 
L 324 252 
L 324 0 
L 0 0 
z
" style="fill: #ffffff"/>
  </g>
  <g id="axes_1">
   <g id="patch_2">
    <path d="M 31.1834 225.497532 
L 323 225.497532 
L 323 1 
L 31.1834 1 
z
" style="fill: #ffffff"/>
   </g>
   <g id="matplotlib.axis_1">
    <g id="xtick_1">
     <g id="line2d_1">
      <defs>
       <path id="m0137f6d27b" d="M 0 0 
L 0 -3.5 
" style="stroke: #000000; stroke-width: 0.8"/>
      </defs>
      <g>
       <use xlink:href="#m0137f6d27b" x="44.447791" y="225.497532" style="stroke: #000000; stroke-width: 0.8"/>
      </g>
     </g>
     <g id="text_1">
      <!-- $\mathdefault{0}$ -->
      <g transform="translate(41.957131 235.836875) scale(0.1 -0.1)">
       <defs>
        <path id="TeXGyreTermesX-Bold-30" d="M 3046 2166 
C 3046 3440 2426 4403 1600 4403 
C 1184 4403 762 4123 499 3664 
C 294 3313 154 2714 154 2185 
C 154 873 755 -64 1606 -64 
C 2432 -64 3046 886 3046 2166 
z
M 2035 1434 
C 2035 1058 1984 561 1926 389 
C 1856 203 1754 114 1606 114 
C 1286 114 1165 491 1165 1434 
L 1165 2892 
C 1165 3855 1286 4224 1594 4224 
C 1907 4224 2035 3829 2035 2892 
L 2035 1434 
z
" transform="scale(0.015625)"/>
       </defs>
       <use xlink:href="#TeXGyreTermesX-Bold-30" transform="scale(0.996264)"/>
      </g>
     </g>
    </g>
    <g id="xtick_2">
     <g id="line2d_2">
      <g>
       <use xlink:href="#m0137f6d27b" x="97.396519" y="225.497532" style="stroke: #000000; stroke-width: 0.8"/>
      </g>
     </g>
     <g id="text_2">
      <!-- $\mathdefault{5}$ -->
      <g transform="translate(94.905859 235.836875) scale(0.1 -0.1)">
       <defs>
        <path id="TeXGyreTermesX-Bold-35" d="M 3008 4288 
L 947 4288 
L 326 2093 
C 934 2049 1197 2010 1478 1921 
C 2048 1743 2387 1381 2387 960 
C 2387 604 2106 324 1747 324 
C 1600 324 1427 400 1171 591 
C 896 795 704 877 538 877 
C 307 877 141 718 141 496 
C 141 159 512 -64 1082 -64 
C 2138 -64 2886 575 2886 1476 
C 2886 2140 2477 2652 1779 2850 
C 1536 2920 1338 2946 813 2946 
L 954 3481 
L 2733 3481 
L 3008 4288 
z
" transform="scale(0.015625)"/>
       </defs>
       <use xlink:href="#TeXGyreTermesX-Bold-35" transform="scale(0.996264)"/>
      </g>
     </g>
    </g>
    <g id="xtick_3">
     <g id="line2d_3">
      <g>
       <use xlink:href="#m0137f6d27b" x="150.345246" y="225.497532" style="stroke: #000000; stroke-width: 0.8"/>
      </g>
     </g>
     <g id="text_3">
      <!-- $\mathdefault{10}$ -->
      <g transform="translate(145.363926 235.836875) scale(0.1 -0.1)">
       <defs>
        <path id="TeXGyreTermesX-Bold-31" d="M 2829 0 
L 2829 159 
C 2246 159 2138 255 2138 746 
L 2138 4384 
L 2029 4384 
L 416 3686 
L 416 3521 
C 474 3540 525 3559 544 3572 
C 717 3635 877 3680 960 3680 
C 1120 3680 1190 3540 1190 3241 
L 1190 790 
C 1190 267 1062 159 429 159 
L 429 0 
L 2829 0 
z
" transform="scale(0.015625)"/>
       </defs>
       <use xlink:href="#TeXGyreTermesX-Bold-31" transform="scale(0.996264)"/>
       <use xlink:href="#TeXGyreTermesX-Bold-30" transform="translate(49.8132 0) scale(0.996264)"/>
      </g>
     </g>
    </g>
    <g id="xtick_4">
     <g id="line2d_4">
      <g>
       <use xlink:href="#m0137f6d27b" x="203.293974" y="225.497532" style="stroke: #000000; stroke-width: 0.8"/>
      </g>
     </g>
     <g id="text_4">
      <!-- $\mathdefault{15}$ -->
      <g transform="translate(198.312654 235.836875) scale(0.1 -0.1)">
       <use xlink:href="#TeXGyreTermesX-Bold-31" transform="scale(0.996264)"/>
       <use xlink:href="#TeXGyreTermesX-Bold-35" transform="translate(49.8132 0) scale(0.996264)"/>
      </g>
     </g>
    </g>
    <g id="xtick_5">
     <g id="line2d_5">
      <g>
       <use xlink:href="#m0137f6d27b" x="256.242701" y="225.497532" style="stroke: #000000; stroke-width: 0.8"/>
      </g>
     </g>
     <g id="text_5">
      <!-- $\mathdefault{20}$ -->
      <g transform="translate(251.261381 235.836875) scale(0.1 -0.1)">
       <defs>
        <path id="TeXGyreTermesX-Bold-32" d="M 3059 1341 
L 2906 1341 
C 2720 884 2643 846 1990 846 
L 1024 846 
L 2061 1824 
C 2566 2301 2790 2726 2790 3210 
C 2790 3889 2298 4373 1606 4373 
C 1286 4373 979 4245 755 4016 
C 506 3768 378 3552 198 3075 
L 378 3075 
C 576 3469 813 3648 1158 3648 
C 1440 3648 1651 3527 1792 3298 
C 1869 3164 1920 2987 1920 2841 
C 1920 2561 1798 2211 1594 1900 
C 1267 1405 1043 1137 109 146 
L 109 0 
L 2771 0 
L 3059 1341 
z
" transform="scale(0.015625)"/>
       </defs>
       <use xlink:href="#TeXGyreTermesX-Bold-32" transform="scale(0.996264)"/>
       <use xlink:href="#TeXGyreTermesX-Bold-30" transform="translate(49.8132 0) scale(0.996264)"/>
      </g>
     </g>
    </g>
    <g id="xtick_6">
     <g id="line2d_6">
      <g>
       <use xlink:href="#m0137f6d27b" x="309.191429" y="225.497532" style="stroke: #000000; stroke-width: 0.8"/>
      </g>
     </g>
     <g id="text_6">
      <!-- $\mathdefault{25}$ -->
      <g transform="translate(304.210109 235.836875) scale(0.1 -0.1)">
       <use xlink:href="#TeXGyreTermesX-Bold-32" transform="scale(0.996264)"/>
       <use xlink:href="#TeXGyreTermesX-Bold-35" transform="translate(49.8132 0) scale(0.996264)"/>
      </g>
     </g>
    </g>
    <g id="xtick_7">
     <g id="line2d_7">
      <defs>
       <path id="m074478076b" d="M 0 0 
L 0 -2 
" style="stroke: #000000; stroke-width: 0.6"/>
      </defs>
      <g>
       <use xlink:href="#m074478076b" x="33.858046" y="225.497532" style="stroke: #000000; stroke-width: 0.6"/>
      </g>
     </g>
    </g>
    <g id="xtick_8">
     <g id="line2d_8">
      <g>
       <use xlink:href="#m074478076b" x="55.037537" y="225.497532" style="stroke: #000000; stroke-width: 0.6"/>
      </g>
     </g>
    </g>
    <g id="xtick_9">
     <g id="line2d_9">
      <g>
       <use xlink:href="#m074478076b" x="65.627282" y="225.497532" style="stroke: #000000; stroke-width: 0.6"/>
      </g>
     </g>
    </g>
    <g id="xtick_10">
     <g id="line2d_10">
      <g>
       <use xlink:href="#m074478076b" x="76.217028" y="225.497532" style="stroke: #000000; stroke-width: 0.6"/>
      </g>
     </g>
    </g>
    <g id="xtick_11">
     <g id="line2d_11">
      <g>
       <use xlink:href="#m074478076b" x="86.806773" y="225.497532" style="stroke: #000000; stroke-width: 0.6"/>
      </g>
     </g>
    </g>
    <g id="xtick_12">
     <g id="line2d_12">
      <g>
       <use xlink:href="#m074478076b" x="107.986264" y="225.497532" style="stroke: #000000; stroke-width: 0.6"/>
      </g>
     </g>
    </g>
    <g id="xtick_13">
     <g id="line2d_13">
      <g>
       <use xlink:href="#m074478076b" x="118.57601" y="225.497532" style="stroke: #000000; stroke-width: 0.6"/>
      </g>
     </g>
    </g>
    <g id="xtick_14">
     <g id="line2d_14">
      <g>
       <use xlink:href="#m074478076b" x="129.165755" y="225.497532" style="stroke: #000000; stroke-width: 0.6"/>
      </g>
     </g>
    </g>
    <g id="xtick_15">
     <g id="line2d_15">
      <g>
       <use xlink:href="#m074478076b" x="139.755501" y="225.497532" style="stroke: #000000; stroke-width: 0.6"/>
      </g>
     </g>
    </g>
    <g id="xtick_16">
     <g id="line2d_16">
      <g>
       <use xlink:href="#m074478076b" x="160.934992" y="225.497532" style="stroke: #000000; stroke-width: 0.6"/>
      </g>
     </g>
    </g>
    <g id="xtick_17">
     <g id="line2d_17">
      <g>
       <use xlink:href="#m074478076b" x="171.524737" y="225.497532" style="stroke: #000000; stroke-width: 0.6"/>
      </g>
     </g>
    </g>
    <g id="xtick_18">
     <g id="line2d_18">
      <g>
       <use xlink:href="#m074478076b" x="182.114483" y="225.497532" style="stroke: #000000; stroke-width: 0.6"/>
      </g>
     </g>
    </g>
    <g id="xtick_19">
     <g id="line2d_19">
      <g>
       <use xlink:href="#m074478076b" x="192.704228" y="225.497532" style="stroke: #000000; stroke-width: 0.6"/>
      </g>
     </g>
    </g>
    <g id="xtick_20">
     <g id="line2d_20">
      <g>
       <use xlink:href="#m074478076b" x="213.883719" y="225.497532" style="stroke: #000000; stroke-width: 0.6"/>
      </g>
     </g>
    </g>
    <g id="xtick_21">
     <g id="line2d_21">
      <g>
       <use xlink:href="#m074478076b" x="224.473465" y="225.497532" style="stroke: #000000; stroke-width: 0.6"/>
      </g>
     </g>
    </g>
    <g id="xtick_22">
     <g id="line2d_22">
      <g>
       <use xlink:href="#m074478076b" x="235.06321" y="225.497532" style="stroke: #000000; stroke-width: 0.6"/>
      </g>
     </g>
    </g>
    <g id="xtick_23">
     <g id="line2d_23">
      <g>
       <use xlink:href="#m074478076b" x="245.652956" y="225.497532" style="stroke: #000000; stroke-width: 0.6"/>
      </g>
     </g>
    </g>
    <g id="xtick_24">
     <g id="line2d_24">
      <g>
       <use xlink:href="#m074478076b" x="266.832447" y="225.497532" style="stroke: #000000; stroke-width: 0.6"/>
      </g>
     </g>
    </g>
    <g id="xtick_25">
     <g id="line2d_25">
      <g>
       <use xlink:href="#m074478076b" x="277.422192" y="225.497532" style="stroke: #000000; stroke-width: 0.6"/>
      </g>
     </g>
    </g>
    <g id="xtick_26">
     <g id="line2d_26">
      <g>
       <use xlink:href="#m074478076b" x="288.011938" y="225.497532" style="stroke: #000000; stroke-width: 0.6"/>
      </g>
     </g>
    </g>
    <g id="xtick_27">
     <g id="line2d_27">
      <g>
       <use xlink:href="#m074478076b" x="298.601683" y="225.497532" style="stroke: #000000; stroke-width: 0.6"/>
      </g>
     </g>
    </g>
    <g id="xtick_28">
     <g id="line2d_28">
      <g>
       <use xlink:href="#m074478076b" x="319.781174" y="225.497532" style="stroke: #000000; stroke-width: 0.6"/>
      </g>
     </g>
    </g>
    <g id="text_7">
     <!-- $t$ [h] -->
     <g transform="translate(168.43915 248.838109) scale(0.1 -0.1)">
      <defs>
       <path id="NewTXBMI-74" d="M 1440 837 
L 1299 926 
C 1082 588 915 415 813 415 
C 762 415 710 460 710 511 
C 710 632 826 1073 1056 1864 
L 1267 2624 
L 1798 2624 
L 1798 2893 
L 1338 2893 
L 1587 3808 
L 1363 3808 
C 1018 3303 698 3037 192 2848 
L 192 2624 
L 518 2624 
L 83 1105 
C -13 773 -70 499 -70 383 
C -70 135 109 -32 378 -32 
C 762 -32 1018 180 1440 837 
z
" transform="scale(0.015625)"/>
       <path id="TeXGyreTermesX-Regular-5b" d="M 1914 -1024 
L 1914 -864 
L 1363 -864 
C 1152 -864 1050 -756 1050 -531 
L 1050 3781 
C 1050 3981 1133 4064 1338 4064 
L 1914 4064 
L 1914 4224 
L 563 4224 
L 563 -1024 
L 1914 -1024 
z
" transform="scale(0.015625)"/>
       <path id="TeXGyreTermesX-Regular-68" d="M 3117 32 
L 3117 128 
C 2771 192 2733 243 2733 684 
L 2733 1954 
C 2733 2625 2464 2970 1946 2970 
C 1568 2970 1299 2816 1005 2432 
L 1005 4390 
L 973 4409 
C 755 4332 595 4281 237 4179 
L 64 4128 
L 64 4026 
C 90 4032 109 4032 141 4032 
C 416 4032 467 3980 467 3705 
L 467 686 
C 467 237 429 179 58 128 
L 58 32 
L 1440 32 
L 1440 128 
C 1069 166 1005 243 1005 684 
L 1005 2222 
C 1274 2516 1466 2624 1715 2624 
C 2035 2624 2195 2395 2195 1948 
L 2195 684 
C 2195 250 2131 166 1760 128 
L 1760 32 
L 3117 32 
z
" transform="scale(0.015625)"/>
       <path id="TeXGyreTermesX-Regular-5d" d="M 1568 -1024 
L 1568 4224 
L 218 4224 
L 218 4064 
L 768 4064 
C 979 4064 1082 3955 1082 3730 
L 1082 -582 
C 1082 -781 992 -864 794 -864 
L 218 -864 
L 218 -1024 
L 1568 -1024 
z
" transform="scale(0.015625)"/>
      </defs>
      <use xlink:href="#NewTXBMI-74" transform="scale(0.996264)"/>
      <use xlink:href="#TeXGyreTermesX-Regular-5b" transform="translate(56.886681 0) scale(0.996264)"/>
      <use xlink:href="#TeXGyreTermesX-Regular-68" transform="translate(90.062291 0) scale(0.996264)"/>
      <use xlink:href="#TeXGyreTermesX-Regular-5d" transform="translate(139.875491 0) scale(0.996264)"/>
     </g>
    </g>
   </g>
   <g id="matplotlib.axis_2">
    <g id="ytick_1">
     <g id="line2d_29">
      <defs>
       <path id="macfd9048bf" d="M 0 0 
L 3.5 0 
" style="stroke: #000000; stroke-width: 0.8"/>
      </defs>
      <g>
       <use xlink:href="#macfd9048bf" x="31.1834" y="207.912005" style="stroke: #000000; stroke-width: 0.8"/>
      </g>
     </g>
     <g id="text_8">
      <!-- $\mathdefault{0.0}$ -->
      <g transform="translate(14.901347 211.331676) scale(0.1 -0.1)">
       <defs>
        <path id="NewTXBMI-93" d="M 1344 473 
C 1344 768 1101 1017 800 1017 
C 493 1017 262 761 262 473 
C 262 173 493 -64 800 -64 
C 1101 -64 1344 166 1344 473 
z
" transform="scale(0.015625)"/>
       </defs>
       <use xlink:href="#TeXGyreTermesX-Bold-30" transform="scale(0.996264)"/>
       <use xlink:href="#NewTXBMI-93" transform="translate(51.407199 0) scale(0.996264)"/>
       <use xlink:href="#TeXGyreTermesX-Bold-30" transform="translate(78.00746 0) scale(0.996264)"/>
      </g>
     </g>
    </g>
    <g id="ytick_2">
     <g id="line2d_30">
      <g>
       <use xlink:href="#macfd9048bf" x="31.1834" y="169.288774" style="stroke: #000000; stroke-width: 0.8"/>
      </g>
     </g>
     <g id="text_9">
      <!-- $\mathdefault{0.2}$ -->
      <g transform="translate(14.901347 172.708445) scale(0.1 -0.1)">
       <use xlink:href="#TeXGyreTermesX-Bold-30" transform="scale(0.996264)"/>
       <use xlink:href="#NewTXBMI-93" transform="translate(51.407199 0) scale(0.996264)"/>
       <use xlink:href="#TeXGyreTermesX-Bold-32" transform="translate(78.00746 0) scale(0.996264)"/>
      </g>
     </g>
    </g>
    <g id="ytick_3">
     <g id="line2d_31">
      <g>
       <use xlink:href="#macfd9048bf" x="31.1834" y="130.665542" style="stroke: #000000; stroke-width: 0.8"/>
      </g>
     </g>
     <g id="text_10">
      <!-- $\mathdefault{0.4}$ -->
      <g transform="translate(14.901347 134.085213) scale(0.1 -0.1)">
       <defs>
        <path id="TeXGyreTermesX-Bold-34" d="M 3040 896 
L 3040 1602 
L 2637 1602 
L 2637 4352 
L 2125 4352 
L 1747 3863 
C 928 2803 506 2219 122 1615 
L 122 896 
L 1709 896 
L 1709 -32 
L 2637 -32 
L 2637 896 
L 3040 896 
z
M 1722 1602 
L 384 1602 
L 1722 3488 
L 1722 1602 
z
" transform="scale(0.015625)"/>
       </defs>
       <use xlink:href="#TeXGyreTermesX-Bold-30" transform="scale(0.996264)"/>
       <use xlink:href="#NewTXBMI-93" transform="translate(51.407199 0) scale(0.996264)"/>
       <use xlink:href="#TeXGyreTermesX-Bold-34" transform="translate(78.00746 0) scale(0.996264)"/>
      </g>
     </g>
    </g>
    <g id="ytick_4">
     <g id="line2d_32">
      <g>
       <use xlink:href="#macfd9048bf" x="31.1834" y="92.042311" style="stroke: #000000; stroke-width: 0.8"/>
      </g>
     </g>
     <g id="text_11">
      <!-- $\mathdefault{0.6}$ -->
      <g transform="translate(14.901347 95.461982) scale(0.1 -0.1)">
       <defs>
        <path id="TeXGyreTermesX-Bold-36" d="M 3040 1427 
C 3040 2193 2573 2688 1843 2688 
C 1638 2688 1498 2663 1306 2580 
C 1542 3515 2074 4030 3008 4221 
L 3008 4387 
C 2157 4266 1760 4126 1274 3796 
C 557 3307 179 2596 179 1752 
C 179 654 768 -64 1664 -64 
C 2458 -64 3040 564 3040 1427 
z
M 2067 1046 
C 2067 298 1990 108 1677 108 
C 1530 108 1414 172 1350 291 
C 1242 501 1178 964 1178 1553 
C 1178 1946 1216 2307 1261 2339 
C 1312 2377 1402 2402 1491 2402 
C 1920 2402 2067 2054 2067 1046 
z
" transform="scale(0.015625)"/>
       </defs>
       <use xlink:href="#TeXGyreTermesX-Bold-30" transform="scale(0.996264)"/>
       <use xlink:href="#NewTXBMI-93" transform="translate(51.407199 0) scale(0.996264)"/>
       <use xlink:href="#TeXGyreTermesX-Bold-36" transform="translate(78.00746 0) scale(0.996264)"/>
      </g>
     </g>
    </g>
    <g id="ytick_5">
     <g id="line2d_33">
      <g>
       <use xlink:href="#macfd9048bf" x="31.1834" y="53.419079" style="stroke: #000000; stroke-width: 0.8"/>
      </g>
     </g>
     <g id="text_12">
      <!-- $\mathdefault{0.8}$ -->
      <g transform="translate(14.901347 56.838751) scale(0.1 -0.1)">
       <defs>
        <path id="TeXGyreTermesX-Bold-38" d="M 3021 1212 
C 3021 1768 2746 2164 2061 2597 
C 2675 2815 2931 3075 2931 3483 
C 2931 4051 2445 4409 1683 4409 
C 819 4409 250 3961 250 3292 
C 250 2814 506 2462 1139 2086 
C 774 1965 627 1881 461 1722 
C 275 1543 179 1301 179 1020 
C 179 370 723 -64 1536 -64 
C 2426 -64 3021 447 3021 1212 
z
M 2170 3439 
C 2170 3139 2118 2993 1907 2712 
C 1370 2986 1075 3337 1075 3694 
C 1075 3994 1306 4224 1606 4224 
C 1965 4224 2170 3937 2170 3439 
z
M 2131 829 
C 2131 402 1920 140 1574 140 
C 1184 140 954 478 954 1046 
C 954 1397 1024 1595 1280 1971 
C 1978 1505 2131 1301 2131 829 
z
" transform="scale(0.015625)"/>
       </defs>
       <use xlink:href="#TeXGyreTermesX-Bold-30" transform="scale(0.996264)"/>
       <use xlink:href="#NewTXBMI-93" transform="translate(51.407199 0) scale(0.996264)"/>
       <use xlink:href="#TeXGyreTermesX-Bold-38" transform="translate(78.00746 0) scale(0.996264)"/>
      </g>
     </g>
    </g>
    <g id="ytick_6">
     <g id="line2d_34">
      <g>
       <use xlink:href="#macfd9048bf" x="31.1834" y="14.795848" style="stroke: #000000; stroke-width: 0.8"/>
      </g>
     </g>
     <g id="text_13">
      <!-- $\mathdefault{1.0}$ -->
      <g transform="translate(14.901347 18.215519) scale(0.1 -0.1)">
       <use xlink:href="#TeXGyreTermesX-Bold-31" transform="scale(0.996264)"/>
       <use xlink:href="#NewTXBMI-93" transform="translate(51.407199 0) scale(0.996264)"/>
       <use xlink:href="#TeXGyreTermesX-Bold-30" transform="translate(78.00746 0) scale(0.996264)"/>
      </g>
     </g>
    </g>
    <g id="ytick_7">
     <g id="line2d_35">
      <defs>
       <path id="mbbedffc3fd" d="M 0 0 
L 2 0 
" style="stroke: #000000; stroke-width: 0.6"/>
      </defs>
      <g>
       <use xlink:href="#mbbedffc3fd" x="31.1834" y="223.361297" style="stroke: #000000; stroke-width: 0.6"/>
      </g>
     </g>
    </g>
    <g id="ytick_8">
     <g id="line2d_36">
      <g>
       <use xlink:href="#mbbedffc3fd" x="31.1834" y="215.636651" style="stroke: #000000; stroke-width: 0.6"/>
      </g>
     </g>
    </g>
    <g id="ytick_9">
     <g id="line2d_37">
      <g>
       <use xlink:href="#mbbedffc3fd" x="31.1834" y="200.187359" style="stroke: #000000; stroke-width: 0.6"/>
      </g>
     </g>
    </g>
    <g id="ytick_10">
     <g id="line2d_38">
      <g>
       <use xlink:href="#mbbedffc3fd" x="31.1834" y="192.462712" style="stroke: #000000; stroke-width: 0.6"/>
      </g>
     </g>
    </g>
    <g id="ytick_11">
     <g id="line2d_39">
      <g>
       <use xlink:href="#mbbedffc3fd" x="31.1834" y="184.738066" style="stroke: #000000; stroke-width: 0.6"/>
      </g>
     </g>
    </g>
    <g id="ytick_12">
     <g id="line2d_40">
      <g>
       <use xlink:href="#mbbedffc3fd" x="31.1834" y="177.01342" style="stroke: #000000; stroke-width: 0.6"/>
      </g>
     </g>
    </g>
    <g id="ytick_13">
     <g id="line2d_41">
      <g>
       <use xlink:href="#mbbedffc3fd" x="31.1834" y="161.564127" style="stroke: #000000; stroke-width: 0.6"/>
      </g>
     </g>
    </g>
    <g id="ytick_14">
     <g id="line2d_42">
      <g>
       <use xlink:href="#mbbedffc3fd" x="31.1834" y="153.839481" style="stroke: #000000; stroke-width: 0.6"/>
      </g>
     </g>
    </g>
    <g id="ytick_15">
     <g id="line2d_43">
      <g>
       <use xlink:href="#mbbedffc3fd" x="31.1834" y="146.114835" style="stroke: #000000; stroke-width: 0.6"/>
      </g>
     </g>
    </g>
    <g id="ytick_16">
     <g id="line2d_44">
      <g>
       <use xlink:href="#mbbedffc3fd" x="31.1834" y="138.390188" style="stroke: #000000; stroke-width: 0.6"/>
      </g>
     </g>
    </g>
    <g id="ytick_17">
     <g id="line2d_45">
      <g>
       <use xlink:href="#mbbedffc3fd" x="31.1834" y="122.940896" style="stroke: #000000; stroke-width: 0.6"/>
      </g>
     </g>
    </g>
    <g id="ytick_18">
     <g id="line2d_46">
      <g>
       <use xlink:href="#mbbedffc3fd" x="31.1834" y="115.21625" style="stroke: #000000; stroke-width: 0.6"/>
      </g>
     </g>
    </g>
    <g id="ytick_19">
     <g id="line2d_47">
      <g>
       <use xlink:href="#mbbedffc3fd" x="31.1834" y="107.491603" style="stroke: #000000; stroke-width: 0.6"/>
      </g>
     </g>
    </g>
    <g id="ytick_20">
     <g id="line2d_48">
      <g>
       <use xlink:href="#mbbedffc3fd" x="31.1834" y="99.766957" style="stroke: #000000; stroke-width: 0.6"/>
      </g>
     </g>
    </g>
    <g id="ytick_21">
     <g id="line2d_49">
      <g>
       <use xlink:href="#mbbedffc3fd" x="31.1834" y="84.317664" style="stroke: #000000; stroke-width: 0.6"/>
      </g>
     </g>
    </g>
    <g id="ytick_22">
     <g id="line2d_50">
      <g>
       <use xlink:href="#mbbedffc3fd" x="31.1834" y="76.593018" style="stroke: #000000; stroke-width: 0.6"/>
      </g>
     </g>
    </g>
    <g id="ytick_23">
     <g id="line2d_51">
      <g>
       <use xlink:href="#mbbedffc3fd" x="31.1834" y="68.868372" style="stroke: #000000; stroke-width: 0.6"/>
      </g>
     </g>
    </g>
    <g id="ytick_24">
     <g id="line2d_52">
      <g>
       <use xlink:href="#mbbedffc3fd" x="31.1834" y="61.143726" style="stroke: #000000; stroke-width: 0.6"/>
      </g>
     </g>
    </g>
    <g id="ytick_25">
     <g id="line2d_53">
      <g>
       <use xlink:href="#mbbedffc3fd" x="31.1834" y="45.694433" style="stroke: #000000; stroke-width: 0.6"/>
      </g>
     </g>
    </g>
    <g id="ytick_26">
     <g id="line2d_54">
      <g>
       <use xlink:href="#mbbedffc3fd" x="31.1834" y="37.969787" style="stroke: #000000; stroke-width: 0.6"/>
      </g>
     </g>
    </g>
    <g id="ytick_27">
     <g id="line2d_55">
      <g>
       <use xlink:href="#mbbedffc3fd" x="31.1834" y="30.245141" style="stroke: #000000; stroke-width: 0.6"/>
      </g>
     </g>
    </g>
    <g id="ytick_28">
     <g id="line2d_56">
      <g>
       <use xlink:href="#mbbedffc3fd" x="31.1834" y="22.520494" style="stroke: #000000; stroke-width: 0.6"/>
      </g>
     </g>
    </g>
    <g id="ytick_29">
     <g id="line2d_57">
      <g>
       <use xlink:href="#mbbedffc3fd" x="31.1834" y="7.071202" style="stroke: #000000; stroke-width: 0.6"/>
      </g>
     </g>
    </g>
    <g id="text_14">
     <!-- $X$ -->
     <g transform="translate(8.523271 116.88694) rotate(-90) scale(0.11 -0.11)">
      <defs>
       <path id="NewTXBMI-5e" d="M 3750 0 
L 3750 160 
C 3290 211 3194 301 3008 903 
L 2534 2423 
L 3808 3737 
C 4090 4019 4211 4096 4442 4128 
L 4442 4288 
L 3142 4288 
L 3142 4128 
L 3283 4115 
C 3430 4102 3494 4057 3494 3961 
C 3494 3846 3379 3685 3046 3333 
L 2445 2698 
C 2381 2910 2362 2986 2336 3050 
C 2189 3506 2118 3782 2118 3878 
C 2118 4025 2189 4083 2400 4108 
L 2592 4128 
L 2592 4288 
L 640 4288 
L 640 4128 
C 1024 4089 1120 4019 1222 3723 
L 1760 1981 
L 1325 1506 
C 314 390 122 211 -154 160 
L -154 0 
L 1216 0 
L 1216 160 
C 928 186 800 269 800 416 
C 800 499 845 583 992 743 
L 1850 1692 
L 1971 1308 
C 2144 814 2214 545 2214 403 
C 2214 237 2125 192 1779 160 
L 1779 0 
L 3750 0 
z
" transform="scale(0.015625)"/>
      </defs>
      <use xlink:href="#NewTXBMI-5e" transform="scale(0.996264)"/>
     </g>
    </g>
   </g>
   <g id="LineCollection_1">
    <path d="M 44.991971 210.705419 
L 44.991971 204.720002 
" clip-path="url(#p52d46ff458)" style="fill: none; stroke: #000000; stroke-width: 1.5"/>
    <path d="M 71.656798 213.298509 
L 71.656798 202.525501 
" clip-path="url(#p52d46ff458)" style="fill: none; stroke: #000000; stroke-width: 1.5"/>
    <path d="M 87.438022 215.093187 
L 87.438022 201.528 
" clip-path="url(#p52d46ff458)" style="fill: none; stroke: #000000; stroke-width: 1.5"/>
    <path d="M 98.049535 215.293099 
L 98.049535 200.929499 
" clip-path="url(#p52d46ff458)" style="fill: none; stroke: #000000; stroke-width: 1.5"/>
    <path d="M 103.491336 212.698774 
L 103.491336 204.321002 
" clip-path="url(#p52d46ff458)" style="fill: none; stroke: #000000; stroke-width: 1.5"/>
    <path d="M 119.54465 210.51086 
L 119.54465 200.131499 
" clip-path="url(#p52d46ff458)" style="fill: none; stroke: #000000; stroke-width: 1.5"/>
    <path d="M 129.884073 205.538179 
L 129.884073 190.754991 
" clip-path="url(#p52d46ff458)" style="fill: none; stroke: #000000; stroke-width: 1.5"/>
    <path d="M 135.325875 198.567203 
L 135.325875 186.565488 
" clip-path="url(#p52d46ff458)" style="fill: none; stroke: #000000; stroke-width: 1.5"/>
    <path d="M 140.495586 200.170205 
L 140.495586 178.186481 
" clip-path="url(#p52d46ff458)" style="fill: none; stroke: #000000; stroke-width: 1.5"/>
    <path d="M 151.379189 185.62934 
L 151.379189 170.804975 
" clip-path="url(#p52d46ff458)" style="fill: none; stroke: #000000; stroke-width: 1.5"/>
    <path d="M 161.718611 166.718413 
L 161.718611 149.458457 
" clip-path="url(#p52d46ff458)" style="fill: none; stroke: #000000; stroke-width: 1.5"/>
    <path d="M 182.941637 134.082327 
L 182.941637 102.775419 
" clip-path="url(#p52d46ff458)" style="fill: none; stroke: #000000; stroke-width: 1.5"/>
    <path d="M 203.620482 96.244002 
L 203.620482 76.042398 
" clip-path="url(#p52d46ff458)" style="fill: none; stroke: #000000; stroke-width: 1.5"/>
    <path d="M 256.405955 43.685489 
L 256.405955 22.576354 
" clip-path="url(#p52d46ff458)" style="fill: none; stroke: #000000; stroke-width: 1.5"/>
    <path d="M 309.735609 18.785851 
L 309.735609 11.204433 
" clip-path="url(#p52d46ff458)" style="fill: none; stroke: #000000; stroke-width: 1.5"/>
   </g>
   <g id="line2d_58">
    <defs>
     <path id="mb3d41594fb" d="M 2 0 
L -2 -0 
" style="stroke: #000000"/>
    </defs>
    <g clip-path="url(#p52d46ff458)">
     <use xlink:href="#mb3d41594fb" x="44.991971" y="210.705419" style="stroke: #000000"/>
     <use xlink:href="#mb3d41594fb" x="71.656798" y="213.298509" style="stroke: #000000"/>
     <use xlink:href="#mb3d41594fb" x="87.438022" y="215.093187" style="stroke: #000000"/>
     <use xlink:href="#mb3d41594fb" x="98.049535" y="215.293099" style="stroke: #000000"/>
     <use xlink:href="#mb3d41594fb" x="103.491336" y="212.698774" style="stroke: #000000"/>
     <use xlink:href="#mb3d41594fb" x="119.54465" y="210.51086" style="stroke: #000000"/>
     <use xlink:href="#mb3d41594fb" x="129.884073" y="205.538179" style="stroke: #000000"/>
     <use xlink:href="#mb3d41594fb" x="135.325875" y="198.567203" style="stroke: #000000"/>
     <use xlink:href="#mb3d41594fb" x="140.495586" y="200.170205" style="stroke: #000000"/>
     <use xlink:href="#mb3d41594fb" x="151.379189" y="185.62934" style="stroke: #000000"/>
     <use xlink:href="#mb3d41594fb" x="161.718611" y="166.718413" style="stroke: #000000"/>
     <use xlink:href="#mb3d41594fb" x="182.941637" y="134.082327" style="stroke: #000000"/>
     <use xlink:href="#mb3d41594fb" x="203.620482" y="96.244002" style="stroke: #000000"/>
     <use xlink:href="#mb3d41594fb" x="256.405955" y="43.685489" style="stroke: #000000"/>
     <use xlink:href="#mb3d41594fb" x="309.735609" y="18.785851" style="stroke: #000000"/>
    </g>
   </g>
   <g id="line2d_59">
    <g clip-path="url(#p52d46ff458)">
     <use xlink:href="#mb3d41594fb" x="44.991971" y="204.720002" style="stroke: #000000"/>
     <use xlink:href="#mb3d41594fb" x="71.656798" y="202.525501" style="stroke: #000000"/>
     <use xlink:href="#mb3d41594fb" x="87.438022" y="201.528" style="stroke: #000000"/>
     <use xlink:href="#mb3d41594fb" x="98.049535" y="200.929499" style="stroke: #000000"/>
     <use xlink:href="#mb3d41594fb" x="103.491336" y="204.321002" style="stroke: #000000"/>
     <use xlink:href="#mb3d41594fb" x="119.54465" y="200.131499" style="stroke: #000000"/>
     <use xlink:href="#mb3d41594fb" x="129.884073" y="190.754991" style="stroke: #000000"/>
     <use xlink:href="#mb3d41594fb" x="135.325875" y="186.565488" style="stroke: #000000"/>
     <use xlink:href="#mb3d41594fb" x="140.495586" y="178.186481" style="stroke: #000000"/>
     <use xlink:href="#mb3d41594fb" x="151.379189" y="170.804975" style="stroke: #000000"/>
     <use xlink:href="#mb3d41594fb" x="161.718611" y="149.458457" style="stroke: #000000"/>
     <use xlink:href="#mb3d41594fb" x="182.941637" y="102.775419" style="stroke: #000000"/>
     <use xlink:href="#mb3d41594fb" x="203.620482" y="76.042398" style="stroke: #000000"/>
     <use xlink:href="#mb3d41594fb" x="256.405955" y="22.576354" style="stroke: #000000"/>
     <use xlink:href="#mb3d41594fb" x="309.735609" y="11.204433" style="stroke: #000000"/>
    </g>
   </g>
   <g id="line2d_60">
    <path d="M 44.447791 207.665557 
L 63.302081 207.352146 
L 76.314196 206.926771 
L 86.405224 206.386482 
L 94.637378 205.735101 
L 101.807319 204.948339 
L 107.915047 204.061946 
L 113.491668 203.02886 
L 118.537182 201.864772 
L 123.051589 200.598911 
L 127.300443 199.177656 
L 131.283744 197.609198 
L 135.001491 195.908641 
L 138.453685 194.098092 
L 141.905879 192.038381 
L 145.092519 189.892828 
L 148.279159 187.490685 
L 151.4658 184.810562 
L 154.65244 181.831816 
L 157.839081 178.535349 
L 161.025721 174.904554 
L 164.212362 170.926376 
L 167.399002 166.592469 
L 170.585643 161.900383 
L 174.037836 156.418595 
L 177.755584 150.070346 
L 181.738884 142.797716 
L 186.253291 134.04941 
L 191.564359 123.240028 
L 210.418648 84.346779 
L 214.667502 76.332197 
L 218.650803 69.289061 
L 222.36855 63.176875 
L 225.820744 57.925515 
L 229.272938 53.093325 
L 232.459578 49.004961 
L 235.646219 45.26714 
L 238.832859 41.868149 
L 242.019499 38.792367 
L 245.20614 36.021366 
L 248.39278 33.534891 
L 251.579421 31.311708 
L 255.031615 29.175423 
L 258.483808 27.295903 
L 262.201556 25.529149 
L 266.184856 23.898417 
L 270.168157 22.504973 
L 274.417011 21.244708 
L 279.196971 20.064481 
L 284.242485 19.046867 
L 289.819106 18.145135 
L 296.192387 17.343192 
L 303.362328 16.665863 
L 309.735609 16.215462 
L 309.735609 16.215462 
" clip-path="url(#p52d46ff458)" style="fill: none; stroke: #000000; stroke-linecap: square"/>
   </g>
   <g id="line2d_61">
    <path d="M 44.447791 182.401798 
L 309.735609 182.401798 
L 309.735609 182.401798 
" clip-path="url(#p52d46ff458)" style="fill: none; stroke-dasharray: 3.7,1.6; stroke-dashoffset: 0; stroke: #000000"/>
   </g>
   <g id="LineCollection_2">
    <path d="M 44.866772 210.164685 
L 44.866772 205.659324 
" clip-path="url(#p52d46ff458)" style="fill: none; stroke: #000000; stroke-width: 1.5"/>
    <path d="M 55.341298 210.368608 
L 55.341298 205.864114 
" clip-path="url(#p52d46ff458)" style="fill: none; stroke: #000000; stroke-width: 1.5"/>
    <path d="M 60.578561 213.234789 
L 60.578561 203.406644 
" clip-path="url(#p52d46ff458)" style="fill: none; stroke: #000000; stroke-width: 1.5"/>
    <path d="M 66.025314 213.234789 
L 66.025314 203.406644 
" clip-path="url(#p52d46ff458)" style="fill: none; stroke: #000000; stroke-width: 1.5"/>
    <path d="M 71.262577 214.257868 
L 71.262577 202.792276 
" clip-path="url(#p52d46ff458)" style="fill: none; stroke: #000000; stroke-width: 1.5"/>
    <path d="M 76.709331 213.035201 
L 76.709331 201.153963 
" clip-path="url(#p52d46ff458)" style="fill: none; stroke: #000000; stroke-width: 1.5"/>
    <path d="M 87.183856 192.437314 
L 87.183856 181.289417 
" clip-path="url(#p52d46ff458)" style="fill: none; stroke: #000000; stroke-width: 1.5"/>
    <path d="M 97.239401 169.019189 
L 97.239401 142.174692 
" clip-path="url(#p52d46ff458)" style="fill: none; stroke: #000000; stroke-width: 1.5"/>
    <path d="M 102.895645 149.230057 
L 102.895645 126.405928 
" clip-path="url(#p52d46ff458)" style="fill: none; stroke: #000000; stroke-width: 1.5"/>
    <path d="M 108.342398 131.292695 
L 108.342398 104.698279 
" clip-path="url(#p52d46ff458)" style="fill: none; stroke: #000000; stroke-width: 1.5"/>
    <path d="M 124.054187 84.158904 
L 124.054187 70.498493 
" clip-path="url(#p52d46ff458)" style="fill: none; stroke: #000000; stroke-width: 1.5"/>
    <path d="M 139.765975 33.778826 
L 139.765975 25.240094 
" clip-path="url(#p52d46ff458)" style="fill: none; stroke: #000000; stroke-width: 1.5"/>
    <path d="M 171.608534 18.476851 
L 171.608534 13.567113 
" clip-path="url(#p52d46ff458)" style="fill: none; stroke: #000000; stroke-width: 1.5"/>
    <path d="M 234.874669 17.866818 
L 234.874669 12.133589 
" clip-path="url(#p52d46ff458)" style="fill: none; stroke: #000000; stroke-width: 1.5"/>
   </g>
   <g id="line2d_62">
    <g clip-path="url(#p52d46ff458)">
     <use xlink:href="#mb3d41594fb" x="44.866772" y="210.164685" style="stroke: #000000"/>
     <use xlink:href="#mb3d41594fb" x="55.341298" y="210.368608" style="stroke: #000000"/>
     <use xlink:href="#mb3d41594fb" x="60.578561" y="213.234789" style="stroke: #000000"/>
     <use xlink:href="#mb3d41594fb" x="66.025314" y="213.234789" style="stroke: #000000"/>
     <use xlink:href="#mb3d41594fb" x="71.262577" y="214.257868" style="stroke: #000000"/>
     <use xlink:href="#mb3d41594fb" x="76.709331" y="213.035201" style="stroke: #000000"/>
     <use xlink:href="#mb3d41594fb" x="87.183856" y="192.437314" style="stroke: #000000"/>
     <use xlink:href="#mb3d41594fb" x="97.239401" y="169.019189" style="stroke: #000000"/>
     <use xlink:href="#mb3d41594fb" x="102.895645" y="149.230057" style="stroke: #000000"/>
     <use xlink:href="#mb3d41594fb" x="108.342398" y="131.292695" style="stroke: #000000"/>
     <use xlink:href="#mb3d41594fb" x="124.054187" y="84.158904" style="stroke: #000000"/>
     <use xlink:href="#mb3d41594fb" x="139.765975" y="33.778826" style="stroke: #000000"/>
     <use xlink:href="#mb3d41594fb" x="171.608534" y="18.476851" style="stroke: #000000"/>
     <use xlink:href="#mb3d41594fb" x="234.874669" y="17.866818" style="stroke: #000000"/>
    </g>
   </g>
   <g id="line2d_63">
    <g clip-path="url(#p52d46ff458)">
     <use xlink:href="#mb3d41594fb" x="44.866772" y="205.659324" style="stroke: #000000"/>
     <use xlink:href="#mb3d41594fb" x="55.341298" y="205.864114" style="stroke: #000000"/>
     <use xlink:href="#mb3d41594fb" x="60.578561" y="203.406644" style="stroke: #000000"/>
     <use xlink:href="#mb3d41594fb" x="66.025314" y="203.406644" style="stroke: #000000"/>
     <use xlink:href="#mb3d41594fb" x="71.262577" y="202.792276" style="stroke: #000000"/>
     <use xlink:href="#mb3d41594fb" x="76.709331" y="201.153963" style="stroke: #000000"/>
     <use xlink:href="#mb3d41594fb" x="87.183856" y="181.289417" style="stroke: #000000"/>
     <use xlink:href="#mb3d41594fb" x="97.239401" y="142.174692" style="stroke: #000000"/>
     <use xlink:href="#mb3d41594fb" x="102.895645" y="126.405928" style="stroke: #000000"/>
     <use xlink:href="#mb3d41594fb" x="108.342398" y="104.698279" style="stroke: #000000"/>
     <use xlink:href="#mb3d41594fb" x="124.054187" y="70.498493" style="stroke: #000000"/>
     <use xlink:href="#mb3d41594fb" x="139.765975" y="25.240094" style="stroke: #000000"/>
     <use xlink:href="#mb3d41594fb" x="171.608534" y="13.567113" style="stroke: #000000"/>
     <use xlink:href="#mb3d41594fb" x="234.874669" y="12.133589" style="stroke: #000000"/>
    </g>
   </g>
   <g id="line2d_64">
    <path d="M 44.447791 207.48406 
L 50.928786 207.094234 
L 55.694223 206.59693 
L 59.506573 205.990988 
L 62.747071 205.263883 
L 65.606333 204.400995 
L 68.084361 203.434026 
L 70.371771 202.313558 
L 72.468563 201.050681 
L 74.565356 199.515684 
L 76.47153 197.840159 
L 78.377705 195.852104 
L 80.093263 193.755231 
L 81.80882 191.327167 
L 83.524378 188.527768 
L 85.239935 185.316332 
L 86.955493 181.653266 
L 88.67105 177.502268 
L 90.577225 172.281209 
L 92.4834 166.392489 
L 94.580193 159.134427 
L 96.867602 150.313938 
L 99.34563 139.801829 
L 102.39551 125.802438 
L 112.498237 78.399954 
L 114.976264 68.285722 
L 117.263674 59.885036 
L 119.360467 53.030421 
L 121.266642 47.507074 
L 123.172817 42.638191 
L 125.078992 38.387429 
L 126.985167 34.707455 
L 128.891342 31.544794 
L 130.797517 28.843732 
L 132.703692 26.549236 
L 134.609866 24.60897 
L 136.516041 22.974562 
L 138.612834 21.477909 
L 140.709626 20.247061 
L 142.997036 19.155375 
L 145.475064 18.21352 
L 148.334326 17.37326 
L 151.574824 16.66538 
L 155.387173 16.075569 
L 159.961993 15.606864 
L 165.680518 15.253878 
L 173.686453 15.001417 
L 186.267208 14.854144 
L 214.859832 14.799168 
L 234.874669 14.796295 
L 234.874669 14.796295 
" clip-path="url(#p52d46ff458)" style="fill: none; stroke: #000000; stroke-linecap: square"/>
   </g>
   <g id="line2d_65">
    <path d="M 44.447791 160.113352 
L 234.874669 160.113352 
L 234.874669 160.113352 
" clip-path="url(#p52d46ff458)" style="fill: none; stroke-dasharray: 3.7,1.6; stroke-dashoffset: 0; stroke: #000000"/>
   </g>
   <g id="patch_3">
    <path d="M 31.1834 225.497532 
L 31.1834 1 
" style="fill: none; stroke: #000000; stroke-width: 0.8; stroke-linejoin: miter; stroke-linecap: square"/>
   </g>
   <g id="patch_4">
    <path d="M 323 225.497532 
L 323 1 
" style="fill: none; stroke: #000000; stroke-width: 0.8; stroke-linejoin: miter; stroke-linecap: square"/>
   </g>
   <g id="patch_5">
    <path d="M 31.1834 225.497532 
L 323 225.497532 
" style="fill: none; stroke: #000000; stroke-width: 0.8; stroke-linejoin: miter; stroke-linecap: square"/>
   </g>
   <g id="patch_6">
    <path d="M 31.1834 1 
L 323 1 
" style="fill: none; stroke: #000000; stroke-width: 0.8; stroke-linejoin: miter; stroke-linecap: square"/>
   </g>
   <g id="legend_1">
    <g id="patch_7">
     <path d="M 38.8834 146.065878 
L 177.502524 146.065878 
Q 179.702524 146.065878 179.702524 143.865878 
L 179.702524 82.631654 
Q 179.702524 80.431654 177.502524 80.431654 
L 38.8834 80.431654 
Q 36.6834 80.431654 36.6834 82.631654 
L 36.6834 143.865878 
Q 36.6834 146.065878 38.8834 146.065878 
z
" style="fill: #ffffff; opacity: 0.8; stroke: #cccccc; stroke-linejoin: miter"/>
    </g>
    <g id="PathCollection_1">
     <defs>
      <path id="ma7d208683c" d="M 0 -3.162278 
L -2.738613 -1.581139 
L -2.738613 1.581139 
L -0 3.162278 
L 2.738613 1.581139 
L 2.738613 -1.581139 
z
" style="stroke: #000000"/>
     </defs>
     <g>
      <use xlink:href="#ma7d208683c" x="52.0834" y="89.644154" style="fill: #d95f02; stroke: #000000"/>
     </g>
    </g>
    <g id="text_15">
     <!-- $1200 ^\circ C$ -->
     <g transform="translate(71.8834 92.531654) scale(0.11 -0.11)">
      <defs>
       <path id="txbsys-e" d="M 2955 1640 
C 2955 2347 2386 2915 1676 2915 
C 960 2915 397 2347 397 1640 
C 397 926 960 365 1676 365 
C 2386 365 2955 926 2955 1640 
z
M 2482 1640 
C 2482 1188 2117 838 1676 838 
C 1222 838 870 1188 870 1640 
C 870 2078 1222 2441 1676 2441 
C 2117 2441 2482 2078 2482 1640 
z
" transform="scale(0.015625)"/>
       <path id="NewTXBMI-49" d="M 3686 828 
L 3494 969 
C 3174 590 2995 442 2726 326 
C 2547 249 2349 211 2150 211 
C 1549 211 1190 628 1190 1329 
C 1190 2253 1638 3344 2214 3852 
C 2451 4051 2714 4160 2982 4160 
C 3501 4160 3821 3775 3821 3146 
C 3821 3062 3814 3004 3802 2921 
L 4006 2882 
L 4333 4384 
L 4141 4384 
C 4051 4243 3994 4198 3898 4198 
C 3846 4198 3750 4218 3654 4250 
C 3366 4339 3078 4384 2816 4384 
C 1389 4384 205 3094 205 1534 
C 205 539 902 -128 1946 -128 
C 2400 -128 2822 13 3187 289 
C 3373 431 3482 546 3686 828 
z
" transform="scale(0.015625)"/>
      </defs>
      <use xlink:href="#TeXGyreTermesX-Bold-31" transform="scale(0.996264)"/>
      <use xlink:href="#TeXGyreTermesX-Bold-32" transform="translate(49.8132 0) scale(0.996264)"/>
      <use xlink:href="#TeXGyreTermesX-Bold-30" transform="translate(99.626401 0) scale(0.996264)"/>
      <use xlink:href="#TeXGyreTermesX-Bold-30" transform="translate(149.439601 0) scale(0.996264)"/>
      <use xlink:href="#txbsys-e" transform="translate(199.252802 36.164371) scale(0.727268)"/>
      <use xlink:href="#NewTXBMI-49" transform="translate(238.25828 0) scale(0.996264)"/>
     </g>
    </g>
    <g id="line2d_66">
     <path d="M 41.0834 104.25973 
L 52.0834 104.25973 
L 63.0834 104.25973 
" style="fill: none; stroke: #000000; stroke-linecap: square"/>
    </g>
    <g id="text_16">
     <!-- Ordinary Least Squares -->
     <g transform="translate(71.8834 108.10973) scale(0.11 -0.11)">
      <defs>
       <path id="TeXGyreTermesX-Regular-4f" d="M 4403 2119 
C 4403 2752 4218 3296 3866 3680 
C 3462 4122 2925 4352 2310 4352 
C 1088 4352 218 3431 218 2144 
C 218 1543 422 960 768 589 
C 1139 186 1709 -64 2272 -64 
C 3533 -64 4403 832 4403 2119 
z
M 3674 2125 
C 3674 1748 3590 1306 3462 973 
C 3405 813 3296 653 3149 506 
C 2925 282 2637 167 2298 167 
C 2003 167 1715 282 1491 480 
C 1158 775 947 1421 947 2132 
C 947 2784 1126 3405 1395 3706 
C 1645 3981 1958 4122 2310 4122 
C 2605 4122 2899 4007 3130 3802 
C 3475 3488 3674 2887 3674 2125 
z
" transform="scale(0.015625)"/>
       <path id="TeXGyreTermesX-Regular-72" d="M 2144 2605 
C 2144 2816 2010 2944 1792 2944 
C 1523 2944 1338 2797 1024 2343 
L 1024 2931 
L 992 2944 
C 653 2803 422 2721 45 2599 
L 45 2496 
C 134 2515 192 2522 269 2522 
C 429 2522 486 2419 486 2138 
L 486 538 
C 486 218 442 173 32 96 
L 32 0 
L 1568 0 
L 1568 102 
C 1133 102 1024 199 1024 565 
L 1024 2013 
C 1024 2219 1299 2541 1472 2541 
C 1510 2541 1568 2509 1638 2445 
C 1741 2355 1811 2317 1894 2317 
C 2048 2317 2144 2426 2144 2605 
z
" transform="scale(0.015625)"/>
       <path id="TeXGyreTermesX-Regular-64" d="M 3142 269 
L 3142 365 
C 3027 365 3014 365 2995 365 
C 2765 365 2714 435 2714 731 
L 2714 4364 
L 2682 4377 
C 2374 4268 2150 4204 1741 4096 
L 1741 3994 
C 1792 4000 1830 4000 1882 4000 
C 2118 4000 2176 3936 2176 3672 
L 2176 2669 
C 1933 2874 1760 2944 1504 2944 
C 768 2944 173 2221 173 1312 
C 173 493 653 -64 1357 -64 
C 1715 -64 1958 64 2176 365 
L 2176 -45 
L 2202 -64 
L 3142 269 
z
M 2176 653 
C 2176 608 2131 531 2067 461 
C 1952 333 1792 269 1606 269 
C 1075 269 723 781 723 1568 
C 723 2291 1037 2765 1523 2765 
C 1862 2765 2176 2464 2176 2125 
L 2176 653 
z
" transform="scale(0.015625)"/>
       <path id="TeXGyreTermesX-Regular-69" d="M 1619 0 
L 1619 96 
C 1197 128 1146 191 1146 650 
L 1146 2910 
L 1120 2929 
L 128 2579 
L 128 2484 
L 179 2490 
C 256 2502 339 2509 397 2509 
C 550 2509 608 2406 608 2125 
L 608 640 
C 608 179 544 109 102 109 
L 102 0 
L 1619 0 
z
M 1203 4026 
C 1203 4205 1062 4352 877 4352 
C 698 4352 550 4205 550 4026 
C 550 3840 698 3699 877 3699 
C 1062 3699 1203 3840 1203 4026 
z
" transform="scale(0.015625)"/>
       <path id="TeXGyreTermesX-Regular-6e" d="M 3104 32 
L 3104 128 
C 2790 160 2714 237 2714 550 
L 2714 2016 
C 2714 2618 2432 2976 1958 2976 
C 1664 2976 1466 2867 1030 2458 
L 1030 2963 
L 986 2976 
C 672 2861 454 2790 102 2688 
L 102 2579 
C 141 2598 205 2605 275 2605 
C 454 2605 512 2509 512 2195 
L 512 608 
C 512 243 442 154 115 128 
L 115 32 
L 1472 32 
L 1472 128 
C 1146 154 1050 230 1050 461 
L 1050 2259 
C 1357 2547 1498 2624 1709 2624 
C 2022 2624 2176 2426 2176 2003 
L 2176 666 
C 2176 262 2093 154 1773 128 
L 1773 32 
L 3104 32 
z
" transform="scale(0.015625)"/>
       <path id="TeXGyreTermesX-Regular-61" d="M 2829 256 
L 2829 423 
C 2720 333 2643 301 2547 301 
C 2400 301 2355 390 2355 672 
L 2355 1920 
C 2355 2246 2323 2426 2234 2573 
C 2099 2816 1824 2944 1434 2944 
C 1107 2944 800 2854 621 2707 
C 461 2573 358 2387 358 2227 
C 358 2080 480 1952 634 1952 
C 787 1952 922 2080 922 2221 
C 922 2246 915 2278 909 2323 
C 896 2381 890 2432 890 2477 
C 890 2650 1094 2790 1350 2790 
C 1664 2790 1837 2605 1837 2259 
L 1837 1869 
C 851 1472 742 1421 467 1178 
C 326 1050 237 832 237 621 
C 237 218 512 -64 909 -64 
C 1190 -64 1453 70 1843 403 
C 1875 64 1990 -64 2253 -64 
C 2470 -64 2605 13 2829 256 
z
M 1837 783 
C 1837 584 1805 526 1670 443 
C 1517 352 1338 301 1203 301 
C 979 301 800 520 800 796 
L 800 822 
C 800 1201 1062 1433 1837 1715 
L 1837 783 
z
" transform="scale(0.015625)"/>
       <path id="TeXGyreTermesX-Regular-79" d="M 3040 2784 
L 3040 2880 
L 2176 2880 
L 2176 2784 
C 2381 2784 2483 2726 2483 2623 
C 2483 2597 2477 2559 2458 2514 
L 1837 742 
L 1101 2377 
C 1062 2468 1037 2552 1037 2622 
C 1037 2739 1133 2784 1408 2784 
L 1408 2880 
L 90 2880 
L 90 2790 
C 256 2765 365 2694 416 2585 
L 1472 349 
C 1517 241 1542 164 1542 112 
C 1542 16 1395 -389 1286 -582 
C 1197 -749 1056 -871 966 -871 
C 928 -871 870 -858 806 -826 
C 685 -781 576 -755 467 -755 
C 320 -755 192 -883 192 -1037 
C 192 -1248 397 -1408 666 -1408 
C 1094 -1408 1402 -1049 1747 -124 
L 2733 2495 
C 2816 2701 2886 2765 3040 2784 
z
" transform="scale(0.015625)"/>
       <path id="TeXGyreTermesX-Regular-4c" d="M 3827 1114 
L 3667 1114 
C 3565 890 3482 742 3392 640 
C 3168 371 2816 250 2266 250 
L 1837 250 
C 1370 250 1286 288 1286 513 
L 1286 3550 
C 1286 4007 1376 4096 1882 4096 
L 1882 4237 
L 77 4237 
L 77 4115 
C 550 4077 634 3993 634 3536 
L 634 681 
C 634 223 544 134 77 134 
L 77 0 
L 3520 0 
L 3827 1114 
z
" transform="scale(0.015625)"/>
       <path id="TeXGyreTermesX-Regular-65" d="M 2714 1008 
L 2611 1053 
C 2304 564 2029 378 1619 378 
C 1267 378 998 545 813 892 
C 685 1142 634 1367 621 1779 
L 2592 1779 
C 2541 2193 2477 2377 2317 2581 
C 2125 2811 1830 2944 1498 2944 
C 704 2944 160 2304 160 1370 
C 160 486 621 -64 1357 -64 
C 1971 -64 2445 315 2714 1008 
z
M 1939 1984 
L 634 1984 
C 704 2485 922 2714 1312 2714 
C 1702 2714 1856 2535 1939 1984 
z
" transform="scale(0.015625)"/>
       <path id="TeXGyreTermesX-Regular-73" d="M 2227 757 
C 2227 1077 2080 1289 1690 1520 
L 998 1930 
C 819 2033 723 2194 723 2367 
C 723 2630 922 2803 1216 2803 
C 1581 2803 1773 2590 1920 2010 
L 2016 2010 
L 1990 2880 
L 1920 2880 
L 1907 2867 
C 1850 2822 1843 2816 1818 2816 
C 1779 2816 1715 2829 1645 2861 
C 1510 2915 1363 2944 1210 2944 
C 685 2944 326 2623 326 2154 
C 326 1796 531 1545 1075 1231 
L 1446 1020 
C 1670 892 1779 737 1779 539 
C 1779 256 1574 77 1248 77 
C 806 77 582 316 435 960 
L 333 960 
L 333 -39 
L 416 -39 
C 461 33 486 48 563 48 
C 634 48 704 35 858 -2 
C 1037 -39 1197 -64 1331 -64 
C 1818 -64 2227 308 2227 757 
z
" transform="scale(0.015625)"/>
       <path id="TeXGyreTermesX-Regular-74" d="M 1786 422 
L 1702 493 
C 1562 326 1459 269 1318 269 
C 1082 269 986 435 986 845 
L 986 2675 
L 1632 2675 
L 1632 2880 
L 986 2880 
L 986 3622 
C 986 3686 973 3706 941 3706 
C 902 3642 858 3584 813 3526 
C 576 3174 358 2938 192 2836 
C 122 2785 83 2740 83 2697 
C 83 2675 90 2675 109 2675 
L 448 2675 
L 448 749 
C 448 211 640 -64 1011 -64 
C 1331 -64 1574 90 1786 422 
z
" transform="scale(0.015625)"/>
       <path id="TeXGyreTermesX-Regular-53" d="M 3142 1101 
C 3142 1632 2790 2042 1946 2503 
C 1274 2868 1005 3149 1005 3501 
C 1005 3853 1274 4090 1670 4090 
C 1958 4090 2227 3968 2451 3738 
C 2650 3533 2739 3367 2842 2989 
L 3002 2989 
L 2861 4352 
L 2726 4352 
C 2701 4212 2630 4135 2522 4135 
C 2458 4135 2355 4160 2240 4212 
C 2003 4301 1773 4352 1549 4352 
C 1299 4352 1030 4250 826 4084 
C 576 3878 454 3603 454 3250 
C 454 2743 736 2385 1453 2006 
C 1914 1756 2246 1499 2406 1256 
C 2464 1167 2496 1038 2496 878 
C 2496 454 2176 160 1709 160 
C 1133 160 736 513 416 1296 
L 269 1296 
L 461 -64 
L 602 -64 
C 608 57 685 147 781 147 
C 851 147 960 122 1082 79 
C 1325 -14 1581 -64 1837 -64 
C 2579 -64 3142 442 3142 1101 
z
" transform="scale(0.015625)"/>
       <path id="TeXGyreTermesX-Regular-71" d="M 3123 -1408 
L 3123 -1318 
C 2771 -1241 2720 -1190 2720 -921 
L 2720 2906 
L 2650 2906 
L 2304 2701 
C 2010 2874 1818 2931 1568 2931 
C 768 2931 154 2218 154 1300 
C 154 498 576 -70 1178 -70 
C 1549 -70 1901 96 2182 403 
L 2182 -824 
C 2182 -1188 2067 -1286 1613 -1286 
L 1613 -1408 
L 3123 -1408 
z
M 2182 804 
C 2182 651 2157 569 2093 518 
C 1952 397 1741 320 1542 320 
C 1344 320 1171 384 1043 511 
C 838 696 704 1110 704 1530 
C 704 2282 1043 2752 1587 2752 
C 1984 2752 2182 2542 2182 2115 
L 2182 804 
z
" transform="scale(0.015625)"/>
       <path id="TeXGyreTermesX-Regular-75" d="M 3066 230 
L 3066 320 
L 3034 320 
C 2739 320 2669 390 2669 685 
L 2669 2880 
L 1658 2880 
L 1658 2758 
C 2054 2758 2131 2694 2131 2375 
L 2131 875 
C 2131 703 2099 607 2022 550 
C 1843 397 1645 320 1446 320 
C 1197 320 992 537 992 805 
L 992 2880 
L 58 2880 
L 58 2778 
C 365 2778 454 2682 454 2387 
L 454 770 
C 454 263 762 -64 1229 -64 
C 1466 -64 1715 38 1888 211 
L 2163 486 
L 2163 -45 
L 2189 -58 
C 2509 70 2739 141 3066 230 
z
" transform="scale(0.015625)"/>
      </defs>
      <use xlink:href="#TeXGyreTermesX-Regular-4f" transform="scale(0.996264)"/>
      <use xlink:href="#TeXGyreTermesX-Regular-72" transform="translate(71.930274 0) scale(0.996264)"/>
      <use xlink:href="#TeXGyreTermesX-Regular-64" transform="translate(105.105883 0) scale(0.996264)"/>
      <use xlink:href="#TeXGyreTermesX-Regular-69" transform="translate(154.919084 0) scale(0.996264)"/>
      <use xlink:href="#TeXGyreTermesX-Regular-6e" transform="translate(182.615211 0) scale(0.996264)"/>
      <use xlink:href="#TeXGyreTermesX-Regular-61" transform="translate(232.428412 0) scale(0.996264)"/>
      <use xlink:href="#TeXGyreTermesX-Regular-72" transform="translate(276.662558 0) scale(0.996264)"/>
      <use xlink:href="#TeXGyreTermesX-Regular-79" transform="translate(311.830742 0) scale(0.996264)"/>
      <use xlink:href="#TeXGyreTermesX-Regular-4c" transform="translate(386.550542 0) scale(0.996264)"/>
      <use xlink:href="#TeXGyreTermesX-Regular-65" transform="translate(447.422279 0) scale(0.996264)"/>
      <use xlink:href="#TeXGyreTermesX-Regular-61" transform="translate(491.656426 0) scale(0.996264)"/>
      <use xlink:href="#TeXGyreTermesX-Regular-73" transform="translate(535.890572 0) scale(0.996264)"/>
      <use xlink:href="#TeXGyreTermesX-Regular-74" transform="translate(573.150794 0) scale(0.996264)"/>
      <use xlink:href="#TeXGyreTermesX-Regular-53" transform="translate(625.753522 0) scale(0.996264)"/>
      <use xlink:href="#TeXGyreTermesX-Regular-71" transform="translate(681.145777 0) scale(0.996264)"/>
      <use xlink:href="#TeXGyreTermesX-Regular-75" transform="translate(729.962683 0) scale(0.996264)"/>
      <use xlink:href="#TeXGyreTermesX-Regular-61" transform="translate(779.775883 0) scale(0.996264)"/>
      <use xlink:href="#TeXGyreTermesX-Regular-72" transform="translate(824.01003 0) scale(0.996264)"/>
      <use xlink:href="#TeXGyreTermesX-Regular-65" transform="translate(857.185639 0) scale(0.996264)"/>
      <use xlink:href="#TeXGyreTermesX-Regular-73" transform="translate(901.419786 0) scale(0.996264)"/>
     </g>
    </g>
    <g id="PathCollection_2">
     <defs>
      <path id="mdb5c61b1ce" d="M -3.162278 3.162278 
L 3.162278 3.162278 
L 3.162278 -3.162278 
L -3.162278 -3.162278 
z
" style="stroke: #000000"/>
     </defs>
     <g>
      <use xlink:href="#mdb5c61b1ce" x="52.0834" y="120.811266" style="fill: #7570b3; stroke: #000000"/>
     </g>
    </g>
    <g id="text_17">
     <!-- $1250 ^\circ C$ -->
     <g transform="translate(71.8834 123.698766) scale(0.11 -0.11)">
      <use xlink:href="#TeXGyreTermesX-Bold-31" transform="scale(0.996264)"/>
      <use xlink:href="#TeXGyreTermesX-Bold-32" transform="translate(49.8132 0) scale(0.996264)"/>
      <use xlink:href="#TeXGyreTermesX-Bold-35" transform="translate(99.626401 0) scale(0.996264)"/>
      <use xlink:href="#TeXGyreTermesX-Bold-30" transform="translate(149.439601 0) scale(0.996264)"/>
      <use xlink:href="#txbsys-e" transform="translate(199.252802 36.164371) scale(0.727268)"/>
      <use xlink:href="#NewTXBMI-49" transform="translate(238.25828 0) scale(0.996264)"/>
     </g>
    </g>
    <g id="line2d_67">
     <path d="M 41.0834 135.426842 
L 52.0834 135.426842 
L 63.0834 135.426842 
" style="fill: none; stroke: #000000; stroke-linecap: square"/>
    </g>
    <g id="text_18">
     <!-- Ordinary Least Squares -->
     <g transform="translate(71.8834 139.276842) scale(0.11 -0.11)">
      <use xlink:href="#TeXGyreTermesX-Regular-4f" transform="scale(0.996264)"/>
      <use xlink:href="#TeXGyreTermesX-Regular-72" transform="translate(71.930274 0) scale(0.996264)"/>
      <use xlink:href="#TeXGyreTermesX-Regular-64" transform="translate(105.105883 0) scale(0.996264)"/>
      <use xlink:href="#TeXGyreTermesX-Regular-69" transform="translate(154.919084 0) scale(0.996264)"/>
      <use xlink:href="#TeXGyreTermesX-Regular-6e" transform="translate(182.615211 0) scale(0.996264)"/>
      <use xlink:href="#TeXGyreTermesX-Regular-61" transform="translate(232.428412 0) scale(0.996264)"/>
      <use xlink:href="#TeXGyreTermesX-Regular-72" transform="translate(276.662558 0) scale(0.996264)"/>
      <use xlink:href="#TeXGyreTermesX-Regular-79" transform="translate(311.830742 0) scale(0.996264)"/>
      <use xlink:href="#TeXGyreTermesX-Regular-4c" transform="translate(386.550542 0) scale(0.996264)"/>
      <use xlink:href="#TeXGyreTermesX-Regular-65" transform="translate(447.422279 0) scale(0.996264)"/>
      <use xlink:href="#TeXGyreTermesX-Regular-61" transform="translate(491.656426 0) scale(0.996264)"/>
      <use xlink:href="#TeXGyreTermesX-Regular-73" transform="translate(535.890572 0) scale(0.996264)"/>
      <use xlink:href="#TeXGyreTermesX-Regular-74" transform="translate(573.150794 0) scale(0.996264)"/>
      <use xlink:href="#TeXGyreTermesX-Regular-53" transform="translate(625.753522 0) scale(0.996264)"/>
      <use xlink:href="#TeXGyreTermesX-Regular-71" transform="translate(681.145777 0) scale(0.996264)"/>
      <use xlink:href="#TeXGyreTermesX-Regular-75" transform="translate(729.962683 0) scale(0.996264)"/>
      <use xlink:href="#TeXGyreTermesX-Regular-61" transform="translate(779.775883 0) scale(0.996264)"/>
      <use xlink:href="#TeXGyreTermesX-Regular-72" transform="translate(824.01003 0) scale(0.996264)"/>
      <use xlink:href="#TeXGyreTermesX-Regular-65" transform="translate(857.185639 0) scale(0.996264)"/>
      <use xlink:href="#TeXGyreTermesX-Regular-73" transform="translate(901.419786 0) scale(0.996264)"/>
     </g>
    </g>
   </g>
   <g id="PathCollection_3">
    <g clip-path="url(#p52d46ff458)">
     <use xlink:href="#ma7d208683c" x="44.991971" y="207.712711" style="fill: #d95f02; stroke: #000000"/>
     <use xlink:href="#ma7d208683c" x="71.656798" y="207.912005" style="fill: #d95f02; stroke: #000000"/>
     <use xlink:href="#ma7d208683c" x="87.438022" y="208.310593" style="fill: #d95f02; stroke: #000000"/>
     <use xlink:href="#ma7d208683c" x="98.049535" y="208.111299" style="fill: #d95f02; stroke: #000000"/>
     <use xlink:href="#ma7d208683c" x="103.491336" y="208.509888" style="fill: #d95f02; stroke: #000000"/>
     <use xlink:href="#ma7d208683c" x="119.54465" y="205.321179" style="fill: #d95f02; stroke: #000000"/>
     <use xlink:href="#ma7d208683c" x="129.884073" y="198.146585" style="fill: #d95f02; stroke: #000000"/>
     <use xlink:href="#ma7d208683c" x="135.325875" y="192.566345" style="fill: #d95f02; stroke: #000000"/>
     <use xlink:href="#ma7d208683c" x="140.495586" y="189.178343" style="fill: #d95f02; stroke: #000000"/>
     <use xlink:href="#ma7d208683c" x="151.379189" y="178.217157" style="fill: #d95f02; stroke: #000000"/>
     <use xlink:href="#ma7d208683c" x="161.718611" y="158.088435" style="fill: #d95f02; stroke: #000000"/>
     <use xlink:href="#ma7d208683c" x="182.941637" y="118.428873" style="fill: #d95f02; stroke: #000000"/>
     <use xlink:href="#ma7d208683c" x="203.620482" y="86.1432" style="fill: #d95f02; stroke: #000000"/>
     <use xlink:href="#ma7d208683c" x="256.405955" y="33.130922" style="fill: #d95f02; stroke: #000000"/>
     <use xlink:href="#ma7d208683c" x="309.735609" y="14.995142" style="fill: #d95f02; stroke: #000000"/>
    </g>
   </g>
   <g id="PathCollection_4">
    <g clip-path="url(#p52d46ff458)">
     <use xlink:href="#mdb5c61b1ce" x="44.866772" y="207.912005" style="fill: #7570b3; stroke: #000000"/>
     <use xlink:href="#mdb5c61b1ce" x="55.341298" y="208.116361" style="fill: #7570b3; stroke: #000000"/>
     <use xlink:href="#mdb5c61b1ce" x="60.578561" y="208.320716" style="fill: #7570b3; stroke: #000000"/>
     <use xlink:href="#mdb5c61b1ce" x="66.025314" y="208.320716" style="fill: #7570b3; stroke: #000000"/>
     <use xlink:href="#mdb5c61b1ce" x="71.262577" y="208.525072" style="fill: #7570b3; stroke: #000000"/>
     <use xlink:href="#mdb5c61b1ce" x="76.709331" y="207.094582" style="fill: #7570b3; stroke: #000000"/>
     <use xlink:href="#mdb5c61b1ce" x="87.183856" y="186.863366" style="fill: #7570b3; stroke: #000000"/>
     <use xlink:href="#mdb5c61b1ce" x="97.239401" y="155.59694" style="fill: #7570b3; stroke: #000000"/>
     <use xlink:href="#mdb5c61b1ce" x="102.895645" y="137.817992" style="fill: #7570b3; stroke: #000000"/>
     <use xlink:href="#mdb5c61b1ce" x="108.342398" y="117.995487" style="fill: #7570b3; stroke: #000000"/>
     <use xlink:href="#mdb5c61b1ce" x="124.054187" y="77.328699" style="fill: #7570b3; stroke: #000000"/>
     <use xlink:href="#mdb5c61b1ce" x="139.765975" y="29.50946" style="fill: #7570b3; stroke: #000000"/>
     <use xlink:href="#mdb5c61b1ce" x="171.608534" y="16.021982" style="fill: #7570b3; stroke: #000000"/>
     <use xlink:href="#mdb5c61b1ce" x="234.874669" y="15.000204" style="fill: #7570b3; stroke: #000000"/>
    </g>
   </g>
  </g>
 </g>
 <defs>
  <clipPath id="p52d46ff458">
   <rect x="31.1834" y="1" width="291.8166" height="224.497532"/>
  </clipPath>
 </defs>
</svg>
