<?xml version="1.0" encoding="utf-8" standalone="no"?>
<!DOCTYPE svg PUBLIC "-//W3C//DTD SVG 1.1//EN"
  "http://www.w3.org/Graphics/SVG/1.1/DTD/svg11.dtd">
<svg xmlns:xlink="http://www.w3.org/1999/xlink" width="252pt" height="198pt" viewBox="0 0 252 198" xmlns="http://www.w3.org/2000/svg" version="1.1">
 <metadata>
  <rdf:RDF xmlns:dc="http://purl.org/dc/elements/1.1/" xmlns:cc="http://creativecommons.org/ns#" xmlns:rdf="http://www.w3.org/1999/02/22-rdf-syntax-ns#">
   <cc:Work>
    <dc:type rdf:resource="http://purl.org/dc/dcmitype/StillImage"/>
    <dc:date>2025-04-13T15:09:18.499423</dc:date>
    <dc:format>image/svg+xml</dc:format>
    <dc:creator>
     <cc:Agent>
      <dc:title>Matplotlib v3.10.1, https://matplotlib.org/</dc:title>
     </cc:Agent>
    </dc:creator>
   </cc:Work>
  </rdf:RDF>
 </metadata>
 <defs>
  <style type="text/css">*{stroke-linejoin: round; stroke-linecap: butt}</style>
 </defs>
 <g id="figure_1">
  <g id="patch_1">
   <path d="M 0 198 
L 252 198 
L 252 0 
L 0 0 
z
" style="fill: #ffffff"/>
  </g>
  <g id="axes_1">
   <g id="patch_2">
    <path d="M 48.552353 125.297649 
L 237.139938 125.297649 
L 237.139938 10.8 
L 48.552353 10.8 
z
" style="fill: #ffffff"/>
   </g>
   <g id="matplotlib.axis_1">
    <g id="xtick_1">
     <g id="line2d_1">
      <defs>
       <path id="m5e09730ddc" d="M 0 0 
L 0 -3.5 
" style="stroke: #000000; stroke-width: 0.8"/>
      </defs>
      <g>
       <use xlink:href="#m5e09730ddc" x="57.124516" y="125.297649" style="stroke: #000000; stroke-width: 0.8"/>
      </g>
     </g>
     <g id="text_1">
      <!-- $\mathdefault{0}$ -->
      <g transform="translate(54.397247 136.32092) scale(0.11 -0.11)">
       <defs>
        <path id="TeXGyreTermesX-Bold-30" d="M 3046 2166 
C 3046 3440 2426 4403 1600 4403 
C 1184 4403 762 4123 499 3664 
C 294 3313 154 2714 154 2185 
C 154 873 755 -64 1606 -64 
C 2432 -64 3046 886 3046 2166 
z
M 2035 1434 
C 2035 1058 1984 561 1926 389 
C 1856 203 1754 114 1606 114 
C 1286 114 1165 491 1165 1434 
L 1165 2892 
C 1165 3855 1286 4224 1594 4224 
C 1907 4224 2035 3829 2035 2892 
L 2035 1434 
z
" transform="scale(0.015625)"/>
       </defs>
       <use xlink:href="#TeXGyreTermesX-Bold-30" transform="scale(0.996264)"/>
      </g>
     </g>
    </g>
    <g id="xtick_2">
     <g id="line2d_2">
      <g>
       <use xlink:href="#m5e09730ddc" x="95.970153" y="125.297649" style="stroke: #000000; stroke-width: 0.8"/>
      </g>
     </g>
     <g id="text_2">
      <!-- $\mathdefault{500}$ -->
      <g transform="translate(87.788348 136.32092) scale(0.11 -0.11)">
       <defs>
        <path id="TeXGyreTermesX-Bold-35" d="M 3008 4288 
L 947 4288 
L 326 2093 
C 934 2049 1197 2010 1478 1921 
C 2048 1743 2387 1381 2387 960 
C 2387 604 2106 324 1747 324 
C 1600 324 1427 400 1171 591 
C 896 795 704 877 538 877 
C 307 877 141 718 141 496 
C 141 159 512 -64 1082 -64 
C 2138 -64 2886 575 2886 1476 
C 2886 2140 2477 2652 1779 2850 
C 1536 2920 1338 2946 813 2946 
L 954 3481 
L 2733 3481 
L 3008 4288 
z
" transform="scale(0.015625)"/>
       </defs>
       <use xlink:href="#TeXGyreTermesX-Bold-35" transform="scale(0.996264)"/>
       <use xlink:href="#TeXGyreTermesX-Bold-30" transform="translate(49.8132 0) scale(0.996264)"/>
       <use xlink:href="#TeXGyreTermesX-Bold-30" transform="translate(99.626401 0) scale(0.996264)"/>
      </g>
     </g>
    </g>
    <g id="xtick_3">
     <g id="line2d_3">
      <g>
       <use xlink:href="#m5e09730ddc" x="134.81579" y="125.297649" style="stroke: #000000; stroke-width: 0.8"/>
      </g>
     </g>
     <g id="text_3">
      <!-- $\mathdefault{1000}$ -->
      <g transform="translate(123.906717 136.32092) scale(0.11 -0.11)">
       <defs>
        <path id="TeXGyreTermesX-Bold-31" d="M 2829 0 
L 2829 159 
C 2246 159 2138 255 2138 746 
L 2138 4384 
L 2029 4384 
L 416 3686 
L 416 3521 
C 474 3540 525 3559 544 3572 
C 717 3635 877 3680 960 3680 
C 1120 3680 1190 3540 1190 3241 
L 1190 790 
C 1190 267 1062 159 429 159 
L 429 0 
L 2829 0 
z
" transform="scale(0.015625)"/>
       </defs>
       <use xlink:href="#TeXGyreTermesX-Bold-31" transform="scale(0.996264)"/>
       <use xlink:href="#TeXGyreTermesX-Bold-30" transform="translate(49.8132 0) scale(0.996264)"/>
       <use xlink:href="#TeXGyreTermesX-Bold-30" transform="translate(99.626401 0) scale(0.996264)"/>
       <use xlink:href="#TeXGyreTermesX-Bold-30" transform="translate(149.439601 0) scale(0.996264)"/>
      </g>
     </g>
    </g>
    <g id="xtick_4">
     <g id="line2d_4">
      <g>
       <use xlink:href="#m5e09730ddc" x="173.661427" y="125.297649" style="stroke: #000000; stroke-width: 0.8"/>
      </g>
     </g>
     <g id="text_4">
      <!-- $\mathdefault{1500}$ -->
      <g transform="translate(162.752354 136.32092) scale(0.11 -0.11)">
       <use xlink:href="#TeXGyreTermesX-Bold-31" transform="scale(0.996264)"/>
       <use xlink:href="#TeXGyreTermesX-Bold-35" transform="translate(49.8132 0) scale(0.996264)"/>
       <use xlink:href="#TeXGyreTermesX-Bold-30" transform="translate(99.626401 0) scale(0.996264)"/>
       <use xlink:href="#TeXGyreTermesX-Bold-30" transform="translate(149.439601 0) scale(0.996264)"/>
      </g>
     </g>
    </g>
    <g id="xtick_5">
     <g id="line2d_5">
      <g>
       <use xlink:href="#m5e09730ddc" x="212.507064" y="125.297649" style="stroke: #000000; stroke-width: 0.8"/>
      </g>
     </g>
     <g id="text_5">
      <!-- $\mathdefault{2000}$ -->
      <g transform="translate(201.597991 136.32092) scale(0.11 -0.11)">
       <defs>
        <path id="TeXGyreTermesX-Bold-32" d="M 3059 1341 
L 2906 1341 
C 2720 884 2643 846 1990 846 
L 1024 846 
L 2061 1824 
C 2566 2301 2790 2726 2790 3210 
C 2790 3889 2298 4373 1606 4373 
C 1286 4373 979 4245 755 4016 
C 506 3768 378 3552 198 3075 
L 378 3075 
C 576 3469 813 3648 1158 3648 
C 1440 3648 1651 3527 1792 3298 
C 1869 3164 1920 2987 1920 2841 
C 1920 2561 1798 2211 1594 1900 
C 1267 1405 1043 1137 109 146 
L 109 0 
L 2771 0 
L 3059 1341 
z
" transform="scale(0.015625)"/>
       </defs>
       <use xlink:href="#TeXGyreTermesX-Bold-32" transform="scale(0.996264)"/>
       <use xlink:href="#TeXGyreTermesX-Bold-30" transform="translate(49.8132 0) scale(0.996264)"/>
       <use xlink:href="#TeXGyreTermesX-Bold-30" transform="translate(99.626401 0) scale(0.996264)"/>
       <use xlink:href="#TeXGyreTermesX-Bold-30" transform="translate(149.439601 0) scale(0.996264)"/>
      </g>
     </g>
    </g>
    <g id="xtick_6">
     <g id="line2d_6">
      <defs>
       <path id="m12db3754ee" d="M 0 0 
L 0 -2 
" style="stroke: #000000; stroke-width: 0.6"/>
      </defs>
      <g>
       <use xlink:href="#m12db3754ee" x="49.355388" y="125.297649" style="stroke: #000000; stroke-width: 0.6"/>
      </g>
     </g>
    </g>
    <g id="xtick_7">
     <g id="line2d_7">
      <g>
       <use xlink:href="#m12db3754ee" x="64.893643" y="125.297649" style="stroke: #000000; stroke-width: 0.6"/>
      </g>
     </g>
    </g>
    <g id="xtick_8">
     <g id="line2d_8">
      <g>
       <use xlink:href="#m12db3754ee" x="72.66277" y="125.297649" style="stroke: #000000; stroke-width: 0.6"/>
      </g>
     </g>
    </g>
    <g id="xtick_9">
     <g id="line2d_9">
      <g>
       <use xlink:href="#m12db3754ee" x="80.431898" y="125.297649" style="stroke: #000000; stroke-width: 0.6"/>
      </g>
     </g>
    </g>
    <g id="xtick_10">
     <g id="line2d_10">
      <g>
       <use xlink:href="#m12db3754ee" x="88.201025" y="125.297649" style="stroke: #000000; stroke-width: 0.6"/>
      </g>
     </g>
    </g>
    <g id="xtick_11">
     <g id="line2d_11">
      <g>
       <use xlink:href="#m12db3754ee" x="103.73928" y="125.297649" style="stroke: #000000; stroke-width: 0.6"/>
      </g>
     </g>
    </g>
    <g id="xtick_12">
     <g id="line2d_12">
      <g>
       <use xlink:href="#m12db3754ee" x="111.508407" y="125.297649" style="stroke: #000000; stroke-width: 0.6"/>
      </g>
     </g>
    </g>
    <g id="xtick_13">
     <g id="line2d_13">
      <g>
       <use xlink:href="#m12db3754ee" x="119.277535" y="125.297649" style="stroke: #000000; stroke-width: 0.6"/>
      </g>
     </g>
    </g>
    <g id="xtick_14">
     <g id="line2d_14">
      <g>
       <use xlink:href="#m12db3754ee" x="127.046662" y="125.297649" style="stroke: #000000; stroke-width: 0.6"/>
      </g>
     </g>
    </g>
    <g id="xtick_15">
     <g id="line2d_15">
      <g>
       <use xlink:href="#m12db3754ee" x="142.584917" y="125.297649" style="stroke: #000000; stroke-width: 0.6"/>
      </g>
     </g>
    </g>
    <g id="xtick_16">
     <g id="line2d_16">
      <g>
       <use xlink:href="#m12db3754ee" x="150.354044" y="125.297649" style="stroke: #000000; stroke-width: 0.6"/>
      </g>
     </g>
    </g>
    <g id="xtick_17">
     <g id="line2d_17">
      <g>
       <use xlink:href="#m12db3754ee" x="158.123172" y="125.297649" style="stroke: #000000; stroke-width: 0.6"/>
      </g>
     </g>
    </g>
    <g id="xtick_18">
     <g id="line2d_18">
      <g>
       <use xlink:href="#m12db3754ee" x="165.892299" y="125.297649" style="stroke: #000000; stroke-width: 0.6"/>
      </g>
     </g>
    </g>
    <g id="xtick_19">
     <g id="line2d_19">
      <g>
       <use xlink:href="#m12db3754ee" x="181.430554" y="125.297649" style="stroke: #000000; stroke-width: 0.6"/>
      </g>
     </g>
    </g>
    <g id="xtick_20">
     <g id="line2d_20">
      <g>
       <use xlink:href="#m12db3754ee" x="189.199681" y="125.297649" style="stroke: #000000; stroke-width: 0.6"/>
      </g>
     </g>
    </g>
    <g id="xtick_21">
     <g id="line2d_21">
      <g>
       <use xlink:href="#m12db3754ee" x="196.968809" y="125.297649" style="stroke: #000000; stroke-width: 0.6"/>
      </g>
     </g>
    </g>
    <g id="xtick_22">
     <g id="line2d_22">
      <g>
       <use xlink:href="#m12db3754ee" x="204.737936" y="125.297649" style="stroke: #000000; stroke-width: 0.6"/>
      </g>
     </g>
    </g>
    <g id="xtick_23">
     <g id="line2d_23">
      <g>
       <use xlink:href="#m12db3754ee" x="220.276191" y="125.297649" style="stroke: #000000; stroke-width: 0.6"/>
      </g>
     </g>
    </g>
    <g id="xtick_24">
     <g id="line2d_24">
      <g>
       <use xlink:href="#m12db3754ee" x="228.045318" y="125.297649" style="stroke: #000000; stroke-width: 0.6"/>
      </g>
     </g>
    </g>
    <g id="xtick_25">
     <g id="line2d_25">
      <g>
       <use xlink:href="#m12db3754ee" x="235.814446" y="125.297649" style="stroke: #000000; stroke-width: 0.6"/>
      </g>
     </g>
    </g>
    <g id="text_6">
     <!-- $t$ \textbf{[hr]} -->
     <g transform="translate(129.474285 150.90621) scale(0.12 -0.12)">
      <defs>
       <path id="NewTXBMI-74" d="M 1440 837 
L 1299 926 
C 1082 588 915 415 813 415 
C 762 415 710 460 710 511 
C 710 632 826 1073 1056 1864 
L 1267 2624 
L 1798 2624 
L 1798 2893 
L 1338 2893 
L 1587 3808 
L 1363 3808 
C 1018 3303 698 3037 192 2848 
L 192 2624 
L 518 2624 
L 83 1105 
C -13 773 -70 499 -70 383 
C -70 135 109 -32 378 -32 
C 762 -32 1018 180 1440 837 
z
" transform="scale(0.015625)"/>
       <path id="TeXGyreTermesX-Bold-5b" d="M 1926 -960 
L 1926 -750 
L 1414 -750 
C 1152 -750 1094 -686 1094 -413 
L 1094 3650 
C 1094 4020 1165 4096 1523 4096 
L 1926 4096 
L 1926 4306 
L 429 4306 
L 429 -960 
L 1926 -960 
z
" transform="scale(0.015625)"/>
       <path id="TeXGyreTermesX-Bold-68" d="M 3418 -32 
L 3418 121 
C 3187 140 3104 235 3104 503 
L 3104 2086 
C 3104 2635 2765 2986 2240 2986 
C 1901 2986 1664 2859 1331 2490 
L 1331 4288 
L 102 4288 
L 102 4134 
C 397 4076 442 4024 442 3763 
L 442 504 
C 442 236 390 178 102 121 
L 102 -32 
L 1645 -32 
L 1645 121 
C 1408 152 1331 249 1331 485 
L 1331 2190 
C 1331 2216 1376 2279 1440 2336 
C 1581 2484 1734 2560 1882 2560 
C 2106 2560 2214 2387 2214 2030 
L 2214 484 
C 2214 249 2131 146 1914 121 
L 1914 -32 
L 3418 -32 
z
" transform="scale(0.015625)"/>
       <path id="TeXGyreTermesX-Bold-72" d="M 2778 2512 
C 2778 2798 2560 3008 2259 3008 
C 1939 3008 1696 2836 1395 2410 
L 1395 2932 
L 186 2932 
L 186 2779 
C 461 2741 531 2658 531 2404 
L 531 533 
C 531 272 467 203 186 152 
L 186 0 
L 1888 0 
L 1888 165 
C 1498 165 1421 248 1421 645 
L 1421 1854 
C 1421 2186 1600 2461 1811 2461 
C 1862 2461 1920 2417 1990 2315 
C 2112 2143 2208 2086 2374 2086 
C 2611 2086 2778 2264 2778 2512 
z
" transform="scale(0.015625)"/>
       <path id="TeXGyreTermesX-Bold-5d" d="M 1702 -960 
L 1702 4306 
L 205 4306 
L 205 4096 
L 608 4096 
C 966 4096 1037 4020 1037 3650 
L 1037 -413 
C 1037 -693 986 -750 717 -750 
L 205 -750 
L 205 -960 
L 1702 -960 
z
" transform="scale(0.015625)"/>
      </defs>
      <use xlink:href="#NewTXBMI-74" transform="scale(0.996264)"/>
      <use xlink:href="#TeXGyreTermesX-Bold-5b" transform="translate(56.886681 0) scale(0.996264)"/>
      <use xlink:href="#TeXGyreTermesX-Bold-68" transform="translate(90.062291 0) scale(0.996264)"/>
      <use xlink:href="#TeXGyreTermesX-Bold-72" transform="translate(145.454545 0) scale(0.996264)"/>
      <use xlink:href="#TeXGyreTermesX-Bold-5d" transform="translate(189.688692 0) scale(0.996264)"/>
     </g>
    </g>
   </g>
   <g id="matplotlib.axis_2">
    <g id="ytick_1">
     <g id="line2d_26">
      <defs>
       <path id="m6b2b7e4a51" d="M 0 0 
L 3.5 0 
" style="stroke: #000000; stroke-width: 0.8"/>
      </defs>
      <g>
       <use xlink:href="#m6b2b7e4a51" x="48.552353" y="115.756178" style="stroke: #000000; stroke-width: 0.8"/>
      </g>
     </g>
     <g id="text_7">
      <!-- $\mathdefault{0.00}$ -->
      <g transform="translate(25.601474 119.517814) scale(0.11 -0.11)">
       <defs>
        <path id="NewTXBMI-93" d="M 1344 473 
C 1344 768 1101 1017 800 1017 
C 493 1017 262 761 262 473 
C 262 173 493 -64 800 -64 
C 1101 -64 1344 166 1344 473 
z
" transform="scale(0.015625)"/>
       </defs>
       <use xlink:href="#TeXGyreTermesX-Bold-30" transform="scale(0.996264)"/>
       <use xlink:href="#NewTXBMI-93" transform="translate(51.407199 0) scale(0.996264)"/>
       <use xlink:href="#TeXGyreTermesX-Bold-30" transform="translate(78.00746 0) scale(0.996264)"/>
       <use xlink:href="#TeXGyreTermesX-Bold-30" transform="translate(127.82066 0) scale(0.996264)"/>
      </g>
     </g>
    </g>
    <g id="ytick_2">
     <g id="line2d_27">
      <g>
       <use xlink:href="#m6b2b7e4a51" x="48.552353" y="91.902502" style="stroke: #000000; stroke-width: 0.8"/>
      </g>
     </g>
     <g id="text_8">
      <!-- $\mathdefault{0.25}$ -->
      <g transform="translate(25.601474 95.664137) scale(0.11 -0.11)">
       <use xlink:href="#TeXGyreTermesX-Bold-30" transform="scale(0.996264)"/>
       <use xlink:href="#NewTXBMI-93" transform="translate(51.407199 0) scale(0.996264)"/>
       <use xlink:href="#TeXGyreTermesX-Bold-32" transform="translate(78.00746 0) scale(0.996264)"/>
       <use xlink:href="#TeXGyreTermesX-Bold-35" transform="translate(127.82066 0) scale(0.996264)"/>
      </g>
     </g>
    </g>
    <g id="ytick_3">
     <g id="line2d_28">
      <g>
       <use xlink:href="#m6b2b7e4a51" x="48.552353" y="68.048825" style="stroke: #000000; stroke-width: 0.8"/>
      </g>
     </g>
     <g id="text_9">
      <!-- $\mathdefault{0.50}$ -->
      <g transform="translate(25.601474 71.81046) scale(0.11 -0.11)">
       <use xlink:href="#TeXGyreTermesX-Bold-30" transform="scale(0.996264)"/>
       <use xlink:href="#NewTXBMI-93" transform="translate(51.407199 0) scale(0.996264)"/>
       <use xlink:href="#TeXGyreTermesX-Bold-35" transform="translate(78.00746 0) scale(0.996264)"/>
       <use xlink:href="#TeXGyreTermesX-Bold-30" transform="translate(127.82066 0) scale(0.996264)"/>
      </g>
     </g>
    </g>
    <g id="ytick_4">
     <g id="line2d_29">
      <g>
       <use xlink:href="#m6b2b7e4a51" x="48.552353" y="44.195148" style="stroke: #000000; stroke-width: 0.8"/>
      </g>
     </g>
     <g id="text_10">
      <!-- $\mathdefault{0.75}$ -->
      <g transform="translate(25.601474 47.956783) scale(0.11 -0.11)">
       <defs>
        <path id="TeXGyreTermesX-Bold-37" d="M 3053 4327 
L 390 4327 
L 109 2916 
L 269 2916 
C 390 3322 544 3456 896 3456 
L 2221 3456 
L 941 32 
L 1549 32 
L 3053 4327 
z
" transform="scale(0.015625)"/>
       </defs>
       <use xlink:href="#TeXGyreTermesX-Bold-30" transform="scale(0.996264)"/>
       <use xlink:href="#NewTXBMI-93" transform="translate(51.407199 0) scale(0.996264)"/>
       <use xlink:href="#TeXGyreTermesX-Bold-37" transform="translate(78.00746 0) scale(0.996264)"/>
       <use xlink:href="#TeXGyreTermesX-Bold-35" transform="translate(127.82066 0) scale(0.996264)"/>
      </g>
     </g>
    </g>
    <g id="ytick_5">
     <g id="line2d_30">
      <g>
       <use xlink:href="#m6b2b7e4a51" x="48.552353" y="20.341471" style="stroke: #000000; stroke-width: 0.8"/>
      </g>
     </g>
     <g id="text_11">
      <!-- $\mathdefault{1.00}$ -->
      <g transform="translate(25.601474 24.103106) scale(0.11 -0.11)">
       <use xlink:href="#TeXGyreTermesX-Bold-31" transform="scale(0.996264)"/>
       <use xlink:href="#NewTXBMI-93" transform="translate(51.407199 0) scale(0.996264)"/>
       <use xlink:href="#TeXGyreTermesX-Bold-30" transform="translate(78.00746 0) scale(0.996264)"/>
       <use xlink:href="#TeXGyreTermesX-Bold-30" transform="translate(127.82066 0) scale(0.996264)"/>
      </g>
     </g>
    </g>
    <g id="ytick_6">
     <g id="line2d_31">
      <defs>
       <path id="m150cf21173" d="M 0 0 
L 2 0 
" style="stroke: #000000; stroke-width: 0.6"/>
      </defs>
      <g>
       <use xlink:href="#m150cf21173" x="48.552353" y="125.297649" style="stroke: #000000; stroke-width: 0.6"/>
      </g>
     </g>
    </g>
    <g id="ytick_7">
     <g id="line2d_32">
      <g>
       <use xlink:href="#m150cf21173" x="48.552353" y="120.526914" style="stroke: #000000; stroke-width: 0.6"/>
      </g>
     </g>
    </g>
    <g id="ytick_8">
     <g id="line2d_33">
      <g>
       <use xlink:href="#m150cf21173" x="48.552353" y="110.985443" style="stroke: #000000; stroke-width: 0.6"/>
      </g>
     </g>
    </g>
    <g id="ytick_9">
     <g id="line2d_34">
      <g>
       <use xlink:href="#m150cf21173" x="48.552353" y="106.214708" style="stroke: #000000; stroke-width: 0.6"/>
      </g>
     </g>
    </g>
    <g id="ytick_10">
     <g id="line2d_35">
      <g>
       <use xlink:href="#m150cf21173" x="48.552353" y="101.443972" style="stroke: #000000; stroke-width: 0.6"/>
      </g>
     </g>
    </g>
    <g id="ytick_11">
     <g id="line2d_36">
      <g>
       <use xlink:href="#m150cf21173" x="48.552353" y="96.673237" style="stroke: #000000; stroke-width: 0.6"/>
      </g>
     </g>
    </g>
    <g id="ytick_12">
     <g id="line2d_37">
      <g>
       <use xlink:href="#m150cf21173" x="48.552353" y="87.131766" style="stroke: #000000; stroke-width: 0.6"/>
      </g>
     </g>
    </g>
    <g id="ytick_13">
     <g id="line2d_38">
      <g>
       <use xlink:href="#m150cf21173" x="48.552353" y="82.361031" style="stroke: #000000; stroke-width: 0.6"/>
      </g>
     </g>
    </g>
    <g id="ytick_14">
     <g id="line2d_39">
      <g>
       <use xlink:href="#m150cf21173" x="48.552353" y="77.590295" style="stroke: #000000; stroke-width: 0.6"/>
      </g>
     </g>
    </g>
    <g id="ytick_15">
     <g id="line2d_40">
      <g>
       <use xlink:href="#m150cf21173" x="48.552353" y="72.81956" style="stroke: #000000; stroke-width: 0.6"/>
      </g>
     </g>
    </g>
    <g id="ytick_16">
     <g id="line2d_41">
      <g>
       <use xlink:href="#m150cf21173" x="48.552353" y="63.278089" style="stroke: #000000; stroke-width: 0.6"/>
      </g>
     </g>
    </g>
    <g id="ytick_17">
     <g id="line2d_42">
      <g>
       <use xlink:href="#m150cf21173" x="48.552353" y="58.507354" style="stroke: #000000; stroke-width: 0.6"/>
      </g>
     </g>
    </g>
    <g id="ytick_18">
     <g id="line2d_43">
      <g>
       <use xlink:href="#m150cf21173" x="48.552353" y="53.736618" style="stroke: #000000; stroke-width: 0.6"/>
      </g>
     </g>
    </g>
    <g id="ytick_19">
     <g id="line2d_44">
      <g>
       <use xlink:href="#m150cf21173" x="48.552353" y="48.965883" style="stroke: #000000; stroke-width: 0.6"/>
      </g>
     </g>
    </g>
    <g id="ytick_20">
     <g id="line2d_45">
      <g>
       <use xlink:href="#m150cf21173" x="48.552353" y="39.424412" style="stroke: #000000; stroke-width: 0.6"/>
      </g>
     </g>
    </g>
    <g id="ytick_21">
     <g id="line2d_46">
      <g>
       <use xlink:href="#m150cf21173" x="48.552353" y="34.653677" style="stroke: #000000; stroke-width: 0.6"/>
      </g>
     </g>
    </g>
    <g id="ytick_22">
     <g id="line2d_47">
      <g>
       <use xlink:href="#m150cf21173" x="48.552353" y="29.882942" style="stroke: #000000; stroke-width: 0.6"/>
      </g>
     </g>
    </g>
    <g id="ytick_23">
     <g id="line2d_48">
      <g>
       <use xlink:href="#m150cf21173" x="48.552353" y="25.112206" style="stroke: #000000; stroke-width: 0.6"/>
      </g>
     </g>
    </g>
    <g id="ytick_24">
     <g id="line2d_49">
      <g>
       <use xlink:href="#m150cf21173" x="48.552353" y="15.570735" style="stroke: #000000; stroke-width: 0.6"/>
      </g>
     </g>
    </g>
    <g id="ytick_25">
     <g id="line2d_50">
      <g>
       <use xlink:href="#m150cf21173" x="48.552353" y="10.8" style="stroke: #000000; stroke-width: 0.6"/>
      </g>
     </g>
    </g>
    <g id="text_12">
     <!-- $X$ -->
     <g transform="translate(19.007214 72.035872) rotate(-90) scale(0.12 -0.12)">
      <defs>
       <path id="NewTXBMI-5e" d="M 3750 0 
L 3750 160 
C 3290 211 3194 301 3008 903 
L 2534 2423 
L 3808 3737 
C 4090 4019 4211 4096 4442 4128 
L 4442 4288 
L 3142 4288 
L 3142 4128 
L 3283 4115 
C 3430 4102 3494 4057 3494 3961 
C 3494 3846 3379 3685 3046 3333 
L 2445 2698 
C 2381 2910 2362 2986 2336 3050 
C 2189 3506 2118 3782 2118 3878 
C 2118 4025 2189 4083 2400 4108 
L 2592 4128 
L 2592 4288 
L 640 4288 
L 640 4128 
C 1024 4089 1120 4019 1222 3723 
L 1760 1981 
L 1325 1506 
C 314 390 122 211 -154 160 
L -154 0 
L 1216 0 
L 1216 160 
C 928 186 800 269 800 416 
C 800 499 845 583 992 743 
L 1850 1692 
L 1971 1308 
C 2144 814 2214 545 2214 403 
C 2214 237 2125 192 1779 160 
L 1779 0 
L 3750 0 
z
" transform="scale(0.015625)"/>
      </defs>
      <use xlink:href="#NewTXBMI-5e" transform="scale(0.996264)"/>
     </g>
    </g>
   </g>
   <g id="LineCollection_1">
    <path d="M 57.318018 122.00784 
L 57.318018 109.504517 
" clip-path="url(#pfd07f16a57)" style="fill: none; stroke: #000000"/>
    <path d="M 62.73609 118.420821 
L 62.73609 113.091536 
" clip-path="url(#pfd07f16a57)" style="fill: none; stroke: #000000"/>
    <path d="M 65.638628 118.420821 
L 65.638628 113.091536 
" clip-path="url(#pfd07f16a57)" style="fill: none; stroke: #000000"/>
    <path d="M 68.347664 117.293472 
L 68.347664 114.218885 
" clip-path="url(#pfd07f16a57)" style="fill: none; stroke: #000000"/>
    <path d="M 80.151319 117.498445 
L 80.151319 114.013912 
" clip-path="url(#pfd07f16a57)" style="fill: none; stroke: #000000"/>
    <path d="M 81.69934 117.703417 
L 81.69934 113.808939 
" clip-path="url(#pfd07f16a57)" style="fill: none; stroke: #000000"/>
    <path d="M 86.730406 118.72828 
L 86.730406 112.784077 
" clip-path="url(#pfd07f16a57)" style="fill: none; stroke: #000000"/>
    <path d="M 91.761472 118.830766 
L 91.761472 112.681591 
" clip-path="url(#pfd07f16a57)" style="fill: none; stroke: #000000"/>
    <path d="M 98.534061 119.138225 
L 98.534061 112.374132 
" clip-path="url(#pfd07f16a57)" style="fill: none; stroke: #000000"/>
    <path d="M 115.368783 119.343198 
L 115.368783 112.169159 
" clip-path="url(#pfd07f16a57)" style="fill: none; stroke: #000000"/>
    <path d="M 130.655485 105.712525 
L 130.655485 99.153404 
" clip-path="url(#pfd07f16a57)" style="fill: none; stroke: #000000"/>
    <path d="M 151.55376 85.727704 
L 151.55376 77.118859 
" clip-path="url(#pfd07f16a57)" style="fill: none; stroke: #000000"/>
    <path d="M 164.131426 76.401455 
L 164.131426 70.457252 
" clip-path="url(#pfd07f16a57)" style="fill: none; stroke: #000000"/>
    <path d="M 179.998635 61.028516 
L 179.998635 54.05945 
" clip-path="url(#pfd07f16a57)" style="fill: none; stroke: #000000"/>
    <path d="M 204.960464 45.040659 
L 204.960464 40.736236 
" clip-path="url(#pfd07f16a57)" style="fill: none; stroke: #000000"/>
    <path d="M 228.567775 37.35419 
L 228.567775 33.049767 
" clip-path="url(#pfd07f16a57)" style="fill: none; stroke: #000000"/>
   </g>
   <g id="line2d_51">
    <defs>
     <path id="m705a6563ea" d="M 2 0 
L -2 -0 
" style="stroke: #000000"/>
    </defs>
    <g clip-path="url(#pfd07f16a57)">
     <use xlink:href="#m705a6563ea" x="57.318018" y="122.00784" style="stroke: #000000"/>
     <use xlink:href="#m705a6563ea" x="62.73609" y="118.420821" style="stroke: #000000"/>
     <use xlink:href="#m705a6563ea" x="65.638628" y="118.420821" style="stroke: #000000"/>
     <use xlink:href="#m705a6563ea" x="68.347664" y="117.293472" style="stroke: #000000"/>
     <use xlink:href="#m705a6563ea" x="80.151319" y="117.498445" style="stroke: #000000"/>
     <use xlink:href="#m705a6563ea" x="81.69934" y="117.703417" style="stroke: #000000"/>
     <use xlink:href="#m705a6563ea" x="86.730406" y="118.72828" style="stroke: #000000"/>
     <use xlink:href="#m705a6563ea" x="91.761472" y="118.830766" style="stroke: #000000"/>
     <use xlink:href="#m705a6563ea" x="98.534061" y="119.138225" style="stroke: #000000"/>
     <use xlink:href="#m705a6563ea" x="115.368783" y="119.343198" style="stroke: #000000"/>
     <use xlink:href="#m705a6563ea" x="130.655485" y="105.712525" style="stroke: #000000"/>
     <use xlink:href="#m705a6563ea" x="151.55376" y="85.727704" style="stroke: #000000"/>
     <use xlink:href="#m705a6563ea" x="164.131426" y="76.401455" style="stroke: #000000"/>
     <use xlink:href="#m705a6563ea" x="179.998635" y="61.028516" style="stroke: #000000"/>
     <use xlink:href="#m705a6563ea" x="204.960464" y="45.040659" style="stroke: #000000"/>
     <use xlink:href="#m705a6563ea" x="228.567775" y="37.35419" style="stroke: #000000"/>
    </g>
   </g>
   <g id="line2d_52">
    <g clip-path="url(#pfd07f16a57)">
     <use xlink:href="#m705a6563ea" x="57.318018" y="109.504517" style="stroke: #000000"/>
     <use xlink:href="#m705a6563ea" x="62.73609" y="113.091536" style="stroke: #000000"/>
     <use xlink:href="#m705a6563ea" x="65.638628" y="113.091536" style="stroke: #000000"/>
     <use xlink:href="#m705a6563ea" x="68.347664" y="114.218885" style="stroke: #000000"/>
     <use xlink:href="#m705a6563ea" x="80.151319" y="114.013912" style="stroke: #000000"/>
     <use xlink:href="#m705a6563ea" x="81.69934" y="113.808939" style="stroke: #000000"/>
     <use xlink:href="#m705a6563ea" x="86.730406" y="112.784077" style="stroke: #000000"/>
     <use xlink:href="#m705a6563ea" x="91.761472" y="112.681591" style="stroke: #000000"/>
     <use xlink:href="#m705a6563ea" x="98.534061" y="112.374132" style="stroke: #000000"/>
     <use xlink:href="#m705a6563ea" x="115.368783" y="112.169159" style="stroke: #000000"/>
     <use xlink:href="#m705a6563ea" x="130.655485" y="99.153404" style="stroke: #000000"/>
     <use xlink:href="#m705a6563ea" x="151.55376" y="77.118859" style="stroke: #000000"/>
     <use xlink:href="#m705a6563ea" x="164.131426" y="70.457252" style="stroke: #000000"/>
     <use xlink:href="#m705a6563ea" x="179.998635" y="54.05945" style="stroke: #000000"/>
     <use xlink:href="#m705a6563ea" x="204.960464" y="40.736236" style="stroke: #000000"/>
     <use xlink:href="#m705a6563ea" x="228.567775" y="33.049767" style="stroke: #000000"/>
    </g>
   </g>
   <g id="LineCollection_2">
    <path d="M 57.124516 122.585969 
L 57.124516 108.926388 
" clip-path="url(#pfd07f16a57)" style="fill: none; stroke: #000000"/>
    <path d="M 62.815853 117.463388 
L 62.815853 113.847884 
" clip-path="url(#pfd07f16a57)" style="fill: none; stroke: #000000"/>
    <path d="M 68.371683 117.564036 
L 68.371683 113.948321 
" clip-path="url(#pfd07f16a57)" style="fill: none; stroke: #000000"/>
    <path d="M 75.553609 118.66905 
L 75.553609 112.843307 
" clip-path="url(#pfd07f16a57)" style="fill: none; stroke: #000000"/>
    <path d="M 83.413075 119.572873 
L 83.413075 111.939484 
" clip-path="url(#pfd07f16a57)" style="fill: none; stroke: #000000"/>
    <path d="M 92.492113 87.968596 
L 92.492113 79.799899 
" clip-path="url(#pfd07f16a57)" style="fill: none; stroke: #000000"/>
    <path d="M 98.996499 73.780586 
L 98.996499 68.852317 
" clip-path="url(#pfd07f16a57)" style="fill: none; stroke: #000000"/>
    <path d="M 107.533505 63.011017 
L 107.533505 57.904735 
" clip-path="url(#pfd07f16a57)" style="fill: none; stroke: #000000"/>
    <path d="M 118.645164 49.322861 
L 118.645164 44.245366 
" clip-path="url(#pfd07f16a57)" style="fill: none; stroke: #000000"/>
    <path d="M 127.995218 38.75607 
L 127.995218 34.904768 
" clip-path="url(#pfd07f16a57)" style="fill: none; stroke: #000000"/>
    <path d="M 159.568591 24.564462 
L 159.568591 20.542344 
" clip-path="url(#pfd07f16a57)" style="fill: none; stroke: #000000"/>
    <path d="M 177.049127 22.149328 
L 177.049127 18.734698 
" clip-path="url(#pfd07f16a57)" style="fill: none; stroke: #000000"/>
   </g>
   <g id="line2d_53">
    <g clip-path="url(#pfd07f16a57)">
     <use xlink:href="#m705a6563ea" x="57.124516" y="122.585969" style="stroke: #000000"/>
     <use xlink:href="#m705a6563ea" x="62.815853" y="117.463388" style="stroke: #000000"/>
     <use xlink:href="#m705a6563ea" x="68.371683" y="117.564036" style="stroke: #000000"/>
     <use xlink:href="#m705a6563ea" x="75.553609" y="118.66905" style="stroke: #000000"/>
     <use xlink:href="#m705a6563ea" x="83.413075" y="119.572873" style="stroke: #000000"/>
     <use xlink:href="#m705a6563ea" x="92.492113" y="87.968596" style="stroke: #000000"/>
     <use xlink:href="#m705a6563ea" x="98.996499" y="73.780586" style="stroke: #000000"/>
     <use xlink:href="#m705a6563ea" x="107.533505" y="63.011017" style="stroke: #000000"/>
     <use xlink:href="#m705a6563ea" x="118.645164" y="49.322861" style="stroke: #000000"/>
     <use xlink:href="#m705a6563ea" x="127.995218" y="38.75607" style="stroke: #000000"/>
     <use xlink:href="#m705a6563ea" x="159.568591" y="24.564462" style="stroke: #000000"/>
     <use xlink:href="#m705a6563ea" x="177.049127" y="22.149328" style="stroke: #000000"/>
    </g>
   </g>
   <g id="line2d_54">
    <g clip-path="url(#pfd07f16a57)">
     <use xlink:href="#m705a6563ea" x="57.124516" y="108.926388" style="stroke: #000000"/>
     <use xlink:href="#m705a6563ea" x="62.815853" y="113.847884" style="stroke: #000000"/>
     <use xlink:href="#m705a6563ea" x="68.371683" y="113.948321" style="stroke: #000000"/>
     <use xlink:href="#m705a6563ea" x="75.553609" y="112.843307" style="stroke: #000000"/>
     <use xlink:href="#m705a6563ea" x="83.413075" y="111.939484" style="stroke: #000000"/>
     <use xlink:href="#m705a6563ea" x="92.492113" y="79.799899" style="stroke: #000000"/>
     <use xlink:href="#m705a6563ea" x="98.996499" y="68.852317" style="stroke: #000000"/>
     <use xlink:href="#m705a6563ea" x="107.533505" y="57.904735" style="stroke: #000000"/>
     <use xlink:href="#m705a6563ea" x="118.645164" y="44.245366" style="stroke: #000000"/>
     <use xlink:href="#m705a6563ea" x="127.995218" y="34.904768" style="stroke: #000000"/>
     <use xlink:href="#m705a6563ea" x="159.568591" y="20.542344" style="stroke: #000000"/>
     <use xlink:href="#m705a6563ea" x="177.049127" y="18.734698" style="stroke: #000000"/>
    </g>
   </g>
   <g id="patch_3">
    <path d="M 48.552353 125.297649 
L 48.552353 10.8 
" style="fill: none; stroke: #000000; stroke-width: 0.8; stroke-linejoin: miter; stroke-linecap: square"/>
   </g>
   <g id="patch_4">
    <path d="M 237.139938 125.297649 
L 237.139938 10.8 
" style="fill: none; stroke: #000000; stroke-width: 0.8; stroke-linejoin: miter; stroke-linecap: square"/>
   </g>
   <g id="patch_5">
    <path d="M 48.552353 125.297649 
L 237.139938 125.297649 
" style="fill: none; stroke: #000000; stroke-width: 0.8; stroke-linejoin: miter; stroke-linecap: square"/>
   </g>
   <g id="patch_6">
    <path d="M 48.552353 10.8 
L 237.139938 10.8 
" style="fill: none; stroke: #000000; stroke-width: 0.8; stroke-linejoin: miter; stroke-linecap: square"/>
   </g>
   <g id="PathCollection_1">
    <defs>
     <path id="m285c87e93e" d="M -0.956709 -2.309699 
L -2.309699 -0.956709 
L -2.309699 0.956709 
L -0.956709 2.309699 
L 0.956709 2.309699 
L 2.309699 0.956709 
L 2.309699 -0.956709 
L 0.956709 -2.309699 
z
" style="stroke: #000000; stroke-width: 0.75"/>
    </defs>
    <g clip-path="url(#pfd07f16a57)">
     <use xlink:href="#m285c87e93e" x="57.318018" y="115.756178" style="fill: #d95f02; stroke: #000000; stroke-width: 0.75"/>
     <use xlink:href="#m285c87e93e" x="62.73609" y="115.756178" style="fill: #d95f02; stroke: #000000; stroke-width: 0.75"/>
     <use xlink:href="#m285c87e93e" x="65.638628" y="115.756178" style="fill: #d95f02; stroke: #000000; stroke-width: 0.75"/>
     <use xlink:href="#m285c87e93e" x="68.347664" y="115.756178" style="fill: #d95f02; stroke: #000000; stroke-width: 0.75"/>
     <use xlink:href="#m285c87e93e" x="80.151319" y="115.756178" style="fill: #d95f02; stroke: #000000; stroke-width: 0.75"/>
     <use xlink:href="#m285c87e93e" x="81.69934" y="115.756178" style="fill: #d95f02; stroke: #000000; stroke-width: 0.75"/>
     <use xlink:href="#m285c87e93e" x="86.730406" y="115.756178" style="fill: #d95f02; stroke: #000000; stroke-width: 0.75"/>
     <use xlink:href="#m285c87e93e" x="91.761472" y="115.756178" style="fill: #d95f02; stroke: #000000; stroke-width: 0.75"/>
     <use xlink:href="#m285c87e93e" x="98.534061" y="115.756178" style="fill: #d95f02; stroke: #000000; stroke-width: 0.75"/>
     <use xlink:href="#m285c87e93e" x="115.368783" y="115.756178" style="fill: #d95f02; stroke: #000000; stroke-width: 0.75"/>
     <use xlink:href="#m285c87e93e" x="130.655485" y="102.432965" style="fill: #d95f02; stroke: #000000; stroke-width: 0.75"/>
     <use xlink:href="#m285c87e93e" x="151.55376" y="81.423281" style="fill: #d95f02; stroke: #000000; stroke-width: 0.75"/>
     <use xlink:href="#m285c87e93e" x="164.131426" y="73.429353" style="fill: #d95f02; stroke: #000000; stroke-width: 0.75"/>
     <use xlink:href="#m285c87e93e" x="179.998635" y="57.543983" style="fill: #d95f02; stroke: #000000; stroke-width: 0.75"/>
     <use xlink:href="#m285c87e93e" x="204.960464" y="42.888448" style="fill: #d95f02; stroke: #000000; stroke-width: 0.75"/>
     <use xlink:href="#m285c87e93e" x="228.567775" y="35.201978" style="fill: #d95f02; stroke: #000000; stroke-width: 0.75"/>
    </g>
   </g>
   <g id="PathCollection_2">
    <defs>
     <path id="m9bc8996b51" d="M -0.956709 -2.309699 
L -2.309699 -0.956709 
L -2.309699 0.956709 
L -0.956709 2.309699 
L 0.956709 2.309699 
L 2.309699 0.956709 
L 2.309699 -0.956709 
L 0.956709 -2.309699 
z
" style="stroke: #000000; stroke-width: 0.75"/>
    </defs>
    <g clip-path="url(#pfd07f16a57)">
     <use xlink:href="#m9bc8996b51" x="57.124516" y="115.756178" style="fill: #7570b3; stroke: #000000; stroke-width: 0.75"/>
     <use xlink:href="#m9bc8996b51" x="62.815853" y="115.655636" style="fill: #7570b3; stroke: #000000; stroke-width: 0.75"/>
     <use xlink:href="#m9bc8996b51" x="68.371683" y="115.756178" style="fill: #7570b3; stroke: #000000; stroke-width: 0.75"/>
     <use xlink:href="#m9bc8996b51" x="75.553609" y="115.756178" style="fill: #7570b3; stroke: #000000; stroke-width: 0.75"/>
     <use xlink:href="#m9bc8996b51" x="83.413075" y="115.756178" style="fill: #7570b3; stroke: #000000; stroke-width: 0.75"/>
     <use xlink:href="#m9bc8996b51" x="92.492113" y="83.884248" style="fill: #7570b3; stroke: #000000; stroke-width: 0.75"/>
     <use xlink:href="#m9bc8996b51" x="98.996499" y="71.316452" style="fill: #7570b3; stroke: #000000; stroke-width: 0.75"/>
     <use xlink:href="#m9bc8996b51" x="107.533505" y="60.457876" style="fill: #7570b3; stroke: #000000; stroke-width: 0.75"/>
     <use xlink:href="#m9bc8996b51" x="118.645164" y="46.784114" style="fill: #7570b3; stroke: #000000; stroke-width: 0.75"/>
     <use xlink:href="#m9bc8996b51" x="127.995218" y="36.830419" style="fill: #7570b3; stroke: #000000; stroke-width: 0.75"/>
     <use xlink:href="#m9bc8996b51" x="159.568591" y="22.553403" style="fill: #7570b3; stroke: #000000; stroke-width: 0.75"/>
     <use xlink:href="#m9bc8996b51" x="177.049127" y="20.442013" style="fill: #7570b3; stroke: #000000; stroke-width: 0.75"/>
    </g>
   </g>
  </g>
  <g id="axes_2">
   <g id="legend_1">
    <g id="patch_7">
     <path d="M 43.336084 185.189273 
L 242.356207 185.189273 
Q 244.556207 185.189273 244.556207 182.989273 
L 244.556207 168.511197 
Q 244.556207 166.311197 242.356207 166.311197 
L 43.336084 166.311197 
Q 41.136084 166.311197 41.136084 168.511197 
L 41.136084 182.989273 
Q 41.136084 185.189273 43.336084 185.189273 
z
" style="fill: #ffffff; opacity: 0.8; stroke: #000000; stroke-linejoin: miter"/>
    </g>
    <g id="line2d_55">
     <path d="M 45.536084 174.561197 
L 56.536084 174.561197 
L 67.536084 174.561197 
" style="fill: none; stroke: #ffffff; stroke-width: 0.75; stroke-linecap: square"/>
     <defs>
      <path id="mc7a6614290" d="M -1.913417 -4.619398 
L -4.619398 -1.913417 
L -4.619398 1.913417 
L -1.913417 4.619398 
L 1.913417 4.619398 
L 4.619398 1.913417 
L 4.619398 -1.913417 
L 1.913417 -4.619398 
z
" style="stroke: #000000; stroke-linejoin: miter"/>
     </defs>
     <g>
      <use xlink:href="#mc7a6614290" x="56.536084" y="174.561197" style="fill: #d95f02; stroke: #000000; stroke-linejoin: miter"/>
     </g>
    </g>
    <g id="text_13">
     <!-- \textbf{$T = 1150$ [$^\circ C $]} -->
     <g transform="translate(76.336084 178.411197) scale(0.11 -0.11)">
      <defs>
       <path id="NewTXBMI-5a" d="M 3930 3057 
L 4160 4288 
L 634 4288 
L 390 3192 
L 550 3147 
C 883 3792 1286 4057 1939 4057 
L 992 621 
C 902 288 736 160 410 160 
L 320 160 
L 320 0 
L 2438 0 
L 2438 160 
C 1984 160 1907 199 1907 404 
C 1907 501 1933 629 1978 803 
L 2874 4057 
C 3475 4057 3725 3781 3757 3070 
L 3930 3057 
z
" transform="scale(0.015625)"/>
       <path id="txbmiaX-3d" d="M 3930 2137 
L 3930 2752 
L 397 2752 
L 397 2137 
L 3930 2137 
z
M 3930 576 
L 3930 1190 
L 397 1190 
L 397 576 
L 3930 576 
z
" transform="scale(0.015625)"/>
       <path id="txbsys-e" d="M 2955 1640 
C 2955 2347 2386 2915 1676 2915 
C 960 2915 397 2347 397 1640 
C 397 926 960 365 1676 365 
C 2386 365 2955 926 2955 1640 
z
M 2482 1640 
C 2482 1188 2117 838 1676 838 
C 1222 838 870 1188 870 1640 
C 870 2078 1222 2441 1676 2441 
C 2117 2441 2482 2078 2482 1640 
z
" transform="scale(0.015625)"/>
       <path id="NewTXBMI-49" d="M 3686 828 
L 3494 969 
C 3174 590 2995 442 2726 326 
C 2547 249 2349 211 2150 211 
C 1549 211 1190 628 1190 1329 
C 1190 2253 1638 3344 2214 3852 
C 2451 4051 2714 4160 2982 4160 
C 3501 4160 3821 3775 3821 3146 
C 3821 3062 3814 3004 3802 2921 
L 4006 2882 
L 4333 4384 
L 4141 4384 
C 4051 4243 3994 4198 3898 4198 
C 3846 4198 3750 4218 3654 4250 
C 3366 4339 3078 4384 2816 4384 
C 1389 4384 205 3094 205 1534 
C 205 539 902 -128 1946 -128 
C 2400 -128 2822 13 3187 289 
C 3373 431 3482 546 3686 828 
z
" transform="scale(0.015625)"/>
      </defs>
      <use xlink:href="#NewTXBMI-5a" transform="scale(0.996264)"/>
      <use xlink:href="#txbmiaX-3d" transform="translate(94.32405 0) scale(0.996264)"/>
      <use xlink:href="#TeXGyreTermesX-Bold-31" transform="translate(189.34539 0) scale(0.996264)"/>
      <use xlink:href="#TeXGyreTermesX-Bold-31" transform="translate(239.15859 0) scale(0.996264)"/>
      <use xlink:href="#TeXGyreTermesX-Bold-35" transform="translate(288.971791 0) scale(0.996264)"/>
      <use xlink:href="#TeXGyreTermesX-Bold-30" transform="translate(338.784991 0) scale(0.996264)"/>
      <use xlink:href="#TeXGyreTermesX-Bold-5b" transform="translate(413.504792 0) scale(0.996264)"/>
      <use xlink:href="#txbsys-e" transform="translate(446.680402 36.164371) scale(0.727268)"/>
      <use xlink:href="#NewTXBMI-49" transform="translate(485.68588 0) scale(0.996264)"/>
      <use xlink:href="#TeXGyreTermesX-Bold-5d" transform="translate(557.167792 0) scale(0.996264)"/>
     </g>
    </g>
    <g id="line2d_56">
     <path d="M 144.221145 174.561197 
L 155.221145 174.561197 
L 166.221145 174.561197 
" style="fill: none; stroke: #ffffff; stroke-width: 0.75; stroke-linecap: square"/>
     <defs>
      <path id="mac71fb8300" d="M -1.913417 -4.619398 
L -4.619398 -1.913417 
L -4.619398 1.913417 
L -1.913417 4.619398 
L 1.913417 4.619398 
L 4.619398 1.913417 
L 4.619398 -1.913417 
L 1.913417 -4.619398 
z
" style="stroke: #000000; stroke-linejoin: miter"/>
     </defs>
     <g>
      <use xlink:href="#mac71fb8300" x="155.221145" y="174.561197" style="fill: #7570b3; stroke: #000000; stroke-linejoin: miter"/>
     </g>
    </g>
    <g id="text_14">
     <!-- \textbf{$T = 1175$ [$^\circ C $]} -->
     <g transform="translate(175.021145 178.411197) scale(0.11 -0.11)">
      <use xlink:href="#NewTXBMI-5a" transform="scale(0.996264)"/>
      <use xlink:href="#txbmiaX-3d" transform="translate(94.32405 0) scale(0.996264)"/>
      <use xlink:href="#TeXGyreTermesX-Bold-31" transform="translate(189.34539 0) scale(0.996264)"/>
      <use xlink:href="#TeXGyreTermesX-Bold-31" transform="translate(239.15859 0) scale(0.996264)"/>
      <use xlink:href="#TeXGyreTermesX-Bold-37" transform="translate(288.971791 0) scale(0.996264)"/>
      <use xlink:href="#TeXGyreTermesX-Bold-35" transform="translate(338.784991 0) scale(0.996264)"/>
      <use xlink:href="#TeXGyreTermesX-Bold-5b" transform="translate(413.504792 0) scale(0.996264)"/>
      <use xlink:href="#txbsys-e" transform="translate(446.680402 36.164371) scale(0.727268)"/>
      <use xlink:href="#NewTXBMI-49" transform="translate(485.68588 0) scale(0.996264)"/>
      <use xlink:href="#TeXGyreTermesX-Bold-5d" transform="translate(557.167792 0) scale(0.996264)"/>
     </g>
    </g>
   </g>
  </g>
 </g>
 <defs>
  <clipPath id="pfd07f16a57">
   <rect x="48.552353" y="10.8" width="188.587586" height="114.497649"/>
  </clipPath>
 </defs>
</svg>
