<?xml version="1.0" encoding="utf-8" standalone="no"?>
<!DOCTYPE svg PUBLIC "-//W3C//DTD SVG 1.1//EN"
  "http://www.w3.org/Graphics/SVG/1.1/DTD/svg11.dtd">
<svg xmlns:xlink="http://www.w3.org/1999/xlink" width="288pt" height="216pt" viewBox="0 0 288 216" xmlns="http://www.w3.org/2000/svg" version="1.1">
 <metadata>
  <rdf:RDF xmlns:dc="http://purl.org/dc/elements/1.1/" xmlns:cc="http://creativecommons.org/ns#" xmlns:rdf="http://www.w3.org/1999/02/22-rdf-syntax-ns#">
   <cc:Work>
    <dc:type rdf:resource="http://purl.org/dc/dcmitype/StillImage"/>
    <dc:date>2024-12-06T15:47:55.712967</dc:date>
    <dc:format>image/svg+xml</dc:format>
    <dc:creator>
     <cc:Agent>
      <dc:title>Matplotlib v3.9.0, https://matplotlib.org/</dc:title>
     </cc:Agent>
    </dc:creator>
   </cc:Work>
  </rdf:RDF>
 </metadata>
 <defs>
  <style type="text/css">*{stroke-linejoin: round; stroke-linecap: butt}</style>
 </defs>
 <g id="figure_1">
  <g id="patch_1">
   <path d="M 0 216 
L 288 216 
L 288 0 
L 0 0 
z
" style="fill: #ffffff"/>
  </g>
  <g id="axes_1">
   <g id="patch_2">
    <path d="M 28.363987 189.497532 
L 277.03736 189.497532 
L 277.03736 4.419671 
L 28.363987 4.419671 
z
" style="fill: #ffffff"/>
   </g>
   <g id="PolyCollection_1">
    <path d="M 28.363987 32.716674 
L 28.363987 57.152933 
L 34.888944 57.152933 
L 41.413901 57.152933 
L 47.938859 57.152933 
L 54.463816 57.152933 
L 60.988773 57.152933 
L 67.513731 57.152933 
L 74.038688 57.152933 
L 80.563645 57.152933 
L 87.088602 57.152933 
L 93.61356 57.152933 
L 100.138517 57.152933 
L 106.663474 57.152933 
L 113.188432 57.152933 
L 119.713389 57.152933 
L 126.238346 57.152933 
L 132.763304 57.152933 
L 139.288261 57.152933 
L 145.813218 57.152933 
L 152.338176 57.152933 
L 158.863133 57.152933 
L 165.38809 57.152933 
L 171.913048 57.152933 
L 178.438005 57.152933 
L 184.962962 57.152933 
L 191.48792 57.152933 
L 198.012877 57.152933 
L 204.537834 57.152933 
L 211.062791 57.152933 
L 217.587749 57.152933 
L 224.112706 57.152933 
L 230.637663 57.152933 
L 237.162621 57.152933 
L 243.687578 57.152933 
L 250.212535 57.152933 
L 256.737493 57.152933 
L 263.26245 57.152933 
L 269.787407 57.152933 
L 276.312365 57.152933 
L 282.837322 57.152933 
L 289.362279 57.152933 
L 295.887237 57.152933 
L 302.412194 57.152933 
L 308.937151 57.152933 
L 315.462109 57.152933 
L 321.987066 57.152933 
L 328.512023 57.152933 
L 335.03698 57.152933 
L 341.561938 57.152933 
L 348.086895 57.152933 
L 348.086895 32.716674 
L 348.086895 32.716674 
L 341.561938 32.716674 
L 335.03698 32.716674 
L 328.512023 32.716674 
L 321.987066 32.716674 
L 315.462109 32.716674 
L 308.937151 32.716674 
L 302.412194 32.716674 
L 295.887237 32.716674 
L 289.362279 32.716674 
L 282.837322 32.716674 
L 276.312365 32.716674 
L 269.787407 32.716674 
L 263.26245 32.716674 
L 256.737493 32.716674 
L 250.212535 32.716674 
L 243.687578 32.716674 
L 237.162621 32.716674 
L 230.637663 32.716674 
L 224.112706 32.716674 
L 217.587749 32.716674 
L 211.062791 32.716674 
L 204.537834 32.716674 
L 198.012877 32.716674 
L 191.48792 32.716674 
L 184.962962 32.716674 
L 178.438005 32.716674 
L 171.913048 32.716674 
L 165.38809 32.716674 
L 158.863133 32.716674 
L 152.338176 32.716674 
L 145.813218 32.716674 
L 139.288261 32.716674 
L 132.763304 32.716674 
L 126.238346 32.716674 
L 119.713389 32.716674 
L 113.188432 32.716674 
L 106.663474 32.716674 
L 100.138517 32.716674 
L 93.61356 32.716674 
L 87.088602 32.716674 
L 80.563645 32.716674 
L 74.038688 32.716674 
L 67.513731 32.716674 
L 60.988773 32.716674 
L 54.463816 32.716674 
L 47.938859 32.716674 
L 41.413901 32.716674 
L 34.888944 32.716674 
L 28.363987 32.716674 
z
" clip-path="url(#p3ab0251767)" style="fill: #1b9e77; fill-opacity: 0.1; stroke: #1b9e77; stroke-opacity: 0.1"/>
   </g>
   <g id="PolyCollection_2">
    <path d="M 28.363987 50.903499 
L 28.363987 112.317511 
L 34.888944 112.317511 
L 41.413901 112.317511 
L 47.938859 112.317511 
L 54.463816 112.317511 
L 60.988773 112.317511 
L 67.513731 112.317511 
L 74.038688 112.317511 
L 80.563645 112.317511 
L 87.088602 112.317511 
L 93.61356 112.317511 
L 100.138517 112.317511 
L 106.663474 112.317511 
L 113.188432 112.317511 
L 119.713389 112.317511 
L 126.238346 112.317511 
L 132.763304 112.317511 
L 139.288261 112.317511 
L 145.813218 112.317511 
L 152.338176 112.317511 
L 158.863133 112.317511 
L 165.38809 112.317511 
L 171.913048 112.317511 
L 178.438005 112.317511 
L 184.962962 112.317511 
L 191.48792 112.317511 
L 198.012877 112.317511 
L 204.537834 112.317511 
L 211.062791 112.317511 
L 217.587749 112.317511 
L 224.112706 112.317511 
L 230.637663 112.317511 
L 237.162621 112.317511 
L 243.687578 112.317511 
L 250.212535 112.317511 
L 256.737493 112.317511 
L 263.26245 112.317511 
L 269.787407 112.317511 
L 276.312365 112.317511 
L 282.837322 112.317511 
L 289.362279 112.317511 
L 295.887237 112.317511 
L 302.412194 112.317511 
L 308.937151 112.317511 
L 315.462109 112.317511 
L 321.987066 112.317511 
L 328.512023 112.317511 
L 335.03698 112.317511 
L 341.561938 112.317511 
L 348.086895 112.317511 
L 348.086895 50.903499 
L 348.086895 50.903499 
L 341.561938 50.903499 
L 335.03698 50.903499 
L 328.512023 50.903499 
L 321.987066 50.903499 
L 315.462109 50.903499 
L 308.937151 50.903499 
L 302.412194 50.903499 
L 295.887237 50.903499 
L 289.362279 50.903499 
L 282.837322 50.903499 
L 276.312365 50.903499 
L 269.787407 50.903499 
L 263.26245 50.903499 
L 256.737493 50.903499 
L 250.212535 50.903499 
L 243.687578 50.903499 
L 237.162621 50.903499 
L 230.637663 50.903499 
L 224.112706 50.903499 
L 217.587749 50.903499 
L 211.062791 50.903499 
L 204.537834 50.903499 
L 198.012877 50.903499 
L 191.48792 50.903499 
L 184.962962 50.903499 
L 178.438005 50.903499 
L 171.913048 50.903499 
L 165.38809 50.903499 
L 158.863133 50.903499 
L 152.338176 50.903499 
L 145.813218 50.903499 
L 139.288261 50.903499 
L 132.763304 50.903499 
L 126.238346 50.903499 
L 119.713389 50.903499 
L 113.188432 50.903499 
L 106.663474 50.903499 
L 100.138517 50.903499 
L 93.61356 50.903499 
L 87.088602 50.903499 
L 80.563645 50.903499 
L 74.038688 50.903499 
L 67.513731 50.903499 
L 60.988773 50.903499 
L 54.463816 50.903499 
L 47.938859 50.903499 
L 41.413901 50.903499 
L 34.888944 50.903499 
L 28.363987 50.903499 
z
" clip-path="url(#p3ab0251767)" style="fill: #d95f02; fill-opacity: 0.1; stroke: #d95f02; stroke-opacity: 0.1"/>
   </g>
   <g id="matplotlib.axis_1">
    <g id="xtick_1">
     <g id="line2d_1">
      <defs>
       <path id="m21d81715dc" d="M 0 0 
L 0 -3.5 
" style="stroke: #000000; stroke-width: 0.8"/>
      </defs>
      <g>
       <use xlink:href="#m21d81715dc" x="28.363987" y="189.497532" style="stroke: #000000; stroke-width: 0.8"/>
      </g>
     </g>
     <g id="text_1">
      <!-- $\mathdefault{1050}$ -->
      <g transform="translate(18.401347 199.836875) scale(0.1 -0.1)">
       <defs>
        <path id="TeXGyreTermesX-Bold-31" d="M 2829 0 
L 2829 159 
C 2246 159 2138 255 2138 746 
L 2138 4384 
L 2029 4384 
L 416 3686 
L 416 3521 
C 474 3540 525 3559 544 3572 
C 717 3635 877 3680 960 3680 
C 1120 3680 1190 3540 1190 3241 
L 1190 790 
C 1190 267 1062 159 429 159 
L 429 0 
L 2829 0 
z
" transform="scale(0.015625)"/>
        <path id="TeXGyreTermesX-Bold-30" d="M 3046 2166 
C 3046 3440 2426 4403 1600 4403 
C 1184 4403 762 4123 499 3664 
C 294 3313 154 2714 154 2185 
C 154 873 755 -64 1606 -64 
C 2432 -64 3046 886 3046 2166 
z
M 2035 1434 
C 2035 1058 1984 561 1926 389 
C 1856 203 1754 114 1606 114 
C 1286 114 1165 491 1165 1434 
L 1165 2892 
C 1165 3855 1286 4224 1594 4224 
C 1907 4224 2035 3829 2035 2892 
L 2035 1434 
z
" transform="scale(0.015625)"/>
        <path id="TeXGyreTermesX-Bold-35" d="M 3008 4288 
L 947 4288 
L 326 2093 
C 934 2049 1197 2010 1478 1921 
C 2048 1743 2387 1381 2387 960 
C 2387 604 2106 324 1747 324 
C 1600 324 1427 400 1171 591 
C 896 795 704 877 538 877 
C 307 877 141 718 141 496 
C 141 159 512 -64 1082 -64 
C 2138 -64 2886 575 2886 1476 
C 2886 2140 2477 2652 1779 2850 
C 1536 2920 1338 2946 813 2946 
L 954 3481 
L 2733 3481 
L 3008 4288 
z
" transform="scale(0.015625)"/>
       </defs>
       <use xlink:href="#TeXGyreTermesX-Bold-31" transform="scale(0.996264)"/>
       <use xlink:href="#TeXGyreTermesX-Bold-30" transform="translate(49.8132 0) scale(0.996264)"/>
       <use xlink:href="#TeXGyreTermesX-Bold-35" transform="translate(99.626401 0) scale(0.996264)"/>
       <use xlink:href="#TeXGyreTermesX-Bold-30" transform="translate(149.439601 0) scale(0.996264)"/>
      </g>
     </g>
    </g>
    <g id="xtick_2">
     <g id="line2d_2">
      <g>
       <use xlink:href="#m21d81715dc" x="63.888754" y="189.497532" style="stroke: #000000; stroke-width: 0.8"/>
      </g>
     </g>
     <g id="text_2">
      <!-- $\mathdefault{1100}$ -->
      <g transform="translate(53.926114 199.836875) scale(0.1 -0.1)">
       <use xlink:href="#TeXGyreTermesX-Bold-31" transform="scale(0.996264)"/>
       <use xlink:href="#TeXGyreTermesX-Bold-31" transform="translate(49.8132 0) scale(0.996264)"/>
       <use xlink:href="#TeXGyreTermesX-Bold-30" transform="translate(99.626401 0) scale(0.996264)"/>
       <use xlink:href="#TeXGyreTermesX-Bold-30" transform="translate(149.439601 0) scale(0.996264)"/>
      </g>
     </g>
    </g>
    <g id="xtick_3">
     <g id="line2d_3">
      <g>
       <use xlink:href="#m21d81715dc" x="99.413522" y="189.497532" style="stroke: #000000; stroke-width: 0.8"/>
      </g>
     </g>
     <g id="text_3">
      <!-- $\mathdefault{1150}$ -->
      <g transform="translate(89.450882 199.836875) scale(0.1 -0.1)">
       <use xlink:href="#TeXGyreTermesX-Bold-31" transform="scale(0.996264)"/>
       <use xlink:href="#TeXGyreTermesX-Bold-31" transform="translate(49.8132 0) scale(0.996264)"/>
       <use xlink:href="#TeXGyreTermesX-Bold-35" transform="translate(99.626401 0) scale(0.996264)"/>
       <use xlink:href="#TeXGyreTermesX-Bold-30" transform="translate(149.439601 0) scale(0.996264)"/>
      </g>
     </g>
    </g>
    <g id="xtick_4">
     <g id="line2d_4">
      <g>
       <use xlink:href="#m21d81715dc" x="134.938289" y="189.497532" style="stroke: #000000; stroke-width: 0.8"/>
      </g>
     </g>
     <g id="text_4">
      <!-- $\mathdefault{1200}$ -->
      <g transform="translate(124.975649 199.836875) scale(0.1 -0.1)">
       <defs>
        <path id="TeXGyreTermesX-Bold-32" d="M 3059 1341 
L 2906 1341 
C 2720 884 2643 846 1990 846 
L 1024 846 
L 2061 1824 
C 2566 2301 2790 2726 2790 3210 
C 2790 3889 2298 4373 1606 4373 
C 1286 4373 979 4245 755 4016 
C 506 3768 378 3552 198 3075 
L 378 3075 
C 576 3469 813 3648 1158 3648 
C 1440 3648 1651 3527 1792 3298 
C 1869 3164 1920 2987 1920 2841 
C 1920 2561 1798 2211 1594 1900 
C 1267 1405 1043 1137 109 146 
L 109 0 
L 2771 0 
L 3059 1341 
z
" transform="scale(0.015625)"/>
       </defs>
       <use xlink:href="#TeXGyreTermesX-Bold-31" transform="scale(0.996264)"/>
       <use xlink:href="#TeXGyreTermesX-Bold-32" transform="translate(49.8132 0) scale(0.996264)"/>
       <use xlink:href="#TeXGyreTermesX-Bold-30" transform="translate(99.626401 0) scale(0.996264)"/>
       <use xlink:href="#TeXGyreTermesX-Bold-30" transform="translate(149.439601 0) scale(0.996264)"/>
      </g>
     </g>
    </g>
    <g id="xtick_5">
     <g id="line2d_5">
      <g>
       <use xlink:href="#m21d81715dc" x="170.463057" y="189.497532" style="stroke: #000000; stroke-width: 0.8"/>
      </g>
     </g>
     <g id="text_5">
      <!-- $\mathdefault{1250}$ -->
      <g transform="translate(160.500417 199.836875) scale(0.1 -0.1)">
       <use xlink:href="#TeXGyreTermesX-Bold-31" transform="scale(0.996264)"/>
       <use xlink:href="#TeXGyreTermesX-Bold-32" transform="translate(49.8132 0) scale(0.996264)"/>
       <use xlink:href="#TeXGyreTermesX-Bold-35" transform="translate(99.626401 0) scale(0.996264)"/>
       <use xlink:href="#TeXGyreTermesX-Bold-30" transform="translate(149.439601 0) scale(0.996264)"/>
      </g>
     </g>
    </g>
    <g id="xtick_6">
     <g id="line2d_6">
      <g>
       <use xlink:href="#m21d81715dc" x="205.987825" y="189.497532" style="stroke: #000000; stroke-width: 0.8"/>
      </g>
     </g>
     <g id="text_6">
      <!-- $\mathdefault{1300}$ -->
      <g transform="translate(196.025185 199.836875) scale(0.1 -0.1)">
       <defs>
        <path id="TeXGyreTermesX-Bold-33" d="M 2995 1596 
C 2995 1889 2899 2164 2714 2387 
C 2579 2540 2470 2617 2214 2732 
C 2624 2981 2746 3165 2746 3541 
C 2746 4090 2355 4416 1702 4416 
C 1069 4416 589 4097 237 3440 
L 371 3364 
C 614 3753 826 3900 1158 3900 
C 1562 3900 1811 3645 1811 3242 
C 1811 2822 1587 2598 979 2406 
L 979 2297 
C 1510 2112 1722 2004 1952 1786 
C 2150 1601 2266 1314 2266 1007 
C 2266 548 2022 254 1638 254 
C 1485 254 1363 324 1152 528 
C 902 778 710 880 518 880 
C 275 880 102 728 102 510 
C 102 166 493 -64 1082 -64 
C 2150 -64 2995 664 2995 1596 
z
" transform="scale(0.015625)"/>
       </defs>
       <use xlink:href="#TeXGyreTermesX-Bold-31" transform="scale(0.996264)"/>
       <use xlink:href="#TeXGyreTermesX-Bold-33" transform="translate(49.8132 0) scale(0.996264)"/>
       <use xlink:href="#TeXGyreTermesX-Bold-30" transform="translate(99.626401 0) scale(0.996264)"/>
       <use xlink:href="#TeXGyreTermesX-Bold-30" transform="translate(149.439601 0) scale(0.996264)"/>
      </g>
     </g>
    </g>
    <g id="xtick_7">
     <g id="line2d_7">
      <g>
       <use xlink:href="#m21d81715dc" x="241.512592" y="189.497532" style="stroke: #000000; stroke-width: 0.8"/>
      </g>
     </g>
     <g id="text_7">
      <!-- $\mathdefault{1350}$ -->
      <g transform="translate(231.549952 199.836875) scale(0.1 -0.1)">
       <use xlink:href="#TeXGyreTermesX-Bold-31" transform="scale(0.996264)"/>
       <use xlink:href="#TeXGyreTermesX-Bold-33" transform="translate(49.8132 0) scale(0.996264)"/>
       <use xlink:href="#TeXGyreTermesX-Bold-35" transform="translate(99.626401 0) scale(0.996264)"/>
       <use xlink:href="#TeXGyreTermesX-Bold-30" transform="translate(149.439601 0) scale(0.996264)"/>
      </g>
     </g>
    </g>
    <g id="xtick_8">
     <g id="line2d_8">
      <g>
       <use xlink:href="#m21d81715dc" x="277.03736" y="189.497532" style="stroke: #000000; stroke-width: 0.8"/>
      </g>
     </g>
     <g id="text_8">
      <!-- $\mathdefault{1400}$ -->
      <g transform="translate(267.07472 199.836875) scale(0.1 -0.1)">
       <defs>
        <path id="TeXGyreTermesX-Bold-34" d="M 3040 896 
L 3040 1602 
L 2637 1602 
L 2637 4352 
L 2125 4352 
L 1747 3863 
C 928 2803 506 2219 122 1615 
L 122 896 
L 1709 896 
L 1709 -32 
L 2637 -32 
L 2637 896 
L 3040 896 
z
M 1722 1602 
L 384 1602 
L 1722 3488 
L 1722 1602 
z
" transform="scale(0.015625)"/>
       </defs>
       <use xlink:href="#TeXGyreTermesX-Bold-31" transform="scale(0.996264)"/>
       <use xlink:href="#TeXGyreTermesX-Bold-34" transform="translate(49.8132 0) scale(0.996264)"/>
       <use xlink:href="#TeXGyreTermesX-Bold-30" transform="translate(99.626401 0) scale(0.996264)"/>
       <use xlink:href="#TeXGyreTermesX-Bold-30" transform="translate(149.439601 0) scale(0.996264)"/>
      </g>
     </g>
    </g>
    <g id="xtick_9">
     <g id="line2d_9">
      <defs>
       <path id="mb7df848b9c" d="M 0 0 
L 0 -2 
" style="stroke: #000000; stroke-width: 0.6"/>
      </defs>
      <g>
       <use xlink:href="#mb7df848b9c" x="35.46894" y="189.497532" style="stroke: #000000; stroke-width: 0.6"/>
      </g>
     </g>
    </g>
    <g id="xtick_10">
     <g id="line2d_10">
      <g>
       <use xlink:href="#mb7df848b9c" x="42.573894" y="189.497532" style="stroke: #000000; stroke-width: 0.6"/>
      </g>
     </g>
    </g>
    <g id="xtick_11">
     <g id="line2d_11">
      <g>
       <use xlink:href="#mb7df848b9c" x="49.678847" y="189.497532" style="stroke: #000000; stroke-width: 0.6"/>
      </g>
     </g>
    </g>
    <g id="xtick_12">
     <g id="line2d_12">
      <g>
       <use xlink:href="#mb7df848b9c" x="56.783801" y="189.497532" style="stroke: #000000; stroke-width: 0.6"/>
      </g>
     </g>
    </g>
    <g id="xtick_13">
     <g id="line2d_13">
      <g>
       <use xlink:href="#mb7df848b9c" x="70.993708" y="189.497532" style="stroke: #000000; stroke-width: 0.6"/>
      </g>
     </g>
    </g>
    <g id="xtick_14">
     <g id="line2d_14">
      <g>
       <use xlink:href="#mb7df848b9c" x="78.098661" y="189.497532" style="stroke: #000000; stroke-width: 0.6"/>
      </g>
     </g>
    </g>
    <g id="xtick_15">
     <g id="line2d_15">
      <g>
       <use xlink:href="#mb7df848b9c" x="85.203615" y="189.497532" style="stroke: #000000; stroke-width: 0.6"/>
      </g>
     </g>
    </g>
    <g id="xtick_16">
     <g id="line2d_16">
      <g>
       <use xlink:href="#mb7df848b9c" x="92.308568" y="189.497532" style="stroke: #000000; stroke-width: 0.6"/>
      </g>
     </g>
    </g>
    <g id="xtick_17">
     <g id="line2d_17">
      <g>
       <use xlink:href="#mb7df848b9c" x="106.518475" y="189.497532" style="stroke: #000000; stroke-width: 0.6"/>
      </g>
     </g>
    </g>
    <g id="xtick_18">
     <g id="line2d_18">
      <g>
       <use xlink:href="#mb7df848b9c" x="113.623429" y="189.497532" style="stroke: #000000; stroke-width: 0.6"/>
      </g>
     </g>
    </g>
    <g id="xtick_19">
     <g id="line2d_19">
      <g>
       <use xlink:href="#mb7df848b9c" x="120.728382" y="189.497532" style="stroke: #000000; stroke-width: 0.6"/>
      </g>
     </g>
    </g>
    <g id="xtick_20">
     <g id="line2d_20">
      <g>
       <use xlink:href="#mb7df848b9c" x="127.833336" y="189.497532" style="stroke: #000000; stroke-width: 0.6"/>
      </g>
     </g>
    </g>
    <g id="xtick_21">
     <g id="line2d_21">
      <g>
       <use xlink:href="#mb7df848b9c" x="142.043243" y="189.497532" style="stroke: #000000; stroke-width: 0.6"/>
      </g>
     </g>
    </g>
    <g id="xtick_22">
     <g id="line2d_22">
      <g>
       <use xlink:href="#mb7df848b9c" x="149.148196" y="189.497532" style="stroke: #000000; stroke-width: 0.6"/>
      </g>
     </g>
    </g>
    <g id="xtick_23">
     <g id="line2d_23">
      <g>
       <use xlink:href="#mb7df848b9c" x="156.25315" y="189.497532" style="stroke: #000000; stroke-width: 0.6"/>
      </g>
     </g>
    </g>
    <g id="xtick_24">
     <g id="line2d_24">
      <g>
       <use xlink:href="#mb7df848b9c" x="163.358104" y="189.497532" style="stroke: #000000; stroke-width: 0.6"/>
      </g>
     </g>
    </g>
    <g id="xtick_25">
     <g id="line2d_25">
      <g>
       <use xlink:href="#mb7df848b9c" x="177.568011" y="189.497532" style="stroke: #000000; stroke-width: 0.6"/>
      </g>
     </g>
    </g>
    <g id="xtick_26">
     <g id="line2d_26">
      <g>
       <use xlink:href="#mb7df848b9c" x="184.672964" y="189.497532" style="stroke: #000000; stroke-width: 0.6"/>
      </g>
     </g>
    </g>
    <g id="xtick_27">
     <g id="line2d_27">
      <g>
       <use xlink:href="#mb7df848b9c" x="191.777918" y="189.497532" style="stroke: #000000; stroke-width: 0.6"/>
      </g>
     </g>
    </g>
    <g id="xtick_28">
     <g id="line2d_28">
      <g>
       <use xlink:href="#mb7df848b9c" x="198.882871" y="189.497532" style="stroke: #000000; stroke-width: 0.6"/>
      </g>
     </g>
    </g>
    <g id="xtick_29">
     <g id="line2d_29">
      <g>
       <use xlink:href="#mb7df848b9c" x="213.092778" y="189.497532" style="stroke: #000000; stroke-width: 0.6"/>
      </g>
     </g>
    </g>
    <g id="xtick_30">
     <g id="line2d_30">
      <g>
       <use xlink:href="#mb7df848b9c" x="220.197732" y="189.497532" style="stroke: #000000; stroke-width: 0.6"/>
      </g>
     </g>
    </g>
    <g id="xtick_31">
     <g id="line2d_31">
      <g>
       <use xlink:href="#mb7df848b9c" x="227.302685" y="189.497532" style="stroke: #000000; stroke-width: 0.6"/>
      </g>
     </g>
    </g>
    <g id="xtick_32">
     <g id="line2d_32">
      <g>
       <use xlink:href="#mb7df848b9c" x="234.407639" y="189.497532" style="stroke: #000000; stroke-width: 0.6"/>
      </g>
     </g>
    </g>
    <g id="xtick_33">
     <g id="line2d_33">
      <g>
       <use xlink:href="#mb7df848b9c" x="248.617546" y="189.497532" style="stroke: #000000; stroke-width: 0.6"/>
      </g>
     </g>
    </g>
    <g id="xtick_34">
     <g id="line2d_34">
      <g>
       <use xlink:href="#mb7df848b9c" x="255.722499" y="189.497532" style="stroke: #000000; stroke-width: 0.6"/>
      </g>
     </g>
    </g>
    <g id="xtick_35">
     <g id="line2d_35">
      <g>
       <use xlink:href="#mb7df848b9c" x="262.827453" y="189.497532" style="stroke: #000000; stroke-width: 0.6"/>
      </g>
     </g>
    </g>
    <g id="xtick_36">
     <g id="line2d_36">
      <g>
       <use xlink:href="#mb7df848b9c" x="269.932406" y="189.497532" style="stroke: #000000; stroke-width: 0.6"/>
      </g>
     </g>
    </g>
    <g id="text_9">
     <!-- $T$ [$^\circ C$] -->
     <g transform="translate(139.056747 212.838109) scale(0.1 -0.1)">
      <defs>
       <path id="NewTXBMI-5a" d="M 3930 3057 
L 4160 4288 
L 634 4288 
L 390 3192 
L 550 3147 
C 883 3792 1286 4057 1939 4057 
L 992 621 
C 902 288 736 160 410 160 
L 320 160 
L 320 0 
L 2438 0 
L 2438 160 
C 1984 160 1907 199 1907 404 
C 1907 501 1933 629 1978 803 
L 2874 4057 
C 3475 4057 3725 3781 3757 3070 
L 3930 3057 
z
" transform="scale(0.015625)"/>
       <path id="TeXGyreTermesX-Regular-5b" d="M 1914 -1024 
L 1914 -864 
L 1363 -864 
C 1152 -864 1050 -756 1050 -531 
L 1050 3781 
C 1050 3981 1133 4064 1338 4064 
L 1914 4064 
L 1914 4224 
L 563 4224 
L 563 -1024 
L 1914 -1024 
z
" transform="scale(0.015625)"/>
       <path id="txbsys-e" d="M 2955 1640 
C 2955 2347 2386 2915 1676 2915 
C 960 2915 397 2347 397 1640 
C 397 926 960 365 1676 365 
C 2386 365 2955 926 2955 1640 
z
M 2482 1640 
C 2482 1188 2117 838 1676 838 
C 1222 838 870 1188 870 1640 
C 870 2078 1222 2441 1676 2441 
C 2117 2441 2482 2078 2482 1640 
z
" transform="scale(0.015625)"/>
       <path id="NewTXBMI-49" d="M 3686 828 
L 3494 969 
C 3174 590 2995 442 2726 326 
C 2547 249 2349 211 2150 211 
C 1549 211 1190 628 1190 1329 
C 1190 2253 1638 3344 2214 3852 
C 2451 4051 2714 4160 2982 4160 
C 3501 4160 3821 3775 3821 3146 
C 3821 3062 3814 3004 3802 2921 
L 4006 2882 
L 4333 4384 
L 4141 4384 
C 4051 4243 3994 4198 3898 4198 
C 3846 4198 3750 4218 3654 4250 
C 3366 4339 3078 4384 2816 4384 
C 1389 4384 205 3094 205 1534 
C 205 539 902 -128 1946 -128 
C 2400 -128 2822 13 3187 289 
C 3373 431 3482 546 3686 828 
z
" transform="scale(0.015625)"/>
       <path id="TeXGyreTermesX-Regular-5d" d="M 1568 -1024 
L 1568 4224 
L 218 4224 
L 218 4064 
L 768 4064 
C 979 4064 1082 3955 1082 3730 
L 1082 -582 
C 1082 -781 992 -864 794 -864 
L 218 -864 
L 218 -1024 
L 1568 -1024 
z
" transform="scale(0.015625)"/>
      </defs>
      <use xlink:href="#NewTXBMI-5a" transform="scale(0.996264)"/>
      <use xlink:href="#TeXGyreTermesX-Regular-5b" transform="translate(91.556717 0) scale(0.996264)"/>
      <use xlink:href="#txbsys-e" transform="translate(124.732327 36.164371) scale(0.727268)"/>
      <use xlink:href="#NewTXBMI-49" transform="translate(163.737805 0) scale(0.996264)"/>
      <use xlink:href="#TeXGyreTermesX-Regular-5d" transform="translate(235.219717 0) scale(0.996264)"/>
     </g>
    </g>
   </g>
   <g id="matplotlib.axis_2">
    <g id="ytick_1">
     <g id="line2d_37">
      <defs>
       <path id="me4034c5417" d="M 0 0 
L 3.5 0 
" style="stroke: #000000; stroke-width: 0.8"/>
      </defs>
      <g>
       <use xlink:href="#me4034c5417" x="28.363987" y="189.497532" style="stroke: #000000; stroke-width: 0.8"/>
      </g>
     </g>
     <g id="text_10">
      <!-- $\mathdefault{8}$ -->
      <g transform="translate(19.882667 192.917204) scale(0.1 -0.1)">
       <defs>
        <path id="TeXGyreTermesX-Bold-38" d="M 3021 1212 
C 3021 1768 2746 2164 2061 2597 
C 2675 2815 2931 3075 2931 3483 
C 2931 4051 2445 4409 1683 4409 
C 819 4409 250 3961 250 3292 
C 250 2814 506 2462 1139 2086 
C 774 1965 627 1881 461 1722 
C 275 1543 179 1301 179 1020 
C 179 370 723 -64 1536 -64 
C 2426 -64 3021 447 3021 1212 
z
M 2170 3439 
C 2170 3139 2118 2993 1907 2712 
C 1370 2986 1075 3337 1075 3694 
C 1075 3994 1306 4224 1606 4224 
C 1965 4224 2170 3937 2170 3439 
z
M 2131 829 
C 2131 402 1920 140 1574 140 
C 1184 140 954 478 954 1046 
C 954 1397 1024 1595 1280 1971 
C 1978 1505 2131 1301 2131 829 
z
" transform="scale(0.015625)"/>
       </defs>
       <use xlink:href="#TeXGyreTermesX-Bold-38" transform="scale(0.996264)"/>
      </g>
     </g>
    </g>
    <g id="ytick_2">
     <g id="line2d_38">
      <g>
       <use xlink:href="#me4034c5417" x="28.363987" y="163.057838" style="stroke: #000000; stroke-width: 0.8"/>
      </g>
     </g>
     <g id="text_11">
      <!-- $\mathdefault{10}$ -->
      <g transform="translate(14.901347 166.477509) scale(0.1 -0.1)">
       <use xlink:href="#TeXGyreTermesX-Bold-31" transform="scale(0.996264)"/>
       <use xlink:href="#TeXGyreTermesX-Bold-30" transform="translate(49.8132 0) scale(0.996264)"/>
      </g>
     </g>
    </g>
    <g id="ytick_3">
     <g id="line2d_39">
      <g>
       <use xlink:href="#me4034c5417" x="28.363987" y="136.618144" style="stroke: #000000; stroke-width: 0.8"/>
      </g>
     </g>
     <g id="text_12">
      <!-- $\mathdefault{12}$ -->
      <g transform="translate(14.901347 140.037815) scale(0.1 -0.1)">
       <use xlink:href="#TeXGyreTermesX-Bold-31" transform="scale(0.996264)"/>
       <use xlink:href="#TeXGyreTermesX-Bold-32" transform="translate(49.8132 0) scale(0.996264)"/>
      </g>
     </g>
    </g>
    <g id="ytick_4">
     <g id="line2d_40">
      <g>
       <use xlink:href="#me4034c5417" x="28.363987" y="110.178449" style="stroke: #000000; stroke-width: 0.8"/>
      </g>
     </g>
     <g id="text_13">
      <!-- $\mathdefault{14}$ -->
      <g transform="translate(14.901347 113.59812) scale(0.1 -0.1)">
       <use xlink:href="#TeXGyreTermesX-Bold-31" transform="scale(0.996264)"/>
       <use xlink:href="#TeXGyreTermesX-Bold-34" transform="translate(49.8132 0) scale(0.996264)"/>
      </g>
     </g>
    </g>
    <g id="ytick_5">
     <g id="line2d_41">
      <g>
       <use xlink:href="#me4034c5417" x="28.363987" y="83.738755" style="stroke: #000000; stroke-width: 0.8"/>
      </g>
     </g>
     <g id="text_14">
      <!-- $\mathdefault{16}$ -->
      <g transform="translate(14.901347 87.158426) scale(0.1 -0.1)">
       <defs>
        <path id="TeXGyreTermesX-Bold-36" d="M 3040 1427 
C 3040 2193 2573 2688 1843 2688 
C 1638 2688 1498 2663 1306 2580 
C 1542 3515 2074 4030 3008 4221 
L 3008 4387 
C 2157 4266 1760 4126 1274 3796 
C 557 3307 179 2596 179 1752 
C 179 654 768 -64 1664 -64 
C 2458 -64 3040 564 3040 1427 
z
M 2067 1046 
C 2067 298 1990 108 1677 108 
C 1530 108 1414 172 1350 291 
C 1242 501 1178 964 1178 1553 
C 1178 1946 1216 2307 1261 2339 
C 1312 2377 1402 2402 1491 2402 
C 1920 2402 2067 2054 2067 1046 
z
" transform="scale(0.015625)"/>
       </defs>
       <use xlink:href="#TeXGyreTermesX-Bold-31" transform="scale(0.996264)"/>
       <use xlink:href="#TeXGyreTermesX-Bold-36" transform="translate(49.8132 0) scale(0.996264)"/>
      </g>
     </g>
    </g>
    <g id="ytick_6">
     <g id="line2d_42">
      <g>
       <use xlink:href="#me4034c5417" x="28.363987" y="57.29906" style="stroke: #000000; stroke-width: 0.8"/>
      </g>
     </g>
     <g id="text_15">
      <!-- $\mathdefault{18}$ -->
      <g transform="translate(14.901347 60.718732) scale(0.1 -0.1)">
       <use xlink:href="#TeXGyreTermesX-Bold-31" transform="scale(0.996264)"/>
       <use xlink:href="#TeXGyreTermesX-Bold-38" transform="translate(49.8132 0) scale(0.996264)"/>
      </g>
     </g>
    </g>
    <g id="ytick_7">
     <g id="line2d_43">
      <g>
       <use xlink:href="#me4034c5417" x="28.363987" y="30.859366" style="stroke: #000000; stroke-width: 0.8"/>
      </g>
     </g>
     <g id="text_16">
      <!-- $\mathdefault{20}$ -->
      <g transform="translate(14.901347 34.279037) scale(0.1 -0.1)">
       <use xlink:href="#TeXGyreTermesX-Bold-32" transform="scale(0.996264)"/>
       <use xlink:href="#TeXGyreTermesX-Bold-30" transform="translate(49.8132 0) scale(0.996264)"/>
      </g>
     </g>
    </g>
    <g id="ytick_8">
     <g id="line2d_44">
      <g>
       <use xlink:href="#me4034c5417" x="28.363987" y="4.419671" style="stroke: #000000; stroke-width: 0.8"/>
      </g>
     </g>
     <g id="text_17">
      <!-- $\mathdefault{22}$ -->
      <g transform="translate(14.901347 7.839343) scale(0.1 -0.1)">
       <use xlink:href="#TeXGyreTermesX-Bold-32" transform="scale(0.996264)"/>
       <use xlink:href="#TeXGyreTermesX-Bold-32" transform="translate(49.8132 0) scale(0.996264)"/>
      </g>
     </g>
    </g>
    <g id="ytick_9">
     <g id="line2d_45">
      <defs>
       <path id="md04d54d4cf" d="M 0 0 
L 2 0 
" style="stroke: #000000; stroke-width: 0.6"/>
      </defs>
      <g>
       <use xlink:href="#md04d54d4cf" x="28.363987" y="184.209594" style="stroke: #000000; stroke-width: 0.6"/>
      </g>
     </g>
    </g>
    <g id="ytick_10">
     <g id="line2d_46">
      <g>
       <use xlink:href="#md04d54d4cf" x="28.363987" y="178.921655" style="stroke: #000000; stroke-width: 0.6"/>
      </g>
     </g>
    </g>
    <g id="ytick_11">
     <g id="line2d_47">
      <g>
       <use xlink:href="#md04d54d4cf" x="28.363987" y="173.633716" style="stroke: #000000; stroke-width: 0.6"/>
      </g>
     </g>
    </g>
    <g id="ytick_12">
     <g id="line2d_48">
      <g>
       <use xlink:href="#md04d54d4cf" x="28.363987" y="168.345777" style="stroke: #000000; stroke-width: 0.6"/>
      </g>
     </g>
    </g>
    <g id="ytick_13">
     <g id="line2d_49">
      <g>
       <use xlink:href="#md04d54d4cf" x="28.363987" y="157.769899" style="stroke: #000000; stroke-width: 0.6"/>
      </g>
     </g>
    </g>
    <g id="ytick_14">
     <g id="line2d_50">
      <g>
       <use xlink:href="#md04d54d4cf" x="28.363987" y="152.48196" style="stroke: #000000; stroke-width: 0.6"/>
      </g>
     </g>
    </g>
    <g id="ytick_15">
     <g id="line2d_51">
      <g>
       <use xlink:href="#md04d54d4cf" x="28.363987" y="147.194021" style="stroke: #000000; stroke-width: 0.6"/>
      </g>
     </g>
    </g>
    <g id="ytick_16">
     <g id="line2d_52">
      <g>
       <use xlink:href="#md04d54d4cf" x="28.363987" y="141.906082" style="stroke: #000000; stroke-width: 0.6"/>
      </g>
     </g>
    </g>
    <g id="ytick_17">
     <g id="line2d_53">
      <g>
       <use xlink:href="#md04d54d4cf" x="28.363987" y="131.330205" style="stroke: #000000; stroke-width: 0.6"/>
      </g>
     </g>
    </g>
    <g id="ytick_18">
     <g id="line2d_54">
      <g>
       <use xlink:href="#md04d54d4cf" x="28.363987" y="126.042266" style="stroke: #000000; stroke-width: 0.6"/>
      </g>
     </g>
    </g>
    <g id="ytick_19">
     <g id="line2d_55">
      <g>
       <use xlink:href="#md04d54d4cf" x="28.363987" y="120.754327" style="stroke: #000000; stroke-width: 0.6"/>
      </g>
     </g>
    </g>
    <g id="ytick_20">
     <g id="line2d_56">
      <g>
       <use xlink:href="#md04d54d4cf" x="28.363987" y="115.466388" style="stroke: #000000; stroke-width: 0.6"/>
      </g>
     </g>
    </g>
    <g id="ytick_21">
     <g id="line2d_57">
      <g>
       <use xlink:href="#md04d54d4cf" x="28.363987" y="104.89051" style="stroke: #000000; stroke-width: 0.6"/>
      </g>
     </g>
    </g>
    <g id="ytick_22">
     <g id="line2d_58">
      <g>
       <use xlink:href="#md04d54d4cf" x="28.363987" y="99.602571" style="stroke: #000000; stroke-width: 0.6"/>
      </g>
     </g>
    </g>
    <g id="ytick_23">
     <g id="line2d_59">
      <g>
       <use xlink:href="#md04d54d4cf" x="28.363987" y="94.314632" style="stroke: #000000; stroke-width: 0.6"/>
      </g>
     </g>
    </g>
    <g id="ytick_24">
     <g id="line2d_60">
      <g>
       <use xlink:href="#md04d54d4cf" x="28.363987" y="89.026694" style="stroke: #000000; stroke-width: 0.6"/>
      </g>
     </g>
    </g>
    <g id="ytick_25">
     <g id="line2d_61">
      <g>
       <use xlink:href="#md04d54d4cf" x="28.363987" y="78.450816" style="stroke: #000000; stroke-width: 0.6"/>
      </g>
     </g>
    </g>
    <g id="ytick_26">
     <g id="line2d_62">
      <g>
       <use xlink:href="#md04d54d4cf" x="28.363987" y="73.162877" style="stroke: #000000; stroke-width: 0.6"/>
      </g>
     </g>
    </g>
    <g id="ytick_27">
     <g id="line2d_63">
      <g>
       <use xlink:href="#md04d54d4cf" x="28.363987" y="67.874938" style="stroke: #000000; stroke-width: 0.6"/>
      </g>
     </g>
    </g>
    <g id="ytick_28">
     <g id="line2d_64">
      <g>
       <use xlink:href="#md04d54d4cf" x="28.363987" y="62.586999" style="stroke: #000000; stroke-width: 0.6"/>
      </g>
     </g>
    </g>
    <g id="ytick_29">
     <g id="line2d_65">
      <g>
       <use xlink:href="#md04d54d4cf" x="28.363987" y="52.011121" style="stroke: #000000; stroke-width: 0.6"/>
      </g>
     </g>
    </g>
    <g id="ytick_30">
     <g id="line2d_66">
      <g>
       <use xlink:href="#md04d54d4cf" x="28.363987" y="46.723182" style="stroke: #000000; stroke-width: 0.6"/>
      </g>
     </g>
    </g>
    <g id="ytick_31">
     <g id="line2d_67">
      <g>
       <use xlink:href="#md04d54d4cf" x="28.363987" y="41.435244" style="stroke: #000000; stroke-width: 0.6"/>
      </g>
     </g>
    </g>
    <g id="ytick_32">
     <g id="line2d_68">
      <g>
       <use xlink:href="#md04d54d4cf" x="28.363987" y="36.147305" style="stroke: #000000; stroke-width: 0.6"/>
      </g>
     </g>
    </g>
    <g id="ytick_33">
     <g id="line2d_69">
      <g>
       <use xlink:href="#md04d54d4cf" x="28.363987" y="25.571427" style="stroke: #000000; stroke-width: 0.6"/>
      </g>
     </g>
    </g>
    <g id="ytick_34">
     <g id="line2d_70">
      <g>
       <use xlink:href="#md04d54d4cf" x="28.363987" y="20.283488" style="stroke: #000000; stroke-width: 0.6"/>
      </g>
     </g>
    </g>
    <g id="ytick_35">
     <g id="line2d_71">
      <g>
       <use xlink:href="#md04d54d4cf" x="28.363987" y="14.995549" style="stroke: #000000; stroke-width: 0.6"/>
      </g>
     </g>
    </g>
    <g id="ytick_36">
     <g id="line2d_72">
      <g>
       <use xlink:href="#md04d54d4cf" x="28.363987" y="9.70761" style="stroke: #000000; stroke-width: 0.6"/>
      </g>
     </g>
    </g>
    <g id="text_18">
     <!-- $HV_\Delta [\%]$ -->
     <g transform="translate(8.523271 116.637165) rotate(-90) scale(0.11 -0.11)">
      <defs>
       <path id="NewTXBMI-4e" d="M 4205 0 
L 4205 166 
C 3853 166 3738 230 3738 416 
C 3738 512 3763 640 3859 974 
L 3898 1116 
L 4595 3665 
C 4698 4005 4787 4082 5114 4127 
L 5114 4288 
L 3206 4288 
L 3206 4127 
L 3411 4095 
C 3610 4069 3674 4018 3674 3890 
C 3674 3813 3642 3621 3610 3499 
L 3309 2393 
L 1779 2393 
L 2125 3671 
C 2227 4025 2355 4121 2771 4121 
L 2771 4288 
L 742 4288 
L 742 4127 
L 941 4095 
C 1146 4069 1210 4011 1210 3871 
C 1210 3794 1190 3678 1139 3498 
L 358 622 
C 256 288 166 205 -154 160 
L -154 0 
L 1741 0 
L 1741 160 
C 1331 192 1274 230 1274 436 
C 1274 532 1293 647 1357 847 
L 1382 949 
L 1702 2112 
L 3232 2112 
L 2822 607 
C 2733 256 2605 166 2176 166 
L 2176 0 
L 4205 0 
z
" transform="scale(0.015625)"/>
       <path id="NewTXBMI-5c" d="M 4576 4096 
L 4576 4256 
L 3347 4256 
L 3347 4096 
L 3507 4083 
C 3686 4064 3763 4006 3763 3885 
C 3763 3745 3635 3470 3386 3075 
L 2170 1148 
L 1843 3706 
C 1837 3745 1837 3777 1837 3809 
C 1837 4025 1888 4057 2323 4096 
L 2323 4256 
L 416 4256 
L 416 4096 
C 813 4096 851 4032 992 3119 
L 1478 -128 
L 1683 -128 
L 4198 3841 
C 4282 3961 4397 4038 4576 4096 
z
" transform="scale(0.015625)"/>
       <path id="txbmiaX-1" d="M 3859 0 
L 2048 4320 
L 1965 4320 
L 154 0 
L 3859 0 
z
M 2733 224 
L 499 224 
L 1619 2895 
L 2733 224 
z
" transform="scale(0.015625)"/>
       <path id="txbsys-bb" d="M 1914 -928 
L 1555 -928 
C 1344 -928 1242 -819 1242 -595 
L 1242 3974 
C 1242 4173 1325 4256 1530 4256 
L 1914 4256 
L 1914 4544 
L 563 4544 
L 563 -1216 
L 1914 -1216 
L 1914 -928 
z
" transform="scale(0.015625)"/>
       <path id="TeXGyreTermesX-Bold-25" d="M 6029 1154 
C 6029 1792 5619 2372 5011 2372 
C 4371 2372 3910 1792 3910 1142 
C 3910 492 4378 -64 5011 -64 
C 5619 -64 6029 517 6029 1154 
z
M 4128 4416 
L 3859 4416 
C 3565 4098 3258 3968 2822 3968 
C 2547 3968 2362 4010 2150 4110 
C 1990 4234 1798 4305 1574 4305 
C 934 4305 474 3728 474 3082 
C 474 2435 941 1884 1574 1884 
C 2182 1884 2592 2466 2592 3105 
C 2592 3340 2534 3567 2438 3764 
C 2560 3739 2682 3726 2810 3726 
C 3066 3726 3315 3784 3578 3898 
L 2381 -64 
L 2765 -64 
L 4128 4416 
z
M 5850 1141 
C 5850 726 5626 229 5254 229 
C 4858 229 4685 688 4685 1141 
C 4685 1589 4858 2048 5254 2048 
C 5626 2048 5850 1551 5850 1141 
z
M 2413 3076 
C 2413 2666 2189 2176 1818 2176 
C 1421 2176 1248 2634 1248 3085 
C 1248 3517 1414 3968 1792 3968 
C 1907 3900 2035 3844 2157 3801 
C 2323 3621 2413 3329 2413 3076 
z
" transform="scale(0.015625)"/>
       <path id="txbsys-bc" d="M 256 -928 
L 256 -1216 
L 1606 -1216 
L 1606 4544 
L 256 4544 
L 256 4256 
L 640 4256 
C 845 4256 928 4173 928 3974 
L 928 -595 
C 928 -819 826 -928 614 -928 
L 256 -928 
z
" transform="scale(0.015625)"/>
      </defs>
      <use xlink:href="#NewTXBMI-4e" transform="scale(0.996264)"/>
      <use xlink:href="#NewTXBMI-5c" transform="translate(78.605194 0) scale(0.996264)"/>
      <use xlink:href="#txbmiaX-1" transform="translate(142.067208 -14.943915) scale(0.727268)"/>
      <use xlink:href="#txbsys-bb" transform="translate(188.165063 0) scale(0.996264)"/>
      <use xlink:href="#TeXGyreTermesX-Bold-25" transform="translate(221.938376 0) scale(0.996264)"/>
      <use xlink:href="#txbsys-bc" transform="translate(321.564777 0) scale(0.996264)"/>
     </g>
    </g>
   </g>
   <g id="line2d_73">
    <path d="M 28.363987 45.011505 
L 277.03736 45.011505 
" clip-path="url(#p3ab0251767)" style="fill: none; stroke-dasharray: 3.7,1.6; stroke-dashoffset: 0; stroke: #1b9e77"/>
   </g>
   <g id="line2d_74">
    <path d="M 28.363987 57.152933 
L 277.03736 57.152933 
" clip-path="url(#p3ab0251767)" style="fill: none; stroke-dasharray: 0.75,1.2375; stroke-dashoffset: 0; stroke: #1b9e77; stroke-width: 0.75"/>
   </g>
   <g id="line2d_75">
    <path d="M 28.363987 32.716674 
L 277.03736 32.716674 
" clip-path="url(#p3ab0251767)" style="fill: none; stroke-dasharray: 0.75,1.2375; stroke-dashoffset: 0; stroke: #1b9e77; stroke-width: 0.75"/>
   </g>
   <g id="LineCollection_1">
    <path d="M 63.888754 52.886048 
L 63.888754 39.957247 
" clip-path="url(#p3ab0251767)" style="fill: none; stroke: #000000"/>
    <path d="M 99.413522 55.313053 
L 99.413522 38.975478 
" clip-path="url(#p3ab0251767)" style="fill: none; stroke: #000000"/>
    <path d="M 117.175906 67.126141 
L 117.175906 31.601024 
" clip-path="url(#p3ab0251767)" style="fill: none; stroke: #000000"/>
    <path d="M 134.938289 53.867211 
L 134.938289 33.845667 
" clip-path="url(#p3ab0251767)" style="fill: none; stroke: #000000"/>
    <path d="M 152.700673 47.063049 
L 152.700673 32.077696 
" clip-path="url(#p3ab0251767)" style="fill: none; stroke: #000000"/>
    <path d="M 170.463057 52.545821 
L 170.463057 34.771978 
" clip-path="url(#p3ab0251767)" style="fill: none; stroke: #000000"/>
   </g>
   <g id="line2d_76">
    <defs>
     <path id="mae154ad26d" d="M 2 0 
L -2 -0 
" style="stroke: #000000"/>
    </defs>
    <g clip-path="url(#p3ab0251767)">
     <use xlink:href="#mae154ad26d" x="63.888754" y="52.886048" style="stroke: #000000"/>
     <use xlink:href="#mae154ad26d" x="99.413522" y="55.313053" style="stroke: #000000"/>
     <use xlink:href="#mae154ad26d" x="117.175906" y="67.126141" style="stroke: #000000"/>
     <use xlink:href="#mae154ad26d" x="134.938289" y="53.867211" style="stroke: #000000"/>
     <use xlink:href="#mae154ad26d" x="152.700673" y="47.063049" style="stroke: #000000"/>
     <use xlink:href="#mae154ad26d" x="170.463057" y="52.545821" style="stroke: #000000"/>
    </g>
   </g>
   <g id="line2d_77">
    <g clip-path="url(#p3ab0251767)">
     <use xlink:href="#mae154ad26d" x="63.888754" y="39.957247" style="stroke: #000000"/>
     <use xlink:href="#mae154ad26d" x="99.413522" y="38.975478" style="stroke: #000000"/>
     <use xlink:href="#mae154ad26d" x="117.175906" y="31.601024" style="stroke: #000000"/>
     <use xlink:href="#mae154ad26d" x="134.938289" y="33.845667" style="stroke: #000000"/>
     <use xlink:href="#mae154ad26d" x="152.700673" y="32.077696" style="stroke: #000000"/>
     <use xlink:href="#mae154ad26d" x="170.463057" y="34.771978" style="stroke: #000000"/>
    </g>
   </g>
   <g id="line2d_78">
    <path d="M 28.363987 78.01901 
L 277.03736 78.01901 
" clip-path="url(#p3ab0251767)" style="fill: none; stroke-dasharray: 3.7,1.6; stroke-dashoffset: 0; stroke: #d95f02"/>
   </g>
   <g id="line2d_79">
    <path d="M 28.363987 112.317511 
L 277.03736 112.317511 
" clip-path="url(#p3ab0251767)" style="fill: none; stroke-dasharray: 0.75,1.2375; stroke-dashoffset: 0; stroke: #d95f02; stroke-width: 0.75"/>
   </g>
   <g id="line2d_80">
    <path d="M 28.363987 50.903499 
L 277.03736 50.903499 
" clip-path="url(#p3ab0251767)" style="fill: none; stroke-dasharray: 0.75,1.2375; stroke-dashoffset: 0; stroke: #d95f02; stroke-width: 0.75"/>
   </g>
   <g id="LineCollection_2">
    <path d="M 99.413522 123.12756 
L 99.413522 75.853951 
" clip-path="url(#p3ab0251767)" style="fill: none; stroke: #000000"/>
    <path d="M 117.175906 91.210731 
L 117.175906 47.719783 
" clip-path="url(#p3ab0251767)" style="fill: none; stroke: #000000"/>
    <path d="M 134.938289 92.359806 
L 134.938289 61.132956 
" clip-path="url(#p3ab0251767)" style="fill: none; stroke: #000000"/>
    <path d="M 170.463057 93.998541 
L 170.463057 48.524004 
" clip-path="url(#p3ab0251767)" style="fill: none; stroke: #000000"/>
    <path d="M 241.512592 94.501845 
L 241.512592 52.573492 
" clip-path="url(#p3ab0251767)" style="fill: none; stroke: #000000"/>
   </g>
   <g id="line2d_81">
    <g clip-path="url(#p3ab0251767)">
     <use xlink:href="#mae154ad26d" x="99.413522" y="123.12756" style="stroke: #000000"/>
     <use xlink:href="#mae154ad26d" x="117.175906" y="91.210731" style="stroke: #000000"/>
     <use xlink:href="#mae154ad26d" x="134.938289" y="92.359806" style="stroke: #000000"/>
     <use xlink:href="#mae154ad26d" x="170.463057" y="93.998541" style="stroke: #000000"/>
     <use xlink:href="#mae154ad26d" x="241.512592" y="94.501845" style="stroke: #000000"/>
    </g>
   </g>
   <g id="line2d_82">
    <g clip-path="url(#p3ab0251767)">
     <use xlink:href="#mae154ad26d" x="99.413522" y="75.853951" style="stroke: #000000"/>
     <use xlink:href="#mae154ad26d" x="117.175906" y="47.719783" style="stroke: #000000"/>
     <use xlink:href="#mae154ad26d" x="134.938289" y="61.132956" style="stroke: #000000"/>
     <use xlink:href="#mae154ad26d" x="170.463057" y="48.524004" style="stroke: #000000"/>
     <use xlink:href="#mae154ad26d" x="241.512592" y="52.573492" style="stroke: #000000"/>
    </g>
   </g>
   <g id="patch_3">
    <path d="M 28.363987 189.497532 
L 28.363987 4.419671 
" style="fill: none; stroke: #000000; stroke-width: 0.8; stroke-linejoin: miter; stroke-linecap: square"/>
   </g>
   <g id="patch_4">
    <path d="M 277.03736 189.497532 
L 277.03736 4.419671 
" style="fill: none; stroke: #000000; stroke-width: 0.8; stroke-linejoin: miter; stroke-linecap: square"/>
   </g>
   <g id="patch_5">
    <path d="M 28.363987 189.497532 
L 277.03736 189.497532 
" style="fill: none; stroke: #000000; stroke-width: 0.8; stroke-linejoin: miter; stroke-linecap: square"/>
   </g>
   <g id="patch_6">
    <path d="M 28.363987 4.419671 
L 277.03736 4.419671 
" style="fill: none; stroke: #000000; stroke-width: 0.8; stroke-linejoin: miter; stroke-linecap: square"/>
   </g>
   <g id="legend_1">
    <g id="patch_7">
     <path d="M 34.663987 184.997532 
L 242.423808 184.997532 
Q 244.223808 184.997532 244.223808 183.197532 
L 244.223808 158.60615 
Q 244.223808 156.80615 242.423808 156.80615 
L 34.663987 156.80615 
Q 32.863987 156.80615 32.863987 158.60615 
L 32.863987 183.197532 
Q 32.863987 184.997532 34.663987 184.997532 
z
" style="fill: #ffffff; opacity: 0.8; stroke: #cccccc; stroke-linejoin: miter"/>
    </g>
    <g id="line2d_83">
     <path d="M 36.463987 163.55615 
L 45.463987 163.55615 
L 54.463987 163.55615 
" style="fill: none; stroke-dasharray: 3.7,1.6; stroke-dashoffset: 0; stroke: #1b9e77"/>
    </g>
    <g id="text_19">
     <!-- Mean -->
     <g transform="translate(61.663987 166.70615) scale(0.09 -0.09)">
      <defs>
       <path id="TeXGyreTermesX-Regular-4d" d="M 5523 0 
L 5523 134 
C 5056 134 4966 223 4966 681 
L 4966 3536 
C 4966 3993 5050 4077 5523 4115 
L 5523 4237 
L 4250 4237 
L 2835 1004 
L 1357 4237 
L 90 4237 
L 90 4096 
C 614 4096 698 4019 698 3550 
L 698 943 
C 698 282 608 159 77 121 
L 77 0 
L 1581 0 
L 1581 134 
C 1088 134 979 282 979 931 
L 979 3520 
L 2586 0 
L 2675 0 
L 4314 3667 
L 4314 751 
C 4314 217 4237 134 3731 134 
L 3731 0 
L 5523 0 
z
" transform="scale(0.015625)"/>
       <path id="TeXGyreTermesX-Regular-65" d="M 2714 1008 
L 2611 1053 
C 2304 564 2029 378 1619 378 
C 1267 378 998 545 813 892 
C 685 1142 634 1367 621 1779 
L 2592 1779 
C 2541 2193 2477 2377 2317 2581 
C 2125 2811 1830 2944 1498 2944 
C 704 2944 160 2304 160 1370 
C 160 486 621 -64 1357 -64 
C 1971 -64 2445 315 2714 1008 
z
M 1939 1984 
L 634 1984 
C 704 2485 922 2714 1312 2714 
C 1702 2714 1856 2535 1939 1984 
z
" transform="scale(0.015625)"/>
       <path id="TeXGyreTermesX-Regular-61" d="M 2829 256 
L 2829 423 
C 2720 333 2643 301 2547 301 
C 2400 301 2355 390 2355 672 
L 2355 1920 
C 2355 2246 2323 2426 2234 2573 
C 2099 2816 1824 2944 1434 2944 
C 1107 2944 800 2854 621 2707 
C 461 2573 358 2387 358 2227 
C 358 2080 480 1952 634 1952 
C 787 1952 922 2080 922 2221 
C 922 2246 915 2278 909 2323 
C 896 2381 890 2432 890 2477 
C 890 2650 1094 2790 1350 2790 
C 1664 2790 1837 2605 1837 2259 
L 1837 1869 
C 851 1472 742 1421 467 1178 
C 326 1050 237 832 237 621 
C 237 218 512 -64 909 -64 
C 1190 -64 1453 70 1843 403 
C 1875 64 1990 -64 2253 -64 
C 2470 -64 2605 13 2829 256 
z
M 1837 783 
C 1837 584 1805 526 1670 443 
C 1517 352 1338 301 1203 301 
C 979 301 800 520 800 796 
L 800 822 
C 800 1201 1062 1433 1837 1715 
L 1837 783 
z
" transform="scale(0.015625)"/>
       <path id="TeXGyreTermesX-Regular-6e" d="M 3104 32 
L 3104 128 
C 2790 160 2714 237 2714 550 
L 2714 2016 
C 2714 2618 2432 2976 1958 2976 
C 1664 2976 1466 2867 1030 2458 
L 1030 2963 
L 986 2976 
C 672 2861 454 2790 102 2688 
L 102 2579 
C 141 2598 205 2605 275 2605 
C 454 2605 512 2509 512 2195 
L 512 608 
C 512 243 442 154 115 128 
L 115 32 
L 1472 32 
L 1472 128 
C 1146 154 1050 230 1050 461 
L 1050 2259 
C 1357 2547 1498 2624 1709 2624 
C 2022 2624 2176 2426 2176 2003 
L 2176 666 
C 2176 262 2093 154 1773 128 
L 1773 32 
L 3104 32 
z
" transform="scale(0.015625)"/>
      </defs>
      <use xlink:href="#TeXGyreTermesX-Regular-4d" transform="scale(0.996264)"/>
      <use xlink:href="#TeXGyreTermesX-Regular-65" transform="translate(88.567864 0) scale(0.996264)"/>
      <use xlink:href="#TeXGyreTermesX-Regular-61" transform="translate(132.802011 0) scale(0.996264)"/>
      <use xlink:href="#TeXGyreTermesX-Regular-6e" transform="translate(177.036157 0) scale(0.996264)"/>
     </g>
    </g>
    <g id="PathCollection_1">
     <defs>
      <path id="m2772288bb8" d="M 0 -3.162278 
L -2.738613 -1.581139 
L -2.738613 1.581139 
L -0 3.162278 
L 2.738613 1.581139 
L 2.738613 -1.581139 
z
" style="stroke: #000000"/>
     </defs>
     <g>
      <use xlink:href="#m2772288bb8" x="45.463987" y="177.089341" style="fill: #1b9e77; stroke: #000000"/>
     </g>
    </g>
    <g id="text_20">
     <!-- Alfonso et. al. HR -->
     <g transform="translate(61.663987 179.451841) scale(0.09 -0.09)">
      <defs>
       <path id="TeXGyreTermesX-Regular-41" d="M 4518 0 
L 4518 128 
C 4230 128 4166 192 3942 667 
L 2349 4320 
L 2221 4320 
L 890 1163 
C 480 224 403 128 96 128 
L 96 0 
L 1363 0 
L 1363 128 
C 1056 128 928 212 928 393 
C 928 470 947 560 979 645 
L 1274 1401 
L 2950 1401 
L 3213 781 
C 3290 600 3334 438 3334 341 
C 3334 283 3296 212 3245 186 
C 3168 140 3117 128 2886 128 
L 2886 0 
L 4518 0 
z
M 2861 1664 
L 1382 1664 
L 2118 3416 
L 2861 1664 
z
" transform="scale(0.015625)"/>
       <path id="TeXGyreTermesX-Regular-6c" d="M 1645 0 
L 1645 109 
C 1235 109 1165 173 1165 528 
L 1165 4371 
L 1139 4384 
C 806 4275 563 4211 122 4103 
L 122 4000 
L 160 4000 
C 230 4000 307 4000 358 4000 
C 563 4000 627 3910 627 3610 
L 627 557 
C 627 211 538 128 134 96 
L 134 0 
L 1645 0 
z
" transform="scale(0.015625)"/>
       <path id="TeXGyreTermesX-Regular-66" d="M 2451 3959 
C 2451 4188 2170 4352 1786 4352 
C 1382 4352 1050 4181 883 3897 
C 717 3613 666 3385 659 2880 
L 134 2880 
L 134 2675 
L 659 2675 
L 659 656 
C 659 185 589 109 128 109 
L 128 0 
L 1792 0 
L 1792 109 
C 1267 109 1197 180 1197 661 
L 1197 2675 
L 1978 2675 
L 1978 2880 
L 1190 2880 
L 1190 3611 
C 1190 3984 1312 4173 1555 4173 
C 1696 4173 1779 4110 1894 3927 
C 1997 3757 2074 3700 2182 3700 
C 2336 3700 2451 3814 2451 3959 
z
" transform="scale(0.015625)"/>
       <path id="TeXGyreTermesX-Regular-6f" d="M 3008 1498 
C 3008 2336 2419 2944 1600 2944 
C 768 2944 186 2330 186 1446 
C 186 582 781 -64 1587 -64 
C 2394 -64 3008 614 3008 1498 
z
M 2432 1274 
C 2432 550 2144 115 1664 115 
C 1414 115 1178 269 1043 525 
C 864 858 762 1306 762 1760 
C 762 2368 1062 2765 1517 2765 
C 2054 2765 2432 2150 2432 1274 
z
" transform="scale(0.015625)"/>
       <path id="TeXGyreTermesX-Regular-73" d="M 2227 757 
C 2227 1077 2080 1289 1690 1520 
L 998 1930 
C 819 2033 723 2194 723 2367 
C 723 2630 922 2803 1216 2803 
C 1581 2803 1773 2590 1920 2010 
L 2016 2010 
L 1990 2880 
L 1920 2880 
L 1907 2867 
C 1850 2822 1843 2816 1818 2816 
C 1779 2816 1715 2829 1645 2861 
C 1510 2915 1363 2944 1210 2944 
C 685 2944 326 2623 326 2154 
C 326 1796 531 1545 1075 1231 
L 1446 1020 
C 1670 892 1779 737 1779 539 
C 1779 256 1574 77 1248 77 
C 806 77 582 316 435 960 
L 333 960 
L 333 -39 
L 416 -39 
C 461 33 486 48 563 48 
C 634 48 704 35 858 -2 
C 1037 -39 1197 -64 1331 -64 
C 1818 -64 2227 308 2227 757 
z
" transform="scale(0.015625)"/>
       <path id="TeXGyreTermesX-Regular-74" d="M 1786 422 
L 1702 493 
C 1562 326 1459 269 1318 269 
C 1082 269 986 435 986 845 
L 986 2675 
L 1632 2675 
L 1632 2880 
L 986 2880 
L 986 3622 
C 986 3686 973 3706 941 3706 
C 902 3642 858 3584 813 3526 
C 576 3174 358 2938 192 2836 
C 122 2785 83 2740 83 2697 
C 83 2675 90 2675 109 2675 
L 448 2675 
L 448 749 
C 448 211 640 -64 1011 -64 
C 1331 -64 1574 90 1786 422 
z
" transform="scale(0.015625)"/>
       <path id="TeXGyreTermesX-Regular-2e" d="M 1158 281 
C 1158 480 992 646 800 646 
C 608 646 448 480 448 281 
C 448 96 608 -64 794 -64 
C 992 -64 1158 96 1158 281 
z
" transform="scale(0.015625)"/>
       <path id="TeXGyreTermesX-Regular-48" d="M 4493 0 
L 4493 121 
C 4013 159 3930 242 3930 696 
L 3930 3529 
C 3930 3989 4000 4059 4493 4104 
L 4493 4224 
L 2714 4224 
L 2714 4104 
C 3206 4059 3277 3990 3277 3533 
L 3277 2304 
L 1338 2304 
L 1338 3533 
C 1338 3990 1408 4059 1901 4104 
L 1901 4224 
L 122 4224 
L 122 4104 
C 614 4059 685 3989 685 3527 
L 685 749 
C 685 210 621 134 122 134 
L 122 0 
L 1901 0 
L 1901 121 
C 1421 159 1338 242 1338 699 
L 1338 2022 
L 3277 2022 
L 3277 757 
C 3277 211 3213 134 2714 134 
L 2714 0 
L 4493 0 
z
" transform="scale(0.015625)"/>
       <path id="TeXGyreTermesX-Regular-52" d="M 4218 0 
L 4218 121 
C 3974 140 3846 205 3661 424 
L 2342 2061 
C 2771 2143 2963 2219 3174 2388 
C 3379 2553 3501 2818 3501 3113 
C 3501 3385 3418 3618 3251 3801 
C 3008 4059 2477 4224 1875 4224 
L 109 4224 
L 109 4102 
C 589 4051 653 3981 653 3528 
L 653 765 
C 653 236 589 159 109 121 
L 109 0 
L 1882 0 
L 1882 134 
C 1389 134 1306 219 1306 692 
L 1306 1984 
L 1664 1984 
L 3187 0 
L 4218 0 
z
M 2803 3123 
C 2803 2807 2669 2542 2438 2423 
C 2144 2258 1920 2221 1306 2221 
L 1306 3762 
C 1306 3937 1376 3987 1632 3987 
C 2432 3987 2803 3716 2803 3123 
z
" transform="scale(0.015625)"/>
      </defs>
      <use xlink:href="#TeXGyreTermesX-Regular-41" transform="scale(0.996264)"/>
      <use xlink:href="#TeXGyreTermesX-Regular-6c" transform="translate(71.930274 0) scale(0.996264)"/>
      <use xlink:href="#TeXGyreTermesX-Regular-66" transform="translate(99.626401 0) scale(0.996264)"/>
      <use xlink:href="#TeXGyreTermesX-Regular-6f" transform="translate(128.816955 0) scale(0.996264)"/>
      <use xlink:href="#TeXGyreTermesX-Regular-6e" transform="translate(178.630155 0) scale(0.996264)"/>
      <use xlink:href="#TeXGyreTermesX-Regular-73" transform="translate(228.443356 0) scale(0.996264)"/>
      <use xlink:href="#TeXGyreTermesX-Regular-6f" transform="translate(267.19802 0) scale(0.996264)"/>
      <use xlink:href="#TeXGyreTermesX-Regular-65" transform="translate(341.91782 0) scale(0.996264)"/>
      <use xlink:href="#TeXGyreTermesX-Regular-74" transform="translate(386.151967 0) scale(0.996264)"/>
      <use xlink:href="#TeXGyreTermesX-Regular-2e" transform="translate(413.848094 0) scale(0.996264)"/>
      <use xlink:href="#TeXGyreTermesX-Regular-61" transform="translate(474.719831 0) scale(0.996264)"/>
      <use xlink:href="#TeXGyreTermesX-Regular-6c" transform="translate(518.953978 0) scale(0.996264)"/>
      <use xlink:href="#TeXGyreTermesX-Regular-2e" transform="translate(546.650105 0) scale(0.996264)"/>
      <use xlink:href="#TeXGyreTermesX-Regular-48" transform="translate(607.521842 0) scale(0.996264)"/>
      <use xlink:href="#TeXGyreTermesX-Regular-52" transform="translate(679.452116 0) scale(0.996264)"/>
     </g>
    </g>
    <g id="PathCollection_2">
     <defs>
      <path id="m8d30354d2e" d="M -3.162278 3.162278 
L 3.162278 3.162278 
L 3.162278 -3.162278 
L -3.162278 -3.162278 
z
" style="stroke: #000000"/>
     </defs>
     <g>
      <use xlink:href="#m8d30354d2e" x="155.79521" y="164.34365" style="fill: #d95f02; stroke: #000000"/>
     </g>
    </g>
    <g id="text_21">
     <!-- Alfonso et. al. MR -->
     <g transform="translate(171.99521 166.70615) scale(0.09 -0.09)">
      <use xlink:href="#TeXGyreTermesX-Regular-41" transform="scale(0.996264)"/>
      <use xlink:href="#TeXGyreTermesX-Regular-6c" transform="translate(71.930274 0) scale(0.996264)"/>
      <use xlink:href="#TeXGyreTermesX-Regular-66" transform="translate(99.626401 0) scale(0.996264)"/>
      <use xlink:href="#TeXGyreTermesX-Regular-6f" transform="translate(128.816955 0) scale(0.996264)"/>
      <use xlink:href="#TeXGyreTermesX-Regular-6e" transform="translate(178.630155 0) scale(0.996264)"/>
      <use xlink:href="#TeXGyreTermesX-Regular-73" transform="translate(228.443356 0) scale(0.996264)"/>
      <use xlink:href="#TeXGyreTermesX-Regular-6f" transform="translate(267.19802 0) scale(0.996264)"/>
      <use xlink:href="#TeXGyreTermesX-Regular-65" transform="translate(341.91782 0) scale(0.996264)"/>
      <use xlink:href="#TeXGyreTermesX-Regular-74" transform="translate(386.151967 0) scale(0.996264)"/>
      <use xlink:href="#TeXGyreTermesX-Regular-2e" transform="translate(413.848094 0) scale(0.996264)"/>
      <use xlink:href="#TeXGyreTermesX-Regular-61" transform="translate(474.719831 0) scale(0.996264)"/>
      <use xlink:href="#TeXGyreTermesX-Regular-6c" transform="translate(518.953978 0) scale(0.996264)"/>
      <use xlink:href="#TeXGyreTermesX-Regular-2e" transform="translate(546.650105 0) scale(0.996264)"/>
      <use xlink:href="#TeXGyreTermesX-Regular-4d" transform="translate(607.521842 0) scale(0.996264)"/>
      <use xlink:href="#TeXGyreTermesX-Regular-52" transform="translate(696.089706 0) scale(0.996264)"/>
     </g>
    </g>
   </g>
   <g id="PathCollection_3">
    <g clip-path="url(#p3ab0251767)">
     <use xlink:href="#m2772288bb8" x="63.888754" y="46.3871" style="fill: #1b9e77; stroke: #000000"/>
     <use xlink:href="#m2772288bb8" x="99.413522" y="47.092056" style="fill: #1b9e77; stroke: #000000"/>
     <use xlink:href="#m2772288bb8" x="117.175906" y="49.439626" style="fill: #1b9e77; stroke: #000000"/>
     <use xlink:href="#m2772288bb8" x="134.938289" y="43.765944" style="fill: #1b9e77; stroke: #000000"/>
     <use xlink:href="#m2772288bb8" x="152.700673" y="39.598892" style="fill: #1b9e77; stroke: #000000"/>
     <use xlink:href="#m2772288bb8" x="170.463057" y="43.785413" style="fill: #1b9e77; stroke: #000000"/>
    </g>
   </g>
   <g id="PathCollection_4">
    <g clip-path="url(#p3ab0251767)">
     <use xlink:href="#m8d30354d2e" x="99.413522" y="99.917675" style="fill: #d95f02; stroke: #000000"/>
     <use xlink:href="#m8d30354d2e" x="117.175906" y="68.9146" style="fill: #d95f02; stroke: #000000"/>
     <use xlink:href="#m8d30354d2e" x="134.938289" y="76.599637" style="fill: #d95f02; stroke: #000000"/>
     <use xlink:href="#m8d30354d2e" x="170.463057" y="71.443048" style="fill: #d95f02; stroke: #000000"/>
     <use xlink:href="#m8d30354d2e" x="241.512592" y="73.220092" style="fill: #d95f02; stroke: #000000"/>
    </g>
   </g>
  </g>
 </g>
 <defs>
  <clipPath id="p3ab0251767">
   <rect x="28.363987" y="4.419671" width="248.673373" height="185.077861"/>
  </clipPath>
 </defs>
</svg>
