<?xml version="1.0" encoding="utf-8" standalone="no"?>
<!DOCTYPE svg PUBLIC "-//W3C//DTD SVG 1.1//EN"
  "http://www.w3.org/Graphics/SVG/1.1/DTD/svg11.dtd">
<svg xmlns:xlink="http://www.w3.org/1999/xlink" width="288pt" height="180pt" viewBox="0 0 288 180" xmlns="http://www.w3.org/2000/svg" version="1.1">
 <metadata>
  <rdf:RDF xmlns:dc="http://purl.org/dc/elements/1.1/" xmlns:cc="http://creativecommons.org/ns#" xmlns:rdf="http://www.w3.org/1999/02/22-rdf-syntax-ns#">
   <cc:Work>
    <dc:type rdf:resource="http://purl.org/dc/dcmitype/StillImage"/>
    <dc:date>2024-12-26T19:11:40.203872</dc:date>
    <dc:format>image/svg+xml</dc:format>
    <dc:creator>
     <cc:Agent>
      <dc:title>Matplotlib v3.10.0, https://matplotlib.org/</dc:title>
     </cc:Agent>
    </dc:creator>
   </cc:Work>
  </rdf:RDF>
 </metadata>
 <defs>
  <style type="text/css">*{stroke-linejoin: round; stroke-linecap: butt}</style>
 </defs>
 <g id="figure_1">
  <g id="patch_1">
   <path d="M 0 180 
L 288 180 
L 288 0 
L 0 0 
z
" style="fill: #ffffff"/>
  </g>
  <g id="axes_1">
   <g id="patch_2">
    <path d="M 36.16472 122.105709 
L 287 122.105709 
L 287 1 
L 36.16472 1 
z
" style="fill: #ffffff"/>
   </g>
   <g id="FillBetweenPolyCollection_1">
    <path d="M 11.081192 43.268462 
L 11.081192 113.112346 
L 17.224097 113.112346 
L 23.367002 113.112346 
L 29.509907 113.112346 
L 35.652812 113.112346 
L 41.795717 113.112346 
L 47.938621 113.112346 
L 54.081526 113.112346 
L 60.224431 113.112346 
L 66.367336 113.112346 
L 72.510241 113.112346 
L 78.653145 113.112346 
L 84.79605 113.112346 
L 90.938955 113.112346 
L 97.08186 113.112346 
L 103.224765 113.112346 
L 109.367669 113.112346 
L 115.510574 113.112346 
L 121.653479 113.112346 
L 127.796384 113.112346 
L 133.939289 113.112346 
L 140.082193 113.112346 
L 146.225098 113.112346 
L 152.368003 113.112346 
L 158.510908 113.112346 
L 164.653813 113.112346 
L 170.796717 113.112346 
L 176.939622 113.112346 
L 183.082527 113.112346 
L 189.225432 113.112346 
L 195.368337 113.112346 
L 201.511241 113.112346 
L 207.654146 113.112346 
L 213.797051 113.112346 
L 219.939956 113.112346 
L 226.082861 113.112346 
L 232.225765 113.112346 
L 238.36867 113.112346 
L 244.511575 113.112346 
L 250.65448 113.112346 
L 256.797385 113.112346 
L 262.94029 113.112346 
L 269.083194 113.112346 
L 275.226099 113.112346 
L 281.369004 113.112346 
L 287.511909 113.112346 
L 293.654814 113.112346 
L 299.797718 113.112346 
L 305.940623 113.112346 
L 312.083528 113.112346 
L 312.083528 43.268462 
L 312.083528 43.268462 
L 305.940623 43.268462 
L 299.797718 43.268462 
L 293.654814 43.268462 
L 287.511909 43.268462 
L 281.369004 43.268462 
L 275.226099 43.268462 
L 269.083194 43.268462 
L 262.94029 43.268462 
L 256.797385 43.268462 
L 250.65448 43.268462 
L 244.511575 43.268462 
L 238.36867 43.268462 
L 232.225765 43.268462 
L 226.082861 43.268462 
L 219.939956 43.268462 
L 213.797051 43.268462 
L 207.654146 43.268462 
L 201.511241 43.268462 
L 195.368337 43.268462 
L 189.225432 43.268462 
L 183.082527 43.268462 
L 176.939622 43.268462 
L 170.796717 43.268462 
L 164.653813 43.268462 
L 158.510908 43.268462 
L 152.368003 43.268462 
L 146.225098 43.268462 
L 140.082193 43.268462 
L 133.939289 43.268462 
L 127.796384 43.268462 
L 121.653479 43.268462 
L 115.510574 43.268462 
L 109.367669 43.268462 
L 103.224765 43.268462 
L 97.08186 43.268462 
L 90.938955 43.268462 
L 84.79605 43.268462 
L 78.653145 43.268462 
L 72.510241 43.268462 
L 66.367336 43.268462 
L 60.224431 43.268462 
L 54.081526 43.268462 
L 47.938621 43.268462 
L 41.795717 43.268462 
L 35.652812 43.268462 
L 29.509907 43.268462 
L 23.367002 43.268462 
L 17.224097 43.268462 
L 11.081192 43.268462 
z
" clip-path="url(#p22d8d4a206)" style="fill: #a65628; fill-opacity: 0.1; stroke: #a65628; stroke-opacity: 0.1"/>
   </g>
   <g id="matplotlib.axis_1">
    <g id="xtick_1">
     <g id="line2d_1">
      <defs>
       <path id="m65b47da701" d="M 0 0 
L 0 -3.5 
" style="stroke: #000000; stroke-width: 0.8"/>
      </defs>
      <g>
       <use xlink:href="#m65b47da701" x="61.248248" y="122.105709" style="stroke: #000000; stroke-width: 0.8"/>
      </g>
     </g>
     <g id="text_1">
      <!-- Pure W -->
      <g transform="translate(34.050648 146.607212) rotate(-30) scale(0.1 -0.1)">
       <defs>
        <path id="TeXGyreTermesX-Regular-50" d="M 3469 3078 
C 3469 3344 3379 3584 3206 3768 
C 2950 4047 2394 4224 1792 4224 
L 102 4224 
L 102 4102 
C 576 4051 640 3987 640 3528 
L 640 766 
C 640 230 589 166 102 122 
L 102 0 
L 1894 0 
L 1894 128 
C 1389 128 1293 218 1293 693 
L 1293 1875 
C 1459 1856 1568 1856 1734 1856 
C 2234 1856 2579 1919 2854 2072 
C 3238 2274 3469 2660 3469 3078 
z
M 2771 3040 
C 2771 2428 2394 2112 1658 2112 
C 1530 2112 1440 2119 1293 2131 
L 1293 3772 
C 1293 3943 1338 3987 1510 3987 
C 2374 3987 2771 3690 2771 3040 
z
" transform="scale(0.015625)"/>
        <path id="TeXGyreTermesX-Regular-75" d="M 3066 230 
L 3066 320 
L 3034 320 
C 2739 320 2669 390 2669 685 
L 2669 2880 
L 1658 2880 
L 1658 2758 
C 2054 2758 2131 2694 2131 2375 
L 2131 875 
C 2131 703 2099 607 2022 550 
C 1843 397 1645 320 1446 320 
C 1197 320 992 537 992 805 
L 992 2880 
L 58 2880 
L 58 2778 
C 365 2778 454 2682 454 2387 
L 454 770 
C 454 263 762 -64 1229 -64 
C 1466 -64 1715 38 1888 211 
L 2163 486 
L 2163 -45 
L 2189 -58 
C 2509 70 2739 141 3066 230 
z
" transform="scale(0.015625)"/>
        <path id="TeXGyreTermesX-Regular-72" d="M 2144 2605 
C 2144 2816 2010 2944 1792 2944 
C 1523 2944 1338 2797 1024 2343 
L 1024 2931 
L 992 2944 
C 653 2803 422 2721 45 2599 
L 45 2496 
C 134 2515 192 2522 269 2522 
C 429 2522 486 2419 486 2138 
L 486 538 
C 486 218 442 173 32 96 
L 32 0 
L 1568 0 
L 1568 102 
C 1133 102 1024 199 1024 565 
L 1024 2013 
C 1024 2219 1299 2541 1472 2541 
C 1510 2541 1568 2509 1638 2445 
C 1741 2355 1811 2317 1894 2317 
C 2048 2317 2144 2426 2144 2605 
z
" transform="scale(0.015625)"/>
        <path id="TeXGyreTermesX-Regular-65" d="M 2714 1008 
L 2611 1053 
C 2304 564 2029 378 1619 378 
C 1267 378 998 545 813 892 
C 685 1142 634 1367 621 1779 
L 2592 1779 
C 2541 2193 2477 2377 2317 2581 
C 2125 2811 1830 2944 1498 2944 
C 704 2944 160 2304 160 1370 
C 160 486 621 -64 1357 -64 
C 1971 -64 2445 315 2714 1008 
z
M 1939 1984 
L 634 1984 
C 704 2485 922 2714 1312 2714 
C 1702 2714 1856 2535 1939 1984 
z
" transform="scale(0.015625)"/>
        <path id="TeXGyreTermesX-Regular-57" d="M 5965 4102 
L 5965 4224 
L 4698 4224 
L 4698 4102 
C 5024 4070 5139 4000 5139 3826 
C 5139 3692 5101 3524 5037 3345 
L 4237 1169 
L 3392 3358 
L 3315 3551 
C 3258 3685 3219 3807 3219 3877 
C 3219 4032 3366 4096 3712 4096 
L 3712 4224 
L 2003 4224 
L 2003 4096 
C 2368 4096 2432 4038 2650 3524 
L 2861 2998 
L 2176 1188 
L 1254 3612 
C 1210 3728 1184 3838 1184 3909 
C 1184 4051 1274 4096 1600 4096 
L 1600 4224 
L 32 4224 
L 32 4102 
C 358 4070 454 3955 691 3351 
L 1926 -96 
L 2022 -96 
L 3008 2619 
L 4032 -96 
L 4128 -96 
L 5434 3647 
C 5555 3981 5626 4038 5965 4102 
z
" transform="scale(0.015625)"/>
       </defs>
       <use xlink:href="#TeXGyreTermesX-Regular-50" transform="scale(0.996264)"/>
       <use xlink:href="#TeXGyreTermesX-Regular-75" transform="translate(55.392255 0) scale(0.996264)"/>
       <use xlink:href="#TeXGyreTermesX-Regular-72" transform="translate(105.205455 0) scale(0.996264)"/>
       <use xlink:href="#TeXGyreTermesX-Regular-65" transform="translate(138.381065 0) scale(0.996264)"/>
       <use xlink:href="#TeXGyreTermesX-Regular-57" transform="translate(207.521812 0) scale(0.996264)"/>
      </g>
     </g>
    </g>
    <g id="xtick_2">
     <g id="line2d_2">
      <g>
       <use xlink:href="#m65b47da701" x="111.415304" y="122.105709" style="stroke: #000000; stroke-width: 0.8"/>
      </g>
     </g>
     <g id="text_2">
      <!-- K-doped W -->
      <g transform="translate(70.404441 154.582303) rotate(-30) scale(0.1 -0.1)">
       <defs>
        <path id="TeXGyreTermesX-Regular-4b" d="M 4627 0 
L 4627 122 
C 4294 122 4205 186 3622 808 
L 2131 2409 
L 3347 3611 
C 3782 4026 3885 4077 4320 4109 
L 4320 4231 
L 2643 4231 
L 2643 4109 
C 2720 4096 2784 4096 2810 4096 
C 3002 4096 3078 4045 3078 3917 
C 3078 3775 2931 3583 2579 3257 
L 1446 2224 
L 1446 3534 
C 1446 4000 1517 4071 2035 4109 
L 2035 4231 
L 218 4231 
L 218 4109 
C 717 4071 794 3987 794 3529 
L 794 740 
C 794 206 723 122 218 122 
L 218 0 
L 2022 0 
L 2022 122 
C 1523 122 1446 199 1446 675 
L 1446 1892 
L 1613 2026 
L 2291 1351 
C 2778 869 3123 411 3123 258 
C 3123 167 3034 122 2854 122 
C 2822 122 2752 122 2675 122 
L 2675 0 
L 4627 0 
z
" transform="scale(0.015625)"/>
        <path id="TeXGyreTermesX-Regular-2d" d="M 1824 1216 
L 1824 1619 
L 250 1619 
L 250 1216 
L 1824 1216 
z
" transform="scale(0.015625)"/>
        <path id="TeXGyreTermesX-Regular-64" d="M 3142 269 
L 3142 365 
C 3027 365 3014 365 2995 365 
C 2765 365 2714 435 2714 731 
L 2714 4364 
L 2682 4377 
C 2374 4268 2150 4204 1741 4096 
L 1741 3994 
C 1792 4000 1830 4000 1882 4000 
C 2118 4000 2176 3936 2176 3672 
L 2176 2669 
C 1933 2874 1760 2944 1504 2944 
C 768 2944 173 2221 173 1312 
C 173 493 653 -64 1357 -64 
C 1715 -64 1958 64 2176 365 
L 2176 -45 
L 2202 -64 
L 3142 269 
z
M 2176 653 
C 2176 608 2131 531 2067 461 
C 1952 333 1792 269 1606 269 
C 1075 269 723 781 723 1568 
C 723 2291 1037 2765 1523 2765 
C 1862 2765 2176 2464 2176 2125 
L 2176 653 
z
" transform="scale(0.015625)"/>
        <path id="TeXGyreTermesX-Regular-6f" d="M 3008 1498 
C 3008 2336 2419 2944 1600 2944 
C 768 2944 186 2330 186 1446 
C 186 582 781 -64 1587 -64 
C 2394 -64 3008 614 3008 1498 
z
M 2432 1274 
C 2432 550 2144 115 1664 115 
C 1414 115 1178 269 1043 525 
C 864 858 762 1306 762 1760 
C 762 2368 1062 2765 1517 2765 
C 2054 2765 2432 2150 2432 1274 
z
" transform="scale(0.015625)"/>
        <path id="TeXGyreTermesX-Regular-70" d="M 3008 1575 
C 3008 2372 2560 2944 1939 2944 
C 1581 2944 1299 2784 1018 2438 
L 1018 2931 
L 979 2944 
C 634 2810 410 2726 58 2618 
L 58 2516 
C 115 2522 160 2522 218 2522 
C 435 2522 480 2458 480 2155 
L 480 -855 
C 480 -1189 410 -1261 32 -1299 
L 32 -1408 
L 1581 -1408 
L 1581 -1293 
C 1101 -1293 1018 -1222 1018 -816 
L 1018 199 
C 1242 -13 1395 -77 1664 -77 
C 2419 -77 3008 643 3008 1575 
z
M 2458 1324 
C 2458 611 2144 128 1683 128 
C 1382 128 1018 359 1018 552 
L 1018 2136 
C 1018 2329 1376 2560 1670 2560 
C 2144 2560 2458 2071 2458 1324 
z
" transform="scale(0.015625)"/>
       </defs>
       <use xlink:href="#TeXGyreTermesX-Regular-4b" transform="scale(0.996264)"/>
       <use xlink:href="#TeXGyreTermesX-Regular-2d" transform="translate(65.454588 0) scale(0.996264)"/>
       <use xlink:href="#TeXGyreTermesX-Regular-64" transform="translate(98.630198 0) scale(0.996264)"/>
       <use xlink:href="#TeXGyreTermesX-Regular-6f" transform="translate(148.443398 0) scale(0.996264)"/>
       <use xlink:href="#TeXGyreTermesX-Regular-70" transform="translate(198.256599 0) scale(0.996264)"/>
       <use xlink:href="#TeXGyreTermesX-Regular-65" transform="translate(248.069799 0) scale(0.996264)"/>
       <use xlink:href="#TeXGyreTermesX-Regular-64" transform="translate(292.303946 0) scale(0.996264)"/>
       <use xlink:href="#TeXGyreTermesX-Regular-57" transform="translate(367.023746 0) scale(0.996264)"/>
      </g>
     </g>
    </g>
    <g id="xtick_3">
     <g id="line2d_3">
      <g>
       <use xlink:href="#m65b47da701" x="161.58236" y="122.105709" style="stroke: #000000; stroke-width: 0.8"/>
      </g>
     </g>
     <g id="text_3">
      <!-- Pure W data -->
      <g transform="translate(117.853701 156.151423) rotate(-30) scale(0.1 -0.1)">
       <defs>
        <path id="TeXGyreTermesX-Regular-61" d="M 2829 256 
L 2829 423 
C 2720 333 2643 301 2547 301 
C 2400 301 2355 390 2355 672 
L 2355 1920 
C 2355 2246 2323 2426 2234 2573 
C 2099 2816 1824 2944 1434 2944 
C 1107 2944 800 2854 621 2707 
C 461 2573 358 2387 358 2227 
C 358 2080 480 1952 634 1952 
C 787 1952 922 2080 922 2221 
C 922 2246 915 2278 909 2323 
C 896 2381 890 2432 890 2477 
C 890 2650 1094 2790 1350 2790 
C 1664 2790 1837 2605 1837 2259 
L 1837 1869 
C 851 1472 742 1421 467 1178 
C 326 1050 237 832 237 621 
C 237 218 512 -64 909 -64 
C 1190 -64 1453 70 1843 403 
C 1875 64 1990 -64 2253 -64 
C 2470 -64 2605 13 2829 256 
z
M 1837 783 
C 1837 584 1805 526 1670 443 
C 1517 352 1338 301 1203 301 
C 979 301 800 520 800 796 
L 800 822 
C 800 1201 1062 1433 1837 1715 
L 1837 783 
z
" transform="scale(0.015625)"/>
        <path id="TeXGyreTermesX-Regular-74" d="M 1786 422 
L 1702 493 
C 1562 326 1459 269 1318 269 
C 1082 269 986 435 986 845 
L 986 2675 
L 1632 2675 
L 1632 2880 
L 986 2880 
L 986 3622 
C 986 3686 973 3706 941 3706 
C 902 3642 858 3584 813 3526 
C 576 3174 358 2938 192 2836 
C 122 2785 83 2740 83 2697 
C 83 2675 90 2675 109 2675 
L 448 2675 
L 448 749 
C 448 211 640 -64 1011 -64 
C 1331 -64 1574 90 1786 422 
z
" transform="scale(0.015625)"/>
       </defs>
       <use xlink:href="#TeXGyreTermesX-Regular-50" transform="scale(0.996264)"/>
       <use xlink:href="#TeXGyreTermesX-Regular-75" transform="translate(55.392255 0) scale(0.996264)"/>
       <use xlink:href="#TeXGyreTermesX-Regular-72" transform="translate(105.205455 0) scale(0.996264)"/>
       <use xlink:href="#TeXGyreTermesX-Regular-65" transform="translate(138.381065 0) scale(0.996264)"/>
       <use xlink:href="#TeXGyreTermesX-Regular-57" transform="translate(207.521812 0) scale(0.996264)"/>
       <use xlink:href="#TeXGyreTermesX-Regular-64" transform="translate(326.475759 0) scale(0.996264)"/>
       <use xlink:href="#TeXGyreTermesX-Regular-61" transform="translate(376.288959 0) scale(0.996264)"/>
       <use xlink:href="#TeXGyreTermesX-Regular-74" transform="translate(420.523105 0) scale(0.996264)"/>
       <use xlink:href="#TeXGyreTermesX-Regular-61" transform="translate(448.219233 0) scale(0.996264)"/>
      </g>
     </g>
    </g>
    <g id="xtick_4">
     <g id="line2d_4">
      <g>
       <use xlink:href="#m65b47da701" x="211.749416" y="122.105709" style="stroke: #000000; stroke-width: 0.8"/>
      </g>
     </g>
     <g id="text_4">
      <!-- K-doped W data -->
      <g transform="translate(154.207495 164.126514) rotate(-30) scale(0.1 -0.1)">
       <use xlink:href="#TeXGyreTermesX-Regular-4b" transform="scale(0.996264)"/>
       <use xlink:href="#TeXGyreTermesX-Regular-2d" transform="translate(65.454588 0) scale(0.996264)"/>
       <use xlink:href="#TeXGyreTermesX-Regular-64" transform="translate(98.630198 0) scale(0.996264)"/>
       <use xlink:href="#TeXGyreTermesX-Regular-6f" transform="translate(148.443398 0) scale(0.996264)"/>
       <use xlink:href="#TeXGyreTermesX-Regular-70" transform="translate(198.256599 0) scale(0.996264)"/>
       <use xlink:href="#TeXGyreTermesX-Regular-65" transform="translate(248.069799 0) scale(0.996264)"/>
       <use xlink:href="#TeXGyreTermesX-Regular-64" transform="translate(292.303946 0) scale(0.996264)"/>
       <use xlink:href="#TeXGyreTermesX-Regular-57" transform="translate(367.023746 0) scale(0.996264)"/>
       <use xlink:href="#TeXGyreTermesX-Regular-64" transform="translate(485.977694 0) scale(0.996264)"/>
       <use xlink:href="#TeXGyreTermesX-Regular-61" transform="translate(535.790894 0) scale(0.996264)"/>
       <use xlink:href="#TeXGyreTermesX-Regular-74" transform="translate(580.02504 0) scale(0.996264)"/>
       <use xlink:href="#TeXGyreTermesX-Regular-61" transform="translate(607.721168 0) scale(0.996264)"/>
      </g>
     </g>
    </g>
    <g id="xtick_5">
     <g id="line2d_5">
      <g>
       <use xlink:href="#m65b47da701" x="261.916472" y="122.105709" style="stroke: #000000; stroke-width: 0.8"/>
      </g>
     </g>
     <g id="text_5">
      <!-- K-doped 3%Re W data -->
      <g transform="translate(224.736399 152.370595) rotate(-30) scale(0.1 -0.1)">
       <defs>
        <path id="TeXGyreTermesX-Regular-33" d="M 2765 1428 
C 2765 1754 2662 2055 2477 2253 
C 2349 2394 2227 2471 1946 2592 
C 2387 2893 2547 3130 2547 3476 
C 2547 3994 2138 4352 1549 4352 
C 1229 4352 947 4244 717 4039 
C 525 3866 429 3699 288 3315 
L 384 3290 
C 646 3757 934 3968 1338 3968 
C 1754 3968 2042 3687 2042 3284 
C 2042 3053 1946 2823 1786 2663 
C 1594 2471 1414 2375 979 2221 
L 979 2138 
C 1357 2138 1504 2125 1658 2068 
C 2054 1927 2304 1562 2304 1120 
C 2304 583 1939 167 1466 167 
C 1293 167 1165 212 928 365 
C 736 480 627 525 518 525 
C 371 525 275 436 275 301 
C 275 77 550 -64 998 -64 
C 1491 -64 1997 103 2298 365 
C 2598 628 2765 999 2765 1428 
z
" transform="scale(0.015625)"/>
       </defs>
       <use xlink:href="#TeXGyreTermesX-Regular-4b" transform="scale(0.996264)"/>
       <use xlink:href="#TeXGyreTermesX-Regular-2d" transform="translate(65.454588 0) scale(0.996264)"/>
       <use xlink:href="#TeXGyreTermesX-Regular-64" transform="translate(98.630198 0) scale(0.996264)"/>
       <use xlink:href="#TeXGyreTermesX-Regular-6f" transform="translate(148.443398 0) scale(0.996264)"/>
       <use xlink:href="#TeXGyreTermesX-Regular-70" transform="translate(198.256599 0) scale(0.996264)"/>
       <use xlink:href="#TeXGyreTermesX-Regular-65" transform="translate(248.069799 0) scale(0.996264)"/>
       <use xlink:href="#TeXGyreTermesX-Regular-64" transform="translate(292.303946 0) scale(0.996264)"/>
       <use xlink:href="#TeXGyreTermesX-Regular-33" transform="translate(367.023746 0) scale(0.996264)"/>
      </g>
     </g>
    </g>
    <g id="xtick_6">
     <g id="line2d_6">
      <defs>
       <path id="m8413871422" d="M 0 0 
L 0 -2 
" style="stroke: #000000; stroke-width: 0.6"/>
      </defs>
      <g>
       <use xlink:href="#m8413871422" x="41.181426" y="122.105709" style="stroke: #000000; stroke-width: 0.6"/>
      </g>
     </g>
    </g>
    <g id="xtick_7">
     <g id="line2d_7">
      <g>
       <use xlink:href="#m8413871422" x="51.214837" y="122.105709" style="stroke: #000000; stroke-width: 0.6"/>
      </g>
     </g>
    </g>
    <g id="xtick_8">
     <g id="line2d_8">
      <g>
       <use xlink:href="#m8413871422" x="71.28166" y="122.105709" style="stroke: #000000; stroke-width: 0.6"/>
      </g>
     </g>
    </g>
    <g id="xtick_9">
     <g id="line2d_9">
      <g>
       <use xlink:href="#m8413871422" x="81.315071" y="122.105709" style="stroke: #000000; stroke-width: 0.6"/>
      </g>
     </g>
    </g>
    <g id="xtick_10">
     <g id="line2d_10">
      <g>
       <use xlink:href="#m8413871422" x="91.348482" y="122.105709" style="stroke: #000000; stroke-width: 0.6"/>
      </g>
     </g>
    </g>
    <g id="xtick_11">
     <g id="line2d_11">
      <g>
       <use xlink:href="#m8413871422" x="101.381893" y="122.105709" style="stroke: #000000; stroke-width: 0.6"/>
      </g>
     </g>
    </g>
    <g id="xtick_12">
     <g id="line2d_12">
      <g>
       <use xlink:href="#m8413871422" x="121.448715" y="122.105709" style="stroke: #000000; stroke-width: 0.6"/>
      </g>
     </g>
    </g>
    <g id="xtick_13">
     <g id="line2d_13">
      <g>
       <use xlink:href="#m8413871422" x="131.482127" y="122.105709" style="stroke: #000000; stroke-width: 0.6"/>
      </g>
     </g>
    </g>
    <g id="xtick_14">
     <g id="line2d_14">
      <g>
       <use xlink:href="#m8413871422" x="141.515538" y="122.105709" style="stroke: #000000; stroke-width: 0.6"/>
      </g>
     </g>
    </g>
    <g id="xtick_15">
     <g id="line2d_15">
      <g>
       <use xlink:href="#m8413871422" x="151.548949" y="122.105709" style="stroke: #000000; stroke-width: 0.6"/>
      </g>
     </g>
    </g>
    <g id="xtick_16">
     <g id="line2d_16">
      <g>
       <use xlink:href="#m8413871422" x="171.615771" y="122.105709" style="stroke: #000000; stroke-width: 0.6"/>
      </g>
     </g>
    </g>
    <g id="xtick_17">
     <g id="line2d_17">
      <g>
       <use xlink:href="#m8413871422" x="181.649183" y="122.105709" style="stroke: #000000; stroke-width: 0.6"/>
      </g>
     </g>
    </g>
    <g id="xtick_18">
     <g id="line2d_18">
      <g>
       <use xlink:href="#m8413871422" x="191.682594" y="122.105709" style="stroke: #000000; stroke-width: 0.6"/>
      </g>
     </g>
    </g>
    <g id="xtick_19">
     <g id="line2d_19">
      <g>
       <use xlink:href="#m8413871422" x="201.716005" y="122.105709" style="stroke: #000000; stroke-width: 0.6"/>
      </g>
     </g>
    </g>
    <g id="xtick_20">
     <g id="line2d_20">
      <g>
       <use xlink:href="#m8413871422" x="221.782827" y="122.105709" style="stroke: #000000; stroke-width: 0.6"/>
      </g>
     </g>
    </g>
    <g id="xtick_21">
     <g id="line2d_21">
      <g>
       <use xlink:href="#m8413871422" x="231.816238" y="122.105709" style="stroke: #000000; stroke-width: 0.6"/>
      </g>
     </g>
    </g>
    <g id="xtick_22">
     <g id="line2d_22">
      <g>
       <use xlink:href="#m8413871422" x="241.84965" y="122.105709" style="stroke: #000000; stroke-width: 0.6"/>
      </g>
     </g>
    </g>
    <g id="xtick_23">
     <g id="line2d_23">
      <g>
       <use xlink:href="#m8413871422" x="251.883061" y="122.105709" style="stroke: #000000; stroke-width: 0.6"/>
      </g>
     </g>
    </g>
    <g id="xtick_24">
     <g id="line2d_24">
      <g>
       <use xlink:href="#m8413871422" x="271.949883" y="122.105709" style="stroke: #000000; stroke-width: 0.6"/>
      </g>
     </g>
    </g>
    <g id="xtick_25">
     <g id="line2d_25">
      <g>
       <use xlink:href="#m8413871422" x="281.983294" y="122.105709" style="stroke: #000000; stroke-width: 0.6"/>
      </g>
     </g>
    </g>
    <g id="text_6">
     <!-- \textbf{Alloy} -->
     <g transform="translate(150.459079 176.838109) scale(0.1 -0.1)">
      <defs>
       <path id="TeXGyreTermesX-Bold-41" d="M 4410 0 
L 4410 159 
C 4128 159 4058 248 3712 1042 
L 2285 4384 
L 2106 4384 
L 685 902 
C 442 305 365 216 58 159 
L 58 0 
L 1357 0 
L 1357 159 
C 979 159 832 232 832 406 
C 832 492 877 647 1018 1013 
L 1114 1280 
L 2554 1280 
C 2771 761 2848 532 2848 387 
C 2848 243 2765 184 2541 184 
L 2336 159 
L 2336 0 
L 4410 0 
z
M 2458 1528 
L 1210 1528 
L 1811 3057 
L 2458 1528 
z
" transform="scale(0.015625)"/>
       <path id="TeXGyreTermesX-Bold-6c" d="M 1632 0 
L 1632 153 
C 1421 153 1318 274 1318 528 
L 1318 4288 
L 102 4288 
L 102 4136 
C 326 4117 429 4002 429 3768 
L 429 533 
C 429 299 320 172 102 153 
L 102 0 
L 1632 0 
z
" transform="scale(0.015625)"/>
       <path id="TeXGyreTermesX-Bold-6f" d="M 3046 1471 
C 3046 2356 2432 3013 1606 3013 
C 794 3013 160 2349 160 1490 
C 160 587 768 -64 1606 -64 
C 2432 -64 3046 593 3046 1471 
z
M 2106 1433 
C 2106 462 1978 133 1606 133 
C 1229 133 1101 455 1101 1377 
C 1101 2487 1216 2816 1613 2816 
C 1984 2816 2106 2469 2106 1433 
z
" transform="scale(0.015625)"/>
       <path id="TeXGyreTermesX-Bold-79" d="M 3072 2791 
L 3072 2944 
L 2106 2944 
L 2106 2785 
C 2381 2785 2458 2740 2458 2587 
C 2458 2517 2445 2460 2387 2301 
L 1952 1080 
L 1491 2253 
C 1363 2576 1363 2576 1363 2627 
C 1363 2715 1440 2772 1600 2785 
L 1702 2785 
L 1702 2944 
L 102 2944 
L 102 2791 
C 250 2772 288 2753 326 2696 
C 346 2696 634 2076 742 1808 
L 1510 -61 
L 1395 -397 
C 1286 -714 1120 -917 973 -917 
C 915 -917 864 -866 864 -809 
C 864 -809 864 -790 870 -771 
C 877 -740 883 -708 883 -683 
C 883 -500 730 -372 512 -372 
C 275 -372 102 -538 102 -778 
C 102 -1070 358 -1280 723 -1280 
C 941 -1280 1126 -1203 1261 -1071 
C 1395 -925 1523 -671 1747 -75 
L 2701 2442 
C 2810 2709 2874 2772 3072 2791 
z
" transform="scale(0.015625)"/>
      </defs>
      <use xlink:href="#TeXGyreTermesX-Bold-41" transform="scale(0.996264)"/>
      <use xlink:href="#TeXGyreTermesX-Bold-6c" transform="translate(71.930274 0) scale(0.996264)"/>
      <use xlink:href="#TeXGyreTermesX-Bold-6c" transform="translate(99.626401 0) scale(0.996264)"/>
      <use xlink:href="#TeXGyreTermesX-Bold-6f" transform="translate(127.322528 0) scale(0.996264)"/>
      <use xlink:href="#TeXGyreTermesX-Bold-79" transform="translate(172.652526 0) scale(0.996264)"/>
     </g>
    </g>
   </g>
   <g id="matplotlib.axis_2">
    <g id="ytick_1">
     <g id="line2d_26">
      <defs>
       <path id="m9507a4a8da" d="M 0 0 
L 3.5 0 
" style="stroke: #000000; stroke-width: 0.8"/>
      </defs>
      <g>
       <use xlink:href="#m9507a4a8da" x="36.16472" y="110.264477" style="stroke: #000000; stroke-width: 0.8"/>
      </g>
     </g>
     <g id="text_7">
      <!-- $\mathdefault{15.0}$ -->
      <g transform="translate(14.901347 113.684148) scale(0.1 -0.1)">
       <defs>
        <path id="TeXGyreTermesX-Bold-31" d="M 2829 0 
L 2829 159 
C 2246 159 2138 255 2138 746 
L 2138 4384 
L 2029 4384 
L 416 3686 
L 416 3521 
C 474 3540 525 3559 544 3572 
C 717 3635 877 3680 960 3680 
C 1120 3680 1190 3540 1190 3241 
L 1190 790 
C 1190 267 1062 159 429 159 
L 429 0 
L 2829 0 
z
" transform="scale(0.015625)"/>
        <path id="TeXGyreTermesX-Bold-35" d="M 3008 4288 
L 947 4288 
L 326 2093 
C 934 2049 1197 2010 1478 1921 
C 2048 1743 2387 1381 2387 960 
C 2387 604 2106 324 1747 324 
C 1600 324 1427 400 1171 591 
C 896 795 704 877 538 877 
C 307 877 141 718 141 496 
C 141 159 512 -64 1082 -64 
C 2138 -64 2886 575 2886 1476 
C 2886 2140 2477 2652 1779 2850 
C 1536 2920 1338 2946 813 2946 
L 954 3481 
L 2733 3481 
L 3008 4288 
z
" transform="scale(0.015625)"/>
        <path id="NewTXBMI-93" d="M 1344 473 
C 1344 768 1101 1017 800 1017 
C 493 1017 262 761 262 473 
C 262 173 493 -64 800 -64 
C 1101 -64 1344 166 1344 473 
z
" transform="scale(0.015625)"/>
        <path id="TeXGyreTermesX-Bold-30" d="M 3046 2166 
C 3046 3440 2426 4403 1600 4403 
C 1184 4403 762 4123 499 3664 
C 294 3313 154 2714 154 2185 
C 154 873 755 -64 1606 -64 
C 2432 -64 3046 886 3046 2166 
z
M 2035 1434 
C 2035 1058 1984 561 1926 389 
C 1856 203 1754 114 1606 114 
C 1286 114 1165 491 1165 1434 
L 1165 2892 
C 1165 3855 1286 4224 1594 4224 
C 1907 4224 2035 3829 2035 2892 
L 2035 1434 
z
" transform="scale(0.015625)"/>
       </defs>
       <use xlink:href="#TeXGyreTermesX-Bold-31" transform="scale(0.996264)"/>
       <use xlink:href="#TeXGyreTermesX-Bold-35" transform="translate(49.8132 0) scale(0.996264)"/>
       <use xlink:href="#NewTXBMI-93" transform="translate(101.220399 0) scale(0.996264)"/>
       <use xlink:href="#TeXGyreTermesX-Bold-30" transform="translate(127.82066 0) scale(0.996264)"/>
      </g>
     </g>
    </g>
    <g id="ytick_2">
     <g id="line2d_27">
      <g>
       <use xlink:href="#m9507a4a8da" x="36.16472" y="85.843957" style="stroke: #000000; stroke-width: 0.8"/>
      </g>
     </g>
     <g id="text_8">
      <!-- $\mathdefault{17.5}$ -->
      <g transform="translate(14.901347 89.263628) scale(0.1 -0.1)">
       <defs>
        <path id="TeXGyreTermesX-Bold-37" d="M 3053 4327 
L 390 4327 
L 109 2916 
L 269 2916 
C 390 3322 544 3456 896 3456 
L 2221 3456 
L 941 32 
L 1549 32 
L 3053 4327 
z
" transform="scale(0.015625)"/>
       </defs>
       <use xlink:href="#TeXGyreTermesX-Bold-31" transform="scale(0.996264)"/>
       <use xlink:href="#TeXGyreTermesX-Bold-37" transform="translate(49.8132 0) scale(0.996264)"/>
       <use xlink:href="#NewTXBMI-93" transform="translate(101.220399 0) scale(0.996264)"/>
       <use xlink:href="#TeXGyreTermesX-Bold-35" transform="translate(127.82066 0) scale(0.996264)"/>
      </g>
     </g>
    </g>
    <g id="ytick_3">
     <g id="line2d_28">
      <g>
       <use xlink:href="#m9507a4a8da" x="36.16472" y="61.423436" style="stroke: #000000; stroke-width: 0.8"/>
      </g>
     </g>
     <g id="text_9">
      <!-- $\mathdefault{20.0}$ -->
      <g transform="translate(14.901347 64.843108) scale(0.1 -0.1)">
       <defs>
        <path id="TeXGyreTermesX-Bold-32" d="M 3059 1341 
L 2906 1341 
C 2720 884 2643 846 1990 846 
L 1024 846 
L 2061 1824 
C 2566 2301 2790 2726 2790 3210 
C 2790 3889 2298 4373 1606 4373 
C 1286 4373 979 4245 755 4016 
C 506 3768 378 3552 198 3075 
L 378 3075 
C 576 3469 813 3648 1158 3648 
C 1440 3648 1651 3527 1792 3298 
C 1869 3164 1920 2987 1920 2841 
C 1920 2561 1798 2211 1594 1900 
C 1267 1405 1043 1137 109 146 
L 109 0 
L 2771 0 
L 3059 1341 
z
" transform="scale(0.015625)"/>
       </defs>
       <use xlink:href="#TeXGyreTermesX-Bold-32" transform="scale(0.996264)"/>
       <use xlink:href="#TeXGyreTermesX-Bold-30" transform="translate(49.8132 0) scale(0.996264)"/>
       <use xlink:href="#NewTXBMI-93" transform="translate(101.220399 0) scale(0.996264)"/>
       <use xlink:href="#TeXGyreTermesX-Bold-30" transform="translate(127.82066 0) scale(0.996264)"/>
      </g>
     </g>
    </g>
    <g id="ytick_4">
     <g id="line2d_29">
      <g>
       <use xlink:href="#m9507a4a8da" x="36.16472" y="37.002916" style="stroke: #000000; stroke-width: 0.8"/>
      </g>
     </g>
     <g id="text_10">
      <!-- $\mathdefault{22.5}$ -->
      <g transform="translate(14.901347 40.422587) scale(0.1 -0.1)">
       <use xlink:href="#TeXGyreTermesX-Bold-32" transform="scale(0.996264)"/>
       <use xlink:href="#TeXGyreTermesX-Bold-32" transform="translate(49.8132 0) scale(0.996264)"/>
       <use xlink:href="#NewTXBMI-93" transform="translate(101.220399 0) scale(0.996264)"/>
       <use xlink:href="#TeXGyreTermesX-Bold-35" transform="translate(127.82066 0) scale(0.996264)"/>
      </g>
     </g>
    </g>
    <g id="ytick_5">
     <g id="line2d_30">
      <g>
       <use xlink:href="#m9507a4a8da" x="36.16472" y="12.582395" style="stroke: #000000; stroke-width: 0.8"/>
      </g>
     </g>
     <g id="text_11">
      <!-- $\mathdefault{25.0}$ -->
      <g transform="translate(14.901347 16.002067) scale(0.1 -0.1)">
       <use xlink:href="#TeXGyreTermesX-Bold-32" transform="scale(0.996264)"/>
       <use xlink:href="#TeXGyreTermesX-Bold-35" transform="translate(49.8132 0) scale(0.996264)"/>
       <use xlink:href="#NewTXBMI-93" transform="translate(101.220399 0) scale(0.996264)"/>
       <use xlink:href="#TeXGyreTermesX-Bold-30" transform="translate(127.82066 0) scale(0.996264)"/>
      </g>
     </g>
    </g>
    <g id="ytick_6">
     <g id="line2d_31">
      <defs>
       <path id="mc7caabec9f" d="M 0 0 
L 2 0 
" style="stroke: #000000; stroke-width: 0.6"/>
      </defs>
      <g>
       <use xlink:href="#mc7caabec9f" x="36.16472" y="120.032685" style="stroke: #000000; stroke-width: 0.6"/>
      </g>
     </g>
    </g>
    <g id="ytick_7">
     <g id="line2d_32">
      <g>
       <use xlink:href="#mc7caabec9f" x="36.16472" y="115.148581" style="stroke: #000000; stroke-width: 0.6"/>
      </g>
     </g>
    </g>
    <g id="ytick_8">
     <g id="line2d_33">
      <g>
       <use xlink:href="#mc7caabec9f" x="36.16472" y="105.380373" style="stroke: #000000; stroke-width: 0.6"/>
      </g>
     </g>
    </g>
    <g id="ytick_9">
     <g id="line2d_34">
      <g>
       <use xlink:href="#mc7caabec9f" x="36.16472" y="100.496269" style="stroke: #000000; stroke-width: 0.6"/>
      </g>
     </g>
    </g>
    <g id="ytick_10">
     <g id="line2d_35">
      <g>
       <use xlink:href="#mc7caabec9f" x="36.16472" y="95.612165" style="stroke: #000000; stroke-width: 0.6"/>
      </g>
     </g>
    </g>
    <g id="ytick_11">
     <g id="line2d_36">
      <g>
       <use xlink:href="#mc7caabec9f" x="36.16472" y="90.728061" style="stroke: #000000; stroke-width: 0.6"/>
      </g>
     </g>
    </g>
    <g id="ytick_12">
     <g id="line2d_37">
      <g>
       <use xlink:href="#mc7caabec9f" x="36.16472" y="80.959853" style="stroke: #000000; stroke-width: 0.6"/>
      </g>
     </g>
    </g>
    <g id="ytick_13">
     <g id="line2d_38">
      <g>
       <use xlink:href="#mc7caabec9f" x="36.16472" y="76.075748" style="stroke: #000000; stroke-width: 0.6"/>
      </g>
     </g>
    </g>
    <g id="ytick_14">
     <g id="line2d_39">
      <g>
       <use xlink:href="#mc7caabec9f" x="36.16472" y="71.191644" style="stroke: #000000; stroke-width: 0.6"/>
      </g>
     </g>
    </g>
    <g id="ytick_15">
     <g id="line2d_40">
      <g>
       <use xlink:href="#mc7caabec9f" x="36.16472" y="66.30754" style="stroke: #000000; stroke-width: 0.6"/>
      </g>
     </g>
    </g>
    <g id="ytick_16">
     <g id="line2d_41">
      <g>
       <use xlink:href="#mc7caabec9f" x="36.16472" y="56.539332" style="stroke: #000000; stroke-width: 0.6"/>
      </g>
     </g>
    </g>
    <g id="ytick_17">
     <g id="line2d_42">
      <g>
       <use xlink:href="#mc7caabec9f" x="36.16472" y="51.655228" style="stroke: #000000; stroke-width: 0.6"/>
      </g>
     </g>
    </g>
    <g id="ytick_18">
     <g id="line2d_43">
      <g>
       <use xlink:href="#mc7caabec9f" x="36.16472" y="46.771124" style="stroke: #000000; stroke-width: 0.6"/>
      </g>
     </g>
    </g>
    <g id="ytick_19">
     <g id="line2d_44">
      <g>
       <use xlink:href="#mc7caabec9f" x="36.16472" y="41.88702" style="stroke: #000000; stroke-width: 0.6"/>
      </g>
     </g>
    </g>
    <g id="ytick_20">
     <g id="line2d_45">
      <g>
       <use xlink:href="#mc7caabec9f" x="36.16472" y="32.118812" style="stroke: #000000; stroke-width: 0.6"/>
      </g>
     </g>
    </g>
    <g id="ytick_21">
     <g id="line2d_46">
      <g>
       <use xlink:href="#mc7caabec9f" x="36.16472" y="27.234708" style="stroke: #000000; stroke-width: 0.6"/>
      </g>
     </g>
    </g>
    <g id="ytick_22">
     <g id="line2d_47">
      <g>
       <use xlink:href="#mc7caabec9f" x="36.16472" y="22.350604" style="stroke: #000000; stroke-width: 0.6"/>
      </g>
     </g>
    </g>
    <g id="ytick_23">
     <g id="line2d_48">
      <g>
       <use xlink:href="#mc7caabec9f" x="36.16472" y="17.466499" style="stroke: #000000; stroke-width: 0.6"/>
      </g>
     </g>
    </g>
    <g id="ytick_24">
     <g id="line2d_49">
      <g>
       <use xlink:href="#mc7caabec9f" x="36.16472" y="7.698291" style="stroke: #000000; stroke-width: 0.6"/>
      </g>
     </g>
    </g>
    <g id="ytick_25">
     <g id="line2d_50">
      <g>
       <use xlink:href="#mc7caabec9f" x="36.16472" y="2.814187" style="stroke: #000000; stroke-width: 0.6"/>
      </g>
     </g>
    </g>
    <g id="text_12">
     <!-- $HV_\Delta$ [\%] -->
     <g transform="translate(8.523271 81.662259) rotate(-90) scale(0.11 -0.11)">
      <defs>
       <path id="NewTXBMI-4e" d="M 4205 0 
L 4205 166 
C 3853 166 3738 230 3738 416 
C 3738 512 3763 640 3859 974 
L 3898 1116 
L 4595 3665 
C 4698 4005 4787 4082 5114 4127 
L 5114 4288 
L 3206 4288 
L 3206 4127 
L 3411 4095 
C 3610 4069 3674 4018 3674 3890 
C 3674 3813 3642 3621 3610 3499 
L 3309 2393 
L 1779 2393 
L 2125 3671 
C 2227 4025 2355 4121 2771 4121 
L 2771 4288 
L 742 4288 
L 742 4127 
L 941 4095 
C 1146 4069 1210 4011 1210 3871 
C 1210 3794 1190 3678 1139 3498 
L 358 622 
C 256 288 166 205 -154 160 
L -154 0 
L 1741 0 
L 1741 160 
C 1331 192 1274 230 1274 436 
C 1274 532 1293 647 1357 847 
L 1382 949 
L 1702 2112 
L 3232 2112 
L 2822 607 
C 2733 256 2605 166 2176 166 
L 2176 0 
L 4205 0 
z
" transform="scale(0.015625)"/>
       <path id="NewTXBMI-5c" d="M 4576 4096 
L 4576 4256 
L 3347 4256 
L 3347 4096 
L 3507 4083 
C 3686 4064 3763 4006 3763 3885 
C 3763 3745 3635 3470 3386 3075 
L 2170 1148 
L 1843 3706 
C 1837 3745 1837 3777 1837 3809 
C 1837 4025 1888 4057 2323 4096 
L 2323 4256 
L 416 4256 
L 416 4096 
C 813 4096 851 4032 992 3119 
L 1478 -128 
L 1683 -128 
L 4198 3841 
C 4282 3961 4397 4038 4576 4096 
z
" transform="scale(0.015625)"/>
       <path id="txbmiaX-1" d="M 3859 0 
L 2048 4320 
L 1965 4320 
L 154 0 
L 3859 0 
z
M 2733 224 
L 499 224 
L 1619 2895 
L 2733 224 
z
" transform="scale(0.015625)"/>
       <path id="TeXGyreTermesX-Regular-5b" d="M 1914 -1024 
L 1914 -864 
L 1363 -864 
C 1152 -864 1050 -756 1050 -531 
L 1050 3781 
C 1050 3981 1133 4064 1338 4064 
L 1914 4064 
L 1914 4224 
L 563 4224 
L 563 -1024 
L 1914 -1024 
z
" transform="scale(0.015625)"/>
       <path id="TeXGyreTermesX-Regular-25" d="M 5011 1187 
C 5011 1787 4698 2368 4154 2368 
C 3565 2368 3155 1800 3155 1181 
C 3155 556 3565 0 4154 0 
C 4698 0 5011 581 5011 1187 
z
M 3443 4320 
L 3200 4320 
C 2976 4014 2746 3904 2336 3904 
C 2163 3904 1990 3941 1837 4003 
C 1702 4138 1523 4224 1312 4224 
C 723 4224 314 3655 314 3037 
C 314 2411 723 1856 1312 1856 
C 1856 1856 2170 2440 2170 3050 
C 2170 3320 2106 3583 1990 3795 
C 2125 3763 2272 3744 2413 3744 
C 2688 3744 2822 3782 3040 3933 
L 1933 -96 
L 2221 -96 
L 3443 4320 
z
M 4851 1181 
C 4851 689 4672 192 4243 192 
C 3827 192 3680 696 3680 1181 
C 3680 1660 3827 2164 4243 2164 
C 4672 2164 4851 1666 4851 1181 
z
M 2010 3037 
C 2010 2545 1830 2048 1402 2048 
C 986 2048 838 2551 838 3037 
C 838 3516 986 4019 1402 4019 
C 1421 4019 1440 4019 1466 4013 
C 1555 3955 1658 3904 1760 3859 
C 1933 3675 2010 3349 2010 3037 
z
" transform="scale(0.015625)"/>
       <path id="TeXGyreTermesX-Regular-5d" d="M 1568 -1024 
L 1568 4224 
L 218 4224 
L 218 4064 
L 768 4064 
C 979 4064 1082 3955 1082 3730 
L 1082 -582 
C 1082 -781 992 -864 794 -864 
L 218 -864 
L 218 -1024 
L 1568 -1024 
z
" transform="scale(0.015625)"/>
      </defs>
      <use xlink:href="#NewTXBMI-4e" transform="scale(0.996264)"/>
      <use xlink:href="#NewTXBMI-5c" transform="translate(78.605194 0) scale(0.996264)"/>
      <use xlink:href="#txbmiaX-1" transform="translate(142.067208 -14.943915) scale(0.727268)"/>
      <use xlink:href="#TeXGyreTermesX-Regular-5b" transform="translate(213.071663 0) scale(0.996264)"/>
      <use xlink:href="#TeXGyreTermesX-Regular-25" transform="translate(246.247273 0) scale(0.996264)"/>
      <use xlink:href="#TeXGyreTermesX-Regular-5d" transform="translate(329.236083 0) scale(0.996264)"/>
     </g>
    </g>
   </g>
   <g id="LineCollection_1">
    <path d="M 61.248248 78.605435 
L 61.248248 64.290235 
" clip-path="url(#p22d8d4a206)" style="fill: none; stroke: #000000; stroke-width: 1.5"/>
    <path d="M 111.415304 116.600905 
L 111.415304 78.576363 
" clip-path="url(#p22d8d4a206)" style="fill: none; stroke: #000000; stroke-width: 1.5"/>
    <path d="M 161.58236 69.394533 
L 161.58236 26.841031 
" clip-path="url(#p22d8d4a206)" style="fill: none; stroke: #000000; stroke-width: 1.5"/>
    <path d="M 211.749416 110.818868 
L 211.749416 27.202656 
" clip-path="url(#p22d8d4a206)" style="fill: none; stroke: #000000; stroke-width: 1.5"/>
    <path d="M 261.916472 102.275821 
L 261.916472 6.504805 
" clip-path="url(#p22d8d4a206)" style="fill: none; stroke: #000000; stroke-width: 1.5"/>
   </g>
   <g id="line2d_51">
    <defs>
     <path id="mc516960411" d="M 2 0 
L -2 -0 
" style="stroke: #000000"/>
    </defs>
    <g clip-path="url(#p22d8d4a206)">
     <use xlink:href="#mc516960411" x="61.248248" y="78.605435" style="stroke: #000000"/>
     <use xlink:href="#mc516960411" x="111.415304" y="116.600905" style="stroke: #000000"/>
     <use xlink:href="#mc516960411" x="161.58236" y="69.394533" style="stroke: #000000"/>
     <use xlink:href="#mc516960411" x="211.749416" y="110.818868" style="stroke: #000000"/>
     <use xlink:href="#mc516960411" x="261.916472" y="102.275821" style="stroke: #000000"/>
    </g>
   </g>
   <g id="line2d_52">
    <g clip-path="url(#p22d8d4a206)">
     <use xlink:href="#mc516960411" x="61.248248" y="64.290235" style="stroke: #000000"/>
     <use xlink:href="#mc516960411" x="111.415304" y="78.576363" style="stroke: #000000"/>
     <use xlink:href="#mc516960411" x="161.58236" y="26.841031" style="stroke: #000000"/>
     <use xlink:href="#mc516960411" x="211.749416" y="27.202656" style="stroke: #000000"/>
     <use xlink:href="#mc516960411" x="261.916472" y="6.504805" style="stroke: #000000"/>
    </g>
   </g>
   <g id="line2d_53">
    <path d="M 36.16472 77.375038 
L 287 77.375038 
" clip-path="url(#p22d8d4a206)" style="fill: none; stroke-dasharray: 3.7,1.6; stroke-dashoffset: 0; stroke: #000000"/>
   </g>
   <g id="line2d_54">
    <path d="M 36.16472 113.112346 
L 287 113.112346 
" clip-path="url(#p22d8d4a206)" style="fill: none; stroke-dasharray: 0.75,1.2375; stroke-dashoffset: 0; stroke: #000000; stroke-width: 0.75"/>
   </g>
   <g id="line2d_55">
    <path d="M 36.16472 43.268462 
L 287 43.268462 
" clip-path="url(#p22d8d4a206)" style="fill: none; stroke-dasharray: 0.75,1.2375; stroke-dashoffset: 0; stroke: #000000; stroke-width: 0.75"/>
   </g>
   <g id="patch_3">
    <path d="M 36.16472 122.105709 
L 36.16472 1 
" style="fill: none; stroke: #000000; stroke-width: 0.8; stroke-linejoin: miter; stroke-linecap: square"/>
   </g>
   <g id="patch_4">
    <path d="M 287 122.105709 
L 287 1 
" style="fill: none; stroke: #000000; stroke-width: 0.8; stroke-linejoin: miter; stroke-linecap: square"/>
   </g>
   <g id="patch_5">
    <path d="M 36.16472 122.105709 
L 287 122.105709 
" style="fill: none; stroke: #000000; stroke-width: 0.8; stroke-linejoin: miter; stroke-linecap: square"/>
   </g>
   <g id="patch_6">
    <path d="M 36.16472 1 
L 287 1 
" style="fill: none; stroke: #000000; stroke-width: 0.8; stroke-linejoin: miter; stroke-linecap: square"/>
   </g>
   <g id="PathCollection_1">
    <defs>
     <path id="C0_0_d282a2725c" d="M 0 -4.472136 
L -3.872983 -2.236068 
L -3.872983 2.236068 
L -0 4.472136 
L 3.872983 2.236068 
L 3.872983 -2.236068 
z
"/>
    </defs>
    <g clip-path="url(#p22d8d4a206)">
     <use xlink:href="#C0_0_d282a2725c" x="61.248248" y="71.883259" style="fill: #1b9e77; stroke: #000000"/>
    </g>
    <g clip-path="url(#p22d8d4a206)">
     <use xlink:href="#C0_0_d282a2725c" x="111.415304" y="96.265909" style="fill: #d95f02; stroke: #000000"/>
    </g>
    <g clip-path="url(#p22d8d4a206)">
     <use xlink:href="#C0_0_d282a2725c" x="161.58236" y="47.582237" style="fill: #e41a1c; stroke: #000000"/>
    </g>
    <g clip-path="url(#p22d8d4a206)">
     <use xlink:href="#C0_0_d282a2725c" x="211.749416" y="69.314385" style="fill: #377eb8; stroke: #000000"/>
    </g>
    <g clip-path="url(#p22d8d4a206)">
     <use xlink:href="#C0_0_d282a2725c" x="261.916472" y="53.724807" style="fill: #4daf4a; stroke: #000000"/>
    </g>
   </g>
  </g>
 </g>
 <defs>
  <clipPath id="p22d8d4a206">
   <rect x="36.16472" y="1" width="250.83528" height="121.105709"/>
  </clipPath>
 </defs>
</svg>
