<?xml version="1.0" encoding="utf-8" standalone="no"?>
<!DOCTYPE svg PUBLIC "-//W3C//DTD SVG 1.1//EN"
  "http://www.w3.org/Graphics/SVG/1.1/DTD/svg11.dtd">
<svg xmlns:xlink="http://www.w3.org/1999/xlink" width="324pt" height="252pt" viewBox="0 0 324 252" xmlns="http://www.w3.org/2000/svg" version="1.1">
 <metadata>
  <rdf:RDF xmlns:dc="http://purl.org/dc/elements/1.1/" xmlns:cc="http://creativecommons.org/ns#" xmlns:rdf="http://www.w3.org/1999/02/22-rdf-syntax-ns#">
   <cc:Work>
    <dc:type rdf:resource="http://purl.org/dc/dcmitype/StillImage"/>
    <dc:date>2024-10-14T16:04:13.133840</dc:date>
    <dc:format>image/svg+xml</dc:format>
    <dc:creator>
     <cc:Agent>
      <dc:title>Matplotlib v3.9.0, https://matplotlib.org/</dc:title>
     </cc:Agent>
    </dc:creator>
   </cc:Work>
  </rdf:RDF>
 </metadata>
 <defs>
  <style type="text/css">*{stroke-linejoin: round; stroke-linecap: butt}</style>
 </defs>
 <g id="figure_1">
  <g id="patch_1">
   <path d="M 0 252 
L 324 252 
L 324 0 
L 0 0 
z
" style="fill: #ffffff"/>
  </g>
  <g id="axes_1">
   <g id="patch_2">
    <path d="M 31.1834 225.497532 
L 323 225.497532 
L 323 1 
L 31.1834 1 
z
" style="fill: #ffffff"/>
   </g>
   <g id="matplotlib.axis_1">
    <g id="xtick_1">
     <g id="line2d_1">
      <defs>
       <path id="m8e19d66ef9" d="M 0 0 
L 0 -3.5 
" style="stroke: #000000; stroke-width: 0.8"/>
      </defs>
      <g>
       <use xlink:href="#m8e19d66ef9" x="43.902493" y="225.497532" style="stroke: #000000; stroke-width: 0.8"/>
      </g>
     </g>
     <g id="text_1">
      <!-- $\mathdefault{0}$ -->
      <g transform="translate(41.411833 235.836875) scale(0.1 -0.1)">
       <defs>
        <path id="TeXGyreTermesX-Bold-30" d="M 3046 2166 
C 3046 3440 2426 4403 1600 4403 
C 1184 4403 762 4123 499 3664 
C 294 3313 154 2714 154 2185 
C 154 873 755 -64 1606 -64 
C 2432 -64 3046 886 3046 2166 
z
M 2035 1434 
C 2035 1058 1984 561 1926 389 
C 1856 203 1754 114 1606 114 
C 1286 114 1165 491 1165 1434 
L 1165 2892 
C 1165 3855 1286 4224 1594 4224 
C 1907 4224 2035 3829 2035 2892 
L 2035 1434 
z
" transform="scale(0.015625)"/>
       </defs>
       <use xlink:href="#TeXGyreTermesX-Bold-30" transform="scale(0.996264)"/>
      </g>
     </g>
    </g>
    <g id="xtick_2">
     <g id="line2d_2">
      <g>
       <use xlink:href="#m8e19d66ef9" x="96.960056" y="225.497532" style="stroke: #000000; stroke-width: 0.8"/>
      </g>
     </g>
     <g id="text_2">
      <!-- $\mathdefault{5}$ -->
      <g transform="translate(94.469396 235.836875) scale(0.1 -0.1)">
       <defs>
        <path id="TeXGyreTermesX-Bold-35" d="M 3008 4288 
L 947 4288 
L 326 2093 
C 934 2049 1197 2010 1478 1921 
C 2048 1743 2387 1381 2387 960 
C 2387 604 2106 324 1747 324 
C 1600 324 1427 400 1171 591 
C 896 795 704 877 538 877 
C 307 877 141 718 141 496 
C 141 159 512 -64 1082 -64 
C 2138 -64 2886 575 2886 1476 
C 2886 2140 2477 2652 1779 2850 
C 1536 2920 1338 2946 813 2946 
L 954 3481 
L 2733 3481 
L 3008 4288 
z
" transform="scale(0.015625)"/>
       </defs>
       <use xlink:href="#TeXGyreTermesX-Bold-35" transform="scale(0.996264)"/>
      </g>
     </g>
    </g>
    <g id="xtick_3">
     <g id="line2d_3">
      <g>
       <use xlink:href="#m8e19d66ef9" x="150.01762" y="225.497532" style="stroke: #000000; stroke-width: 0.8"/>
      </g>
     </g>
     <g id="text_3">
      <!-- $\mathdefault{10}$ -->
      <g transform="translate(145.0363 235.836875) scale(0.1 -0.1)">
       <defs>
        <path id="TeXGyreTermesX-Bold-31" d="M 2829 0 
L 2829 159 
C 2246 159 2138 255 2138 746 
L 2138 4384 
L 2029 4384 
L 416 3686 
L 416 3521 
C 474 3540 525 3559 544 3572 
C 717 3635 877 3680 960 3680 
C 1120 3680 1190 3540 1190 3241 
L 1190 790 
C 1190 267 1062 159 429 159 
L 429 0 
L 2829 0 
z
" transform="scale(0.015625)"/>
       </defs>
       <use xlink:href="#TeXGyreTermesX-Bold-31" transform="scale(0.996264)"/>
       <use xlink:href="#TeXGyreTermesX-Bold-30" transform="translate(49.8132 0) scale(0.996264)"/>
      </g>
     </g>
    </g>
    <g id="xtick_4">
     <g id="line2d_4">
      <g>
       <use xlink:href="#m8e19d66ef9" x="203.075183" y="225.497532" style="stroke: #000000; stroke-width: 0.8"/>
      </g>
     </g>
     <g id="text_4">
      <!-- $\mathdefault{15}$ -->
      <g transform="translate(198.093863 235.836875) scale(0.1 -0.1)">
       <use xlink:href="#TeXGyreTermesX-Bold-31" transform="scale(0.996264)"/>
       <use xlink:href="#TeXGyreTermesX-Bold-35" transform="translate(49.8132 0) scale(0.996264)"/>
      </g>
     </g>
    </g>
    <g id="xtick_5">
     <g id="line2d_5">
      <g>
       <use xlink:href="#m8e19d66ef9" x="256.132747" y="225.497532" style="stroke: #000000; stroke-width: 0.8"/>
      </g>
     </g>
     <g id="text_5">
      <!-- $\mathdefault{20}$ -->
      <g transform="translate(251.151427 235.836875) scale(0.1 -0.1)">
       <defs>
        <path id="TeXGyreTermesX-Bold-32" d="M 3059 1341 
L 2906 1341 
C 2720 884 2643 846 1990 846 
L 1024 846 
L 2061 1824 
C 2566 2301 2790 2726 2790 3210 
C 2790 3889 2298 4373 1606 4373 
C 1286 4373 979 4245 755 4016 
C 506 3768 378 3552 198 3075 
L 378 3075 
C 576 3469 813 3648 1158 3648 
C 1440 3648 1651 3527 1792 3298 
C 1869 3164 1920 2987 1920 2841 
C 1920 2561 1798 2211 1594 1900 
C 1267 1405 1043 1137 109 146 
L 109 0 
L 2771 0 
L 3059 1341 
z
" transform="scale(0.015625)"/>
       </defs>
       <use xlink:href="#TeXGyreTermesX-Bold-32" transform="scale(0.996264)"/>
       <use xlink:href="#TeXGyreTermesX-Bold-30" transform="translate(49.8132 0) scale(0.996264)"/>
      </g>
     </g>
    </g>
    <g id="xtick_6">
     <g id="line2d_6">
      <g>
       <use xlink:href="#m8e19d66ef9" x="309.19031" y="225.497532" style="stroke: #000000; stroke-width: 0.8"/>
      </g>
     </g>
     <g id="text_6">
      <!-- $\mathdefault{25}$ -->
      <g transform="translate(304.20899 235.836875) scale(0.1 -0.1)">
       <use xlink:href="#TeXGyreTermesX-Bold-32" transform="scale(0.996264)"/>
       <use xlink:href="#TeXGyreTermesX-Bold-35" transform="translate(49.8132 0) scale(0.996264)"/>
      </g>
     </g>
    </g>
    <g id="xtick_7">
     <g id="line2d_7">
      <defs>
       <path id="m43f1487f89" d="M 0 0 
L 0 -2 
" style="stroke: #000000; stroke-width: 0.6"/>
      </defs>
      <g>
       <use xlink:href="#m43f1487f89" x="33.29098" y="225.497532" style="stroke: #000000; stroke-width: 0.6"/>
      </g>
     </g>
    </g>
    <g id="xtick_8">
     <g id="line2d_8">
      <g>
       <use xlink:href="#m43f1487f89" x="54.514005" y="225.497532" style="stroke: #000000; stroke-width: 0.6"/>
      </g>
     </g>
    </g>
    <g id="xtick_9">
     <g id="line2d_9">
      <g>
       <use xlink:href="#m43f1487f89" x="65.125518" y="225.497532" style="stroke: #000000; stroke-width: 0.6"/>
      </g>
     </g>
    </g>
    <g id="xtick_10">
     <g id="line2d_10">
      <g>
       <use xlink:href="#m43f1487f89" x="75.737031" y="225.497532" style="stroke: #000000; stroke-width: 0.6"/>
      </g>
     </g>
    </g>
    <g id="xtick_11">
     <g id="line2d_11">
      <g>
       <use xlink:href="#m43f1487f89" x="86.348543" y="225.497532" style="stroke: #000000; stroke-width: 0.6"/>
      </g>
     </g>
    </g>
    <g id="xtick_12">
     <g id="line2d_12">
      <g>
       <use xlink:href="#m43f1487f89" x="107.571569" y="225.497532" style="stroke: #000000; stroke-width: 0.6"/>
      </g>
     </g>
    </g>
    <g id="xtick_13">
     <g id="line2d_13">
      <g>
       <use xlink:href="#m43f1487f89" x="118.183082" y="225.497532" style="stroke: #000000; stroke-width: 0.6"/>
      </g>
     </g>
    </g>
    <g id="xtick_14">
     <g id="line2d_14">
      <g>
       <use xlink:href="#m43f1487f89" x="128.794594" y="225.497532" style="stroke: #000000; stroke-width: 0.6"/>
      </g>
     </g>
    </g>
    <g id="xtick_15">
     <g id="line2d_15">
      <g>
       <use xlink:href="#m43f1487f89" x="139.406107" y="225.497532" style="stroke: #000000; stroke-width: 0.6"/>
      </g>
     </g>
    </g>
    <g id="xtick_16">
     <g id="line2d_16">
      <g>
       <use xlink:href="#m43f1487f89" x="160.629132" y="225.497532" style="stroke: #000000; stroke-width: 0.6"/>
      </g>
     </g>
    </g>
    <g id="xtick_17">
     <g id="line2d_17">
      <g>
       <use xlink:href="#m43f1487f89" x="171.240645" y="225.497532" style="stroke: #000000; stroke-width: 0.6"/>
      </g>
     </g>
    </g>
    <g id="xtick_18">
     <g id="line2d_18">
      <g>
       <use xlink:href="#m43f1487f89" x="181.852158" y="225.497532" style="stroke: #000000; stroke-width: 0.6"/>
      </g>
     </g>
    </g>
    <g id="xtick_19">
     <g id="line2d_19">
      <g>
       <use xlink:href="#m43f1487f89" x="192.463671" y="225.497532" style="stroke: #000000; stroke-width: 0.6"/>
      </g>
     </g>
    </g>
    <g id="xtick_20">
     <g id="line2d_20">
      <g>
       <use xlink:href="#m43f1487f89" x="213.686696" y="225.497532" style="stroke: #000000; stroke-width: 0.6"/>
      </g>
     </g>
    </g>
    <g id="xtick_21">
     <g id="line2d_21">
      <g>
       <use xlink:href="#m43f1487f89" x="224.298209" y="225.497532" style="stroke: #000000; stroke-width: 0.6"/>
      </g>
     </g>
    </g>
    <g id="xtick_22">
     <g id="line2d_22">
      <g>
       <use xlink:href="#m43f1487f89" x="234.909721" y="225.497532" style="stroke: #000000; stroke-width: 0.6"/>
      </g>
     </g>
    </g>
    <g id="xtick_23">
     <g id="line2d_23">
      <g>
       <use xlink:href="#m43f1487f89" x="245.521234" y="225.497532" style="stroke: #000000; stroke-width: 0.6"/>
      </g>
     </g>
    </g>
    <g id="xtick_24">
     <g id="line2d_24">
      <g>
       <use xlink:href="#m43f1487f89" x="266.74426" y="225.497532" style="stroke: #000000; stroke-width: 0.6"/>
      </g>
     </g>
    </g>
    <g id="xtick_25">
     <g id="line2d_25">
      <g>
       <use xlink:href="#m43f1487f89" x="277.355772" y="225.497532" style="stroke: #000000; stroke-width: 0.6"/>
      </g>
     </g>
    </g>
    <g id="xtick_26">
     <g id="line2d_26">
      <g>
       <use xlink:href="#m43f1487f89" x="287.967285" y="225.497532" style="stroke: #000000; stroke-width: 0.6"/>
      </g>
     </g>
    </g>
    <g id="xtick_27">
     <g id="line2d_27">
      <g>
       <use xlink:href="#m43f1487f89" x="298.578798" y="225.497532" style="stroke: #000000; stroke-width: 0.6"/>
      </g>
     </g>
    </g>
    <g id="xtick_28">
     <g id="line2d_28">
      <g>
       <use xlink:href="#m43f1487f89" x="319.801823" y="225.497532" style="stroke: #000000; stroke-width: 0.6"/>
      </g>
     </g>
    </g>
    <g id="text_7">
     <!-- $t$ [h] -->
     <g transform="translate(168.43915 248.838109) scale(0.1 -0.1)">
      <defs>
       <path id="NewTXBMI-74" d="M 1440 837 
L 1299 926 
C 1082 588 915 415 813 415 
C 762 415 710 460 710 511 
C 710 632 826 1073 1056 1864 
L 1267 2624 
L 1798 2624 
L 1798 2893 
L 1338 2893 
L 1587 3808 
L 1363 3808 
C 1018 3303 698 3037 192 2848 
L 192 2624 
L 518 2624 
L 83 1105 
C -13 773 -70 499 -70 383 
C -70 135 109 -32 378 -32 
C 762 -32 1018 180 1440 837 
z
" transform="scale(0.015625)"/>
       <path id="TeXGyreTermesX-Regular-5b" d="M 1914 -1024 
L 1914 -864 
L 1363 -864 
C 1152 -864 1050 -756 1050 -531 
L 1050 3781 
C 1050 3981 1133 4064 1338 4064 
L 1914 4064 
L 1914 4224 
L 563 4224 
L 563 -1024 
L 1914 -1024 
z
" transform="scale(0.015625)"/>
       <path id="TeXGyreTermesX-Regular-68" d="M 3117 32 
L 3117 128 
C 2771 192 2733 243 2733 684 
L 2733 1954 
C 2733 2625 2464 2970 1946 2970 
C 1568 2970 1299 2816 1005 2432 
L 1005 4390 
L 973 4409 
C 755 4332 595 4281 237 4179 
L 64 4128 
L 64 4026 
C 90 4032 109 4032 141 4032 
C 416 4032 467 3980 467 3705 
L 467 686 
C 467 237 429 179 58 128 
L 58 32 
L 1440 32 
L 1440 128 
C 1069 166 1005 243 1005 684 
L 1005 2222 
C 1274 2516 1466 2624 1715 2624 
C 2035 2624 2195 2395 2195 1948 
L 2195 684 
C 2195 250 2131 166 1760 128 
L 1760 32 
L 3117 32 
z
" transform="scale(0.015625)"/>
       <path id="TeXGyreTermesX-Regular-5d" d="M 1568 -1024 
L 1568 4224 
L 218 4224 
L 218 4064 
L 768 4064 
C 979 4064 1082 3955 1082 3730 
L 1082 -582 
C 1082 -781 992 -864 794 -864 
L 218 -864 
L 218 -1024 
L 1568 -1024 
z
" transform="scale(0.015625)"/>
      </defs>
      <use xlink:href="#NewTXBMI-74" transform="scale(0.996264)"/>
      <use xlink:href="#TeXGyreTermesX-Regular-5b" transform="translate(56.886681 0) scale(0.996264)"/>
      <use xlink:href="#TeXGyreTermesX-Regular-68" transform="translate(90.062291 0) scale(0.996264)"/>
      <use xlink:href="#TeXGyreTermesX-Regular-5d" transform="translate(139.875491 0) scale(0.996264)"/>
     </g>
    </g>
   </g>
   <g id="matplotlib.axis_2">
    <g id="ytick_1">
     <g id="line2d_29">
      <defs>
       <path id="mb2b492477d" d="M 0 0 
L 3.5 0 
" style="stroke: #000000; stroke-width: 0.8"/>
      </defs>
      <g>
       <use xlink:href="#mb2b492477d" x="31.1834" y="207.912005" style="stroke: #000000; stroke-width: 0.8"/>
      </g>
     </g>
     <g id="text_8">
      <!-- $\mathdefault{0.0}$ -->
      <g transform="translate(14.901347 211.331676) scale(0.1 -0.1)">
       <defs>
        <path id="NewTXBMI-93" d="M 1344 473 
C 1344 768 1101 1017 800 1017 
C 493 1017 262 761 262 473 
C 262 173 493 -64 800 -64 
C 1101 -64 1344 166 1344 473 
z
" transform="scale(0.015625)"/>
       </defs>
       <use xlink:href="#TeXGyreTermesX-Bold-30" transform="scale(0.996264)"/>
       <use xlink:href="#NewTXBMI-93" transform="translate(51.407199 0) scale(0.996264)"/>
       <use xlink:href="#TeXGyreTermesX-Bold-30" transform="translate(78.00746 0) scale(0.996264)"/>
      </g>
     </g>
    </g>
    <g id="ytick_2">
     <g id="line2d_30">
      <g>
       <use xlink:href="#mb2b492477d" x="31.1834" y="169.288774" style="stroke: #000000; stroke-width: 0.8"/>
      </g>
     </g>
     <g id="text_9">
      <!-- $\mathdefault{0.2}$ -->
      <g transform="translate(14.901347 172.708445) scale(0.1 -0.1)">
       <use xlink:href="#TeXGyreTermesX-Bold-30" transform="scale(0.996264)"/>
       <use xlink:href="#NewTXBMI-93" transform="translate(51.407199 0) scale(0.996264)"/>
       <use xlink:href="#TeXGyreTermesX-Bold-32" transform="translate(78.00746 0) scale(0.996264)"/>
      </g>
     </g>
    </g>
    <g id="ytick_3">
     <g id="line2d_31">
      <g>
       <use xlink:href="#mb2b492477d" x="31.1834" y="130.665542" style="stroke: #000000; stroke-width: 0.8"/>
      </g>
     </g>
     <g id="text_10">
      <!-- $\mathdefault{0.4}$ -->
      <g transform="translate(14.901347 134.085213) scale(0.1 -0.1)">
       <defs>
        <path id="TeXGyreTermesX-Bold-34" d="M 3040 896 
L 3040 1602 
L 2637 1602 
L 2637 4352 
L 2125 4352 
L 1747 3863 
C 928 2803 506 2219 122 1615 
L 122 896 
L 1709 896 
L 1709 -32 
L 2637 -32 
L 2637 896 
L 3040 896 
z
M 1722 1602 
L 384 1602 
L 1722 3488 
L 1722 1602 
z
" transform="scale(0.015625)"/>
       </defs>
       <use xlink:href="#TeXGyreTermesX-Bold-30" transform="scale(0.996264)"/>
       <use xlink:href="#NewTXBMI-93" transform="translate(51.407199 0) scale(0.996264)"/>
       <use xlink:href="#TeXGyreTermesX-Bold-34" transform="translate(78.00746 0) scale(0.996264)"/>
      </g>
     </g>
    </g>
    <g id="ytick_4">
     <g id="line2d_32">
      <g>
       <use xlink:href="#mb2b492477d" x="31.1834" y="92.042311" style="stroke: #000000; stroke-width: 0.8"/>
      </g>
     </g>
     <g id="text_11">
      <!-- $\mathdefault{0.6}$ -->
      <g transform="translate(14.901347 95.461982) scale(0.1 -0.1)">
       <defs>
        <path id="TeXGyreTermesX-Bold-36" d="M 3040 1427 
C 3040 2193 2573 2688 1843 2688 
C 1638 2688 1498 2663 1306 2580 
C 1542 3515 2074 4030 3008 4221 
L 3008 4387 
C 2157 4266 1760 4126 1274 3796 
C 557 3307 179 2596 179 1752 
C 179 654 768 -64 1664 -64 
C 2458 -64 3040 564 3040 1427 
z
M 2067 1046 
C 2067 298 1990 108 1677 108 
C 1530 108 1414 172 1350 291 
C 1242 501 1178 964 1178 1553 
C 1178 1946 1216 2307 1261 2339 
C 1312 2377 1402 2402 1491 2402 
C 1920 2402 2067 2054 2067 1046 
z
" transform="scale(0.015625)"/>
       </defs>
       <use xlink:href="#TeXGyreTermesX-Bold-30" transform="scale(0.996264)"/>
       <use xlink:href="#NewTXBMI-93" transform="translate(51.407199 0) scale(0.996264)"/>
       <use xlink:href="#TeXGyreTermesX-Bold-36" transform="translate(78.00746 0) scale(0.996264)"/>
      </g>
     </g>
    </g>
    <g id="ytick_5">
     <g id="line2d_33">
      <g>
       <use xlink:href="#mb2b492477d" x="31.1834" y="53.419079" style="stroke: #000000; stroke-width: 0.8"/>
      </g>
     </g>
     <g id="text_12">
      <!-- $\mathdefault{0.8}$ -->
      <g transform="translate(14.901347 56.838751) scale(0.1 -0.1)">
       <defs>
        <path id="TeXGyreTermesX-Bold-38" d="M 3021 1212 
C 3021 1768 2746 2164 2061 2597 
C 2675 2815 2931 3075 2931 3483 
C 2931 4051 2445 4409 1683 4409 
C 819 4409 250 3961 250 3292 
C 250 2814 506 2462 1139 2086 
C 774 1965 627 1881 461 1722 
C 275 1543 179 1301 179 1020 
C 179 370 723 -64 1536 -64 
C 2426 -64 3021 447 3021 1212 
z
M 2170 3439 
C 2170 3139 2118 2993 1907 2712 
C 1370 2986 1075 3337 1075 3694 
C 1075 3994 1306 4224 1606 4224 
C 1965 4224 2170 3937 2170 3439 
z
M 2131 829 
C 2131 402 1920 140 1574 140 
C 1184 140 954 478 954 1046 
C 954 1397 1024 1595 1280 1971 
C 1978 1505 2131 1301 2131 829 
z
" transform="scale(0.015625)"/>
       </defs>
       <use xlink:href="#TeXGyreTermesX-Bold-30" transform="scale(0.996264)"/>
       <use xlink:href="#NewTXBMI-93" transform="translate(51.407199 0) scale(0.996264)"/>
       <use xlink:href="#TeXGyreTermesX-Bold-38" transform="translate(78.00746 0) scale(0.996264)"/>
      </g>
     </g>
    </g>
    <g id="ytick_6">
     <g id="line2d_34">
      <g>
       <use xlink:href="#mb2b492477d" x="31.1834" y="14.795848" style="stroke: #000000; stroke-width: 0.8"/>
      </g>
     </g>
     <g id="text_13">
      <!-- $\mathdefault{1.0}$ -->
      <g transform="translate(14.901347 18.215519) scale(0.1 -0.1)">
       <use xlink:href="#TeXGyreTermesX-Bold-31" transform="scale(0.996264)"/>
       <use xlink:href="#NewTXBMI-93" transform="translate(51.407199 0) scale(0.996264)"/>
       <use xlink:href="#TeXGyreTermesX-Bold-30" transform="translate(78.00746 0) scale(0.996264)"/>
      </g>
     </g>
    </g>
    <g id="ytick_7">
     <g id="line2d_35">
      <defs>
       <path id="m5da75c21fd" d="M 0 0 
L 2 0 
" style="stroke: #000000; stroke-width: 0.6"/>
      </defs>
      <g>
       <use xlink:href="#m5da75c21fd" x="31.1834" y="223.361297" style="stroke: #000000; stroke-width: 0.6"/>
      </g>
     </g>
    </g>
    <g id="ytick_8">
     <g id="line2d_36">
      <g>
       <use xlink:href="#m5da75c21fd" x="31.1834" y="215.636651" style="stroke: #000000; stroke-width: 0.6"/>
      </g>
     </g>
    </g>
    <g id="ytick_9">
     <g id="line2d_37">
      <g>
       <use xlink:href="#m5da75c21fd" x="31.1834" y="200.187359" style="stroke: #000000; stroke-width: 0.6"/>
      </g>
     </g>
    </g>
    <g id="ytick_10">
     <g id="line2d_38">
      <g>
       <use xlink:href="#m5da75c21fd" x="31.1834" y="192.462712" style="stroke: #000000; stroke-width: 0.6"/>
      </g>
     </g>
    </g>
    <g id="ytick_11">
     <g id="line2d_39">
      <g>
       <use xlink:href="#m5da75c21fd" x="31.1834" y="184.738066" style="stroke: #000000; stroke-width: 0.6"/>
      </g>
     </g>
    </g>
    <g id="ytick_12">
     <g id="line2d_40">
      <g>
       <use xlink:href="#m5da75c21fd" x="31.1834" y="177.01342" style="stroke: #000000; stroke-width: 0.6"/>
      </g>
     </g>
    </g>
    <g id="ytick_13">
     <g id="line2d_41">
      <g>
       <use xlink:href="#m5da75c21fd" x="31.1834" y="161.564127" style="stroke: #000000; stroke-width: 0.6"/>
      </g>
     </g>
    </g>
    <g id="ytick_14">
     <g id="line2d_42">
      <g>
       <use xlink:href="#m5da75c21fd" x="31.1834" y="153.839481" style="stroke: #000000; stroke-width: 0.6"/>
      </g>
     </g>
    </g>
    <g id="ytick_15">
     <g id="line2d_43">
      <g>
       <use xlink:href="#m5da75c21fd" x="31.1834" y="146.114835" style="stroke: #000000; stroke-width: 0.6"/>
      </g>
     </g>
    </g>
    <g id="ytick_16">
     <g id="line2d_44">
      <g>
       <use xlink:href="#m5da75c21fd" x="31.1834" y="138.390188" style="stroke: #000000; stroke-width: 0.6"/>
      </g>
     </g>
    </g>
    <g id="ytick_17">
     <g id="line2d_45">
      <g>
       <use xlink:href="#m5da75c21fd" x="31.1834" y="122.940896" style="stroke: #000000; stroke-width: 0.6"/>
      </g>
     </g>
    </g>
    <g id="ytick_18">
     <g id="line2d_46">
      <g>
       <use xlink:href="#m5da75c21fd" x="31.1834" y="115.21625" style="stroke: #000000; stroke-width: 0.6"/>
      </g>
     </g>
    </g>
    <g id="ytick_19">
     <g id="line2d_47">
      <g>
       <use xlink:href="#m5da75c21fd" x="31.1834" y="107.491603" style="stroke: #000000; stroke-width: 0.6"/>
      </g>
     </g>
    </g>
    <g id="ytick_20">
     <g id="line2d_48">
      <g>
       <use xlink:href="#m5da75c21fd" x="31.1834" y="99.766957" style="stroke: #000000; stroke-width: 0.6"/>
      </g>
     </g>
    </g>
    <g id="ytick_21">
     <g id="line2d_49">
      <g>
       <use xlink:href="#m5da75c21fd" x="31.1834" y="84.317664" style="stroke: #000000; stroke-width: 0.6"/>
      </g>
     </g>
    </g>
    <g id="ytick_22">
     <g id="line2d_50">
      <g>
       <use xlink:href="#m5da75c21fd" x="31.1834" y="76.593018" style="stroke: #000000; stroke-width: 0.6"/>
      </g>
     </g>
    </g>
    <g id="ytick_23">
     <g id="line2d_51">
      <g>
       <use xlink:href="#m5da75c21fd" x="31.1834" y="68.868372" style="stroke: #000000; stroke-width: 0.6"/>
      </g>
     </g>
    </g>
    <g id="ytick_24">
     <g id="line2d_52">
      <g>
       <use xlink:href="#m5da75c21fd" x="31.1834" y="61.143726" style="stroke: #000000; stroke-width: 0.6"/>
      </g>
     </g>
    </g>
    <g id="ytick_25">
     <g id="line2d_53">
      <g>
       <use xlink:href="#m5da75c21fd" x="31.1834" y="45.694433" style="stroke: #000000; stroke-width: 0.6"/>
      </g>
     </g>
    </g>
    <g id="ytick_26">
     <g id="line2d_54">
      <g>
       <use xlink:href="#m5da75c21fd" x="31.1834" y="37.969787" style="stroke: #000000; stroke-width: 0.6"/>
      </g>
     </g>
    </g>
    <g id="ytick_27">
     <g id="line2d_55">
      <g>
       <use xlink:href="#m5da75c21fd" x="31.1834" y="30.245141" style="stroke: #000000; stroke-width: 0.6"/>
      </g>
     </g>
    </g>
    <g id="ytick_28">
     <g id="line2d_56">
      <g>
       <use xlink:href="#m5da75c21fd" x="31.1834" y="22.520494" style="stroke: #000000; stroke-width: 0.6"/>
      </g>
     </g>
    </g>
    <g id="ytick_29">
     <g id="line2d_57">
      <g>
       <use xlink:href="#m5da75c21fd" x="31.1834" y="7.071202" style="stroke: #000000; stroke-width: 0.6"/>
      </g>
     </g>
    </g>
    <g id="text_14">
     <!-- $X$ -->
     <g transform="translate(8.523271 116.88694) rotate(-90) scale(0.11 -0.11)">
      <defs>
       <path id="NewTXBMI-5e" d="M 3750 0 
L 3750 160 
C 3290 211 3194 301 3008 903 
L 2534 2423 
L 3808 3737 
C 4090 4019 4211 4096 4442 4128 
L 4442 4288 
L 3142 4288 
L 3142 4128 
L 3283 4115 
C 3430 4102 3494 4057 3494 3961 
C 3494 3846 3379 3685 3046 3333 
L 2445 2698 
C 2381 2910 2362 2986 2336 3050 
C 2189 3506 2118 3782 2118 3878 
C 2118 4025 2189 4083 2400 4108 
L 2592 4128 
L 2592 4288 
L 640 4288 
L 640 4128 
C 1024 4089 1120 4019 1222 3723 
L 1760 1981 
L 1325 1506 
C 314 390 122 211 -154 160 
L -154 0 
L 1216 0 
L 1216 160 
C 928 186 800 269 800 416 
C 800 499 845 583 992 743 
L 1850 1692 
L 1971 1308 
C 2144 814 2214 545 2214 403 
C 2214 237 2125 192 1779 160 
L 1779 0 
L 3750 0 
z
" transform="scale(0.015625)"/>
      </defs>
      <use xlink:href="#NewTXBMI-5e" transform="scale(0.996264)"/>
     </g>
    </g>
   </g>
   <g id="LineCollection_1">
    <path d="M 44.447791 210.705419 
L 44.447791 204.720002 
" clip-path="url(#pde772f2752)" style="fill: none; stroke: #000000; stroke-width: 1.5"/>
    <path d="M 71.167428 213.298509 
L 71.167428 202.525501 
" clip-path="url(#pde772f2752)" style="fill: none; stroke: #000000; stroke-width: 1.5"/>
    <path d="M 86.98109 215.093187 
L 86.98109 201.528 
" clip-path="url(#pde772f2752)" style="fill: none; stroke: #000000; stroke-width: 1.5"/>
    <path d="M 97.614415 215.293099 
L 97.614415 200.929499 
" clip-path="url(#pde772f2752)" style="fill: none; stroke: #000000; stroke-width: 1.5"/>
    <path d="M 103.067402 212.698774 
L 103.067402 204.321002 
" clip-path="url(#pde772f2752)" style="fill: none; stroke: #000000; stroke-width: 1.5"/>
    <path d="M 119.153713 210.51086 
L 119.153713 200.131499 
" clip-path="url(#pde772f2752)" style="fill: none; stroke: #000000; stroke-width: 1.5"/>
    <path d="M 129.514389 205.538179 
L 129.514389 190.754991 
" clip-path="url(#pde772f2752)" style="fill: none; stroke: #000000; stroke-width: 1.5"/>
    <path d="M 134.967376 198.567203 
L 134.967376 186.565488 
" clip-path="url(#pde772f2752)" style="fill: none; stroke: #000000; stroke-width: 1.5"/>
    <path d="M 140.147713 200.170205 
L 140.147713 178.186481 
" clip-path="url(#pde772f2752)" style="fill: none; stroke: #000000; stroke-width: 1.5"/>
    <path d="M 151.053687 185.62934 
L 151.053687 170.804975 
" clip-path="url(#pde772f2752)" style="fill: none; stroke: #000000; stroke-width: 1.5"/>
    <path d="M 161.414363 166.718413 
L 161.414363 149.458457 
" clip-path="url(#pde772f2752)" style="fill: none; stroke: #000000; stroke-width: 1.5"/>
    <path d="M 182.681012 134.082327 
L 182.681012 102.775419 
" clip-path="url(#pde772f2752)" style="fill: none; stroke: #000000; stroke-width: 1.5"/>
    <path d="M 203.402362 96.244002 
L 203.402362 76.042398 
" clip-path="url(#pde772f2752)" style="fill: none; stroke: #000000; stroke-width: 1.5"/>
    <path d="M 256.296336 43.685489 
L 256.296336 22.576354 
" clip-path="url(#pde772f2752)" style="fill: none; stroke: #000000; stroke-width: 1.5"/>
    <path d="M 309.735609 18.785851 
L 309.735609 11.204433 
" clip-path="url(#pde772f2752)" style="fill: none; stroke: #000000; stroke-width: 1.5"/>
   </g>
   <g id="line2d_58">
    <defs>
     <path id="m68a14fb7c4" d="M 2 0 
L -2 -0 
" style="stroke: #000000"/>
    </defs>
    <g clip-path="url(#pde772f2752)">
     <use xlink:href="#m68a14fb7c4" x="44.447791" y="210.705419" style="stroke: #000000"/>
     <use xlink:href="#m68a14fb7c4" x="71.167428" y="213.298509" style="stroke: #000000"/>
     <use xlink:href="#m68a14fb7c4" x="86.98109" y="215.093187" style="stroke: #000000"/>
     <use xlink:href="#m68a14fb7c4" x="97.614415" y="215.293099" style="stroke: #000000"/>
     <use xlink:href="#m68a14fb7c4" x="103.067402" y="212.698774" style="stroke: #000000"/>
     <use xlink:href="#m68a14fb7c4" x="119.153713" y="210.51086" style="stroke: #000000"/>
     <use xlink:href="#m68a14fb7c4" x="129.514389" y="205.538179" style="stroke: #000000"/>
     <use xlink:href="#m68a14fb7c4" x="134.967376" y="198.567203" style="stroke: #000000"/>
     <use xlink:href="#m68a14fb7c4" x="140.147713" y="200.170205" style="stroke: #000000"/>
     <use xlink:href="#m68a14fb7c4" x="151.053687" y="185.62934" style="stroke: #000000"/>
     <use xlink:href="#m68a14fb7c4" x="161.414363" y="166.718413" style="stroke: #000000"/>
     <use xlink:href="#m68a14fb7c4" x="182.681012" y="134.082327" style="stroke: #000000"/>
     <use xlink:href="#m68a14fb7c4" x="203.402362" y="96.244002" style="stroke: #000000"/>
     <use xlink:href="#m68a14fb7c4" x="256.296336" y="43.685489" style="stroke: #000000"/>
     <use xlink:href="#m68a14fb7c4" x="309.735609" y="18.785851" style="stroke: #000000"/>
    </g>
   </g>
   <g id="line2d_59">
    <g clip-path="url(#pde772f2752)">
     <use xlink:href="#m68a14fb7c4" x="44.447791" y="204.720002" style="stroke: #000000"/>
     <use xlink:href="#m68a14fb7c4" x="71.167428" y="202.525501" style="stroke: #000000"/>
     <use xlink:href="#m68a14fb7c4" x="86.98109" y="201.528" style="stroke: #000000"/>
     <use xlink:href="#m68a14fb7c4" x="97.614415" y="200.929499" style="stroke: #000000"/>
     <use xlink:href="#m68a14fb7c4" x="103.067402" y="204.321002" style="stroke: #000000"/>
     <use xlink:href="#m68a14fb7c4" x="119.153713" y="200.131499" style="stroke: #000000"/>
     <use xlink:href="#m68a14fb7c4" x="129.514389" y="190.754991" style="stroke: #000000"/>
     <use xlink:href="#m68a14fb7c4" x="134.967376" y="186.565488" style="stroke: #000000"/>
     <use xlink:href="#m68a14fb7c4" x="140.147713" y="178.186481" style="stroke: #000000"/>
     <use xlink:href="#m68a14fb7c4" x="151.053687" y="170.804975" style="stroke: #000000"/>
     <use xlink:href="#m68a14fb7c4" x="161.414363" y="149.458457" style="stroke: #000000"/>
     <use xlink:href="#m68a14fb7c4" x="182.681012" y="102.775419" style="stroke: #000000"/>
     <use xlink:href="#m68a14fb7c4" x="203.402362" y="76.042398" style="stroke: #000000"/>
     <use xlink:href="#m68a14fb7c4" x="256.296336" y="22.576354" style="stroke: #000000"/>
     <use xlink:href="#m68a14fb7c4" x="309.735609" y="11.204433" style="stroke: #000000"/>
    </g>
   </g>
   <g id="patch_3">
    <path d="M 31.1834 225.497532 
L 31.1834 1 
" style="fill: none; stroke: #000000; stroke-width: 0.8; stroke-linejoin: miter; stroke-linecap: square"/>
   </g>
   <g id="patch_4">
    <path d="M 323 225.497532 
L 323 1 
" style="fill: none; stroke: #000000; stroke-width: 0.8; stroke-linejoin: miter; stroke-linecap: square"/>
   </g>
   <g id="patch_5">
    <path d="M 31.1834 225.497532 
L 323 225.497532 
" style="fill: none; stroke: #000000; stroke-width: 0.8; stroke-linejoin: miter; stroke-linecap: square"/>
   </g>
   <g id="patch_6">
    <path d="M 31.1834 1 
L 323 1 
" style="fill: none; stroke: #000000; stroke-width: 0.8; stroke-linejoin: miter; stroke-linecap: square"/>
   </g>
   <g id="PathCollection_1">
    <defs>
     <path id="md6ef76a32f" d="M 0 -3.162278 
L -2.738613 -1.581139 
L -2.738613 1.581139 
L -0 3.162278 
L 2.738613 1.581139 
L 2.738613 -1.581139 
z
" style="stroke: #000000"/>
    </defs>
    <g clip-path="url(#pde772f2752)">
     <use xlink:href="#md6ef76a32f" x="44.447791" y="207.712711" style="fill: #d95f02; stroke: #000000"/>
     <use xlink:href="#md6ef76a32f" x="71.167428" y="207.912005" style="fill: #d95f02; stroke: #000000"/>
     <use xlink:href="#md6ef76a32f" x="86.98109" y="208.310593" style="fill: #d95f02; stroke: #000000"/>
     <use xlink:href="#md6ef76a32f" x="97.614415" y="208.111299" style="fill: #d95f02; stroke: #000000"/>
     <use xlink:href="#md6ef76a32f" x="103.067402" y="208.509888" style="fill: #d95f02; stroke: #000000"/>
     <use xlink:href="#md6ef76a32f" x="119.153713" y="205.321179" style="fill: #d95f02; stroke: #000000"/>
     <use xlink:href="#md6ef76a32f" x="129.514389" y="198.146585" style="fill: #d95f02; stroke: #000000"/>
     <use xlink:href="#md6ef76a32f" x="134.967376" y="192.566345" style="fill: #d95f02; stroke: #000000"/>
     <use xlink:href="#md6ef76a32f" x="140.147713" y="189.178343" style="fill: #d95f02; stroke: #000000"/>
     <use xlink:href="#md6ef76a32f" x="151.053687" y="178.217157" style="fill: #d95f02; stroke: #000000"/>
     <use xlink:href="#md6ef76a32f" x="161.414363" y="158.088435" style="fill: #d95f02; stroke: #000000"/>
     <use xlink:href="#md6ef76a32f" x="182.681012" y="118.428873" style="fill: #d95f02; stroke: #000000"/>
     <use xlink:href="#md6ef76a32f" x="203.402362" y="86.1432" style="fill: #d95f02; stroke: #000000"/>
     <use xlink:href="#md6ef76a32f" x="256.296336" y="33.130922" style="fill: #d95f02; stroke: #000000"/>
     <use xlink:href="#md6ef76a32f" x="309.735609" y="14.995142" style="fill: #d95f02; stroke: #000000"/>
    </g>
   </g>
  </g>
 </g>
 <defs>
  <clipPath id="pde772f2752">
   <rect x="31.1834" y="1" width="291.8166" height="224.497532"/>
  </clipPath>
 </defs>
</svg>
