<?xml version="1.0" encoding="utf-8" standalone="no"?>
<!DOCTYPE svg PUBLIC "-//W3C//DTD SVG 1.1//EN"
  "http://www.w3.org/Graphics/SVG/1.1/DTD/svg11.dtd">
<svg xmlns:xlink="http://www.w3.org/1999/xlink" width="216pt" height="180pt" viewBox="0 0 216 180" xmlns="http://www.w3.org/2000/svg" version="1.1">
 <metadata>
  <rdf:RDF xmlns:dc="http://purl.org/dc/elements/1.1/" xmlns:cc="http://creativecommons.org/ns#" xmlns:rdf="http://www.w3.org/1999/02/22-rdf-syntax-ns#">
   <cc:Work>
    <dc:type rdf:resource="http://purl.org/dc/dcmitype/StillImage"/>
    <dc:date>2024-10-21T13:09:46.786715</dc:date>
    <dc:format>image/svg+xml</dc:format>
    <dc:creator>
     <cc:Agent>
      <dc:title>Matplotlib v3.9.0, https://matplotlib.org/</dc:title>
     </cc:Agent>
    </dc:creator>
   </cc:Work>
  </rdf:RDF>
 </metadata>
 <defs>
  <style type="text/css">*{stroke-linejoin: round; stroke-linecap: butt}</style>
 </defs>
 <g id="figure_1">
  <g id="patch_1">
   <path d="M 0 180 
L 216 180 
L 216 0 
L 0 0 
z
" style="fill: #ffffff"/>
  </g>
  <g id="axes_1">
   <g id="patch_2">
    <path d="M 33.345307 153.497532 
L 215 153.497532 
L 215 1 
L 33.345307 1 
z
" style="fill: #ffffff"/>
   </g>
   <g id="matplotlib.axis_1">
    <g id="xtick_1">
     <g id="line2d_1">
      <defs>
       <path id="m4f417317f6" d="M 0 0 
L 0 -3.5 
" style="stroke: #000000; stroke-width: 0.8"/>
      </defs>
      <g>
       <use xlink:href="#m4f417317f6" x="41.050348" y="153.497532" style="stroke: #000000; stroke-width: 0.8"/>
      </g>
     </g>
     <g id="text_1">
      <!-- $\mathdefault{0}$ -->
      <g transform="translate(38.559688 163.836875) scale(0.1 -0.1)">
       <defs>
        <path id="TeXGyreTermesX-Bold-30" d="M 3046 2166 
C 3046 3440 2426 4403 1600 4403 
C 1184 4403 762 4123 499 3664 
C 294 3313 154 2714 154 2185 
C 154 873 755 -64 1606 -64 
C 2432 -64 3046 886 3046 2166 
z
M 2035 1434 
C 2035 1058 1984 561 1926 389 
C 1856 203 1754 114 1606 114 
C 1286 114 1165 491 1165 1434 
L 1165 2892 
C 1165 3855 1286 4224 1594 4224 
C 1907 4224 2035 3829 2035 2892 
L 2035 1434 
z
" transform="scale(0.015625)"/>
       </defs>
       <use xlink:href="#TeXGyreTermesX-Bold-30" transform="scale(0.996264)"/>
      </g>
     </g>
    </g>
    <g id="xtick_2">
     <g id="line2d_2">
      <g>
       <use xlink:href="#m4f417317f6" x="87.180364" y="153.497532" style="stroke: #000000; stroke-width: 0.8"/>
      </g>
     </g>
     <g id="text_2">
      <!-- $\mathdefault{5}$ -->
      <g transform="translate(84.689704 163.836875) scale(0.1 -0.1)">
       <defs>
        <path id="TeXGyreTermesX-Bold-35" d="M 3008 4288 
L 947 4288 
L 326 2093 
C 934 2049 1197 2010 1478 1921 
C 2048 1743 2387 1381 2387 960 
C 2387 604 2106 324 1747 324 
C 1600 324 1427 400 1171 591 
C 896 795 704 877 538 877 
C 307 877 141 718 141 496 
C 141 159 512 -64 1082 -64 
C 2138 -64 2886 575 2886 1476 
C 2886 2140 2477 2652 1779 2850 
C 1536 2920 1338 2946 813 2946 
L 954 3481 
L 2733 3481 
L 3008 4288 
z
" transform="scale(0.015625)"/>
       </defs>
       <use xlink:href="#TeXGyreTermesX-Bold-35" transform="scale(0.996264)"/>
      </g>
     </g>
    </g>
    <g id="xtick_3">
     <g id="line2d_3">
      <g>
       <use xlink:href="#m4f417317f6" x="133.31038" y="153.497532" style="stroke: #000000; stroke-width: 0.8"/>
      </g>
     </g>
     <g id="text_3">
      <!-- $\mathdefault{10}$ -->
      <g transform="translate(128.32906 163.836875) scale(0.1 -0.1)">
       <defs>
        <path id="TeXGyreTermesX-Bold-31" d="M 2829 0 
L 2829 159 
C 2246 159 2138 255 2138 746 
L 2138 4384 
L 2029 4384 
L 416 3686 
L 416 3521 
C 474 3540 525 3559 544 3572 
C 717 3635 877 3680 960 3680 
C 1120 3680 1190 3540 1190 3241 
L 1190 790 
C 1190 267 1062 159 429 159 
L 429 0 
L 2829 0 
z
" transform="scale(0.015625)"/>
       </defs>
       <use xlink:href="#TeXGyreTermesX-Bold-31" transform="scale(0.996264)"/>
       <use xlink:href="#TeXGyreTermesX-Bold-30" transform="translate(49.8132 0) scale(0.996264)"/>
      </g>
     </g>
    </g>
    <g id="xtick_4">
     <g id="line2d_4">
      <g>
       <use xlink:href="#m4f417317f6" x="179.440396" y="153.497532" style="stroke: #000000; stroke-width: 0.8"/>
      </g>
     </g>
     <g id="text_4">
      <!-- $\mathdefault{15}$ -->
      <g transform="translate(174.459076 163.836875) scale(0.1 -0.1)">
       <use xlink:href="#TeXGyreTermesX-Bold-31" transform="scale(0.996264)"/>
       <use xlink:href="#TeXGyreTermesX-Bold-35" transform="translate(49.8132 0) scale(0.996264)"/>
      </g>
     </g>
    </g>
    <g id="xtick_5">
     <g id="line2d_5">
      <defs>
       <path id="m566b53b9c7" d="M 0 0 
L 0 -2 
" style="stroke: #000000; stroke-width: 0.6"/>
      </defs>
      <g>
       <use xlink:href="#m566b53b9c7" x="50.276351" y="153.497532" style="stroke: #000000; stroke-width: 0.6"/>
      </g>
     </g>
    </g>
    <g id="xtick_6">
     <g id="line2d_6">
      <g>
       <use xlink:href="#m566b53b9c7" x="59.502354" y="153.497532" style="stroke: #000000; stroke-width: 0.6"/>
      </g>
     </g>
    </g>
    <g id="xtick_7">
     <g id="line2d_7">
      <g>
       <use xlink:href="#m566b53b9c7" x="68.728358" y="153.497532" style="stroke: #000000; stroke-width: 0.6"/>
      </g>
     </g>
    </g>
    <g id="xtick_8">
     <g id="line2d_8">
      <g>
       <use xlink:href="#m566b53b9c7" x="77.954361" y="153.497532" style="stroke: #000000; stroke-width: 0.6"/>
      </g>
     </g>
    </g>
    <g id="xtick_9">
     <g id="line2d_9">
      <g>
       <use xlink:href="#m566b53b9c7" x="96.406367" y="153.497532" style="stroke: #000000; stroke-width: 0.6"/>
      </g>
     </g>
    </g>
    <g id="xtick_10">
     <g id="line2d_10">
      <g>
       <use xlink:href="#m566b53b9c7" x="105.63237" y="153.497532" style="stroke: #000000; stroke-width: 0.6"/>
      </g>
     </g>
    </g>
    <g id="xtick_11">
     <g id="line2d_11">
      <g>
       <use xlink:href="#m566b53b9c7" x="114.858374" y="153.497532" style="stroke: #000000; stroke-width: 0.6"/>
      </g>
     </g>
    </g>
    <g id="xtick_12">
     <g id="line2d_12">
      <g>
       <use xlink:href="#m566b53b9c7" x="124.084377" y="153.497532" style="stroke: #000000; stroke-width: 0.6"/>
      </g>
     </g>
    </g>
    <g id="xtick_13">
     <g id="line2d_13">
      <g>
       <use xlink:href="#m566b53b9c7" x="142.536383" y="153.497532" style="stroke: #000000; stroke-width: 0.6"/>
      </g>
     </g>
    </g>
    <g id="xtick_14">
     <g id="line2d_14">
      <g>
       <use xlink:href="#m566b53b9c7" x="151.762387" y="153.497532" style="stroke: #000000; stroke-width: 0.6"/>
      </g>
     </g>
    </g>
    <g id="xtick_15">
     <g id="line2d_15">
      <g>
       <use xlink:href="#m566b53b9c7" x="160.98839" y="153.497532" style="stroke: #000000; stroke-width: 0.6"/>
      </g>
     </g>
    </g>
    <g id="xtick_16">
     <g id="line2d_16">
      <g>
       <use xlink:href="#m566b53b9c7" x="170.214393" y="153.497532" style="stroke: #000000; stroke-width: 0.6"/>
      </g>
     </g>
    </g>
    <g id="xtick_17">
     <g id="line2d_17">
      <g>
       <use xlink:href="#m566b53b9c7" x="188.666399" y="153.497532" style="stroke: #000000; stroke-width: 0.6"/>
      </g>
     </g>
    </g>
    <g id="xtick_18">
     <g id="line2d_18">
      <g>
       <use xlink:href="#m566b53b9c7" x="197.892403" y="153.497532" style="stroke: #000000; stroke-width: 0.6"/>
      </g>
     </g>
    </g>
    <g id="xtick_19">
     <g id="line2d_19">
      <g>
       <use xlink:href="#m566b53b9c7" x="207.118406" y="153.497532" style="stroke: #000000; stroke-width: 0.6"/>
      </g>
     </g>
    </g>
    <g id="text_5">
     <!-- $t$ [h] -->
     <g transform="translate(115.520103 176.838109) scale(0.1 -0.1)">
      <defs>
       <path id="NewTXBMI-74" d="M 1440 837 
L 1299 926 
C 1082 588 915 415 813 415 
C 762 415 710 460 710 511 
C 710 632 826 1073 1056 1864 
L 1267 2624 
L 1798 2624 
L 1798 2893 
L 1338 2893 
L 1587 3808 
L 1363 3808 
C 1018 3303 698 3037 192 2848 
L 192 2624 
L 518 2624 
L 83 1105 
C -13 773 -70 499 -70 383 
C -70 135 109 -32 378 -32 
C 762 -32 1018 180 1440 837 
z
" transform="scale(0.015625)"/>
       <path id="TeXGyreTermesX-Regular-5b" d="M 1914 -1024 
L 1914 -864 
L 1363 -864 
C 1152 -864 1050 -756 1050 -531 
L 1050 3781 
C 1050 3981 1133 4064 1338 4064 
L 1914 4064 
L 1914 4224 
L 563 4224 
L 563 -1024 
L 1914 -1024 
z
" transform="scale(0.015625)"/>
       <path id="TeXGyreTermesX-Regular-68" d="M 3117 32 
L 3117 128 
C 2771 192 2733 243 2733 684 
L 2733 1954 
C 2733 2625 2464 2970 1946 2970 
C 1568 2970 1299 2816 1005 2432 
L 1005 4390 
L 973 4409 
C 755 4332 595 4281 237 4179 
L 64 4128 
L 64 4026 
C 90 4032 109 4032 141 4032 
C 416 4032 467 3980 467 3705 
L 467 686 
C 467 237 429 179 58 128 
L 58 32 
L 1440 32 
L 1440 128 
C 1069 166 1005 243 1005 684 
L 1005 2222 
C 1274 2516 1466 2624 1715 2624 
C 2035 2624 2195 2395 2195 1948 
L 2195 684 
C 2195 250 2131 166 1760 128 
L 1760 32 
L 3117 32 
z
" transform="scale(0.015625)"/>
       <path id="TeXGyreTermesX-Regular-5d" d="M 1568 -1024 
L 1568 4224 
L 218 4224 
L 218 4064 
L 768 4064 
C 979 4064 1082 3955 1082 3730 
L 1082 -582 
C 1082 -781 992 -864 794 -864 
L 218 -864 
L 218 -1024 
L 1568 -1024 
z
" transform="scale(0.015625)"/>
      </defs>
      <use xlink:href="#NewTXBMI-74" transform="scale(0.996264)"/>
      <use xlink:href="#TeXGyreTermesX-Regular-5b" transform="translate(56.886681 0) scale(0.996264)"/>
      <use xlink:href="#TeXGyreTermesX-Regular-68" transform="translate(90.062291 0) scale(0.996264)"/>
      <use xlink:href="#TeXGyreTermesX-Regular-5d" transform="translate(139.875491 0) scale(0.996264)"/>
     </g>
    </g>
   </g>
   <g id="matplotlib.axis_2">
    <g id="ytick_1">
     <g id="line2d_20">
      <defs>
       <path id="m16be8ad046" d="M 0 0 
L 3.5 0 
" style="stroke: #000000; stroke-width: 0.8"/>
      </defs>
      <g>
       <use xlink:href="#m16be8ad046" x="33.345307" y="129.244896" style="stroke: #000000; stroke-width: 0.8"/>
      </g>
     </g>
     <g id="text_6">
      <!-- $\mathdefault{360}$ -->
      <g transform="translate(14.901347 132.664567) scale(0.1 -0.1)">
       <defs>
        <path id="TeXGyreTermesX-Bold-33" d="M 2995 1596 
C 2995 1889 2899 2164 2714 2387 
C 2579 2540 2470 2617 2214 2732 
C 2624 2981 2746 3165 2746 3541 
C 2746 4090 2355 4416 1702 4416 
C 1069 4416 589 4097 237 3440 
L 371 3364 
C 614 3753 826 3900 1158 3900 
C 1562 3900 1811 3645 1811 3242 
C 1811 2822 1587 2598 979 2406 
L 979 2297 
C 1510 2112 1722 2004 1952 1786 
C 2150 1601 2266 1314 2266 1007 
C 2266 548 2022 254 1638 254 
C 1485 254 1363 324 1152 528 
C 902 778 710 880 518 880 
C 275 880 102 728 102 510 
C 102 166 493 -64 1082 -64 
C 2150 -64 2995 664 2995 1596 
z
" transform="scale(0.015625)"/>
        <path id="TeXGyreTermesX-Bold-36" d="M 3040 1427 
C 3040 2193 2573 2688 1843 2688 
C 1638 2688 1498 2663 1306 2580 
C 1542 3515 2074 4030 3008 4221 
L 3008 4387 
C 2157 4266 1760 4126 1274 3796 
C 557 3307 179 2596 179 1752 
C 179 654 768 -64 1664 -64 
C 2458 -64 3040 564 3040 1427 
z
M 2067 1046 
C 2067 298 1990 108 1677 108 
C 1530 108 1414 172 1350 291 
C 1242 501 1178 964 1178 1553 
C 1178 1946 1216 2307 1261 2339 
C 1312 2377 1402 2402 1491 2402 
C 1920 2402 2067 2054 2067 1046 
z
" transform="scale(0.015625)"/>
       </defs>
       <use xlink:href="#TeXGyreTermesX-Bold-33" transform="scale(0.996264)"/>
       <use xlink:href="#TeXGyreTermesX-Bold-36" transform="translate(49.8132 0) scale(0.996264)"/>
       <use xlink:href="#TeXGyreTermesX-Bold-30" transform="translate(99.626401 0) scale(0.996264)"/>
      </g>
     </g>
    </g>
    <g id="ytick_2">
     <g id="line2d_21">
      <g>
       <use xlink:href="#m16be8ad046" x="33.345307" y="96.651279" style="stroke: #000000; stroke-width: 0.8"/>
      </g>
     </g>
     <g id="text_7">
      <!-- $\mathdefault{380}$ -->
      <g transform="translate(14.901347 100.07095) scale(0.1 -0.1)">
       <defs>
        <path id="TeXGyreTermesX-Bold-38" d="M 3021 1212 
C 3021 1768 2746 2164 2061 2597 
C 2675 2815 2931 3075 2931 3483 
C 2931 4051 2445 4409 1683 4409 
C 819 4409 250 3961 250 3292 
C 250 2814 506 2462 1139 2086 
C 774 1965 627 1881 461 1722 
C 275 1543 179 1301 179 1020 
C 179 370 723 -64 1536 -64 
C 2426 -64 3021 447 3021 1212 
z
M 2170 3439 
C 2170 3139 2118 2993 1907 2712 
C 1370 2986 1075 3337 1075 3694 
C 1075 3994 1306 4224 1606 4224 
C 1965 4224 2170 3937 2170 3439 
z
M 2131 829 
C 2131 402 1920 140 1574 140 
C 1184 140 954 478 954 1046 
C 954 1397 1024 1595 1280 1971 
C 1978 1505 2131 1301 2131 829 
z
" transform="scale(0.015625)"/>
       </defs>
       <use xlink:href="#TeXGyreTermesX-Bold-33" transform="scale(0.996264)"/>
       <use xlink:href="#TeXGyreTermesX-Bold-38" transform="translate(49.8132 0) scale(0.996264)"/>
       <use xlink:href="#TeXGyreTermesX-Bold-30" transform="translate(99.626401 0) scale(0.996264)"/>
      </g>
     </g>
    </g>
    <g id="ytick_3">
     <g id="line2d_22">
      <g>
       <use xlink:href="#m16be8ad046" x="33.345307" y="64.057662" style="stroke: #000000; stroke-width: 0.8"/>
      </g>
     </g>
     <g id="text_8">
      <!-- $\mathdefault{400}$ -->
      <g transform="translate(14.901347 67.477334) scale(0.1 -0.1)">
       <defs>
        <path id="TeXGyreTermesX-Bold-34" d="M 3040 896 
L 3040 1602 
L 2637 1602 
L 2637 4352 
L 2125 4352 
L 1747 3863 
C 928 2803 506 2219 122 1615 
L 122 896 
L 1709 896 
L 1709 -32 
L 2637 -32 
L 2637 896 
L 3040 896 
z
M 1722 1602 
L 384 1602 
L 1722 3488 
L 1722 1602 
z
" transform="scale(0.015625)"/>
       </defs>
       <use xlink:href="#TeXGyreTermesX-Bold-34" transform="scale(0.996264)"/>
       <use xlink:href="#TeXGyreTermesX-Bold-30" transform="translate(49.8132 0) scale(0.996264)"/>
       <use xlink:href="#TeXGyreTermesX-Bold-30" transform="translate(99.626401 0) scale(0.996264)"/>
      </g>
     </g>
    </g>
    <g id="ytick_4">
     <g id="line2d_23">
      <g>
       <use xlink:href="#m16be8ad046" x="33.345307" y="31.464046" style="stroke: #000000; stroke-width: 0.8"/>
      </g>
     </g>
     <g id="text_9">
      <!-- $\mathdefault{420}$ -->
      <g transform="translate(14.901347 34.883717) scale(0.1 -0.1)">
       <defs>
        <path id="TeXGyreTermesX-Bold-32" d="M 3059 1341 
L 2906 1341 
C 2720 884 2643 846 1990 846 
L 1024 846 
L 2061 1824 
C 2566 2301 2790 2726 2790 3210 
C 2790 3889 2298 4373 1606 4373 
C 1286 4373 979 4245 755 4016 
C 506 3768 378 3552 198 3075 
L 378 3075 
C 576 3469 813 3648 1158 3648 
C 1440 3648 1651 3527 1792 3298 
C 1869 3164 1920 2987 1920 2841 
C 1920 2561 1798 2211 1594 1900 
C 1267 1405 1043 1137 109 146 
L 109 0 
L 2771 0 
L 3059 1341 
z
" transform="scale(0.015625)"/>
       </defs>
       <use xlink:href="#TeXGyreTermesX-Bold-34" transform="scale(0.996264)"/>
       <use xlink:href="#TeXGyreTermesX-Bold-32" transform="translate(49.8132 0) scale(0.996264)"/>
       <use xlink:href="#TeXGyreTermesX-Bold-30" transform="translate(99.626401 0) scale(0.996264)"/>
      </g>
     </g>
    </g>
    <g id="ytick_5">
     <g id="line2d_24">
      <defs>
       <path id="mff167ed9d8" d="M 0 0 
L 2 0 
" style="stroke: #000000; stroke-width: 0.6"/>
      </defs>
      <g>
       <use xlink:href="#mff167ed9d8" x="33.345307" y="148.801066" style="stroke: #000000; stroke-width: 0.6"/>
      </g>
     </g>
    </g>
    <g id="ytick_6">
     <g id="line2d_25">
      <g>
       <use xlink:href="#mff167ed9d8" x="33.345307" y="142.282342" style="stroke: #000000; stroke-width: 0.6"/>
      </g>
     </g>
    </g>
    <g id="ytick_7">
     <g id="line2d_26">
      <g>
       <use xlink:href="#mff167ed9d8" x="33.345307" y="135.763619" style="stroke: #000000; stroke-width: 0.6"/>
      </g>
     </g>
    </g>
    <g id="ytick_8">
     <g id="line2d_27">
      <g>
       <use xlink:href="#mff167ed9d8" x="33.345307" y="122.726172" style="stroke: #000000; stroke-width: 0.6"/>
      </g>
     </g>
    </g>
    <g id="ytick_9">
     <g id="line2d_28">
      <g>
       <use xlink:href="#mff167ed9d8" x="33.345307" y="116.207449" style="stroke: #000000; stroke-width: 0.6"/>
      </g>
     </g>
    </g>
    <g id="ytick_10">
     <g id="line2d_29">
      <g>
       <use xlink:href="#mff167ed9d8" x="33.345307" y="109.688726" style="stroke: #000000; stroke-width: 0.6"/>
      </g>
     </g>
    </g>
    <g id="ytick_11">
     <g id="line2d_30">
      <g>
       <use xlink:href="#mff167ed9d8" x="33.345307" y="103.170002" style="stroke: #000000; stroke-width: 0.6"/>
      </g>
     </g>
    </g>
    <g id="ytick_12">
     <g id="line2d_31">
      <g>
       <use xlink:href="#mff167ed9d8" x="33.345307" y="90.132556" style="stroke: #000000; stroke-width: 0.6"/>
      </g>
     </g>
    </g>
    <g id="ytick_13">
     <g id="line2d_32">
      <g>
       <use xlink:href="#mff167ed9d8" x="33.345307" y="83.613832" style="stroke: #000000; stroke-width: 0.6"/>
      </g>
     </g>
    </g>
    <g id="ytick_14">
     <g id="line2d_33">
      <g>
       <use xlink:href="#mff167ed9d8" x="33.345307" y="77.095109" style="stroke: #000000; stroke-width: 0.6"/>
      </g>
     </g>
    </g>
    <g id="ytick_15">
     <g id="line2d_34">
      <g>
       <use xlink:href="#mff167ed9d8" x="33.345307" y="70.576386" style="stroke: #000000; stroke-width: 0.6"/>
      </g>
     </g>
    </g>
    <g id="ytick_16">
     <g id="line2d_35">
      <g>
       <use xlink:href="#mff167ed9d8" x="33.345307" y="57.538939" style="stroke: #000000; stroke-width: 0.6"/>
      </g>
     </g>
    </g>
    <g id="ytick_17">
     <g id="line2d_36">
      <g>
       <use xlink:href="#mff167ed9d8" x="33.345307" y="51.020216" style="stroke: #000000; stroke-width: 0.6"/>
      </g>
     </g>
    </g>
    <g id="ytick_18">
     <g id="line2d_37">
      <g>
       <use xlink:href="#mff167ed9d8" x="33.345307" y="44.501492" style="stroke: #000000; stroke-width: 0.6"/>
      </g>
     </g>
    </g>
    <g id="ytick_19">
     <g id="line2d_38">
      <g>
       <use xlink:href="#mff167ed9d8" x="33.345307" y="37.982769" style="stroke: #000000; stroke-width: 0.6"/>
      </g>
     </g>
    </g>
    <g id="ytick_20">
     <g id="line2d_39">
      <g>
       <use xlink:href="#mff167ed9d8" x="33.345307" y="24.945322" style="stroke: #000000; stroke-width: 0.6"/>
      </g>
     </g>
    </g>
    <g id="ytick_21">
     <g id="line2d_40">
      <g>
       <use xlink:href="#mff167ed9d8" x="33.345307" y="18.426599" style="stroke: #000000; stroke-width: 0.6"/>
      </g>
     </g>
    </g>
    <g id="ytick_22">
     <g id="line2d_41">
      <g>
       <use xlink:href="#mff167ed9d8" x="33.345307" y="11.907876" style="stroke: #000000; stroke-width: 0.6"/>
      </g>
     </g>
    </g>
    <g id="ytick_23">
     <g id="line2d_42">
      <g>
       <use xlink:href="#mff167ed9d8" x="33.345307" y="5.389152" style="stroke: #000000; stroke-width: 0.6"/>
      </g>
     </g>
    </g>
    <g id="text_10">
     <!-- $HV$ -->
     <g transform="translate(8.523271 85.190557) rotate(-90) scale(0.11 -0.11)">
      <defs>
       <path id="NewTXBMI-4e" d="M 4205 0 
L 4205 166 
C 3853 166 3738 230 3738 416 
C 3738 512 3763 640 3859 974 
L 3898 1116 
L 4595 3665 
C 4698 4005 4787 4082 5114 4127 
L 5114 4288 
L 3206 4288 
L 3206 4127 
L 3411 4095 
C 3610 4069 3674 4018 3674 3890 
C 3674 3813 3642 3621 3610 3499 
L 3309 2393 
L 1779 2393 
L 2125 3671 
C 2227 4025 2355 4121 2771 4121 
L 2771 4288 
L 742 4288 
L 742 4127 
L 941 4095 
C 1146 4069 1210 4011 1210 3871 
C 1210 3794 1190 3678 1139 3498 
L 358 622 
C 256 288 166 205 -154 160 
L -154 0 
L 1741 0 
L 1741 160 
C 1331 192 1274 230 1274 436 
C 1274 532 1293 647 1357 847 
L 1382 949 
L 1702 2112 
L 3232 2112 
L 2822 607 
C 2733 256 2605 166 2176 166 
L 2176 0 
L 4205 0 
z
" transform="scale(0.015625)"/>
       <path id="NewTXBMI-5c" d="M 4576 4096 
L 4576 4256 
L 3347 4256 
L 3347 4096 
L 3507 4083 
C 3686 4064 3763 4006 3763 3885 
C 3763 3745 3635 3470 3386 3075 
L 2170 1148 
L 1843 3706 
C 1837 3745 1837 3777 1837 3809 
C 1837 4025 1888 4057 2323 4096 
L 2323 4256 
L 416 4256 
L 416 4096 
C 813 4096 851 4032 992 3119 
L 1478 -128 
L 1683 -128 
L 4198 3841 
C 4282 3961 4397 4038 4576 4096 
z
" transform="scale(0.015625)"/>
      </defs>
      <use xlink:href="#NewTXBMI-4e" transform="scale(0.996264)"/>
      <use xlink:href="#NewTXBMI-5c" transform="translate(78.605194 0) scale(0.996264)"/>
     </g>
    </g>
   </g>
   <g id="LineCollection_1">
    <path d="M 41.602338 10.041257 
L 41.602338 7.931706 
" clip-path="url(#p9a41a7ff44)" style="fill: none; stroke: #000000; stroke-width: 1.5"/>
    <path d="M 50.738266 22.235095 
L 50.738266 18.014863 
" clip-path="url(#p9a41a7ff44)" style="fill: none; stroke: #000000; stroke-width: 1.5"/>
    <path d="M 55.739765 27.1999 
L 55.739765 23.282808 
" clip-path="url(#p9a41a7ff44)" style="fill: none; stroke: #000000; stroke-width: 1.5"/>
    <path d="M 60.230458 29.453958 
L 60.230458 25.234291 
" clip-path="url(#p9a41a7ff44)" style="fill: none; stroke: #000000; stroke-width: 1.5"/>
    <path d="M 64.378881 30.502518 
L 64.378881 25.679396 
" clip-path="url(#p9a41a7ff44)" style="fill: none; stroke: #000000; stroke-width: 1.5"/>
    <path d="M 68.864376 34.26352 
L 68.864376 30.042723 
" clip-path="url(#p9a41a7ff44)" style="fill: none; stroke: #000000; stroke-width: 1.5"/>
    <path d="M 78.500313 52.635289 
L 78.500313 48.114176 
" clip-path="url(#p9a41a7ff44)" style="fill: none; stroke: #000000; stroke-width: 1.5"/>
    <path d="M 87.442914 73.119151 
L 87.442914 65.281577 
" clip-path="url(#p9a41a7ff44)" style="fill: none; stroke: #000000; stroke-width: 1.5"/>
    <path d="M 92.258284 83.812261 
L 92.258284 74.769472 
" clip-path="url(#p9a41a7ff44)" style="fill: none; stroke: #000000; stroke-width: 1.5"/>
    <path d="M 96.724586 92.698113 
L 96.724586 88.477316 
" clip-path="url(#p9a41a7ff44)" style="fill: none; stroke: #000000; stroke-width: 1.5"/>
    <path d="M 101.336233 117.559711 
L 101.336233 107.008565 
" clip-path="url(#p9a41a7ff44)" style="fill: none; stroke: #000000; stroke-width: 1.5"/>
    <path d="M 123.924248 140.282376 
L 123.924248 134.251778 
" clip-path="url(#p9a41a7ff44)" style="fill: none; stroke: #000000; stroke-width: 1.5"/>
    <path d="M 151.923605 146.565826 
L 151.923605 139.934598 
" clip-path="url(#p9a41a7ff44)" style="fill: none; stroke: #000000; stroke-width: 1.5"/>
    <path d="M 206.742968 145.573063 
L 206.742968 141.351136 
" clip-path="url(#p9a41a7ff44)" style="fill: none; stroke: #000000; stroke-width: 1.5"/>
   </g>
   <g id="line2d_43">
    <defs>
     <path id="ma0ef8249df" d="M 2 0 
L -2 -0 
" style="stroke: #000000"/>
    </defs>
    <g clip-path="url(#p9a41a7ff44)">
     <use xlink:href="#ma0ef8249df" x="41.602338" y="10.041257" style="stroke: #000000"/>
     <use xlink:href="#ma0ef8249df" x="50.738266" y="22.235095" style="stroke: #000000"/>
     <use xlink:href="#ma0ef8249df" x="55.739765" y="27.1999" style="stroke: #000000"/>
     <use xlink:href="#ma0ef8249df" x="60.230458" y="29.453958" style="stroke: #000000"/>
     <use xlink:href="#ma0ef8249df" x="64.378881" y="30.502518" style="stroke: #000000"/>
     <use xlink:href="#ma0ef8249df" x="68.864376" y="34.26352" style="stroke: #000000"/>
     <use xlink:href="#ma0ef8249df" x="78.500313" y="52.635289" style="stroke: #000000"/>
     <use xlink:href="#ma0ef8249df" x="87.442914" y="73.119151" style="stroke: #000000"/>
     <use xlink:href="#ma0ef8249df" x="92.258284" y="83.812261" style="stroke: #000000"/>
     <use xlink:href="#ma0ef8249df" x="96.724586" y="92.698113" style="stroke: #000000"/>
     <use xlink:href="#ma0ef8249df" x="101.336233" y="117.559711" style="stroke: #000000"/>
     <use xlink:href="#ma0ef8249df" x="123.924248" y="140.282376" style="stroke: #000000"/>
     <use xlink:href="#ma0ef8249df" x="151.923605" y="146.565826" style="stroke: #000000"/>
     <use xlink:href="#ma0ef8249df" x="206.742968" y="145.573063" style="stroke: #000000"/>
    </g>
   </g>
   <g id="line2d_44">
    <g clip-path="url(#p9a41a7ff44)">
     <use xlink:href="#ma0ef8249df" x="41.602338" y="7.931706" style="stroke: #000000"/>
     <use xlink:href="#ma0ef8249df" x="50.738266" y="18.014863" style="stroke: #000000"/>
     <use xlink:href="#ma0ef8249df" x="55.739765" y="23.282808" style="stroke: #000000"/>
     <use xlink:href="#ma0ef8249df" x="60.230458" y="25.234291" style="stroke: #000000"/>
     <use xlink:href="#ma0ef8249df" x="64.378881" y="25.679396" style="stroke: #000000"/>
     <use xlink:href="#ma0ef8249df" x="68.864376" y="30.042723" style="stroke: #000000"/>
     <use xlink:href="#ma0ef8249df" x="78.500313" y="48.114176" style="stroke: #000000"/>
     <use xlink:href="#ma0ef8249df" x="87.442914" y="65.281577" style="stroke: #000000"/>
     <use xlink:href="#ma0ef8249df" x="92.258284" y="74.769472" style="stroke: #000000"/>
     <use xlink:href="#ma0ef8249df" x="96.724586" y="88.477316" style="stroke: #000000"/>
     <use xlink:href="#ma0ef8249df" x="101.336233" y="107.008565" style="stroke: #000000"/>
     <use xlink:href="#ma0ef8249df" x="123.924248" y="134.251778" style="stroke: #000000"/>
     <use xlink:href="#ma0ef8249df" x="151.923605" y="139.934598" style="stroke: #000000"/>
     <use xlink:href="#ma0ef8249df" x="206.742968" y="141.351136" style="stroke: #000000"/>
    </g>
   </g>
   <g id="patch_3">
    <path d="M 33.345307 153.497532 
L 33.345307 1 
" style="fill: none; stroke: #000000; stroke-width: 0.8; stroke-linejoin: miter; stroke-linecap: square"/>
   </g>
   <g id="patch_4">
    <path d="M 215 153.497532 
L 215 1 
" style="fill: none; stroke: #000000; stroke-width: 0.8; stroke-linejoin: miter; stroke-linecap: square"/>
   </g>
   <g id="patch_5">
    <path d="M 33.345307 153.497532 
L 215 153.497532 
" style="fill: none; stroke: #000000; stroke-width: 0.8; stroke-linejoin: miter; stroke-linecap: square"/>
   </g>
   <g id="patch_6">
    <path d="M 33.345307 1 
L 215 1 
" style="fill: none; stroke: #000000; stroke-width: 0.8; stroke-linejoin: miter; stroke-linecap: square"/>
   </g>
   <g id="PathCollection_1">
    <defs>
     <path id="m17007cb7b8" d="M 0 -3.162278 
L -2.738613 -1.581139 
L -2.738613 1.581139 
L -0 3.162278 
L 2.738613 1.581139 
L 2.738613 -1.581139 
z
" style="stroke: #000000"/>
    </defs>
    <g clip-path="url(#p9a41a7ff44)">
     <use xlink:href="#m17007cb7b8" x="41.602338" y="8.986482" style="fill: #d95f02; stroke: #000000"/>
     <use xlink:href="#m17007cb7b8" x="50.738266" y="20.124979" style="fill: #d95f02; stroke: #000000"/>
     <use xlink:href="#m17007cb7b8" x="55.739765" y="25.241354" style="fill: #d95f02; stroke: #000000"/>
     <use xlink:href="#m17007cb7b8" x="60.230458" y="27.344125" style="fill: #d95f02; stroke: #000000"/>
     <use xlink:href="#m17007cb7b8" x="64.378881" y="28.090957" style="fill: #d95f02; stroke: #000000"/>
     <use xlink:href="#m17007cb7b8" x="68.864376" y="32.153121" style="fill: #d95f02; stroke: #000000"/>
     <use xlink:href="#m17007cb7b8" x="78.500313" y="50.374732" style="fill: #d95f02; stroke: #000000"/>
     <use xlink:href="#m17007cb7b8" x="87.442914" y="69.200364" style="fill: #d95f02; stroke: #000000"/>
     <use xlink:href="#m17007cb7b8" x="92.258284" y="79.290866" style="fill: #d95f02; stroke: #000000"/>
     <use xlink:href="#m17007cb7b8" x="96.724586" y="90.587715" style="fill: #d95f02; stroke: #000000"/>
     <use xlink:href="#m17007cb7b8" x="101.336233" y="112.284138" style="fill: #d95f02; stroke: #000000"/>
     <use xlink:href="#m17007cb7b8" x="123.924248" y="137.267077" style="fill: #d95f02; stroke: #000000"/>
     <use xlink:href="#m17007cb7b8" x="151.923605" y="143.250212" style="fill: #d95f02; stroke: #000000"/>
     <use xlink:href="#m17007cb7b8" x="206.742968" y="143.4621" style="fill: #d95f02; stroke: #000000"/>
    </g>
   </g>
  </g>
 </g>
 <defs>
  <clipPath id="p9a41a7ff44">
   <rect x="33.345307" y="1" width="181.654693" height="152.497532"/>
  </clipPath>
 </defs>
</svg>
