<?xml version="1.0" encoding="utf-8" standalone="no"?>
<!DOCTYPE svg PUBLIC "-//W3C//DTD SVG 1.1//EN"
  "http://www.w3.org/Graphics/SVG/1.1/DTD/svg11.dtd">
<svg xmlns:xlink="http://www.w3.org/1999/xlink" width="252pt" height="162pt" viewBox="0 0 252 162" xmlns="http://www.w3.org/2000/svg" version="1.1">
 <metadata>
  <rdf:RDF xmlns:dc="http://purl.org/dc/elements/1.1/" xmlns:cc="http://creativecommons.org/ns#" xmlns:rdf="http://www.w3.org/1999/02/22-rdf-syntax-ns#">
   <cc:Work>
    <dc:type rdf:resource="http://purl.org/dc/dcmitype/StillImage"/>
    <dc:date>2024-11-18T17:30:20.976539</dc:date>
    <dc:format>image/svg+xml</dc:format>
    <dc:creator>
     <cc:Agent>
      <dc:title>Matplotlib v3.9.0, https://matplotlib.org/</dc:title>
     </cc:Agent>
    </dc:creator>
   </cc:Work>
  </rdf:RDF>
 </metadata>
 <defs>
  <style type="text/css">*{stroke-linejoin: round; stroke-linecap: butt}</style>
 </defs>
 <g id="figure_1">
  <g id="patch_1">
   <path d="M 0 162 
L 252 162 
L 252 0 
L 0 0 
z
" style="fill: #ffffff"/>
  </g>
  <g id="axes_1">
   <g id="patch_2">
    <path d="M 33.146741 135.497532 
L 251 135.497532 
L 251 1 
L 33.146741 1 
z
" style="fill: #ffffff"/>
   </g>
   <g id="matplotlib.axis_1">
    <g id="xtick_1">
     <g id="line2d_1">
      <defs>
       <path id="me4ce84e086" d="M 0 0 
L 0 -3.5 
" style="stroke: #000000; stroke-width: 0.8"/>
      </defs>
      <g>
       <use xlink:href="#me4ce84e086" x="43.049162" y="135.497532" style="stroke: #000000; stroke-width: 0.8"/>
      </g>
     </g>
     <g id="text_1">
      <!-- $\mathdefault{0.00}$ -->
      <g transform="translate(34.167475 145.836875) scale(0.1 -0.1)">
       <defs>
        <path id="TeXGyreTermesX-Bold-30" d="M 3046 2166 
C 3046 3440 2426 4403 1600 4403 
C 1184 4403 762 4123 499 3664 
C 294 3313 154 2714 154 2185 
C 154 873 755 -64 1606 -64 
C 2432 -64 3046 886 3046 2166 
z
M 2035 1434 
C 2035 1058 1984 561 1926 389 
C 1856 203 1754 114 1606 114 
C 1286 114 1165 491 1165 1434 
L 1165 2892 
C 1165 3855 1286 4224 1594 4224 
C 1907 4224 2035 3829 2035 2892 
L 2035 1434 
z
" transform="scale(0.015625)"/>
        <path id="NewTXBMI-93" d="M 1344 473 
C 1344 768 1101 1017 800 1017 
C 493 1017 262 761 262 473 
C 262 173 493 -64 800 -64 
C 1101 -64 1344 166 1344 473 
z
" transform="scale(0.015625)"/>
       </defs>
       <use xlink:href="#TeXGyreTermesX-Bold-30" transform="scale(0.996264)"/>
       <use xlink:href="#NewTXBMI-93" transform="translate(51.407199 0) scale(0.996264)"/>
       <use xlink:href="#TeXGyreTermesX-Bold-30" transform="translate(78.00746 0) scale(0.996264)"/>
       <use xlink:href="#TeXGyreTermesX-Bold-30" transform="translate(127.82066 0) scale(0.996264)"/>
      </g>
     </g>
    </g>
    <g id="xtick_2">
     <g id="line2d_2">
      <g>
       <use xlink:href="#me4ce84e086" x="78.733561" y="135.497532" style="stroke: #000000; stroke-width: 0.8"/>
      </g>
     </g>
     <g id="text_2">
      <!-- $\mathdefault{0.02}$ -->
      <g transform="translate(69.851874 145.836875) scale(0.1 -0.1)">
       <defs>
        <path id="TeXGyreTermesX-Bold-32" d="M 3059 1341 
L 2906 1341 
C 2720 884 2643 846 1990 846 
L 1024 846 
L 2061 1824 
C 2566 2301 2790 2726 2790 3210 
C 2790 3889 2298 4373 1606 4373 
C 1286 4373 979 4245 755 4016 
C 506 3768 378 3552 198 3075 
L 378 3075 
C 576 3469 813 3648 1158 3648 
C 1440 3648 1651 3527 1792 3298 
C 1869 3164 1920 2987 1920 2841 
C 1920 2561 1798 2211 1594 1900 
C 1267 1405 1043 1137 109 146 
L 109 0 
L 2771 0 
L 3059 1341 
z
" transform="scale(0.015625)"/>
       </defs>
       <use xlink:href="#TeXGyreTermesX-Bold-30" transform="scale(0.996264)"/>
       <use xlink:href="#NewTXBMI-93" transform="translate(51.407199 0) scale(0.996264)"/>
       <use xlink:href="#TeXGyreTermesX-Bold-30" transform="translate(78.00746 0) scale(0.996264)"/>
       <use xlink:href="#TeXGyreTermesX-Bold-32" transform="translate(127.82066 0) scale(0.996264)"/>
      </g>
     </g>
    </g>
    <g id="xtick_3">
     <g id="line2d_3">
      <g>
       <use xlink:href="#me4ce84e086" x="114.417961" y="135.497532" style="stroke: #000000; stroke-width: 0.8"/>
      </g>
     </g>
     <g id="text_3">
      <!-- $\mathdefault{0.04}$ -->
      <g transform="translate(105.536274 145.836875) scale(0.1 -0.1)">
       <defs>
        <path id="TeXGyreTermesX-Bold-34" d="M 3040 896 
L 3040 1602 
L 2637 1602 
L 2637 4352 
L 2125 4352 
L 1747 3863 
C 928 2803 506 2219 122 1615 
L 122 896 
L 1709 896 
L 1709 -32 
L 2637 -32 
L 2637 896 
L 3040 896 
z
M 1722 1602 
L 384 1602 
L 1722 3488 
L 1722 1602 
z
" transform="scale(0.015625)"/>
       </defs>
       <use xlink:href="#TeXGyreTermesX-Bold-30" transform="scale(0.996264)"/>
       <use xlink:href="#NewTXBMI-93" transform="translate(51.407199 0) scale(0.996264)"/>
       <use xlink:href="#TeXGyreTermesX-Bold-30" transform="translate(78.00746 0) scale(0.996264)"/>
       <use xlink:href="#TeXGyreTermesX-Bold-34" transform="translate(127.82066 0) scale(0.996264)"/>
      </g>
     </g>
    </g>
    <g id="xtick_4">
     <g id="line2d_4">
      <g>
       <use xlink:href="#me4ce84e086" x="150.10236" y="135.497532" style="stroke: #000000; stroke-width: 0.8"/>
      </g>
     </g>
     <g id="text_4">
      <!-- $\mathdefault{0.06}$ -->
      <g transform="translate(141.220673 145.836875) scale(0.1 -0.1)">
       <defs>
        <path id="TeXGyreTermesX-Bold-36" d="M 3040 1427 
C 3040 2193 2573 2688 1843 2688 
C 1638 2688 1498 2663 1306 2580 
C 1542 3515 2074 4030 3008 4221 
L 3008 4387 
C 2157 4266 1760 4126 1274 3796 
C 557 3307 179 2596 179 1752 
C 179 654 768 -64 1664 -64 
C 2458 -64 3040 564 3040 1427 
z
M 2067 1046 
C 2067 298 1990 108 1677 108 
C 1530 108 1414 172 1350 291 
C 1242 501 1178 964 1178 1553 
C 1178 1946 1216 2307 1261 2339 
C 1312 2377 1402 2402 1491 2402 
C 1920 2402 2067 2054 2067 1046 
z
" transform="scale(0.015625)"/>
       </defs>
       <use xlink:href="#TeXGyreTermesX-Bold-30" transform="scale(0.996264)"/>
       <use xlink:href="#NewTXBMI-93" transform="translate(51.407199 0) scale(0.996264)"/>
       <use xlink:href="#TeXGyreTermesX-Bold-30" transform="translate(78.00746 0) scale(0.996264)"/>
       <use xlink:href="#TeXGyreTermesX-Bold-36" transform="translate(127.82066 0) scale(0.996264)"/>
      </g>
     </g>
    </g>
    <g id="xtick_5">
     <g id="line2d_5">
      <g>
       <use xlink:href="#me4ce84e086" x="185.78676" y="135.497532" style="stroke: #000000; stroke-width: 0.8"/>
      </g>
     </g>
     <g id="text_5">
      <!-- $\mathdefault{0.08}$ -->
      <g transform="translate(176.905073 145.836875) scale(0.1 -0.1)">
       <defs>
        <path id="TeXGyreTermesX-Bold-38" d="M 3021 1212 
C 3021 1768 2746 2164 2061 2597 
C 2675 2815 2931 3075 2931 3483 
C 2931 4051 2445 4409 1683 4409 
C 819 4409 250 3961 250 3292 
C 250 2814 506 2462 1139 2086 
C 774 1965 627 1881 461 1722 
C 275 1543 179 1301 179 1020 
C 179 370 723 -64 1536 -64 
C 2426 -64 3021 447 3021 1212 
z
M 2170 3439 
C 2170 3139 2118 2993 1907 2712 
C 1370 2986 1075 3337 1075 3694 
C 1075 3994 1306 4224 1606 4224 
C 1965 4224 2170 3937 2170 3439 
z
M 2131 829 
C 2131 402 1920 140 1574 140 
C 1184 140 954 478 954 1046 
C 954 1397 1024 1595 1280 1971 
C 1978 1505 2131 1301 2131 829 
z
" transform="scale(0.015625)"/>
       </defs>
       <use xlink:href="#TeXGyreTermesX-Bold-30" transform="scale(0.996264)"/>
       <use xlink:href="#NewTXBMI-93" transform="translate(51.407199 0) scale(0.996264)"/>
       <use xlink:href="#TeXGyreTermesX-Bold-30" transform="translate(78.00746 0) scale(0.996264)"/>
       <use xlink:href="#TeXGyreTermesX-Bold-38" transform="translate(127.82066 0) scale(0.996264)"/>
      </g>
     </g>
    </g>
    <g id="xtick_6">
     <g id="line2d_6">
      <g>
       <use xlink:href="#me4ce84e086" x="221.471159" y="135.497532" style="stroke: #000000; stroke-width: 0.8"/>
      </g>
     </g>
     <g id="text_6">
      <!-- $\mathdefault{0.10}$ -->
      <g transform="translate(212.589472 145.836875) scale(0.1 -0.1)">
       <defs>
        <path id="TeXGyreTermesX-Bold-31" d="M 2829 0 
L 2829 159 
C 2246 159 2138 255 2138 746 
L 2138 4384 
L 2029 4384 
L 416 3686 
L 416 3521 
C 474 3540 525 3559 544 3572 
C 717 3635 877 3680 960 3680 
C 1120 3680 1190 3540 1190 3241 
L 1190 790 
C 1190 267 1062 159 429 159 
L 429 0 
L 2829 0 
z
" transform="scale(0.015625)"/>
       </defs>
       <use xlink:href="#TeXGyreTermesX-Bold-30" transform="scale(0.996264)"/>
       <use xlink:href="#NewTXBMI-93" transform="translate(51.407199 0) scale(0.996264)"/>
       <use xlink:href="#TeXGyreTermesX-Bold-31" transform="translate(78.00746 0) scale(0.996264)"/>
       <use xlink:href="#TeXGyreTermesX-Bold-30" transform="translate(127.82066 0) scale(0.996264)"/>
      </g>
     </g>
    </g>
    <g id="xtick_7">
     <g id="line2d_7">
      <defs>
       <path id="m9509eda793" d="M 0 0 
L 0 -2 
" style="stroke: #000000; stroke-width: 0.6"/>
      </defs>
      <g>
       <use xlink:href="#m9509eda793" x="35.912282" y="135.497532" style="stroke: #000000; stroke-width: 0.6"/>
      </g>
     </g>
    </g>
    <g id="xtick_8">
     <g id="line2d_8">
      <g>
       <use xlink:href="#m9509eda793" x="50.186042" y="135.497532" style="stroke: #000000; stroke-width: 0.6"/>
      </g>
     </g>
    </g>
    <g id="xtick_9">
     <g id="line2d_9">
      <g>
       <use xlink:href="#m9509eda793" x="57.322922" y="135.497532" style="stroke: #000000; stroke-width: 0.6"/>
      </g>
     </g>
    </g>
    <g id="xtick_10">
     <g id="line2d_10">
      <g>
       <use xlink:href="#m9509eda793" x="64.459802" y="135.497532" style="stroke: #000000; stroke-width: 0.6"/>
      </g>
     </g>
    </g>
    <g id="xtick_11">
     <g id="line2d_11">
      <g>
       <use xlink:href="#m9509eda793" x="71.596681" y="135.497532" style="stroke: #000000; stroke-width: 0.6"/>
      </g>
     </g>
    </g>
    <g id="xtick_12">
     <g id="line2d_12">
      <g>
       <use xlink:href="#m9509eda793" x="85.870441" y="135.497532" style="stroke: #000000; stroke-width: 0.6"/>
      </g>
     </g>
    </g>
    <g id="xtick_13">
     <g id="line2d_13">
      <g>
       <use xlink:href="#m9509eda793" x="93.007321" y="135.497532" style="stroke: #000000; stroke-width: 0.6"/>
      </g>
     </g>
    </g>
    <g id="xtick_14">
     <g id="line2d_14">
      <g>
       <use xlink:href="#m9509eda793" x="100.144201" y="135.497532" style="stroke: #000000; stroke-width: 0.6"/>
      </g>
     </g>
    </g>
    <g id="xtick_15">
     <g id="line2d_15">
      <g>
       <use xlink:href="#m9509eda793" x="107.281081" y="135.497532" style="stroke: #000000; stroke-width: 0.6"/>
      </g>
     </g>
    </g>
    <g id="xtick_16">
     <g id="line2d_16">
      <g>
       <use xlink:href="#m9509eda793" x="121.554841" y="135.497532" style="stroke: #000000; stroke-width: 0.6"/>
      </g>
     </g>
    </g>
    <g id="xtick_17">
     <g id="line2d_17">
      <g>
       <use xlink:href="#m9509eda793" x="128.691721" y="135.497532" style="stroke: #000000; stroke-width: 0.6"/>
      </g>
     </g>
    </g>
    <g id="xtick_18">
     <g id="line2d_18">
      <g>
       <use xlink:href="#m9509eda793" x="135.828601" y="135.497532" style="stroke: #000000; stroke-width: 0.6"/>
      </g>
     </g>
    </g>
    <g id="xtick_19">
     <g id="line2d_19">
      <g>
       <use xlink:href="#m9509eda793" x="142.96548" y="135.497532" style="stroke: #000000; stroke-width: 0.6"/>
      </g>
     </g>
    </g>
    <g id="xtick_20">
     <g id="line2d_20">
      <g>
       <use xlink:href="#m9509eda793" x="157.23924" y="135.497532" style="stroke: #000000; stroke-width: 0.6"/>
      </g>
     </g>
    </g>
    <g id="xtick_21">
     <g id="line2d_21">
      <g>
       <use xlink:href="#m9509eda793" x="164.37612" y="135.497532" style="stroke: #000000; stroke-width: 0.6"/>
      </g>
     </g>
    </g>
    <g id="xtick_22">
     <g id="line2d_22">
      <g>
       <use xlink:href="#m9509eda793" x="171.513" y="135.497532" style="stroke: #000000; stroke-width: 0.6"/>
      </g>
     </g>
    </g>
    <g id="xtick_23">
     <g id="line2d_23">
      <g>
       <use xlink:href="#m9509eda793" x="178.64988" y="135.497532" style="stroke: #000000; stroke-width: 0.6"/>
      </g>
     </g>
    </g>
    <g id="xtick_24">
     <g id="line2d_24">
      <g>
       <use xlink:href="#m9509eda793" x="192.92364" y="135.497532" style="stroke: #000000; stroke-width: 0.6"/>
      </g>
     </g>
    </g>
    <g id="xtick_25">
     <g id="line2d_25">
      <g>
       <use xlink:href="#m9509eda793" x="200.06052" y="135.497532" style="stroke: #000000; stroke-width: 0.6"/>
      </g>
     </g>
    </g>
    <g id="xtick_26">
     <g id="line2d_26">
      <g>
       <use xlink:href="#m9509eda793" x="207.1974" y="135.497532" style="stroke: #000000; stroke-width: 0.6"/>
      </g>
     </g>
    </g>
    <g id="xtick_27">
     <g id="line2d_27">
      <g>
       <use xlink:href="#m9509eda793" x="214.33428" y="135.497532" style="stroke: #000000; stroke-width: 0.6"/>
      </g>
     </g>
    </g>
    <g id="xtick_28">
     <g id="line2d_28">
      <g>
       <use xlink:href="#m9509eda793" x="228.608039" y="135.497532" style="stroke: #000000; stroke-width: 0.6"/>
      </g>
     </g>
    </g>
    <g id="xtick_29">
     <g id="line2d_29">
      <g>
       <use xlink:href="#m9509eda793" x="235.744919" y="135.497532" style="stroke: #000000; stroke-width: 0.6"/>
      </g>
     </g>
    </g>
    <g id="xtick_30">
     <g id="line2d_30">
      <g>
       <use xlink:href="#m9509eda793" x="242.881799" y="135.497532" style="stroke: #000000; stroke-width: 0.6"/>
      </g>
     </g>
    </g>
    <g id="xtick_31">
     <g id="line2d_31">
      <g>
       <use xlink:href="#m9509eda793" x="250.018679" y="135.497532" style="stroke: #000000; stroke-width: 0.6"/>
      </g>
     </g>
    </g>
    <g id="text_7">
     <!-- $t$ \textbf{[ms]} -->
     <g transform="translate(129.824306 158.838109) scale(0.1 -0.1)">
      <defs>
       <path id="NewTXBMI-74" d="M 1440 837 
L 1299 926 
C 1082 588 915 415 813 415 
C 762 415 710 460 710 511 
C 710 632 826 1073 1056 1864 
L 1267 2624 
L 1798 2624 
L 1798 2893 
L 1338 2893 
L 1587 3808 
L 1363 3808 
C 1018 3303 698 3037 192 2848 
L 192 2624 
L 518 2624 
L 83 1105 
C -13 773 -70 499 -70 383 
C -70 135 109 -32 378 -32 
C 762 -32 1018 180 1440 837 
z
" transform="scale(0.015625)"/>
       <path id="TeXGyreTermesX-Bold-5b" d="M 1926 -960 
L 1926 -750 
L 1414 -750 
C 1152 -750 1094 -686 1094 -413 
L 1094 3650 
C 1094 4020 1165 4096 1523 4096 
L 1926 4096 
L 1926 4306 
L 429 4306 
L 429 -960 
L 1926 -960 
z
" transform="scale(0.015625)"/>
       <path id="TeXGyreTermesX-Bold-6d" d="M 5210 0 
L 5210 159 
C 4960 159 4890 236 4890 510 
L 4890 2109 
C 4890 2657 4550 3008 4026 3008 
C 3661 3008 3418 2862 3085 2455 
C 2893 2856 2669 3008 2266 3008 
C 1862 3008 1568 2836 1325 2455 
L 1325 2932 
L 102 2932 
L 102 2779 
C 384 2741 454 2665 454 2404 
L 454 534 
C 454 273 384 204 102 153 
L 102 0 
L 1638 0 
L 1638 153 
C 1414 184 1344 273 1344 515 
L 1344 2213 
C 1344 2251 1446 2372 1530 2436 
C 1664 2538 1773 2582 1882 2582 
C 2131 2582 2227 2436 2227 2054 
L 2227 515 
C 2227 254 2157 172 1920 153 
L 1920 0 
L 3418 0 
L 3418 153 
C 3194 178 3117 273 3117 515 
L 3117 2213 
C 3117 2245 3219 2366 3302 2429 
C 3443 2538 3552 2582 3661 2582 
C 3904 2582 4000 2429 4000 2054 
L 4000 515 
C 4000 248 3930 172 3686 153 
L 3686 0 
L 5210 0 
z
" transform="scale(0.015625)"/>
       <path id="TeXGyreTermesX-Bold-73" d="M 2310 899 
C 2310 1348 2067 1627 1427 1887 
C 992 2070 813 2228 813 2444 
C 813 2653 992 2811 1235 2811 
C 1408 2811 1574 2741 1715 2608 
C 1850 2481 1920 2360 2016 2086 
L 2176 2086 
L 2176 3008 
L 2035 3008 
C 1997 2913 1958 2881 1875 2881 
C 1837 2881 1779 2893 1677 2922 
C 1472 2985 1325 3008 1178 3008 
C 595 3008 173 2617 173 2086 
C 173 1669 435 1378 1082 1107 
C 1523 917 1696 759 1696 557 
C 1696 311 1504 146 1216 146 
C 768 146 474 432 339 986 
L 160 986 
L 160 -64 
L 320 -64 
C 390 70 429 114 486 114 
C 518 114 570 102 634 77 
C 819 4 1146 -64 1325 -64 
C 1907 -64 2310 328 2310 899 
z
" transform="scale(0.015625)"/>
       <path id="TeXGyreTermesX-Bold-5d" d="M 1702 -960 
L 1702 4306 
L 205 4306 
L 205 4096 
L 608 4096 
C 966 4096 1037 4020 1037 3650 
L 1037 -413 
C 1037 -693 986 -750 717 -750 
L 205 -750 
L 205 -960 
L 1702 -960 
z
" transform="scale(0.015625)"/>
      </defs>
      <use xlink:href="#NewTXBMI-74" transform="scale(0.996264)"/>
      <use xlink:href="#TeXGyreTermesX-Bold-5b" transform="translate(56.886681 0) scale(0.996264)"/>
      <use xlink:href="#TeXGyreTermesX-Bold-6d" transform="translate(90.062291 0) scale(0.996264)"/>
      <use xlink:href="#TeXGyreTermesX-Bold-73" transform="translate(173.051101 0) scale(0.996264)"/>
      <use xlink:href="#TeXGyreTermesX-Bold-5d" transform="translate(211.805765 0) scale(0.996264)"/>
     </g>
    </g>
   </g>
   <g id="matplotlib.axis_2">
    <g id="ytick_1">
     <g id="line2d_32">
      <defs>
       <path id="mcd9d113833" d="M 0 0 
L 3.5 0 
" style="stroke: #000000; stroke-width: 0.8"/>
      </defs>
      <g>
       <use xlink:href="#mcd9d113833" x="33.146741" y="129.384008" style="stroke: #000000; stroke-width: 0.8"/>
      </g>
     </g>
     <g id="text_8">
      <!-- $\mathdefault{0.0}$ -->
      <g transform="translate(16.864687 132.80368) scale(0.1 -0.1)">
       <use xlink:href="#TeXGyreTermesX-Bold-30" transform="scale(0.996264)"/>
       <use xlink:href="#NewTXBMI-93" transform="translate(51.407199 0) scale(0.996264)"/>
       <use xlink:href="#TeXGyreTermesX-Bold-30" transform="translate(78.00746 0) scale(0.996264)"/>
      </g>
     </g>
    </g>
    <g id="ytick_2">
     <g id="line2d_33">
      <g>
       <use xlink:href="#mcd9d113833" x="33.146741" y="104.929911" style="stroke: #000000; stroke-width: 0.8"/>
      </g>
     </g>
     <g id="text_9">
      <!-- $\mathdefault{0.2}$ -->
      <g transform="translate(16.864687 108.349583) scale(0.1 -0.1)">
       <use xlink:href="#TeXGyreTermesX-Bold-30" transform="scale(0.996264)"/>
       <use xlink:href="#NewTXBMI-93" transform="translate(51.407199 0) scale(0.996264)"/>
       <use xlink:href="#TeXGyreTermesX-Bold-32" transform="translate(78.00746 0) scale(0.996264)"/>
      </g>
     </g>
    </g>
    <g id="ytick_3">
     <g id="line2d_34">
      <g>
       <use xlink:href="#mcd9d113833" x="33.146741" y="80.475815" style="stroke: #000000; stroke-width: 0.8"/>
      </g>
     </g>
     <g id="text_10">
      <!-- $\mathdefault{0.4}$ -->
      <g transform="translate(16.864687 83.895486) scale(0.1 -0.1)">
       <use xlink:href="#TeXGyreTermesX-Bold-30" transform="scale(0.996264)"/>
       <use xlink:href="#NewTXBMI-93" transform="translate(51.407199 0) scale(0.996264)"/>
       <use xlink:href="#TeXGyreTermesX-Bold-34" transform="translate(78.00746 0) scale(0.996264)"/>
      </g>
     </g>
    </g>
    <g id="ytick_4">
     <g id="line2d_35">
      <g>
       <use xlink:href="#mcd9d113833" x="33.146741" y="56.021718" style="stroke: #000000; stroke-width: 0.8"/>
      </g>
     </g>
     <g id="text_11">
      <!-- $\mathdefault{0.6}$ -->
      <g transform="translate(16.864687 59.441389) scale(0.1 -0.1)">
       <use xlink:href="#TeXGyreTermesX-Bold-30" transform="scale(0.996264)"/>
       <use xlink:href="#NewTXBMI-93" transform="translate(51.407199 0) scale(0.996264)"/>
       <use xlink:href="#TeXGyreTermesX-Bold-36" transform="translate(78.00746 0) scale(0.996264)"/>
      </g>
     </g>
    </g>
    <g id="ytick_5">
     <g id="line2d_36">
      <g>
       <use xlink:href="#mcd9d113833" x="33.146741" y="31.567621" style="stroke: #000000; stroke-width: 0.8"/>
      </g>
     </g>
     <g id="text_12">
      <!-- $\mathdefault{0.8}$ -->
      <g transform="translate(16.864687 34.987292) scale(0.1 -0.1)">
       <use xlink:href="#TeXGyreTermesX-Bold-30" transform="scale(0.996264)"/>
       <use xlink:href="#NewTXBMI-93" transform="translate(51.407199 0) scale(0.996264)"/>
       <use xlink:href="#TeXGyreTermesX-Bold-38" transform="translate(78.00746 0) scale(0.996264)"/>
      </g>
     </g>
    </g>
    <g id="ytick_6">
     <g id="line2d_37">
      <g>
       <use xlink:href="#mcd9d113833" x="33.146741" y="7.113524" style="stroke: #000000; stroke-width: 0.8"/>
      </g>
     </g>
     <g id="text_13">
      <!-- $\mathdefault{1.0}$ -->
      <g transform="translate(16.864687 10.533196) scale(0.1 -0.1)">
       <use xlink:href="#TeXGyreTermesX-Bold-31" transform="scale(0.996264)"/>
       <use xlink:href="#NewTXBMI-93" transform="translate(51.407199 0) scale(0.996264)"/>
       <use xlink:href="#TeXGyreTermesX-Bold-30" transform="translate(78.00746 0) scale(0.996264)"/>
      </g>
     </g>
    </g>
    <g id="ytick_7">
     <g id="line2d_38">
      <defs>
       <path id="m3448773cf5" d="M 0 0 
L 2 0 
" style="stroke: #000000; stroke-width: 0.6"/>
      </defs>
      <g>
       <use xlink:href="#m3448773cf5" x="33.146741" y="134.274828" style="stroke: #000000; stroke-width: 0.6"/>
      </g>
     </g>
    </g>
    <g id="ytick_8">
     <g id="line2d_39">
      <g>
       <use xlink:href="#m3448773cf5" x="33.146741" y="124.493189" style="stroke: #000000; stroke-width: 0.6"/>
      </g>
     </g>
    </g>
    <g id="ytick_9">
     <g id="line2d_40">
      <g>
       <use xlink:href="#m3448773cf5" x="33.146741" y="119.60237" style="stroke: #000000; stroke-width: 0.6"/>
      </g>
     </g>
    </g>
    <g id="ytick_10">
     <g id="line2d_41">
      <g>
       <use xlink:href="#m3448773cf5" x="33.146741" y="114.71155" style="stroke: #000000; stroke-width: 0.6"/>
      </g>
     </g>
    </g>
    <g id="ytick_11">
     <g id="line2d_42">
      <g>
       <use xlink:href="#m3448773cf5" x="33.146741" y="109.820731" style="stroke: #000000; stroke-width: 0.6"/>
      </g>
     </g>
    </g>
    <g id="ytick_12">
     <g id="line2d_43">
      <g>
       <use xlink:href="#m3448773cf5" x="33.146741" y="100.039092" style="stroke: #000000; stroke-width: 0.6"/>
      </g>
     </g>
    </g>
    <g id="ytick_13">
     <g id="line2d_44">
      <g>
       <use xlink:href="#m3448773cf5" x="33.146741" y="95.148273" style="stroke: #000000; stroke-width: 0.6"/>
      </g>
     </g>
    </g>
    <g id="ytick_14">
     <g id="line2d_45">
      <g>
       <use xlink:href="#m3448773cf5" x="33.146741" y="90.257453" style="stroke: #000000; stroke-width: 0.6"/>
      </g>
     </g>
    </g>
    <g id="ytick_15">
     <g id="line2d_46">
      <g>
       <use xlink:href="#m3448773cf5" x="33.146741" y="85.366634" style="stroke: #000000; stroke-width: 0.6"/>
      </g>
     </g>
    </g>
    <g id="ytick_16">
     <g id="line2d_47">
      <g>
       <use xlink:href="#m3448773cf5" x="33.146741" y="75.584995" style="stroke: #000000; stroke-width: 0.6"/>
      </g>
     </g>
    </g>
    <g id="ytick_17">
     <g id="line2d_48">
      <g>
       <use xlink:href="#m3448773cf5" x="33.146741" y="70.694176" style="stroke: #000000; stroke-width: 0.6"/>
      </g>
     </g>
    </g>
    <g id="ytick_18">
     <g id="line2d_49">
      <g>
       <use xlink:href="#m3448773cf5" x="33.146741" y="65.803357" style="stroke: #000000; stroke-width: 0.6"/>
      </g>
     </g>
    </g>
    <g id="ytick_19">
     <g id="line2d_50">
      <g>
       <use xlink:href="#m3448773cf5" x="33.146741" y="60.912537" style="stroke: #000000; stroke-width: 0.6"/>
      </g>
     </g>
    </g>
    <g id="ytick_20">
     <g id="line2d_51">
      <g>
       <use xlink:href="#m3448773cf5" x="33.146741" y="51.130898" style="stroke: #000000; stroke-width: 0.6"/>
      </g>
     </g>
    </g>
    <g id="ytick_21">
     <g id="line2d_52">
      <g>
       <use xlink:href="#m3448773cf5" x="33.146741" y="46.240079" style="stroke: #000000; stroke-width: 0.6"/>
      </g>
     </g>
    </g>
    <g id="ytick_22">
     <g id="line2d_53">
      <g>
       <use xlink:href="#m3448773cf5" x="33.146741" y="41.34926" style="stroke: #000000; stroke-width: 0.6"/>
      </g>
     </g>
    </g>
    <g id="ytick_23">
     <g id="line2d_54">
      <g>
       <use xlink:href="#m3448773cf5" x="33.146741" y="36.45844" style="stroke: #000000; stroke-width: 0.6"/>
      </g>
     </g>
    </g>
    <g id="ytick_24">
     <g id="line2d_55">
      <g>
       <use xlink:href="#m3448773cf5" x="33.146741" y="26.676802" style="stroke: #000000; stroke-width: 0.6"/>
      </g>
     </g>
    </g>
    <g id="ytick_25">
     <g id="line2d_56">
      <g>
       <use xlink:href="#m3448773cf5" x="33.146741" y="21.785982" style="stroke: #000000; stroke-width: 0.6"/>
      </g>
     </g>
    </g>
    <g id="ytick_26">
     <g id="line2d_57">
      <g>
       <use xlink:href="#m3448773cf5" x="33.146741" y="16.895163" style="stroke: #000000; stroke-width: 0.6"/>
      </g>
     </g>
    </g>
    <g id="ytick_27">
     <g id="line2d_58">
      <g>
       <use xlink:href="#m3448773cf5" x="33.146741" y="12.004344" style="stroke: #000000; stroke-width: 0.6"/>
      </g>
     </g>
    </g>
    <g id="ytick_28">
     <g id="line2d_59">
      <g>
       <use xlink:href="#m3448773cf5" x="33.146741" y="2.222705" style="stroke: #000000; stroke-width: 0.6"/>
      </g>
     </g>
    </g>
    <g id="text_14">
     <!-- $G_{\bar{q^{\prime \prime}}}$ -->
     <g transform="translate(8.429081 76.930299) rotate(-90) scale(0.11 -0.11)">
      <defs>
       <path id="NewTXBMI-4d" d="M 4518 1924 
L 4518 2090 
L 2682 2090 
L 2682 1924 
C 2957 1898 3008 1885 3078 1847 
C 3117 1822 3155 1752 3155 1694 
C 3155 1535 3130 1408 2970 885 
C 2810 344 2810 344 2784 306 
C 2694 198 2432 115 2182 115 
C 1504 115 1133 535 1133 1312 
C 1133 2249 1555 3294 2131 3797 
C 2381 4014 2656 4122 2957 4122 
C 3258 4122 3507 4001 3648 3797 
C 3789 3587 3834 3402 3846 2969 
L 4032 2944 
L 4358 4352 
L 4160 4352 
C 4090 4211 4019 4160 3891 4160 
C 3834 4160 3782 4173 3661 4218 
C 3386 4314 3162 4352 2867 4352 
C 2374 4352 1926 4237 1536 4014 
C 691 3524 134 2562 134 1586 
C 134 566 902 -128 2029 -128 
C 2528 -128 3162 -8 3526 165 
L 3706 247 
L 4013 1401 
C 4134 1847 4179 1898 4518 1924 
z
" transform="scale(0.015625)"/>
       <path id="TeXGyreTermesX-Bold-16" d="M 2118 3648 
L 2118 4105 
L 6 4105 
L 6 3648 
L 2118 3648 
z
" transform="scale(0.015625)"/>
       <path id="NewTXBMI-71" d="M 2374 -1280 
L 2374 -1107 
L 2285 -1107 
C 2054 -1107 1958 -1056 1958 -927 
C 1958 -812 2195 56 2470 970 
L 3014 2925 
L 2317 2925 
L 2221 2544 
C 2189 2724 2170 2796 2112 2866 
C 2048 2950 1914 3008 1766 3008 
C 1280 3008 717 2574 339 1909 
C 115 1513 6 1132 6 777 
C 6 252 256 -64 672 -64 
C 1056 -64 1312 122 1645 650 
L 1242 -721 
C 1133 -1056 1062 -1107 666 -1107 
L 666 -1280 
L 2374 -1280 
z
M 2080 2421 
C 2080 2077 1843 1279 1619 877 
C 1434 552 1254 397 1056 397 
C 890 397 806 519 806 765 
C 806 1128 986 1710 1248 2176 
C 1446 2525 1664 2726 1837 2726 
C 1843 2726 1850 2726 1856 2726 
C 1997 2726 2080 2603 2080 2421 
z
" transform="scale(0.015625)"/>
       <path id="txbsys-30" d="M 2067 2554 
C 2067 2829 1766 3008 1530 3008 
C 1248 3008 1101 2771 1024 2554 
L 390 717 
C 365 646 320 544 320 474 
C 320 410 365 256 518 256 
C 691 256 800 442 858 531 
L 1869 2067 
C 1952 2195 2067 2368 2067 2554 
z
" transform="scale(0.015625)"/>
      </defs>
      <use xlink:href="#NewTXBMI-4d" transform="scale(0.996264)"/>
      <use xlink:href="#TeXGyreTermesX-Bold-16" transform="translate(105.253326 -11.833356) scale(0.727268)"/>
      <use xlink:href="#NewTXBMI-71" transform="translate(81.051039 -25.296997) scale(0.727268)"/>
      <use xlink:href="#txbsys-30" transform="translate(119.22761 -4.278983) scale(0.547948)"/>
      <use xlink:href="#txbsys-30" transform="translate(136.926315 -4.278983) scale(0.547948)"/>
     </g>
    </g>
   </g>
   <g id="line2d_60">
    <path d="M 43.049162 129.384008 
L 75.958108 129.384008 
L 76.156355 7.113524 
L 207.990386 7.113524 
L 208.188633 129.384008 
L 241.097579 129.384008 
L 241.097579 129.384008 
" clip-path="url(#p3d389c767a)" style="fill: none; stroke: #000000; stroke-width: 1.5; stroke-linecap: square"/>
   </g>
   <g id="line2d_61">
    <path d="M 43.049162 129.384008 
L 75.958108 129.384008 
L 76.156355 129.200419 
L 141.974247 7.297114 
L 142.172494 7.297114 
L 208.188633 129.384008 
L 241.097579 129.384008 
L 241.097579 129.384008 
" clip-path="url(#p3d389c767a)" style="fill: none; stroke-dasharray: 5.55,2.4; stroke-dashoffset: 0; stroke: #000000; stroke-width: 1.5"/>
   </g>
   <g id="line2d_62">
    <path d="M 142.07337 135.497532 
L 142.07337 1 
" clip-path="url(#p3d389c767a)" style="fill: none; stroke-dasharray: 1,1.65; stroke-dashoffset: 0; stroke: #000000"/>
   </g>
   <g id="patch_3">
    <path d="M 33.146741 135.497532 
L 33.146741 1 
" style="fill: none; stroke: #000000; stroke-width: 0.8; stroke-linejoin: miter; stroke-linecap: square"/>
   </g>
   <g id="patch_4">
    <path d="M 251 135.497532 
L 251 1 
" style="fill: none; stroke: #000000; stroke-width: 0.8; stroke-linejoin: miter; stroke-linecap: square"/>
   </g>
   <g id="patch_5">
    <path d="M 33.146741 135.497532 
L 251 135.497532 
" style="fill: none; stroke: #000000; stroke-width: 0.8; stroke-linejoin: miter; stroke-linecap: square"/>
   </g>
   <g id="patch_6">
    <path d="M 33.146741 1 
L 251 1 
" style="fill: none; stroke: #000000; stroke-width: 0.8; stroke-linejoin: miter; stroke-linecap: square"/>
   </g>
   <g id="patch_7">
    <path d="M 204.968911 88.62718 
Q 142.074057 88.62718 79.179202 88.62718 
" style="fill: none; stroke: #000000; stroke-linecap: round"/>
    <path d="M 200.968911 86.62718 
L 204.968911 88.62718 
L 200.968911 90.62718 
" style="fill: none; stroke: #000000; stroke-linecap: round"/>
    <path d="M 83.179202 90.62718 
L 79.179202 88.62718 
L 83.179202 86.62718 
" style="fill: none; stroke: #000000; stroke-linecap: round"/>
   </g>
   <g id="text_15">
    <!-- $2 \tau_r$ -->
    <g transform="translate(135.775105 82.513656) scale(0.1 -0.1)">
     <defs>
      <path id="NewTXBMI-33" d="M 3258 2919 
L 1152 2919 
C 506 2919 122 2289 19 1994 
L 147 1994 
C 326 2279 678 2304 1082 2304 
L 1434 2304 
C 1434 2298 915 863 915 547 
C 915 245 1030 -64 1440 -64 
C 1613 -64 1901 -13 1907 314 
C 1914 442 1875 538 1818 614 
C 1702 774 1530 774 1530 961 
C 1530 999 1536 1052 1555 1109 
L 1933 2304 
L 3053 2304 
L 3258 2919 
z
" transform="scale(0.015625)"/>
      <path id="NewTXBMI-72" d="M 2490 2515 
C 2490 2771 2342 2938 2125 2938 
C 1798 2938 1536 2617 1030 1597 
L 1453 2938 
C 1069 2842 947 2823 173 2759 
L 173 2579 
C 461 2579 518 2553 518 2431 
C 518 2270 320 1515 -134 -32 
L 640 -32 
L 851 638 
C 1043 1261 1139 1507 1312 1802 
C 1485 2111 1638 2291 1728 2291 
C 1754 2291 1792 2266 1830 2208 
C 1926 2099 2010 2048 2118 2048 
C 2330 2048 2490 2247 2490 2515 
z
" transform="scale(0.015625)"/>
     </defs>
     <use xlink:href="#TeXGyreTermesX-Bold-32" transform="scale(0.996264)"/>
     <use xlink:href="#NewTXBMI-33" transform="translate(51.108286 0) scale(0.996264)"/>
     <use xlink:href="#NewTXBMI-72" transform="translate(100.365618 -14.943915) scale(0.727268)"/>
    </g>
   </g>
  </g>
 </g>
 <defs>
  <clipPath id="p3d389c767a">
   <rect x="33.146741" y="1" width="217.853259" height="134.497532"/>
  </clipPath>
 </defs>
</svg>
