<?xml version="1.0" encoding="utf-8" standalone="no"?>
<!DOCTYPE svg PUBLIC "-//W3C//DTD SVG 1.1//EN"
  "http://www.w3.org/Graphics/SVG/1.1/DTD/svg11.dtd">
<svg xmlns:xlink="http://www.w3.org/1999/xlink" width="396pt" height="288pt" viewBox="0 0 396 288" xmlns="http://www.w3.org/2000/svg" version="1.1">
 <metadata>
  <rdf:RDF xmlns:dc="http://purl.org/dc/elements/1.1/" xmlns:cc="http://creativecommons.org/ns#" xmlns:rdf="http://www.w3.org/1999/02/22-rdf-syntax-ns#">
   <cc:Work>
    <dc:type rdf:resource="http://purl.org/dc/dcmitype/StillImage"/>
    <dc:date>2024-10-14T16:27:08.123301</dc:date>
    <dc:format>image/svg+xml</dc:format>
    <dc:creator>
     <cc:Agent>
      <dc:title>Matplotlib v3.9.0, https://matplotlib.org/</dc:title>
     </cc:Agent>
    </dc:creator>
   </cc:Work>
  </rdf:RDF>
 </metadata>
 <defs>
  <style type="text/css">*{stroke-linejoin: round; stroke-linecap: butt}</style>
 </defs>
 <g id="figure_1">
  <g id="patch_1">
   <path d="M 0 288 
L 396 288 
L 396 0 
L 0 0 
z
" style="fill: #ffffff"/>
  </g>
  <g id="axes_1">
   <g id="patch_2">
    <path d="M 28.586252 260.037508 
L 395 260.037508 
L 395 1 
L 28.586252 1 
z
" style="fill: #ffffff"/>
   </g>
   <g id="PathCollection_1">
    <defs>
     <path id="m3e43521e9f" d="M 0 -3.162278 
L -2.738613 -1.581139 
L -2.738613 1.581139 
L -0 3.162278 
L 2.738613 1.581139 
L 2.738613 -1.581139 
z
" style="stroke: #000000"/>
    </defs>
    <g clip-path="url(#p2d621ff2c5)">
     <use xlink:href="#m3e43521e9f" x="268.481694" y="149.672391" style="fill: #1b9e77; stroke: #000000"/>
     <use xlink:href="#m3e43521e9f" x="246.422777" y="159.658572" style="fill: #1b9e77; stroke: #000000"/>
     <use xlink:href="#m3e43521e9f" x="235.964537" y="163.811958" style="fill: #1b9e77; stroke: #000000"/>
     <use xlink:href="#m3e43521e9f" x="225.861258" y="171.122954" style="fill: #1b9e77; stroke: #000000"/>
     <use xlink:href="#m3e43521e9f" x="216.095172" y="176.179259" style="fill: #1b9e77; stroke: #000000"/>
     <use xlink:href="#m3e43521e9f" x="206.649674" y="174.628387" style="fill: #1b9e77; stroke: #000000"/>
    </g>
   </g>
   <g id="PathCollection_2">
    <defs>
     <path id="m3bcbdbb84d" d="M 0 -3.162278 
L -2.738613 -1.581139 
L -2.738613 1.581139 
L -0 3.162278 
L 2.738613 1.581139 
L 2.738613 -1.581139 
z
" style="stroke: #000000"/>
    </defs>
    <g clip-path="url(#p2d621ff2c5)">
     <use xlink:href="#m3bcbdbb84d" x="246.422777" y="123.773694" style="fill: #d95f02; stroke: #000000"/>
     <use xlink:href="#m3bcbdbb84d" x="235.964537" y="127.552354" style="fill: #d95f02; stroke: #000000"/>
     <use xlink:href="#m3bcbdbb84d" x="225.861258" y="137.520516" style="fill: #d95f02; stroke: #000000"/>
     <use xlink:href="#m3bcbdbb84d" x="206.649674" y="155.485019" style="fill: #d95f02; stroke: #000000"/>
     <use xlink:href="#m3bcbdbb84d" x="171.777301" y="176.509661" style="fill: #d95f02; stroke: #000000"/>
    </g>
   </g>
   <g id="PathCollection_3">
    <defs>
     <path id="md35026aea4" d="M 0 3.535534 
L 3.535534 0 
L 0 -3.535534 
L -3.535534 0 
z
" style="stroke: #000000"/>
    </defs>
    <g clip-path="url(#p2d621ff2c5)">
     <use xlink:href="#md35026aea4" x="155.90429" y="200.923922" style="fill: #7570b3; stroke: #000000"/>
     <use xlink:href="#md35026aea4" x="140.952443" y="198.908358" style="fill: #7570b3; stroke: #000000"/>
     <use xlink:href="#md35026aea4" x="126.843831" y="206.245951" style="fill: #7570b3; stroke: #000000"/>
     <use xlink:href="#md35026aea4" x="113.509079" y="207.127061" style="fill: #7570b3; stroke: #000000"/>
     <use xlink:href="#md35026aea4" x="100.886215" y="222.480813" style="fill: #7570b3; stroke: #000000"/>
    </g>
   </g>
   <g id="PathCollection_4">
    <defs>
     <path id="m2e57993e35" d="M 0 3.535534 
L 3.535534 0 
L 0 -3.535534 
L -3.535534 0 
z
" style="stroke: #000000"/>
    </defs>
    <g clip-path="url(#p2d621ff2c5)">
     <use xlink:href="#m2e57993e35" x="126.843831" y="198.922883" style="fill: #e7298a; stroke: #000000"/>
     <use xlink:href="#m2e57993e35" x="100.886215" y="208.324452" style="fill: #e7298a; stroke: #000000"/>
     <use xlink:href="#m2e57993e35" x="77.559684" y="228.963198" style="fill: #e7298a; stroke: #000000"/>
     <use xlink:href="#m2e57993e35" x="56.483499" y="231.463623" style="fill: #e7298a; stroke: #000000"/>
    </g>
   </g>
   <g id="PathCollection_5">
    <defs>
     <path id="m31e9fee528" d="M -2.738613 2.738613 
L 2.738613 2.738613 
L 2.738613 -2.738613 
L -2.738613 -2.738613 
z
" style="stroke: #000000"/>
    </defs>
    <g clip-path="url(#p2d621ff2c5)">
     <use xlink:href="#m31e9fee528" x="225.861258" y="171.576273" style="fill: #66a61e; stroke: #000000"/>
     <use xlink:href="#m31e9fee528" x="206.649674" y="175.211223" style="fill: #66a61e; stroke: #000000"/>
     <use xlink:href="#m31e9fee528" x="188.659307" y="176.541433" style="fill: #66a61e; stroke: #000000"/>
     <use xlink:href="#m31e9fee528" x="171.777301" y="179.819172" style="fill: #66a61e; stroke: #000000"/>
    </g>
   </g>
   <g id="PathCollection_6">
    <defs>
     <path id="m673ebbf118" d="M 0 2.95804 
C 0.784481 2.95804 1.536938 2.646362 2.09165 2.09165 
C 2.646362 1.536938 2.95804 0.784481 2.95804 0 
C 2.95804 -0.784481 2.646362 -1.536938 2.09165 -2.09165 
C 1.536938 -2.646362 0.784481 -2.95804 0 -2.95804 
C -0.784481 -2.95804 -1.536938 -2.646362 -2.09165 -2.09165 
C -2.646362 -1.536938 -2.95804 -0.784481 -2.95804 0 
C -2.95804 0.784481 -2.646362 1.536938 -2.09165 2.09165 
C -1.536938 2.646362 -0.784481 2.95804 0 2.95804 
z
" style="stroke: #000000"/>
    </defs>
    <g clip-path="url(#p2d621ff2c5)">
     <use xlink:href="#m673ebbf118" x="100.886215" y="208.350701" style="fill: #a6761d; stroke: #000000"/>
    </g>
   </g>
   <g id="matplotlib.axis_1">
    <g id="xtick_1">
     <g id="line2d_1">
      <defs>
       <path id="m6414c1c08b" d="M 0 0 
L 0 -3.5 
" style="stroke: #000000; stroke-width: 0.8"/>
      </defs>
      <g>
       <use xlink:href="#m6414c1c08b" x="28.586252" y="260.037508" style="stroke: #000000; stroke-width: 0.8"/>
      </g>
     </g>
     <g id="text_1">
      <!-- $\mathdefault{4.5}$ -->
      <g transform="translate(22.195225 270.37685) scale(0.1 -0.1)">
       <defs>
        <path id="TeXGyreTermesX-Bold-34" d="M 3040 896 
L 3040 1602 
L 2637 1602 
L 2637 4352 
L 2125 4352 
L 1747 3863 
C 928 2803 506 2219 122 1615 
L 122 896 
L 1709 896 
L 1709 -32 
L 2637 -32 
L 2637 896 
L 3040 896 
z
M 1722 1602 
L 384 1602 
L 1722 3488 
L 1722 1602 
z
" transform="scale(0.015625)"/>
        <path id="NewTXBMI-93" d="M 1344 473 
C 1344 768 1101 1017 800 1017 
C 493 1017 262 761 262 473 
C 262 173 493 -64 800 -64 
C 1101 -64 1344 166 1344 473 
z
" transform="scale(0.015625)"/>
        <path id="TeXGyreTermesX-Bold-35" d="M 3008 4288 
L 947 4288 
L 326 2093 
C 934 2049 1197 2010 1478 1921 
C 2048 1743 2387 1381 2387 960 
C 2387 604 2106 324 1747 324 
C 1600 324 1427 400 1171 591 
C 896 795 704 877 538 877 
C 307 877 141 718 141 496 
C 141 159 512 -64 1082 -64 
C 2138 -64 2886 575 2886 1476 
C 2886 2140 2477 2652 1779 2850 
C 1536 2920 1338 2946 813 2946 
L 954 3481 
L 2733 3481 
L 3008 4288 
z
" transform="scale(0.015625)"/>
       </defs>
       <use xlink:href="#TeXGyreTermesX-Bold-34" transform="scale(0.996264)"/>
       <use xlink:href="#NewTXBMI-93" transform="translate(51.407199 0) scale(0.996264)"/>
       <use xlink:href="#TeXGyreTermesX-Bold-35" transform="translate(78.00746 0) scale(0.996264)"/>
      </g>
     </g>
    </g>
    <g id="xtick_2">
     <g id="line2d_2">
      <g>
       <use xlink:href="#m6414c1c08b" x="71.693752" y="260.037508" style="stroke: #000000; stroke-width: 0.8"/>
      </g>
     </g>
     <g id="text_2">
      <!-- $\mathdefault{5.0}$ -->
      <g transform="translate(65.302725 270.37685) scale(0.1 -0.1)">
       <defs>
        <path id="TeXGyreTermesX-Bold-30" d="M 3046 2166 
C 3046 3440 2426 4403 1600 4403 
C 1184 4403 762 4123 499 3664 
C 294 3313 154 2714 154 2185 
C 154 873 755 -64 1606 -64 
C 2432 -64 3046 886 3046 2166 
z
M 2035 1434 
C 2035 1058 1984 561 1926 389 
C 1856 203 1754 114 1606 114 
C 1286 114 1165 491 1165 1434 
L 1165 2892 
C 1165 3855 1286 4224 1594 4224 
C 1907 4224 2035 3829 2035 2892 
L 2035 1434 
z
" transform="scale(0.015625)"/>
       </defs>
       <use xlink:href="#TeXGyreTermesX-Bold-35" transform="scale(0.996264)"/>
       <use xlink:href="#NewTXBMI-93" transform="translate(51.407199 0) scale(0.996264)"/>
       <use xlink:href="#TeXGyreTermesX-Bold-30" transform="translate(78.00746 0) scale(0.996264)"/>
      </g>
     </g>
    </g>
    <g id="xtick_3">
     <g id="line2d_3">
      <g>
       <use xlink:href="#m6414c1c08b" x="114.801251" y="260.037508" style="stroke: #000000; stroke-width: 0.8"/>
      </g>
     </g>
     <g id="text_3">
      <!-- $\mathdefault{5.5}$ -->
      <g transform="translate(108.410224 270.37685) scale(0.1 -0.1)">
       <use xlink:href="#TeXGyreTermesX-Bold-35" transform="scale(0.996264)"/>
       <use xlink:href="#NewTXBMI-93" transform="translate(51.407199 0) scale(0.996264)"/>
       <use xlink:href="#TeXGyreTermesX-Bold-35" transform="translate(78.00746 0) scale(0.996264)"/>
      </g>
     </g>
    </g>
    <g id="xtick_4">
     <g id="line2d_4">
      <g>
       <use xlink:href="#m6414c1c08b" x="157.908751" y="260.037508" style="stroke: #000000; stroke-width: 0.8"/>
      </g>
     </g>
     <g id="text_4">
      <!-- $\mathdefault{6.0}$ -->
      <g transform="translate(151.517724 270.37685) scale(0.1 -0.1)">
       <defs>
        <path id="TeXGyreTermesX-Bold-36" d="M 3040 1427 
C 3040 2193 2573 2688 1843 2688 
C 1638 2688 1498 2663 1306 2580 
C 1542 3515 2074 4030 3008 4221 
L 3008 4387 
C 2157 4266 1760 4126 1274 3796 
C 557 3307 179 2596 179 1752 
C 179 654 768 -64 1664 -64 
C 2458 -64 3040 564 3040 1427 
z
M 2067 1046 
C 2067 298 1990 108 1677 108 
C 1530 108 1414 172 1350 291 
C 1242 501 1178 964 1178 1553 
C 1178 1946 1216 2307 1261 2339 
C 1312 2377 1402 2402 1491 2402 
C 1920 2402 2067 2054 2067 1046 
z
" transform="scale(0.015625)"/>
       </defs>
       <use xlink:href="#TeXGyreTermesX-Bold-36" transform="scale(0.996264)"/>
       <use xlink:href="#NewTXBMI-93" transform="translate(51.407199 0) scale(0.996264)"/>
       <use xlink:href="#TeXGyreTermesX-Bold-30" transform="translate(78.00746 0) scale(0.996264)"/>
      </g>
     </g>
    </g>
    <g id="xtick_5">
     <g id="line2d_5">
      <g>
       <use xlink:href="#m6414c1c08b" x="201.016251" y="260.037508" style="stroke: #000000; stroke-width: 0.8"/>
      </g>
     </g>
     <g id="text_5">
      <!-- $\mathdefault{6.5}$ -->
      <g transform="translate(194.625224 270.37685) scale(0.1 -0.1)">
       <use xlink:href="#TeXGyreTermesX-Bold-36" transform="scale(0.996264)"/>
       <use xlink:href="#NewTXBMI-93" transform="translate(51.407199 0) scale(0.996264)"/>
       <use xlink:href="#TeXGyreTermesX-Bold-35" transform="translate(78.00746 0) scale(0.996264)"/>
      </g>
     </g>
    </g>
    <g id="xtick_6">
     <g id="line2d_6">
      <g>
       <use xlink:href="#m6414c1c08b" x="244.123751" y="260.037508" style="stroke: #000000; stroke-width: 0.8"/>
      </g>
     </g>
     <g id="text_6">
      <!-- $\mathdefault{7.0}$ -->
      <g transform="translate(237.732724 270.37685) scale(0.1 -0.1)">
       <defs>
        <path id="TeXGyreTermesX-Bold-37" d="M 3053 4327 
L 390 4327 
L 109 2916 
L 269 2916 
C 390 3322 544 3456 896 3456 
L 2221 3456 
L 941 32 
L 1549 32 
L 3053 4327 
z
" transform="scale(0.015625)"/>
       </defs>
       <use xlink:href="#TeXGyreTermesX-Bold-37" transform="scale(0.996264)"/>
       <use xlink:href="#NewTXBMI-93" transform="translate(51.407199 0) scale(0.996264)"/>
       <use xlink:href="#TeXGyreTermesX-Bold-30" transform="translate(78.00746 0) scale(0.996264)"/>
      </g>
     </g>
    </g>
    <g id="xtick_7">
     <g id="line2d_7">
      <g>
       <use xlink:href="#m6414c1c08b" x="287.231251" y="260.037508" style="stroke: #000000; stroke-width: 0.8"/>
      </g>
     </g>
     <g id="text_7">
      <!-- $\mathdefault{7.5}$ -->
      <g transform="translate(280.840224 270.37685) scale(0.1 -0.1)">
       <use xlink:href="#TeXGyreTermesX-Bold-37" transform="scale(0.996264)"/>
       <use xlink:href="#NewTXBMI-93" transform="translate(51.407199 0) scale(0.996264)"/>
       <use xlink:href="#TeXGyreTermesX-Bold-35" transform="translate(78.00746 0) scale(0.996264)"/>
      </g>
     </g>
    </g>
    <g id="xtick_8">
     <g id="line2d_8">
      <g>
       <use xlink:href="#m6414c1c08b" x="330.33875" y="260.037508" style="stroke: #000000; stroke-width: 0.8"/>
      </g>
     </g>
     <g id="text_8">
      <!-- $\mathdefault{8.0}$ -->
      <g transform="translate(323.947723 270.37685) scale(0.1 -0.1)">
       <defs>
        <path id="TeXGyreTermesX-Bold-38" d="M 3021 1212 
C 3021 1768 2746 2164 2061 2597 
C 2675 2815 2931 3075 2931 3483 
C 2931 4051 2445 4409 1683 4409 
C 819 4409 250 3961 250 3292 
C 250 2814 506 2462 1139 2086 
C 774 1965 627 1881 461 1722 
C 275 1543 179 1301 179 1020 
C 179 370 723 -64 1536 -64 
C 2426 -64 3021 447 3021 1212 
z
M 2170 3439 
C 2170 3139 2118 2993 1907 2712 
C 1370 2986 1075 3337 1075 3694 
C 1075 3994 1306 4224 1606 4224 
C 1965 4224 2170 3937 2170 3439 
z
M 2131 829 
C 2131 402 1920 140 1574 140 
C 1184 140 954 478 954 1046 
C 954 1397 1024 1595 1280 1971 
C 1978 1505 2131 1301 2131 829 
z
" transform="scale(0.015625)"/>
       </defs>
       <use xlink:href="#TeXGyreTermesX-Bold-38" transform="scale(0.996264)"/>
       <use xlink:href="#NewTXBMI-93" transform="translate(51.407199 0) scale(0.996264)"/>
       <use xlink:href="#TeXGyreTermesX-Bold-30" transform="translate(78.00746 0) scale(0.996264)"/>
      </g>
     </g>
    </g>
    <g id="xtick_9">
     <g id="line2d_9">
      <g>
       <use xlink:href="#m6414c1c08b" x="373.44625" y="260.037508" style="stroke: #000000; stroke-width: 0.8"/>
      </g>
     </g>
     <g id="text_9">
      <!-- $\mathdefault{8.5}$ -->
      <g transform="translate(367.055223 270.37685) scale(0.1 -0.1)">
       <use xlink:href="#TeXGyreTermesX-Bold-38" transform="scale(0.996264)"/>
       <use xlink:href="#NewTXBMI-93" transform="translate(51.407199 0) scale(0.996264)"/>
       <use xlink:href="#TeXGyreTermesX-Bold-35" transform="translate(78.00746 0) scale(0.996264)"/>
      </g>
     </g>
    </g>
    <g id="xtick_10">
     <g id="line2d_10">
      <defs>
       <path id="me945a36a13" d="M 0 0 
L 0 -2 
" style="stroke: #000000; stroke-width: 0.6"/>
      </defs>
      <g>
       <use xlink:href="#me945a36a13" x="37.207752" y="260.037508" style="stroke: #000000; stroke-width: 0.6"/>
      </g>
     </g>
    </g>
    <g id="xtick_11">
     <g id="line2d_11">
      <g>
       <use xlink:href="#me945a36a13" x="45.829252" y="260.037508" style="stroke: #000000; stroke-width: 0.6"/>
      </g>
     </g>
    </g>
    <g id="xtick_12">
     <g id="line2d_12">
      <g>
       <use xlink:href="#me945a36a13" x="54.450752" y="260.037508" style="stroke: #000000; stroke-width: 0.6"/>
      </g>
     </g>
    </g>
    <g id="xtick_13">
     <g id="line2d_13">
      <g>
       <use xlink:href="#me945a36a13" x="63.072252" y="260.037508" style="stroke: #000000; stroke-width: 0.6"/>
      </g>
     </g>
    </g>
    <g id="xtick_14">
     <g id="line2d_14">
      <g>
       <use xlink:href="#me945a36a13" x="80.315252" y="260.037508" style="stroke: #000000; stroke-width: 0.6"/>
      </g>
     </g>
    </g>
    <g id="xtick_15">
     <g id="line2d_15">
      <g>
       <use xlink:href="#me945a36a13" x="88.936752" y="260.037508" style="stroke: #000000; stroke-width: 0.6"/>
      </g>
     </g>
    </g>
    <g id="xtick_16">
     <g id="line2d_16">
      <g>
       <use xlink:href="#me945a36a13" x="97.558252" y="260.037508" style="stroke: #000000; stroke-width: 0.6"/>
      </g>
     </g>
    </g>
    <g id="xtick_17">
     <g id="line2d_17">
      <g>
       <use xlink:href="#me945a36a13" x="106.179751" y="260.037508" style="stroke: #000000; stroke-width: 0.6"/>
      </g>
     </g>
    </g>
    <g id="xtick_18">
     <g id="line2d_18">
      <g>
       <use xlink:href="#me945a36a13" x="123.422751" y="260.037508" style="stroke: #000000; stroke-width: 0.6"/>
      </g>
     </g>
    </g>
    <g id="xtick_19">
     <g id="line2d_19">
      <g>
       <use xlink:href="#me945a36a13" x="132.044251" y="260.037508" style="stroke: #000000; stroke-width: 0.6"/>
      </g>
     </g>
    </g>
    <g id="xtick_20">
     <g id="line2d_20">
      <g>
       <use xlink:href="#me945a36a13" x="140.665751" y="260.037508" style="stroke: #000000; stroke-width: 0.6"/>
      </g>
     </g>
    </g>
    <g id="xtick_21">
     <g id="line2d_21">
      <g>
       <use xlink:href="#me945a36a13" x="149.287251" y="260.037508" style="stroke: #000000; stroke-width: 0.6"/>
      </g>
     </g>
    </g>
    <g id="xtick_22">
     <g id="line2d_22">
      <g>
       <use xlink:href="#me945a36a13" x="166.530251" y="260.037508" style="stroke: #000000; stroke-width: 0.6"/>
      </g>
     </g>
    </g>
    <g id="xtick_23">
     <g id="line2d_23">
      <g>
       <use xlink:href="#me945a36a13" x="175.151751" y="260.037508" style="stroke: #000000; stroke-width: 0.6"/>
      </g>
     </g>
    </g>
    <g id="xtick_24">
     <g id="line2d_24">
      <g>
       <use xlink:href="#me945a36a13" x="183.773251" y="260.037508" style="stroke: #000000; stroke-width: 0.6"/>
      </g>
     </g>
    </g>
    <g id="xtick_25">
     <g id="line2d_25">
      <g>
       <use xlink:href="#me945a36a13" x="192.394751" y="260.037508" style="stroke: #000000; stroke-width: 0.6"/>
      </g>
     </g>
    </g>
    <g id="xtick_26">
     <g id="line2d_26">
      <g>
       <use xlink:href="#me945a36a13" x="209.637751" y="260.037508" style="stroke: #000000; stroke-width: 0.6"/>
      </g>
     </g>
    </g>
    <g id="xtick_27">
     <g id="line2d_27">
      <g>
       <use xlink:href="#me945a36a13" x="218.259251" y="260.037508" style="stroke: #000000; stroke-width: 0.6"/>
      </g>
     </g>
    </g>
    <g id="xtick_28">
     <g id="line2d_28">
      <g>
       <use xlink:href="#me945a36a13" x="226.880751" y="260.037508" style="stroke: #000000; stroke-width: 0.6"/>
      </g>
     </g>
    </g>
    <g id="xtick_29">
     <g id="line2d_29">
      <g>
       <use xlink:href="#me945a36a13" x="235.502251" y="260.037508" style="stroke: #000000; stroke-width: 0.6"/>
      </g>
     </g>
    </g>
    <g id="xtick_30">
     <g id="line2d_30">
      <g>
       <use xlink:href="#me945a36a13" x="252.745251" y="260.037508" style="stroke: #000000; stroke-width: 0.6"/>
      </g>
     </g>
    </g>
    <g id="xtick_31">
     <g id="line2d_31">
      <g>
       <use xlink:href="#me945a36a13" x="261.366751" y="260.037508" style="stroke: #000000; stroke-width: 0.6"/>
      </g>
     </g>
    </g>
    <g id="xtick_32">
     <g id="line2d_32">
      <g>
       <use xlink:href="#me945a36a13" x="269.988251" y="260.037508" style="stroke: #000000; stroke-width: 0.6"/>
      </g>
     </g>
    </g>
    <g id="xtick_33">
     <g id="line2d_33">
      <g>
       <use xlink:href="#me945a36a13" x="278.609751" y="260.037508" style="stroke: #000000; stroke-width: 0.6"/>
      </g>
     </g>
    </g>
    <g id="xtick_34">
     <g id="line2d_34">
      <g>
       <use xlink:href="#me945a36a13" x="295.852751" y="260.037508" style="stroke: #000000; stroke-width: 0.6"/>
      </g>
     </g>
    </g>
    <g id="xtick_35">
     <g id="line2d_35">
      <g>
       <use xlink:href="#me945a36a13" x="304.47425" y="260.037508" style="stroke: #000000; stroke-width: 0.6"/>
      </g>
     </g>
    </g>
    <g id="xtick_36">
     <g id="line2d_36">
      <g>
       <use xlink:href="#me945a36a13" x="313.09575" y="260.037508" style="stroke: #000000; stroke-width: 0.6"/>
      </g>
     </g>
    </g>
    <g id="xtick_37">
     <g id="line2d_37">
      <g>
       <use xlink:href="#me945a36a13" x="321.71725" y="260.037508" style="stroke: #000000; stroke-width: 0.6"/>
      </g>
     </g>
    </g>
    <g id="xtick_38">
     <g id="line2d_38">
      <g>
       <use xlink:href="#me945a36a13" x="338.96025" y="260.037508" style="stroke: #000000; stroke-width: 0.6"/>
      </g>
     </g>
    </g>
    <g id="xtick_39">
     <g id="line2d_39">
      <g>
       <use xlink:href="#me945a36a13" x="347.58175" y="260.037508" style="stroke: #000000; stroke-width: 0.6"/>
      </g>
     </g>
    </g>
    <g id="xtick_40">
     <g id="line2d_40">
      <g>
       <use xlink:href="#me945a36a13" x="356.20325" y="260.037508" style="stroke: #000000; stroke-width: 0.6"/>
      </g>
     </g>
    </g>
    <g id="xtick_41">
     <g id="line2d_41">
      <g>
       <use xlink:href="#me945a36a13" x="364.82475" y="260.037508" style="stroke: #000000; stroke-width: 0.6"/>
      </g>
     </g>
    </g>
    <g id="xtick_42">
     <g id="line2d_42">
      <g>
       <use xlink:href="#me945a36a13" x="382.06775" y="260.037508" style="stroke: #000000; stroke-width: 0.6"/>
      </g>
     </g>
    </g>
    <g id="xtick_43">
     <g id="line2d_43">
      <g>
       <use xlink:href="#me945a36a13" x="390.68925" y="260.037508" style="stroke: #000000; stroke-width: 0.6"/>
      </g>
     </g>
    </g>
    <g id="text_10">
     <!-- $1/T$ [K$^{-1} \times 10^{-4}$] -->
     <g transform="translate(175.289078 284.838109) scale(0.1 -0.1)">
      <defs>
       <path id="TeXGyreTermesX-Bold-31" d="M 2829 0 
L 2829 159 
C 2246 159 2138 255 2138 746 
L 2138 4384 
L 2029 4384 
L 416 3686 
L 416 3521 
C 474 3540 525 3559 544 3572 
C 717 3635 877 3680 960 3680 
C 1120 3680 1190 3540 1190 3241 
L 1190 790 
C 1190 267 1062 159 429 159 
L 429 0 
L 2829 0 
z
" transform="scale(0.015625)"/>
       <path id="txbsys-9d" d="M 397 -1216 
L 928 -1216 
L 2688 4544 
L 2157 4544 
L 397 -1216 
z
" transform="scale(0.015625)"/>
       <path id="NewTXBMI-5a" d="M 3930 3057 
L 4160 4288 
L 634 4288 
L 390 3192 
L 550 3147 
C 883 3792 1286 4057 1939 4057 
L 992 621 
C 902 288 736 160 410 160 
L 320 160 
L 320 0 
L 2438 0 
L 2438 160 
C 1984 160 1907 199 1907 404 
C 1907 501 1933 629 1978 803 
L 2874 4057 
C 3475 4057 3725 3781 3757 3070 
L 3930 3057 
z
" transform="scale(0.015625)"/>
       <path id="TeXGyreTermesX-Regular-5b" d="M 1914 -1024 
L 1914 -864 
L 1363 -864 
C 1152 -864 1050 -756 1050 -531 
L 1050 3781 
C 1050 3981 1133 4064 1338 4064 
L 1914 4064 
L 1914 4224 
L 563 4224 
L 563 -1024 
L 1914 -1024 
z
" transform="scale(0.015625)"/>
       <path id="TeXGyreTermesX-Regular-4b" d="M 4627 0 
L 4627 122 
C 4294 122 4205 186 3622 808 
L 2131 2409 
L 3347 3611 
C 3782 4026 3885 4077 4320 4109 
L 4320 4231 
L 2643 4231 
L 2643 4109 
C 2720 4096 2784 4096 2810 4096 
C 3002 4096 3078 4045 3078 3917 
C 3078 3775 2931 3583 2579 3257 
L 1446 2224 
L 1446 3534 
C 1446 4000 1517 4071 2035 4109 
L 2035 4231 
L 218 4231 
L 218 4109 
C 717 4071 794 3987 794 3529 
L 794 740 
C 794 206 723 122 218 122 
L 218 0 
L 2022 0 
L 2022 122 
C 1523 122 1446 199 1446 675 
L 1446 1892 
L 1613 2026 
L 2291 1351 
C 2778 869 3123 411 3123 258 
C 3123 167 3034 122 2854 122 
C 2822 122 2752 122 2675 122 
L 2675 0 
L 4627 0 
z
" transform="scale(0.015625)"/>
       <path id="txbsys-0" d="M 3929 1341 
L 3929 1955 
L 396 1955 
L 396 1341 
L 3929 1341 
z
" transform="scale(0.015625)"/>
       <path id="txbsys-2" d="M 3930 326 
L 2611 1645 
L 3930 2963 
L 3494 3398 
L 2163 2074 
L 832 3398 
L 397 2963 
L 1715 1645 
L 397 326 
L 832 -109 
L 2163 1222 
L 3494 -109 
L 3930 326 
z
" transform="scale(0.015625)"/>
       <path id="TeXGyreTermesX-Regular-5d" d="M 1568 -1024 
L 1568 4224 
L 218 4224 
L 218 4064 
L 768 4064 
C 979 4064 1082 3955 1082 3730 
L 1082 -582 
C 1082 -781 992 -864 794 -864 
L 218 -864 
L 218 -1024 
L 1568 -1024 
z
" transform="scale(0.015625)"/>
      </defs>
      <use xlink:href="#TeXGyreTermesX-Bold-31" transform="scale(0.996264)"/>
      <use xlink:href="#txbsys-9d" transform="translate(49.8132 0) scale(0.996264)"/>
      <use xlink:href="#NewTXBMI-5a" transform="translate(96.338712 0) scale(0.996264)"/>
      <use xlink:href="#TeXGyreTermesX-Regular-5b" transform="translate(187.895429 0) scale(0.996264)"/>
      <use xlink:href="#TeXGyreTermesX-Regular-4b" transform="translate(221.071039 0) scale(0.996264)"/>
      <use xlink:href="#txbsys-0" transform="translate(293.001312 36.164371) scale(0.727268)"/>
      <use xlink:href="#TeXGyreTermesX-Bold-31" transform="translate(342.164621 36.164371) scale(0.727268)"/>
      <use xlink:href="#txbsys-2" transform="translate(401.165323 0) scale(0.996264)"/>
      <use xlink:href="#TeXGyreTermesX-Bold-31" transform="translate(490.651877 0) scale(0.996264)"/>
      <use xlink:href="#TeXGyreTermesX-Bold-30" transform="translate(540.465077 0) scale(0.996264)"/>
      <use xlink:href="#txbsys-0" transform="translate(590.278278 36.164371) scale(0.727268)"/>
      <use xlink:href="#TeXGyreTermesX-Bold-34" transform="translate(639.441587 36.164371) scale(0.727268)"/>
      <use xlink:href="#TeXGyreTermesX-Regular-5d" transform="translate(676.303142 0) scale(0.996264)"/>
     </g>
    </g>
   </g>
   <g id="matplotlib.axis_2">
    <g id="ytick_1">
     <g id="line2d_44">
      <defs>
       <path id="m3e1d3212fe" d="M 0 0 
L 3.5 0 
" style="stroke: #000000; stroke-width: 0.8"/>
      </defs>
      <g>
       <use xlink:href="#m3e1d3212fe" x="28.586252" y="238.891589" style="stroke: #000000; stroke-width: 0.8"/>
      </g>
     </g>
     <g id="text_11">
      <!-- $\mathdefault{5}$ -->
      <g transform="translate(20.104932 242.31126) scale(0.1 -0.1)">
       <use xlink:href="#TeXGyreTermesX-Bold-35" transform="scale(0.996264)"/>
      </g>
     </g>
    </g>
    <g id="ytick_2">
     <g id="line2d_45">
      <g>
       <use xlink:href="#m3e1d3212fe" x="28.586252" y="186.026791" style="stroke: #000000; stroke-width: 0.8"/>
      </g>
     </g>
     <g id="text_12">
      <!-- $\mathdefault{10}$ -->
      <g transform="translate(15.123612 189.446463) scale(0.1 -0.1)">
       <use xlink:href="#TeXGyreTermesX-Bold-31" transform="scale(0.996264)"/>
       <use xlink:href="#TeXGyreTermesX-Bold-30" transform="translate(49.8132 0) scale(0.996264)"/>
      </g>
     </g>
    </g>
    <g id="ytick_3">
     <g id="line2d_46">
      <g>
       <use xlink:href="#m3e1d3212fe" x="28.586252" y="133.161994" style="stroke: #000000; stroke-width: 0.8"/>
      </g>
     </g>
     <g id="text_13">
      <!-- $\mathdefault{15}$ -->
      <g transform="translate(15.123612 136.581665) scale(0.1 -0.1)">
       <use xlink:href="#TeXGyreTermesX-Bold-31" transform="scale(0.996264)"/>
       <use xlink:href="#TeXGyreTermesX-Bold-35" transform="translate(49.8132 0) scale(0.996264)"/>
      </g>
     </g>
    </g>
    <g id="ytick_4">
     <g id="line2d_47">
      <g>
       <use xlink:href="#m3e1d3212fe" x="28.586252" y="80.297196" style="stroke: #000000; stroke-width: 0.8"/>
      </g>
     </g>
     <g id="text_14">
      <!-- $\mathdefault{20}$ -->
      <g transform="translate(15.123612 83.716868) scale(0.1 -0.1)">
       <defs>
        <path id="TeXGyreTermesX-Bold-32" d="M 3059 1341 
L 2906 1341 
C 2720 884 2643 846 1990 846 
L 1024 846 
L 2061 1824 
C 2566 2301 2790 2726 2790 3210 
C 2790 3889 2298 4373 1606 4373 
C 1286 4373 979 4245 755 4016 
C 506 3768 378 3552 198 3075 
L 378 3075 
C 576 3469 813 3648 1158 3648 
C 1440 3648 1651 3527 1792 3298 
C 1869 3164 1920 2987 1920 2841 
C 1920 2561 1798 2211 1594 1900 
C 1267 1405 1043 1137 109 146 
L 109 0 
L 2771 0 
L 3059 1341 
z
" transform="scale(0.015625)"/>
       </defs>
       <use xlink:href="#TeXGyreTermesX-Bold-32" transform="scale(0.996264)"/>
       <use xlink:href="#TeXGyreTermesX-Bold-30" transform="translate(49.8132 0) scale(0.996264)"/>
      </g>
     </g>
    </g>
    <g id="ytick_5">
     <g id="line2d_48">
      <g>
       <use xlink:href="#m3e1d3212fe" x="28.586252" y="27.432399" style="stroke: #000000; stroke-width: 0.8"/>
      </g>
     </g>
     <g id="text_15">
      <!-- $\mathdefault{25}$ -->
      <g transform="translate(15.123612 30.85207) scale(0.1 -0.1)">
       <use xlink:href="#TeXGyreTermesX-Bold-32" transform="scale(0.996264)"/>
       <use xlink:href="#TeXGyreTermesX-Bold-35" transform="translate(49.8132 0) scale(0.996264)"/>
      </g>
     </g>
    </g>
    <g id="ytick_6">
     <g id="line2d_49">
      <defs>
       <path id="m2162385004" d="M 0 0 
L 2 0 
" style="stroke: #000000; stroke-width: 0.6"/>
      </defs>
      <g>
       <use xlink:href="#m2162385004" x="28.586252" y="260.037508" style="stroke: #000000; stroke-width: 0.6"/>
      </g>
     </g>
    </g>
    <g id="ytick_7">
     <g id="line2d_50">
      <g>
       <use xlink:href="#m2162385004" x="28.586252" y="249.464548" style="stroke: #000000; stroke-width: 0.6"/>
      </g>
     </g>
    </g>
    <g id="ytick_8">
     <g id="line2d_51">
      <g>
       <use xlink:href="#m2162385004" x="28.586252" y="228.318629" style="stroke: #000000; stroke-width: 0.6"/>
      </g>
     </g>
    </g>
    <g id="ytick_9">
     <g id="line2d_52">
      <g>
       <use xlink:href="#m2162385004" x="28.586252" y="217.74567" style="stroke: #000000; stroke-width: 0.6"/>
      </g>
     </g>
    </g>
    <g id="ytick_10">
     <g id="line2d_53">
      <g>
       <use xlink:href="#m2162385004" x="28.586252" y="207.17271" style="stroke: #000000; stroke-width: 0.6"/>
      </g>
     </g>
    </g>
    <g id="ytick_11">
     <g id="line2d_54">
      <g>
       <use xlink:href="#m2162385004" x="28.586252" y="196.599751" style="stroke: #000000; stroke-width: 0.6"/>
      </g>
     </g>
    </g>
    <g id="ytick_12">
     <g id="line2d_55">
      <g>
       <use xlink:href="#m2162385004" x="28.586252" y="175.453832" style="stroke: #000000; stroke-width: 0.6"/>
      </g>
     </g>
    </g>
    <g id="ytick_13">
     <g id="line2d_56">
      <g>
       <use xlink:href="#m2162385004" x="28.586252" y="164.880872" style="stroke: #000000; stroke-width: 0.6"/>
      </g>
     </g>
    </g>
    <g id="ytick_14">
     <g id="line2d_57">
      <g>
       <use xlink:href="#m2162385004" x="28.586252" y="154.307913" style="stroke: #000000; stroke-width: 0.6"/>
      </g>
     </g>
    </g>
    <g id="ytick_15">
     <g id="line2d_58">
      <g>
       <use xlink:href="#m2162385004" x="28.586252" y="143.734953" style="stroke: #000000; stroke-width: 0.6"/>
      </g>
     </g>
    </g>
    <g id="ytick_16">
     <g id="line2d_59">
      <g>
       <use xlink:href="#m2162385004" x="28.586252" y="122.589034" style="stroke: #000000; stroke-width: 0.6"/>
      </g>
     </g>
    </g>
    <g id="ytick_17">
     <g id="line2d_60">
      <g>
       <use xlink:href="#m2162385004" x="28.586252" y="112.016075" style="stroke: #000000; stroke-width: 0.6"/>
      </g>
     </g>
    </g>
    <g id="ytick_18">
     <g id="line2d_61">
      <g>
       <use xlink:href="#m2162385004" x="28.586252" y="101.443115" style="stroke: #000000; stroke-width: 0.6"/>
      </g>
     </g>
    </g>
    <g id="ytick_19">
     <g id="line2d_62">
      <g>
       <use xlink:href="#m2162385004" x="28.586252" y="90.870156" style="stroke: #000000; stroke-width: 0.6"/>
      </g>
     </g>
    </g>
    <g id="ytick_20">
     <g id="line2d_63">
      <g>
       <use xlink:href="#m2162385004" x="28.586252" y="69.724237" style="stroke: #000000; stroke-width: 0.6"/>
      </g>
     </g>
    </g>
    <g id="ytick_21">
     <g id="line2d_64">
      <g>
       <use xlink:href="#m2162385004" x="28.586252" y="59.151277" style="stroke: #000000; stroke-width: 0.6"/>
      </g>
     </g>
    </g>
    <g id="ytick_22">
     <g id="line2d_65">
      <g>
       <use xlink:href="#m2162385004" x="28.586252" y="48.578318" style="stroke: #000000; stroke-width: 0.6"/>
      </g>
     </g>
    </g>
    <g id="ytick_23">
     <g id="line2d_66">
      <g>
       <use xlink:href="#m2162385004" x="28.586252" y="38.005358" style="stroke: #000000; stroke-width: 0.6"/>
      </g>
     </g>
    </g>
    <g id="ytick_24">
     <g id="line2d_67">
      <g>
       <use xlink:href="#m2162385004" x="28.586252" y="16.859439" style="stroke: #000000; stroke-width: 0.6"/>
      </g>
     </g>
    </g>
    <g id="ytick_25">
     <g id="line2d_68">
      <g>
       <use xlink:href="#m2162385004" x="28.586252" y="6.28648" style="stroke: #000000; stroke-width: 0.6"/>
      </g>
     </g>
    </g>
    <g id="text_16">
     <!-- $\ln(t_{inc})$ -->
     <g transform="translate(8.745536 147.872789) rotate(-90) scale(0.11 -0.11)">
      <defs>
       <path id="TeXGyreTermesX-Bold-6c" d="M 1632 0 
L 1632 153 
C 1421 153 1318 274 1318 528 
L 1318 4288 
L 102 4288 
L 102 4136 
C 326 4117 429 4002 429 3768 
L 429 533 
C 429 299 320 172 102 153 
L 102 0 
L 1632 0 
z
" transform="scale(0.015625)"/>
       <path id="TeXGyreTermesX-Bold-6e" d="M 3450 -32 
L 3450 121 
C 3200 140 3136 216 3136 484 
L 3136 2086 
C 3136 2635 2797 2986 2272 2986 
C 1888 2986 1594 2808 1357 2432 
L 1357 2910 
L 134 2910 
L 134 2757 
C 416 2713 474 2649 474 2381 
L 474 503 
C 474 235 422 178 134 121 
L 134 -32 
L 1677 -32 
L 1677 121 
C 1440 152 1363 249 1363 485 
L 1363 2190 
C 1363 2216 1408 2279 1472 2336 
C 1613 2484 1766 2560 1914 2560 
C 2138 2560 2246 2387 2246 2030 
L 2246 484 
C 2246 249 2163 146 1946 121 
L 1946 -32 
L 3450 -32 
z
" transform="scale(0.015625)"/>
       <path id="txbsys-b9" d="M 2016 4589 
C 1088 3987 435 3078 435 1645 
C 435 326 1114 -749 1997 -1293 
L 2163 -1062 
C 1318 -397 1178 634 1178 1664 
C 1178 2701 1338 3693 2163 4358 
L 2016 4589 
z
" transform="scale(0.015625)"/>
       <path id="NewTXBMI-74" d="M 1440 837 
L 1299 926 
C 1082 588 915 415 813 415 
C 762 415 710 460 710 511 
C 710 632 826 1073 1056 1864 
L 1267 2624 
L 1798 2624 
L 1798 2893 
L 1338 2893 
L 1587 3808 
L 1363 3808 
C 1018 3303 698 3037 192 2848 
L 192 2624 
L 518 2624 
L 83 1105 
C -13 773 -70 499 -70 383 
C -70 135 109 -32 378 -32 
C 762 -32 1018 180 1440 837 
z
" transform="scale(0.015625)"/>
       <path id="NewTXBMI-69" d="M 1523 803 
L 1382 892 
L 1293 765 
C 1126 516 979 382 883 382 
C 832 382 787 427 787 478 
C 787 535 819 701 845 809 
L 1427 2939 
C 1082 2862 634 2799 134 2761 
L 134 2589 
L 218 2589 
C 410 2589 512 2525 512 2404 
C 512 2353 493 2258 467 2149 
L 96 778 
C 45 594 13 427 13 339 
C 13 95 192 -64 454 -64 
C 838 -64 1075 127 1523 803 
z
M 1702 3757 
C 1702 3994 1504 4192 1261 4192 
C 1037 4192 838 3994 838 3770 
C 838 3520 1024 3328 1261 3328 
C 1504 3328 1702 3520 1702 3757 
z
" transform="scale(0.015625)"/>
       <path id="NewTXBMI-6e" d="M 3155 807 
L 3014 890 
C 2758 493 2675 404 2566 404 
C 2515 404 2477 448 2477 512 
C 2477 576 2515 710 2637 1067 
L 2867 1763 
C 2970 2063 3034 2344 3034 2497 
C 3034 2809 2867 2976 2566 2976 
C 2330 2976 2099 2881 1926 2714 
C 1690 2492 1536 2371 1139 1709 
L 1549 2970 
C 1139 2881 627 2810 269 2810 
L 269 2624 
C 538 2624 614 2592 614 2471 
C 614 2394 525 2055 320 1332 
L -38 26 
L 736 26 
C 1037 1133 1267 1690 1664 2208 
C 1792 2381 1990 2522 2106 2522 
C 2189 2522 2266 2458 2266 2388 
C 2266 2368 2253 2317 2234 2253 
L 1882 1191 
C 1779 884 1702 519 1702 352 
C 1702 109 1862 -32 2138 -32 
C 2522 -32 2784 186 3155 807 
z
" transform="scale(0.015625)"/>
       <path id="NewTXBMI-63" d="M 2214 803 
L 2035 918 
C 1728 492 1530 345 1254 345 
C 973 345 787 575 787 912 
C 787 1313 954 1886 1184 2299 
C 1357 2599 1536 2752 1734 2752 
C 1811 2752 1875 2707 1875 2644 
C 1875 2618 1862 2580 1824 2523 
C 1766 2421 1741 2350 1741 2275 
C 1741 2083 1894 1943 2112 1943 
C 2349 1943 2509 2121 2509 2389 
C 2509 2727 2221 2963 1792 2963 
C 890 2963 -32 1917 -32 898 
C -32 331 365 -64 947 -64 
C 1229 -64 1504 38 1722 223 
C 1888 364 1990 484 2214 803 
z
" transform="scale(0.015625)"/>
       <path id="txbsys-ba" d="M 582 4589 
L 435 4358 
C 1261 3693 1421 2701 1421 1664 
C 1421 634 1280 -397 435 -1062 
L 602 -1293 
C 1485 -749 2163 326 2163 1645 
C 2163 3078 1510 3987 582 4589 
z
" transform="scale(0.015625)"/>
      </defs>
      <use xlink:href="#TeXGyreTermesX-Bold-6c" transform="scale(0.996264)"/>
      <use xlink:href="#TeXGyreTermesX-Bold-6e" transform="translate(27.696127 0) scale(0.996264)"/>
      <use xlink:href="#txbsys-b9" transform="translate(88.069717 0) scale(0.996264)"/>
      <use xlink:href="#NewTXBMI-74" transform="translate(130.311275 0) scale(0.996264)"/>
      <use xlink:href="#NewTXBMI-69" transform="translate(163.905329 -14.943915) scale(0.727268)"/>
      <use xlink:href="#NewTXBMI-6e" transform="translate(190.232399 -14.943915) scale(0.727268)"/>
      <use xlink:href="#NewTXBMI-63" transform="translate(233.868522 -14.943915) scale(0.727268)"/>
      <use xlink:href="#txbsys-ba" transform="translate(268.802765 0) scale(0.996264)"/>
     </g>
    </g>
   </g>
   <g id="line2d_69">
    <path d="M 56.483499 234.492104 
L 59.402647 233.182388 
L 62.321795 231.872673 
L 65.240943 230.562957 
L 68.160091 229.253241 
L 71.079239 227.943526 
L 73.998387 226.63381 
L 76.917535 225.324094 
L 79.836683 224.014379 
L 82.755831 222.704663 
L 85.674979 221.394948 
L 88.594127 220.085232 
L 91.513275 218.775516 
L 94.432423 217.465801 
L 97.351571 216.156085 
L 100.270719 214.846369 
L 103.189867 213.536654 
L 106.109015 212.226938 
L 109.028163 210.917223 
L 111.947311 209.607507 
L 114.866459 208.297791 
L 117.785607 206.988076 
L 120.704755 205.67836 
L 123.623903 204.368644 
L 126.543051 203.058929 
L 129.462199 201.749213 
L 132.381347 200.439497 
L 135.300495 199.129782 
L 138.219643 197.820066 
L 141.138791 196.510351 
L 144.057939 195.200635 
L 146.977087 193.890919 
L 149.896235 192.581204 
L 152.815383 191.271488 
L 155.734531 189.961772 
L 158.653679 188.652057 
L 161.572827 187.342341 
L 164.491975 186.032626 
L 167.411123 184.72291 
L 170.330271 183.413194 
L 173.249419 182.103479 
L 176.168567 180.793763 
L 179.087715 179.484047 
L 182.006863 178.174332 
L 184.926011 176.864616 
L 187.845159 175.554901 
L 190.764307 174.245185 
L 193.683455 172.935469 
L 196.602603 171.625754 
L 199.521751 170.316038 
L 202.440899 169.006322 
L 205.360047 167.696607 
L 208.279195 166.386891 
L 211.198343 165.077175 
L 214.117491 163.76746 
L 217.036639 162.457744 
L 219.955787 161.148029 
L 222.874935 159.838313 
L 225.794083 158.528597 
L 228.713231 157.218882 
L 231.632379 155.909166 
L 234.551527 154.59945 
L 237.470675 153.289735 
L 240.389823 151.980019 
L 243.308971 150.670304 
L 246.228119 149.360588 
L 249.147267 148.050872 
L 252.066415 146.741157 
L 254.985563 145.431441 
L 257.904711 144.121725 
L 260.823859 142.81201 
L 263.743007 141.502294 
L 266.662155 140.192579 
L 269.581303 138.882863 
L 272.500451 137.573147 
L 275.419599 136.263432 
L 278.338747 134.953716 
L 281.257895 133.644 
L 284.177043 132.334285 
L 287.096191 131.024569 
L 290.015339 129.714853 
L 292.934487 128.405138 
L 295.853635 127.095422 
L 298.772784 125.785707 
L 301.691932 124.475991 
L 304.61108 123.166275 
L 307.530228 121.85656 
L 310.449376 120.546844 
L 313.368524 119.237128 
L 316.287672 117.927413 
L 319.20682 116.617697 
L 322.125968 115.307982 
L 325.045116 113.998266 
L 327.964264 112.68855 
L 330.883412 111.378835 
L 333.80256 110.069119 
L 336.721708 108.759403 
L 339.640856 107.449688 
L 342.560004 106.139972 
L 345.479152 104.830256 
" clip-path="url(#p2d621ff2c5)" style="fill: none; stroke: #000000; stroke-width: 1.5; stroke-linecap: square"/>
   </g>
   <g id="line2d_70">
    <path d="M 56.483499 261.349507 
L 59.402647 259.953459 
L 62.321795 258.559291 
L 65.240943 257.167022 
L 68.160091 255.776668 
L 71.079239 254.388249 
L 73.998387 253.00178 
L 76.917535 251.617279 
L 79.836683 250.234763 
L 82.755831 248.854249 
L 85.674979 247.475752 
L 88.594127 246.099289 
L 91.513275 244.724875 
L 94.432423 243.352526 
L 97.351571 241.982257 
L 100.270719 240.614082 
L 103.189867 239.248016 
L 106.109015 237.884073 
L 109.028163 236.522266 
L 111.947311 235.162608 
L 114.866459 233.805112 
L 117.785607 232.44979 
L 120.704755 231.096653 
L 123.623903 229.745714 
L 126.543051 228.396982 
L 129.462199 227.050468 
L 132.381347 225.706181 
L 135.300495 224.364131 
L 138.219643 223.024327 
L 141.138791 221.686776 
L 144.057939 220.351485 
L 146.977087 219.018463 
L 149.896235 217.687714 
L 152.815383 216.359245 
L 155.734531 215.033061 
L 158.653679 213.709167 
L 161.572827 212.387566 
L 164.491975 211.068261 
L 167.411123 209.751255 
L 170.330271 208.436551 
L 173.249419 207.124149 
L 176.168567 205.814051 
L 179.087715 204.506256 
L 182.006863 203.200764 
L 184.926011 201.897573 
L 187.845159 200.596683 
L 190.764307 199.29809 
L 193.683455 198.001791 
L 196.602603 196.707783 
L 199.521751 195.416062 
L 202.440899 194.126622 
L 205.360047 192.839458 
L 208.279195 191.554564 
L 211.198343 190.271934 
L 214.117491 188.991559 
L 217.036639 187.713432 
L 219.955787 186.437545 
L 222.874935 185.163888 
L 225.794083 183.892453 
L 228.713231 182.623228 
L 231.632379 181.356204 
L 234.551527 180.09137 
L 237.470675 178.828714 
L 240.389823 177.568223 
L 243.308971 176.309886 
L 246.228119 175.05369 
L 249.147267 173.79962 
L 252.066415 172.547664 
L 254.985563 171.297808 
L 257.904711 170.050036 
L 260.823859 168.804333 
L 263.743007 167.560686 
L 266.662155 166.319077 
L 269.581303 165.079491 
L 272.500451 163.841913 
L 275.419599 162.606324 
L 278.338747 161.37271 
L 281.257895 160.141052 
L 284.177043 158.911333 
L 287.096191 157.683536 
L 290.015339 156.457643 
L 292.934487 155.233637 
L 295.853635 154.0115 
L 298.772784 152.791212 
L 301.691932 151.572756 
L 304.61108 150.356114 
L 307.530228 149.141267 
L 310.449376 147.928196 
L 313.368524 146.716882 
L 316.287672 145.507307 
L 319.20682 144.299452 
L 322.125968 143.093298 
L 325.045116 141.888826 
L 327.964264 140.686016 
L 330.883412 139.484851 
L 333.80256 138.285311 
L 336.721708 137.087377 
L 339.640856 135.89103 
L 342.560004 134.696251 
L 345.479152 133.503021 
" clip-path="url(#p2d621ff2c5)" style="fill: none; stroke-dasharray: 3.7,1.6; stroke-dashoffset: 0; stroke: #000000"/>
   </g>
   <g id="line2d_71">
    <path d="M 56.483499 207.634701 
L 59.402647 206.411318 
L 62.321795 205.186054 
L 65.240943 203.958892 
L 68.160091 202.729814 
L 71.079239 201.498803 
L 73.998387 200.26584 
L 76.917535 199.03091 
L 79.836683 197.793995 
L 82.755831 196.555078 
L 85.674979 195.314143 
L 88.594127 194.071175 
L 91.513275 192.826158 
L 94.432423 191.579075 
L 97.351571 190.329913 
L 100.270719 189.078657 
L 103.189867 187.825291 
L 106.109015 186.569803 
L 109.028163 185.312179 
L 111.947311 184.052406 
L 114.866459 182.790471 
L 117.785607 181.526362 
L 120.704755 180.260067 
L 123.623903 178.991575 
L 126.543051 177.720876 
L 129.462199 176.447958 
L 132.381347 175.172814 
L 135.300495 173.895432 
L 138.219643 172.615806 
L 141.138791 171.333925 
L 144.057939 170.049785 
L 146.977087 168.763376 
L 149.896235 167.474693 
L 152.815383 166.183731 
L 155.734531 164.890483 
L 158.653679 163.594947 
L 161.572827 162.297117 
L 164.491975 160.99699 
L 167.411123 159.694564 
L 170.330271 158.389837 
L 173.249419 157.082808 
L 176.168567 155.773475 
L 179.087715 154.461839 
L 182.006863 153.1479 
L 184.926011 151.831659 
L 187.845159 150.513118 
L 190.764307 149.19228 
L 193.683455 147.869147 
L 196.602603 146.543724 
L 199.521751 145.216014 
L 202.440899 143.886023 
L 205.360047 142.553755 
L 208.279195 141.219218 
L 211.198343 139.882417 
L 214.117491 138.543361 
L 217.036639 137.202057 
L 219.955787 135.858513 
L 222.874935 134.512738 
L 225.794083 133.164742 
L 228.713231 131.814535 
L 231.632379 130.462128 
L 234.551527 129.107531 
L 237.470675 127.750756 
L 240.389823 126.391815 
L 243.308971 125.030721 
L 246.228119 123.667486 
L 249.147267 122.302124 
L 252.066415 120.934649 
L 254.985563 119.565075 
L 257.904711 118.193415 
L 260.823859 116.819686 
L 263.743007 115.443903 
L 266.662155 114.06608 
L 269.581303 112.686234 
L 272.500451 111.304382 
L 275.419599 109.920539 
L 278.338747 108.534722 
L 281.257895 107.146949 
L 284.177043 105.757237 
L 287.096191 104.365602 
L 290.015339 102.972063 
L 292.934487 101.576638 
L 295.853635 100.179345 
L 298.772784 98.780201 
L 301.691932 97.379226 
L 304.61108 95.976436 
L 307.530228 94.571853 
L 310.449376 93.165492 
L 313.368524 91.757375 
L 316.287672 90.347518 
L 319.20682 88.935942 
L 322.125968 87.522665 
L 325.045116 86.107706 
L 327.964264 84.691084 
L 330.883412 83.272818 
L 333.80256 81.852927 
L 336.721708 80.43143 
L 339.640856 79.008346 
L 342.560004 77.583693 
L 345.479152 76.157492 
" clip-path="url(#p2d621ff2c5)" style="fill: none; stroke-dasharray: 3.7,1.6; stroke-dashoffset: 0; stroke: #000000"/>
   </g>
   <g id="patch_3">
    <path d="M 28.586252 260.037508 
L 28.586252 1 
" style="fill: none; stroke: #000000; stroke-width: 0.8; stroke-linejoin: miter; stroke-linecap: square"/>
   </g>
   <g id="patch_4">
    <path d="M 395 260.037508 
L 395 1 
" style="fill: none; stroke: #000000; stroke-width: 0.8; stroke-linejoin: miter; stroke-linecap: square"/>
   </g>
   <g id="patch_5">
    <path d="M 28.586252 260.037508 
L 395 260.037508 
" style="fill: none; stroke: #000000; stroke-width: 0.8; stroke-linejoin: miter; stroke-linecap: square"/>
   </g>
   <g id="patch_6">
    <path d="M 28.586252 1 
L 395 1 
" style="fill: none; stroke: #000000; stroke-width: 0.8; stroke-linejoin: miter; stroke-linecap: square"/>
   </g>
   <g id="legend_1">
    <g id="patch_7">
     <path d="M 65.100889 51.485673 
L 388 51.485673 
Q 390 51.485673 390 49.485673 
L 390 8 
Q 390 6 388 6 
L 65.100889 6 
Q 63.100889 6 63.100889 8 
L 63.100889 49.485673 
Q 63.100889 51.485673 65.100889 51.485673 
z
" style="fill: #ffffff; opacity: 0.8; stroke: #cccccc; stroke-linejoin: miter"/>
    </g>
    <g id="PathCollection_7">
     <g>
      <use xlink:href="#m3e43521e9f" x="77.100889" y="14.375" style="fill: #1b9e77; stroke: #000000"/>
     </g>
    </g>
    <g id="text_17">
     <!-- Lopez et al. (2015) - HR -->
     <g transform="translate(95.100889 17) scale(0.1 -0.1)">
      <defs>
       <path id="TeXGyreTermesX-Regular-4c" d="M 3827 1114 
L 3667 1114 
C 3565 890 3482 742 3392 640 
C 3168 371 2816 250 2266 250 
L 1837 250 
C 1370 250 1286 288 1286 513 
L 1286 3550 
C 1286 4007 1376 4096 1882 4096 
L 1882 4237 
L 77 4237 
L 77 4115 
C 550 4077 634 3993 634 3536 
L 634 681 
C 634 223 544 134 77 134 
L 77 0 
L 3520 0 
L 3827 1114 
z
" transform="scale(0.015625)"/>
       <path id="TeXGyreTermesX-Regular-6f" d="M 3008 1498 
C 3008 2336 2419 2944 1600 2944 
C 768 2944 186 2330 186 1446 
C 186 582 781 -64 1587 -64 
C 2394 -64 3008 614 3008 1498 
z
M 2432 1274 
C 2432 550 2144 115 1664 115 
C 1414 115 1178 269 1043 525 
C 864 858 762 1306 762 1760 
C 762 2368 1062 2765 1517 2765 
C 2054 2765 2432 2150 2432 1274 
z
" transform="scale(0.015625)"/>
       <path id="TeXGyreTermesX-Regular-70" d="M 3008 1575 
C 3008 2372 2560 2944 1939 2944 
C 1581 2944 1299 2784 1018 2438 
L 1018 2931 
L 979 2944 
C 634 2810 410 2726 58 2618 
L 58 2516 
C 115 2522 160 2522 218 2522 
C 435 2522 480 2458 480 2155 
L 480 -855 
C 480 -1189 410 -1261 32 -1299 
L 32 -1408 
L 1581 -1408 
L 1581 -1293 
C 1101 -1293 1018 -1222 1018 -816 
L 1018 199 
C 1242 -13 1395 -77 1664 -77 
C 2419 -77 3008 643 3008 1575 
z
M 2458 1324 
C 2458 611 2144 128 1683 128 
C 1382 128 1018 359 1018 552 
L 1018 2136 
C 1018 2329 1376 2560 1670 2560 
C 2144 2560 2458 2071 2458 1324 
z
" transform="scale(0.015625)"/>
       <path id="TeXGyreTermesX-Regular-65" d="M 2714 1008 
L 2611 1053 
C 2304 564 2029 378 1619 378 
C 1267 378 998 545 813 892 
C 685 1142 634 1367 621 1779 
L 2592 1779 
C 2541 2193 2477 2377 2317 2581 
C 2125 2811 1830 2944 1498 2944 
C 704 2944 160 2304 160 1370 
C 160 486 621 -64 1357 -64 
C 1971 -64 2445 315 2714 1008 
z
M 1939 1984 
L 634 1984 
C 704 2485 922 2714 1312 2714 
C 1702 2714 1856 2535 1939 1984 
z
" transform="scale(0.015625)"/>
       <path id="TeXGyreTermesX-Regular-7a" d="M 2675 864 
L 2560 890 
C 2496 570 2458 467 2374 358 
C 2285 250 2067 192 1741 192 
L 858 192 
L 2579 2784 
L 2579 2880 
L 358 2880 
L 339 2125 
L 454 2125 
C 512 2592 608 2688 992 2688 
L 1875 2688 
L 173 96 
L 173 0 
L 2586 0 
L 2675 864 
z
" transform="scale(0.015625)"/>
       <path id="TeXGyreTermesX-Regular-74" d="M 1786 422 
L 1702 493 
C 1562 326 1459 269 1318 269 
C 1082 269 986 435 986 845 
L 986 2675 
L 1632 2675 
L 1632 2880 
L 986 2880 
L 986 3622 
C 986 3686 973 3706 941 3706 
C 902 3642 858 3584 813 3526 
C 576 3174 358 2938 192 2836 
C 122 2785 83 2740 83 2697 
C 83 2675 90 2675 109 2675 
L 448 2675 
L 448 749 
C 448 211 640 -64 1011 -64 
C 1331 -64 1574 90 1786 422 
z
" transform="scale(0.015625)"/>
       <path id="TeXGyreTermesX-Regular-61" d="M 2829 256 
L 2829 423 
C 2720 333 2643 301 2547 301 
C 2400 301 2355 390 2355 672 
L 2355 1920 
C 2355 2246 2323 2426 2234 2573 
C 2099 2816 1824 2944 1434 2944 
C 1107 2944 800 2854 621 2707 
C 461 2573 358 2387 358 2227 
C 358 2080 480 1952 634 1952 
C 787 1952 922 2080 922 2221 
C 922 2246 915 2278 909 2323 
C 896 2381 890 2432 890 2477 
C 890 2650 1094 2790 1350 2790 
C 1664 2790 1837 2605 1837 2259 
L 1837 1869 
C 851 1472 742 1421 467 1178 
C 326 1050 237 832 237 621 
C 237 218 512 -64 909 -64 
C 1190 -64 1453 70 1843 403 
C 1875 64 1990 -64 2253 -64 
C 2470 -64 2605 13 2829 256 
z
M 1837 783 
C 1837 584 1805 526 1670 443 
C 1517 352 1338 301 1203 301 
C 979 301 800 520 800 796 
L 800 822 
C 800 1201 1062 1433 1837 1715 
L 1837 783 
z
" transform="scale(0.015625)"/>
       <path id="TeXGyreTermesX-Regular-6c" d="M 1645 0 
L 1645 109 
C 1235 109 1165 173 1165 528 
L 1165 4371 
L 1139 4384 
C 806 4275 563 4211 122 4103 
L 122 4000 
L 160 4000 
C 230 4000 307 4000 358 4000 
C 563 4000 627 3910 627 3610 
L 627 557 
C 627 211 538 128 134 96 
L 134 0 
L 1645 0 
z
" transform="scale(0.015625)"/>
       <path id="TeXGyreTermesX-Regular-2e" d="M 1158 281 
C 1158 480 992 646 800 646 
C 608 646 448 480 448 281 
C 448 96 608 -64 794 -64 
C 992 -64 1158 96 1158 281 
z
" transform="scale(0.015625)"/>
       <path id="TeXGyreTermesX-Regular-28" d="M 1946 -1030 
C 1434 -627 1254 -403 1082 77 
C 928 506 858 992 858 1632 
C 858 2304 941 2829 1114 3226 
C 1293 3622 1485 3853 1946 4224 
L 1888 4326 
C 1414 4019 1222 3853 986 3558 
C 531 3002 307 2362 307 1613 
C 307 800 544 173 1107 -480 
C 1370 -787 1536 -928 1869 -1133 
L 1946 -1030 
z
" transform="scale(0.015625)"/>
       <path id="TeXGyreTermesX-Regular-32" d="M 3040 875 
L 2957 907 
C 2720 544 2637 486 2349 486 
L 819 486 
L 1894 1609 
C 2464 2202 2714 2687 2714 3185 
C 2714 3823 2195 4313 1530 4313 
C 1178 4313 845 4173 608 3918 
C 403 3700 307 3496 198 3043 
L 333 3011 
C 589 3636 819 3840 1261 3840 
C 1798 3840 2163 3476 2163 2940 
C 2163 2443 1869 1850 1331 1282 
L 192 77 
L 192 0 
L 2688 0 
L 3040 875 
z
" transform="scale(0.015625)"/>
       <path id="TeXGyreTermesX-Regular-30" d="M 3046 2138 
C 3046 3450 2464 4352 1626 4352 
C 1274 4352 1005 4244 768 4020 
C 397 3661 154 2925 154 2176 
C 154 1479 365 730 666 372 
C 902 90 1229 -64 1600 -64 
C 1926 -64 2202 45 2432 269 
C 2803 621 3046 1364 3046 2138 
z
M 2432 2125 
C 2432 788 2150 103 1600 103 
C 1050 103 768 788 768 2119 
C 768 3476 1056 4186 1606 4186 
C 2144 4186 2432 3463 2432 2125 
z
" transform="scale(0.015625)"/>
       <path id="TeXGyreTermesX-Regular-31" d="M 2522 0 
L 2522 96 
C 2016 96 1914 160 1914 470 
L 1914 4327 
L 1862 4339 
L 710 3757 
L 710 3667 
C 787 3699 858 3725 883 3738 
C 998 3783 1107 3808 1171 3808 
C 1306 3808 1363 3711 1363 3505 
L 1363 592 
C 1363 379 1312 232 1210 173 
C 1114 116 1024 96 755 96 
L 755 0 
L 2522 0 
z
" transform="scale(0.015625)"/>
       <path id="TeXGyreTermesX-Regular-35" d="M 2803 4403 
L 2746 4448 
C 2650 4314 2586 4282 2451 4282 
L 1114 4282 
L 416 2759 
C 410 2746 410 2727 410 2727 
C 410 2695 435 2676 486 2676 
C 691 2676 947 2631 1210 2547 
C 1946 2309 2285 1910 2285 1274 
C 2285 656 1894 173 1395 173 
C 1267 173 1158 218 966 360 
C 762 508 614 572 480 572 
C 294 572 205 495 205 334 
C 205 90 506 -64 986 -64 
C 1523 -64 1984 110 2304 438 
C 2598 728 2733 1094 2733 1583 
C 2733 2046 2611 2342 2291 2663 
C 2010 2947 1645 3094 890 3229 
L 1158 3776 
L 2413 3776 
C 2515 3776 2541 3789 2560 3834 
L 2803 4403 
z
" transform="scale(0.015625)"/>
       <path id="TeXGyreTermesX-Regular-29" d="M 1824 1581 
C 1824 2400 1587 3021 1024 3674 
C 762 3981 595 4122 262 4326 
L 186 4224 
C 698 3821 870 3597 1050 3117 
C 1203 2688 1274 2202 1274 1562 
C 1274 896 1190 365 1018 -26 
C 838 -429 646 -659 186 -1030 
L 243 -1133 
C 717 -826 909 -659 1146 -365 
C 1600 192 1824 832 1824 1581 
z
" transform="scale(0.015625)"/>
       <path id="TeXGyreTermesX-Regular-2d" d="M 1824 1216 
L 1824 1619 
L 250 1619 
L 250 1216 
L 1824 1216 
z
" transform="scale(0.015625)"/>
       <path id="TeXGyreTermesX-Regular-48" d="M 4493 0 
L 4493 121 
C 4013 159 3930 242 3930 696 
L 3930 3529 
C 3930 3989 4000 4059 4493 4104 
L 4493 4224 
L 2714 4224 
L 2714 4104 
C 3206 4059 3277 3990 3277 3533 
L 3277 2304 
L 1338 2304 
L 1338 3533 
C 1338 3990 1408 4059 1901 4104 
L 1901 4224 
L 122 4224 
L 122 4104 
C 614 4059 685 3989 685 3527 
L 685 749 
C 685 210 621 134 122 134 
L 122 0 
L 1901 0 
L 1901 121 
C 1421 159 1338 242 1338 699 
L 1338 2022 
L 3277 2022 
L 3277 757 
C 3277 211 3213 134 2714 134 
L 2714 0 
L 4493 0 
z
" transform="scale(0.015625)"/>
       <path id="TeXGyreTermesX-Regular-52" d="M 4218 0 
L 4218 121 
C 3974 140 3846 205 3661 424 
L 2342 2061 
C 2771 2143 2963 2219 3174 2388 
C 3379 2553 3501 2818 3501 3113 
C 3501 3385 3418 3618 3251 3801 
C 3008 4059 2477 4224 1875 4224 
L 109 4224 
L 109 4102 
C 589 4051 653 3981 653 3528 
L 653 765 
C 653 236 589 159 109 121 
L 109 0 
L 1882 0 
L 1882 134 
C 1389 134 1306 219 1306 692 
L 1306 1984 
L 1664 1984 
L 3187 0 
L 4218 0 
z
M 2803 3123 
C 2803 2807 2669 2542 2438 2423 
C 2144 2258 1920 2221 1306 2221 
L 1306 3762 
C 1306 3937 1376 3987 1632 3987 
C 2432 3987 2803 3716 2803 3123 
z
" transform="scale(0.015625)"/>
      </defs>
      <use xlink:href="#TeXGyreTermesX-Regular-4c" transform="scale(0.996264)"/>
      <use xlink:href="#TeXGyreTermesX-Regular-6f" transform="translate(60.871737 0) scale(0.996264)"/>
      <use xlink:href="#TeXGyreTermesX-Regular-70" transform="translate(110.684938 0) scale(0.996264)"/>
      <use xlink:href="#TeXGyreTermesX-Regular-65" transform="translate(160.498138 0) scale(0.996264)"/>
      <use xlink:href="#TeXGyreTermesX-Regular-7a" transform="translate(204.732284 0) scale(0.996264)"/>
      <use xlink:href="#TeXGyreTermesX-Regular-65" transform="translate(273.873031 0) scale(0.996264)"/>
      <use xlink:href="#TeXGyreTermesX-Regular-74" transform="translate(318.107177 0) scale(0.996264)"/>
      <use xlink:href="#TeXGyreTermesX-Regular-61" transform="translate(370.709905 0) scale(0.996264)"/>
      <use xlink:href="#TeXGyreTermesX-Regular-6c" transform="translate(414.944051 0) scale(0.996264)"/>
      <use xlink:href="#TeXGyreTermesX-Regular-2e" transform="translate(442.640179 0) scale(0.996264)"/>
      <use xlink:href="#TeXGyreTermesX-Regular-28" transform="translate(503.511916 0) scale(0.996264)"/>
      <use xlink:href="#TeXGyreTermesX-Regular-32" transform="translate(536.687526 0) scale(0.996264)"/>
      <use xlink:href="#TeXGyreTermesX-Regular-30" transform="translate(586.500726 0) scale(0.996264)"/>
      <use xlink:href="#TeXGyreTermesX-Regular-31" transform="translate(636.313927 0) scale(0.996264)"/>
      <use xlink:href="#TeXGyreTermesX-Regular-35" transform="translate(686.127127 0) scale(0.996264)"/>
      <use xlink:href="#TeXGyreTermesX-Regular-29" transform="translate(735.940328 0) scale(0.996264)"/>
      <use xlink:href="#TeXGyreTermesX-Regular-2d" transform="translate(794.022538 0) scale(0.996264)"/>
      <use xlink:href="#TeXGyreTermesX-Regular-48" transform="translate(852.104748 0) scale(0.996264)"/>
      <use xlink:href="#TeXGyreTermesX-Regular-52" transform="translate(924.035021 0) scale(0.996264)"/>
     </g>
    </g>
    <g id="PathCollection_8">
     <g>
      <use xlink:href="#m3bcbdbb84d" x="77.100889" y="28.536891" style="fill: #d95f02; stroke: #000000"/>
     </g>
    </g>
    <g id="text_18">
     <!-- Lopez et al. (2015) - MR -->
     <g transform="translate(95.100889 31.161891) scale(0.1 -0.1)">
      <defs>
       <path id="TeXGyreTermesX-Regular-4d" d="M 5523 0 
L 5523 134 
C 5056 134 4966 223 4966 681 
L 4966 3536 
C 4966 3993 5050 4077 5523 4115 
L 5523 4237 
L 4250 4237 
L 2835 1004 
L 1357 4237 
L 90 4237 
L 90 4096 
C 614 4096 698 4019 698 3550 
L 698 943 
C 698 282 608 159 77 121 
L 77 0 
L 1581 0 
L 1581 134 
C 1088 134 979 282 979 931 
L 979 3520 
L 2586 0 
L 2675 0 
L 4314 3667 
L 4314 751 
C 4314 217 4237 134 3731 134 
L 3731 0 
L 5523 0 
z
" transform="scale(0.015625)"/>
      </defs>
      <use xlink:href="#TeXGyreTermesX-Regular-4c" transform="scale(0.996264)"/>
      <use xlink:href="#TeXGyreTermesX-Regular-6f" transform="translate(60.871737 0) scale(0.996264)"/>
      <use xlink:href="#TeXGyreTermesX-Regular-70" transform="translate(110.684938 0) scale(0.996264)"/>
      <use xlink:href="#TeXGyreTermesX-Regular-65" transform="translate(160.498138 0) scale(0.996264)"/>
      <use xlink:href="#TeXGyreTermesX-Regular-7a" transform="translate(204.732284 0) scale(0.996264)"/>
      <use xlink:href="#TeXGyreTermesX-Regular-65" transform="translate(273.873031 0) scale(0.996264)"/>
      <use xlink:href="#TeXGyreTermesX-Regular-74" transform="translate(318.107177 0) scale(0.996264)"/>
      <use xlink:href="#TeXGyreTermesX-Regular-61" transform="translate(370.709905 0) scale(0.996264)"/>
      <use xlink:href="#TeXGyreTermesX-Regular-6c" transform="translate(414.944051 0) scale(0.996264)"/>
      <use xlink:href="#TeXGyreTermesX-Regular-2e" transform="translate(442.640179 0) scale(0.996264)"/>
      <use xlink:href="#TeXGyreTermesX-Regular-28" transform="translate(503.511916 0) scale(0.996264)"/>
      <use xlink:href="#TeXGyreTermesX-Regular-32" transform="translate(536.687526 0) scale(0.996264)"/>
      <use xlink:href="#TeXGyreTermesX-Regular-30" transform="translate(586.500726 0) scale(0.996264)"/>
      <use xlink:href="#TeXGyreTermesX-Regular-31" transform="translate(636.313927 0) scale(0.996264)"/>
      <use xlink:href="#TeXGyreTermesX-Regular-35" transform="translate(686.127127 0) scale(0.996264)"/>
      <use xlink:href="#TeXGyreTermesX-Regular-29" transform="translate(735.940328 0) scale(0.996264)"/>
      <use xlink:href="#TeXGyreTermesX-Regular-2d" transform="translate(794.022538 0) scale(0.996264)"/>
      <use xlink:href="#TeXGyreTermesX-Regular-4d" transform="translate(852.104748 0) scale(0.996264)"/>
      <use xlink:href="#TeXGyreTermesX-Regular-52" transform="translate(940.672612 0) scale(0.996264)"/>
     </g>
    </g>
    <g id="PathCollection_9">
     <g>
      <use xlink:href="#md35026aea4" x="77.100889" y="42.698782" style="fill: #7570b3; stroke: #000000"/>
     </g>
    </g>
    <g id="text_19">
     <!-- Richou et al. (2020) - Batch A -->
     <g transform="translate(95.100889 45.323782) scale(0.1 -0.1)">
      <defs>
       <path id="TeXGyreTermesX-Regular-69" d="M 1619 0 
L 1619 96 
C 1197 128 1146 191 1146 650 
L 1146 2910 
L 1120 2929 
L 128 2579 
L 128 2484 
L 179 2490 
C 256 2502 339 2509 397 2509 
C 550 2509 608 2406 608 2125 
L 608 640 
C 608 179 544 109 102 109 
L 102 0 
L 1619 0 
z
M 1203 4026 
C 1203 4205 1062 4352 877 4352 
C 698 4352 550 4205 550 4026 
C 550 3840 698 3699 877 3699 
C 1062 3699 1203 3840 1203 4026 
z
" transform="scale(0.015625)"/>
       <path id="TeXGyreTermesX-Regular-63" d="M 2637 942 
L 2547 999 
C 2240 550 2010 397 1645 397 
C 1056 397 653 909 653 1645 
C 653 2310 1005 2758 1523 2758 
C 1754 2758 1837 2688 1901 2451 
L 1939 2310 
C 1990 2125 2106 2016 2246 2016 
C 2413 2016 2547 2138 2547 2285 
C 2547 2643 2099 2944 1562 2944 
C 1261 2944 954 2829 698 2618 
C 352 2330 160 1888 160 1357 
C 160 531 666 -64 1376 -64 
C 1651 -64 1894 26 2112 205 
C 2304 358 2432 545 2637 942 
z
" transform="scale(0.015625)"/>
       <path id="TeXGyreTermesX-Regular-68" d="M 3117 32 
L 3117 128 
C 2771 192 2733 243 2733 684 
L 2733 1954 
C 2733 2625 2464 2970 1946 2970 
C 1568 2970 1299 2816 1005 2432 
L 1005 4390 
L 973 4409 
C 755 4332 595 4281 237 4179 
L 64 4128 
L 64 4026 
C 90 4032 109 4032 141 4032 
C 416 4032 467 3980 467 3705 
L 467 686 
C 467 237 429 179 58 128 
L 58 32 
L 1440 32 
L 1440 128 
C 1069 166 1005 243 1005 684 
L 1005 2222 
C 1274 2516 1466 2624 1715 2624 
C 2035 2624 2195 2395 2195 1948 
L 2195 684 
C 2195 250 2131 166 1760 128 
L 1760 32 
L 3117 32 
z
" transform="scale(0.015625)"/>
       <path id="TeXGyreTermesX-Regular-75" d="M 3066 230 
L 3066 320 
L 3034 320 
C 2739 320 2669 390 2669 685 
L 2669 2880 
L 1658 2880 
L 1658 2758 
C 2054 2758 2131 2694 2131 2375 
L 2131 875 
C 2131 703 2099 607 2022 550 
C 1843 397 1645 320 1446 320 
C 1197 320 992 537 992 805 
L 992 2880 
L 58 2880 
L 58 2778 
C 365 2778 454 2682 454 2387 
L 454 770 
C 454 263 762 -64 1229 -64 
C 1466 -64 1715 38 1888 211 
L 2163 486 
L 2163 -45 
L 2189 -58 
C 2509 70 2739 141 3066 230 
z
" transform="scale(0.015625)"/>
       <path id="TeXGyreTermesX-Regular-42" d="M 3795 1165 
C 3795 1451 3680 1710 3482 1897 
C 3290 2072 3117 2150 2701 2253 
C 3034 2335 3168 2398 3322 2531 
C 3482 2671 3578 2903 3578 3163 
C 3578 3871 3008 4237 1901 4237 
L 109 4237 
L 109 4096 
C 646 4096 723 4026 723 3548 
L 723 689 
C 723 212 640 128 109 128 
L 109 0 
L 2246 0 
C 2746 0 3200 136 3437 356 
C 3667 564 3795 855 3795 1165 
z
M 3059 1159 
C 3059 809 2925 555 2669 406 
C 2464 290 2202 238 1779 238 
C 1466 238 1376 296 1376 504 
L 1376 2112 
C 1997 2112 2291 2080 2522 1982 
C 2886 1827 3059 1568 3059 1159 
z
M 2925 3137 
C 2925 2646 2586 2368 1984 2368 
L 1376 2368 
L 1376 3812 
C 1376 3944 1421 4001 1517 4001 
L 1798 4001 
C 2534 4001 2925 3699 2925 3137 
z
" transform="scale(0.015625)"/>
       <path id="TeXGyreTermesX-Regular-41" d="M 4518 0 
L 4518 128 
C 4230 128 4166 192 3942 667 
L 2349 4320 
L 2221 4320 
L 890 1163 
C 480 224 403 128 96 128 
L 96 0 
L 1363 0 
L 1363 128 
C 1056 128 928 212 928 393 
C 928 470 947 560 979 645 
L 1274 1401 
L 2950 1401 
L 3213 781 
C 3290 600 3334 438 3334 341 
C 3334 283 3296 212 3245 186 
C 3168 140 3117 128 2886 128 
L 2886 0 
L 4518 0 
z
M 2861 1664 
L 1382 1664 
L 2118 3416 
L 2861 1664 
z
" transform="scale(0.015625)"/>
      </defs>
      <use xlink:href="#TeXGyreTermesX-Regular-52" transform="scale(0.996264)"/>
      <use xlink:href="#TeXGyreTermesX-Regular-69" transform="translate(66.450791 0) scale(0.996264)"/>
      <use xlink:href="#TeXGyreTermesX-Regular-63" transform="translate(94.146919 0) scale(0.996264)"/>
      <use xlink:href="#TeXGyreTermesX-Regular-68" transform="translate(136.886623 0) scale(0.996264)"/>
      <use xlink:href="#TeXGyreTermesX-Regular-6f" transform="translate(186.699824 0) scale(0.996264)"/>
      <use xlink:href="#TeXGyreTermesX-Regular-75" transform="translate(236.513024 0) scale(0.996264)"/>
      <use xlink:href="#TeXGyreTermesX-Regular-65" transform="translate(311.232825 0) scale(0.996264)"/>
      <use xlink:href="#TeXGyreTermesX-Regular-74" transform="translate(355.466971 0) scale(0.996264)"/>
      <use xlink:href="#TeXGyreTermesX-Regular-61" transform="translate(408.069699 0) scale(0.996264)"/>
      <use xlink:href="#TeXGyreTermesX-Regular-6c" transform="translate(452.303845 0) scale(0.996264)"/>
      <use xlink:href="#TeXGyreTermesX-Regular-2e" transform="translate(479.999973 0) scale(0.996264)"/>
      <use xlink:href="#TeXGyreTermesX-Regular-28" transform="translate(540.87171 0) scale(0.996264)"/>
      <use xlink:href="#TeXGyreTermesX-Regular-32" transform="translate(574.04732 0) scale(0.996264)"/>
      <use xlink:href="#TeXGyreTermesX-Regular-30" transform="translate(623.86052 0) scale(0.996264)"/>
      <use xlink:href="#TeXGyreTermesX-Regular-32" transform="translate(673.67372 0) scale(0.996264)"/>
      <use xlink:href="#TeXGyreTermesX-Regular-30" transform="translate(723.486921 0) scale(0.996264)"/>
      <use xlink:href="#TeXGyreTermesX-Regular-29" transform="translate(773.300121 0) scale(0.996264)"/>
      <use xlink:href="#TeXGyreTermesX-Regular-2d" transform="translate(831.382332 0) scale(0.996264)"/>
      <use xlink:href="#TeXGyreTermesX-Regular-42" transform="translate(889.464542 0) scale(0.996264)"/>
      <use xlink:href="#TeXGyreTermesX-Regular-61" transform="translate(955.915333 0) scale(0.996264)"/>
      <use xlink:href="#TeXGyreTermesX-Regular-74" transform="translate(1000.149479 0) scale(0.996264)"/>
      <use xlink:href="#TeXGyreTermesX-Regular-63" transform="translate(1027.845606 0) scale(0.996264)"/>
      <use xlink:href="#TeXGyreTermesX-Regular-68" transform="translate(1070.585311 0) scale(0.996264)"/>
      <use xlink:href="#TeXGyreTermesX-Regular-41" transform="translate(1145.305112 0) scale(0.996264)"/>
     </g>
    </g>
    <g id="PathCollection_10">
     <g>
      <use xlink:href="#m2e57993e35" x="246.824419" y="14.375" style="fill: #e7298a; stroke: #000000"/>
     </g>
    </g>
    <g id="text_20">
     <!-- Richou et al. (2020) - Batch B -->
     <g transform="translate(264.824419 17) scale(0.1 -0.1)">
      <use xlink:href="#TeXGyreTermesX-Regular-52" transform="scale(0.996264)"/>
      <use xlink:href="#TeXGyreTermesX-Regular-69" transform="translate(66.450791 0) scale(0.996264)"/>
      <use xlink:href="#TeXGyreTermesX-Regular-63" transform="translate(94.146919 0) scale(0.996264)"/>
      <use xlink:href="#TeXGyreTermesX-Regular-68" transform="translate(136.886623 0) scale(0.996264)"/>
      <use xlink:href="#TeXGyreTermesX-Regular-6f" transform="translate(186.699824 0) scale(0.996264)"/>
      <use xlink:href="#TeXGyreTermesX-Regular-75" transform="translate(236.513024 0) scale(0.996264)"/>
      <use xlink:href="#TeXGyreTermesX-Regular-65" transform="translate(311.232825 0) scale(0.996264)"/>
      <use xlink:href="#TeXGyreTermesX-Regular-74" transform="translate(355.466971 0) scale(0.996264)"/>
      <use xlink:href="#TeXGyreTermesX-Regular-61" transform="translate(408.069699 0) scale(0.996264)"/>
      <use xlink:href="#TeXGyreTermesX-Regular-6c" transform="translate(452.303845 0) scale(0.996264)"/>
      <use xlink:href="#TeXGyreTermesX-Regular-2e" transform="translate(479.999973 0) scale(0.996264)"/>
      <use xlink:href="#TeXGyreTermesX-Regular-28" transform="translate(540.87171 0) scale(0.996264)"/>
      <use xlink:href="#TeXGyreTermesX-Regular-32" transform="translate(574.04732 0) scale(0.996264)"/>
      <use xlink:href="#TeXGyreTermesX-Regular-30" transform="translate(623.86052 0) scale(0.996264)"/>
      <use xlink:href="#TeXGyreTermesX-Regular-32" transform="translate(673.67372 0) scale(0.996264)"/>
      <use xlink:href="#TeXGyreTermesX-Regular-30" transform="translate(723.486921 0) scale(0.996264)"/>
      <use xlink:href="#TeXGyreTermesX-Regular-29" transform="translate(773.300121 0) scale(0.996264)"/>
      <use xlink:href="#TeXGyreTermesX-Regular-2d" transform="translate(831.382332 0) scale(0.996264)"/>
      <use xlink:href="#TeXGyreTermesX-Regular-42" transform="translate(889.464542 0) scale(0.996264)"/>
      <use xlink:href="#TeXGyreTermesX-Regular-61" transform="translate(955.915333 0) scale(0.996264)"/>
      <use xlink:href="#TeXGyreTermesX-Regular-74" transform="translate(1000.149479 0) scale(0.996264)"/>
      <use xlink:href="#TeXGyreTermesX-Regular-63" transform="translate(1027.845606 0) scale(0.996264)"/>
      <use xlink:href="#TeXGyreTermesX-Regular-68" transform="translate(1070.585311 0) scale(0.996264)"/>
      <use xlink:href="#TeXGyreTermesX-Regular-42" transform="translate(1145.305112 0) scale(0.996264)"/>
     </g>
    </g>
    <g id="PathCollection_11">
     <g>
      <use xlink:href="#m31e9fee528" x="246.824419" y="28.536891" style="fill: #66a61e; stroke: #000000"/>
     </g>
    </g>
    <g id="text_21">
     <!-- Yu et al. (2017) -->
     <g transform="translate(264.824419 31.161891) scale(0.1 -0.1)">
      <defs>
       <path id="TeXGyreTermesX-Regular-59" d="M 4499 4102 
L 4499 4224 
L 3098 4224 
L 3098 4096 
C 3430 4096 3539 4045 3539 3892 
C 3539 3828 3507 3751 3450 3655 
L 2534 2214 
L 1587 3640 
C 1517 3743 1478 3852 1478 3922 
C 1478 4038 1568 4096 1773 4096 
C 1798 4096 1862 4096 1933 4102 
L 1933 4224 
L 141 4224 
L 141 4096 
C 448 4096 538 4007 1178 3104 
L 2016 1876 
L 2016 758 
C 2016 198 1952 134 1370 134 
L 1370 0 
L 3328 0 
L 3328 134 
C 2758 134 2669 211 2669 696 
L 2669 1933 
L 3616 3375 
C 4006 3937 4173 4077 4499 4102 
z
" transform="scale(0.015625)"/>
       <path id="TeXGyreTermesX-Regular-37" d="M 2874 4148 
L 2874 4250 
L 506 4250 
L 128 3310 
L 237 3258 
C 512 3693 627 3776 979 3776 
L 2368 3776 
L 1101 -32 
L 1517 -32 
L 2874 4148 
z
" transform="scale(0.015625)"/>
      </defs>
      <use xlink:href="#TeXGyreTermesX-Regular-59" transform="scale(0.996264)"/>
      <use xlink:href="#TeXGyreTermesX-Regular-75" transform="translate(63.960162 0) scale(0.996264)"/>
      <use xlink:href="#TeXGyreTermesX-Regular-65" transform="translate(138.679962 0) scale(0.996264)"/>
      <use xlink:href="#TeXGyreTermesX-Regular-74" transform="translate(182.914109 0) scale(0.996264)"/>
      <use xlink:href="#TeXGyreTermesX-Regular-61" transform="translate(235.516836 0) scale(0.996264)"/>
      <use xlink:href="#TeXGyreTermesX-Regular-6c" transform="translate(279.750983 0) scale(0.996264)"/>
      <use xlink:href="#TeXGyreTermesX-Regular-2e" transform="translate(307.44711 0) scale(0.996264)"/>
      <use xlink:href="#TeXGyreTermesX-Regular-28" transform="translate(368.318847 0) scale(0.996264)"/>
      <use xlink:href="#TeXGyreTermesX-Regular-32" transform="translate(401.494457 0) scale(0.996264)"/>
      <use xlink:href="#TeXGyreTermesX-Regular-30" transform="translate(451.307657 0) scale(0.996264)"/>
      <use xlink:href="#TeXGyreTermesX-Regular-31" transform="translate(501.120858 0) scale(0.996264)"/>
      <use xlink:href="#TeXGyreTermesX-Regular-37" transform="translate(550.934058 0) scale(0.996264)"/>
      <use xlink:href="#TeXGyreTermesX-Regular-29" transform="translate(600.747259 0) scale(0.996264)"/>
     </g>
    </g>
    <g id="PathCollection_12">
     <g>
      <use xlink:href="#m673ebbf118" x="246.824419" y="42.698782" style="fill: #a6761d; stroke: #000000"/>
     </g>
    </g>
    <g id="text_22">
     <!-- Minnissale et al. (2020) -->
     <g transform="translate(264.824419 45.323782) scale(0.1 -0.1)">
      <defs>
       <path id="TeXGyreTermesX-Regular-6e" d="M 3104 32 
L 3104 128 
C 2790 160 2714 237 2714 550 
L 2714 2016 
C 2714 2618 2432 2976 1958 2976 
C 1664 2976 1466 2867 1030 2458 
L 1030 2963 
L 986 2976 
C 672 2861 454 2790 102 2688 
L 102 2579 
C 141 2598 205 2605 275 2605 
C 454 2605 512 2509 512 2195 
L 512 608 
C 512 243 442 154 115 128 
L 115 32 
L 1472 32 
L 1472 128 
C 1146 154 1050 230 1050 461 
L 1050 2259 
C 1357 2547 1498 2624 1709 2624 
C 2022 2624 2176 2426 2176 2003 
L 2176 666 
C 2176 262 2093 154 1773 128 
L 1773 32 
L 3104 32 
z
" transform="scale(0.015625)"/>
       <path id="TeXGyreTermesX-Regular-73" d="M 2227 757 
C 2227 1077 2080 1289 1690 1520 
L 998 1930 
C 819 2033 723 2194 723 2367 
C 723 2630 922 2803 1216 2803 
C 1581 2803 1773 2590 1920 2010 
L 2016 2010 
L 1990 2880 
L 1920 2880 
L 1907 2867 
C 1850 2822 1843 2816 1818 2816 
C 1779 2816 1715 2829 1645 2861 
C 1510 2915 1363 2944 1210 2944 
C 685 2944 326 2623 326 2154 
C 326 1796 531 1545 1075 1231 
L 1446 1020 
C 1670 892 1779 737 1779 539 
C 1779 256 1574 77 1248 77 
C 806 77 582 316 435 960 
L 333 960 
L 333 -39 
L 416 -39 
C 461 33 486 48 563 48 
C 634 48 704 35 858 -2 
C 1037 -39 1197 -64 1331 -64 
C 1818 -64 2227 308 2227 757 
z
" transform="scale(0.015625)"/>
      </defs>
      <use xlink:href="#TeXGyreTermesX-Regular-4d" transform="scale(0.996264)"/>
      <use xlink:href="#TeXGyreTermesX-Regular-69" transform="translate(88.567864 0) scale(0.996264)"/>
      <use xlink:href="#TeXGyreTermesX-Regular-6e" transform="translate(116.263992 0) scale(0.996264)"/>
      <use xlink:href="#TeXGyreTermesX-Regular-6e" transform="translate(166.077192 0) scale(0.996264)"/>
      <use xlink:href="#TeXGyreTermesX-Regular-69" transform="translate(215.890393 0) scale(0.996264)"/>
      <use xlink:href="#TeXGyreTermesX-Regular-73" transform="translate(243.58652 0) scale(0.996264)"/>
      <use xlink:href="#TeXGyreTermesX-Regular-73" transform="translate(282.341184 0) scale(0.996264)"/>
      <use xlink:href="#TeXGyreTermesX-Regular-61" transform="translate(321.095848 0) scale(0.996264)"/>
      <use xlink:href="#TeXGyreTermesX-Regular-6c" transform="translate(365.329994 0) scale(0.996264)"/>
      <use xlink:href="#TeXGyreTermesX-Regular-65" transform="translate(393.026122 0) scale(0.996264)"/>
      <use xlink:href="#TeXGyreTermesX-Regular-65" transform="translate(462.166868 0) scale(0.996264)"/>
      <use xlink:href="#TeXGyreTermesX-Regular-74" transform="translate(506.401015 0) scale(0.996264)"/>
      <use xlink:href="#TeXGyreTermesX-Regular-61" transform="translate(559.003742 0) scale(0.996264)"/>
      <use xlink:href="#TeXGyreTermesX-Regular-6c" transform="translate(603.237888 0) scale(0.996264)"/>
      <use xlink:href="#TeXGyreTermesX-Regular-2e" transform="translate(630.934016 0) scale(0.996264)"/>
      <use xlink:href="#TeXGyreTermesX-Regular-28" transform="translate(691.805753 0) scale(0.996264)"/>
      <use xlink:href="#TeXGyreTermesX-Regular-32" transform="translate(724.981363 0) scale(0.996264)"/>
      <use xlink:href="#TeXGyreTermesX-Regular-30" transform="translate(774.794563 0) scale(0.996264)"/>
      <use xlink:href="#TeXGyreTermesX-Regular-32" transform="translate(824.607764 0) scale(0.996264)"/>
      <use xlink:href="#TeXGyreTermesX-Regular-30" transform="translate(874.420964 0) scale(0.996264)"/>
      <use xlink:href="#TeXGyreTermesX-Regular-29" transform="translate(924.234165 0) scale(0.996264)"/>
     </g>
    </g>
   </g>
  </g>
 </g>
 <defs>
  <clipPath id="p2d621ff2c5">
   <rect x="28.586252" y="1" width="366.413748" height="259.037508"/>
  </clipPath>
 </defs>
</svg>
