<?xml version="1.0" encoding="utf-8" standalone="no"?>
<!DOCTYPE svg PUBLIC "-//W3C//DTD SVG 1.1//EN"
  "http://www.w3.org/Graphics/SVG/1.1/DTD/svg11.dtd">
<svg xmlns:xlink="http://www.w3.org/1999/xlink" width="408.209223pt" height="424.8pt" viewBox="0 0 408.209223 424.8" xmlns="http://www.w3.org/2000/svg" version="1.1">
 <metadata>
  <rdf:RDF xmlns:dc="http://purl.org/dc/elements/1.1/" xmlns:cc="http://creativecommons.org/ns#" xmlns:rdf="http://www.w3.org/1999/02/22-rdf-syntax-ns#">
   <cc:Work>
    <dc:type rdf:resource="http://purl.org/dc/dcmitype/StillImage"/>
    <dc:date>2025-02-04T09:00:45.767317</dc:date>
    <dc:format>image/svg+xml</dc:format>
    <dc:creator>
     <cc:Agent>
      <dc:title>Matplotlib v3.9.0, https://matplotlib.org/</dc:title>
     </cc:Agent>
    </dc:creator>
   </cc:Work>
  </rdf:RDF>
 </metadata>
 <defs>
  <style type="text/css">*{stroke-linejoin: round; stroke-linecap: butt}</style>
 </defs>
 <g id="figure_1">
  <g id="patch_1">
   <path d="M 0 424.8 
L 408.209223 424.8 
L 408.209223 0 
L 0 0 
z
" style="fill: #ffffff"/>
  </g>
  <g id="axes_1">
   <g id="patch_2">
    <path d="M 204.104611 26.600737 
L 73.677299 89.41122 
L 41.464413 230.545095 
L 131.722914 343.725675 
L 276.486309 343.725675 
L 366.74481 230.545095 
L 334.531924 89.41122 
z
" style="fill: #ffffff"/>
   </g>
   <g id="patch_3">
    <path d="M 204.104611 33.016999 
L 115.781832 122.988465 
L 172.82765 200.562293 
L 146.33063 313.392441 
L 218.024169 222.32779 
L 360.489417 229.117343 
L 229.186787 173.421164 
z
" clip-path="url(#pa66b533d55)" style="fill: #1b9e77; opacity: 0.2; stroke: #1b9e77; stroke-linejoin: miter"/>
   </g>
   <g id="patch_4">
    <path d="M 204.104611 161.342225 
L 179.022436 173.421164 
L 47.719805 229.117343 
L 190.185054 222.32779 
L 273.702398 337.944823 
L 360.489417 229.117343 
L 269.941746 140.920168 
z
" clip-path="url(#pa66b533d55)" style="fill: #d95f02; opacity: 0.2; stroke: #d95f02; stroke-linejoin: miter"/>
   </g>
   <g id="patch_5">
    <path d="M 204.104611 47.882002 
L 78.693734 93.411694 
L 122.873612 211.963977 
L 134.506825 337.944823 
L 273.519782 337.565619 
L 235.381573 200.562293 
L 329.515489 93.411694 
z
" clip-path="url(#pa66b533d55)" style="fill: #7570b3; opacity: 0.2; stroke: #7570b3; stroke-linejoin: miter"/>
   </g>
   <g id="matplotlib.axis_1">
    <g id="xtick_1">
     <g id="line2d_1">
      <path d="M 204.104611 193.423531 
L 204.104611 169.591703 
L 204.104611 145.759876 
L 204.104611 121.928048 
L 204.104611 98.09622 
L 204.104611 74.264393 
L 204.104611 50.432565 
L 204.104611 26.600737 
" clip-path="url(#pa66b533d55)" style="fill: none; stroke: #b0b0b0; stroke-width: 0.8; stroke-linecap: square"/>
     </g>
     <g id="text_1">
      <!-- $S_u$ -->
      <g transform="translate(198.113885 15.407214) scale(0.12 -0.12)">
       <defs>
        <path id="NewTXBMI-59" d="M 2995 1175 
C 2995 1734 2707 2157 1920 2754 
C 1523 3056 1427 3197 1427 3486 
C 1427 3903 1683 4160 2093 4160 
C 2605 4160 2854 3843 2938 3086 
L 3110 3060 
L 3366 4358 
L 3174 4358 
C 3117 4243 3027 4192 2893 4192 
C 2829 4192 2733 4211 2566 4262 
C 2298 4352 2125 4384 1939 4384 
C 1210 4384 653 3844 653 3138 
C 653 2966 685 2824 736 2715 
C 877 2445 1133 2163 1498 1880 
C 2003 1495 2221 1200 2221 898 
C 2221 757 2176 597 2099 462 
C 1952 211 1734 89 1414 89 
C 1082 89 800 241 634 501 
C 506 697 454 893 429 1280 
L 243 1280 
L 13 -128 
L 205 -128 
C 282 51 326 89 448 89 
C 512 89 595 71 742 20 
C 1056 -84 1274 -128 1530 -128 
C 2426 -128 2995 379 2995 1175 
z
" transform="scale(0.015625)"/>
        <path id="NewTXBMI-75" d="M 3149 757 
L 3014 840 
C 2790 499 2662 372 2554 372 
C 2502 372 2464 416 2464 481 
C 2464 558 2534 866 2624 1156 
L 3123 2880 
L 2368 2880 
C 2010 1638 1830 1214 1459 751 
C 1261 507 1120 397 992 397 
C 902 397 858 448 858 558 
C 858 654 864 693 954 983 
L 1555 2963 
C 1517 2954 1472 2947 1376 2923 
C 902 2818 525 2752 218 2752 
L 218 2560 
C 512 2560 576 2528 576 2401 
C 576 2299 544 2121 486 1937 
L 230 1092 
C 141 775 96 565 96 406 
C 96 95 256 -64 576 -64 
C 1005 -64 1197 102 1856 1017 
C 1741 667 1702 502 1702 318 
C 1702 57 1837 -64 2118 -64 
C 2502 -64 2816 191 3149 757 
z
" transform="scale(0.015625)"/>
       </defs>
       <use xlink:href="#NewTXBMI-59" transform="scale(0.996264)"/>
       <use xlink:href="#NewTXBMI-75" transform="translate(59.218908 -14.943915) scale(0.727268)"/>
      </g>
     </g>
    </g>
    <g id="xtick_2">
     <g id="line2d_2">
      <path d="M 204.104611 193.423531 
L 185.472138 178.56463 
L 166.839665 163.705728 
L 148.207192 148.846827 
L 129.574719 133.987925 
L 110.942246 119.129023 
L 92.309772 104.270122 
L 73.677299 89.41122 
" clip-path="url(#pa66b533d55)" style="fill: none; stroke: #b0b0b0; stroke-width: 0.8; stroke-linecap: square"/>
     </g>
     <g id="text_2">
      <!-- $\varepsilon_u$ -->
      <g transform="translate(56.974052 83.48884) scale(0.12 -0.12)">
       <defs>
        <path id="NewTXBMI-39" d="M 3264 2330 
C 3264 2829 2394 2944 2022 2944 
C 1491 2944 634 2715 634 2040 
C 634 1759 851 1628 1088 1543 
C 659 1485 109 1219 109 724 
C 109 70 896 -64 1402 -64 
C 1907 -64 2515 86 2854 495 
C 2938 592 3008 715 3008 844 
C 3008 1000 2874 1117 2726 1117 
C 2298 1117 2291 135 1472 135 
C 1114 135 973 338 973 673 
C 973 1021 1197 1344 1574 1344 
C 1760 1344 1939 1274 2131 1274 
C 2298 1274 2362 1370 2362 1530 
C 2362 1677 2272 1728 2138 1728 
C 2029 1728 1926 1671 1818 1671 
C 1632 1671 1414 1730 1414 1961 
C 1414 2337 1587 2739 2010 2739 
C 2618 2739 2496 2029 2976 2029 
C 3174 2029 3264 2138 3264 2330 
z
" transform="scale(0.015625)"/>
       </defs>
       <use xlink:href="#NewTXBMI-39" transform="scale(0.996264)"/>
       <use xlink:href="#NewTXBMI-75" transform="translate(55.333515 -14.943915) scale(0.727268)"/>
      </g>
     </g>
    </g>
    <g id="xtick_3">
     <g id="line2d_3">
      <path d="M 204.104611 193.423531 
L 180.870297 198.726612 
L 157.635983 204.029692 
L 134.401669 209.332773 
L 111.167355 214.635853 
L 87.933041 219.938934 
L 64.698727 225.242015 
L 41.464413 230.545095 
" clip-path="url(#pa66b533d55)" style="fill: none; stroke: #b0b0b0; stroke-width: 0.8; stroke-linecap: square"/>
     </g>
     <g id="text_3">
      <!-- $k$ -->
      <g transform="translate(24.82663 236.466865) scale(0.12 -0.12)">
       <defs>
        <path id="NewTXBMI-6b" d="M 2861 728 
L 2720 799 
C 2547 493 2445 390 2323 390 
C 2144 390 2074 613 1824 1858 
L 2227 2209 
C 2662 2578 2797 2655 3091 2694 
L 3091 2855 
L 1766 2855 
L 1766 2688 
C 2016 2688 2093 2656 2093 2553 
C 2093 2386 1850 2148 1043 1513 
L 1830 4461 
C 1338 4371 998 4320 499 4269 
L 499 4096 
L 634 4096 
C 819 4096 902 4026 902 3879 
C 902 3815 890 3751 851 3611 
L -147 -13 
L 634 -13 
L 954 1187 
L 1203 1360 
C 1408 274 1594 -64 1990 -64 
C 2310 -64 2541 141 2861 728 
z
" transform="scale(0.015625)"/>
       </defs>
       <use xlink:href="#NewTXBMI-6b" transform="scale(0.996264)"/>
      </g>
     </g>
    </g>
    <g id="xtick_4">
     <g id="line2d_4">
      <path d="M 204.104611 193.423531 
L 193.764369 214.895266 
L 183.424126 236.367001 
L 173.083884 257.838736 
L 162.743641 279.31047 
L 152.403399 300.782205 
L 142.063156 322.25394 
L 131.722914 343.725675 
" clip-path="url(#pa66b533d55)" style="fill: none; stroke: #b0b0b0; stroke-width: 0.8; stroke-linecap: square"/>
     </g>
     <g id="text_4">
      <!-- $\overline{k}$ -->
      <g transform="translate(121.912551 359.289175) scale(0.12 -0.12)">
       <use xlink:href="#NewTXBMI-6b" transform="translate(6.077186 0) scale(0.996264)"/>
       <path d="M 0 86.326164 
L 62.266501 86.326164 
L 62.266501 91.905218 
L 0 91.905218 
L 0 86.326164 
z
"/>
      </g>
     </g>
    </g>
    <g id="xtick_5">
     <g id="line2d_5">
      <path d="M 204.104611 193.423531 
L 214.444854 214.895266 
L 224.785096 236.367001 
L 235.125339 257.838736 
L 245.465581 279.31047 
L 255.805824 300.782205 
L 266.146067 322.25394 
L 276.486309 343.725675 
" clip-path="url(#pa66b533d55)" style="fill: none; stroke: #b0b0b0; stroke-width: 0.8; stroke-linecap: square"/>
     </g>
     <g id="text_5">
      <!-- $\overline{t}$ -->
      <g transform="translate(280.366912 359.145716) scale(0.12 -0.12)">
       <defs>
        <path id="NewTXBMI-74" d="M 1440 837 
L 1299 926 
C 1082 588 915 415 813 415 
C 762 415 710 460 710 511 
C 710 632 826 1073 1056 1864 
L 1267 2624 
L 1798 2624 
L 1798 2893 
L 1338 2893 
L 1587 3808 
L 1363 3808 
C 1018 3303 698 3037 192 2848 
L 192 2624 
L 518 2624 
L 83 1105 
C -13 773 -70 499 -70 383 
C -70 135 109 -32 378 -32 
C 762 -32 1018 180 1440 837 
z
" transform="scale(0.015625)"/>
       </defs>
       <use xlink:href="#NewTXBMI-74" transform="translate(4.58276 0) scale(0.996264)"/>
       <path d="M 0 76.562819 
L 36.562841 76.562819 
L 36.562841 82.141873 
L 0 82.141873 
L 0 76.562819 
z
"/>
      </g>
     </g>
    </g>
    <g id="xtick_6">
     <g id="line2d_6">
      <path d="M 204.104611 193.423531 
L 227.338925 198.726612 
L 250.573239 204.029692 
L 273.807554 209.332773 
L 297.041868 214.635853 
L 320.276182 219.938934 
L 343.510496 225.242015 
L 366.74481 230.545095 
" clip-path="url(#pa66b533d55)" style="fill: none; stroke: #b0b0b0; stroke-width: 0.8; stroke-linecap: square"/>
     </g>
     <g id="text_6">
      <!-- $\Delta_{rx} S_u$ -->
      <g transform="translate(365.511635 236.466865) scale(0.12 -0.12)">
       <defs>
        <path id="txbmiaX-1" d="M 3859 0 
L 2048 4320 
L 1965 4320 
L 154 0 
L 3859 0 
z
M 2733 224 
L 499 224 
L 1619 2895 
L 2733 224 
z
" transform="scale(0.015625)"/>
        <path id="NewTXBMI-72" d="M 2490 2515 
C 2490 2771 2342 2938 2125 2938 
C 1798 2938 1536 2617 1030 1597 
L 1453 2938 
C 1069 2842 947 2823 173 2759 
L 173 2579 
C 461 2579 518 2553 518 2431 
C 518 2270 320 1515 -134 -32 
L 640 -32 
L 851 638 
C 1043 1261 1139 1507 1312 1802 
C 1485 2111 1638 2291 1728 2291 
C 1754 2291 1792 2266 1830 2208 
C 1926 2099 2010 2048 2118 2048 
C 2330 2048 2490 2247 2490 2515 
z
" transform="scale(0.015625)"/>
        <path id="NewTXBMI-78" d="M 2694 717 
L 2560 806 
C 2310 486 2246 429 2131 429 
C 2010 429 1946 518 1894 767 
L 1690 1762 
C 1709 1788 1715 1801 1747 1845 
C 1978 2216 2131 2368 2278 2368 
C 2317 2368 2362 2349 2438 2311 
C 2528 2253 2573 2240 2643 2240 
C 2835 2240 3002 2394 3002 2579 
C 3002 2784 2829 2970 2630 2970 
C 2330 2970 2125 2797 1619 2087 
C 1504 2631 1453 2791 1331 2970 
L 262 2816 
L 262 2643 
C 384 2656 429 2656 486 2656 
C 691 2656 781 2541 845 2228 
L 1037 1246 
L 755 799 
C 627 589 563 537 448 537 
C 410 537 378 550 314 589 
C 211 646 141 672 58 672 
C -141 672 -294 518 -294 313 
C -294 89 -128 -64 115 -64 
C 435 -64 576 64 954 677 
L 1107 927 
C 1248 192 1408 -64 1728 -64 
C 2035 -64 2304 153 2694 717 
z
" transform="scale(0.015625)"/>
       </defs>
       <use xlink:href="#txbmiaX-1" transform="scale(0.996264)"/>
       <use xlink:href="#NewTXBMI-72" transform="translate(66.392964 -14.943915) scale(0.727268)"/>
       <use xlink:href="#NewTXBMI-78" transform="translate(99.992764 -14.943915) scale(0.727268)"/>
       <use xlink:href="#NewTXBMI-59" transform="translate(144.184741 0) scale(0.996264)"/>
       <use xlink:href="#NewTXBMI-75" transform="translate(203.403649 -14.943915) scale(0.727268)"/>
      </g>
     </g>
    </g>
    <g id="xtick_7">
     <g id="line2d_7">
      <path d="M 204.104611 193.423531 
L 222.737085 178.56463 
L 241.369558 163.705728 
L 260.002031 148.846827 
L 278.634504 133.987925 
L 297.266977 119.129023 
L 315.899451 104.270122 
L 334.531924 89.41122 
" clip-path="url(#pa66b533d55)" style="fill: none; stroke: #b0b0b0; stroke-width: 0.8; stroke-linecap: square"/>
     </g>
     <g id="text_7">
      <!-- $\Delta_{rx} \varepsilon_{tr}$ -->
      <g transform="translate(329.974939 83.48884) scale(0.12 -0.12)">
       <use xlink:href="#txbmiaX-1" transform="scale(0.996264)"/>
       <use xlink:href="#NewTXBMI-72" transform="translate(66.392964 -14.943915) scale(0.727268)"/>
       <use xlink:href="#NewTXBMI-78" transform="translate(99.992764 -14.943915) scale(0.727268)"/>
       <use xlink:href="#NewTXBMI-39" transform="translate(141.096316 0) scale(0.996264)"/>
       <use xlink:href="#NewTXBMI-74" transform="translate(198.538865 -14.943915) scale(0.727268)"/>
       <use xlink:href="#NewTXBMI-72" transform="translate(225.81141 -14.943915) scale(0.727268)"/>
      </g>
     </g>
    </g>
   </g>
   <g id="matplotlib.axis_2">
    <g id="ytick_1">
     <g id="line2d_8">
      <path d="M 204.104611 161.342225 
L 179.022436 173.421164 
L 172.82765 200.562293 
L 190.185054 222.32779 
L 218.024169 222.32779 
L 235.381573 200.562293 
L 229.186787 173.421164 
L 204.104611 161.342225 
" clip-path="url(#pa66b533d55)" style="fill: none; stroke: #b0b0b0; stroke-width: 0.8; stroke-linecap: square"/>
     </g>
    </g>
    <g id="ytick_2">
     <g id="line2d_9">
      <path d="M 204.104611 129.260918 
L 153.940261 153.418796 
L 141.550689 207.701056 
L 176.265497 251.232048 
L 231.943726 251.232048 
L 266.658534 207.701056 
L 254.268962 153.418796 
L 204.104611 129.260918 
" clip-path="url(#pa66b533d55)" style="fill: none; stroke: #b0b0b0; stroke-width: 0.8; stroke-linecap: square"/>
     </g>
    </g>
    <g id="ytick_3">
     <g id="line2d_10">
      <path d="M 204.104611 97.179612 
L 128.858085 133.416429 
L 110.273728 214.839818 
L 162.34594 280.136306 
L 245.863283 280.136306 
L 297.935495 214.839818 
L 279.351138 133.416429 
L 204.104611 97.179612 
" clip-path="url(#pa66b533d55)" style="fill: none; stroke: #b0b0b0; stroke-width: 0.8; stroke-linecap: square"/>
     </g>
    </g>
    <g id="ytick_4">
     <g id="line2d_11">
      <path d="M 204.104611 65.098305 
L 103.77591 113.414061 
L 78.996767 221.97858 
L 148.426383 309.040565 
L 259.78284 309.040565 
L 329.212456 221.97858 
L 304.433313 113.414061 
L 204.104611 65.098305 
" clip-path="url(#pa66b533d55)" style="fill: none; stroke: #b0b0b0; stroke-width: 0.8; stroke-linecap: square"/>
     </g>
    </g>
    <g id="ytick_5">
     <g id="line2d_12">
      <path d="M 204.104611 33.016999 
L 78.693734 93.411694 
L 47.719805 229.117343 
L 134.506825 337.944823 
L 273.702398 337.944823 
L 360.489417 229.117343 
L 329.515489 93.411694 
L 204.104611 33.016999 
" clip-path="url(#pa66b533d55)" style="fill: none; stroke: #b0b0b0; stroke-width: 0.8; stroke-linecap: square"/>
     </g>
    </g>
   </g>
   <g id="line2d_13">
    <path d="M 204.104611 33.016999 
L 115.781832 122.988465 
L 172.82765 200.562293 
L 146.33063 313.392441 
L 218.024169 222.32779 
L 360.489417 229.117343 
L 229.186787 173.421164 
L 204.104611 33.016999 
" clip-path="url(#pa66b533d55)" style="fill: none; stroke: #1b9e77; stroke-width: 1.5; stroke-linecap: square"/>
   </g>
   <g id="line2d_14">
    <path d="M 204.104611 161.342225 
L 179.022436 173.421164 
L 47.719805 229.117343 
L 190.185054 222.32779 
L 273.702398 337.944823 
L 360.489417 229.117343 
L 269.941746 140.920168 
L 204.104611 161.342225 
" clip-path="url(#pa66b533d55)" style="fill: none; stroke: #d95f02; stroke-width: 1.5; stroke-linecap: square"/>
   </g>
   <g id="line2d_15">
    <path d="M 204.104611 47.882002 
L 78.693734 93.411694 
L 122.873612 211.963977 
L 134.506825 337.944823 
L 273.519782 337.565619 
L 235.381573 200.562293 
L 329.515489 93.411694 
L 204.104611 47.882002 
" clip-path="url(#pa66b533d55)" style="fill: none; stroke: #7570b3; stroke-width: 1.5; stroke-linecap: square"/>
   </g>
   <g id="patch_6">
    <path d="M 204.104611 26.600737 
L 73.677299 89.41122 
L 41.464413 230.545095 
L 131.722914 343.725675 
L 276.486309 343.725675 
L 366.74481 230.545095 
L 334.531924 89.41122 
L 204.104611 26.600737 
z
" style="fill: none; stroke: #000000; stroke-width: 0.8; stroke-linejoin: miter; stroke-linecap: square"/>
   </g>
  </g>
  <g id="axes_2">
   <g id="legend_1">
    <g id="patch_7">
     <path d="M 9.6 407.044281 
L 398.609223 407.044281 
Q 401.009223 407.044281 401.009223 404.644281 
L 401.009223 388.850021 
Q 401.009223 386.450021 398.609223 386.450021 
L 9.6 386.450021 
Q 7.2 386.450021 7.2 388.850021 
L 7.2 404.644281 
Q 7.2 407.044281 9.6 407.044281 
z
" style="fill: #ffffff; opacity: 0.8; stroke: #cccccc; stroke-linejoin: miter"/>
    </g>
    <g id="patch_8">
     <path d="M 12 399.650021 
L 36 399.650021 
L 36 391.250021 
L 12 391.250021 
z
" style="fill: #1b9e77; opacity: 0.4; stroke: #1b9e77; stroke-width: 1.5; stroke-linejoin: miter"/>
    </g>
    <g id="text_8">
     <!-- \textbf{K-W3\%Re Plate (H)} -->
     <g transform="translate(45.6 399.650021) scale(0.12 -0.12)">
      <defs>
       <path id="TeXGyreTermesX-Bold-4b" d="M 4922 0 
L 4922 159 
C 4762 159 4691 191 4608 287 
L 2656 2690 
C 3859 3920 4090 4078 4710 4129 
L 4710 4288 
L 2861 4288 
L 2861 4123 
C 2970 4123 3059 4117 3091 4110 
C 3322 4097 3405 4047 3405 3920 
C 3405 3819 3373 3768 3174 3572 
L 1786 2189 
L 1786 3564 
C 1786 4021 1882 4123 2355 4123 
L 2355 4288 
L 192 4288 
L 192 4123 
C 634 4123 749 4027 749 3696 
L 749 612 
C 749 286 653 210 192 159 
L 192 0 
L 2349 0 
L 2349 159 
C 1888 216 1786 299 1786 610 
L 1786 1852 
L 1958 2011 
L 3123 556 
C 3245 403 3277 345 3277 275 
C 3277 191 3187 159 2976 159 
C 2944 159 2861 159 2771 159 
L 2771 0 
L 4922 0 
z
" transform="scale(0.015625)"/>
       <path id="TeXGyreTermesX-Bold-2d" d="M 1837 1088 
L 1837 1825 
L 282 1825 
L 282 1088 
L 1837 1088 
z
" transform="scale(0.015625)"/>
       <path id="TeXGyreTermesX-Bold-57" d="M 6278 4173 
L 6278 4331 
L 5114 4331 
L 5114 4160 
C 5459 4160 5555 4097 5555 3898 
C 5555 3816 5542 3720 5510 3631 
L 4794 1444 
L 4102 3591 
C 4038 3795 4013 3892 4013 3949 
C 4013 4103 4109 4160 4390 4160 
C 4390 4160 4435 4160 4474 4173 
L 4474 4331 
L 2477 4331 
L 2477 4160 
C 2739 4160 2867 4102 2938 3950 
L 3162 3339 
L 2406 1380 
L 1638 3696 
C 1606 3798 1594 3849 1594 3906 
C 1594 4091 1670 4148 2003 4173 
L 2003 4331 
L 122 4331 
L 122 4173 
C 390 4135 454 4078 563 3766 
L 1920 -64 
L 2099 -64 
L 3290 2970 
L 4384 -64 
L 4557 -64 
L 5837 3766 
C 5920 4021 6067 4154 6278 4173 
z
" transform="scale(0.015625)"/>
       <path id="TeXGyreTermesX-Bold-33" d="M 2995 1596 
C 2995 1889 2899 2164 2714 2387 
C 2579 2540 2470 2617 2214 2732 
C 2624 2981 2746 3165 2746 3541 
C 2746 4090 2355 4416 1702 4416 
C 1069 4416 589 4097 237 3440 
L 371 3364 
C 614 3753 826 3900 1158 3900 
C 1562 3900 1811 3645 1811 3242 
C 1811 2822 1587 2598 979 2406 
L 979 2297 
C 1510 2112 1722 2004 1952 1786 
C 2150 1601 2266 1314 2266 1007 
C 2266 548 2022 254 1638 254 
C 1485 254 1363 324 1152 528 
C 902 778 710 880 518 880 
C 275 880 102 728 102 510 
C 102 166 493 -64 1082 -64 
C 2150 -64 2995 664 2995 1596 
z
" transform="scale(0.015625)"/>
       <path id="TeXGyreTermesX-Bold-25" d="M 6029 1154 
C 6029 1792 5619 2372 5011 2372 
C 4371 2372 3910 1792 3910 1142 
C 3910 492 4378 -64 5011 -64 
C 5619 -64 6029 517 6029 1154 
z
M 4128 4416 
L 3859 4416 
C 3565 4098 3258 3968 2822 3968 
C 2547 3968 2362 4010 2150 4110 
C 1990 4234 1798 4305 1574 4305 
C 934 4305 474 3728 474 3082 
C 474 2435 941 1884 1574 1884 
C 2182 1884 2592 2466 2592 3105 
C 2592 3340 2534 3567 2438 3764 
C 2560 3739 2682 3726 2810 3726 
C 3066 3726 3315 3784 3578 3898 
L 2381 -64 
L 2765 -64 
L 4128 4416 
z
M 5850 1141 
C 5850 726 5626 229 5254 229 
C 4858 229 4685 688 4685 1141 
C 4685 1589 4858 2048 5254 2048 
C 5626 2048 5850 1551 5850 1141 
z
M 2413 3076 
C 2413 2666 2189 2176 1818 2176 
C 1421 2176 1248 2634 1248 3085 
C 1248 3517 1414 3968 1792 3968 
C 1907 3900 2035 3844 2157 3801 
C 2323 3621 2413 3329 2413 3076 
z
" transform="scale(0.015625)"/>
       <path id="TeXGyreTermesX-Bold-52" d="M 4576 0 
L 4576 159 
C 4461 159 4378 197 4314 280 
L 3027 2086 
C 3405 2207 3565 2290 3744 2448 
C 3930 2620 4032 2873 4032 3159 
C 4032 3889 3398 4288 2227 4288 
L 166 4288 
L 166 4110 
C 640 4110 730 4015 730 3557 
L 730 744 
C 730 280 666 216 166 159 
L 166 0 
L 2330 0 
L 2330 159 
C 1830 223 1766 292 1766 742 
L 1766 1984 
L 1939 1984 
L 3264 0 
L 4576 0 
z
M 2938 3130 
C 2938 2723 2842 2474 2637 2340 
C 2470 2232 2253 2187 1766 2187 
L 1766 3805 
C 1766 3843 1792 3938 1811 3977 
C 1850 4040 1952 4072 2112 4072 
C 2701 4072 2938 3799 2938 3130 
z
" transform="scale(0.015625)"/>
       <path id="TeXGyreTermesX-Bold-65" d="M 2726 736 
L 2573 826 
C 2310 510 2118 394 1843 394 
C 1600 394 1408 504 1280 723 
C 1158 930 1107 1149 1082 1600 
L 2694 1600 
C 2656 2115 2560 2400 2362 2642 
C 2157 2883 1856 3013 1498 3013 
C 698 3013 160 2388 160 1465 
C 160 543 685 -64 1478 -64 
C 1997 -64 2310 134 2726 736 
z
M 1907 1835 
L 1050 1835 
C 1069 2571 1184 2816 1498 2816 
C 1683 2816 1798 2718 1850 2528 
C 1882 2411 1894 2240 1907 1928 
L 1907 1835 
z
" transform="scale(0.015625)"/>
       <path id="TeXGyreTermesX-Bold-50" d="M 3840 3130 
C 3840 3868 3232 4288 2163 4288 
L 102 4288 
L 102 4129 
C 550 4091 640 3989 640 3545 
L 640 742 
C 640 349 557 222 256 183 
C 237 183 173 171 102 158 
L 102 0 
L 2240 0 
L 2240 158 
C 1734 222 1677 279 1677 741 
L 1677 1920 
C 2541 1920 2758 1939 3040 2054 
C 3558 2251 3840 2640 3840 3130 
z
M 2739 3101 
C 2739 2701 2662 2460 2496 2314 
C 2342 2187 2131 2143 1677 2143 
L 1677 3843 
C 1677 3989 1786 4066 1997 4066 
C 2528 4066 2739 3787 2739 3101 
z
" transform="scale(0.015625)"/>
       <path id="TeXGyreTermesX-Bold-6c" d="M 1632 0 
L 1632 153 
C 1421 153 1318 274 1318 528 
L 1318 4288 
L 102 4288 
L 102 4136 
C 326 4117 429 4002 429 3768 
L 429 533 
C 429 299 320 172 102 153 
L 102 0 
L 1632 0 
z
" transform="scale(0.015625)"/>
       <path id="TeXGyreTermesX-Bold-61" d="M 3123 297 
L 3027 430 
L 2963 366 
C 2944 347 2925 341 2893 341 
C 2803 341 2758 392 2758 499 
L 2758 2152 
C 2758 2689 2272 3019 1491 3019 
C 768 3019 282 2696 282 2221 
C 282 1955 435 1803 698 1803 
C 954 1803 1133 1955 1133 2170 
C 1133 2259 1101 2341 1018 2442 
C 960 2506 941 2543 941 2581 
C 941 2714 1114 2816 1344 2816 
C 1722 2816 1882 2645 1882 2259 
L 1882 1797 
C 1133 1569 832 1455 589 1296 
C 301 1107 160 885 160 607 
C 160 221 454 -64 864 -64 
C 1235 -64 1530 63 1882 380 
C 1952 57 2093 -64 2406 -64 
C 2682 -64 2880 38 3123 297 
z
M 1875 658 
C 1702 462 1574 386 1421 386 
C 1229 386 1094 556 1094 810 
C 1094 1176 1363 1436 1875 1575 
L 1875 658 
z
" transform="scale(0.015625)"/>
       <path id="TeXGyreTermesX-Bold-74" d="M 2125 648 
L 1965 718 
C 1837 476 1734 387 1600 387 
C 1421 387 1350 495 1350 750 
L 1350 2664 
L 1952 2664 
L 1952 2944 
L 1350 2944 
L 1350 4032 
L 1190 4032 
C 800 3479 544 3190 128 2836 
L 128 2664 
L 461 2664 
L 461 603 
C 461 190 736 -64 1178 -64 
C 1606 -64 1862 126 2125 648 
z
" transform="scale(0.015625)"/>
       <path id="TeXGyreTermesX-Bold-28" d="M 1958 -1068 
L 1958 -890 
C 1594 -661 1434 -496 1299 -210 
C 1107 184 1018 770 1018 1641 
C 1018 2518 1107 3161 1286 3542 
C 1421 3822 1574 3988 1958 4242 
L 1958 4414 
C 1562 4204 1382 4070 1133 3810 
C 589 3224 294 2468 294 1647 
C 294 1068 454 502 762 19 
C 1056 -439 1331 -693 1958 -1068 
z
" transform="scale(0.015625)"/>
       <path id="TeXGyreTermesX-Bold-48" d="M 4858 -32 
L 4858 128 
C 4397 185 4294 269 4294 582 
L 4294 3675 
C 4294 3994 4422 4096 4858 4128 
L 4858 4288 
L 2682 4288 
L 2682 4128 
C 3130 4096 3258 3994 3258 3674 
L 3258 2347 
L 1715 2347 
L 1715 3674 
C 1715 3994 1843 4096 2291 4128 
L 2291 4288 
L 134 4288 
L 134 4128 
C 563 4090 678 3994 678 3675 
L 678 582 
C 678 269 582 185 134 128 
L 134 -32 
L 2291 -32 
L 2291 128 
C 1824 179 1715 268 1715 581 
L 1715 2048 
L 3258 2048 
L 3258 581 
C 3258 268 3149 179 2682 128 
L 2682 -32 
L 4858 -32 
z
" transform="scale(0.015625)"/>
       <path id="TeXGyreTermesX-Bold-29" d="M 1837 1692 
C 1837 2277 1677 2843 1370 3326 
C 1075 3784 800 4038 173 4414 
L 173 4236 
C 538 4000 698 3841 832 3555 
C 1024 3161 1114 2569 1114 1704 
C 1114 827 1024 184 845 -197 
C 717 -477 557 -642 173 -897 
L 173 -1068 
C 570 -859 749 -725 992 -464 
C 1542 121 1837 878 1837 1692 
z
" transform="scale(0.015625)"/>
      </defs>
      <use xlink:href="#TeXGyreTermesX-Bold-4b" transform="scale(0.996264)"/>
      <use xlink:href="#TeXGyreTermesX-Bold-2d" transform="translate(73.026125 0) scale(0.996264)"/>
      <use xlink:href="#TeXGyreTermesX-Bold-57" transform="translate(100.722252 0) scale(0.996264)"/>
      <use xlink:href="#TeXGyreTermesX-Bold-33" transform="translate(200.348653 0) scale(0.996264)"/>
      <use xlink:href="#TeXGyreTermesX-Bold-25" transform="translate(250.161853 0) scale(0.996264)"/>
      <use xlink:href="#TeXGyreTermesX-Bold-52" transform="translate(349.788254 0) scale(0.996264)"/>
      <use xlink:href="#TeXGyreTermesX-Bold-65" transform="translate(419.725954 0) scale(0.996264)"/>
      <use xlink:href="#TeXGyreTermesX-Bold-50" transform="translate(488.866701 0) scale(0.996264)"/>
      <use xlink:href="#TeXGyreTermesX-Bold-6c" transform="translate(549.738438 0) scale(0.996264)"/>
      <use xlink:href="#TeXGyreTermesX-Bold-61" transform="translate(577.434565 0) scale(0.996264)"/>
      <use xlink:href="#TeXGyreTermesX-Bold-74" transform="translate(627.247766 0) scale(0.996264)"/>
      <use xlink:href="#TeXGyreTermesX-Bold-65" transform="translate(660.423376 0) scale(0.996264)"/>
      <use xlink:href="#TeXGyreTermesX-Bold-28" transform="translate(729.564122 0) scale(0.996264)"/>
      <use xlink:href="#TeXGyreTermesX-Bold-48" transform="translate(762.739732 0) scale(0.996264)"/>
      <use xlink:href="#TeXGyreTermesX-Bold-29" transform="translate(840.24906 0) scale(0.996264)"/>
     </g>
    </g>
    <g id="patch_9">
     <path d="M 174.410954 399.650021 
L 198.410954 399.650021 
L 198.410954 391.250021 
L 174.410954 391.250021 
z
" style="fill: #d95f02; opacity: 0.4; stroke: #d95f02; stroke-width: 1.5; stroke-linejoin: miter"/>
    </g>
    <g id="text_9">
     <!-- \textbf{W Plate (H)} -->
     <g transform="translate(208.010954 399.650021) scale(0.12 -0.12)">
      <use xlink:href="#TeXGyreTermesX-Bold-57" transform="scale(0.996264)"/>
      <use xlink:href="#TeXGyreTermesX-Bold-50" transform="translate(124.533001 0) scale(0.996264)"/>
      <use xlink:href="#TeXGyreTermesX-Bold-6c" transform="translate(185.404738 0) scale(0.996264)"/>
      <use xlink:href="#TeXGyreTermesX-Bold-61" transform="translate(213.100866 0) scale(0.996264)"/>
      <use xlink:href="#TeXGyreTermesX-Bold-74" transform="translate(262.914066 0) scale(0.996264)"/>
      <use xlink:href="#TeXGyreTermesX-Bold-65" transform="translate(296.089676 0) scale(0.996264)"/>
      <use xlink:href="#TeXGyreTermesX-Bold-28" transform="translate(365.230423 0) scale(0.996264)"/>
      <use xlink:href="#TeXGyreTermesX-Bold-48" transform="translate(398.406032 0) scale(0.996264)"/>
      <use xlink:href="#TeXGyreTermesX-Bold-29" transform="translate(475.91536 0) scale(0.996264)"/>
     </g>
    </g>
    <g id="patch_10">
     <path d="M 293.10187 399.650021 
L 317.10187 399.650021 
L 317.10187 391.250021 
L 293.10187 391.250021 
z
" style="fill: #7570b3; opacity: 0.4; stroke: #7570b3; stroke-width: 1.5; stroke-linejoin: miter"/>
    </g>
    <g id="text_10">
     <!-- \textbf{New Material} -->
     <g transform="translate(326.70187 399.650021) scale(0.12 -0.12)">
      <defs>
       <path id="TeXGyreTermesX-Bold-4e" d="M 4486 4160 
L 4486 4319 
L 3110 4319 
L 3110 4160 
C 3584 4116 3706 3982 3706 3531 
L 3706 1590 
L 1472 4319 
L 122 4319 
L 122 4160 
C 250 4160 358 4065 666 3702 
L 666 686 
C 666 323 570 234 102 177 
L 102 18 
L 1555 18 
L 1555 177 
C 1062 234 947 355 947 807 
L 947 3365 
L 3808 -96 
L 3987 -96 
L 3987 3651 
C 3987 4014 4070 4097 4486 4160 
z
" transform="scale(0.015625)"/>
       <path id="TeXGyreTermesX-Bold-77" d="M 4525 2792 
L 4525 2944 
L 3661 2944 
L 3661 2792 
C 3898 2767 3968 2716 3968 2571 
C 3968 2494 3885 2260 3686 1760 
L 3462 1165 
L 3245 1969 
C 3117 2406 3072 2583 3072 2641 
C 3072 2741 3136 2773 3379 2792 
L 3379 2944 
L 1882 2944 
L 1882 2792 
C 2131 2767 2138 2760 2259 2343 
L 2298 2222 
L 1862 1139 
L 1709 1544 
C 1651 1678 1606 1798 1574 1887 
C 1395 2330 1325 2532 1325 2615 
C 1325 2716 1389 2767 1568 2792 
L 1568 2944 
L 147 2944 
L 147 2792 
C 314 2760 339 2722 512 2305 
L 1459 -64 
L 1613 -64 
L 2413 1899 
L 3066 -64 
L 3213 -64 
L 4205 2475 
C 4307 2710 4358 2760 4525 2792 
z
" transform="scale(0.015625)"/>
       <path id="TeXGyreTermesX-Bold-4d" d="M 5894 -32 
L 5894 127 
C 5395 191 5331 262 5331 715 
L 5331 3540 
C 5331 4001 5427 4096 5894 4096 
L 5894 4274 
L 4282 4274 
L 3002 1268 
L 1722 4274 
L 102 4274 
L 102 4115 
C 570 4077 672 3994 672 3663 
L 672 637 
C 672 254 589 178 90 127 
L 90 -32 
L 1587 -32 
L 1587 127 
C 1062 165 941 286 941 758 
L 941 3752 
L 2554 -32 
L 2726 -32 
L 4339 3848 
L 4339 605 
C 4339 248 4250 172 3770 127 
L 3770 -32 
L 5894 -32 
z
" transform="scale(0.015625)"/>
       <path id="TeXGyreTermesX-Bold-72" d="M 2778 2512 
C 2778 2798 2560 3008 2259 3008 
C 1939 3008 1696 2836 1395 2410 
L 1395 2932 
L 186 2932 
L 186 2779 
C 461 2741 531 2658 531 2404 
L 531 533 
C 531 272 467 203 186 152 
L 186 0 
L 1888 0 
L 1888 165 
C 1498 165 1421 248 1421 645 
L 1421 1854 
C 1421 2186 1600 2461 1811 2461 
C 1862 2461 1920 2417 1990 2315 
C 2112 2143 2208 2086 2374 2086 
C 2611 2086 2778 2264 2778 2512 
z
" transform="scale(0.015625)"/>
       <path id="TeXGyreTermesX-Bold-69" d="M 1632 -32 
L 1632 121 
C 1408 152 1331 241 1331 484 
L 1331 2908 
L 102 2908 
L 102 2755 
C 384 2698 442 2641 442 2379 
L 442 503 
C 442 241 397 191 102 121 
L 102 -32 
L 1632 -32 
z
M 1370 3882 
C 1370 4162 1152 4372 877 4372 
C 602 4372 384 4162 384 3882 
C 384 3602 602 3392 877 3392 
C 1152 3392 1370 3602 1370 3882 
z
" transform="scale(0.015625)"/>
      </defs>
      <use xlink:href="#TeXGyreTermesX-Bold-4e" transform="scale(0.996264)"/>
      <use xlink:href="#TeXGyreTermesX-Bold-65" transform="translate(70.435832 0) scale(0.996264)"/>
      <use xlink:href="#TeXGyreTermesX-Bold-77" transform="translate(111.681202 0) scale(0.996264)"/>
      <use xlink:href="#TeXGyreTermesX-Bold-4d" transform="translate(208.518076 0) scale(0.996264)"/>
      <use xlink:href="#TeXGyreTermesX-Bold-61" transform="translate(302.565422 0) scale(0.996264)"/>
      <use xlink:href="#TeXGyreTermesX-Bold-74" transform="translate(352.378623 0) scale(0.996264)"/>
      <use xlink:href="#TeXGyreTermesX-Bold-65" transform="translate(385.554233 0) scale(0.996264)"/>
      <use xlink:href="#TeXGyreTermesX-Bold-72" transform="translate(429.788379 0) scale(0.996264)"/>
      <use xlink:href="#TeXGyreTermesX-Bold-69" transform="translate(474.022525 0) scale(0.996264)"/>
      <use xlink:href="#TeXGyreTermesX-Bold-61" transform="translate(501.718653 0) scale(0.996264)"/>
      <use xlink:href="#TeXGyreTermesX-Bold-6c" transform="translate(551.531853 0) scale(0.996264)"/>
     </g>
    </g>
   </g>
  </g>
 </g>
 <defs>
  <clipPath id="pa66b533d55">
   <path d="M 204.104611 26.600737 
L 73.677299 89.41122 
L 41.464413 230.545095 
L 131.722914 343.725675 
L 276.486309 343.725675 
L 366.74481 230.545095 
L 334.531924 89.41122 
z
"/>
  </clipPath>
 </defs>
</svg>
