<?xml version="1.0" encoding="utf-8" standalone="no"?>
<!DOCTYPE svg PUBLIC "-//W3C//DTD SVG 1.1//EN"
  "http://www.w3.org/Graphics/SVG/1.1/DTD/svg11.dtd">
<svg xmlns:xlink="http://www.w3.org/1999/xlink" width="460.8pt" height="372.99297pt" viewBox="0 0 460.8 372.99297" xmlns="http://www.w3.org/2000/svg" version="1.1">
 <metadata>
  <rdf:RDF xmlns:dc="http://purl.org/dc/elements/1.1/" xmlns:cc="http://creativecommons.org/ns#" xmlns:rdf="http://www.w3.org/1999/02/22-rdf-syntax-ns#">
   <cc:Work>
    <dc:type rdf:resource="http://purl.org/dc/dcmitype/StillImage"/>
    <dc:date>2025-04-10T15:46:49.088722</dc:date>
    <dc:format>image/svg+xml</dc:format>
    <dc:creator>
     <cc:Agent>
      <dc:title>Matplotlib v3.10.1, https://matplotlib.org/</dc:title>
     </cc:Agent>
    </dc:creator>
   </cc:Work>
  </rdf:RDF>
 </metadata>
 <defs>
  <style type="text/css">*{stroke-linejoin: round; stroke-linecap: butt}</style>
 </defs>
 <g id="figure_1">
  <g id="patch_1">
   <path d="M 0 372.99297 
L 460.8 372.99297 
L 460.8 0 
L 0 0 
z
" style="fill: #ffffff"/>
  </g>
  <g id="axes_1">
   <g id="patch_2">
    <path d="M 36.410547 230.766203 
L 453.6 230.766203 
L 453.6 7.2 
L 36.410547 7.2 
z
" style="fill: #ffffff"/>
   </g>
   <g id="PathCollection_1">
    <defs>
     <path id="m422cf488ac" d="M 0 -2.236068 
L -1.936492 -1.118034 
L -1.936492 1.118034 
L -0 2.236068 
L 1.936492 1.118034 
L 1.936492 -1.118034 
z
" style="stroke: #000000"/>
    </defs>
    <g clip-path="url(#p734ec422e1)">
     <use xlink:href="#m422cf488ac" x="79.07765" y="231.598985" style="fill: #e41a1c; stroke: #000000"/>
     <use xlink:href="#m422cf488ac" x="108.707583" y="198.287716" style="fill: #e41a1c; stroke: #000000"/>
     <use xlink:href="#m422cf488ac" x="138.337516" y="171.638701" style="fill: #e41a1c; stroke: #000000"/>
     <use xlink:href="#m422cf488ac" x="197.597381" y="210.779442" style="fill: #e41a1c; stroke: #000000"/>
     <use xlink:href="#m422cf488ac" x="256.857247" y="223.271168" style="fill: #e41a1c; stroke: #000000"/>
     <use xlink:href="#m422cf488ac" x="316.117112" y="221.605604" style="fill: #e41a1c; stroke: #000000"/>
     <use xlink:href="#m422cf488ac" x="405.00691" y="217.441696" style="fill: #e41a1c; stroke: #000000"/>
     <use xlink:href="#m422cf488ac" x="425.89949" y="-1" style="fill: #e41a1c; stroke: #000000"/>
    </g>
   </g>
   <g id="PathCollection_2">
    <g clip-path="url(#p734ec422e1)">
     <use xlink:href="#m422cf488ac" x="55.373704" y="229.10064" style="fill: #e41a1c; stroke: #000000"/>
     <use xlink:href="#m422cf488ac" x="79.07765" y="142.49134" style="fill: #e41a1c; stroke: #000000"/>
     <use xlink:href="#m422cf488ac" x="108.707583" y="93.357218" style="fill: #e41a1c; stroke: #000000"/>
     <use xlink:href="#m422cf488ac" x="138.337516" y="113.34398" style="fill: #e41a1c; stroke: #000000"/>
     <use xlink:href="#m422cf488ac" x="167.967448" y="127.501269" style="fill: #e41a1c; stroke: #000000"/>
     <use xlink:href="#m422cf488ac" x="197.597381" y="148.320812" style="fill: #e41a1c; stroke: #000000"/>
     <use xlink:href="#m422cf488ac" x="227.227314" y="174.137046" style="fill: #e41a1c; stroke: #000000"/>
     <use xlink:href="#m422cf488ac" x="256.857247" y="185.79599" style="fill: #e41a1c; stroke: #000000"/>
     <use xlink:href="#m422cf488ac" x="405.00691" y="217.441696" style="fill: #e41a1c; stroke: #000000"/>
    </g>
   </g>
   <g id="PathCollection_3">
    <defs>
     <path id="m7915949fed" d="M 0 -2.236068 
L -2.236068 2.236068 
L 2.236068 2.236068 
z
" style="stroke: #000000"/>
    </defs>
    <g clip-path="url(#p734ec422e1)">
     <use xlink:href="#m7915949fed" x="55.373704" y="226.594303" style="fill: #e41a1c; stroke: #000000"/>
     <use xlink:href="#m7915949fed" x="79.07765" y="113.118601" style="fill: #e41a1c; stroke: #000000"/>
     <use xlink:href="#m7915949fed" x="108.707583" y="140.653146" style="fill: #e41a1c; stroke: #000000"/>
     <use xlink:href="#m7915949fed" x="138.337516" y="154.837609" style="fill: #e41a1c; stroke: #000000"/>
     <use xlink:href="#m7915949fed" x="167.967448" y="156.506369" style="fill: #e41a1c; stroke: #000000"/>
     <use xlink:href="#m7915949fed" x="197.597381" y="188.212815" style="fill: #e41a1c; stroke: #000000"/>
     <use xlink:href="#m7915949fed" x="256.857247" y="196.556617" style="fill: #e41a1c; stroke: #000000"/>
     <use xlink:href="#m7915949fed" x="405.00691" y="212.40984" style="fill: #e41a1c; stroke: #000000"/>
     <use xlink:href="#m7915949fed" x="434.636843" y="229.931823" style="fill: #e41a1c; stroke: #000000"/>
    </g>
   </g>
   <g id="PathCollection_4">
    <g clip-path="url(#p734ec422e1)">
     <use xlink:href="#m422cf488ac" x="55.373704" y="60.045949" style="fill: #e41a1c; stroke: #000000"/>
     <use xlink:href="#m422cf488ac" x="79.07765" y="146.655249" style="fill: #e41a1c; stroke: #000000"/>
     <use xlink:href="#m422cf488ac" x="108.707583" y="103.350599" style="fill: #e41a1c; stroke: #000000"/>
     <use xlink:href="#m422cf488ac" x="138.337516" y="123.33736" style="fill: #e41a1c; stroke: #000000"/>
     <use xlink:href="#m422cf488ac" x="167.967448" y="173.304264" style="fill: #e41a1c; stroke: #000000"/>
     <use xlink:href="#m422cf488ac" x="197.597381" y="159.146975" style="fill: #e41a1c; stroke: #000000"/>
     <use xlink:href="#m422cf488ac" x="227.227314" y="193.291026" style="fill: #e41a1c; stroke: #000000"/>
     <use xlink:href="#m422cf488ac" x="256.857247" y="202.451625" style="fill: #e41a1c; stroke: #000000"/>
     <use xlink:href="#m422cf488ac" x="316.117112" y="206.615533" style="fill: #e41a1c; stroke: #000000"/>
     <use xlink:href="#m422cf488ac" x="405.00691" y="209.113879" style="fill: #e41a1c; stroke: #000000"/>
     <use xlink:href="#m422cf488ac" x="434.636843" y="218.274478" style="fill: #e41a1c; stroke: #000000"/>
    </g>
   </g>
   <g id="PathCollection_5">
    <g clip-path="url(#p734ec422e1)">
     <use xlink:href="#m7915949fed" x="55.373704" y="234.103724" style="fill: #e41a1c; stroke: #000000"/>
     <use xlink:href="#m7915949fed" x="79.07765" y="178.200254" style="fill: #e41a1c; stroke: #000000"/>
     <use xlink:href="#m7915949fed" x="108.707583" y="93.927858" style="fill: #e41a1c; stroke: #000000"/>
     <use xlink:href="#m7915949fed" x="138.337516" y="142.321907" style="fill: #e41a1c; stroke: #000000"/>
     <use xlink:href="#m7915949fed" x="197.597381" y="166.518931" style="fill: #e41a1c; stroke: #000000"/>
     <use xlink:href="#m7915949fed" x="256.857247" y="203.231658" style="fill: #e41a1c; stroke: #000000"/>
     <use xlink:href="#m7915949fed" x="405.00691" y="216.581741" style="fill: #e41a1c; stroke: #000000"/>
     <use xlink:href="#m7915949fed" x="434.636843" y="229.931823" style="fill: #e41a1c; stroke: #000000"/>
    </g>
   </g>
   <g id="PathCollection_6">
    <g clip-path="url(#p734ec422e1)">
     <use xlink:href="#m7915949fed" x="55.373704" y="225.759923" style="fill: #e41a1c; stroke: #000000"/>
     <use xlink:href="#m7915949fed" x="79.07765" y="97.265378" style="fill: #e41a1c; stroke: #000000"/>
     <use xlink:href="#m7915949fed" x="108.707583" y="60.552651" style="fill: #e41a1c; stroke: #000000"/>
     <use xlink:href="#m7915949fed" x="138.337516" y="93.927858" style="fill: #e41a1c; stroke: #000000"/>
     <use xlink:href="#m7915949fed" x="197.597381" y="116.456122" style="fill: #e41a1c; stroke: #000000"/>
     <use xlink:href="#m7915949fed" x="256.857247" y="181.537774" style="fill: #e41a1c; stroke: #000000"/>
     <use xlink:href="#m7915949fed" x="316.117112" y="180.703394" style="fill: #e41a1c; stroke: #000000"/>
     <use xlink:href="#m7915949fed" x="405.00691" y="208.237939" style="fill: #e41a1c; stroke: #000000"/>
     <use xlink:href="#m7915949fed" x="434.636843" y="192.384716" style="fill: #e41a1c; stroke: #000000"/>
    </g>
   </g>
   <g id="PathCollection_7">
    <g clip-path="url(#p734ec422e1)">
     <use xlink:href="#m422cf488ac" x="55.373704" y="222.438386" style="fill: #e41a1c; stroke: #000000"/>
     <use xlink:href="#m422cf488ac" x="79.07765" y="221.605604" style="fill: #e41a1c; stroke: #000000"/>
     <use xlink:href="#m422cf488ac" x="108.707583" y="218.274478" style="fill: #e41a1c; stroke: #000000"/>
     <use xlink:href="#m422cf488ac" x="138.337516" y="222.438386" style="fill: #e41a1c; stroke: #000000"/>
     <use xlink:href="#m422cf488ac" x="167.967448" y="186.628772" style="fill: #e41a1c; stroke: #000000"/>
     <use xlink:href="#m422cf488ac" x="197.597381" y="185.79599" style="fill: #e41a1c; stroke: #000000"/>
     <use xlink:href="#m422cf488ac" x="227.227314" y="222.438386" style="fill: #e41a1c; stroke: #000000"/>
     <use xlink:href="#m422cf488ac" x="256.857247" y="215.776132" style="fill: #e41a1c; stroke: #000000"/>
     <use xlink:href="#m422cf488ac" x="316.117112" y="224.10395" style="fill: #e41a1c; stroke: #000000"/>
     <use xlink:href="#m422cf488ac" x="405.00691" y="216.608914" style="fill: #e41a1c; stroke: #000000"/>
     <use xlink:href="#m422cf488ac" x="434.636843" y="195.789371" style="fill: #e41a1c; stroke: #000000"/>
    </g>
   </g>
   <g id="PathCollection_8">
    <defs>
     <path id="m5de25a45f5" d="M 0 -2.236068 
L -1.936492 -1.118034 
L -1.936492 1.118034 
L -0 2.236068 
L 1.936492 1.118034 
L 1.936492 -1.118034 
z
" style="stroke: #000000"/>
    </defs>
    <g clip-path="url(#p734ec422e1)">
     <use xlink:href="#m5de25a45f5" x="316.117112" y="215.86179" style="fill: #008080; stroke: #000000"/>
     <use xlink:href="#m5de25a45f5" x="197.597381" y="209.651618" style="fill: #008080; stroke: #000000"/>
    </g>
   </g>
   <g id="PathCollection_9">
    <defs>
     <path id="m835a28e268" d="M -0 2.236068 
L 2.236068 -2.236068 
L -2.236068 -2.236068 
z
" style="stroke: #000000"/>
    </defs>
    <g clip-path="url(#p734ec422e1)">
     <use xlink:href="#m835a28e268" x="316.117112" y="224.556031" style="fill: #008080; stroke: #000000"/>
    </g>
   </g>
   <g id="PathCollection_10">
    <defs>
     <path id="m2b6f2adbfa" d="M 0 2.236068 
C 0.593012 2.236068 1.161816 2.000462 1.581139 1.581139 
C 2.000462 1.161816 2.236068 0.593012 2.236068 0 
C 2.236068 -0.593012 2.000462 -1.161816 1.581139 -1.581139 
C 1.161816 -2.000462 0.593012 -2.236068 0 -2.236068 
C -0.593012 -2.236068 -1.161816 -2.000462 -1.581139 -1.581139 
C -2.000462 -1.161816 -2.236068 -0.593012 -2.236068 0 
C -2.236068 0.593012 -2.000462 1.161816 -1.581139 1.581139 
C -1.161816 2.000462 -0.593012 2.236068 0 2.236068 
z
" style="stroke: #000000"/>
    </defs>
    <g clip-path="url(#p734ec422e1)">
     <use xlink:href="#m2b6f2adbfa" x="316.117112" y="207.167549" style="fill: #008080; stroke: #000000"/>
     <use xlink:href="#m2b6f2adbfa" x="197.597381" y="141.339722" style="fill: #008080; stroke: #000000"/>
    </g>
   </g>
   <g id="PathCollection_11">
    <defs>
     <path id="m200b332f14" d="M -2.236068 -0 
L 2.236068 2.236068 
L 2.236068 -2.236068 
z
" style="stroke: #000000"/>
    </defs>
    <g clip-path="url(#p734ec422e1)">
     <use xlink:href="#m200b332f14" x="316.117112" y="224.556031" style="fill: #008080; stroke: #000000"/>
     <use xlink:href="#m200b332f14" x="197.597381" y="163.696342" style="fill: #008080; stroke: #000000"/>
    </g>
   </g>
   <g id="PathCollection_12">
    <defs>
     <path id="md9b2453261" d="M 0 -2.236068 
L -1.936492 -1.118034 
L -1.936492 1.118034 
L -0 2.236068 
L 1.936492 1.118034 
L 1.936492 -1.118034 
z
" style="stroke: #000000"/>
    </defs>
    <g clip-path="url(#p734ec422e1)">
     <use xlink:href="#md9b2453261" x="167.967448" y="157.48617" style="fill: #cd853f; stroke: #000000"/>
     <use xlink:href="#md9b2453261" x="197.597381" y="210.893652" style="fill: #cd853f; stroke: #000000"/>
     <use xlink:href="#md9b2453261" x="221.301327" y="224.556031" style="fill: #cd853f; stroke: #000000"/>
    </g>
   </g>
   <g id="matplotlib.axis_1">
    <g id="xtick_1">
     <g id="line2d_1">
      <defs>
       <path id="m033695d3c6" d="M 0 0 
L 0 -3.5 
" style="stroke: #000000; stroke-width: 0.8"/>
      </defs>
      <g>
       <use xlink:href="#m033695d3c6" x="79.07765" y="230.766203" style="stroke: #000000; stroke-width: 0.8"/>
      </g>
     </g>
     <g id="text_1">
      <!-- $\mathdefault{100}$ -->
      <g transform="translate(70.895846 241.789474) scale(0.11 -0.11)">
       <defs>
        <path id="TeXGyreTermesX-Bold-31" d="M 2829 0 
L 2829 159 
C 2246 159 2138 255 2138 746 
L 2138 4384 
L 2029 4384 
L 416 3686 
L 416 3521 
C 474 3540 525 3559 544 3572 
C 717 3635 877 3680 960 3680 
C 1120 3680 1190 3540 1190 3241 
L 1190 790 
C 1190 267 1062 159 429 159 
L 429 0 
L 2829 0 
z
" transform="scale(0.015625)"/>
        <path id="TeXGyreTermesX-Bold-30" d="M 3046 2166 
C 3046 3440 2426 4403 1600 4403 
C 1184 4403 762 4123 499 3664 
C 294 3313 154 2714 154 2185 
C 154 873 755 -64 1606 -64 
C 2432 -64 3046 886 3046 2166 
z
M 2035 1434 
C 2035 1058 1984 561 1926 389 
C 1856 203 1754 114 1606 114 
C 1286 114 1165 491 1165 1434 
L 1165 2892 
C 1165 3855 1286 4224 1594 4224 
C 1907 4224 2035 3829 2035 2892 
L 2035 1434 
z
" transform="scale(0.015625)"/>
       </defs>
       <use xlink:href="#TeXGyreTermesX-Bold-31" transform="scale(0.996264)"/>
       <use xlink:href="#TeXGyreTermesX-Bold-30" transform="translate(49.8132 0) scale(0.996264)"/>
       <use xlink:href="#TeXGyreTermesX-Bold-30" transform="translate(99.626401 0) scale(0.996264)"/>
      </g>
     </g>
    </g>
    <g id="xtick_2">
     <g id="line2d_2">
      <g>
       <use xlink:href="#m033695d3c6" x="167.967448" y="230.766203" style="stroke: #000000; stroke-width: 0.8"/>
      </g>
     </g>
     <g id="text_2">
      <!-- $\mathdefault{400}$ -->
      <g transform="translate(159.785644 241.789474) scale(0.11 -0.11)">
       <defs>
        <path id="TeXGyreTermesX-Bold-34" d="M 3040 896 
L 3040 1602 
L 2637 1602 
L 2637 4352 
L 2125 4352 
L 1747 3863 
C 928 2803 506 2219 122 1615 
L 122 896 
L 1709 896 
L 1709 -32 
L 2637 -32 
L 2637 896 
L 3040 896 
z
M 1722 1602 
L 384 1602 
L 1722 3488 
L 1722 1602 
z
" transform="scale(0.015625)"/>
       </defs>
       <use xlink:href="#TeXGyreTermesX-Bold-34" transform="scale(0.996264)"/>
       <use xlink:href="#TeXGyreTermesX-Bold-30" transform="translate(49.8132 0) scale(0.996264)"/>
       <use xlink:href="#TeXGyreTermesX-Bold-30" transform="translate(99.626401 0) scale(0.996264)"/>
      </g>
     </g>
    </g>
    <g id="xtick_3">
     <g id="line2d_3">
      <g>
       <use xlink:href="#m033695d3c6" x="256.857247" y="230.766203" style="stroke: #000000; stroke-width: 0.8"/>
      </g>
     </g>
     <g id="text_3">
      <!-- $\mathdefault{700}$ -->
      <g transform="translate(248.675442 241.789474) scale(0.11 -0.11)">
       <defs>
        <path id="TeXGyreTermesX-Bold-37" d="M 3053 4327 
L 390 4327 
L 109 2916 
L 269 2916 
C 390 3322 544 3456 896 3456 
L 2221 3456 
L 941 32 
L 1549 32 
L 3053 4327 
z
" transform="scale(0.015625)"/>
       </defs>
       <use xlink:href="#TeXGyreTermesX-Bold-37" transform="scale(0.996264)"/>
       <use xlink:href="#TeXGyreTermesX-Bold-30" transform="translate(49.8132 0) scale(0.996264)"/>
       <use xlink:href="#TeXGyreTermesX-Bold-30" transform="translate(99.626401 0) scale(0.996264)"/>
      </g>
     </g>
    </g>
    <g id="xtick_4">
     <g id="line2d_4">
      <g>
       <use xlink:href="#m033695d3c6" x="345.747045" y="230.766203" style="stroke: #000000; stroke-width: 0.8"/>
      </g>
     </g>
     <g id="text_4">
      <!-- $\mathdefault{1000}$ -->
      <g transform="translate(334.837972 241.789474) scale(0.11 -0.11)">
       <use xlink:href="#TeXGyreTermesX-Bold-31" transform="scale(0.996264)"/>
       <use xlink:href="#TeXGyreTermesX-Bold-30" transform="translate(49.8132 0) scale(0.996264)"/>
       <use xlink:href="#TeXGyreTermesX-Bold-30" transform="translate(99.626401 0) scale(0.996264)"/>
       <use xlink:href="#TeXGyreTermesX-Bold-30" transform="translate(149.439601 0) scale(0.996264)"/>
      </g>
     </g>
    </g>
    <g id="xtick_5">
     <g id="line2d_5">
      <g>
       <use xlink:href="#m033695d3c6" x="434.636843" y="230.766203" style="stroke: #000000; stroke-width: 0.8"/>
      </g>
     </g>
     <g id="text_5">
      <!-- $\mathdefault{1300}$ -->
      <g transform="translate(423.72777 241.789474) scale(0.11 -0.11)">
       <defs>
        <path id="TeXGyreTermesX-Bold-33" d="M 2995 1596 
C 2995 1889 2899 2164 2714 2387 
C 2579 2540 2470 2617 2214 2732 
C 2624 2981 2746 3165 2746 3541 
C 2746 4090 2355 4416 1702 4416 
C 1069 4416 589 4097 237 3440 
L 371 3364 
C 614 3753 826 3900 1158 3900 
C 1562 3900 1811 3645 1811 3242 
C 1811 2822 1587 2598 979 2406 
L 979 2297 
C 1510 2112 1722 2004 1952 1786 
C 2150 1601 2266 1314 2266 1007 
C 2266 548 2022 254 1638 254 
C 1485 254 1363 324 1152 528 
C 902 778 710 880 518 880 
C 275 880 102 728 102 510 
C 102 166 493 -64 1082 -64 
C 2150 -64 2995 664 2995 1596 
z
" transform="scale(0.015625)"/>
       </defs>
       <use xlink:href="#TeXGyreTermesX-Bold-31" transform="scale(0.996264)"/>
       <use xlink:href="#TeXGyreTermesX-Bold-33" transform="translate(49.8132 0) scale(0.996264)"/>
       <use xlink:href="#TeXGyreTermesX-Bold-30" transform="translate(99.626401 0) scale(0.996264)"/>
       <use xlink:href="#TeXGyreTermesX-Bold-30" transform="translate(149.439601 0) scale(0.996264)"/>
      </g>
     </g>
    </g>
    <g id="xtick_6">
     <g id="line2d_6">
      <defs>
       <path id="m3b1dbd0e16" d="M 0 0 
L 0 -2 
" style="stroke: #000000; stroke-width: 0.6"/>
      </defs>
      <g>
       <use xlink:href="#m3b1dbd0e16" x="43.521731" y="230.766203" style="stroke: #000000; stroke-width: 0.6"/>
      </g>
     </g>
    </g>
    <g id="xtick_7">
     <g id="line2d_7">
      <g>
       <use xlink:href="#m3b1dbd0e16" x="61.299691" y="230.766203" style="stroke: #000000; stroke-width: 0.6"/>
      </g>
     </g>
    </g>
    <g id="xtick_8">
     <g id="line2d_8">
      <g>
       <use xlink:href="#m3b1dbd0e16" x="96.85561" y="230.766203" style="stroke: #000000; stroke-width: 0.6"/>
      </g>
     </g>
    </g>
    <g id="xtick_9">
     <g id="line2d_9">
      <g>
       <use xlink:href="#m3b1dbd0e16" x="114.63357" y="230.766203" style="stroke: #000000; stroke-width: 0.6"/>
      </g>
     </g>
    </g>
    <g id="xtick_10">
     <g id="line2d_10">
      <g>
       <use xlink:href="#m3b1dbd0e16" x="132.411529" y="230.766203" style="stroke: #000000; stroke-width: 0.6"/>
      </g>
     </g>
    </g>
    <g id="xtick_11">
     <g id="line2d_11">
      <g>
       <use xlink:href="#m3b1dbd0e16" x="150.189489" y="230.766203" style="stroke: #000000; stroke-width: 0.6"/>
      </g>
     </g>
    </g>
    <g id="xtick_12">
     <g id="line2d_12">
      <g>
       <use xlink:href="#m3b1dbd0e16" x="185.745408" y="230.766203" style="stroke: #000000; stroke-width: 0.6"/>
      </g>
     </g>
    </g>
    <g id="xtick_13">
     <g id="line2d_13">
      <g>
       <use xlink:href="#m3b1dbd0e16" x="203.523368" y="230.766203" style="stroke: #000000; stroke-width: 0.6"/>
      </g>
     </g>
    </g>
    <g id="xtick_14">
     <g id="line2d_14">
      <g>
       <use xlink:href="#m3b1dbd0e16" x="221.301327" y="230.766203" style="stroke: #000000; stroke-width: 0.6"/>
      </g>
     </g>
    </g>
    <g id="xtick_15">
     <g id="line2d_15">
      <g>
       <use xlink:href="#m3b1dbd0e16" x="239.079287" y="230.766203" style="stroke: #000000; stroke-width: 0.6"/>
      </g>
     </g>
    </g>
    <g id="xtick_16">
     <g id="line2d_16">
      <g>
       <use xlink:href="#m3b1dbd0e16" x="274.635206" y="230.766203" style="stroke: #000000; stroke-width: 0.6"/>
      </g>
     </g>
    </g>
    <g id="xtick_17">
     <g id="line2d_17">
      <g>
       <use xlink:href="#m3b1dbd0e16" x="292.413166" y="230.766203" style="stroke: #000000; stroke-width: 0.6"/>
      </g>
     </g>
    </g>
    <g id="xtick_18">
     <g id="line2d_18">
      <g>
       <use xlink:href="#m3b1dbd0e16" x="310.191126" y="230.766203" style="stroke: #000000; stroke-width: 0.6"/>
      </g>
     </g>
    </g>
    <g id="xtick_19">
     <g id="line2d_19">
      <g>
       <use xlink:href="#m3b1dbd0e16" x="327.969085" y="230.766203" style="stroke: #000000; stroke-width: 0.6"/>
      </g>
     </g>
    </g>
    <g id="xtick_20">
     <g id="line2d_20">
      <g>
       <use xlink:href="#m3b1dbd0e16" x="363.525004" y="230.766203" style="stroke: #000000; stroke-width: 0.6"/>
      </g>
     </g>
    </g>
    <g id="xtick_21">
     <g id="line2d_21">
      <g>
       <use xlink:href="#m3b1dbd0e16" x="381.302964" y="230.766203" style="stroke: #000000; stroke-width: 0.6"/>
      </g>
     </g>
    </g>
    <g id="xtick_22">
     <g id="line2d_22">
      <g>
       <use xlink:href="#m3b1dbd0e16" x="399.080924" y="230.766203" style="stroke: #000000; stroke-width: 0.6"/>
      </g>
     </g>
    </g>
    <g id="xtick_23">
     <g id="line2d_23">
      <g>
       <use xlink:href="#m3b1dbd0e16" x="416.858883" y="230.766203" style="stroke: #000000; stroke-width: 0.6"/>
      </g>
     </g>
    </g>
    <g id="xtick_24">
     <g id="line2d_24">
      <g>
       <use xlink:href="#m3b1dbd0e16" x="452.414803" y="230.766203" style="stroke: #000000; stroke-width: 0.6"/>
      </g>
     </g>
    </g>
    <g id="text_6">
     <!-- \textbf{Temperature} \textbf{[}$^\circ$\textbf{C]} -->
     <g transform="translate(199.462467 256.513435) scale(0.12 -0.12)">
      <defs>
       <path id="TeXGyreTermesX-Bold-54" d="M 4070 3013 
L 4058 4288 
L 218 4288 
L 198 3013 
L 384 3013 
C 493 3777 826 4072 1619 4072 
L 1619 740 
C 1619 272 1549 204 998 159 
L 998 0 
L 3283 0 
L 3283 178 
C 2726 178 2656 242 2656 724 
L 2656 4072 
C 3443 4072 3776 3777 3885 3013 
L 4070 3013 
z
" transform="scale(0.015625)"/>
       <path id="TeXGyreTermesX-Bold-65" d="M 2726 736 
L 2573 826 
C 2310 510 2118 394 1843 394 
C 1600 394 1408 504 1280 723 
C 1158 930 1107 1149 1082 1600 
L 2694 1600 
C 2656 2115 2560 2400 2362 2642 
C 2157 2883 1856 3013 1498 3013 
C 698 3013 160 2388 160 1465 
C 160 543 685 -64 1478 -64 
C 1997 -64 2310 134 2726 736 
z
M 1907 1835 
L 1050 1835 
C 1069 2571 1184 2816 1498 2816 
C 1683 2816 1798 2718 1850 2528 
C 1882 2411 1894 2240 1907 1928 
L 1907 1835 
z
" transform="scale(0.015625)"/>
       <path id="TeXGyreTermesX-Bold-6d" d="M 5210 0 
L 5210 159 
C 4960 159 4890 236 4890 510 
L 4890 2109 
C 4890 2657 4550 3008 4026 3008 
C 3661 3008 3418 2862 3085 2455 
C 2893 2856 2669 3008 2266 3008 
C 1862 3008 1568 2836 1325 2455 
L 1325 2932 
L 102 2932 
L 102 2779 
C 384 2741 454 2665 454 2404 
L 454 534 
C 454 273 384 204 102 153 
L 102 0 
L 1638 0 
L 1638 153 
C 1414 184 1344 273 1344 515 
L 1344 2213 
C 1344 2251 1446 2372 1530 2436 
C 1664 2538 1773 2582 1882 2582 
C 2131 2582 2227 2436 2227 2054 
L 2227 515 
C 2227 254 2157 172 1920 153 
L 1920 0 
L 3418 0 
L 3418 153 
C 3194 178 3117 273 3117 515 
L 3117 2213 
C 3117 2245 3219 2366 3302 2429 
C 3443 2538 3552 2582 3661 2582 
C 3904 2582 4000 2429 4000 2054 
L 4000 515 
C 4000 248 3930 172 3686 153 
L 3686 0 
L 5210 0 
z
" transform="scale(0.015625)"/>
       <path id="TeXGyreTermesX-Bold-70" d="M 3354 1551 
C 3354 2442 2874 3050 2163 3050 
C 1786 3050 1555 2904 1357 2534 
L 1357 2974 
L 134 2974 
L 134 2821 
C 416 2777 480 2712 480 2444 
L 480 -756 
C 480 -1019 429 -1076 122 -1127 
L 122 -1280 
L 1869 -1280 
L 1869 -1140 
C 1478 -1140 1370 -1012 1370 -584 
L 1370 318 
C 1677 19 1843 -64 2125 -64 
C 2842 -64 3354 603 3354 1551 
z
M 2406 1461 
C 2406 665 2227 286 1862 286 
C 1651 286 1466 434 1370 678 
L 1370 2238 
C 1370 2283 1427 2386 1504 2469 
C 1632 2610 1779 2688 1920 2688 
C 2253 2688 2406 2302 2406 1461 
z
" transform="scale(0.015625)"/>
       <path id="TeXGyreTermesX-Bold-72" d="M 2778 2512 
C 2778 2798 2560 3008 2259 3008 
C 1939 3008 1696 2836 1395 2410 
L 1395 2932 
L 186 2932 
L 186 2779 
C 461 2741 531 2658 531 2404 
L 531 533 
C 531 272 467 203 186 152 
L 186 0 
L 1888 0 
L 1888 165 
C 1498 165 1421 248 1421 645 
L 1421 1854 
C 1421 2186 1600 2461 1811 2461 
C 1862 2461 1920 2417 1990 2315 
C 2112 2143 2208 2086 2374 2086 
C 2611 2086 2778 2264 2778 2512 
z
" transform="scale(0.015625)"/>
       <path id="TeXGyreTermesX-Bold-61" d="M 3123 297 
L 3027 430 
L 2963 366 
C 2944 347 2925 341 2893 341 
C 2803 341 2758 392 2758 499 
L 2758 2152 
C 2758 2689 2272 3019 1491 3019 
C 768 3019 282 2696 282 2221 
C 282 1955 435 1803 698 1803 
C 954 1803 1133 1955 1133 2170 
C 1133 2259 1101 2341 1018 2442 
C 960 2506 941 2543 941 2581 
C 941 2714 1114 2816 1344 2816 
C 1722 2816 1882 2645 1882 2259 
L 1882 1797 
C 1133 1569 832 1455 589 1296 
C 301 1107 160 885 160 607 
C 160 221 454 -64 864 -64 
C 1235 -64 1530 63 1882 380 
C 1952 57 2093 -64 2406 -64 
C 2682 -64 2880 38 3123 297 
z
M 1875 658 
C 1702 462 1574 386 1421 386 
C 1229 386 1094 556 1094 810 
C 1094 1176 1363 1436 1875 1575 
L 1875 658 
z
" transform="scale(0.015625)"/>
       <path id="TeXGyreTermesX-Bold-74" d="M 2125 648 
L 1965 718 
C 1837 476 1734 387 1600 387 
C 1421 387 1350 495 1350 750 
L 1350 2664 
L 1952 2664 
L 1952 2944 
L 1350 2944 
L 1350 4032 
L 1190 4032 
C 800 3479 544 3190 128 2836 
L 128 2664 
L 461 2664 
L 461 603 
C 461 190 736 -64 1178 -64 
C 1606 -64 1862 126 2125 648 
z
" transform="scale(0.015625)"/>
       <path id="TeXGyreTermesX-Bold-75" d="M 3437 152 
L 3437 305 
C 3155 305 3078 388 3078 660 
L 3078 2944 
L 1792 2944 
L 1792 2792 
C 2112 2767 2189 2690 2189 2419 
L 2189 627 
C 1978 419 1850 349 1664 349 
C 1402 349 1306 476 1306 799 
L 1306 2944 
L 102 2944 
L 102 2792 
C 365 2741 416 2684 416 2419 
L 416 822 
C 416 266 736 -64 1267 -64 
C 1600 -64 1824 38 2195 355 
L 2195 -58 
C 2470 38 2624 63 3040 108 
L 3437 152 
z
" transform="scale(0.015625)"/>
       <path id="TeXGyreTermesX-Bold-5b" d="M 1926 -960 
L 1926 -750 
L 1414 -750 
C 1152 -750 1094 -686 1094 -413 
L 1094 3650 
C 1094 4020 1165 4096 1523 4096 
L 1926 4096 
L 1926 4306 
L 429 4306 
L 429 -960 
L 1926 -960 
z
" transform="scale(0.015625)"/>
       <path id="txbsys-e" d="M 2955 1640 
C 2955 2347 2386 2915 1676 2915 
C 960 2915 397 2347 397 1640 
C 397 926 960 365 1676 365 
C 2386 365 2955 926 2955 1640 
z
M 2482 1640 
C 2482 1188 2117 838 1676 838 
C 1222 838 870 1188 870 1640 
C 870 2078 1222 2441 1676 2441 
C 2117 2441 2482 2078 2482 1640 
z
" transform="scale(0.015625)"/>
       <path id="TeXGyreTermesX-Bold-43" d="M 4397 800 
L 4205 959 
C 3827 565 3622 413 3309 292 
C 3123 216 2912 177 2733 177 
C 2310 177 1907 399 1722 729 
C 1536 1064 1446 1513 1446 2153 
C 1446 3463 1850 4160 2624 4160 
C 2925 4160 3200 4047 3475 3809 
C 3750 3570 3898 3357 4122 2880 
L 4282 2880 
L 4282 4369 
L 4109 4369 
C 4013 4127 3949 4059 3827 4059 
C 3763 4059 3680 4084 3533 4148 
C 3162 4300 2848 4370 2541 4370 
C 1267 4370 314 3394 314 2095 
C 314 790 1248 -128 2579 -128 
C 3315 -128 3750 95 4397 800 
z
" transform="scale(0.015625)"/>
       <path id="TeXGyreTermesX-Bold-5d" d="M 1702 -960 
L 1702 4306 
L 205 4306 
L 205 4096 
L 608 4096 
C 966 4096 1037 4020 1037 3650 
L 1037 -413 
C 1037 -693 986 -750 717 -750 
L 205 -750 
L 205 -960 
L 1702 -960 
z
" transform="scale(0.015625)"/>
      </defs>
      <use xlink:href="#TeXGyreTermesX-Bold-54" transform="scale(0.996264)"/>
      <use xlink:href="#TeXGyreTermesX-Bold-65" transform="translate(57.982532 0) scale(0.996264)"/>
      <use xlink:href="#TeXGyreTermesX-Bold-6d" transform="translate(102.216678 0) scale(0.996264)"/>
      <use xlink:href="#TeXGyreTermesX-Bold-70" transform="translate(183.711047 0) scale(0.996264)"/>
      <use xlink:href="#TeXGyreTermesX-Bold-65" transform="translate(239.103302 0) scale(0.996264)"/>
      <use xlink:href="#TeXGyreTermesX-Bold-72" transform="translate(283.337448 0) scale(0.996264)"/>
      <use xlink:href="#TeXGyreTermesX-Bold-61" transform="translate(327.571594 0) scale(0.996264)"/>
      <use xlink:href="#TeXGyreTermesX-Bold-74" transform="translate(377.384795 0) scale(0.996264)"/>
      <use xlink:href="#TeXGyreTermesX-Bold-75" transform="translate(410.560405 0) scale(0.996264)"/>
      <use xlink:href="#TeXGyreTermesX-Bold-72" transform="translate(465.952659 0) scale(0.996264)"/>
      <use xlink:href="#TeXGyreTermesX-Bold-65" transform="translate(509.190511 0) scale(0.996264)"/>
      <use xlink:href="#TeXGyreTermesX-Bold-5b" transform="translate(578.331258 0) scale(0.996264)"/>
      <use xlink:href="#txbsys-e" transform="translate(611.506868 36.164371) scale(0.727268)"/>
      <use xlink:href="#TeXGyreTermesX-Bold-43" transform="translate(650.113877 0) scale(0.996264)"/>
      <use xlink:href="#TeXGyreTermesX-Bold-5d" transform="translate(722.04415 0) scale(0.996264)"/>
     </g>
    </g>
   </g>
   <g id="matplotlib.axis_2">
    <g id="ytick_1">
     <g id="line2d_25">
      <defs>
       <path id="m9662521567" d="M 0 0 
L 3.5 0 
" style="stroke: #000000; stroke-width: 0.8"/>
      </defs>
      <g>
       <use xlink:href="#m9662521567" x="36.410547" y="230.766203" style="stroke: #000000; stroke-width: 0.8"/>
      </g>
     </g>
     <g id="text_7">
      <!-- $\mathdefault{0}$ -->
      <g transform="translate(27.456011 234.527839) scale(0.11 -0.11)">
       <use xlink:href="#TeXGyreTermesX-Bold-30" transform="scale(0.996264)"/>
      </g>
     </g>
    </g>
    <g id="ytick_2">
     <g id="line2d_26">
      <g>
       <use xlink:href="#m9662521567" x="36.410547" y="193.50517" style="stroke: #000000; stroke-width: 0.8"/>
      </g>
     </g>
     <g id="text_8">
      <!-- $\mathdefault{3}$ -->
      <g transform="translate(27.456011 197.266805) scale(0.11 -0.11)">
       <use xlink:href="#TeXGyreTermesX-Bold-33" transform="scale(0.996264)"/>
      </g>
     </g>
    </g>
    <g id="ytick_3">
     <g id="line2d_27">
      <g>
       <use xlink:href="#m9662521567" x="36.410547" y="156.244136" style="stroke: #000000; stroke-width: 0.8"/>
      </g>
     </g>
     <g id="text_9">
      <!-- $\mathdefault{6}$ -->
      <g transform="translate(27.456011 160.005771) scale(0.11 -0.11)">
       <defs>
        <path id="TeXGyreTermesX-Bold-36" d="M 3040 1427 
C 3040 2193 2573 2688 1843 2688 
C 1638 2688 1498 2663 1306 2580 
C 1542 3515 2074 4030 3008 4221 
L 3008 4387 
C 2157 4266 1760 4126 1274 3796 
C 557 3307 179 2596 179 1752 
C 179 654 768 -64 1664 -64 
C 2458 -64 3040 564 3040 1427 
z
M 2067 1046 
C 2067 298 1990 108 1677 108 
C 1530 108 1414 172 1350 291 
C 1242 501 1178 964 1178 1553 
C 1178 1946 1216 2307 1261 2339 
C 1312 2377 1402 2402 1491 2402 
C 1920 2402 2067 2054 2067 1046 
z
" transform="scale(0.015625)"/>
       </defs>
       <use xlink:href="#TeXGyreTermesX-Bold-36" transform="scale(0.996264)"/>
      </g>
     </g>
    </g>
    <g id="ytick_4">
     <g id="line2d_28">
      <g>
       <use xlink:href="#m9662521567" x="36.410547" y="118.983102" style="stroke: #000000; stroke-width: 0.8"/>
      </g>
     </g>
     <g id="text_10">
      <!-- $\mathdefault{9}$ -->
      <g transform="translate(27.456011 122.744737) scale(0.11 -0.11)">
       <defs>
        <path id="TeXGyreTermesX-Bold-39" d="M 3027 2537 
C 3027 3634 2438 4352 1542 4352 
C 742 4352 166 3724 166 2856 
C 166 2107 634 1600 1331 1600 
C 1574 1600 1741 1632 1914 1721 
C 1638 755 1120 252 198 68 
L 198 -98 
C 1094 30 1530 188 2029 563 
C 2682 1051 3027 1730 3027 2537 
z
M 2029 2894 
C 2029 2723 2016 2521 1997 2235 
L 1978 2070 
C 1971 1988 1965 1957 1946 1944 
C 1901 1912 1779 1887 1683 1887 
C 1286 1887 1139 2261 1139 3255 
C 1139 3990 1216 4180 1530 4180 
C 1690 4180 1798 4110 1869 3965 
C 1965 3788 2029 3343 2029 2894 
z
" transform="scale(0.015625)"/>
       </defs>
       <use xlink:href="#TeXGyreTermesX-Bold-39" transform="scale(0.996264)"/>
      </g>
     </g>
    </g>
    <g id="ytick_5">
     <g id="line2d_29">
      <g>
       <use xlink:href="#m9662521567" x="36.410547" y="81.722068" style="stroke: #000000; stroke-width: 0.8"/>
      </g>
     </g>
     <g id="text_11">
      <!-- $\mathdefault{12}$ -->
      <g transform="translate(22.001474 85.483703) scale(0.11 -0.11)">
       <defs>
        <path id="TeXGyreTermesX-Bold-32" d="M 3059 1341 
L 2906 1341 
C 2720 884 2643 846 1990 846 
L 1024 846 
L 2061 1824 
C 2566 2301 2790 2726 2790 3210 
C 2790 3889 2298 4373 1606 4373 
C 1286 4373 979 4245 755 4016 
C 506 3768 378 3552 198 3075 
L 378 3075 
C 576 3469 813 3648 1158 3648 
C 1440 3648 1651 3527 1792 3298 
C 1869 3164 1920 2987 1920 2841 
C 1920 2561 1798 2211 1594 1900 
C 1267 1405 1043 1137 109 146 
L 109 0 
L 2771 0 
L 3059 1341 
z
" transform="scale(0.015625)"/>
       </defs>
       <use xlink:href="#TeXGyreTermesX-Bold-31" transform="scale(0.996264)"/>
       <use xlink:href="#TeXGyreTermesX-Bold-32" transform="translate(49.8132 0) scale(0.996264)"/>
      </g>
     </g>
    </g>
    <g id="ytick_6">
     <g id="line2d_30">
      <g>
       <use xlink:href="#m9662521567" x="36.410547" y="44.461034" style="stroke: #000000; stroke-width: 0.8"/>
      </g>
     </g>
     <g id="text_12">
      <!-- $\mathdefault{15}$ -->
      <g transform="translate(22.001474 48.222669) scale(0.11 -0.11)">
       <defs>
        <path id="TeXGyreTermesX-Bold-35" d="M 3008 4288 
L 947 4288 
L 326 2093 
C 934 2049 1197 2010 1478 1921 
C 2048 1743 2387 1381 2387 960 
C 2387 604 2106 324 1747 324 
C 1600 324 1427 400 1171 591 
C 896 795 704 877 538 877 
C 307 877 141 718 141 496 
C 141 159 512 -64 1082 -64 
C 2138 -64 2886 575 2886 1476 
C 2886 2140 2477 2652 1779 2850 
C 1536 2920 1338 2946 813 2946 
L 954 3481 
L 2733 3481 
L 3008 4288 
z
" transform="scale(0.015625)"/>
       </defs>
       <use xlink:href="#TeXGyreTermesX-Bold-31" transform="scale(0.996264)"/>
       <use xlink:href="#TeXGyreTermesX-Bold-35" transform="translate(49.8132 0) scale(0.996264)"/>
      </g>
     </g>
    </g>
    <g id="ytick_7">
     <g id="line2d_31">
      <defs>
       <path id="m4cd8b1cfa1" d="M 0 0 
L 2 0 
" style="stroke: #000000; stroke-width: 0.6"/>
      </defs>
      <g>
       <use xlink:href="#m4cd8b1cfa1" x="36.410547" y="223.313997" style="stroke: #000000; stroke-width: 0.6"/>
      </g>
     </g>
    </g>
    <g id="ytick_8">
     <g id="line2d_32">
      <g>
       <use xlink:href="#m4cd8b1cfa1" x="36.410547" y="215.86179" style="stroke: #000000; stroke-width: 0.6"/>
      </g>
     </g>
    </g>
    <g id="ytick_9">
     <g id="line2d_33">
      <g>
       <use xlink:href="#m4cd8b1cfa1" x="36.410547" y="208.409583" style="stroke: #000000; stroke-width: 0.6"/>
      </g>
     </g>
    </g>
    <g id="ytick_10">
     <g id="line2d_34">
      <g>
       <use xlink:href="#m4cd8b1cfa1" x="36.410547" y="200.957376" style="stroke: #000000; stroke-width: 0.6"/>
      </g>
     </g>
    </g>
    <g id="ytick_11">
     <g id="line2d_35">
      <g>
       <use xlink:href="#m4cd8b1cfa1" x="36.410547" y="186.052963" style="stroke: #000000; stroke-width: 0.6"/>
      </g>
     </g>
    </g>
    <g id="ytick_12">
     <g id="line2d_36">
      <g>
       <use xlink:href="#m4cd8b1cfa1" x="36.410547" y="178.600756" style="stroke: #000000; stroke-width: 0.6"/>
      </g>
     </g>
    </g>
    <g id="ytick_13">
     <g id="line2d_37">
      <g>
       <use xlink:href="#m4cd8b1cfa1" x="36.410547" y="171.148549" style="stroke: #000000; stroke-width: 0.6"/>
      </g>
     </g>
    </g>
    <g id="ytick_14">
     <g id="line2d_38">
      <g>
       <use xlink:href="#m4cd8b1cfa1" x="36.410547" y="163.696342" style="stroke: #000000; stroke-width: 0.6"/>
      </g>
     </g>
    </g>
    <g id="ytick_15">
     <g id="line2d_39">
      <g>
       <use xlink:href="#m4cd8b1cfa1" x="36.410547" y="148.791929" style="stroke: #000000; stroke-width: 0.6"/>
      </g>
     </g>
    </g>
    <g id="ytick_16">
     <g id="line2d_40">
      <g>
       <use xlink:href="#m4cd8b1cfa1" x="36.410547" y="141.339722" style="stroke: #000000; stroke-width: 0.6"/>
      </g>
     </g>
    </g>
    <g id="ytick_17">
     <g id="line2d_41">
      <g>
       <use xlink:href="#m4cd8b1cfa1" x="36.410547" y="133.887515" style="stroke: #000000; stroke-width: 0.6"/>
      </g>
     </g>
    </g>
    <g id="ytick_18">
     <g id="line2d_42">
      <g>
       <use xlink:href="#m4cd8b1cfa1" x="36.410547" y="126.435309" style="stroke: #000000; stroke-width: 0.6"/>
      </g>
     </g>
    </g>
    <g id="ytick_19">
     <g id="line2d_43">
      <g>
       <use xlink:href="#m4cd8b1cfa1" x="36.410547" y="111.530895" style="stroke: #000000; stroke-width: 0.6"/>
      </g>
     </g>
    </g>
    <g id="ytick_20">
     <g id="line2d_44">
      <g>
       <use xlink:href="#m4cd8b1cfa1" x="36.410547" y="104.078688" style="stroke: #000000; stroke-width: 0.6"/>
      </g>
     </g>
    </g>
    <g id="ytick_21">
     <g id="line2d_45">
      <g>
       <use xlink:href="#m4cd8b1cfa1" x="36.410547" y="96.626481" style="stroke: #000000; stroke-width: 0.6"/>
      </g>
     </g>
    </g>
    <g id="ytick_22">
     <g id="line2d_46">
      <g>
       <use xlink:href="#m4cd8b1cfa1" x="36.410547" y="89.174275" style="stroke: #000000; stroke-width: 0.6"/>
      </g>
     </g>
    </g>
    <g id="ytick_23">
     <g id="line2d_47">
      <g>
       <use xlink:href="#m4cd8b1cfa1" x="36.410547" y="74.269861" style="stroke: #000000; stroke-width: 0.6"/>
      </g>
     </g>
    </g>
    <g id="ytick_24">
     <g id="line2d_48">
      <g>
       <use xlink:href="#m4cd8b1cfa1" x="36.410547" y="66.817654" style="stroke: #000000; stroke-width: 0.6"/>
      </g>
     </g>
    </g>
    <g id="ytick_25">
     <g id="line2d_49">
      <g>
       <use xlink:href="#m4cd8b1cfa1" x="36.410547" y="59.365447" style="stroke: #000000; stroke-width: 0.6"/>
      </g>
     </g>
    </g>
    <g id="ytick_26">
     <g id="line2d_50">
      <g>
       <use xlink:href="#m4cd8b1cfa1" x="36.410547" y="51.913241" style="stroke: #000000; stroke-width: 0.6"/>
      </g>
     </g>
    </g>
    <g id="ytick_27">
     <g id="line2d_51">
      <g>
       <use xlink:href="#m4cd8b1cfa1" x="36.410547" y="37.008827" style="stroke: #000000; stroke-width: 0.6"/>
      </g>
     </g>
    </g>
    <g id="ytick_28">
     <g id="line2d_52">
      <g>
       <use xlink:href="#m4cd8b1cfa1" x="36.410547" y="29.55662" style="stroke: #000000; stroke-width: 0.6"/>
      </g>
     </g>
    </g>
    <g id="ytick_29">
     <g id="line2d_53">
      <g>
       <use xlink:href="#m4cd8b1cfa1" x="36.410547" y="22.104414" style="stroke: #000000; stroke-width: 0.6"/>
      </g>
     </g>
    </g>
    <g id="ytick_30">
     <g id="line2d_54">
      <g>
       <use xlink:href="#m4cd8b1cfa1" x="36.410547" y="14.652207" style="stroke: #000000; stroke-width: 0.6"/>
      </g>
     </g>
    </g>
    <g id="ytick_31">
     <g id="line2d_55">
      <g>
       <use xlink:href="#m4cd8b1cfa1" x="36.410547" y="7.2" style="stroke: #000000; stroke-width: 0.6"/>
      </g>
     </g>
    </g>
    <g id="text_13">
     <!-- $\varepsilon_u \ [\%]$ -->
     <g transform="translate(15.407214 136.663596) rotate(-90) scale(0.12 -0.12)">
      <defs>
       <path id="NewTXBMI-39" d="M 3264 2330 
C 3264 2829 2394 2944 2022 2944 
C 1491 2944 634 2715 634 2040 
C 634 1759 851 1628 1088 1543 
C 659 1485 109 1219 109 724 
C 109 70 896 -64 1402 -64 
C 1907 -64 2515 86 2854 495 
C 2938 592 3008 715 3008 844 
C 3008 1000 2874 1117 2726 1117 
C 2298 1117 2291 135 1472 135 
C 1114 135 973 338 973 673 
C 973 1021 1197 1344 1574 1344 
C 1760 1344 1939 1274 2131 1274 
C 2298 1274 2362 1370 2362 1530 
C 2362 1677 2272 1728 2138 1728 
C 2029 1728 1926 1671 1818 1671 
C 1632 1671 1414 1730 1414 1961 
C 1414 2337 1587 2739 2010 2739 
C 2618 2739 2496 2029 2976 2029 
C 3174 2029 3264 2138 3264 2330 
z
" transform="scale(0.015625)"/>
       <path id="NewTXBMI-75" d="M 3149 757 
L 3014 840 
C 2790 499 2662 372 2554 372 
C 2502 372 2464 416 2464 481 
C 2464 558 2534 866 2624 1156 
L 3123 2880 
L 2368 2880 
C 2010 1638 1830 1214 1459 751 
C 1261 507 1120 397 992 397 
C 902 397 858 448 858 558 
C 858 654 864 693 954 983 
L 1555 2963 
C 1517 2954 1472 2947 1376 2923 
C 902 2818 525 2752 218 2752 
L 218 2560 
C 512 2560 576 2528 576 2401 
C 576 2299 544 2121 486 1937 
L 230 1092 
C 141 775 96 565 96 406 
C 96 95 256 -64 576 -64 
C 1005 -64 1197 102 1856 1017 
C 1741 667 1702 502 1702 318 
C 1702 57 1837 -64 2118 -64 
C 2502 -64 2816 191 3149 757 
z
" transform="scale(0.015625)"/>
       <path id="txbsys-bb" d="M 1914 -928 
L 1555 -928 
C 1344 -928 1242 -819 1242 -595 
L 1242 3974 
C 1242 4173 1325 4256 1530 4256 
L 1914 4256 
L 1914 4544 
L 563 4544 
L 563 -1216 
L 1914 -1216 
L 1914 -928 
z
" transform="scale(0.015625)"/>
       <path id="TeXGyreTermesX-Bold-25" d="M 6029 1154 
C 6029 1792 5619 2372 5011 2372 
C 4371 2372 3910 1792 3910 1142 
C 3910 492 4378 -64 5011 -64 
C 5619 -64 6029 517 6029 1154 
z
M 4128 4416 
L 3859 4416 
C 3565 4098 3258 3968 2822 3968 
C 2547 3968 2362 4010 2150 4110 
C 1990 4234 1798 4305 1574 4305 
C 934 4305 474 3728 474 3082 
C 474 2435 941 1884 1574 1884 
C 2182 1884 2592 2466 2592 3105 
C 2592 3340 2534 3567 2438 3764 
C 2560 3739 2682 3726 2810 3726 
C 3066 3726 3315 3784 3578 3898 
L 2381 -64 
L 2765 -64 
L 4128 4416 
z
M 5850 1141 
C 5850 726 5626 229 5254 229 
C 4858 229 4685 688 4685 1141 
C 4685 1589 4858 2048 5254 2048 
C 5626 2048 5850 1551 5850 1141 
z
M 2413 3076 
C 2413 2666 2189 2176 1818 2176 
C 1421 2176 1248 2634 1248 3085 
C 1248 3517 1414 3968 1792 3968 
C 1907 3900 2035 3844 2157 3801 
C 2323 3621 2413 3329 2413 3076 
z
" transform="scale(0.015625)"/>
       <path id="txbsys-bc" d="M 256 -928 
L 256 -1216 
L 1606 -1216 
L 1606 4544 
L 256 4544 
L 256 4256 
L 640 4256 
C 845 4256 928 4173 928 3974 
L 928 -595 
C 928 -819 826 -928 614 -928 
L 256 -928 
z
" transform="scale(0.015625)"/>
      </defs>
      <use xlink:href="#NewTXBMI-39" transform="scale(0.996264)"/>
      <use xlink:href="#NewTXBMI-75" transform="translate(55.333515 -14.943915) scale(0.727268)"/>
      <use xlink:href="#txbsys-bb" transform="translate(123.647102 0) scale(0.996264)"/>
      <use xlink:href="#TeXGyreTermesX-Bold-25" transform="translate(157.420416 0) scale(0.996264)"/>
      <use xlink:href="#txbsys-bc" transform="translate(257.046817 0) scale(0.996264)"/>
     </g>
    </g>
   </g>
   <g id="line2d_56">
    <path d="M 139.321289 210.811176 
L 142.334713 210.558541 
L 145.348137 210.305906 
L 148.361561 210.053271 
L 151.374985 209.800637 
L 154.388409 209.548002 
L 157.401833 209.295367 
L 160.415257 209.042732 
L 163.428681 208.790097 
L 166.442106 208.537462 
L 169.45553 208.409583 
L 172.468954 208.409583 
L 175.482378 208.409583 
L 178.495802 208.409583 
L 181.509226 208.409583 
L 184.52265 208.409583 
L 187.536074 208.409583 
L 190.549498 208.409583 
L 193.562922 208.409583 
L 196.576346 208.409583 
L 199.58977 208.660135 
L 202.603194 209.039088 
L 205.616618 209.41804 
L 208.630042 209.796992 
L 211.643466 210.175944 
L 214.65689 210.554897 
L 217.670314 210.933849 
L 220.683738 211.312801 
L 223.697162 211.691753 
L 226.710586 212.070706 
L 229.72401 212.658972 
L 232.737434 213.290559 
L 235.750858 213.922146 
L 238.764282 214.553733 
L 241.777706 215.18532 
L 244.79113 215.816907 
L 247.804554 216.448494 
L 250.817978 217.080081 
L 253.831402 217.711669 
L 256.844826 218.343256 
" clip-path="url(#p734ec422e1)" style="fill: none; stroke: #000000; stroke-linecap: square"/>
   </g>
   <g id="patch_3">
    <path d="M 36.410547 230.766203 
L 36.410547 7.2 
" style="fill: none; stroke: #000000; stroke-width: 0.8; stroke-linejoin: miter; stroke-linecap: square"/>
   </g>
   <g id="patch_4">
    <path d="M 453.6 230.766203 
L 453.6 7.2 
" style="fill: none; stroke: #000000; stroke-width: 0.8; stroke-linejoin: miter; stroke-linecap: square"/>
   </g>
   <g id="patch_5">
    <path d="M 36.410547 230.766203 
L 453.6 230.766203 
" style="fill: none; stroke: #000000; stroke-width: 0.8; stroke-linejoin: miter; stroke-linecap: square"/>
   </g>
   <g id="patch_6">
    <path d="M 36.410547 7.2 
L 453.6 7.2 
" style="fill: none; stroke: #000000; stroke-width: 0.8; stroke-linejoin: miter; stroke-linecap: square"/>
   </g>
  </g>
  <g id="axes_2">
   <g id="legend_1">
    <g id="patch_7">
     <path d="M 82.910897 365.79297 
L 407.09965 365.79297 
Q 408.99965 365.79297 408.99965 363.89297 
L 408.99965 269.614725 
Q 408.99965 267.714725 407.09965 267.714725 
L 82.910897 267.714725 
Q 81.010897 267.714725 81.010897 269.614725 
L 81.010897 363.89297 
Q 81.010897 365.79297 82.910897 365.79297 
z
" style="fill: #ffffff; opacity: 0.8; stroke: #000000; stroke-linejoin: miter"/>
    </g>
    <g id="line2d_57">
     <path d="M 84.810897 274.989969 
L 94.310897 274.989969 
L 103.810897 274.989969 
" style="fill: none; stroke: #000000; stroke-linecap: square"/>
    </g>
    <g id="text_14">
     <!-- \textbf{ITER ($\mathbf{W}$)} -->
     <g transform="translate(111.410897 278.314969) scale(0.095 -0.095)">
      <defs>
       <path id="TeXGyreTermesX-Bold-49" d="M 2368 0 
L 2368 172 
C 1882 172 1760 261 1760 594 
L 1760 3683 
C 1760 4015 1894 4117 2368 4117 
L 2368 4288 
L 128 4288 
L 128 4117 
C 589 4117 723 4022 723 3697 
L 723 612 
C 723 293 608 204 128 159 
L 128 0 
L 2368 0 
z
" transform="scale(0.015625)"/>
       <path id="TeXGyreTermesX-Bold-45" d="M 4102 1324 
L 3923 1324 
C 3731 910 3603 731 3386 547 
C 3085 305 2733 197 2234 197 
C 1818 197 1702 280 1702 553 
L 1702 2094 
C 2400 2094 2662 1846 2739 1108 
L 2906 1108 
L 2906 3251 
L 2739 3251 
C 2643 2531 2394 2304 1702 2304 
L 1702 3774 
C 1702 4015 1786 4072 2118 4072 
C 3162 4072 3475 3858 3635 3018 
L 3795 3018 
L 3795 4288 
L 102 4288 
L 102 4117 
C 544 4117 666 4015 666 3691 
L 666 611 
C 666 280 576 210 102 159 
L 102 0 
L 3846 0 
L 4102 1324 
z
" transform="scale(0.015625)"/>
       <path id="TeXGyreTermesX-Bold-52" d="M 4576 0 
L 4576 159 
C 4461 159 4378 197 4314 280 
L 3027 2086 
C 3405 2207 3565 2290 3744 2448 
C 3930 2620 4032 2873 4032 3159 
C 4032 3889 3398 4288 2227 4288 
L 166 4288 
L 166 4110 
C 640 4110 730 4015 730 3557 
L 730 744 
C 730 280 666 216 166 159 
L 166 0 
L 2330 0 
L 2330 159 
C 1830 223 1766 292 1766 742 
L 1766 1984 
L 1939 1984 
L 3264 0 
L 4576 0 
z
M 2938 3130 
C 2938 2723 2842 2474 2637 2340 
C 2470 2232 2253 2187 1766 2187 
L 1766 3805 
C 1766 3843 1792 3938 1811 3977 
C 1850 4040 1952 4072 2112 4072 
C 2701 4072 2938 3799 2938 3130 
z
" transform="scale(0.015625)"/>
       <path id="TeXGyreTermesX-Bold-28" d="M 1958 -1068 
L 1958 -890 
C 1594 -661 1434 -496 1299 -210 
C 1107 184 1018 770 1018 1641 
C 1018 2518 1107 3161 1286 3542 
C 1421 3822 1574 3988 1958 4242 
L 1958 4414 
C 1562 4204 1382 4070 1133 3810 
C 589 3224 294 2468 294 1647 
C 294 1068 454 502 762 19 
C 1056 -439 1331 -693 1958 -1068 
z
" transform="scale(0.015625)"/>
       <path id="TeXGyreTermesX-Bold-57" d="M 6278 4173 
L 6278 4331 
L 5114 4331 
L 5114 4160 
C 5459 4160 5555 4097 5555 3898 
C 5555 3816 5542 3720 5510 3631 
L 4794 1444 
L 4102 3591 
C 4038 3795 4013 3892 4013 3949 
C 4013 4103 4109 4160 4390 4160 
C 4390 4160 4435 4160 4474 4173 
L 4474 4331 
L 2477 4331 
L 2477 4160 
C 2739 4160 2867 4102 2938 3950 
L 3162 3339 
L 2406 1380 
L 1638 3696 
C 1606 3798 1594 3849 1594 3906 
C 1594 4091 1670 4148 2003 4173 
L 2003 4331 
L 122 4331 
L 122 4173 
C 390 4135 454 4078 563 3766 
L 1920 -64 
L 2099 -64 
L 3290 2970 
L 4384 -64 
L 4557 -64 
L 5837 3766 
C 5920 4021 6067 4154 6278 4173 
z
" transform="scale(0.015625)"/>
       <path id="TeXGyreTermesX-Bold-29" d="M 1837 1692 
C 1837 2277 1677 2843 1370 3326 
C 1075 3784 800 4038 173 4414 
L 173 4236 
C 538 4000 698 3841 832 3555 
C 1024 3161 1114 2569 1114 1704 
C 1114 827 1024 184 845 -197 
C 717 -477 557 -642 173 -897 
L 173 -1068 
C 570 -859 749 -725 992 -464 
C 1542 121 1837 878 1837 1692 
z
" transform="scale(0.015625)"/>
      </defs>
      <use xlink:href="#TeXGyreTermesX-Bold-49" transform="scale(0.996264)"/>
      <use xlink:href="#TeXGyreTermesX-Bold-54" transform="translate(38.754664 0) scale(0.996264)"/>
      <use xlink:href="#TeXGyreTermesX-Bold-45" transform="translate(105.205455 0) scale(0.996264)"/>
      <use xlink:href="#TeXGyreTermesX-Bold-52" transform="translate(171.656246 0) scale(0.996264)"/>
      <use xlink:href="#TeXGyreTermesX-Bold-28" transform="translate(268.49312 0) scale(0.996264)"/>
      <use xlink:href="#TeXGyreTermesX-Bold-57" transform="translate(301.66873 0) scale(0.996264)"/>
      <use xlink:href="#TeXGyreTermesX-Bold-29" transform="translate(401.295131 0) scale(0.996264)"/>
     </g>
    </g>
    <g id="PathCollection_13">
     <defs>
      <path id="mbe67e713f0" d="M 0 -3.354102 
L -2.904738 -1.677051 
L -2.904738 1.677051 
L -0 3.354102 
L 2.904738 1.677051 
L 2.904738 -1.677051 
z
" style="stroke: #000000"/>
     </defs>
     <g>
      <use xlink:href="#mbe67e713f0" x="94.310897" y="289.425254" style="fill: #e41a1c; stroke: #000000"/>
     </g>
    </g>
    <g id="text_15">
     <!-- \textbf{Nogami $(W)$ (H)} -->
     <g transform="translate(111.410897 291.919004) scale(0.095 -0.095)">
      <defs>
       <path id="TeXGyreTermesX-Bold-4e" d="M 4486 4160 
L 4486 4319 
L 3110 4319 
L 3110 4160 
C 3584 4116 3706 3982 3706 3531 
L 3706 1590 
L 1472 4319 
L 122 4319 
L 122 4160 
C 250 4160 358 4065 666 3702 
L 666 686 
C 666 323 570 234 102 177 
L 102 18 
L 1555 18 
L 1555 177 
C 1062 234 947 355 947 807 
L 947 3365 
L 3808 -96 
L 3987 -96 
L 3987 3651 
C 3987 4014 4070 4097 4486 4160 
z
" transform="scale(0.015625)"/>
       <path id="TeXGyreTermesX-Bold-6f" d="M 3046 1471 
C 3046 2356 2432 3013 1606 3013 
C 794 3013 160 2349 160 1490 
C 160 587 768 -64 1606 -64 
C 2432 -64 3046 593 3046 1471 
z
M 2106 1433 
C 2106 462 1978 133 1606 133 
C 1229 133 1101 455 1101 1377 
C 1101 2487 1216 2816 1613 2816 
C 1984 2816 2106 2469 2106 1433 
z
" transform="scale(0.015625)"/>
       <path id="TeXGyreTermesX-Bold-67" d="M 3091 -328 
C 3091 158 2694 448 2042 448 
L 1626 448 
C 1114 448 986 495 986 680 
C 986 878 1165 1024 1421 1024 
L 1709 1024 
C 2010 1024 2170 1063 2387 1188 
C 2675 1352 2822 1610 2822 1943 
C 2822 2195 2746 2384 2566 2560 
L 3085 2560 
L 3085 2897 
L 2253 2897 
C 1971 2982 1792 3013 1536 3013 
C 774 3013 237 2601 237 2009 
C 237 1797 320 1591 467 1417 
C 608 1267 730 1187 1030 1062 
C 525 886 269 639 269 301 
C 269 35 384 -83 794 -232 
C 390 -288 179 -445 179 -703 
C 179 -1067 659 -1280 1466 -1280 
C 2528 -1280 3091 -952 3091 -328 
z
M 2586 -627 
C 2586 -914 2234 -1077 1600 -1077 
C 1037 -1077 742 -933 742 -659 
C 742 -527 787 -458 966 -315 
L 2074 -315 
C 2419 -315 2586 -421 2586 -627 
z
M 1958 2003 
C 1958 1425 1837 1202 1536 1202 
C 1229 1202 1114 1425 1114 2003 
C 1114 2587 1235 2816 1536 2816 
C 1837 2816 1958 2580 1958 2003 
z
" transform="scale(0.015625)"/>
       <path id="TeXGyreTermesX-Bold-69" d="M 1632 -32 
L 1632 121 
C 1408 152 1331 241 1331 484 
L 1331 2908 
L 102 2908 
L 102 2755 
C 384 2698 442 2641 442 2379 
L 442 503 
C 442 241 397 191 102 121 
L 102 -32 
L 1632 -32 
z
M 1370 3882 
C 1370 4162 1152 4372 877 4372 
C 602 4372 384 4162 384 3882 
C 384 3602 602 3392 877 3392 
C 1152 3392 1370 3602 1370 3882 
z
" transform="scale(0.015625)"/>
       <path id="txbsys-b9" d="M 2016 4589 
C 1088 3987 435 3078 435 1645 
C 435 326 1114 -749 1997 -1293 
L 2163 -1062 
C 1318 -397 1178 634 1178 1664 
C 1178 2701 1338 3693 2163 4358 
L 2016 4589 
z
" transform="scale(0.015625)"/>
       <path id="NewTXBMI-5d" d="M 6016 4103 
L 6016 4256 
L 4819 4256 
L 4819 4096 
C 5178 4070 5222 4038 5222 3809 
C 5222 3732 5210 3681 5126 3515 
L 4128 1429 
L 3917 3311 
C 3878 3650 3878 3650 3878 3725 
C 3878 4006 3942 4064 4282 4096 
L 4282 4256 
L 2560 4256 
L 2560 4103 
C 2944 4052 3008 3962 3014 3414 
L 2054 1429 
L 1805 3656 
C 1798 3687 1798 3719 1798 3757 
C 1798 3987 1888 4057 2189 4096 
L 2189 4256 
L 416 4256 
L 416 4103 
C 826 4033 845 4020 909 3567 
L 1408 -128 
L 1594 -128 
L 3085 2992 
L 3462 -128 
L 3648 -128 
L 5478 3637 
C 5658 3988 5747 4065 6016 4103 
z
" transform="scale(0.015625)"/>
       <path id="txbsys-ba" d="M 582 4589 
L 435 4358 
C 1261 3693 1421 2701 1421 1664 
C 1421 634 1280 -397 435 -1062 
L 602 -1293 
C 1485 -749 2163 326 2163 1645 
C 2163 3078 1510 3987 582 4589 
z
" transform="scale(0.015625)"/>
       <path id="TeXGyreTermesX-Bold-48" d="M 4858 -32 
L 4858 128 
C 4397 185 4294 269 4294 582 
L 4294 3675 
C 4294 3994 4422 4096 4858 4128 
L 4858 4288 
L 2682 4288 
L 2682 4128 
C 3130 4096 3258 3994 3258 3674 
L 3258 2347 
L 1715 2347 
L 1715 3674 
C 1715 3994 1843 4096 2291 4128 
L 2291 4288 
L 134 4288 
L 134 4128 
C 563 4090 678 3994 678 3675 
L 678 582 
C 678 269 582 185 134 128 
L 134 -32 
L 2291 -32 
L 2291 128 
C 1824 179 1715 268 1715 581 
L 1715 2048 
L 3258 2048 
L 3258 581 
C 3258 268 3149 179 2682 128 
L 2682 -32 
L 4858 -32 
z
" transform="scale(0.015625)"/>
      </defs>
      <use xlink:href="#TeXGyreTermesX-Bold-4e" transform="scale(0.996264)"/>
      <use xlink:href="#TeXGyreTermesX-Bold-6f" transform="translate(70.435832 0) scale(0.996264)"/>
      <use xlink:href="#TeXGyreTermesX-Bold-67" transform="translate(120.249033 0) scale(0.996264)"/>
      <use xlink:href="#TeXGyreTermesX-Bold-61" transform="translate(168.567791 0) scale(0.996264)"/>
      <use xlink:href="#TeXGyreTermesX-Bold-6d" transform="translate(218.380992 0) scale(0.996264)"/>
      <use xlink:href="#TeXGyreTermesX-Bold-69" transform="translate(301.369802 0) scale(0.996264)"/>
      <use xlink:href="#txbsys-b9" transform="translate(358.953865 0) scale(0.996264)"/>
      <use xlink:href="#NewTXBMI-5d" transform="translate(396.014944 0) scale(0.996264)"/>
      <use xlink:href="#txbsys-ba" transform="translate(491.207928 0) scale(0.996264)"/>
      <use xlink:href="#TeXGyreTermesX-Bold-28" transform="translate(558.754554 0) scale(0.996264)"/>
      <use xlink:href="#TeXGyreTermesX-Bold-48" transform="translate(591.930164 0) scale(0.996264)"/>
      <use xlink:href="#TeXGyreTermesX-Bold-29" transform="translate(669.439492 0) scale(0.996264)"/>
     </g>
    </g>
    <g id="PathCollection_14">
     <g>
      <use xlink:href="#mbe67e713f0" x="94.310897" y="303.029289" style="fill: #e41a1c; stroke: #000000"/>
     </g>
    </g>
    <g id="text_16">
     <!-- \textbf{Nogami  $(W3\%Re)$ (H)} -->
     <g transform="translate(111.410897 305.523039) scale(0.095 -0.095)">
      <defs>
       <path id="NewTXBMI-58" d="M 3853 0 
L 3853 160 
C 3494 192 3430 243 3290 620 
L 2758 2189 
C 3104 2260 3264 2318 3456 2446 
C 3795 2672 3987 3007 3987 3367 
C 3987 3985 3494 4288 2477 4288 
L 710 4288 
L 710 4128 
C 774 4121 845 4108 915 4096 
C 1114 4070 1178 4019 1178 3891 
C 1178 3814 1146 3621 1114 3499 
L 326 622 
C 224 288 128 198 -186 160 
L -186 0 
L 1709 0 
L 1709 173 
C 1338 173 1248 224 1248 417 
C 1248 506 1280 667 1338 873 
L 1690 2112 
L 1875 2112 
L 2560 0 
L 3853 0 
z
M 3021 3468 
C 3021 3041 2842 2647 2560 2472 
C 2394 2361 2144 2317 1747 2317 
L 2131 3799 
C 2189 4032 2246 4083 2445 4083 
C 2810 4083 3021 3863 3021 3468 
z
" transform="scale(0.015625)"/>
       <path id="NewTXBMI-65" d="M 2214 815 
L 2029 924 
C 1734 485 1549 345 1274 345 
C 1005 345 864 524 864 867 
C 864 970 877 1052 902 1180 
C 1568 1307 1882 1448 2202 1740 
C 2426 1944 2547 2180 2547 2409 
C 2547 2733 2266 2963 1875 2963 
C 947 2963 32 1924 32 873 
C 32 331 442 -64 998 -64 
C 1491 -64 1830 184 2214 815 
z
M 1958 2535 
C 1958 2255 1850 1981 1645 1771 
C 1472 1586 1312 1497 947 1383 
C 1178 2267 1472 2752 1779 2752 
C 1901 2752 1958 2681 1958 2535 
z
" transform="scale(0.015625)"/>
      </defs>
      <use xlink:href="#TeXGyreTermesX-Bold-4e" transform="scale(0.996264)"/>
      <use xlink:href="#TeXGyreTermesX-Bold-6f" transform="translate(70.435832 0) scale(0.996264)"/>
      <use xlink:href="#TeXGyreTermesX-Bold-67" transform="translate(120.249033 0) scale(0.996264)"/>
      <use xlink:href="#TeXGyreTermesX-Bold-61" transform="translate(168.567791 0) scale(0.996264)"/>
      <use xlink:href="#TeXGyreTermesX-Bold-6d" transform="translate(218.380992 0) scale(0.996264)"/>
      <use xlink:href="#TeXGyreTermesX-Bold-69" transform="translate(301.369802 0) scale(0.996264)"/>
      <use xlink:href="#txbsys-b9" transform="translate(358.953865 0) scale(0.996264)"/>
      <use xlink:href="#NewTXBMI-5d" transform="translate(396.014944 0) scale(0.996264)"/>
      <use xlink:href="#TeXGyreTermesX-Bold-33" transform="translate(491.207928 0) scale(0.996264)"/>
      <use xlink:href="#TeXGyreTermesX-Bold-25" transform="translate(541.021128 0) scale(0.996264)"/>
      <use xlink:href="#NewTXBMI-58" transform="translate(646.923965 0) scale(0.996264)"/>
      <use xlink:href="#NewTXBMI-65" transform="translate(719.95009 0) scale(0.996264)"/>
      <use xlink:href="#txbsys-ba" transform="translate(767.571467 0) scale(0.996264)"/>
      <use xlink:href="#TeXGyreTermesX-Bold-28" transform="translate(835.118094 0) scale(0.996264)"/>
      <use xlink:href="#TeXGyreTermesX-Bold-48" transform="translate(868.293703 0) scale(0.996264)"/>
      <use xlink:href="#TeXGyreTermesX-Bold-29" transform="translate(945.803031 0) scale(0.996264)"/>
     </g>
    </g>
    <g id="PathCollection_15">
     <defs>
      <path id="m61036858e2" d="M 0 -3.354102 
L -3.354102 3.354102 
L 3.354102 3.354102 
z
" style="stroke: #000000"/>
     </defs>
     <g>
      <use xlink:href="#m61036858e2" x="94.310897" y="316.633324" style="fill: #e41a1c; stroke: #000000"/>
     </g>
    </g>
    <g id="text_17">
     <!-- \textbf{Nogami $(W3\%Re-1\%La_2O_3)$ (L)} -->
     <g transform="translate(111.410897 319.127074) scale(0.095 -0.095)">
      <defs>
       <path id="txbsys-0" d="M 3929 1341 
L 3929 1955 
L 396 1955 
L 396 1341 
L 3929 1341 
z
" transform="scale(0.015625)"/>
       <path id="NewTXBMI-52" d="M 3776 1242 
L 3622 1274 
C 3411 922 3277 774 3040 595 
C 2688 339 2234 205 1690 205 
C 1402 205 1280 262 1280 397 
C 1280 448 1293 532 1312 603 
L 2138 3678 
C 2240 4032 2362 4115 2784 4115 
L 2784 4288 
L 755 4288 
L 755 4128 
C 819 4121 890 4108 960 4096 
C 1158 4070 1222 4019 1222 3891 
C 1222 3814 1190 3621 1158 3499 
L 371 622 
C 269 288 173 198 -141 160 
L -141 0 
L 3398 0 
L 3776 1242 
z
" transform="scale(0.015625)"/>
       <path id="NewTXBMI-61" d="M 2912 733 
L 2778 828 
C 2515 479 2419 384 2317 384 
C 2266 384 2240 421 2240 478 
C 2240 636 2298 893 2458 1409 
L 2912 2893 
L 2202 2893 
L 2086 2498 
C 2029 2823 1888 2957 1613 2957 
C 826 2957 -134 1736 -134 744 
C -134 260 141 -64 557 -64 
C 947 -64 1242 165 1606 778 
C 1530 518 1517 442 1517 354 
C 1517 120 1709 -64 1946 -64 
C 2246 -64 2541 183 2912 733 
z
M 1939 2389 
C 1939 2007 1728 1301 1478 861 
C 1306 550 1114 384 941 384 
C 774 384 653 530 653 728 
C 653 1059 864 1696 1126 2166 
C 1312 2491 1517 2688 1690 2688 
C 1690 2688 1696 2688 1702 2688 
C 1843 2675 1939 2561 1939 2389 
z
" transform="scale(0.015625)"/>
       <path id="NewTXBMI-55" d="M 4422 2898 
C 4422 3750 3763 4378 2874 4378 
C 2419 4378 1965 4224 1536 3923 
C 742 3365 173 2314 173 1403 
C 173 487 781 -128 1683 -128 
C 2170 -128 2643 25 3059 327 
C 3872 904 4422 1942 4422 2898 
z
M 3501 3398 
C 3501 2641 3117 1378 2701 743 
C 2400 294 2099 89 1747 89 
C 1344 89 1094 385 1094 865 
C 1094 1493 1402 2628 1734 3250 
C 2067 3872 2419 4160 2854 4160 
C 3238 4160 3501 3852 3501 3398 
z
" transform="scale(0.015625)"/>
       <path id="TeXGyreTermesX-Bold-4c" d="M 4083 1441 
L 3898 1441 
C 3680 946 3558 749 3334 546 
C 3072 312 2714 197 2214 197 
C 1824 197 1709 280 1709 553 
L 1709 3557 
C 1709 4034 1798 4117 2355 4117 
L 2355 4288 
L 122 4288 
L 122 4117 
C 557 4117 672 4015 672 3691 
L 672 611 
C 672 286 589 216 122 159 
L 122 0 
L 3821 0 
L 4083 1441 
z
" transform="scale(0.015625)"/>
      </defs>
      <use xlink:href="#TeXGyreTermesX-Bold-4e" transform="scale(0.996264)"/>
      <use xlink:href="#TeXGyreTermesX-Bold-6f" transform="translate(70.435832 0) scale(0.996264)"/>
      <use xlink:href="#TeXGyreTermesX-Bold-67" transform="translate(120.249033 0) scale(0.996264)"/>
      <use xlink:href="#TeXGyreTermesX-Bold-61" transform="translate(168.567791 0) scale(0.996264)"/>
      <use xlink:href="#TeXGyreTermesX-Bold-6d" transform="translate(218.380992 0) scale(0.996264)"/>
      <use xlink:href="#TeXGyreTermesX-Bold-69" transform="translate(301.369802 0) scale(0.996264)"/>
      <use xlink:href="#txbsys-b9" transform="translate(358.953865 0) scale(0.996264)"/>
      <use xlink:href="#NewTXBMI-5d" transform="translate(396.014944 0) scale(0.996264)"/>
      <use xlink:href="#TeXGyreTermesX-Bold-33" transform="translate(491.207928 0) scale(0.996264)"/>
      <use xlink:href="#TeXGyreTermesX-Bold-25" transform="translate(541.021128 0) scale(0.996264)"/>
      <use xlink:href="#NewTXBMI-58" transform="translate(646.923965 0) scale(0.996264)"/>
      <use xlink:href="#NewTXBMI-65" transform="translate(719.95009 0) scale(0.996264)"/>
      <use xlink:href="#txbsys-0" transform="translate(789.710613 0) scale(0.996264)"/>
      <use xlink:href="#TeXGyreTermesX-Bold-31" transform="translate(879.197167 0) scale(0.996264)"/>
      <use xlink:href="#TeXGyreTermesX-Bold-25" transform="translate(929.010367 0) scale(0.996264)"/>
      <use xlink:href="#NewTXBMI-52" transform="translate(1035.212101 0) scale(0.996264)"/>
      <use xlink:href="#NewTXBMI-61" transform="translate(1106.146172 0) scale(0.996264)"/>
      <use xlink:href="#TeXGyreTermesX-Bold-32" transform="translate(1159.645531 -14.943915) scale(0.727268)"/>
      <use xlink:href="#NewTXBMI-55" transform="translate(1197.403703 0) scale(0.996264)"/>
      <use xlink:href="#TeXGyreTermesX-Bold-33" transform="translate(1274.813459 -14.943915) scale(0.727268)"/>
      <use xlink:href="#txbsys-ba" transform="translate(1311.675014 0) scale(0.996264)"/>
      <use xlink:href="#TeXGyreTermesX-Bold-28" transform="translate(1379.221641 0) scale(0.996264)"/>
      <use xlink:href="#TeXGyreTermesX-Bold-4c" transform="translate(1412.397251 0) scale(0.996264)"/>
      <use xlink:href="#TeXGyreTermesX-Bold-29" transform="translate(1478.848042 0) scale(0.996264)"/>
     </g>
    </g>
    <g id="PathCollection_16">
     <g>
      <use xlink:href="#mbe67e713f0" x="94.310897" y="330.237359" style="fill: #e41a1c; stroke: #000000"/>
     </g>
    </g>
    <g id="text_18">
     <!-- \textbf{Nogami $(K-W3\%Re)$ (H)} -->
     <g transform="translate(111.410897 332.731109) scale(0.095 -0.095)">
      <defs>
       <path id="NewTXBMI-51" d="M 3917 0 
L 3917 160 
C 3674 186 3584 230 3514 384 
L 2509 2551 
L 3891 3820 
C 4166 4070 4218 4089 4493 4128 
L 4493 4288 
L 3142 4288 
L 3142 4128 
L 3277 4115 
C 3437 4096 3501 4051 3501 3955 
C 3501 3833 3373 3666 3008 3327 
L 1747 2205 
L 2144 3666 
C 2246 4000 2368 4096 2746 4128 
L 2746 4288 
L 762 4288 
L 762 4128 
L 960 4096 
C 1165 4070 1229 4012 1229 3872 
C 1229 3794 1210 3679 1158 3499 
L 378 622 
C 275 282 179 198 -134 160 
L -134 0 
L 1715 0 
L 1715 160 
C 1382 186 1293 243 1293 455 
C 1293 494 1299 532 1306 564 
L 1734 2160 
L 2458 609 
C 2522 467 2541 410 2541 333 
C 2541 243 2470 192 2298 179 
L 2125 160 
L 2125 0 
L 3917 0 
z
" transform="scale(0.015625)"/>
      </defs>
      <use xlink:href="#TeXGyreTermesX-Bold-4e" transform="scale(0.996264)"/>
      <use xlink:href="#TeXGyreTermesX-Bold-6f" transform="translate(70.435832 0) scale(0.996264)"/>
      <use xlink:href="#TeXGyreTermesX-Bold-67" transform="translate(120.249033 0) scale(0.996264)"/>
      <use xlink:href="#TeXGyreTermesX-Bold-61" transform="translate(168.567791 0) scale(0.996264)"/>
      <use xlink:href="#TeXGyreTermesX-Bold-6d" transform="translate(218.380992 0) scale(0.996264)"/>
      <use xlink:href="#TeXGyreTermesX-Bold-69" transform="translate(301.369802 0) scale(0.996264)"/>
      <use xlink:href="#txbsys-b9" transform="translate(358.953865 0) scale(0.996264)"/>
      <use xlink:href="#NewTXBMI-51" transform="translate(400.099572 0) scale(0.996264)"/>
      <use xlink:href="#txbsys-0" transform="translate(494.268548 0) scale(0.996264)"/>
      <use xlink:href="#NewTXBMI-5d" transform="translate(583.157383 0) scale(0.996264)"/>
      <use xlink:href="#TeXGyreTermesX-Bold-33" transform="translate(678.350366 0) scale(0.996264)"/>
      <use xlink:href="#TeXGyreTermesX-Bold-25" transform="translate(728.163567 0) scale(0.996264)"/>
      <use xlink:href="#NewTXBMI-58" transform="translate(834.066404 0) scale(0.996264)"/>
      <use xlink:href="#NewTXBMI-65" transform="translate(907.092528 0) scale(0.996264)"/>
      <use xlink:href="#txbsys-ba" transform="translate(954.713905 0) scale(0.996264)"/>
      <use xlink:href="#TeXGyreTermesX-Bold-28" transform="translate(1022.260532 0) scale(0.996264)"/>
      <use xlink:href="#TeXGyreTermesX-Bold-48" transform="translate(1055.436142 0) scale(0.996264)"/>
      <use xlink:href="#TeXGyreTermesX-Bold-29" transform="translate(1132.94547 0) scale(0.996264)"/>
     </g>
    </g>
    <g id="PathCollection_17">
     <g>
      <use xlink:href="#m61036858e2" x="94.310897" y="343.841394" style="fill: #e41a1c; stroke: #000000"/>
     </g>
    </g>
    <g id="text_19">
     <!-- \textbf{Nogami $(W3\%Re)$ (L)} -->
     <g transform="translate(111.410897 346.335144) scale(0.095 -0.095)">
      <use xlink:href="#TeXGyreTermesX-Bold-4e" transform="scale(0.996264)"/>
      <use xlink:href="#TeXGyreTermesX-Bold-6f" transform="translate(70.435832 0) scale(0.996264)"/>
      <use xlink:href="#TeXGyreTermesX-Bold-67" transform="translate(120.249033 0) scale(0.996264)"/>
      <use xlink:href="#TeXGyreTermesX-Bold-61" transform="translate(168.567791 0) scale(0.996264)"/>
      <use xlink:href="#TeXGyreTermesX-Bold-6d" transform="translate(218.380992 0) scale(0.996264)"/>
      <use xlink:href="#TeXGyreTermesX-Bold-69" transform="translate(301.369802 0) scale(0.996264)"/>
      <use xlink:href="#txbsys-b9" transform="translate(358.953865 0) scale(0.996264)"/>
      <use xlink:href="#NewTXBMI-5d" transform="translate(396.014944 0) scale(0.996264)"/>
      <use xlink:href="#TeXGyreTermesX-Bold-33" transform="translate(491.207928 0) scale(0.996264)"/>
      <use xlink:href="#TeXGyreTermesX-Bold-25" transform="translate(541.021128 0) scale(0.996264)"/>
      <use xlink:href="#NewTXBMI-58" transform="translate(646.923965 0) scale(0.996264)"/>
      <use xlink:href="#NewTXBMI-65" transform="translate(719.95009 0) scale(0.996264)"/>
      <use xlink:href="#txbsys-ba" transform="translate(767.571467 0) scale(0.996264)"/>
      <use xlink:href="#TeXGyreTermesX-Bold-28" transform="translate(835.118094 0) scale(0.996264)"/>
      <use xlink:href="#TeXGyreTermesX-Bold-4c" transform="translate(868.293703 0) scale(0.996264)"/>
      <use xlink:href="#TeXGyreTermesX-Bold-29" transform="translate(934.744495 0) scale(0.996264)"/>
     </g>
    </g>
    <g id="PathCollection_18">
     <g>
      <use xlink:href="#m61036858e2" x="94.310897" y="357.445429" style="fill: #e41a1c; stroke: #000000"/>
     </g>
    </g>
    <g id="text_20">
     <!-- \textbf{Nogami $(K-W3\%Re)$ (L)} -->
     <g transform="translate(111.410897 359.939179) scale(0.095 -0.095)">
      <use xlink:href="#TeXGyreTermesX-Bold-4e" transform="scale(0.996264)"/>
      <use xlink:href="#TeXGyreTermesX-Bold-6f" transform="translate(70.435832 0) scale(0.996264)"/>
      <use xlink:href="#TeXGyreTermesX-Bold-67" transform="translate(120.249033 0) scale(0.996264)"/>
      <use xlink:href="#TeXGyreTermesX-Bold-61" transform="translate(168.567791 0) scale(0.996264)"/>
      <use xlink:href="#TeXGyreTermesX-Bold-6d" transform="translate(218.380992 0) scale(0.996264)"/>
      <use xlink:href="#TeXGyreTermesX-Bold-69" transform="translate(301.369802 0) scale(0.996264)"/>
      <use xlink:href="#txbsys-b9" transform="translate(358.953865 0) scale(0.996264)"/>
      <use xlink:href="#NewTXBMI-51" transform="translate(400.099572 0) scale(0.996264)"/>
      <use xlink:href="#txbsys-0" transform="translate(494.268548 0) scale(0.996264)"/>
      <use xlink:href="#NewTXBMI-5d" transform="translate(583.157383 0) scale(0.996264)"/>
      <use xlink:href="#TeXGyreTermesX-Bold-33" transform="translate(678.350366 0) scale(0.996264)"/>
      <use xlink:href="#TeXGyreTermesX-Bold-25" transform="translate(728.163567 0) scale(0.996264)"/>
      <use xlink:href="#NewTXBMI-58" transform="translate(834.066404 0) scale(0.996264)"/>
      <use xlink:href="#NewTXBMI-65" transform="translate(907.092528 0) scale(0.996264)"/>
      <use xlink:href="#txbsys-ba" transform="translate(954.713905 0) scale(0.996264)"/>
      <use xlink:href="#TeXGyreTermesX-Bold-28" transform="translate(1022.260532 0) scale(0.996264)"/>
      <use xlink:href="#TeXGyreTermesX-Bold-4c" transform="translate(1055.436142 0) scale(0.996264)"/>
      <use xlink:href="#TeXGyreTermesX-Bold-29" transform="translate(1121.886933 0) scale(0.996264)"/>
     </g>
    </g>
    <g id="PathCollection_19">
     <g>
      <use xlink:href="#mbe67e713f0" x="284.454536" y="275.821219" style="fill: #e41a1c; stroke: #000000"/>
     </g>
    </g>
    <g id="text_21">
     <!-- \textbf{Nogami $(K-W)$ (H)} -->
     <g transform="translate(301.554536 278.314969) scale(0.095 -0.095)">
      <use xlink:href="#TeXGyreTermesX-Bold-4e" transform="scale(0.996264)"/>
      <use xlink:href="#TeXGyreTermesX-Bold-6f" transform="translate(70.435832 0) scale(0.996264)"/>
      <use xlink:href="#TeXGyreTermesX-Bold-67" transform="translate(120.249033 0) scale(0.996264)"/>
      <use xlink:href="#TeXGyreTermesX-Bold-61" transform="translate(168.567791 0) scale(0.996264)"/>
      <use xlink:href="#TeXGyreTermesX-Bold-6d" transform="translate(218.380992 0) scale(0.996264)"/>
      <use xlink:href="#TeXGyreTermesX-Bold-69" transform="translate(301.369802 0) scale(0.996264)"/>
      <use xlink:href="#txbsys-b9" transform="translate(358.953865 0) scale(0.996264)"/>
      <use xlink:href="#NewTXBMI-51" transform="translate(400.099572 0) scale(0.996264)"/>
      <use xlink:href="#txbsys-0" transform="translate(494.268548 0) scale(0.996264)"/>
      <use xlink:href="#NewTXBMI-5d" transform="translate(583.157383 0) scale(0.996264)"/>
      <use xlink:href="#txbsys-ba" transform="translate(678.350366 0) scale(0.996264)"/>
      <use xlink:href="#TeXGyreTermesX-Bold-28" transform="translate(745.896993 0) scale(0.996264)"/>
      <use xlink:href="#TeXGyreTermesX-Bold-48" transform="translate(779.072603 0) scale(0.996264)"/>
      <use xlink:href="#TeXGyreTermesX-Bold-29" transform="translate(856.581931 0) scale(0.996264)"/>
     </g>
    </g>
    <g id="PathCollection_20">
     <defs>
      <path id="m5b95f3b531" d="M 0 -3.354102 
L -2.904738 -1.677051 
L -2.904738 1.677051 
L -0 3.354102 
L 2.904738 1.677051 
L 2.904738 -1.677051 
z
" style="stroke: #000000"/>
     </defs>
     <g>
      <use xlink:href="#m5b95f3b531" x="284.454536" y="289.425254" style="fill: #008080; stroke: #000000"/>
     </g>
    </g>
    <g id="text_22">
     <!-- \textbf{Miyazawa $(W)$} -->
     <g transform="translate(301.554536 291.919004) scale(0.095 -0.095)">
      <defs>
       <path id="TeXGyreTermesX-Bold-4d" d="M 5894 -32 
L 5894 127 
C 5395 191 5331 262 5331 715 
L 5331 3540 
C 5331 4001 5427 4096 5894 4096 
L 5894 4274 
L 4282 4274 
L 3002 1268 
L 1722 4274 
L 102 4274 
L 102 4115 
C 570 4077 672 3994 672 3663 
L 672 637 
C 672 254 589 178 90 127 
L 90 -32 
L 1587 -32 
L 1587 127 
C 1062 165 941 286 941 758 
L 941 3752 
L 2554 -32 
L 2726 -32 
L 4339 3848 
L 4339 605 
C 4339 248 4250 172 3770 127 
L 3770 -32 
L 5894 -32 
z
" transform="scale(0.015625)"/>
       <path id="TeXGyreTermesX-Bold-79" d="M 3072 2791 
L 3072 2944 
L 2106 2944 
L 2106 2785 
C 2381 2785 2458 2740 2458 2587 
C 2458 2517 2445 2460 2387 2301 
L 1952 1080 
L 1491 2253 
C 1363 2576 1363 2576 1363 2627 
C 1363 2715 1440 2772 1600 2785 
L 1702 2785 
L 1702 2944 
L 102 2944 
L 102 2791 
C 250 2772 288 2753 326 2696 
C 346 2696 634 2076 742 1808 
L 1510 -61 
L 1395 -397 
C 1286 -714 1120 -917 973 -917 
C 915 -917 864 -866 864 -809 
C 864 -809 864 -790 870 -771 
C 877 -740 883 -708 883 -683 
C 883 -500 730 -372 512 -372 
C 275 -372 102 -538 102 -778 
C 102 -1070 358 -1280 723 -1280 
C 941 -1280 1126 -1203 1261 -1071 
C 1395 -925 1523 -671 1747 -75 
L 2701 2442 
C 2810 2709 2874 2772 3072 2791 
z
" transform="scale(0.015625)"/>
       <path id="TeXGyreTermesX-Bold-7a" d="M 2688 1022 
L 2509 1022 
C 2451 817 2400 702 2298 568 
C 2093 286 1882 204 1370 204 
L 1184 204 
L 2662 2778 
L 2662 2944 
L 288 2944 
L 243 2038 
L 410 2038 
C 570 2645 736 2740 1632 2740 
L 134 159 
L 134 0 
L 2586 0 
L 2688 1022 
z
" transform="scale(0.015625)"/>
       <path id="TeXGyreTermesX-Bold-77" d="M 4525 2792 
L 4525 2944 
L 3661 2944 
L 3661 2792 
C 3898 2767 3968 2716 3968 2571 
C 3968 2494 3885 2260 3686 1760 
L 3462 1165 
L 3245 1969 
C 3117 2406 3072 2583 3072 2641 
C 3072 2741 3136 2773 3379 2792 
L 3379 2944 
L 1882 2944 
L 1882 2792 
C 2131 2767 2138 2760 2259 2343 
L 2298 2222 
L 1862 1139 
L 1709 1544 
C 1651 1678 1606 1798 1574 1887 
C 1395 2330 1325 2532 1325 2615 
C 1325 2716 1389 2767 1568 2792 
L 1568 2944 
L 147 2944 
L 147 2792 
C 314 2760 339 2722 512 2305 
L 1459 -64 
L 1613 -64 
L 2413 1899 
L 3066 -64 
L 3213 -64 
L 4205 2475 
C 4307 2710 4358 2760 4525 2792 
z
" transform="scale(0.015625)"/>
      </defs>
      <use xlink:href="#TeXGyreTermesX-Bold-4d" transform="scale(0.996264)"/>
      <use xlink:href="#TeXGyreTermesX-Bold-69" transform="translate(94.047347 0) scale(0.996264)"/>
      <use xlink:href="#TeXGyreTermesX-Bold-79" transform="translate(121.743474 0) scale(0.996264)"/>
      <use xlink:href="#TeXGyreTermesX-Bold-61" transform="translate(168.567898 0) scale(0.996264)"/>
      <use xlink:href="#TeXGyreTermesX-Bold-7a" transform="translate(218.381098 0) scale(0.996264)"/>
      <use xlink:href="#TeXGyreTermesX-Bold-61" transform="translate(262.615245 0) scale(0.996264)"/>
      <use xlink:href="#TeXGyreTermesX-Bold-77" transform="translate(308.443389 0) scale(0.996264)"/>
      <use xlink:href="#TeXGyreTermesX-Bold-61" transform="translate(377.883033 0) scale(0.996264)"/>
      <use xlink:href="#txbsys-b9" transform="translate(457.584169 0) scale(0.996264)"/>
      <use xlink:href="#NewTXBMI-5d" transform="translate(494.645248 0) scale(0.996264)"/>
      <use xlink:href="#txbsys-ba" transform="translate(589.838232 0) scale(0.996264)"/>
     </g>
    </g>
    <g id="PathCollection_21">
     <defs>
      <path id="m8a6d4fa5d5" d="M -0 3.354102 
L 3.354102 -3.354102 
L -3.354102 -3.354102 
z
" style="stroke: #000000"/>
     </defs>
     <g>
      <use xlink:href="#m8a6d4fa5d5" x="284.454536" y="303.029289" style="fill: #008080; stroke: #000000"/>
     </g>
    </g>
    <g id="text_23">
     <!-- \textbf{Miyazawa $(K-W)$} -->
     <g transform="translate(301.554536 305.523039) scale(0.095 -0.095)">
      <use xlink:href="#TeXGyreTermesX-Bold-4d" transform="scale(0.996264)"/>
      <use xlink:href="#TeXGyreTermesX-Bold-69" transform="translate(94.047347 0) scale(0.996264)"/>
      <use xlink:href="#TeXGyreTermesX-Bold-79" transform="translate(121.743474 0) scale(0.996264)"/>
      <use xlink:href="#TeXGyreTermesX-Bold-61" transform="translate(168.567898 0) scale(0.996264)"/>
      <use xlink:href="#TeXGyreTermesX-Bold-7a" transform="translate(218.381098 0) scale(0.996264)"/>
      <use xlink:href="#TeXGyreTermesX-Bold-61" transform="translate(262.615245 0) scale(0.996264)"/>
      <use xlink:href="#TeXGyreTermesX-Bold-77" transform="translate(308.443389 0) scale(0.996264)"/>
      <use xlink:href="#TeXGyreTermesX-Bold-61" transform="translate(377.883033 0) scale(0.996264)"/>
      <use xlink:href="#txbsys-b9" transform="translate(457.584169 0) scale(0.996264)"/>
      <use xlink:href="#NewTXBMI-51" transform="translate(498.729876 0) scale(0.996264)"/>
      <use xlink:href="#txbsys-0" transform="translate(592.898852 0) scale(0.996264)"/>
      <use xlink:href="#NewTXBMI-5d" transform="translate(681.787687 0) scale(0.996264)"/>
      <use xlink:href="#txbsys-ba" transform="translate(776.980671 0) scale(0.996264)"/>
     </g>
    </g>
    <g id="PathCollection_22">
     <defs>
      <path id="m4e33513b2d" d="M 0 3.354102 
C 0.889518 3.354102 1.742724 3.000693 2.371708 2.371708 
C 3.000693 1.742724 3.354102 0.889518 3.354102 0 
C 3.354102 -0.889518 3.000693 -1.742724 2.371708 -2.371708 
C 1.742724 -3.000693 0.889518 -3.354102 0 -3.354102 
C -0.889518 -3.354102 -1.742724 -3.000693 -2.371708 -2.371708 
C -3.000693 -1.742724 -3.354102 -0.889518 -3.354102 0 
C -3.354102 0.889518 -3.000693 1.742724 -2.371708 2.371708 
C -1.742724 3.000693 -0.889518 3.354102 0 3.354102 
z
" style="stroke: #000000"/>
     </defs>
     <g>
      <use xlink:href="#m4e33513b2d" x="284.454536" y="316.633324" style="fill: #008080; stroke: #000000"/>
     </g>
    </g>
    <g id="text_24">
     <!-- \textbf{Miyazawa $(W3\%Re)$} -->
     <g transform="translate(301.554536 319.127074) scale(0.095 -0.095)">
      <use xlink:href="#TeXGyreTermesX-Bold-4d" transform="scale(0.996264)"/>
      <use xlink:href="#TeXGyreTermesX-Bold-69" transform="translate(94.047347 0) scale(0.996264)"/>
      <use xlink:href="#TeXGyreTermesX-Bold-79" transform="translate(121.743474 0) scale(0.996264)"/>
      <use xlink:href="#TeXGyreTermesX-Bold-61" transform="translate(168.567898 0) scale(0.996264)"/>
      <use xlink:href="#TeXGyreTermesX-Bold-7a" transform="translate(218.381098 0) scale(0.996264)"/>
      <use xlink:href="#TeXGyreTermesX-Bold-61" transform="translate(262.615245 0) scale(0.996264)"/>
      <use xlink:href="#TeXGyreTermesX-Bold-77" transform="translate(308.443389 0) scale(0.996264)"/>
      <use xlink:href="#TeXGyreTermesX-Bold-61" transform="translate(377.883033 0) scale(0.996264)"/>
      <use xlink:href="#txbsys-b9" transform="translate(457.584169 0) scale(0.996264)"/>
      <use xlink:href="#NewTXBMI-5d" transform="translate(494.645248 0) scale(0.996264)"/>
      <use xlink:href="#TeXGyreTermesX-Bold-33" transform="translate(589.838232 0) scale(0.996264)"/>
      <use xlink:href="#TeXGyreTermesX-Bold-25" transform="translate(639.651432 0) scale(0.996264)"/>
      <use xlink:href="#NewTXBMI-58" transform="translate(745.554269 0) scale(0.996264)"/>
      <use xlink:href="#NewTXBMI-65" transform="translate(818.580394 0) scale(0.996264)"/>
      <use xlink:href="#txbsys-ba" transform="translate(866.201771 0) scale(0.996264)"/>
     </g>
    </g>
    <g id="PathCollection_23">
     <defs>
      <path id="mae0c06f1fd" d="M -3.354102 -0 
L 3.354102 3.354102 
L 3.354102 -3.354102 
z
" style="stroke: #000000"/>
     </defs>
     <g>
      <use xlink:href="#mae0c06f1fd" x="284.454536" y="330.237359" style="fill: #008080; stroke: #000000"/>
     </g>
    </g>
    <g id="text_25">
     <!-- \textbf{Miyazawa $(K-W3\%Re)$} -->
     <g transform="translate(301.554536 332.731109) scale(0.095 -0.095)">
      <use xlink:href="#TeXGyreTermesX-Bold-4d" transform="scale(0.996264)"/>
      <use xlink:href="#TeXGyreTermesX-Bold-69" transform="translate(94.047347 0) scale(0.996264)"/>
      <use xlink:href="#TeXGyreTermesX-Bold-79" transform="translate(121.743474 0) scale(0.996264)"/>
      <use xlink:href="#TeXGyreTermesX-Bold-61" transform="translate(168.567898 0) scale(0.996264)"/>
      <use xlink:href="#TeXGyreTermesX-Bold-7a" transform="translate(218.381098 0) scale(0.996264)"/>
      <use xlink:href="#TeXGyreTermesX-Bold-61" transform="translate(262.615245 0) scale(0.996264)"/>
      <use xlink:href="#TeXGyreTermesX-Bold-77" transform="translate(308.443389 0) scale(0.996264)"/>
      <use xlink:href="#TeXGyreTermesX-Bold-61" transform="translate(377.883033 0) scale(0.996264)"/>
      <use xlink:href="#txbsys-b9" transform="translate(457.584169 0) scale(0.996264)"/>
      <use xlink:href="#NewTXBMI-51" transform="translate(498.729876 0) scale(0.996264)"/>
      <use xlink:href="#txbsys-0" transform="translate(592.898852 0) scale(0.996264)"/>
      <use xlink:href="#NewTXBMI-5d" transform="translate(681.787687 0) scale(0.996264)"/>
      <use xlink:href="#TeXGyreTermesX-Bold-33" transform="translate(776.980671 0) scale(0.996264)"/>
      <use xlink:href="#TeXGyreTermesX-Bold-25" transform="translate(826.793871 0) scale(0.996264)"/>
      <use xlink:href="#NewTXBMI-58" transform="translate(932.696708 0) scale(0.996264)"/>
      <use xlink:href="#NewTXBMI-65" transform="translate(1005.722833 0) scale(0.996264)"/>
      <use xlink:href="#txbsys-ba" transform="translate(1053.34421 0) scale(0.996264)"/>
     </g>
    </g>
    <g id="PathCollection_24">
     <defs>
      <path id="m8bdb10b72a" d="M 0 -3.354102 
L -2.904738 -1.677051 
L -2.904738 1.677051 
L -0 3.354102 
L 2.904738 1.677051 
L 2.904738 -1.677051 
z
" style="stroke: #000000"/>
     </defs>
     <g>
      <use xlink:href="#m8bdb10b72a" x="284.454536" y="343.770401" style="fill: #cd853f; stroke: #000000"/>
     </g>
    </g>
    <g id="text_26">
     <!-- \textbf{Yin  $(W)$} -->
     <g transform="translate(301.554536 346.264151) scale(0.095 -0.095)">
      <defs>
       <path id="TeXGyreTermesX-Bold-59" d="M 4474 4166 
L 4474 4325 
L 3066 4325 
L 3066 4166 
C 3494 4134 3603 4084 3603 3899 
C 3603 3779 3514 3557 3354 3296 
L 2643 2121 
L 1875 3595 
C 1869 3614 1837 3671 1837 3671 
C 1747 3829 1722 3899 1722 3969 
C 1722 4109 1818 4160 2080 4160 
L 2240 4160 
L 2240 4325 
L 96 4325 
L 96 4160 
C 314 4160 480 4039 608 3822 
L 1779 1709 
L 1779 775 
C 1779 312 1709 242 1184 191 
L 1184 32 
L 3405 32 
L 3405 191 
C 2880 242 2816 305 2816 775 
L 2816 1944 
L 4038 3918 
C 4134 4064 4256 4134 4474 4166 
z
" transform="scale(0.015625)"/>
       <path id="TeXGyreTermesX-Bold-6e" d="M 3450 -32 
L 3450 121 
C 3200 140 3136 216 3136 484 
L 3136 2086 
C 3136 2635 2797 2986 2272 2986 
C 1888 2986 1594 2808 1357 2432 
L 1357 2910 
L 134 2910 
L 134 2757 
C 416 2713 474 2649 474 2381 
L 474 503 
C 474 235 422 178 134 121 
L 134 -32 
L 1677 -32 
L 1677 121 
C 1440 152 1363 249 1363 485 
L 1363 2190 
C 1363 2216 1408 2279 1472 2336 
C 1613 2484 1766 2560 1914 2560 
C 2138 2560 2246 2387 2246 2030 
L 2246 484 
C 2246 249 2163 146 1946 121 
L 1946 -32 
L 3450 -32 
z
" transform="scale(0.015625)"/>
      </defs>
      <use xlink:href="#TeXGyreTermesX-Bold-59" transform="scale(0.996264)"/>
      <use xlink:href="#TeXGyreTermesX-Bold-69" transform="translate(70.435832 0) scale(0.996264)"/>
      <use xlink:href="#TeXGyreTermesX-Bold-6e" transform="translate(98.131959 0) scale(0.996264)"/>
      <use xlink:href="#txbsys-b9" transform="translate(183.41215 0) scale(0.996264)"/>
      <use xlink:href="#NewTXBMI-5d" transform="translate(220.473228 0) scale(0.996264)"/>
      <use xlink:href="#txbsys-ba" transform="translate(315.666212 0) scale(0.996264)"/>
     </g>
    </g>
   </g>
  </g>
 </g>
 <defs>
  <clipPath id="p734ec422e1">
   <rect x="36.410547" y="7.2" width="417.189453" height="223.566203"/>
  </clipPath>
 </defs>
</svg>
