<?xml version="1.0" encoding="utf-8" standalone="no"?>
<!DOCTYPE svg PUBLIC "-//W3C//DTD SVG 1.1//EN"
  "http://www.w3.org/Graphics/SVG/1.1/DTD/svg11.dtd">
<svg xmlns:xlink="http://www.w3.org/1999/xlink" width="468pt" height="216pt" viewBox="0 0 468 216" xmlns="http://www.w3.org/2000/svg" version="1.1">
 <metadata>
  <rdf:RDF xmlns:dc="http://purl.org/dc/elements/1.1/" xmlns:cc="http://creativecommons.org/ns#" xmlns:rdf="http://www.w3.org/1999/02/22-rdf-syntax-ns#">
   <cc:Work>
    <dc:type rdf:resource="http://purl.org/dc/dcmitype/StillImage"/>
    <dc:date>2025-01-31T14:35:52.425466</dc:date>
    <dc:format>image/svg+xml</dc:format>
    <dc:creator>
     <cc:Agent>
      <dc:title>Matplotlib v3.9.0, https://matplotlib.org/</dc:title>
     </cc:Agent>
    </dc:creator>
   </cc:Work>
  </rdf:RDF>
 </metadata>
 <defs>
  <style type="text/css">*{stroke-linejoin: round; stroke-linecap: butt}</style>
 </defs>
 <g id="figure_1">
  <g id="patch_1">
   <path d="M 0 216 
L 468 216 
L 468 0 
L 0 0 
z
" style="fill: #ffffff"/>
  </g>
  <g id="axes_1">
   <g id="patch_2">
    <path d="M 45.465083 176.858508 
L 231.327268 176.858508 
L 231.327268 14.042164 
L 45.465083 14.042164 
z
" style="fill: #ffffff"/>
   </g>
   <g id="PathCollection_1">
    <defs>
     <path id="m11ff3d23ee" d="M 0 2.738613 
C 0.726289 2.738613 1.422928 2.450055 1.936492 1.936492 
C 2.450055 1.422928 2.738613 0.726289 2.738613 0 
C 2.738613 -0.726289 2.450055 -1.422928 1.936492 -1.936492 
C 1.422928 -2.450055 0.726289 -2.738613 0 -2.738613 
C -0.726289 -2.738613 -1.422928 -2.450055 -1.936492 -1.936492 
C -2.450055 -1.422928 -2.738613 -0.726289 -2.738613 0 
C -2.738613 0.726289 -2.450055 1.422928 -1.936492 1.936492 
C -1.422928 2.450055 -0.726289 2.738613 0 2.738613 
z
" style="stroke: #000000"/>
    </defs>
    <g clip-path="url(#pdf979d28bd)">
     <use xlink:href="#m11ff3d23ee" x="70.809927" y="29.196243" style="stroke: #000000"/>
     <use xlink:href="#m11ff3d23ee" x="87.706489" y="47.65365" style="stroke: #000000"/>
     <use xlink:href="#m11ff3d23ee" x="104.603051" y="59.691089" style="stroke: #000000"/>
     <use xlink:href="#m11ff3d23ee" x="121.499614" y="56.481105" style="stroke: #000000"/>
     <use xlink:href="#m11ff3d23ee" x="155.292738" y="73.33352" style="stroke: #000000"/>
     <use xlink:href="#m11ff3d23ee" x="205.982425" y="80.555983" style="stroke: #000000"/>
    </g>
   </g>
   <g id="PathCollection_2">
    <defs>
     <path id="m138f16dfa2" d="M -2.738613 2.738613 
L 2.738613 2.738613 
L 2.738613 -2.738613 
L -2.738613 -2.738613 
z
" style="stroke: #000000"/>
    </defs>
    <g clip-path="url(#pdf979d28bd)">
     <use xlink:href="#m138f16dfa2" x="70.809927" y="109.130671" style="fill: #ffffff; stroke: #000000"/>
     <use xlink:href="#m138f16dfa2" x="87.706489" y="116.175325" style="fill: #ffffff; stroke: #000000"/>
     <use xlink:href="#m138f16dfa2" x="121.499614" y="132.466086" style="fill: #ffffff; stroke: #000000"/>
     <use xlink:href="#m138f16dfa2" x="155.292738" y="128.063178" style="fill: #ffffff; stroke: #000000"/>
     <use xlink:href="#m138f16dfa2" x="205.982425" y="139.951031" style="fill: #ffffff; stroke: #000000"/>
    </g>
   </g>
   <g id="matplotlib.axis_1">
    <g id="xtick_1">
     <g id="line2d_1">
      <defs>
       <path id="me68ce6956c" d="M 0 0 
L 0 -3.5 
" style="stroke: #000000; stroke-width: 0.8"/>
      </defs>
      <g>
       <use xlink:href="#me68ce6956c" x="45.465083" y="176.858508" style="stroke: #000000; stroke-width: 0.8"/>
      </g>
     </g>
     <g id="text_1">
      <!-- $\mathdefault{250}$ -->
      <g transform="translate(37.283279 187.881779) scale(0.11 -0.11)">
       <defs>
        <path id="TeXGyreTermesX-Bold-32" d="M 3059 1341 
L 2906 1341 
C 2720 884 2643 846 1990 846 
L 1024 846 
L 2061 1824 
C 2566 2301 2790 2726 2790 3210 
C 2790 3889 2298 4373 1606 4373 
C 1286 4373 979 4245 755 4016 
C 506 3768 378 3552 198 3075 
L 378 3075 
C 576 3469 813 3648 1158 3648 
C 1440 3648 1651 3527 1792 3298 
C 1869 3164 1920 2987 1920 2841 
C 1920 2561 1798 2211 1594 1900 
C 1267 1405 1043 1137 109 146 
L 109 0 
L 2771 0 
L 3059 1341 
z
" transform="scale(0.015625)"/>
        <path id="TeXGyreTermesX-Bold-35" d="M 3008 4288 
L 947 4288 
L 326 2093 
C 934 2049 1197 2010 1478 1921 
C 2048 1743 2387 1381 2387 960 
C 2387 604 2106 324 1747 324 
C 1600 324 1427 400 1171 591 
C 896 795 704 877 538 877 
C 307 877 141 718 141 496 
C 141 159 512 -64 1082 -64 
C 2138 -64 2886 575 2886 1476 
C 2886 2140 2477 2652 1779 2850 
C 1536 2920 1338 2946 813 2946 
L 954 3481 
L 2733 3481 
L 3008 4288 
z
" transform="scale(0.015625)"/>
        <path id="TeXGyreTermesX-Bold-30" d="M 3046 2166 
C 3046 3440 2426 4403 1600 4403 
C 1184 4403 762 4123 499 3664 
C 294 3313 154 2714 154 2185 
C 154 873 755 -64 1606 -64 
C 2432 -64 3046 886 3046 2166 
z
M 2035 1434 
C 2035 1058 1984 561 1926 389 
C 1856 203 1754 114 1606 114 
C 1286 114 1165 491 1165 1434 
L 1165 2892 
C 1165 3855 1286 4224 1594 4224 
C 1907 4224 2035 3829 2035 2892 
L 2035 1434 
z
" transform="scale(0.015625)"/>
       </defs>
       <use xlink:href="#TeXGyreTermesX-Bold-32" transform="scale(0.996264)"/>
       <use xlink:href="#TeXGyreTermesX-Bold-35" transform="translate(49.8132 0) scale(0.996264)"/>
       <use xlink:href="#TeXGyreTermesX-Bold-30" transform="translate(99.626401 0) scale(0.996264)"/>
      </g>
     </g>
    </g>
    <g id="xtick_2">
     <g id="line2d_2">
      <g>
       <use xlink:href="#me68ce6956c" x="87.706489" y="176.858508" style="stroke: #000000; stroke-width: 0.8"/>
      </g>
     </g>
     <g id="text_2">
      <!-- $\mathdefault{500}$ -->
      <g transform="translate(79.524685 187.881779) scale(0.11 -0.11)">
       <use xlink:href="#TeXGyreTermesX-Bold-35" transform="scale(0.996264)"/>
       <use xlink:href="#TeXGyreTermesX-Bold-30" transform="translate(49.8132 0) scale(0.996264)"/>
       <use xlink:href="#TeXGyreTermesX-Bold-30" transform="translate(99.626401 0) scale(0.996264)"/>
      </g>
     </g>
    </g>
    <g id="xtick_3">
     <g id="line2d_3">
      <g>
       <use xlink:href="#me68ce6956c" x="129.947895" y="176.858508" style="stroke: #000000; stroke-width: 0.8"/>
      </g>
     </g>
     <g id="text_3">
      <!-- $\mathdefault{750}$ -->
      <g transform="translate(121.76609 187.881779) scale(0.11 -0.11)">
       <defs>
        <path id="TeXGyreTermesX-Bold-37" d="M 3053 4327 
L 390 4327 
L 109 2916 
L 269 2916 
C 390 3322 544 3456 896 3456 
L 2221 3456 
L 941 32 
L 1549 32 
L 3053 4327 
z
" transform="scale(0.015625)"/>
       </defs>
       <use xlink:href="#TeXGyreTermesX-Bold-37" transform="scale(0.996264)"/>
       <use xlink:href="#TeXGyreTermesX-Bold-35" transform="translate(49.8132 0) scale(0.996264)"/>
       <use xlink:href="#TeXGyreTermesX-Bold-30" transform="translate(99.626401 0) scale(0.996264)"/>
      </g>
     </g>
    </g>
    <g id="xtick_4">
     <g id="line2d_4">
      <g>
       <use xlink:href="#me68ce6956c" x="172.1893" y="176.858508" style="stroke: #000000; stroke-width: 0.8"/>
      </g>
     </g>
     <g id="text_4">
      <!-- $\mathdefault{1000}$ -->
      <g transform="translate(161.280228 187.881779) scale(0.11 -0.11)">
       <defs>
        <path id="TeXGyreTermesX-Bold-31" d="M 2829 0 
L 2829 159 
C 2246 159 2138 255 2138 746 
L 2138 4384 
L 2029 4384 
L 416 3686 
L 416 3521 
C 474 3540 525 3559 544 3572 
C 717 3635 877 3680 960 3680 
C 1120 3680 1190 3540 1190 3241 
L 1190 790 
C 1190 267 1062 159 429 159 
L 429 0 
L 2829 0 
z
" transform="scale(0.015625)"/>
       </defs>
       <use xlink:href="#TeXGyreTermesX-Bold-31" transform="scale(0.996264)"/>
       <use xlink:href="#TeXGyreTermesX-Bold-30" transform="translate(49.8132 0) scale(0.996264)"/>
       <use xlink:href="#TeXGyreTermesX-Bold-30" transform="translate(99.626401 0) scale(0.996264)"/>
       <use xlink:href="#TeXGyreTermesX-Bold-30" transform="translate(149.439601 0) scale(0.996264)"/>
      </g>
     </g>
    </g>
    <g id="xtick_5">
     <g id="line2d_5">
      <g>
       <use xlink:href="#me68ce6956c" x="214.430706" y="176.858508" style="stroke: #000000; stroke-width: 0.8"/>
      </g>
     </g>
     <g id="text_5">
      <!-- $\mathdefault{1250}$ -->
      <g transform="translate(203.521633 187.881779) scale(0.11 -0.11)">
       <use xlink:href="#TeXGyreTermesX-Bold-31" transform="scale(0.996264)"/>
       <use xlink:href="#TeXGyreTermesX-Bold-32" transform="translate(49.8132 0) scale(0.996264)"/>
       <use xlink:href="#TeXGyreTermesX-Bold-35" transform="translate(99.626401 0) scale(0.996264)"/>
       <use xlink:href="#TeXGyreTermesX-Bold-30" transform="translate(149.439601 0) scale(0.996264)"/>
      </g>
     </g>
    </g>
    <g id="xtick_6">
     <g id="line2d_6">
      <defs>
       <path id="mff33f9dcef" d="M 0 0 
L 0 -2 
" style="stroke: #000000; stroke-width: 0.6"/>
      </defs>
      <g>
       <use xlink:href="#mff33f9dcef" x="53.913365" y="176.858508" style="stroke: #000000; stroke-width: 0.6"/>
      </g>
     </g>
    </g>
    <g id="xtick_7">
     <g id="line2d_7">
      <g>
       <use xlink:href="#mff33f9dcef" x="62.361646" y="176.858508" style="stroke: #000000; stroke-width: 0.6"/>
      </g>
     </g>
    </g>
    <g id="xtick_8">
     <g id="line2d_8">
      <g>
       <use xlink:href="#mff33f9dcef" x="70.809927" y="176.858508" style="stroke: #000000; stroke-width: 0.6"/>
      </g>
     </g>
    </g>
    <g id="xtick_9">
     <g id="line2d_9">
      <g>
       <use xlink:href="#mff33f9dcef" x="79.258208" y="176.858508" style="stroke: #000000; stroke-width: 0.6"/>
      </g>
     </g>
    </g>
    <g id="xtick_10">
     <g id="line2d_10">
      <g>
       <use xlink:href="#mff33f9dcef" x="96.15477" y="176.858508" style="stroke: #000000; stroke-width: 0.6"/>
      </g>
     </g>
    </g>
    <g id="xtick_11">
     <g id="line2d_11">
      <g>
       <use xlink:href="#mff33f9dcef" x="104.603051" y="176.858508" style="stroke: #000000; stroke-width: 0.6"/>
      </g>
     </g>
    </g>
    <g id="xtick_12">
     <g id="line2d_12">
      <g>
       <use xlink:href="#mff33f9dcef" x="113.051332" y="176.858508" style="stroke: #000000; stroke-width: 0.6"/>
      </g>
     </g>
    </g>
    <g id="xtick_13">
     <g id="line2d_13">
      <g>
       <use xlink:href="#mff33f9dcef" x="121.499614" y="176.858508" style="stroke: #000000; stroke-width: 0.6"/>
      </g>
     </g>
    </g>
    <g id="xtick_14">
     <g id="line2d_14">
      <g>
       <use xlink:href="#mff33f9dcef" x="138.396176" y="176.858508" style="stroke: #000000; stroke-width: 0.6"/>
      </g>
     </g>
    </g>
    <g id="xtick_15">
     <g id="line2d_15">
      <g>
       <use xlink:href="#mff33f9dcef" x="146.844457" y="176.858508" style="stroke: #000000; stroke-width: 0.6"/>
      </g>
     </g>
    </g>
    <g id="xtick_16">
     <g id="line2d_16">
      <g>
       <use xlink:href="#mff33f9dcef" x="155.292738" y="176.858508" style="stroke: #000000; stroke-width: 0.6"/>
      </g>
     </g>
    </g>
    <g id="xtick_17">
     <g id="line2d_17">
      <g>
       <use xlink:href="#mff33f9dcef" x="163.741019" y="176.858508" style="stroke: #000000; stroke-width: 0.6"/>
      </g>
     </g>
    </g>
    <g id="xtick_18">
     <g id="line2d_18">
      <g>
       <use xlink:href="#mff33f9dcef" x="180.637581" y="176.858508" style="stroke: #000000; stroke-width: 0.6"/>
      </g>
     </g>
    </g>
    <g id="xtick_19">
     <g id="line2d_19">
      <g>
       <use xlink:href="#mff33f9dcef" x="189.085863" y="176.858508" style="stroke: #000000; stroke-width: 0.6"/>
      </g>
     </g>
    </g>
    <g id="xtick_20">
     <g id="line2d_20">
      <g>
       <use xlink:href="#mff33f9dcef" x="197.534144" y="176.858508" style="stroke: #000000; stroke-width: 0.6"/>
      </g>
     </g>
    </g>
    <g id="xtick_21">
     <g id="line2d_21">
      <g>
       <use xlink:href="#mff33f9dcef" x="205.982425" y="176.858508" style="stroke: #000000; stroke-width: 0.6"/>
      </g>
     </g>
    </g>
    <g id="xtick_22">
     <g id="line2d_22">
      <g>
       <use xlink:href="#mff33f9dcef" x="222.878987" y="176.858508" style="stroke: #000000; stroke-width: 0.6"/>
      </g>
     </g>
    </g>
    <g id="xtick_23">
     <g id="line2d_23">
      <g>
       <use xlink:href="#mff33f9dcef" x="231.327268" y="176.858508" style="stroke: #000000; stroke-width: 0.6"/>
      </g>
     </g>
    </g>
    <g id="text_6">
     <!-- \textbf{Temperature [$^\circ C$]} -->
     <g transform="translate(92.856371 202.60574) scale(0.12 -0.12)">
      <defs>
       <path id="TeXGyreTermesX-Bold-54" d="M 4070 3013 
L 4058 4288 
L 218 4288 
L 198 3013 
L 384 3013 
C 493 3777 826 4072 1619 4072 
L 1619 740 
C 1619 272 1549 204 998 159 
L 998 0 
L 3283 0 
L 3283 178 
C 2726 178 2656 242 2656 724 
L 2656 4072 
C 3443 4072 3776 3777 3885 3013 
L 4070 3013 
z
" transform="scale(0.015625)"/>
       <path id="TeXGyreTermesX-Bold-65" d="M 2726 736 
L 2573 826 
C 2310 510 2118 394 1843 394 
C 1600 394 1408 504 1280 723 
C 1158 930 1107 1149 1082 1600 
L 2694 1600 
C 2656 2115 2560 2400 2362 2642 
C 2157 2883 1856 3013 1498 3013 
C 698 3013 160 2388 160 1465 
C 160 543 685 -64 1478 -64 
C 1997 -64 2310 134 2726 736 
z
M 1907 1835 
L 1050 1835 
C 1069 2571 1184 2816 1498 2816 
C 1683 2816 1798 2718 1850 2528 
C 1882 2411 1894 2240 1907 1928 
L 1907 1835 
z
" transform="scale(0.015625)"/>
       <path id="TeXGyreTermesX-Bold-6d" d="M 5210 0 
L 5210 159 
C 4960 159 4890 236 4890 510 
L 4890 2109 
C 4890 2657 4550 3008 4026 3008 
C 3661 3008 3418 2862 3085 2455 
C 2893 2856 2669 3008 2266 3008 
C 1862 3008 1568 2836 1325 2455 
L 1325 2932 
L 102 2932 
L 102 2779 
C 384 2741 454 2665 454 2404 
L 454 534 
C 454 273 384 204 102 153 
L 102 0 
L 1638 0 
L 1638 153 
C 1414 184 1344 273 1344 515 
L 1344 2213 
C 1344 2251 1446 2372 1530 2436 
C 1664 2538 1773 2582 1882 2582 
C 2131 2582 2227 2436 2227 2054 
L 2227 515 
C 2227 254 2157 172 1920 153 
L 1920 0 
L 3418 0 
L 3418 153 
C 3194 178 3117 273 3117 515 
L 3117 2213 
C 3117 2245 3219 2366 3302 2429 
C 3443 2538 3552 2582 3661 2582 
C 3904 2582 4000 2429 4000 2054 
L 4000 515 
C 4000 248 3930 172 3686 153 
L 3686 0 
L 5210 0 
z
" transform="scale(0.015625)"/>
       <path id="TeXGyreTermesX-Bold-70" d="M 3354 1551 
C 3354 2442 2874 3050 2163 3050 
C 1786 3050 1555 2904 1357 2534 
L 1357 2974 
L 134 2974 
L 134 2821 
C 416 2777 480 2712 480 2444 
L 480 -756 
C 480 -1019 429 -1076 122 -1127 
L 122 -1280 
L 1869 -1280 
L 1869 -1140 
C 1478 -1140 1370 -1012 1370 -584 
L 1370 318 
C 1677 19 1843 -64 2125 -64 
C 2842 -64 3354 603 3354 1551 
z
M 2406 1461 
C 2406 665 2227 286 1862 286 
C 1651 286 1466 434 1370 678 
L 1370 2238 
C 1370 2283 1427 2386 1504 2469 
C 1632 2610 1779 2688 1920 2688 
C 2253 2688 2406 2302 2406 1461 
z
" transform="scale(0.015625)"/>
       <path id="TeXGyreTermesX-Bold-72" d="M 2778 2512 
C 2778 2798 2560 3008 2259 3008 
C 1939 3008 1696 2836 1395 2410 
L 1395 2932 
L 186 2932 
L 186 2779 
C 461 2741 531 2658 531 2404 
L 531 533 
C 531 272 467 203 186 152 
L 186 0 
L 1888 0 
L 1888 165 
C 1498 165 1421 248 1421 645 
L 1421 1854 
C 1421 2186 1600 2461 1811 2461 
C 1862 2461 1920 2417 1990 2315 
C 2112 2143 2208 2086 2374 2086 
C 2611 2086 2778 2264 2778 2512 
z
" transform="scale(0.015625)"/>
       <path id="TeXGyreTermesX-Bold-61" d="M 3123 297 
L 3027 430 
L 2963 366 
C 2944 347 2925 341 2893 341 
C 2803 341 2758 392 2758 499 
L 2758 2152 
C 2758 2689 2272 3019 1491 3019 
C 768 3019 282 2696 282 2221 
C 282 1955 435 1803 698 1803 
C 954 1803 1133 1955 1133 2170 
C 1133 2259 1101 2341 1018 2442 
C 960 2506 941 2543 941 2581 
C 941 2714 1114 2816 1344 2816 
C 1722 2816 1882 2645 1882 2259 
L 1882 1797 
C 1133 1569 832 1455 589 1296 
C 301 1107 160 885 160 607 
C 160 221 454 -64 864 -64 
C 1235 -64 1530 63 1882 380 
C 1952 57 2093 -64 2406 -64 
C 2682 -64 2880 38 3123 297 
z
M 1875 658 
C 1702 462 1574 386 1421 386 
C 1229 386 1094 556 1094 810 
C 1094 1176 1363 1436 1875 1575 
L 1875 658 
z
" transform="scale(0.015625)"/>
       <path id="TeXGyreTermesX-Bold-74" d="M 2125 648 
L 1965 718 
C 1837 476 1734 387 1600 387 
C 1421 387 1350 495 1350 750 
L 1350 2664 
L 1952 2664 
L 1952 2944 
L 1350 2944 
L 1350 4032 
L 1190 4032 
C 800 3479 544 3190 128 2836 
L 128 2664 
L 461 2664 
L 461 603 
C 461 190 736 -64 1178 -64 
C 1606 -64 1862 126 2125 648 
z
" transform="scale(0.015625)"/>
       <path id="TeXGyreTermesX-Bold-75" d="M 3437 152 
L 3437 305 
C 3155 305 3078 388 3078 660 
L 3078 2944 
L 1792 2944 
L 1792 2792 
C 2112 2767 2189 2690 2189 2419 
L 2189 627 
C 1978 419 1850 349 1664 349 
C 1402 349 1306 476 1306 799 
L 1306 2944 
L 102 2944 
L 102 2792 
C 365 2741 416 2684 416 2419 
L 416 822 
C 416 266 736 -64 1267 -64 
C 1600 -64 1824 38 2195 355 
L 2195 -58 
C 2470 38 2624 63 3040 108 
L 3437 152 
z
" transform="scale(0.015625)"/>
       <path id="TeXGyreTermesX-Bold-5b" d="M 1926 -960 
L 1926 -750 
L 1414 -750 
C 1152 -750 1094 -686 1094 -413 
L 1094 3650 
C 1094 4020 1165 4096 1523 4096 
L 1926 4096 
L 1926 4306 
L 429 4306 
L 429 -960 
L 1926 -960 
z
" transform="scale(0.015625)"/>
       <path id="txbsys-e" d="M 2955 1640 
C 2955 2347 2386 2915 1676 2915 
C 960 2915 397 2347 397 1640 
C 397 926 960 365 1676 365 
C 2386 365 2955 926 2955 1640 
z
M 2482 1640 
C 2482 1188 2117 838 1676 838 
C 1222 838 870 1188 870 1640 
C 870 2078 1222 2441 1676 2441 
C 2117 2441 2482 2078 2482 1640 
z
" transform="scale(0.015625)"/>
       <path id="NewTXBMI-49" d="M 3686 828 
L 3494 969 
C 3174 590 2995 442 2726 326 
C 2547 249 2349 211 2150 211 
C 1549 211 1190 628 1190 1329 
C 1190 2253 1638 3344 2214 3852 
C 2451 4051 2714 4160 2982 4160 
C 3501 4160 3821 3775 3821 3146 
C 3821 3062 3814 3004 3802 2921 
L 4006 2882 
L 4333 4384 
L 4141 4384 
C 4051 4243 3994 4198 3898 4198 
C 3846 4198 3750 4218 3654 4250 
C 3366 4339 3078 4384 2816 4384 
C 1389 4384 205 3094 205 1534 
C 205 539 902 -128 1946 -128 
C 2400 -128 2822 13 3187 289 
C 3373 431 3482 546 3686 828 
z
" transform="scale(0.015625)"/>
       <path id="TeXGyreTermesX-Bold-5d" d="M 1702 -960 
L 1702 4306 
L 205 4306 
L 205 4096 
L 608 4096 
C 966 4096 1037 4020 1037 3650 
L 1037 -413 
C 1037 -693 986 -750 717 -750 
L 205 -750 
L 205 -960 
L 1702 -960 
z
" transform="scale(0.015625)"/>
      </defs>
      <use xlink:href="#TeXGyreTermesX-Bold-54" transform="scale(0.996264)"/>
      <use xlink:href="#TeXGyreTermesX-Bold-65" transform="translate(57.982532 0) scale(0.996264)"/>
      <use xlink:href="#TeXGyreTermesX-Bold-6d" transform="translate(102.216678 0) scale(0.996264)"/>
      <use xlink:href="#TeXGyreTermesX-Bold-70" transform="translate(183.711047 0) scale(0.996264)"/>
      <use xlink:href="#TeXGyreTermesX-Bold-65" transform="translate(239.103302 0) scale(0.996264)"/>
      <use xlink:href="#TeXGyreTermesX-Bold-72" transform="translate(283.337448 0) scale(0.996264)"/>
      <use xlink:href="#TeXGyreTermesX-Bold-61" transform="translate(327.571594 0) scale(0.996264)"/>
      <use xlink:href="#TeXGyreTermesX-Bold-74" transform="translate(377.384795 0) scale(0.996264)"/>
      <use xlink:href="#TeXGyreTermesX-Bold-75" transform="translate(410.560405 0) scale(0.996264)"/>
      <use xlink:href="#TeXGyreTermesX-Bold-72" transform="translate(465.952659 0) scale(0.996264)"/>
      <use xlink:href="#TeXGyreTermesX-Bold-65" transform="translate(509.190511 0) scale(0.996264)"/>
      <use xlink:href="#TeXGyreTermesX-Bold-5b" transform="translate(578.331258 0) scale(0.996264)"/>
      <use xlink:href="#txbsys-e" transform="translate(611.506868 36.164371) scale(0.727268)"/>
      <use xlink:href="#NewTXBMI-49" transform="translate(650.512346 0) scale(0.996264)"/>
      <use xlink:href="#TeXGyreTermesX-Bold-5d" transform="translate(721.994258 0) scale(0.996264)"/>
     </g>
    </g>
   </g>
   <g id="matplotlib.axis_2">
    <g id="ytick_1">
     <g id="line2d_24">
      <defs>
       <path id="m5d180dcfb7" d="M 0 0 
L 3.5 0 
" style="stroke: #000000; stroke-width: 0.8"/>
      </defs>
      <g>
       <use xlink:href="#m5d180dcfb7" x="45.465083" y="155.388729" style="stroke: #000000; stroke-width: 0.8"/>
      </g>
     </g>
     <g id="text_7">
      <!-- $\mathdefault{300}$ -->
      <g transform="translate(25.601474 159.150364) scale(0.11 -0.11)">
       <defs>
        <path id="TeXGyreTermesX-Bold-33" d="M 2995 1596 
C 2995 1889 2899 2164 2714 2387 
C 2579 2540 2470 2617 2214 2732 
C 2624 2981 2746 3165 2746 3541 
C 2746 4090 2355 4416 1702 4416 
C 1069 4416 589 4097 237 3440 
L 371 3364 
C 614 3753 826 3900 1158 3900 
C 1562 3900 1811 3645 1811 3242 
C 1811 2822 1587 2598 979 2406 
L 979 2297 
C 1510 2112 1722 2004 1952 1786 
C 2150 1601 2266 1314 2266 1007 
C 2266 548 2022 254 1638 254 
C 1485 254 1363 324 1152 528 
C 902 778 710 880 518 880 
C 275 880 102 728 102 510 
C 102 166 493 -64 1082 -64 
C 2150 -64 2995 664 2995 1596 
z
" transform="scale(0.015625)"/>
       </defs>
       <use xlink:href="#TeXGyreTermesX-Bold-33" transform="scale(0.996264)"/>
       <use xlink:href="#TeXGyreTermesX-Bold-30" transform="translate(49.8132 0) scale(0.996264)"/>
       <use xlink:href="#TeXGyreTermesX-Bold-30" transform="translate(99.626401 0) scale(0.996264)"/>
      </g>
     </g>
    </g>
    <g id="ytick_2">
     <g id="line2d_25">
      <g>
       <use xlink:href="#m5d180dcfb7" x="45.465083" y="131.915723" style="stroke: #000000; stroke-width: 0.8"/>
      </g>
     </g>
     <g id="text_8">
      <!-- $\mathdefault{400}$ -->
      <g transform="translate(25.601474 135.677358) scale(0.11 -0.11)">
       <defs>
        <path id="TeXGyreTermesX-Bold-34" d="M 3040 896 
L 3040 1602 
L 2637 1602 
L 2637 4352 
L 2125 4352 
L 1747 3863 
C 928 2803 506 2219 122 1615 
L 122 896 
L 1709 896 
L 1709 -32 
L 2637 -32 
L 2637 896 
L 3040 896 
z
M 1722 1602 
L 384 1602 
L 1722 3488 
L 1722 1602 
z
" transform="scale(0.015625)"/>
       </defs>
       <use xlink:href="#TeXGyreTermesX-Bold-34" transform="scale(0.996264)"/>
       <use xlink:href="#TeXGyreTermesX-Bold-30" transform="translate(49.8132 0) scale(0.996264)"/>
       <use xlink:href="#TeXGyreTermesX-Bold-30" transform="translate(99.626401 0) scale(0.996264)"/>
      </g>
     </g>
    </g>
    <g id="ytick_3">
     <g id="line2d_26">
      <g>
       <use xlink:href="#m5d180dcfb7" x="45.465083" y="108.442717" style="stroke: #000000; stroke-width: 0.8"/>
      </g>
     </g>
     <g id="text_9">
      <!-- $\mathdefault{500}$ -->
      <g transform="translate(25.601474 112.204352) scale(0.11 -0.11)">
       <use xlink:href="#TeXGyreTermesX-Bold-35" transform="scale(0.996264)"/>
       <use xlink:href="#TeXGyreTermesX-Bold-30" transform="translate(49.8132 0) scale(0.996264)"/>
       <use xlink:href="#TeXGyreTermesX-Bold-30" transform="translate(99.626401 0) scale(0.996264)"/>
      </g>
     </g>
    </g>
    <g id="ytick_4">
     <g id="line2d_27">
      <g>
       <use xlink:href="#m5d180dcfb7" x="45.465083" y="84.969711" style="stroke: #000000; stroke-width: 0.8"/>
      </g>
     </g>
     <g id="text_10">
      <!-- $\mathdefault{600}$ -->
      <g transform="translate(25.601474 88.731346) scale(0.11 -0.11)">
       <defs>
        <path id="TeXGyreTermesX-Bold-36" d="M 3040 1427 
C 3040 2193 2573 2688 1843 2688 
C 1638 2688 1498 2663 1306 2580 
C 1542 3515 2074 4030 3008 4221 
L 3008 4387 
C 2157 4266 1760 4126 1274 3796 
C 557 3307 179 2596 179 1752 
C 179 654 768 -64 1664 -64 
C 2458 -64 3040 564 3040 1427 
z
M 2067 1046 
C 2067 298 1990 108 1677 108 
C 1530 108 1414 172 1350 291 
C 1242 501 1178 964 1178 1553 
C 1178 1946 1216 2307 1261 2339 
C 1312 2377 1402 2402 1491 2402 
C 1920 2402 2067 2054 2067 1046 
z
" transform="scale(0.015625)"/>
       </defs>
       <use xlink:href="#TeXGyreTermesX-Bold-36" transform="scale(0.996264)"/>
       <use xlink:href="#TeXGyreTermesX-Bold-30" transform="translate(49.8132 0) scale(0.996264)"/>
       <use xlink:href="#TeXGyreTermesX-Bold-30" transform="translate(99.626401 0) scale(0.996264)"/>
      </g>
     </g>
    </g>
    <g id="ytick_5">
     <g id="line2d_28">
      <g>
       <use xlink:href="#m5d180dcfb7" x="45.465083" y="61.496705" style="stroke: #000000; stroke-width: 0.8"/>
      </g>
     </g>
     <g id="text_11">
      <!-- $\mathdefault{700}$ -->
      <g transform="translate(25.601474 65.25834) scale(0.11 -0.11)">
       <use xlink:href="#TeXGyreTermesX-Bold-37" transform="scale(0.996264)"/>
       <use xlink:href="#TeXGyreTermesX-Bold-30" transform="translate(49.8132 0) scale(0.996264)"/>
       <use xlink:href="#TeXGyreTermesX-Bold-30" transform="translate(99.626401 0) scale(0.996264)"/>
      </g>
     </g>
    </g>
    <g id="ytick_6">
     <g id="line2d_29">
      <g>
       <use xlink:href="#m5d180dcfb7" x="45.465083" y="38.023698" style="stroke: #000000; stroke-width: 0.8"/>
      </g>
     </g>
     <g id="text_12">
      <!-- $\mathdefault{800}$ -->
      <g transform="translate(25.601474 41.785334) scale(0.11 -0.11)">
       <defs>
        <path id="TeXGyreTermesX-Bold-38" d="M 3021 1212 
C 3021 1768 2746 2164 2061 2597 
C 2675 2815 2931 3075 2931 3483 
C 2931 4051 2445 4409 1683 4409 
C 819 4409 250 3961 250 3292 
C 250 2814 506 2462 1139 2086 
C 774 1965 627 1881 461 1722 
C 275 1543 179 1301 179 1020 
C 179 370 723 -64 1536 -64 
C 2426 -64 3021 447 3021 1212 
z
M 2170 3439 
C 2170 3139 2118 2993 1907 2712 
C 1370 2986 1075 3337 1075 3694 
C 1075 3994 1306 4224 1606 4224 
C 1965 4224 2170 3937 2170 3439 
z
M 2131 829 
C 2131 402 1920 140 1574 140 
C 1184 140 954 478 954 1046 
C 954 1397 1024 1595 1280 1971 
C 1978 1505 2131 1301 2131 829 
z
" transform="scale(0.015625)"/>
       </defs>
       <use xlink:href="#TeXGyreTermesX-Bold-38" transform="scale(0.996264)"/>
       <use xlink:href="#TeXGyreTermesX-Bold-30" transform="translate(49.8132 0) scale(0.996264)"/>
       <use xlink:href="#TeXGyreTermesX-Bold-30" transform="translate(99.626401 0) scale(0.996264)"/>
      </g>
     </g>
    </g>
    <g id="ytick_7">
     <g id="line2d_30">
      <g>
       <use xlink:href="#m5d180dcfb7" x="45.465083" y="14.550692" style="stroke: #000000; stroke-width: 0.8"/>
      </g>
     </g>
     <g id="text_13">
      <!-- $\mathdefault{900}$ -->
      <g transform="translate(25.601474 18.312328) scale(0.11 -0.11)">
       <defs>
        <path id="TeXGyreTermesX-Bold-39" d="M 3027 2537 
C 3027 3634 2438 4352 1542 4352 
C 742 4352 166 3724 166 2856 
C 166 2107 634 1600 1331 1600 
C 1574 1600 1741 1632 1914 1721 
C 1638 755 1120 252 198 68 
L 198 -98 
C 1094 30 1530 188 2029 563 
C 2682 1051 3027 1730 3027 2537 
z
M 2029 2894 
C 2029 2723 2016 2521 1997 2235 
L 1978 2070 
C 1971 1988 1965 1957 1946 1944 
C 1901 1912 1779 1887 1683 1887 
C 1286 1887 1139 2261 1139 3255 
C 1139 3990 1216 4180 1530 4180 
C 1690 4180 1798 4110 1869 3965 
C 1965 3788 2029 3343 2029 2894 
z
" transform="scale(0.015625)"/>
       </defs>
       <use xlink:href="#TeXGyreTermesX-Bold-39" transform="scale(0.996264)"/>
       <use xlink:href="#TeXGyreTermesX-Bold-30" transform="translate(49.8132 0) scale(0.996264)"/>
       <use xlink:href="#TeXGyreTermesX-Bold-30" transform="translate(99.626401 0) scale(0.996264)"/>
      </g>
     </g>
    </g>
    <g id="ytick_8">
     <g id="line2d_31">
      <defs>
       <path id="mc7405baa71" d="M 0 0 
L 2 0 
" style="stroke: #000000; stroke-width: 0.6"/>
      </defs>
      <g>
       <use xlink:href="#mc7405baa71" x="45.465083" y="174.167134" style="stroke: #000000; stroke-width: 0.6"/>
      </g>
     </g>
    </g>
    <g id="ytick_9">
     <g id="line2d_32">
      <g>
       <use xlink:href="#mc7405baa71" x="45.465083" y="169.472532" style="stroke: #000000; stroke-width: 0.6"/>
      </g>
     </g>
    </g>
    <g id="ytick_10">
     <g id="line2d_33">
      <g>
       <use xlink:href="#mc7405baa71" x="45.465083" y="164.777931" style="stroke: #000000; stroke-width: 0.6"/>
      </g>
     </g>
    </g>
    <g id="ytick_11">
     <g id="line2d_34">
      <g>
       <use xlink:href="#mc7405baa71" x="45.465083" y="160.08333" style="stroke: #000000; stroke-width: 0.6"/>
      </g>
     </g>
    </g>
    <g id="ytick_12">
     <g id="line2d_35">
      <g>
       <use xlink:href="#mc7405baa71" x="45.465083" y="150.694128" style="stroke: #000000; stroke-width: 0.6"/>
      </g>
     </g>
    </g>
    <g id="ytick_13">
     <g id="line2d_36">
      <g>
       <use xlink:href="#mc7405baa71" x="45.465083" y="145.999526" style="stroke: #000000; stroke-width: 0.6"/>
      </g>
     </g>
    </g>
    <g id="ytick_14">
     <g id="line2d_37">
      <g>
       <use xlink:href="#mc7405baa71" x="45.465083" y="141.304925" style="stroke: #000000; stroke-width: 0.6"/>
      </g>
     </g>
    </g>
    <g id="ytick_15">
     <g id="line2d_38">
      <g>
       <use xlink:href="#mc7405baa71" x="45.465083" y="136.610324" style="stroke: #000000; stroke-width: 0.6"/>
      </g>
     </g>
    </g>
    <g id="ytick_16">
     <g id="line2d_39">
      <g>
       <use xlink:href="#mc7405baa71" x="45.465083" y="127.221122" style="stroke: #000000; stroke-width: 0.6"/>
      </g>
     </g>
    </g>
    <g id="ytick_17">
     <g id="line2d_40">
      <g>
       <use xlink:href="#mc7405baa71" x="45.465083" y="122.52652" style="stroke: #000000; stroke-width: 0.6"/>
      </g>
     </g>
    </g>
    <g id="ytick_18">
     <g id="line2d_41">
      <g>
       <use xlink:href="#mc7405baa71" x="45.465083" y="117.831919" style="stroke: #000000; stroke-width: 0.6"/>
      </g>
     </g>
    </g>
    <g id="ytick_19">
     <g id="line2d_42">
      <g>
       <use xlink:href="#mc7405baa71" x="45.465083" y="113.137318" style="stroke: #000000; stroke-width: 0.6"/>
      </g>
     </g>
    </g>
    <g id="ytick_20">
     <g id="line2d_43">
      <g>
       <use xlink:href="#mc7405baa71" x="45.465083" y="103.748115" style="stroke: #000000; stroke-width: 0.6"/>
      </g>
     </g>
    </g>
    <g id="ytick_21">
     <g id="line2d_44">
      <g>
       <use xlink:href="#mc7405baa71" x="45.465083" y="99.053514" style="stroke: #000000; stroke-width: 0.6"/>
      </g>
     </g>
    </g>
    <g id="ytick_22">
     <g id="line2d_45">
      <g>
       <use xlink:href="#mc7405baa71" x="45.465083" y="94.358913" style="stroke: #000000; stroke-width: 0.6"/>
      </g>
     </g>
    </g>
    <g id="ytick_23">
     <g id="line2d_46">
      <g>
       <use xlink:href="#mc7405baa71" x="45.465083" y="89.664312" style="stroke: #000000; stroke-width: 0.6"/>
      </g>
     </g>
    </g>
    <g id="ytick_24">
     <g id="line2d_47">
      <g>
       <use xlink:href="#mc7405baa71" x="45.465083" y="80.275109" style="stroke: #000000; stroke-width: 0.6"/>
      </g>
     </g>
    </g>
    <g id="ytick_25">
     <g id="line2d_48">
      <g>
       <use xlink:href="#mc7405baa71" x="45.465083" y="75.580508" style="stroke: #000000; stroke-width: 0.6"/>
      </g>
     </g>
    </g>
    <g id="ytick_26">
     <g id="line2d_49">
      <g>
       <use xlink:href="#mc7405baa71" x="45.465083" y="70.885907" style="stroke: #000000; stroke-width: 0.6"/>
      </g>
     </g>
    </g>
    <g id="ytick_27">
     <g id="line2d_50">
      <g>
       <use xlink:href="#mc7405baa71" x="45.465083" y="66.191306" style="stroke: #000000; stroke-width: 0.6"/>
      </g>
     </g>
    </g>
    <g id="ytick_28">
     <g id="line2d_51">
      <g>
       <use xlink:href="#mc7405baa71" x="45.465083" y="56.802103" style="stroke: #000000; stroke-width: 0.6"/>
      </g>
     </g>
    </g>
    <g id="ytick_29">
     <g id="line2d_52">
      <g>
       <use xlink:href="#mc7405baa71" x="45.465083" y="52.107502" style="stroke: #000000; stroke-width: 0.6"/>
      </g>
     </g>
    </g>
    <g id="ytick_30">
     <g id="line2d_53">
      <g>
       <use xlink:href="#mc7405baa71" x="45.465083" y="47.412901" style="stroke: #000000; stroke-width: 0.6"/>
      </g>
     </g>
    </g>
    <g id="ytick_31">
     <g id="line2d_54">
      <g>
       <use xlink:href="#mc7405baa71" x="45.465083" y="42.7183" style="stroke: #000000; stroke-width: 0.6"/>
      </g>
     </g>
    </g>
    <g id="ytick_32">
     <g id="line2d_55">
      <g>
       <use xlink:href="#mc7405baa71" x="45.465083" y="33.329097" style="stroke: #000000; stroke-width: 0.6"/>
      </g>
     </g>
    </g>
    <g id="ytick_33">
     <g id="line2d_56">
      <g>
       <use xlink:href="#mc7405baa71" x="45.465083" y="28.634496" style="stroke: #000000; stroke-width: 0.6"/>
      </g>
     </g>
    </g>
    <g id="ytick_34">
     <g id="line2d_57">
      <g>
       <use xlink:href="#mc7405baa71" x="45.465083" y="23.939895" style="stroke: #000000; stroke-width: 0.6"/>
      </g>
     </g>
    </g>
    <g id="ytick_35">
     <g id="line2d_58">
      <g>
       <use xlink:href="#mc7405baa71" x="45.465083" y="19.245294" style="stroke: #000000; stroke-width: 0.6"/>
      </g>
     </g>
    </g>
    <g id="text_14">
     <!-- \textbf{$S_u$ [MPa]} -->
     <g transform="translate(19.007214 119.479026) rotate(-90) scale(0.12 -0.12)">
      <defs>
       <path id="NewTXBMI-59" d="M 2995 1175 
C 2995 1734 2707 2157 1920 2754 
C 1523 3056 1427 3197 1427 3486 
C 1427 3903 1683 4160 2093 4160 
C 2605 4160 2854 3843 2938 3086 
L 3110 3060 
L 3366 4358 
L 3174 4358 
C 3117 4243 3027 4192 2893 4192 
C 2829 4192 2733 4211 2566 4262 
C 2298 4352 2125 4384 1939 4384 
C 1210 4384 653 3844 653 3138 
C 653 2966 685 2824 736 2715 
C 877 2445 1133 2163 1498 1880 
C 2003 1495 2221 1200 2221 898 
C 2221 757 2176 597 2099 462 
C 1952 211 1734 89 1414 89 
C 1082 89 800 241 634 501 
C 506 697 454 893 429 1280 
L 243 1280 
L 13 -128 
L 205 -128 
C 282 51 326 89 448 89 
C 512 89 595 71 742 20 
C 1056 -84 1274 -128 1530 -128 
C 2426 -128 2995 379 2995 1175 
z
" transform="scale(0.015625)"/>
       <path id="NewTXBMI-75" d="M 3149 757 
L 3014 840 
C 2790 499 2662 372 2554 372 
C 2502 372 2464 416 2464 481 
C 2464 558 2534 866 2624 1156 
L 3123 2880 
L 2368 2880 
C 2010 1638 1830 1214 1459 751 
C 1261 507 1120 397 992 397 
C 902 397 858 448 858 558 
C 858 654 864 693 954 983 
L 1555 2963 
C 1517 2954 1472 2947 1376 2923 
C 902 2818 525 2752 218 2752 
L 218 2560 
C 512 2560 576 2528 576 2401 
C 576 2299 544 2121 486 1937 
L 230 1092 
C 141 775 96 565 96 406 
C 96 95 256 -64 576 -64 
C 1005 -64 1197 102 1856 1017 
C 1741 667 1702 502 1702 318 
C 1702 57 1837 -64 2118 -64 
C 2502 -64 2816 191 3149 757 
z
" transform="scale(0.015625)"/>
       <path id="TeXGyreTermesX-Bold-4d" d="M 5894 -32 
L 5894 127 
C 5395 191 5331 262 5331 715 
L 5331 3540 
C 5331 4001 5427 4096 5894 4096 
L 5894 4274 
L 4282 4274 
L 3002 1268 
L 1722 4274 
L 102 4274 
L 102 4115 
C 570 4077 672 3994 672 3663 
L 672 637 
C 672 254 589 178 90 127 
L 90 -32 
L 1587 -32 
L 1587 127 
C 1062 165 941 286 941 758 
L 941 3752 
L 2554 -32 
L 2726 -32 
L 4339 3848 
L 4339 605 
C 4339 248 4250 172 3770 127 
L 3770 -32 
L 5894 -32 
z
" transform="scale(0.015625)"/>
       <path id="TeXGyreTermesX-Bold-50" d="M 3840 3130 
C 3840 3868 3232 4288 2163 4288 
L 102 4288 
L 102 4129 
C 550 4091 640 3989 640 3545 
L 640 742 
C 640 349 557 222 256 183 
C 237 183 173 171 102 158 
L 102 0 
L 2240 0 
L 2240 158 
C 1734 222 1677 279 1677 741 
L 1677 1920 
C 2541 1920 2758 1939 3040 2054 
C 3558 2251 3840 2640 3840 3130 
z
M 2739 3101 
C 2739 2701 2662 2460 2496 2314 
C 2342 2187 2131 2143 1677 2143 
L 1677 3843 
C 1677 3989 1786 4066 1997 4066 
C 2528 4066 2739 3787 2739 3101 
z
" transform="scale(0.015625)"/>
      </defs>
      <use xlink:href="#NewTXBMI-59" transform="scale(0.996264)"/>
      <use xlink:href="#NewTXBMI-75" transform="translate(59.218908 -14.943915) scale(0.727268)"/>
      <use xlink:href="#TeXGyreTermesX-Bold-5b" transform="translate(127.532495 0) scale(0.996264)"/>
      <use xlink:href="#TeXGyreTermesX-Bold-4d" transform="translate(160.708105 0) scale(0.996264)"/>
      <use xlink:href="#TeXGyreTermesX-Bold-50" transform="translate(254.755452 0) scale(0.996264)"/>
      <use xlink:href="#TeXGyreTermesX-Bold-61" transform="translate(313.634615 0) scale(0.996264)"/>
      <use xlink:href="#TeXGyreTermesX-Bold-5d" transform="translate(363.447816 0) scale(0.996264)"/>
     </g>
    </g>
   </g>
   <g id="line2d_59">
    <path d="M 53.913365 21.442907 
L 55.620088 23.232645 
L 57.326811 24.959022 
L 59.033535 26.624027 
L 60.740258 28.229609 
L 62.446982 29.777673 
L 64.153705 31.270085 
L 65.860429 32.708674 
L 67.567152 34.095227 
L 69.273876 35.431498 
L 70.980599 36.719204 
L 72.687323 37.960027 
L 74.394046 39.155615 
L 76.10077 40.307584 
L 77.807493 41.417519 
L 79.514216 42.486971 
L 81.22094 43.517464 
L 82.927663 44.510491 
L 84.634387 45.467518 
L 86.34111 46.389982 
L 88.047834 47.279294 
L 89.754557 48.136837 
L 91.461281 48.963971 
L 93.168004 49.762029 
L 94.874728 50.53232 
L 96.581451 51.276131 
L 98.288175 51.994725 
L 99.994898 52.689342 
L 101.701621 53.361202 
L 103.408345 54.0115 
L 105.115068 54.641416 
L 106.821792 55.252104 
L 108.528515 55.844701 
L 110.235239 56.420326 
L 111.941962 56.980078 
L 113.648686 57.525036 
L 115.355409 58.056263 
L 117.062133 58.574805 
L 118.768856 59.081691 
L 120.475579 59.57793 
L 122.182303 60.064521 
L 123.889026 60.542441 
L 125.59575 61.012655 
L 127.302473 61.476112 
L 129.009197 61.933747 
L 130.71592 62.386479 
L 132.422644 62.835214 
L 134.129367 63.280845 
L 135.836091 63.72425 
L 137.542814 64.166295 
L 139.249538 64.607832 
L 140.956261 65.049701 
L 142.662984 65.492731 
L 144.369708 65.937736 
L 146.076431 66.385522 
L 147.783155 66.83688 
L 149.489878 67.292591 
L 151.196602 67.753427 
L 152.903325 68.220146 
L 154.610049 68.693498 
L 156.316772 69.17422 
L 158.023496 69.663042 
L 159.730219 70.160682 
L 161.436943 70.667849 
L 163.143666 71.185242 
L 164.850389 71.713552 
L 166.557113 72.253458 
L 168.263836 72.805634 
L 169.97056 73.370742 
L 171.677283 73.949438 
L 173.384007 74.542367 
L 175.09073 75.150167 
L 176.797454 75.77347 
L 178.504177 76.412895 
L 180.210901 77.069059 
L 181.917624 77.742567 
L 183.624347 78.434019 
L 185.331071 79.144006 
L 187.037794 79.873114 
L 188.744518 80.62192 
L 190.451241 81.390994 
L 192.157965 82.180902 
L 193.864688 82.992199 
L 195.571412 83.825437 
L 197.278135 84.68116 
L 198.984859 85.559907 
L 200.691582 86.462209 
L 202.398306 87.388592 
L 204.105029 88.339575 
L 205.811752 89.315673 
L 207.518476 90.317395 
L 209.225199 91.345242 
L 210.931923 92.399712 
L 212.638646 93.481296 
L 214.34537 94.590482 
L 216.052093 95.727748 
L 217.758817 96.893573 
L 219.46554 98.088426 
L 221.172264 99.312773 
L 222.878987 100.567075 
" clip-path="url(#pdf979d28bd)" style="fill: none; stroke: #000000; stroke-width: 1.5; stroke-linecap: square"/>
   </g>
   <g id="line2d_60">
    <path d="M 53.913365 90.333597 
L 55.620088 92.123336 
L 57.326811 93.849713 
L 59.033535 95.514718 
L 60.740258 97.120299 
L 62.446982 98.668363 
L 64.153705 100.160776 
L 65.860429 101.599364 
L 67.567152 102.985918 
L 69.273876 104.322189 
L 70.980599 105.609895 
L 72.687323 106.850718 
L 74.394046 108.046306 
L 76.10077 109.198275 
L 77.807493 110.308209 
L 79.514216 111.377662 
L 81.22094 112.408155 
L 82.927663 113.401182 
L 84.634387 114.358209 
L 86.34111 115.280673 
L 88.047834 116.169985 
L 89.754557 117.027528 
L 91.461281 117.854662 
L 93.168004 118.652719 
L 94.874728 119.423011 
L 96.581451 120.166822 
L 98.288175 120.885416 
L 99.994898 121.580033 
L 101.701621 122.251892 
L 103.408345 122.902191 
L 105.115068 123.532106 
L 106.821792 124.142794 
L 108.528515 124.735392 
L 110.235239 125.311017 
L 111.941962 125.870768 
L 113.648686 126.415726 
L 115.355409 126.946954 
L 117.062133 127.465496 
L 118.768856 127.972381 
L 120.475579 128.468621 
L 122.182303 128.955211 
L 123.889026 129.433131 
L 125.59575 129.903346 
L 127.302473 130.366803 
L 129.009197 130.824437 
L 130.71592 131.27717 
L 132.422644 131.725905 
L 134.129367 132.171536 
L 135.836091 132.614941 
L 137.542814 133.056986 
L 139.249538 133.498523 
L 140.956261 133.940392 
L 142.662984 134.383422 
L 144.369708 134.828427 
L 146.076431 135.276213 
L 147.783155 135.72757 
L 149.489878 136.183282 
L 151.196602 136.644118 
L 152.903325 137.110837 
L 154.610049 137.584189 
L 156.316772 138.064911 
L 158.023496 138.553733 
L 159.730219 139.051373 
L 161.436943 139.55854 
L 163.143666 140.075933 
L 164.850389 140.604242 
L 166.557113 141.144149 
L 168.263836 141.696325 
L 169.97056 142.261433 
L 171.677283 142.840129 
L 173.384007 143.433058 
L 175.09073 144.040858 
L 176.797454 144.66416 
L 178.504177 145.303586 
L 180.210901 145.959749 
L 181.917624 146.633258 
L 183.624347 147.324709 
L 185.331071 148.034697 
L 187.037794 148.763805 
L 188.744518 149.51261 
L 190.451241 150.281685 
L 192.157965 151.071592 
L 193.864688 151.88289 
L 195.571412 152.716128 
L 197.278135 153.571851 
L 198.984859 154.450598 
L 200.691582 155.3529 
L 202.398306 156.279282 
L 204.105029 157.230266 
L 205.811752 158.206364 
L 207.518476 159.208086 
L 209.225199 160.235933 
L 210.931923 161.290403 
L 212.638646 162.371987 
L 214.34537 163.481172 
L 216.052093 164.618439 
L 217.758817 165.784264 
L 219.46554 166.979116 
L 221.172264 168.203463 
L 222.878987 169.457765 
" clip-path="url(#pdf979d28bd)" style="fill: none; stroke-dasharray: 5.55,2.4; stroke-dashoffset: 0; stroke: #000000; stroke-width: 1.5"/>
   </g>
   <g id="patch_3">
    <path d="M 45.465083 176.858508 
L 45.465083 14.042164 
" style="fill: none; stroke: #000000; stroke-width: 0.8; stroke-linejoin: miter; stroke-linecap: square"/>
   </g>
   <g id="patch_4">
    <path d="M 231.327268 176.858508 
L 231.327268 14.042164 
" style="fill: none; stroke: #000000; stroke-width: 0.8; stroke-linejoin: miter; stroke-linecap: square"/>
   </g>
   <g id="patch_5">
    <path d="M 45.465083 176.858508 
L 231.327268 176.858508 
" style="fill: none; stroke: #000000; stroke-width: 0.8; stroke-linejoin: miter; stroke-linecap: square"/>
   </g>
   <g id="patch_6">
    <path d="M 45.465083 14.042164 
L 231.327268 14.042164 
" style="fill: none; stroke: #000000; stroke-width: 0.8; stroke-linejoin: miter; stroke-linecap: square"/>
   </g>
  </g>
  <g id="axes_2">
   <g id="patch_7">
    <path d="M 271.337815 176.858508 
L 457.2 176.858508 
L 457.2 14.042164 
L 271.337815 14.042164 
z
" style="fill: #ffffff"/>
   </g>
   <g id="PathCollection_3">
    <g clip-path="url(#p4f2489c3b2)">
     <use xlink:href="#m11ff3d23ee" x="296.682659" y="138.997472" style="stroke: #000000"/>
     <use xlink:href="#m11ff3d23ee" x="313.579221" y="129.66939" style="stroke: #000000"/>
     <use xlink:href="#m11ff3d23ee" x="330.475783" y="152.166528" style="stroke: #000000"/>
     <use xlink:href="#m11ff3d23ee" x="347.372345" y="158.202345" style="stroke: #000000"/>
     <use xlink:href="#m11ff3d23ee" x="381.16547" y="160.945899" style="stroke: #000000"/>
     <use xlink:href="#m11ff3d23ee" x="431.855157" y="162.592031" style="stroke: #000000"/>
    </g>
   </g>
   <g id="matplotlib.axis_3">
    <g id="xtick_24">
     <g id="line2d_61">
      <g>
       <use xlink:href="#me68ce6956c" x="271.337815" y="176.858508" style="stroke: #000000; stroke-width: 0.8"/>
      </g>
     </g>
     <g id="text_15">
      <!-- $\mathdefault{250}$ -->
      <g transform="translate(263.156011 187.881779) scale(0.11 -0.11)">
       <use xlink:href="#TeXGyreTermesX-Bold-32" transform="scale(0.996264)"/>
       <use xlink:href="#TeXGyreTermesX-Bold-35" transform="translate(49.8132 0) scale(0.996264)"/>
       <use xlink:href="#TeXGyreTermesX-Bold-30" transform="translate(99.626401 0) scale(0.996264)"/>
      </g>
     </g>
    </g>
    <g id="xtick_25">
     <g id="line2d_62">
      <g>
       <use xlink:href="#me68ce6956c" x="313.579221" y="176.858508" style="stroke: #000000; stroke-width: 0.8"/>
      </g>
     </g>
     <g id="text_16">
      <!-- $\mathdefault{500}$ -->
      <g transform="translate(305.397416 187.881779) scale(0.11 -0.11)">
       <use xlink:href="#TeXGyreTermesX-Bold-35" transform="scale(0.996264)"/>
       <use xlink:href="#TeXGyreTermesX-Bold-30" transform="translate(49.8132 0) scale(0.996264)"/>
       <use xlink:href="#TeXGyreTermesX-Bold-30" transform="translate(99.626401 0) scale(0.996264)"/>
      </g>
     </g>
    </g>
    <g id="xtick_26">
     <g id="line2d_63">
      <g>
       <use xlink:href="#me68ce6956c" x="355.820627" y="176.858508" style="stroke: #000000; stroke-width: 0.8"/>
      </g>
     </g>
     <g id="text_17">
      <!-- $\mathdefault{750}$ -->
      <g transform="translate(347.638822 187.881779) scale(0.11 -0.11)">
       <use xlink:href="#TeXGyreTermesX-Bold-37" transform="scale(0.996264)"/>
       <use xlink:href="#TeXGyreTermesX-Bold-35" transform="translate(49.8132 0) scale(0.996264)"/>
       <use xlink:href="#TeXGyreTermesX-Bold-30" transform="translate(99.626401 0) scale(0.996264)"/>
      </g>
     </g>
    </g>
    <g id="xtick_27">
     <g id="line2d_64">
      <g>
       <use xlink:href="#me68ce6956c" x="398.062032" y="176.858508" style="stroke: #000000; stroke-width: 0.8"/>
      </g>
     </g>
     <g id="text_18">
      <!-- $\mathdefault{1000}$ -->
      <g transform="translate(387.152959 187.881779) scale(0.11 -0.11)">
       <use xlink:href="#TeXGyreTermesX-Bold-31" transform="scale(0.996264)"/>
       <use xlink:href="#TeXGyreTermesX-Bold-30" transform="translate(49.8132 0) scale(0.996264)"/>
       <use xlink:href="#TeXGyreTermesX-Bold-30" transform="translate(99.626401 0) scale(0.996264)"/>
       <use xlink:href="#TeXGyreTermesX-Bold-30" transform="translate(149.439601 0) scale(0.996264)"/>
      </g>
     </g>
    </g>
    <g id="xtick_28">
     <g id="line2d_65">
      <g>
       <use xlink:href="#me68ce6956c" x="440.303438" y="176.858508" style="stroke: #000000; stroke-width: 0.8"/>
      </g>
     </g>
     <g id="text_19">
      <!-- $\mathdefault{1250}$ -->
      <g transform="translate(429.394365 187.881779) scale(0.11 -0.11)">
       <use xlink:href="#TeXGyreTermesX-Bold-31" transform="scale(0.996264)"/>
       <use xlink:href="#TeXGyreTermesX-Bold-32" transform="translate(49.8132 0) scale(0.996264)"/>
       <use xlink:href="#TeXGyreTermesX-Bold-35" transform="translate(99.626401 0) scale(0.996264)"/>
       <use xlink:href="#TeXGyreTermesX-Bold-30" transform="translate(149.439601 0) scale(0.996264)"/>
      </g>
     </g>
    </g>
    <g id="xtick_29">
     <g id="line2d_66">
      <g>
       <use xlink:href="#mff33f9dcef" x="279.786096" y="176.858508" style="stroke: #000000; stroke-width: 0.6"/>
      </g>
     </g>
    </g>
    <g id="xtick_30">
     <g id="line2d_67">
      <g>
       <use xlink:href="#mff33f9dcef" x="288.234378" y="176.858508" style="stroke: #000000; stroke-width: 0.6"/>
      </g>
     </g>
    </g>
    <g id="xtick_31">
     <g id="line2d_68">
      <g>
       <use xlink:href="#mff33f9dcef" x="296.682659" y="176.858508" style="stroke: #000000; stroke-width: 0.6"/>
      </g>
     </g>
    </g>
    <g id="xtick_32">
     <g id="line2d_69">
      <g>
       <use xlink:href="#mff33f9dcef" x="305.13094" y="176.858508" style="stroke: #000000; stroke-width: 0.6"/>
      </g>
     </g>
    </g>
    <g id="xtick_33">
     <g id="line2d_70">
      <g>
       <use xlink:href="#mff33f9dcef" x="322.027502" y="176.858508" style="stroke: #000000; stroke-width: 0.6"/>
      </g>
     </g>
    </g>
    <g id="xtick_34">
     <g id="line2d_71">
      <g>
       <use xlink:href="#mff33f9dcef" x="330.475783" y="176.858508" style="stroke: #000000; stroke-width: 0.6"/>
      </g>
     </g>
    </g>
    <g id="xtick_35">
     <g id="line2d_72">
      <g>
       <use xlink:href="#mff33f9dcef" x="338.924064" y="176.858508" style="stroke: #000000; stroke-width: 0.6"/>
      </g>
     </g>
    </g>
    <g id="xtick_36">
     <g id="line2d_73">
      <g>
       <use xlink:href="#mff33f9dcef" x="347.372345" y="176.858508" style="stroke: #000000; stroke-width: 0.6"/>
      </g>
     </g>
    </g>
    <g id="xtick_37">
     <g id="line2d_74">
      <g>
       <use xlink:href="#mff33f9dcef" x="364.268908" y="176.858508" style="stroke: #000000; stroke-width: 0.6"/>
      </g>
     </g>
    </g>
    <g id="xtick_38">
     <g id="line2d_75">
      <g>
       <use xlink:href="#mff33f9dcef" x="372.717189" y="176.858508" style="stroke: #000000; stroke-width: 0.6"/>
      </g>
     </g>
    </g>
    <g id="xtick_39">
     <g id="line2d_76">
      <g>
       <use xlink:href="#mff33f9dcef" x="381.16547" y="176.858508" style="stroke: #000000; stroke-width: 0.6"/>
      </g>
     </g>
    </g>
    <g id="xtick_40">
     <g id="line2d_77">
      <g>
       <use xlink:href="#mff33f9dcef" x="389.613751" y="176.858508" style="stroke: #000000; stroke-width: 0.6"/>
      </g>
     </g>
    </g>
    <g id="xtick_41">
     <g id="line2d_78">
      <g>
       <use xlink:href="#mff33f9dcef" x="406.510313" y="176.858508" style="stroke: #000000; stroke-width: 0.6"/>
      </g>
     </g>
    </g>
    <g id="xtick_42">
     <g id="line2d_79">
      <g>
       <use xlink:href="#mff33f9dcef" x="414.958594" y="176.858508" style="stroke: #000000; stroke-width: 0.6"/>
      </g>
     </g>
    </g>
    <g id="xtick_43">
     <g id="line2d_80">
      <g>
       <use xlink:href="#mff33f9dcef" x="423.406876" y="176.858508" style="stroke: #000000; stroke-width: 0.6"/>
      </g>
     </g>
    </g>
    <g id="xtick_44">
     <g id="line2d_81">
      <g>
       <use xlink:href="#mff33f9dcef" x="431.855157" y="176.858508" style="stroke: #000000; stroke-width: 0.6"/>
      </g>
     </g>
    </g>
    <g id="xtick_45">
     <g id="line2d_82">
      <g>
       <use xlink:href="#mff33f9dcef" x="448.751719" y="176.858508" style="stroke: #000000; stroke-width: 0.6"/>
      </g>
     </g>
    </g>
    <g id="xtick_46">
     <g id="line2d_83">
      <g>
       <use xlink:href="#mff33f9dcef" x="457.2" y="176.858508" style="stroke: #000000; stroke-width: 0.6"/>
      </g>
     </g>
    </g>
    <g id="text_20">
     <!-- \textbf{Temperature [$^\circ C$]} -->
     <g transform="translate(318.729103 202.60574) scale(0.12 -0.12)">
      <use xlink:href="#TeXGyreTermesX-Bold-54" transform="scale(0.996264)"/>
      <use xlink:href="#TeXGyreTermesX-Bold-65" transform="translate(57.982532 0) scale(0.996264)"/>
      <use xlink:href="#TeXGyreTermesX-Bold-6d" transform="translate(102.216678 0) scale(0.996264)"/>
      <use xlink:href="#TeXGyreTermesX-Bold-70" transform="translate(183.711047 0) scale(0.996264)"/>
      <use xlink:href="#TeXGyreTermesX-Bold-65" transform="translate(239.103302 0) scale(0.996264)"/>
      <use xlink:href="#TeXGyreTermesX-Bold-72" transform="translate(283.337448 0) scale(0.996264)"/>
      <use xlink:href="#TeXGyreTermesX-Bold-61" transform="translate(327.571594 0) scale(0.996264)"/>
      <use xlink:href="#TeXGyreTermesX-Bold-74" transform="translate(377.384795 0) scale(0.996264)"/>
      <use xlink:href="#TeXGyreTermesX-Bold-75" transform="translate(410.560405 0) scale(0.996264)"/>
      <use xlink:href="#TeXGyreTermesX-Bold-72" transform="translate(465.952659 0) scale(0.996264)"/>
      <use xlink:href="#TeXGyreTermesX-Bold-65" transform="translate(509.190511 0) scale(0.996264)"/>
      <use xlink:href="#TeXGyreTermesX-Bold-5b" transform="translate(578.331258 0) scale(0.996264)"/>
      <use xlink:href="#txbsys-e" transform="translate(611.506868 36.164371) scale(0.727268)"/>
      <use xlink:href="#NewTXBMI-49" transform="translate(650.512346 0) scale(0.996264)"/>
      <use xlink:href="#TeXGyreTermesX-Bold-5d" transform="translate(721.994258 0) scale(0.996264)"/>
     </g>
    </g>
   </g>
   <g id="matplotlib.axis_4">
    <g id="ytick_36">
     <g id="line2d_84">
      <g>
       <use xlink:href="#m5d180dcfb7" x="271.337815" y="176.858508" style="stroke: #000000; stroke-width: 0.8"/>
      </g>
     </g>
     <g id="text_21">
      <!-- $\mathdefault{0}$ -->
      <g transform="translate(262.383279 180.620144) scale(0.11 -0.11)">
       <use xlink:href="#TeXGyreTermesX-Bold-30" transform="scale(0.996264)"/>
      </g>
     </g>
    </g>
    <g id="ytick_37">
     <g id="line2d_85">
      <g>
       <use xlink:href="#m5d180dcfb7" x="271.337815" y="152.307625" style="stroke: #000000; stroke-width: 0.8"/>
      </g>
     </g>
     <g id="text_22">
      <!-- $\mathdefault{3}$ -->
      <g transform="translate(262.383279 156.06926) scale(0.11 -0.11)">
       <use xlink:href="#TeXGyreTermesX-Bold-33" transform="scale(0.996264)"/>
      </g>
     </g>
    </g>
    <g id="ytick_38">
     <g id="line2d_86">
      <g>
       <use xlink:href="#m5d180dcfb7" x="271.337815" y="127.756742" style="stroke: #000000; stroke-width: 0.8"/>
      </g>
     </g>
     <g id="text_23">
      <!-- $\mathdefault{6}$ -->
      <g transform="translate(262.383279 131.518377) scale(0.11 -0.11)">
       <use xlink:href="#TeXGyreTermesX-Bold-36" transform="scale(0.996264)"/>
      </g>
     </g>
    </g>
    <g id="ytick_39">
     <g id="line2d_87">
      <g>
       <use xlink:href="#m5d180dcfb7" x="271.337815" y="103.205858" style="stroke: #000000; stroke-width: 0.8"/>
      </g>
     </g>
     <g id="text_24">
      <!-- $\mathdefault{9}$ -->
      <g transform="translate(262.383279 106.967494) scale(0.11 -0.11)">
       <use xlink:href="#TeXGyreTermesX-Bold-39" transform="scale(0.996264)"/>
      </g>
     </g>
    </g>
    <g id="ytick_40">
     <g id="line2d_88">
      <g>
       <use xlink:href="#m5d180dcfb7" x="271.337815" y="78.654975" style="stroke: #000000; stroke-width: 0.8"/>
      </g>
     </g>
     <g id="text_25">
      <!-- $\mathdefault{12}$ -->
      <g transform="translate(256.928743 82.41661) scale(0.11 -0.11)">
       <use xlink:href="#TeXGyreTermesX-Bold-31" transform="scale(0.996264)"/>
       <use xlink:href="#TeXGyreTermesX-Bold-32" transform="translate(49.8132 0) scale(0.996264)"/>
      </g>
     </g>
    </g>
    <g id="ytick_41">
     <g id="line2d_89">
      <g>
       <use xlink:href="#m5d180dcfb7" x="271.337815" y="54.104092" style="stroke: #000000; stroke-width: 0.8"/>
      </g>
     </g>
     <g id="text_26">
      <!-- $\mathdefault{15}$ -->
      <g transform="translate(256.928743 57.865727) scale(0.11 -0.11)">
       <use xlink:href="#TeXGyreTermesX-Bold-31" transform="scale(0.996264)"/>
       <use xlink:href="#TeXGyreTermesX-Bold-35" transform="translate(49.8132 0) scale(0.996264)"/>
      </g>
     </g>
    </g>
    <g id="ytick_42">
     <g id="line2d_90">
      <g>
       <use xlink:href="#m5d180dcfb7" x="271.337815" y="29.553208" style="stroke: #000000; stroke-width: 0.8"/>
      </g>
     </g>
     <g id="text_27">
      <!-- $\mathdefault{18}$ -->
      <g transform="translate(256.928743 33.314844) scale(0.11 -0.11)">
       <use xlink:href="#TeXGyreTermesX-Bold-31" transform="scale(0.996264)"/>
       <use xlink:href="#TeXGyreTermesX-Bold-38" transform="translate(49.8132 0) scale(0.996264)"/>
      </g>
     </g>
    </g>
    <g id="ytick_43">
     <g id="line2d_91">
      <g>
       <use xlink:href="#mc7405baa71" x="271.337815" y="171.948332" style="stroke: #000000; stroke-width: 0.6"/>
      </g>
     </g>
    </g>
    <g id="ytick_44">
     <g id="line2d_92">
      <g>
       <use xlink:href="#mc7405baa71" x="271.337815" y="167.038155" style="stroke: #000000; stroke-width: 0.6"/>
      </g>
     </g>
    </g>
    <g id="ytick_45">
     <g id="line2d_93">
      <g>
       <use xlink:href="#mc7405baa71" x="271.337815" y="162.127978" style="stroke: #000000; stroke-width: 0.6"/>
      </g>
     </g>
    </g>
    <g id="ytick_46">
     <g id="line2d_94">
      <g>
       <use xlink:href="#mc7405baa71" x="271.337815" y="157.217802" style="stroke: #000000; stroke-width: 0.6"/>
      </g>
     </g>
    </g>
    <g id="ytick_47">
     <g id="line2d_95">
      <g>
       <use xlink:href="#mc7405baa71" x="271.337815" y="147.397448" style="stroke: #000000; stroke-width: 0.6"/>
      </g>
     </g>
    </g>
    <g id="ytick_48">
     <g id="line2d_96">
      <g>
       <use xlink:href="#mc7405baa71" x="271.337815" y="142.487272" style="stroke: #000000; stroke-width: 0.6"/>
      </g>
     </g>
    </g>
    <g id="ytick_49">
     <g id="line2d_97">
      <g>
       <use xlink:href="#mc7405baa71" x="271.337815" y="137.577095" style="stroke: #000000; stroke-width: 0.6"/>
      </g>
     </g>
    </g>
    <g id="ytick_50">
     <g id="line2d_98">
      <g>
       <use xlink:href="#mc7405baa71" x="271.337815" y="132.666918" style="stroke: #000000; stroke-width: 0.6"/>
      </g>
     </g>
    </g>
    <g id="ytick_51">
     <g id="line2d_99">
      <g>
       <use xlink:href="#mc7405baa71" x="271.337815" y="122.846565" style="stroke: #000000; stroke-width: 0.6"/>
      </g>
     </g>
    </g>
    <g id="ytick_52">
     <g id="line2d_100">
      <g>
       <use xlink:href="#mc7405baa71" x="271.337815" y="117.936388" style="stroke: #000000; stroke-width: 0.6"/>
      </g>
     </g>
    </g>
    <g id="ytick_53">
     <g id="line2d_101">
      <g>
       <use xlink:href="#mc7405baa71" x="271.337815" y="113.026212" style="stroke: #000000; stroke-width: 0.6"/>
      </g>
     </g>
    </g>
    <g id="ytick_54">
     <g id="line2d_102">
      <g>
       <use xlink:href="#mc7405baa71" x="271.337815" y="108.116035" style="stroke: #000000; stroke-width: 0.6"/>
      </g>
     </g>
    </g>
    <g id="ytick_55">
     <g id="line2d_103">
      <g>
       <use xlink:href="#mc7405baa71" x="271.337815" y="98.295682" style="stroke: #000000; stroke-width: 0.6"/>
      </g>
     </g>
    </g>
    <g id="ytick_56">
     <g id="line2d_104">
      <g>
       <use xlink:href="#mc7405baa71" x="271.337815" y="93.385505" style="stroke: #000000; stroke-width: 0.6"/>
      </g>
     </g>
    </g>
    <g id="ytick_57">
     <g id="line2d_105">
      <g>
       <use xlink:href="#mc7405baa71" x="271.337815" y="88.475328" style="stroke: #000000; stroke-width: 0.6"/>
      </g>
     </g>
    </g>
    <g id="ytick_58">
     <g id="line2d_106">
      <g>
       <use xlink:href="#mc7405baa71" x="271.337815" y="83.565152" style="stroke: #000000; stroke-width: 0.6"/>
      </g>
     </g>
    </g>
    <g id="ytick_59">
     <g id="line2d_107">
      <g>
       <use xlink:href="#mc7405baa71" x="271.337815" y="73.744798" style="stroke: #000000; stroke-width: 0.6"/>
      </g>
     </g>
    </g>
    <g id="ytick_60">
     <g id="line2d_108">
      <g>
       <use xlink:href="#mc7405baa71" x="271.337815" y="68.834622" style="stroke: #000000; stroke-width: 0.6"/>
      </g>
     </g>
    </g>
    <g id="ytick_61">
     <g id="line2d_109">
      <g>
       <use xlink:href="#mc7405baa71" x="271.337815" y="63.924445" style="stroke: #000000; stroke-width: 0.6"/>
      </g>
     </g>
    </g>
    <g id="ytick_62">
     <g id="line2d_110">
      <g>
       <use xlink:href="#mc7405baa71" x="271.337815" y="59.014268" style="stroke: #000000; stroke-width: 0.6"/>
      </g>
     </g>
    </g>
    <g id="ytick_63">
     <g id="line2d_111">
      <g>
       <use xlink:href="#mc7405baa71" x="271.337815" y="49.193915" style="stroke: #000000; stroke-width: 0.6"/>
      </g>
     </g>
    </g>
    <g id="ytick_64">
     <g id="line2d_112">
      <g>
       <use xlink:href="#mc7405baa71" x="271.337815" y="44.283738" style="stroke: #000000; stroke-width: 0.6"/>
      </g>
     </g>
    </g>
    <g id="ytick_65">
     <g id="line2d_113">
      <g>
       <use xlink:href="#mc7405baa71" x="271.337815" y="39.373562" style="stroke: #000000; stroke-width: 0.6"/>
      </g>
     </g>
    </g>
    <g id="ytick_66">
     <g id="line2d_114">
      <g>
       <use xlink:href="#mc7405baa71" x="271.337815" y="34.463385" style="stroke: #000000; stroke-width: 0.6"/>
      </g>
     </g>
    </g>
    <g id="ytick_67">
     <g id="line2d_115">
      <g>
       <use xlink:href="#mc7405baa71" x="271.337815" y="24.643031" style="stroke: #000000; stroke-width: 0.6"/>
      </g>
     </g>
    </g>
    <g id="ytick_68">
     <g id="line2d_116">
      <g>
       <use xlink:href="#mc7405baa71" x="271.337815" y="19.732855" style="stroke: #000000; stroke-width: 0.6"/>
      </g>
     </g>
    </g>
    <g id="ytick_69">
     <g id="line2d_117">
      <g>
       <use xlink:href="#mc7405baa71" x="271.337815" y="14.822678" style="stroke: #000000; stroke-width: 0.6"/>
      </g>
     </g>
    </g>
    <g id="text_28">
     <!-- \textbf{$\varepsilon_{u}$ [\%]} -->
     <g transform="translate(250.334482 113.059108) rotate(-90) scale(0.12 -0.12)">
      <defs>
       <path id="NewTXBMI-39" d="M 3264 2330 
C 3264 2829 2394 2944 2022 2944 
C 1491 2944 634 2715 634 2040 
C 634 1759 851 1628 1088 1543 
C 659 1485 109 1219 109 724 
C 109 70 896 -64 1402 -64 
C 1907 -64 2515 86 2854 495 
C 2938 592 3008 715 3008 844 
C 3008 1000 2874 1117 2726 1117 
C 2298 1117 2291 135 1472 135 
C 1114 135 973 338 973 673 
C 973 1021 1197 1344 1574 1344 
C 1760 1344 1939 1274 2131 1274 
C 2298 1274 2362 1370 2362 1530 
C 2362 1677 2272 1728 2138 1728 
C 2029 1728 1926 1671 1818 1671 
C 1632 1671 1414 1730 1414 1961 
C 1414 2337 1587 2739 2010 2739 
C 2618 2739 2496 2029 2976 2029 
C 3174 2029 3264 2138 3264 2330 
z
" transform="scale(0.015625)"/>
       <path id="TeXGyreTermesX-Bold-25" d="M 6029 1154 
C 6029 1792 5619 2372 5011 2372 
C 4371 2372 3910 1792 3910 1142 
C 3910 492 4378 -64 5011 -64 
C 5619 -64 6029 517 6029 1154 
z
M 4128 4416 
L 3859 4416 
C 3565 4098 3258 3968 2822 3968 
C 2547 3968 2362 4010 2150 4110 
C 1990 4234 1798 4305 1574 4305 
C 934 4305 474 3728 474 3082 
C 474 2435 941 1884 1574 1884 
C 2182 1884 2592 2466 2592 3105 
C 2592 3340 2534 3567 2438 3764 
C 2560 3739 2682 3726 2810 3726 
C 3066 3726 3315 3784 3578 3898 
L 2381 -64 
L 2765 -64 
L 4128 4416 
z
M 5850 1141 
C 5850 726 5626 229 5254 229 
C 4858 229 4685 688 4685 1141 
C 4685 1589 4858 2048 5254 2048 
C 5626 2048 5850 1551 5850 1141 
z
M 2413 3076 
C 2413 2666 2189 2176 1818 2176 
C 1421 2176 1248 2634 1248 3085 
C 1248 3517 1414 3968 1792 3968 
C 1907 3900 2035 3844 2157 3801 
C 2323 3621 2413 3329 2413 3076 
z
" transform="scale(0.015625)"/>
      </defs>
      <use xlink:href="#NewTXBMI-39" transform="scale(0.996264)"/>
      <use xlink:href="#NewTXBMI-75" transform="translate(55.333515 -14.943915) scale(0.727268)"/>
      <use xlink:href="#TeXGyreTermesX-Bold-5b" transform="translate(123.647102 0) scale(0.996264)"/>
      <use xlink:href="#TeXGyreTermesX-Bold-25" transform="translate(156.822712 0) scale(0.996264)"/>
      <use xlink:href="#TeXGyreTermesX-Bold-5d" transform="translate(256.449113 0) scale(0.996264)"/>
     </g>
    </g>
   </g>
   <g id="line2d_118">
    <path d="M 279.786096 112.697515 
L 281.49282 114.553256 
L 283.199543 116.351733 
L 284.906267 118.094629 
L 286.61299 119.783575 
L 288.319714 121.420145 
L 290.026437 123.005867 
L 291.733161 124.542218 
L 293.439884 126.030627 
L 295.146608 127.472482 
L 296.853331 128.869126 
L 298.560054 130.221859 
L 300.266778 131.531944 
L 301.973501 132.800603 
L 303.680225 134.029025 
L 305.386948 135.218359 
L 307.093672 136.369723 
L 308.800395 137.4842 
L 310.507119 138.562844 
L 312.213842 139.606676 
L 313.920566 140.616689 
L 315.627289 141.593845 
L 317.334013 142.539083 
L 319.040736 143.453312 
L 320.747459 144.337417 
L 322.454183 145.192257 
L 324.160906 146.01867 
L 325.86763 146.817469 
L 327.574353 147.589445 
L 329.281077 148.335367 
L 330.9878 149.055985 
L 332.694524 149.752027 
L 334.401247 150.424205 
L 336.107971 151.073208 
L 337.814694 151.699709 
L 339.521417 152.304365 
L 341.228141 152.887814 
L 342.934864 153.450677 
L 344.641588 153.993561 
L 346.348311 154.517057 
L 348.055035 155.021742 
L 349.761758 155.508175 
L 351.468482 155.976906 
L 353.175205 156.428468 
L 354.881929 156.863383 
L 356.588652 157.282158 
L 358.295376 157.685289 
L 360.002099 158.07326 
L 361.708822 158.446545 
L 363.415546 158.805603 
L 365.122269 159.150884 
L 366.828993 159.48283 
L 368.535716 159.801868 
L 370.24244 160.108417 
L 371.949163 160.402889 
L 373.655887 160.685682 
L 375.36261 160.957187 
L 377.069334 161.217788 
L 378.776057 161.467856 
L 380.482781 161.707758 
L 382.189504 161.937849 
L 383.896227 162.15848 
L 385.602951 162.36999 
L 387.309674 162.572715 
L 389.016398 162.766979 
L 390.723121 162.953103 
L 392.429845 163.131399 
L 394.136568 163.302173 
L 395.843292 163.465723 
L 397.550015 163.622343 
L 399.256739 163.772319 
L 400.963462 163.915931 
L 402.670185 164.053454 
L 404.376909 164.185157 
L 406.083632 164.311303 
L 407.790356 164.432151 
L 409.497079 164.547952 
L 411.203803 164.658955 
L 412.910526 164.765401 
L 414.61725 164.867528 
L 416.323973 164.965569 
L 418.030697 165.059751 
L 419.73742 165.150299 
L 421.444144 165.237431 
L 423.150867 165.321363 
L 424.85759 165.402304 
L 426.564314 165.480462 
L 428.271037 165.556038 
L 429.977761 165.629231 
L 431.684484 165.700236 
L 433.391208 165.769243 
L 435.097931 165.836441 
L 436.804655 165.902012 
L 438.511378 165.966138 
L 440.218102 166.028994 
L 441.924825 166.090755 
L 443.631548 166.151591 
L 445.338272 166.211669 
L 447.044995 166.271154 
L 448.751719 166.330205 
" clip-path="url(#p4f2489c3b2)" style="fill: none; stroke: #000000; stroke-width: 1.5; stroke-linecap: square"/>
   </g>
   <g id="line2d_119">
    <path d="M 279.786096 21.293975 
L 281.49282 23.608632 
L 283.199543 25.893287 
L 284.906267 28.149796 
L 286.61299 30.379939 
L 288.319714 32.585413 
L 290.026437 34.76783 
L 291.733161 36.928714 
L 293.439884 39.069498 
L 295.146608 41.191519 
L 296.853331 43.296017 
L 298.560054 45.384129 
L 300.266778 47.456889 
L 301.973501 49.515223 
L 303.680225 51.559948 
L 305.386948 53.591769 
L 307.093672 55.611278 
L 308.800395 57.618952 
L 310.507119 59.615153 
L 312.213842 61.600129 
L 313.920566 63.574012 
L 315.627289 65.536823 
L 317.334013 67.488473 
L 319.040736 69.428765 
L 320.747459 71.357399 
L 322.454183 73.273974 
L 324.160906 75.178 
L 325.86763 77.068897 
L 327.574353 78.946005 
L 329.281077 80.808593 
L 330.9878 82.655865 
L 332.694524 84.486968 
L 334.401247 86.301004 
L 336.107971 88.097037 
L 337.814694 89.874104 
L 339.521417 91.631224 
L 341.228141 93.367406 
L 342.934864 95.081664 
L 344.641588 96.773018 
L 346.348311 98.440512 
L 348.055035 100.083214 
L 349.761758 101.700232 
L 351.468482 103.290714 
L 353.175205 104.853861 
L 354.881929 106.388927 
L 356.588652 107.89523 
L 358.295376 109.372154 
L 360.002099 110.819149 
L 361.708822 112.235741 
L 363.415546 113.621529 
L 365.122269 114.976185 
L 366.828993 116.299461 
L 368.535716 117.591181 
L 370.24244 118.851247 
L 371.949163 120.079633 
L 373.655887 121.276384 
L 375.36261 122.441614 
L 377.069334 123.575505 
L 378.776057 124.678301 
L 380.482781 125.750304 
L 382.189504 126.791875 
L 383.896227 127.803424 
L 385.602951 128.785411 
L 387.309674 129.738338 
L 389.016398 130.66275 
L 390.723121 131.559224 
L 392.429845 132.428372 
L 394.136568 133.270831 
L 395.843292 134.087266 
L 397.550015 134.878359 
L 399.256739 135.64481 
L 400.963462 136.387334 
L 402.670185 137.106656 
L 404.376909 137.803508 
L 406.083632 138.478628 
L 407.790356 139.132756 
L 409.497079 139.766631 
L 411.203803 140.380993 
L 412.910526 140.976575 
L 414.61725 141.554106 
L 416.323973 142.114307 
L 418.030697 142.657892 
L 419.73742 143.185563 
L 421.444144 143.698012 
L 423.150867 144.195919 
L 424.85759 144.679951 
L 426.564314 145.150762 
L 428.271037 145.608993 
L 429.977761 146.055269 
L 431.684484 146.4902 
L 433.391208 146.914384 
L 435.097931 147.328399 
L 436.804655 147.732813 
L 438.511378 148.128174 
L 440.218102 148.515019 
L 441.924825 148.893865 
L 443.631548 149.265219 
L 445.338272 149.629569 
L 447.044995 149.98739 
L 448.751719 150.339142 
" clip-path="url(#p4f2489c3b2)" style="fill: none; stroke-dasharray: 5.55,2.4; stroke-dashoffset: 0; stroke: #000000; stroke-width: 1.5"/>
   </g>
   <g id="patch_8">
    <path d="M 271.337815 176.858508 
L 271.337815 14.042164 
" style="fill: none; stroke: #000000; stroke-width: 0.8; stroke-linejoin: miter; stroke-linecap: square"/>
   </g>
   <g id="patch_9">
    <path d="M 457.2 176.858508 
L 457.2 14.042164 
" style="fill: none; stroke: #000000; stroke-width: 0.8; stroke-linejoin: miter; stroke-linecap: square"/>
   </g>
   <g id="patch_10">
    <path d="M 271.337815 176.858508 
L 457.2 176.858508 
" style="fill: none; stroke: #000000; stroke-width: 0.8; stroke-linejoin: miter; stroke-linecap: square"/>
   </g>
   <g id="patch_11">
    <path d="M 271.337815 14.042164 
L 457.2 14.042164 
" style="fill: none; stroke: #000000; stroke-width: 0.8; stroke-linejoin: miter; stroke-linecap: square"/>
   </g>
   <g id="legend_1">
    <g id="patch_12">
     <path d="M 338.441846 57.630684 
L 448.8 57.630684 
Q 451.2 57.630684 451.2 55.230684 
L 451.2 22.442164 
Q 451.2 20.042164 448.8 20.042164 
L 338.441846 20.042164 
Q 336.041846 20.042164 336.041846 22.442164 
L 336.041846 55.230684 
Q 336.041846 57.630684 338.441846 57.630684 
z
" style="fill: #ffffff; opacity: 0.8; stroke: #cccccc; stroke-linejoin: miter"/>
    </g>
    <g id="PathCollection_4">
     <g>
      <use xlink:href="#m11ff3d23ee" x="352.841846" y="30.092164" style="stroke: #000000"/>
     </g>
    </g>
    <g id="text_29">
     <!-- \textbf{As Recieved} -->
     <g transform="translate(374.441846 33.242164) scale(0.12 -0.12)">
      <defs>
       <path id="TeXGyreTermesX-Bold-41" d="M 4410 0 
L 4410 159 
C 4128 159 4058 248 3712 1042 
L 2285 4384 
L 2106 4384 
L 685 902 
C 442 305 365 216 58 159 
L 58 0 
L 1357 0 
L 1357 159 
C 979 159 832 232 832 406 
C 832 492 877 647 1018 1013 
L 1114 1280 
L 2554 1280 
C 2771 761 2848 532 2848 387 
C 2848 243 2765 184 2541 184 
L 2336 159 
L 2336 0 
L 4410 0 
z
M 2458 1528 
L 1210 1528 
L 1811 3057 
L 2458 1528 
z
" transform="scale(0.015625)"/>
       <path id="TeXGyreTermesX-Bold-73" d="M 2310 899 
C 2310 1348 2067 1627 1427 1887 
C 992 2070 813 2228 813 2444 
C 813 2653 992 2811 1235 2811 
C 1408 2811 1574 2741 1715 2608 
C 1850 2481 1920 2360 2016 2086 
L 2176 2086 
L 2176 3008 
L 2035 3008 
C 1997 2913 1958 2881 1875 2881 
C 1837 2881 1779 2893 1677 2922 
C 1472 2985 1325 3008 1178 3008 
C 595 3008 173 2617 173 2086 
C 173 1669 435 1378 1082 1107 
C 1523 917 1696 759 1696 557 
C 1696 311 1504 146 1216 146 
C 768 146 474 432 339 986 
L 160 986 
L 160 -64 
L 320 -64 
C 390 70 429 114 486 114 
C 518 114 570 102 634 77 
C 819 4 1146 -64 1325 -64 
C 1907 -64 2310 328 2310 899 
z
" transform="scale(0.015625)"/>
       <path id="TeXGyreTermesX-Bold-52" d="M 4576 0 
L 4576 159 
C 4461 159 4378 197 4314 280 
L 3027 2086 
C 3405 2207 3565 2290 3744 2448 
C 3930 2620 4032 2873 4032 3159 
C 4032 3889 3398 4288 2227 4288 
L 166 4288 
L 166 4110 
C 640 4110 730 4015 730 3557 
L 730 744 
C 730 280 666 216 166 159 
L 166 0 
L 2330 0 
L 2330 159 
C 1830 223 1766 292 1766 742 
L 1766 1984 
L 1939 1984 
L 3264 0 
L 4576 0 
z
M 2938 3130 
C 2938 2723 2842 2474 2637 2340 
C 2470 2232 2253 2187 1766 2187 
L 1766 3805 
C 1766 3843 1792 3938 1811 3977 
C 1850 4040 1952 4072 2112 4072 
C 2701 4072 2938 3799 2938 3130 
z
" transform="scale(0.015625)"/>
       <path id="TeXGyreTermesX-Bold-63" d="M 2752 601 
L 2637 715 
C 2400 450 2234 362 1971 362 
C 1414 362 1062 911 1062 1769 
C 1062 2418 1267 2816 1600 2816 
C 1702 2816 1798 2765 1837 2696 
C 1869 2639 1869 2639 1869 2374 
C 1875 2059 1984 1920 2227 1920 
C 2496 1920 2662 2072 2662 2318 
C 2662 2710 2234 3013 1677 3013 
C 800 3013 160 2349 160 1433 
C 160 555 730 -64 1530 -64 
C 2022 -64 2381 132 2752 601 
z
" transform="scale(0.015625)"/>
       <path id="TeXGyreTermesX-Bold-69" d="M 1632 -32 
L 1632 121 
C 1408 152 1331 241 1331 484 
L 1331 2908 
L 102 2908 
L 102 2755 
C 384 2698 442 2641 442 2379 
L 442 503 
C 442 241 397 191 102 121 
L 102 -32 
L 1632 -32 
z
M 1370 3882 
C 1370 4162 1152 4372 877 4372 
C 602 4372 384 4162 384 3882 
C 384 3602 602 3392 877 3392 
C 1152 3392 1370 3602 1370 3882 
z
" transform="scale(0.015625)"/>
       <path id="TeXGyreTermesX-Bold-76" d="M 3104 2758 
L 3104 2911 
L 2138 2911 
L 2138 2752 
C 2413 2752 2490 2707 2490 2554 
C 2490 2484 2464 2383 2419 2269 
L 1958 1113 
L 1453 2398 
C 1408 2518 1395 2556 1395 2594 
C 1395 2688 1459 2733 1619 2746 
L 1734 2758 
L 1734 2911 
L 134 2911 
L 134 2758 
C 282 2739 320 2720 358 2663 
C 371 2669 672 2037 774 1777 
L 1542 -96 
L 1709 -96 
L 2733 2410 
C 2854 2688 2906 2739 3104 2758 
z
" transform="scale(0.015625)"/>
       <path id="TeXGyreTermesX-Bold-64" d="M 3418 152 
L 3418 305 
C 3123 305 3040 387 3040 655 
L 3040 4320 
L 1664 4320 
L 1664 4169 
C 2093 4137 2150 4093 2150 3803 
L 2150 2650 
C 1875 2942 1683 3044 1389 3044 
C 685 3044 160 2362 160 1436 
C 160 568 646 -64 1318 -64 
C 1658 -64 1869 38 2170 356 
L 2170 -58 
C 2464 25 2624 57 3021 101 
L 3418 152 
z
M 2150 739 
C 2150 702 2086 597 2010 516 
C 1882 373 1747 305 1606 305 
C 1267 305 1107 687 1107 1493 
C 1107 2313 1280 2688 1651 2688 
C 1862 2688 2061 2534 2150 2292 
L 2150 739 
z
" transform="scale(0.015625)"/>
      </defs>
      <use xlink:href="#TeXGyreTermesX-Bold-41" transform="scale(0.996264)"/>
      <use xlink:href="#TeXGyreTermesX-Bold-73" transform="translate(71.930274 0) scale(0.996264)"/>
      <use xlink:href="#TeXGyreTermesX-Bold-52" transform="translate(135.591538 0) scale(0.996264)"/>
      <use xlink:href="#TeXGyreTermesX-Bold-65" transform="translate(205.529238 0) scale(0.996264)"/>
      <use xlink:href="#TeXGyreTermesX-Bold-63" transform="translate(249.763384 0) scale(0.996264)"/>
      <use xlink:href="#TeXGyreTermesX-Bold-69" transform="translate(293.997531 0) scale(0.996264)"/>
      <use xlink:href="#TeXGyreTermesX-Bold-65" transform="translate(321.693658 0) scale(0.996264)"/>
      <use xlink:href="#TeXGyreTermesX-Bold-76" transform="translate(362.939027 0) scale(0.996264)"/>
      <use xlink:href="#TeXGyreTermesX-Bold-65" transform="translate(409.265319 0) scale(0.996264)"/>
      <use xlink:href="#TeXGyreTermesX-Bold-64" transform="translate(453.499466 0) scale(0.996264)"/>
     </g>
    </g>
    <g id="PathCollection_5">
     <g>
      <use xlink:href="#m138f16dfa2" x="352.841846" y="47.086424" style="fill: #ffffff; stroke: #000000"/>
     </g>
    </g>
    <g id="text_30">
     <!-- \textbf{Recrystallized} -->
     <g transform="translate(374.441846 50.236424) scale(0.12 -0.12)">
      <defs>
       <path id="TeXGyreTermesX-Bold-79" d="M 3072 2791 
L 3072 2944 
L 2106 2944 
L 2106 2785 
C 2381 2785 2458 2740 2458 2587 
C 2458 2517 2445 2460 2387 2301 
L 1952 1080 
L 1491 2253 
C 1363 2576 1363 2576 1363 2627 
C 1363 2715 1440 2772 1600 2785 
L 1702 2785 
L 1702 2944 
L 102 2944 
L 102 2791 
C 250 2772 288 2753 326 2696 
C 346 2696 634 2076 742 1808 
L 1510 -61 
L 1395 -397 
C 1286 -714 1120 -917 973 -917 
C 915 -917 864 -866 864 -809 
C 864 -809 864 -790 870 -771 
C 877 -740 883 -708 883 -683 
C 883 -500 730 -372 512 -372 
C 275 -372 102 -538 102 -778 
C 102 -1070 358 -1280 723 -1280 
C 941 -1280 1126 -1203 1261 -1071 
C 1395 -925 1523 -671 1747 -75 
L 2701 2442 
C 2810 2709 2874 2772 3072 2791 
z
" transform="scale(0.015625)"/>
       <path id="TeXGyreTermesX-Bold-6c" d="M 1632 0 
L 1632 153 
C 1421 153 1318 274 1318 528 
L 1318 4288 
L 102 4288 
L 102 4136 
C 326 4117 429 4002 429 3768 
L 429 533 
C 429 299 320 172 102 153 
L 102 0 
L 1632 0 
z
" transform="scale(0.015625)"/>
       <path id="TeXGyreTermesX-Bold-7a" d="M 2688 1022 
L 2509 1022 
C 2451 817 2400 702 2298 568 
C 2093 286 1882 204 1370 204 
L 1184 204 
L 2662 2778 
L 2662 2944 
L 288 2944 
L 243 2038 
L 410 2038 
C 570 2645 736 2740 1632 2740 
L 134 159 
L 134 0 
L 2586 0 
L 2688 1022 
z
" transform="scale(0.015625)"/>
      </defs>
      <use xlink:href="#TeXGyreTermesX-Bold-52" transform="scale(0.996264)"/>
      <use xlink:href="#TeXGyreTermesX-Bold-65" transform="translate(69.9377 0) scale(0.996264)"/>
      <use xlink:href="#TeXGyreTermesX-Bold-63" transform="translate(114.171846 0) scale(0.996264)"/>
      <use xlink:href="#TeXGyreTermesX-Bold-72" transform="translate(158.405993 0) scale(0.996264)"/>
      <use xlink:href="#TeXGyreTermesX-Bold-79" transform="translate(202.640139 0) scale(0.996264)"/>
      <use xlink:href="#TeXGyreTermesX-Bold-73" transform="translate(249.96271 0) scale(0.996264)"/>
      <use xlink:href="#TeXGyreTermesX-Bold-74" transform="translate(288.717374 0) scale(0.996264)"/>
      <use xlink:href="#TeXGyreTermesX-Bold-61" transform="translate(322.889263 0) scale(0.996264)"/>
      <use xlink:href="#TeXGyreTermesX-Bold-6c" transform="translate(372.702463 0) scale(0.996264)"/>
      <use xlink:href="#TeXGyreTermesX-Bold-6c" transform="translate(400.398591 0) scale(0.996264)"/>
      <use xlink:href="#TeXGyreTermesX-Bold-69" transform="translate(428.094718 0) scale(0.996264)"/>
      <use xlink:href="#TeXGyreTermesX-Bold-7a" transform="translate(455.790845 0) scale(0.996264)"/>
      <use xlink:href="#TeXGyreTermesX-Bold-65" transform="translate(500.024992 0) scale(0.996264)"/>
      <use xlink:href="#TeXGyreTermesX-Bold-64" transform="translate(544.259138 0) scale(0.996264)"/>
     </g>
    </g>
   </g>
  </g>
 </g>
 <defs>
  <clipPath id="pdf979d28bd">
   <rect x="45.465083" y="14.042164" width="185.862185" height="162.816345"/>
  </clipPath>
  <clipPath id="p4f2489c3b2">
   <rect x="271.337815" y="14.042164" width="185.862185" height="162.816345"/>
  </clipPath>
 </defs>
</svg>
