<?xml version="1.0" encoding="utf-8" standalone="no"?>
<!DOCTYPE svg PUBLIC "-//W3C//DTD SVG 1.1//EN"
  "http://www.w3.org/Graphics/SVG/1.1/DTD/svg11.dtd">
<svg xmlns:xlink="http://www.w3.org/1999/xlink" width="468pt" height="396pt" viewBox="0 0 468 396" xmlns="http://www.w3.org/2000/svg" version="1.1">
 <metadata>
  <rdf:RDF xmlns:dc="http://purl.org/dc/elements/1.1/" xmlns:cc="http://creativecommons.org/ns#" xmlns:rdf="http://www.w3.org/1999/02/22-rdf-syntax-ns#">
   <cc:Work>
    <dc:type rdf:resource="http://purl.org/dc/dcmitype/StillImage"/>
    <dc:date>2025-03-31T13:41:52.136575</dc:date>
    <dc:format>image/svg+xml</dc:format>
    <dc:creator>
     <cc:Agent>
      <dc:title>Matplotlib v3.10.1, https://matplotlib.org/</dc:title>
     </cc:Agent>
    </dc:creator>
   </cc:Work>
  </rdf:RDF>
 </metadata>
 <defs>
  <style type="text/css">*{stroke-linejoin: round; stroke-linecap: butt}</style>
 </defs>
 <g id="figure_1">
  <g id="patch_1">
   <path d="M 0 396 
L 468 396 
L 468 0 
L 0 0 
z
" style="fill: #ffffff"/>
  </g>
  <g id="axes_1">
   <g id="patch_2">
    <path d="M 47.545435 142.996403 
L 233.510077 142.996403 
L 233.510077 25.031142 
L 47.545435 25.031142 
z
" style="fill: #ffffff"/>
   </g>
   <g id="PathCollection_1">
    <defs>
     <path id="m45dd9852aa" d="M 0 2.236068 
C 0.593012 2.236068 1.161816 2.000462 1.581139 1.581139 
C 2.000462 1.161816 2.236068 0.593012 2.236068 0 
C 2.236068 -0.593012 2.000462 -1.161816 1.581139 -1.581139 
C 1.161816 -2.000462 0.593012 -2.236068 0 -2.236068 
C -0.593012 -2.236068 -1.161816 -2.000462 -1.581139 -1.581139 
C -2.000462 -1.161816 -2.236068 -0.593012 -2.236068 0 
C -2.236068 0.593012 -2.000462 1.161816 -1.581139 1.581139 
C -1.161816 2.000462 -0.593012 2.236068 0 2.236068 
z
" style="stroke: #000000"/>
    </defs>
    <g clip-path="url(#p5bee0c9049)">
     <use xlink:href="#m45dd9852aa" x="60.946853" y="30.393209" style="fill: #000033; stroke: #000000"/>
    </g>
   </g>
   <g id="PathCollection_2">
    <defs>
     <path id="m45e44008ef" d="M 0 -2.236068 
L -2.236068 2.236068 
L 2.236068 2.236068 
z
" style="stroke: #000000"/>
    </defs>
    <g clip-path="url(#p5bee0c9049)">
     <use xlink:href="#m45e44008ef" x="108.375671" y="36.796621" style="fill: #000033; stroke: #000000"/>
    </g>
   </g>
   <g id="PathCollection_3">
    <g clip-path="url(#p5bee0c9049)">
     <use xlink:href="#m45dd9852aa" x="145.251948" y="51.406269" style="fill: #000033; stroke: #000000"/>
    </g>
   </g>
   <g id="PathCollection_4">
    <g clip-path="url(#p5bee0c9049)">
     <use xlink:href="#m45e44008ef" x="178.745318" y="52.755628" style="fill: #000033; stroke: #000000"/>
    </g>
   </g>
   <g id="PathCollection_5">
    <defs>
     <path id="m2d62b1078c" d="M 0 2.236068 
C 0.593012 2.236068 1.161816 2.000462 1.581139 1.581139 
C 2.000462 1.161816 2.236068 0.593012 2.236068 0 
C 2.236068 -0.593012 2.000462 -1.161816 1.581139 -1.581139 
C 1.161816 -2.000462 0.593012 -2.236068 0 -2.236068 
C -0.593012 -2.236068 -1.161816 -2.000462 -1.581139 -1.581139 
C -2.000462 -1.161816 -2.236068 -0.593012 -2.236068 0 
C -2.236068 0.593012 -2.000462 1.161816 -1.581139 1.581139 
C -1.161816 2.000462 -0.593012 2.236068 0 2.236068 
z
" style="stroke: #000000"/>
    </defs>
    <g clip-path="url(#p5bee0c9049)">
     <use xlink:href="#m2d62b1078c" x="65.916274" y="66.374917" style="fill: #990000; stroke: #000000"/>
    </g>
   </g>
   <g id="PathCollection_6">
    <defs>
     <path id="m0dce473d42" d="M 0 -2.236068 
L -2.236068 2.236068 
L 2.236068 2.236068 
z
" style="stroke: #000000"/>
    </defs>
    <g clip-path="url(#p5bee0c9049)">
     <use xlink:href="#m0dce473d42" x="91.269076" y="84.578042" style="fill: #990000; stroke: #000000"/>
    </g>
   </g>
   <g id="PathCollection_7">
    <g clip-path="url(#p5bee0c9049)">
     <use xlink:href="#m2d62b1078c" x="151.560507" y="93.070573" style="fill: #990000; stroke: #000000"/>
    </g>
   </g>
   <g id="PathCollection_8">
    <g clip-path="url(#p5bee0c9049)">
     <use xlink:href="#m0dce473d42" x="204.04985" y="104.599784" style="fill: #990000; stroke: #000000"/>
    </g>
   </g>
   <g id="matplotlib.axis_1">
    <g id="xtick_1">
     <g id="line2d_1">
      <defs>
       <path id="m0cdb0f8483" d="M 0 0 
L 0 3.5 
" style="stroke: #000000; stroke-width: 0.8"/>
      </defs>
      <g>
       <use xlink:href="#m0cdb0f8483" x="55.776393" y="142.996403" style="stroke: #000000; stroke-width: 0.8"/>
      </g>
     </g>
     <g id="text_1">
      <!-- $\mathdefault{0}$ -->
      <g transform="translate(53.285733 156.835746) scale(0.1 -0.1)">
       <defs>
        <path id="TeXGyreTermesX-Bold-30" d="M 3046 2166 
C 3046 3440 2426 4403 1600 4403 
C 1184 4403 762 4123 499 3664 
C 294 3313 154 2714 154 2185 
C 154 873 755 -64 1606 -64 
C 2432 -64 3046 886 3046 2166 
z
M 2035 1434 
C 2035 1058 1984 561 1926 389 
C 1856 203 1754 114 1606 114 
C 1286 114 1165 491 1165 1434 
L 1165 2892 
C 1165 3855 1286 4224 1594 4224 
C 1907 4224 2035 3829 2035 2892 
L 2035 1434 
z
" transform="scale(0.015625)"/>
       </defs>
       <use xlink:href="#TeXGyreTermesX-Bold-30" transform="scale(0.996264)"/>
      </g>
     </g>
    </g>
    <g id="xtick_2">
     <g id="line2d_2">
      <g>
       <use xlink:href="#m0cdb0f8483" x="106.540805" y="142.996403" style="stroke: #000000; stroke-width: 0.8"/>
      </g>
     </g>
     <g id="text_2">
      <!-- $\mathdefault{20}$ -->
      <g transform="translate(101.559485 156.835746) scale(0.1 -0.1)">
       <defs>
        <path id="TeXGyreTermesX-Bold-32" d="M 3059 1341 
L 2906 1341 
C 2720 884 2643 846 1990 846 
L 1024 846 
L 2061 1824 
C 2566 2301 2790 2726 2790 3210 
C 2790 3889 2298 4373 1606 4373 
C 1286 4373 979 4245 755 4016 
C 506 3768 378 3552 198 3075 
L 378 3075 
C 576 3469 813 3648 1158 3648 
C 1440 3648 1651 3527 1792 3298 
C 1869 3164 1920 2987 1920 2841 
C 1920 2561 1798 2211 1594 1900 
C 1267 1405 1043 1137 109 146 
L 109 0 
L 2771 0 
L 3059 1341 
z
" transform="scale(0.015625)"/>
       </defs>
       <use xlink:href="#TeXGyreTermesX-Bold-32" transform="scale(0.996264)"/>
       <use xlink:href="#TeXGyreTermesX-Bold-30" transform="translate(49.8132 0) scale(0.996264)"/>
      </g>
     </g>
    </g>
    <g id="xtick_3">
     <g id="line2d_3">
      <g>
       <use xlink:href="#m0cdb0f8483" x="157.305216" y="142.996403" style="stroke: #000000; stroke-width: 0.8"/>
      </g>
     </g>
     <g id="text_3">
      <!-- $\mathdefault{40}$ -->
      <g transform="translate(152.323896 156.835746) scale(0.1 -0.1)">
       <defs>
        <path id="TeXGyreTermesX-Bold-34" d="M 3040 896 
L 3040 1602 
L 2637 1602 
L 2637 4352 
L 2125 4352 
L 1747 3863 
C 928 2803 506 2219 122 1615 
L 122 896 
L 1709 896 
L 1709 -32 
L 2637 -32 
L 2637 896 
L 3040 896 
z
M 1722 1602 
L 384 1602 
L 1722 3488 
L 1722 1602 
z
" transform="scale(0.015625)"/>
       </defs>
       <use xlink:href="#TeXGyreTermesX-Bold-34" transform="scale(0.996264)"/>
       <use xlink:href="#TeXGyreTermesX-Bold-30" transform="translate(49.8132 0) scale(0.996264)"/>
      </g>
     </g>
    </g>
    <g id="xtick_4">
     <g id="line2d_4">
      <g>
       <use xlink:href="#m0cdb0f8483" x="208.069628" y="142.996403" style="stroke: #000000; stroke-width: 0.8"/>
      </g>
     </g>
     <g id="text_4">
      <!-- $\mathdefault{60}$ -->
      <g transform="translate(203.088308 156.835746) scale(0.1 -0.1)">
       <defs>
        <path id="TeXGyreTermesX-Bold-36" d="M 3040 1427 
C 3040 2193 2573 2688 1843 2688 
C 1638 2688 1498 2663 1306 2580 
C 1542 3515 2074 4030 3008 4221 
L 3008 4387 
C 2157 4266 1760 4126 1274 3796 
C 557 3307 179 2596 179 1752 
C 179 654 768 -64 1664 -64 
C 2458 -64 3040 564 3040 1427 
z
M 2067 1046 
C 2067 298 1990 108 1677 108 
C 1530 108 1414 172 1350 291 
C 1242 501 1178 964 1178 1553 
C 1178 1946 1216 2307 1261 2339 
C 1312 2377 1402 2402 1491 2402 
C 1920 2402 2067 2054 2067 1046 
z
" transform="scale(0.015625)"/>
       </defs>
       <use xlink:href="#TeXGyreTermesX-Bold-36" transform="scale(0.996264)"/>
       <use xlink:href="#TeXGyreTermesX-Bold-30" transform="translate(49.8132 0) scale(0.996264)"/>
      </g>
     </g>
    </g>
   </g>
   <g id="matplotlib.axis_2">
    <g id="ytick_1">
     <g id="line2d_5">
      <defs>
       <path id="m7cb7878592" d="M 0 0 
L -3.5 0 
" style="stroke: #000000; stroke-width: 0.8"/>
      </defs>
      <g>
       <use xlink:href="#m7cb7878592" x="47.545435" y="139.187417" style="stroke: #000000; stroke-width: 0.8"/>
      </g>
     </g>
     <g id="text_5">
      <!-- $\mathdefault{0}$ -->
      <g transform="translate(35.564115 142.607088) scale(0.1 -0.1)">
       <use xlink:href="#TeXGyreTermesX-Bold-30" transform="scale(0.996264)"/>
      </g>
     </g>
    </g>
    <g id="ytick_2">
     <g id="line2d_6">
      <g>
       <use xlink:href="#m7cb7878592" x="47.545435" y="93.815095" style="stroke: #000000; stroke-width: 0.8"/>
      </g>
     </g>
     <g id="text_6">
      <!-- $\mathdefault{200}$ -->
      <g transform="translate(25.601474 97.234766) scale(0.1 -0.1)">
       <use xlink:href="#TeXGyreTermesX-Bold-32" transform="scale(0.996264)"/>
       <use xlink:href="#TeXGyreTermesX-Bold-30" transform="translate(49.8132 0) scale(0.996264)"/>
       <use xlink:href="#TeXGyreTermesX-Bold-30" transform="translate(99.626401 0) scale(0.996264)"/>
      </g>
     </g>
    </g>
    <g id="ytick_3">
     <g id="line2d_7">
      <g>
       <use xlink:href="#m7cb7878592" x="47.545435" y="48.442773" style="stroke: #000000; stroke-width: 0.8"/>
      </g>
     </g>
     <g id="text_7">
      <!-- $\mathdefault{400}$ -->
      <g transform="translate(25.601474 51.862444) scale(0.1 -0.1)">
       <use xlink:href="#TeXGyreTermesX-Bold-34" transform="scale(0.996264)"/>
       <use xlink:href="#TeXGyreTermesX-Bold-30" transform="translate(49.8132 0) scale(0.996264)"/>
       <use xlink:href="#TeXGyreTermesX-Bold-30" transform="translate(99.626401 0) scale(0.996264)"/>
      </g>
     </g>
    </g>
    <g id="text_8">
     <!-- \textbf{Stress [MPa]} -->
     <g transform="translate(19.007214 116.866572) rotate(-90) scale(0.12 -0.12)">
      <defs>
       <path id="TeXGyreTermesX-Bold-53" d="M 3283 1212 
C 3283 1689 2995 2165 2579 2369 
L 1638 2833 
C 1120 3086 979 3239 979 3550 
C 979 3944 1248 4185 1683 4185 
C 1971 4185 2240 4065 2470 3829 
C 2688 3607 2790 3421 2918 3008 
L 3098 3008 
L 3098 4388 
L 2906 4388 
C 2861 4217 2816 4173 2701 4173 
C 2643 4173 2566 4192 2432 4237 
C 2138 4348 1933 4388 1683 4388 
C 813 4388 282 3898 282 3090 
C 282 2931 307 2798 352 2670 
C 486 2333 832 2035 1376 1774 
L 1805 1570 
C 2368 1303 2522 1138 2522 801 
C 2522 362 2208 82 1715 82 
C 1344 82 1037 235 794 540 
C 608 775 518 991 410 1443 
L 224 1443 
L 224 -128 
L 410 -128 
C 448 38 499 88 602 88 
C 653 88 723 69 864 25 
C 1178 -83 1414 -128 1696 -128 
C 2643 -128 3283 412 3283 1212 
z
" transform="scale(0.015625)"/>
       <path id="TeXGyreTermesX-Bold-74" d="M 2125 648 
L 1965 718 
C 1837 476 1734 387 1600 387 
C 1421 387 1350 495 1350 750 
L 1350 2664 
L 1952 2664 
L 1952 2944 
L 1350 2944 
L 1350 4032 
L 1190 4032 
C 800 3479 544 3190 128 2836 
L 128 2664 
L 461 2664 
L 461 603 
C 461 190 736 -64 1178 -64 
C 1606 -64 1862 126 2125 648 
z
" transform="scale(0.015625)"/>
       <path id="TeXGyreTermesX-Bold-72" d="M 2778 2512 
C 2778 2798 2560 3008 2259 3008 
C 1939 3008 1696 2836 1395 2410 
L 1395 2932 
L 186 2932 
L 186 2779 
C 461 2741 531 2658 531 2404 
L 531 533 
C 531 272 467 203 186 152 
L 186 0 
L 1888 0 
L 1888 165 
C 1498 165 1421 248 1421 645 
L 1421 1854 
C 1421 2186 1600 2461 1811 2461 
C 1862 2461 1920 2417 1990 2315 
C 2112 2143 2208 2086 2374 2086 
C 2611 2086 2778 2264 2778 2512 
z
" transform="scale(0.015625)"/>
       <path id="TeXGyreTermesX-Bold-65" d="M 2726 736 
L 2573 826 
C 2310 510 2118 394 1843 394 
C 1600 394 1408 504 1280 723 
C 1158 930 1107 1149 1082 1600 
L 2694 1600 
C 2656 2115 2560 2400 2362 2642 
C 2157 2883 1856 3013 1498 3013 
C 698 3013 160 2388 160 1465 
C 160 543 685 -64 1478 -64 
C 1997 -64 2310 134 2726 736 
z
M 1907 1835 
L 1050 1835 
C 1069 2571 1184 2816 1498 2816 
C 1683 2816 1798 2718 1850 2528 
C 1882 2411 1894 2240 1907 1928 
L 1907 1835 
z
" transform="scale(0.015625)"/>
       <path id="TeXGyreTermesX-Bold-73" d="M 2310 899 
C 2310 1348 2067 1627 1427 1887 
C 992 2070 813 2228 813 2444 
C 813 2653 992 2811 1235 2811 
C 1408 2811 1574 2741 1715 2608 
C 1850 2481 1920 2360 2016 2086 
L 2176 2086 
L 2176 3008 
L 2035 3008 
C 1997 2913 1958 2881 1875 2881 
C 1837 2881 1779 2893 1677 2922 
C 1472 2985 1325 3008 1178 3008 
C 595 3008 173 2617 173 2086 
C 173 1669 435 1378 1082 1107 
C 1523 917 1696 759 1696 557 
C 1696 311 1504 146 1216 146 
C 768 146 474 432 339 986 
L 160 986 
L 160 -64 
L 320 -64 
C 390 70 429 114 486 114 
C 518 114 570 102 634 77 
C 819 4 1146 -64 1325 -64 
C 1907 -64 2310 328 2310 899 
z
" transform="scale(0.015625)"/>
       <path id="TeXGyreTermesX-Bold-5b" d="M 1926 -960 
L 1926 -750 
L 1414 -750 
C 1152 -750 1094 -686 1094 -413 
L 1094 3650 
C 1094 4020 1165 4096 1523 4096 
L 1926 4096 
L 1926 4306 
L 429 4306 
L 429 -960 
L 1926 -960 
z
" transform="scale(0.015625)"/>
       <path id="TeXGyreTermesX-Bold-4d" d="M 5894 -32 
L 5894 127 
C 5395 191 5331 262 5331 715 
L 5331 3540 
C 5331 4001 5427 4096 5894 4096 
L 5894 4274 
L 4282 4274 
L 3002 1268 
L 1722 4274 
L 102 4274 
L 102 4115 
C 570 4077 672 3994 672 3663 
L 672 637 
C 672 254 589 178 90 127 
L 90 -32 
L 1587 -32 
L 1587 127 
C 1062 165 941 286 941 758 
L 941 3752 
L 2554 -32 
L 2726 -32 
L 4339 3848 
L 4339 605 
C 4339 248 4250 172 3770 127 
L 3770 -32 
L 5894 -32 
z
" transform="scale(0.015625)"/>
       <path id="TeXGyreTermesX-Bold-50" d="M 3840 3130 
C 3840 3868 3232 4288 2163 4288 
L 102 4288 
L 102 4129 
C 550 4091 640 3989 640 3545 
L 640 742 
C 640 349 557 222 256 183 
C 237 183 173 171 102 158 
L 102 0 
L 2240 0 
L 2240 158 
C 1734 222 1677 279 1677 741 
L 1677 1920 
C 2541 1920 2758 1939 3040 2054 
C 3558 2251 3840 2640 3840 3130 
z
M 2739 3101 
C 2739 2701 2662 2460 2496 2314 
C 2342 2187 2131 2143 1677 2143 
L 1677 3843 
C 1677 3989 1786 4066 1997 4066 
C 2528 4066 2739 3787 2739 3101 
z
" transform="scale(0.015625)"/>
       <path id="TeXGyreTermesX-Bold-61" d="M 3123 297 
L 3027 430 
L 2963 366 
C 2944 347 2925 341 2893 341 
C 2803 341 2758 392 2758 499 
L 2758 2152 
C 2758 2689 2272 3019 1491 3019 
C 768 3019 282 2696 282 2221 
C 282 1955 435 1803 698 1803 
C 954 1803 1133 1955 1133 2170 
C 1133 2259 1101 2341 1018 2442 
C 960 2506 941 2543 941 2581 
C 941 2714 1114 2816 1344 2816 
C 1722 2816 1882 2645 1882 2259 
L 1882 1797 
C 1133 1569 832 1455 589 1296 
C 301 1107 160 885 160 607 
C 160 221 454 -64 864 -64 
C 1235 -64 1530 63 1882 380 
C 1952 57 2093 -64 2406 -64 
C 2682 -64 2880 38 3123 297 
z
M 1875 658 
C 1702 462 1574 386 1421 386 
C 1229 386 1094 556 1094 810 
C 1094 1176 1363 1436 1875 1575 
L 1875 658 
z
" transform="scale(0.015625)"/>
       <path id="TeXGyreTermesX-Bold-5d" d="M 1702 -960 
L 1702 4306 
L 205 4306 
L 205 4096 
L 608 4096 
C 966 4096 1037 4020 1037 3650 
L 1037 -413 
C 1037 -693 986 -750 717 -750 
L 205 -750 
L 205 -960 
L 1702 -960 
z
" transform="scale(0.015625)"/>
      </defs>
      <use xlink:href="#TeXGyreTermesX-Bold-53" transform="scale(0.996264)"/>
      <use xlink:href="#TeXGyreTermesX-Bold-74" transform="translate(55.392255 0) scale(0.996264)"/>
      <use xlink:href="#TeXGyreTermesX-Bold-72" transform="translate(88.567864 0) scale(0.996264)"/>
      <use xlink:href="#TeXGyreTermesX-Bold-65" transform="translate(131.805716 0) scale(0.996264)"/>
      <use xlink:href="#TeXGyreTermesX-Bold-73" transform="translate(176.039863 0) scale(0.996264)"/>
      <use xlink:href="#TeXGyreTermesX-Bold-73" transform="translate(214.794527 0) scale(0.996264)"/>
      <use xlink:href="#TeXGyreTermesX-Bold-5b" transform="translate(278.455791 0) scale(0.996264)"/>
      <use xlink:href="#TeXGyreTermesX-Bold-4d" transform="translate(311.631401 0) scale(0.996264)"/>
      <use xlink:href="#TeXGyreTermesX-Bold-50" transform="translate(405.678747 0) scale(0.996264)"/>
      <use xlink:href="#TeXGyreTermesX-Bold-61" transform="translate(464.557911 0) scale(0.996264)"/>
      <use xlink:href="#TeXGyreTermesX-Bold-5d" transform="translate(514.371111 0) scale(0.996264)"/>
     </g>
    </g>
   </g>
   <g id="line2d_8">
    <path d="M 55.998373 131.827263 
L 56.099748 128.009222 
L 56.099748 134.993525 
L 56.191737 122.540335 
L 56.530594 116.514301 
L 56.873061 111.423255 
L 57.16419 106.431319 
L 57.321885 102.334139 
L 57.613621 97.947032 
L 57.794971 94.243945 
L 57.873818 90.394553 
L 58.185624 85.451422 
L 58.304664 80.103466 
L 58.556153 74.220113 
L 58.65103 69.556699 
L 58.99202 65.096518 
L 59.099539 59.727255 
L 59.432849 54.41481 
L 59.634747 49.695793 
L 59.698576 45.762302 
L 60.153229 41.360967 
L 60.29838 36.640372 
L 60.594058 32.793686 
L 60.946843 30.393199 
L 61.722185 31.151933 
L 62.959485 34.412886 
L 64.260469 35.352507 
L 65.561454 35.537164 
L 66.862438 35.494551 
L 68.163423 35.096827 
L 69.464407 35.139441 
L 70.765392 34.770126 
L 72.066376 34.628082 
L 73.367361 34.528652 
L 74.668345 34.315586 
L 75.96933 34.443425 
L 77.270314 34.32979 
L 78.571299 34.130928 
L 79.872283 34.230359 
L 81.173268 34.187746 
L 82.474252 34.216155 
L 83.775237 34.20195 
L 85.076221 34.272972 
L 86.377206 34.358199 
L 87.67819 34.301381 
L 88.979175 34.443425 
L 90.280159 34.500243 
L 91.581144 34.585469 
L 92.882128 34.670696 
L 94.183113 34.826944 
L 95.484097 34.997397 
L 96.785082 35.068419 
L 98.086066 35.352507 
L 99.387051 35.366711 
L 100.688035 35.579777 
L 101.98902 35.764434 
L 103.290004 35.835456 
L 104.590989 36.020113 
L 105.891973 36.133749 
L 107.192958 36.304201 
L 108.375671 36.796621 
" clip-path="url(#p5bee0c9049)" style="fill: none; stroke: #000033; stroke-linecap: square"/>
   </g>
   <g id="line2d_9">
    <path d="M 56.246417 126.676843 
L 56.308442 130.008119 
L 56.866665 121.478551 
L 56.970039 124.964733 
L 57.120403 116.622978 
L 57.486912 112.085474 
L 58.068395 108.039305 
L 59.140906 104.337886 
L 59.812841 100.536595 
L 60.93704 97.01454 
L 62.696992 92.762393 
L 64.025356 89.255014 
L 66.146523 85.529764 
L 68.031122 82.571115 
L 69.607584 79.75525 
L 71.411471 76.69302 
L 73.923474 73.161182 
L 77.024712 70.097172 
L 80.436074 66.988692 
L 83.847435 64.587291 
L 87.258797 62.546101 
L 90.670159 60.74505 
L 94.081521 59.210822 
L 97.492883 57.836687 
L 100.904244 56.862786 
L 104.315606 55.888884 
L 107.726968 54.861618 
L 111.13833 54.221245 
L 114.549692 53.647577 
L 117.961053 53.153955 
L 121.372415 52.605064 
L 124.783777 52.240407 
L 128.195139 51.869185 
L 131.606501 51.360317 
L 135.017862 51.566363 
L 138.429224 51.486316 
L 141.840586 51.446293 
L 145.251948 51.406269 
L 148.66331 51.472975 
L 152.074671 51.459634 
L 155.486033 51.41961 
L 158.897395 51.526339 
L 162.308757 51.646409 
L 165.720119 51.766479 
L 169.13148 51.993278 
L 172.542842 52.233418 
L 175.954204 52.460217 
L 178.745318 52.755628 
" clip-path="url(#p5bee0c9049)" style="fill: none; stroke-dasharray: 5,1; stroke-dashoffset: 0; stroke: #000033"/>
   </g>
   <g id="line2d_10">
    <path d="M 56.040613 135.49352 
L 56.190726 131.213916 
L 56.963129 126.056117 
L 57.5359 122.65883 
L 58.074879 119.056189 
L 58.583446 115.181229 
L 59.056531 111.138302 
L 59.542758 107.542419 
L 60.061837 103.150103 
L 60.580917 98.948757 
L 61.008008 95.129352 
L 61.421958 91.490067 
L 61.844355 87.703834 
L 62.300545 84.177084 
L 62.722942 80.455025 
L 63.209169 76.605238 
L 63.770488 72.54774 
L 64.674419 68.619209 
L 65.916268 66.374914 
L 67.217252 66.999908 
L 68.518237 67.951602 
L 69.819221 68.841406 
L 71.120206 69.837744 
L 72.42119 70.792482 
L 73.722175 71.516906 
L 75.023159 72.198718 
L 76.324144 72.866324 
L 77.625128 73.746997 
L 78.926113 74.371991 
L 80.227097 74.883349 
L 81.528082 75.749817 
L 82.829066 76.644695 
L 84.130051 77.724229 
L 85.431035 78.846376 
L 86.73202 79.954319 
L 88.033004 81.190102 
L 89.333989 82.553724 
L 90.634973 83.761098 
L 91.935958 85.437217 
L 93.236942 87.042315 
L 94.537927 88.704229 
L 95.838911 90.493984 
L 97.139896 92.383169 
L 98.44088 94.48542 
L 99.741865 96.71551 
L 101.042849 99.187076 
L 102.343834 101.573415 
L 103.644818 104.471112 
L 104.945803 107.553467 
L 106.128516 110.597943 
L 107.311229 113.86022 
L 108.612214 117.269276 
L 109.794927 120.945058 
L 110.741097 123.440072 
" clip-path="url(#p5bee0c9049)" style="fill: none; stroke: #990000; stroke-linecap: square"/>
   </g>
   <g id="line2d_11">
    <path d="M 57.331851 137.634346 
L 57.564443 134.540319 
L 58.417284 130.18765 
L 60.122965 122.806252 
L 61.828646 119.309879 
L 63.645085 116.383219 
L 65.705193 112.588625 
L 68.651369 109.240005 
L 72.062731 106.611805 
L 75.474093 104.677343 
L 78.885455 103.063068 
L 82.296816 101.728957 
L 85.708178 100.581621 
L 89.11954 99.807836 
L 92.530902 98.793912 
L 95.942264 97.993445 
L 99.353625 97.379753 
L 102.764987 97.179637 
L 106.176349 96.285782 
L 109.587711 95.845525 
L 112.999073 95.55202 
L 116.410434 95.405268 
L 119.821796 95.031717 
L 123.233158 94.738212 
L 126.64452 94.458049 
L 130.055882 94.177886 
L 133.467243 93.951087 
L 136.878605 93.75097 
L 140.289967 93.470806 
L 143.701329 93.377419 
L 147.112691 93.163961 
L 150.524052 93.070573 
L 153.935414 93.070573 
L 157.346776 93.070573 
L 160.758138 93.123937 
L 164.1695 93.123937 
L 167.580861 93.110596 
L 170.992223 93.284031 
L 174.403585 94.031133 
L 177.814947 94.59146 
L 181.226309 94.965011 
L 184.63767 95.605385 
L 188.049032 96.61931 
L 191.460394 97.860033 
L 194.871756 99.60772 
L 198.283118 101.302041 
L 201.694479 103.236503 
L 205.105841 105.210988 
L 208.362141 107.599048 
L 211.618441 110.000449 
L 214.719679 112.392955 
L 217.355731 115.321886 
L 219.68166 118.47968 
L 221.790502 122.068822 
L 223.744281 125.85503 
L 225.057139 127.948696 
" clip-path="url(#p5bee0c9049)" style="fill: none; stroke-dasharray: 5,1; stroke-dashoffset: 0; stroke: #990000"/>
   </g>
   <g id="patch_3">
    <path d="M 47.545435 142.996403 
L 47.545435 25.031142 
" style="fill: none; stroke: #000000; stroke-width: 0.8; stroke-linejoin: miter; stroke-linecap: square"/>
   </g>
   <g id="patch_4">
    <path d="M 233.510077 142.996403 
L 233.510077 25.031142 
" style="fill: none; stroke: #000000; stroke-width: 0.8; stroke-linejoin: miter; stroke-linecap: square"/>
   </g>
   <g id="patch_5">
    <path d="M 47.545435 142.996403 
L 233.510077 142.996403 
" style="fill: none; stroke: #000000; stroke-width: 0.8; stroke-linejoin: miter; stroke-linecap: square"/>
   </g>
   <g id="patch_6">
    <path d="M 47.545435 25.031142 
L 233.510077 25.031142 
" style="fill: none; stroke: #000000; stroke-width: 0.8; stroke-linejoin: miter; stroke-linecap: square"/>
   </g>
   <g id="text_9">
    <!-- \textbf{K-doped W (Sheng \textit{et al.})} -->
    <g transform="translate(76.531748 19.031142) scale(0.12 -0.12)">
     <defs>
      <path id="TeXGyreTermesX-Bold-4b" d="M 4922 0 
L 4922 159 
C 4762 159 4691 191 4608 287 
L 2656 2690 
C 3859 3920 4090 4078 4710 4129 
L 4710 4288 
L 2861 4288 
L 2861 4123 
C 2970 4123 3059 4117 3091 4110 
C 3322 4097 3405 4047 3405 3920 
C 3405 3819 3373 3768 3174 3572 
L 1786 2189 
L 1786 3564 
C 1786 4021 1882 4123 2355 4123 
L 2355 4288 
L 192 4288 
L 192 4123 
C 634 4123 749 4027 749 3696 
L 749 612 
C 749 286 653 210 192 159 
L 192 0 
L 2349 0 
L 2349 159 
C 1888 216 1786 299 1786 610 
L 1786 1852 
L 1958 2011 
L 3123 556 
C 3245 403 3277 345 3277 275 
C 3277 191 3187 159 2976 159 
C 2944 159 2861 159 2771 159 
L 2771 0 
L 4922 0 
z
" transform="scale(0.015625)"/>
      <path id="TeXGyreTermesX-Bold-2d" d="M 1837 1088 
L 1837 1825 
L 282 1825 
L 282 1088 
L 1837 1088 
z
" transform="scale(0.015625)"/>
      <path id="TeXGyreTermesX-Bold-64" d="M 3418 152 
L 3418 305 
C 3123 305 3040 387 3040 655 
L 3040 4320 
L 1664 4320 
L 1664 4169 
C 2093 4137 2150 4093 2150 3803 
L 2150 2650 
C 1875 2942 1683 3044 1389 3044 
C 685 3044 160 2362 160 1436 
C 160 568 646 -64 1318 -64 
C 1658 -64 1869 38 2170 356 
L 2170 -58 
C 2464 25 2624 57 3021 101 
L 3418 152 
z
M 2150 739 
C 2150 702 2086 597 2010 516 
C 1882 373 1747 305 1606 305 
C 1267 305 1107 687 1107 1493 
C 1107 2313 1280 2688 1651 2688 
C 1862 2688 2061 2534 2150 2292 
L 2150 739 
z
" transform="scale(0.015625)"/>
      <path id="TeXGyreTermesX-Bold-6f" d="M 3046 1471 
C 3046 2356 2432 3013 1606 3013 
C 794 3013 160 2349 160 1490 
C 160 587 768 -64 1606 -64 
C 2432 -64 3046 593 3046 1471 
z
M 2106 1433 
C 2106 462 1978 133 1606 133 
C 1229 133 1101 455 1101 1377 
C 1101 2487 1216 2816 1613 2816 
C 1984 2816 2106 2469 2106 1433 
z
" transform="scale(0.015625)"/>
      <path id="TeXGyreTermesX-Bold-70" d="M 3354 1551 
C 3354 2442 2874 3050 2163 3050 
C 1786 3050 1555 2904 1357 2534 
L 1357 2974 
L 134 2974 
L 134 2821 
C 416 2777 480 2712 480 2444 
L 480 -756 
C 480 -1019 429 -1076 122 -1127 
L 122 -1280 
L 1869 -1280 
L 1869 -1140 
C 1478 -1140 1370 -1012 1370 -584 
L 1370 318 
C 1677 19 1843 -64 2125 -64 
C 2842 -64 3354 603 3354 1551 
z
M 2406 1461 
C 2406 665 2227 286 1862 286 
C 1651 286 1466 434 1370 678 
L 1370 2238 
C 1370 2283 1427 2386 1504 2469 
C 1632 2610 1779 2688 1920 2688 
C 2253 2688 2406 2302 2406 1461 
z
" transform="scale(0.015625)"/>
      <path id="TeXGyreTermesX-Bold-57" d="M 6278 4173 
L 6278 4331 
L 5114 4331 
L 5114 4160 
C 5459 4160 5555 4097 5555 3898 
C 5555 3816 5542 3720 5510 3631 
L 4794 1444 
L 4102 3591 
C 4038 3795 4013 3892 4013 3949 
C 4013 4103 4109 4160 4390 4160 
C 4390 4160 4435 4160 4474 4173 
L 4474 4331 
L 2477 4331 
L 2477 4160 
C 2739 4160 2867 4102 2938 3950 
L 3162 3339 
L 2406 1380 
L 1638 3696 
C 1606 3798 1594 3849 1594 3906 
C 1594 4091 1670 4148 2003 4173 
L 2003 4331 
L 122 4331 
L 122 4173 
C 390 4135 454 4078 563 3766 
L 1920 -64 
L 2099 -64 
L 3290 2970 
L 4384 -64 
L 4557 -64 
L 5837 3766 
C 5920 4021 6067 4154 6278 4173 
z
" transform="scale(0.015625)"/>
      <path id="TeXGyreTermesX-Bold-28" d="M 1958 -1068 
L 1958 -890 
C 1594 -661 1434 -496 1299 -210 
C 1107 184 1018 770 1018 1641 
C 1018 2518 1107 3161 1286 3542 
C 1421 3822 1574 3988 1958 4242 
L 1958 4414 
C 1562 4204 1382 4070 1133 3810 
C 589 3224 294 2468 294 1647 
C 294 1068 454 502 762 19 
C 1056 -439 1331 -693 1958 -1068 
z
" transform="scale(0.015625)"/>
      <path id="TeXGyreTermesX-Bold-68" d="M 3418 -32 
L 3418 121 
C 3187 140 3104 235 3104 503 
L 3104 2086 
C 3104 2635 2765 2986 2240 2986 
C 1901 2986 1664 2859 1331 2490 
L 1331 4288 
L 102 4288 
L 102 4134 
C 397 4076 442 4024 442 3763 
L 442 504 
C 442 236 390 178 102 121 
L 102 -32 
L 1645 -32 
L 1645 121 
C 1408 152 1331 249 1331 485 
L 1331 2190 
C 1331 2216 1376 2279 1440 2336 
C 1581 2484 1734 2560 1882 2560 
C 2106 2560 2214 2387 2214 2030 
L 2214 484 
C 2214 249 2131 146 1914 121 
L 1914 -32 
L 3418 -32 
z
" transform="scale(0.015625)"/>
      <path id="TeXGyreTermesX-Bold-6e" d="M 3450 -32 
L 3450 121 
C 3200 140 3136 216 3136 484 
L 3136 2086 
C 3136 2635 2797 2986 2272 2986 
C 1888 2986 1594 2808 1357 2432 
L 1357 2910 
L 134 2910 
L 134 2757 
C 416 2713 474 2649 474 2381 
L 474 503 
C 474 235 422 178 134 121 
L 134 -32 
L 1677 -32 
L 1677 121 
C 1440 152 1363 249 1363 485 
L 1363 2190 
C 1363 2216 1408 2279 1472 2336 
C 1613 2484 1766 2560 1914 2560 
C 2138 2560 2246 2387 2246 2030 
L 2246 484 
C 2246 249 2163 146 1946 121 
L 1946 -32 
L 3450 -32 
z
" transform="scale(0.015625)"/>
      <path id="TeXGyreTermesX-Bold-67" d="M 3091 -328 
C 3091 158 2694 448 2042 448 
L 1626 448 
C 1114 448 986 495 986 680 
C 986 878 1165 1024 1421 1024 
L 1709 1024 
C 2010 1024 2170 1063 2387 1188 
C 2675 1352 2822 1610 2822 1943 
C 2822 2195 2746 2384 2566 2560 
L 3085 2560 
L 3085 2897 
L 2253 2897 
C 1971 2982 1792 3013 1536 3013 
C 774 3013 237 2601 237 2009 
C 237 1797 320 1591 467 1417 
C 608 1267 730 1187 1030 1062 
C 525 886 269 639 269 301 
C 269 35 384 -83 794 -232 
C 390 -288 179 -445 179 -703 
C 179 -1067 659 -1280 1466 -1280 
C 2528 -1280 3091 -952 3091 -328 
z
M 2586 -627 
C 2586 -914 2234 -1077 1600 -1077 
C 1037 -1077 742 -933 742 -659 
C 742 -527 787 -458 966 -315 
L 2074 -315 
C 2419 -315 2586 -421 2586 -627 
z
M 1958 2003 
C 1958 1425 1837 1202 1536 1202 
C 1229 1202 1114 1425 1114 2003 
C 1114 2587 1235 2816 1536 2816 
C 1837 2816 1958 2580 1958 2003 
z
" transform="scale(0.015625)"/>
      <path id="TeXGyreTermesX-BoldItalic-65" d="M 2214 815 
L 2029 924 
C 1734 484 1549 344 1274 344 
C 1005 344 864 522 864 866 
C 864 968 877 1051 902 1179 
C 1568 1306 1882 1446 2202 1738 
C 2426 1942 2547 2178 2547 2407 
C 2547 2732 2266 2962 1875 2962 
C 947 2962 32 1923 32 873 
C 32 331 442 -64 998 -64 
C 1491 -64 1830 185 2214 815 
z
M 1958 2535 
C 1958 2255 1850 1981 1645 1770 
C 1472 1585 1312 1496 947 1382 
C 1178 2267 1472 2752 1779 2752 
C 1901 2752 1958 2681 1958 2535 
z
" transform="scale(0.015625)"/>
      <path id="TeXGyreTermesX-BoldItalic-74" d="M 1440 837 
L 1299 926 
C 1082 588 915 415 813 415 
C 762 415 710 459 710 510 
C 710 631 826 1072 1056 1864 
L 1267 2624 
L 1798 2624 
L 1798 2892 
L 1338 2892 
L 1587 3808 
L 1363 3808 
C 1018 3302 698 3037 192 2847 
L 192 2624 
L 518 2624 
L 83 1105 
C -13 773 -70 498 -70 383 
C -70 133 109 -32 378 -32 
C 762 -32 1018 179 1440 837 
z
" transform="scale(0.015625)"/>
      <path id="TeXGyreTermesX-BoldItalic-61" d="M 2912 735 
L 2778 830 
C 2515 478 2419 382 2317 382 
C 2266 382 2240 420 2240 478 
C 2240 636 2298 895 2458 1416 
L 2912 2912 
L 2202 2912 
L 2086 2515 
C 2029 2841 1888 2976 1613 2976 
C 826 2976 -134 1747 -134 748 
C -134 262 141 -64 557 -64 
C 947 -64 1242 167 1606 779 
C 1530 519 1517 444 1517 354 
C 1517 120 1709 -64 1946 -64 
C 2246 -64 2541 183 2912 735 
z
M 1939 2389 
C 1939 2006 1728 1299 1478 859 
C 1306 547 1114 382 941 382 
C 774 382 653 528 653 726 
C 653 1057 864 1694 1126 2166 
C 1318 2503 1530 2701 1702 2688 
C 1843 2675 1939 2561 1939 2389 
z
" transform="scale(0.015625)"/>
      <path id="TeXGyreTermesX-BoldItalic-6c" d="M 1523 805 
L 1382 894 
C 1126 517 998 384 883 384 
C 832 384 787 428 787 479 
C 787 568 832 772 928 1117 
L 1856 4453 
C 1306 4351 998 4306 518 4262 
L 518 4090 
C 589 4096 621 4096 653 4096 
C 826 4096 922 4032 922 3918 
C 922 3822 838 3477 710 3011 
L 230 1327 
C 96 848 13 466 13 319 
C 13 89 186 -64 448 -64 
C 838 -64 1082 134 1523 805 
z
" transform="scale(0.015625)"/>
      <path id="TeXGyreTermesX-BoldItalic-2e" d="M 1018 408 
C 1018 669 806 879 550 879 
C 275 879 70 675 70 401 
C 70 140 275 -64 538 -64 
C 806 -64 1018 140 1018 408 
z
" transform="scale(0.015625)"/>
      <path id="TeXGyreTermesX-Bold-29" d="M 1837 1692 
C 1837 2277 1677 2843 1370 3326 
C 1075 3784 800 4038 173 4414 
L 173 4236 
C 538 4000 698 3841 832 3555 
C 1024 3161 1114 2569 1114 1704 
C 1114 827 1024 184 845 -197 
C 717 -477 557 -642 173 -897 
L 173 -1068 
C 570 -859 749 -725 992 -464 
C 1542 121 1837 878 1837 1692 
z
" transform="scale(0.015625)"/>
     </defs>
     <use xlink:href="#TeXGyreTermesX-Bold-4b" transform="scale(0.996264)"/>
     <use xlink:href="#TeXGyreTermesX-Bold-2d" transform="translate(73.026125 0) scale(0.996264)"/>
     <use xlink:href="#TeXGyreTermesX-Bold-64" transform="translate(106.201734 0) scale(0.996264)"/>
     <use xlink:href="#TeXGyreTermesX-Bold-6f" transform="translate(161.593989 0) scale(0.996264)"/>
     <use xlink:href="#TeXGyreTermesX-Bold-70" transform="translate(211.407189 0) scale(0.996264)"/>
     <use xlink:href="#TeXGyreTermesX-Bold-65" transform="translate(266.799444 0) scale(0.996264)"/>
     <use xlink:href="#TeXGyreTermesX-Bold-64" transform="translate(311.03359 0) scale(0.996264)"/>
     <use xlink:href="#TeXGyreTermesX-Bold-57" transform="translate(391.332445 0) scale(0.996264)"/>
     <use xlink:href="#TeXGyreTermesX-Bold-28" transform="translate(515.865447 0) scale(0.996264)"/>
     <use xlink:href="#TeXGyreTermesX-Bold-53" transform="translate(549.041056 0) scale(0.996264)"/>
     <use xlink:href="#TeXGyreTermesX-Bold-68" transform="translate(604.433311 0) scale(0.996264)"/>
     <use xlink:href="#TeXGyreTermesX-Bold-65" transform="translate(659.825566 0) scale(0.996264)"/>
     <use xlink:href="#TeXGyreTermesX-Bold-6e" transform="translate(704.059712 0) scale(0.996264)"/>
     <use xlink:href="#TeXGyreTermesX-Bold-67" transform="translate(759.451967 0) scale(0.996264)"/>
     <use xlink:href="#TeXGyreTermesX-BoldItalic-65" transform="translate(834.171767 0) scale(0.996264)"/>
     <use xlink:href="#TeXGyreTermesX-BoldItalic-74" transform="translate(878.405914 0) scale(0.996264)"/>
     <use xlink:href="#TeXGyreTermesX-BoldItalic-61" transform="translate(931.008641 0) scale(0.996264)"/>
     <use xlink:href="#TeXGyreTermesX-BoldItalic-6c" transform="translate(980.821842 0) scale(0.996264)"/>
     <use xlink:href="#TeXGyreTermesX-BoldItalic-2e" transform="translate(1008.517969 0) scale(0.996264)"/>
     <use xlink:href="#TeXGyreTermesX-Bold-29" transform="translate(1033.424569 0) scale(0.996264)"/>
    </g>
   </g>
  </g>
  <g id="axes_2">
   <g id="patch_7">
    <path d="M 271.235357 142.996403 
L 457.2 142.996403 
L 457.2 25.031142 
L 271.235357 25.031142 
z
" style="fill: #ffffff"/>
   </g>
   <g id="PathCollection_9">
    <g clip-path="url(#p40807c6a29)">
     <use xlink:href="#m45dd9852aa" x="283.862552" y="30.393201" style="fill: #000033; stroke: #000000"/>
    </g>
   </g>
   <g id="PathCollection_10">
    <g clip-path="url(#p40807c6a29)">
     <use xlink:href="#m45e44008ef" x="334.646681" y="57.152902" style="fill: #000033; stroke: #000000"/>
    </g>
   </g>
   <g id="PathCollection_11">
    <g clip-path="url(#p40807c6a29)">
     <use xlink:href="#m45dd9852aa" x="280.636998" y="79.359924" style="fill: #000033; stroke: #000000"/>
    </g>
   </g>
   <g id="PathCollection_12">
    <g clip-path="url(#p40807c6a29)">
     <use xlink:href="#m45e44008ef" x="292.211059" y="81.383329" style="fill: #000033; stroke: #000000"/>
    </g>
   </g>
   <g id="PathCollection_13">
    <g clip-path="url(#p40807c6a29)">
     <use xlink:href="#m2d62b1078c" x="282.724122" y="55.281244" style="fill: #990000; stroke: #000000"/>
    </g>
   </g>
   <g id="PathCollection_14">
    <g clip-path="url(#p40807c6a29)">
     <use xlink:href="#m0dce473d42" x="324.437795" y="75.818934" style="fill: #990000; stroke: #000000"/>
    </g>
   </g>
   <g id="PathCollection_15">
    <g clip-path="url(#p40807c6a29)">
     <use xlink:href="#m2d62b1078c" x="353.769287" y="95.344912" style="fill: #990000; stroke: #000000"/>
    </g>
   </g>
   <g id="PathCollection_16">
    <g clip-path="url(#p40807c6a29)">
     <use xlink:href="#m0dce473d42" x="441.640352" y="105.866685" style="fill: #990000; stroke: #000000"/>
    </g>
   </g>
   <g id="matplotlib.axis_3">
    <g id="xtick_5">
     <g id="line2d_12">
      <g>
       <use xlink:href="#m0cdb0f8483" x="279.878035" y="142.996403" style="stroke: #000000; stroke-width: 0.8"/>
      </g>
     </g>
     <g id="text_10">
      <!-- $\mathdefault{0}$ -->
      <g transform="translate(277.387375 156.835746) scale(0.1 -0.1)">
       <use xlink:href="#TeXGyreTermesX-Bold-30" transform="scale(0.996264)"/>
      </g>
     </g>
    </g>
    <g id="xtick_6">
     <g id="line2d_13">
      <g>
       <use xlink:href="#m0cdb0f8483" x="324.276924" y="142.996403" style="stroke: #000000; stroke-width: 0.8"/>
      </g>
     </g>
     <g id="text_11">
      <!-- $\mathdefault{20}$ -->
      <g transform="translate(319.295604 156.835746) scale(0.1 -0.1)">
       <use xlink:href="#TeXGyreTermesX-Bold-32" transform="scale(0.996264)"/>
       <use xlink:href="#TeXGyreTermesX-Bold-30" transform="translate(49.8132 0) scale(0.996264)"/>
      </g>
     </g>
    </g>
    <g id="xtick_7">
     <g id="line2d_14">
      <g>
       <use xlink:href="#m0cdb0f8483" x="368.675813" y="142.996403" style="stroke: #000000; stroke-width: 0.8"/>
      </g>
     </g>
     <g id="text_12">
      <!-- $\mathdefault{40}$ -->
      <g transform="translate(363.694493 156.835746) scale(0.1 -0.1)">
       <use xlink:href="#TeXGyreTermesX-Bold-34" transform="scale(0.996264)"/>
       <use xlink:href="#TeXGyreTermesX-Bold-30" transform="translate(49.8132 0) scale(0.996264)"/>
      </g>
     </g>
    </g>
    <g id="xtick_8">
     <g id="line2d_15">
      <g>
       <use xlink:href="#m0cdb0f8483" x="413.074703" y="142.996403" style="stroke: #000000; stroke-width: 0.8"/>
      </g>
     </g>
     <g id="text_13">
      <!-- $\mathdefault{60}$ -->
      <g transform="translate(408.093383 156.835746) scale(0.1 -0.1)">
       <use xlink:href="#TeXGyreTermesX-Bold-36" transform="scale(0.996264)"/>
       <use xlink:href="#TeXGyreTermesX-Bold-30" transform="translate(49.8132 0) scale(0.996264)"/>
      </g>
     </g>
    </g>
   </g>
   <g id="matplotlib.axis_4">
    <g id="ytick_4">
     <g id="line2d_16">
      <g>
       <use xlink:href="#m7cb7878592" x="271.235357" y="137.432004" style="stroke: #000000; stroke-width: 0.8"/>
      </g>
     </g>
     <g id="text_14">
      <!-- $\mathdefault{0}$ -->
      <g transform="translate(259.254037 140.851675) scale(0.1 -0.1)">
       <use xlink:href="#TeXGyreTermesX-Bold-30" transform="scale(0.996264)"/>
      </g>
     </g>
    </g>
    <g id="ytick_5">
     <g id="line2d_17">
      <g>
       <use xlink:href="#m7cb7878592" x="271.235357" y="113.15099" style="stroke: #000000; stroke-width: 0.8"/>
      </g>
     </g>
     <g id="text_15">
      <!-- $\mathdefault{250}$ -->
      <g transform="translate(249.291397 116.570661) scale(0.1 -0.1)">
       <defs>
        <path id="TeXGyreTermesX-Bold-35" d="M 3008 4288 
L 947 4288 
L 326 2093 
C 934 2049 1197 2010 1478 1921 
C 2048 1743 2387 1381 2387 960 
C 2387 604 2106 324 1747 324 
C 1600 324 1427 400 1171 591 
C 896 795 704 877 538 877 
C 307 877 141 718 141 496 
C 141 159 512 -64 1082 -64 
C 2138 -64 2886 575 2886 1476 
C 2886 2140 2477 2652 1779 2850 
C 1536 2920 1338 2946 813 2946 
L 954 3481 
L 2733 3481 
L 3008 4288 
z
" transform="scale(0.015625)"/>
       </defs>
       <use xlink:href="#TeXGyreTermesX-Bold-32" transform="scale(0.996264)"/>
       <use xlink:href="#TeXGyreTermesX-Bold-35" transform="translate(49.8132 0) scale(0.996264)"/>
       <use xlink:href="#TeXGyreTermesX-Bold-30" transform="translate(99.626401 0) scale(0.996264)"/>
      </g>
     </g>
    </g>
    <g id="ytick_6">
     <g id="line2d_18">
      <g>
       <use xlink:href="#m7cb7878592" x="271.235357" y="88.869975" style="stroke: #000000; stroke-width: 0.8"/>
      </g>
     </g>
     <g id="text_16">
      <!-- $\mathdefault{500}$ -->
      <g transform="translate(249.291397 92.289647) scale(0.1 -0.1)">
       <use xlink:href="#TeXGyreTermesX-Bold-35" transform="scale(0.996264)"/>
       <use xlink:href="#TeXGyreTermesX-Bold-30" transform="translate(49.8132 0) scale(0.996264)"/>
       <use xlink:href="#TeXGyreTermesX-Bold-30" transform="translate(99.626401 0) scale(0.996264)"/>
      </g>
     </g>
    </g>
    <g id="ytick_7">
     <g id="line2d_19">
      <g>
       <use xlink:href="#m7cb7878592" x="271.235357" y="64.588961" style="stroke: #000000; stroke-width: 0.8"/>
      </g>
     </g>
     <g id="text_17">
      <!-- $\mathdefault{750}$ -->
      <g transform="translate(249.291397 68.008632) scale(0.1 -0.1)">
       <defs>
        <path id="TeXGyreTermesX-Bold-37" d="M 3053 4327 
L 390 4327 
L 109 2916 
L 269 2916 
C 390 3322 544 3456 896 3456 
L 2221 3456 
L 941 32 
L 1549 32 
L 3053 4327 
z
" transform="scale(0.015625)"/>
       </defs>
       <use xlink:href="#TeXGyreTermesX-Bold-37" transform="scale(0.996264)"/>
       <use xlink:href="#TeXGyreTermesX-Bold-35" transform="translate(49.8132 0) scale(0.996264)"/>
       <use xlink:href="#TeXGyreTermesX-Bold-30" transform="translate(99.626401 0) scale(0.996264)"/>
      </g>
     </g>
    </g>
    <g id="ytick_8">
     <g id="line2d_20">
      <g>
       <use xlink:href="#m7cb7878592" x="271.235357" y="40.307947" style="stroke: #000000; stroke-width: 0.8"/>
      </g>
     </g>
     <g id="text_18">
      <!-- $\mathdefault{1000}$ -->
      <g transform="translate(244.310077 43.727618) scale(0.1 -0.1)">
       <defs>
        <path id="TeXGyreTermesX-Bold-31" d="M 2829 0 
L 2829 159 
C 2246 159 2138 255 2138 746 
L 2138 4384 
L 2029 4384 
L 416 3686 
L 416 3521 
C 474 3540 525 3559 544 3572 
C 717 3635 877 3680 960 3680 
C 1120 3680 1190 3540 1190 3241 
L 1190 790 
C 1190 267 1062 159 429 159 
L 429 0 
L 2829 0 
z
" transform="scale(0.015625)"/>
       </defs>
       <use xlink:href="#TeXGyreTermesX-Bold-31" transform="scale(0.996264)"/>
       <use xlink:href="#TeXGyreTermesX-Bold-30" transform="translate(49.8132 0) scale(0.996264)"/>
       <use xlink:href="#TeXGyreTermesX-Bold-30" transform="translate(99.626401 0) scale(0.996264)"/>
       <use xlink:href="#TeXGyreTermesX-Bold-30" transform="translate(149.439601 0) scale(0.996264)"/>
      </g>
     </g>
    </g>
   </g>
   <g id="line2d_21">
    <path d="M 279.688296 137.432004 
L 279.878035 133.58751 
L 279.878035 128.528965 
L 279.878035 110.520546 
L 279.878035 83.204405 
L 280.257512 120.03061 
L 280.257512 91.500419 
L 280.257512 96.356621 
L 280.257512 65.195986 
L 280.447251 104.652635 
L 280.63699 73.289658 
L 280.63699 54.26953 
L 281.016468 43.545415 
L 281.965162 36.868136 
L 283.86255 30.393199 
L 286.329155 33.023642 
L 288.606021 35.856427 
L 291.831582 38.082187 
L 296.195575 39.903263 
L 300.559568 41.117314 
L 307.200428 43.343074 
L 314.789982 46.3782 
L 322.948752 50.020352 
L 331.297261 55.078897 
L 337.179165 58.721049 
" clip-path="url(#p40807c6a29)" style="fill: none; stroke: #000033; stroke-linecap: square"/>
   </g>
   <g id="line2d_22">
    <path d="M 279.878035 137.02732 
L 279.878035 132.171118 
L 279.878035 114.769724 
L 280.067773 124.684471 
L 280.257512 105.462002 
L 280.447251 98.177697 
L 280.63699 88.869975 
L 280.63699 82.192696 
L 280.63699 79.359911 
L 281.775423 81.180987 
L 282.534378 84.013772 
L 283.483073 85.430165 
L 286.139416 83.811431 
L 290.123932 82.192696 
L 292.211059 81.383329 
" clip-path="url(#p40807c6a29)" style="fill: none; stroke-dasharray: 5,1; stroke-dashoffset: 0; stroke: #000033"/>
   </g>
   <g id="line2d_23">
    <path d="M 279.878035 136.420295 
L 280.067773 117.602509 
L 280.257512 128.528965 
L 280.257512 109.104154 
L 280.447251 101.81985 
L 280.447251 84.216114 
L 280.63699 93.321495 
L 280.63699 76.122443 
L 280.63699 68.433455 
L 281.395945 62.767885 
L 281.585684 57.506999 
L 282.724117 55.281239 
L 284.621506 57.102315 
L 287.467588 59.328075 
L 292.021321 60.946809 
L 297.334008 62.767885 
L 303.405651 65.195986 
L 309.097816 67.624088 
L 315.738676 71.063898 
L 324.276924 75.717759 
L 331.676739 80.37162 
" clip-path="url(#p40807c6a29)" style="fill: none; stroke: #990000; stroke-linecap: square"/>
   </g>
   <g id="line2d_24">
    <path d="M 279.688296 137.634346 
L 279.751558 135.702934 
L 279.782333 132.585119 
L 279.782333 126.327611 
L 279.782333 129.456365 
L 279.943766 121.866516 
L 280.782519 118.079077 
L 282.790299 115.432277 
L 285.516732 113.469983 
L 288.45061 110.864842 
L 291.001084 108.710591 
L 294.318367 106.404428 
L 297.336472 105.616456 
L 300.186124 103.766966 
L 303.142229 102.719738 
L 306.053881 101.77594 
L 308.965533 101.06055 
L 311.921638 100.133991 
L 314.855517 99.7332 
L 317.789395 99.022119 
L 320.723274 98.388611 
L 323.657152 97.884391 
L 326.59103 97.470671 
L 329.524909 96.824234 
L 332.458787 96.475158 
L 335.392666 96.410515 
L 338.326544 96.100225 
L 341.260423 95.94508 
L 344.389241 95.749596 
L 348.753235 95.749596 
L 353.306967 95.344912 
L 357.481222 95.344912 
L 361.275998 95.547254 
L 364.731451 95.84165 
L 367.665329 95.751149 
L 370.599208 95.751149 
L 373.533086 95.751149 
L 376.466965 95.751149 
L 379.400843 95.751149 
L 382.334722 95.789935 
L 385.2686 96.100225 
L 388.202479 96.177797 
L 391.136357 96.294156 
L 394.070236 96.604446 
L 397.004114 96.86302 
L 399.937992 97.561172 
L 402.871871 97.884391 
L 405.805749 98.078322 
L 408.739628 98.440326 
L 411.673506 98.595471 
L 414.607385 99.060906 
L 417.541263 99.293623 
L 420.475142 99.52634 
L 423.40902 100.340851 
L 426.342899 101.026074 
L 429.276777 101.87937 
L 432.099524 102.873806 
L 435.144534 103.430819 
L 438.078413 104.426331 
L 441.012291 105.589918 
L 443.94617 106.882791 
L 446.880048 108.43424 
L 448.747062 109.4513 
" clip-path="url(#p40807c6a29)" style="fill: none; stroke-dasharray: 5,1; stroke-dashoffset: 0; stroke: #990000"/>
   </g>
   <g id="patch_8">
    <path d="M 271.235357 142.996403 
L 271.235357 25.031142 
" style="fill: none; stroke: #000000; stroke-width: 0.8; stroke-linejoin: miter; stroke-linecap: square"/>
   </g>
   <g id="patch_9">
    <path d="M 457.2 142.996403 
L 457.2 25.031142 
" style="fill: none; stroke: #000000; stroke-width: 0.8; stroke-linejoin: miter; stroke-linecap: square"/>
   </g>
   <g id="patch_10">
    <path d="M 271.235357 142.996403 
L 457.2 142.996403 
" style="fill: none; stroke: #000000; stroke-width: 0.8; stroke-linejoin: miter; stroke-linecap: square"/>
   </g>
   <g id="patch_11">
    <path d="M 271.235357 25.031142 
L 457.2 25.031142 
" style="fill: none; stroke: #000000; stroke-width: 0.8; stroke-linejoin: miter; stroke-linecap: square"/>
   </g>
   <g id="text_19">
    <!-- \textbf{Pure W (Tano \textit{et al.})} -->
    <g transform="translate(312.696885 19.031142) scale(0.12 -0.12)">
     <defs>
      <path id="TeXGyreTermesX-Bold-75" d="M 3437 152 
L 3437 305 
C 3155 305 3078 388 3078 660 
L 3078 2944 
L 1792 2944 
L 1792 2792 
C 2112 2767 2189 2690 2189 2419 
L 2189 627 
C 1978 419 1850 349 1664 349 
C 1402 349 1306 476 1306 799 
L 1306 2944 
L 102 2944 
L 102 2792 
C 365 2741 416 2684 416 2419 
L 416 822 
C 416 266 736 -64 1267 -64 
C 1600 -64 1824 38 2195 355 
L 2195 -58 
C 2470 38 2624 63 3040 108 
L 3437 152 
z
" transform="scale(0.015625)"/>
      <path id="TeXGyreTermesX-Bold-54" d="M 4070 3013 
L 4058 4288 
L 218 4288 
L 198 3013 
L 384 3013 
C 493 3777 826 4072 1619 4072 
L 1619 740 
C 1619 272 1549 204 998 159 
L 998 0 
L 3283 0 
L 3283 178 
C 2726 178 2656 242 2656 724 
L 2656 4072 
C 3443 4072 3776 3777 3885 3013 
L 4070 3013 
z
" transform="scale(0.015625)"/>
     </defs>
     <use xlink:href="#TeXGyreTermesX-Bold-50" transform="scale(0.996264)"/>
     <use xlink:href="#TeXGyreTermesX-Bold-75" transform="translate(60.871737 0) scale(0.996264)"/>
     <use xlink:href="#TeXGyreTermesX-Bold-72" transform="translate(116.263992 0) scale(0.996264)"/>
     <use xlink:href="#TeXGyreTermesX-Bold-65" transform="translate(159.501844 0) scale(0.996264)"/>
     <use xlink:href="#TeXGyreTermesX-Bold-57" transform="translate(228.64259 0) scale(0.996264)"/>
     <use xlink:href="#TeXGyreTermesX-Bold-28" transform="translate(353.175592 0) scale(0.996264)"/>
     <use xlink:href="#TeXGyreTermesX-Bold-54" transform="translate(386.351201 0) scale(0.996264)"/>
     <use xlink:href="#TeXGyreTermesX-Bold-61" transform="translate(446.326307 0) scale(0.996264)"/>
     <use xlink:href="#TeXGyreTermesX-Bold-6e" transform="translate(496.139507 0) scale(0.996264)"/>
     <use xlink:href="#TeXGyreTermesX-Bold-6f" transform="translate(551.531762 0) scale(0.996264)"/>
     <use xlink:href="#TeXGyreTermesX-BoldItalic-65" transform="translate(626.251563 0) scale(0.996264)"/>
     <use xlink:href="#TeXGyreTermesX-BoldItalic-74" transform="translate(670.485709 0) scale(0.996264)"/>
     <use xlink:href="#TeXGyreTermesX-BoldItalic-61" transform="translate(723.088437 0) scale(0.996264)"/>
     <use xlink:href="#TeXGyreTermesX-BoldItalic-6c" transform="translate(772.901637 0) scale(0.996264)"/>
     <use xlink:href="#TeXGyreTermesX-BoldItalic-2e" transform="translate(800.597764 0) scale(0.996264)"/>
     <use xlink:href="#TeXGyreTermesX-Bold-29" transform="translate(825.504365 0) scale(0.996264)"/>
    </g>
   </g>
  </g>
  <g id="axes_3">
   <g id="patch_12">
    <path d="M 47.545435 306.411574 
L 233.510077 306.411574 
L 233.510077 188.446313 
L 47.545435 188.446313 
z
" style="fill: #ffffff"/>
   </g>
   <g id="PathCollection_17">
    <g clip-path="url(#p28f79eec6f)">
     <use xlink:href="#m45dd9852aa" x="75.879515" y="193.808374" style="fill: #000033; stroke: #000000"/>
    </g>
   </g>
   <g id="PathCollection_18">
    <g clip-path="url(#p28f79eec6f)">
     <use xlink:href="#m45e44008ef" x="75.879534" y="193.80837" style="fill: #000033; stroke: #000000"/>
    </g>
   </g>
   <g id="PathCollection_19">
    <g clip-path="url(#p28f79eec6f)">
     <use xlink:href="#m45dd9852aa" x="119.958916" y="234.791688" style="fill: #000033; stroke: #000000"/>
    </g>
   </g>
   <g id="PathCollection_20">
    <g clip-path="url(#p28f79eec6f)">
     <use xlink:href="#m45e44008ef" x="119.958939" y="234.791683" style="fill: #000033; stroke: #000000"/>
    </g>
   </g>
   <g id="PathCollection_21">
    <g clip-path="url(#p28f79eec6f)">
     <use xlink:href="#m2d62b1078c" x="68.833314" y="221.212651" style="fill: #990000; stroke: #000000"/>
    </g>
   </g>
   <g id="PathCollection_22">
    <g clip-path="url(#p28f79eec6f)">
     <use xlink:href="#m0dce473d42" x="111.392544" y="231.816256" style="fill: #990000; stroke: #000000"/>
    </g>
   </g>
   <g id="PathCollection_23">
    <g clip-path="url(#p28f79eec6f)">
     <use xlink:href="#m2d62b1078c" x="208.433026" y="251.898135" style="fill: #990000; stroke: #000000"/>
    </g>
   </g>
   <g id="PathCollection_24">
    <g clip-path="url(#p28f79eec6f)">
     <use xlink:href="#m0dce473d42" x="225.057139" y="253.144301" style="fill: #990000; stroke: #000000"/>
    </g>
   </g>
   <g id="matplotlib.axis_5">
    <g id="xtick_9">
     <g id="line2d_25">
      <g>
       <use xlink:href="#m0cdb0f8483" x="55.953097" y="306.411574" style="stroke: #000000; stroke-width: 0.8"/>
      </g>
     </g>
     <g id="text_20">
      <!-- $\mathdefault{0}$ -->
      <g transform="translate(53.462437 320.250916) scale(0.1 -0.1)">
       <use xlink:href="#TeXGyreTermesX-Bold-30" transform="scale(0.996264)"/>
      </g>
     </g>
    </g>
    <g id="xtick_10">
     <g id="line2d_26">
      <g>
       <use xlink:href="#m0cdb0f8483" x="91.068792" y="306.411574" style="stroke: #000000; stroke-width: 0.8"/>
      </g>
     </g>
     <g id="text_21">
      <!-- $\mathdefault{10}$ -->
      <g transform="translate(86.087472 320.250916) scale(0.1 -0.1)">
       <use xlink:href="#TeXGyreTermesX-Bold-31" transform="scale(0.996264)"/>
       <use xlink:href="#TeXGyreTermesX-Bold-30" transform="translate(49.8132 0) scale(0.996264)"/>
      </g>
     </g>
    </g>
    <g id="xtick_11">
     <g id="line2d_27">
      <g>
       <use xlink:href="#m0cdb0f8483" x="126.184487" y="306.411574" style="stroke: #000000; stroke-width: 0.8"/>
      </g>
     </g>
     <g id="text_22">
      <!-- $\mathdefault{20}$ -->
      <g transform="translate(121.203167 320.250916) scale(0.1 -0.1)">
       <use xlink:href="#TeXGyreTermesX-Bold-32" transform="scale(0.996264)"/>
       <use xlink:href="#TeXGyreTermesX-Bold-30" transform="translate(49.8132 0) scale(0.996264)"/>
      </g>
     </g>
    </g>
    <g id="xtick_12">
     <g id="line2d_28">
      <g>
       <use xlink:href="#m0cdb0f8483" x="161.300181" y="306.411574" style="stroke: #000000; stroke-width: 0.8"/>
      </g>
     </g>
     <g id="text_23">
      <!-- $\mathdefault{30}$ -->
      <g transform="translate(156.318861 320.250916) scale(0.1 -0.1)">
       <defs>
        <path id="TeXGyreTermesX-Bold-33" d="M 2995 1596 
C 2995 1889 2899 2164 2714 2387 
C 2579 2540 2470 2617 2214 2732 
C 2624 2981 2746 3165 2746 3541 
C 2746 4090 2355 4416 1702 4416 
C 1069 4416 589 4097 237 3440 
L 371 3364 
C 614 3753 826 3900 1158 3900 
C 1562 3900 1811 3645 1811 3242 
C 1811 2822 1587 2598 979 2406 
L 979 2297 
C 1510 2112 1722 2004 1952 1786 
C 2150 1601 2266 1314 2266 1007 
C 2266 548 2022 254 1638 254 
C 1485 254 1363 324 1152 528 
C 902 778 710 880 518 880 
C 275 880 102 728 102 510 
C 102 166 493 -64 1082 -64 
C 2150 -64 2995 664 2995 1596 
z
" transform="scale(0.015625)"/>
       </defs>
       <use xlink:href="#TeXGyreTermesX-Bold-33" transform="scale(0.996264)"/>
       <use xlink:href="#TeXGyreTermesX-Bold-30" transform="translate(49.8132 0) scale(0.996264)"/>
      </g>
     </g>
    </g>
    <g id="xtick_13">
     <g id="line2d_29">
      <g>
       <use xlink:href="#m0cdb0f8483" x="196.415876" y="306.411574" style="stroke: #000000; stroke-width: 0.8"/>
      </g>
     </g>
     <g id="text_24">
      <!-- $\mathdefault{40}$ -->
      <g transform="translate(191.434556 320.250916) scale(0.1 -0.1)">
       <use xlink:href="#TeXGyreTermesX-Bold-34" transform="scale(0.996264)"/>
       <use xlink:href="#TeXGyreTermesX-Bold-30" transform="translate(49.8132 0) scale(0.996264)"/>
      </g>
     </g>
    </g>
    <g id="xtick_14">
     <g id="line2d_30">
      <g>
       <use xlink:href="#m0cdb0f8483" x="231.531571" y="306.411574" style="stroke: #000000; stroke-width: 0.8"/>
      </g>
     </g>
     <g id="text_25">
      <!-- $\mathdefault{50}$ -->
      <g transform="translate(226.550251 320.250916) scale(0.1 -0.1)">
       <use xlink:href="#TeXGyreTermesX-Bold-35" transform="scale(0.996264)"/>
       <use xlink:href="#TeXGyreTermesX-Bold-30" transform="translate(49.8132 0) scale(0.996264)"/>
      </g>
     </g>
    </g>
    <g id="text_26">
     <!-- \textbf{Strain [\%]} -->
     <g transform="translate(113.132487 334.620022) scale(0.12 -0.12)">
      <defs>
       <path id="TeXGyreTermesX-Bold-69" d="M 1632 -32 
L 1632 121 
C 1408 152 1331 241 1331 484 
L 1331 2908 
L 102 2908 
L 102 2755 
C 384 2698 442 2641 442 2379 
L 442 503 
C 442 241 397 191 102 121 
L 102 -32 
L 1632 -32 
z
M 1370 3882 
C 1370 4162 1152 4372 877 4372 
C 602 4372 384 4162 384 3882 
C 384 3602 602 3392 877 3392 
C 1152 3392 1370 3602 1370 3882 
z
" transform="scale(0.015625)"/>
       <path id="TeXGyreTermesX-Bold-25" d="M 6029 1154 
C 6029 1792 5619 2372 5011 2372 
C 4371 2372 3910 1792 3910 1142 
C 3910 492 4378 -64 5011 -64 
C 5619 -64 6029 517 6029 1154 
z
M 4128 4416 
L 3859 4416 
C 3565 4098 3258 3968 2822 3968 
C 2547 3968 2362 4010 2150 4110 
C 1990 4234 1798 4305 1574 4305 
C 934 4305 474 3728 474 3082 
C 474 2435 941 1884 1574 1884 
C 2182 1884 2592 2466 2592 3105 
C 2592 3340 2534 3567 2438 3764 
C 2560 3739 2682 3726 2810 3726 
C 3066 3726 3315 3784 3578 3898 
L 2381 -64 
L 2765 -64 
L 4128 4416 
z
M 5850 1141 
C 5850 726 5626 229 5254 229 
C 4858 229 4685 688 4685 1141 
C 4685 1589 4858 2048 5254 2048 
C 5626 2048 5850 1551 5850 1141 
z
M 2413 3076 
C 2413 2666 2189 2176 1818 2176 
C 1421 2176 1248 2634 1248 3085 
C 1248 3517 1414 3968 1792 3968 
C 1907 3900 2035 3844 2157 3801 
C 2323 3621 2413 3329 2413 3076 
z
" transform="scale(0.015625)"/>
      </defs>
      <use xlink:href="#TeXGyreTermesX-Bold-53" transform="scale(0.996264)"/>
      <use xlink:href="#TeXGyreTermesX-Bold-74" transform="translate(55.392255 0) scale(0.996264)"/>
      <use xlink:href="#TeXGyreTermesX-Bold-72" transform="translate(88.567864 0) scale(0.996264)"/>
      <use xlink:href="#TeXGyreTermesX-Bold-61" transform="translate(132.802011 0) scale(0.996264)"/>
      <use xlink:href="#TeXGyreTermesX-Bold-69" transform="translate(182.615211 0) scale(0.996264)"/>
      <use xlink:href="#TeXGyreTermesX-Bold-6e" transform="translate(210.311339 0) scale(0.996264)"/>
      <use xlink:href="#TeXGyreTermesX-Bold-5b" transform="translate(290.610193 0) scale(0.996264)"/>
      <use xlink:href="#TeXGyreTermesX-Bold-25" transform="translate(323.785803 0) scale(0.996264)"/>
      <use xlink:href="#TeXGyreTermesX-Bold-5d" transform="translate(423.412204 0) scale(0.996264)"/>
     </g>
    </g>
   </g>
   <g id="matplotlib.axis_6">
    <g id="ytick_9">
     <g id="line2d_31">
      <g>
       <use xlink:href="#m7cb7878592" x="47.545435" y="301.349746" style="stroke: #000000; stroke-width: 0.8"/>
      </g>
     </g>
     <g id="text_27">
      <!-- $\mathdefault{0}$ -->
      <g transform="translate(35.564115 304.769417) scale(0.1 -0.1)">
       <use xlink:href="#TeXGyreTermesX-Bold-30" transform="scale(0.996264)"/>
      </g>
     </g>
    </g>
    <g id="ytick_10">
     <g id="line2d_32">
      <g>
       <use xlink:href="#m7cb7878592" x="47.545435" y="263.420791" style="stroke: #000000; stroke-width: 0.8"/>
      </g>
     </g>
     <g id="text_28">
      <!-- $\mathdefault{200}$ -->
      <g transform="translate(25.601474 266.840462) scale(0.1 -0.1)">
       <use xlink:href="#TeXGyreTermesX-Bold-32" transform="scale(0.996264)"/>
       <use xlink:href="#TeXGyreTermesX-Bold-30" transform="translate(49.8132 0) scale(0.996264)"/>
       <use xlink:href="#TeXGyreTermesX-Bold-30" transform="translate(99.626401 0) scale(0.996264)"/>
      </g>
     </g>
    </g>
    <g id="ytick_11">
     <g id="line2d_33">
      <g>
       <use xlink:href="#m7cb7878592" x="47.545435" y="225.491836" style="stroke: #000000; stroke-width: 0.8"/>
      </g>
     </g>
     <g id="text_29">
      <!-- $\mathdefault{400}$ -->
      <g transform="translate(25.601474 228.911507) scale(0.1 -0.1)">
       <use xlink:href="#TeXGyreTermesX-Bold-34" transform="scale(0.996264)"/>
       <use xlink:href="#TeXGyreTermesX-Bold-30" transform="translate(49.8132 0) scale(0.996264)"/>
       <use xlink:href="#TeXGyreTermesX-Bold-30" transform="translate(99.626401 0) scale(0.996264)"/>
      </g>
     </g>
    </g>
    <g id="text_30">
     <!-- \textbf{Stress [MPa]} -->
     <g transform="translate(19.007214 280.281743) rotate(-90) scale(0.12 -0.12)">
      <use xlink:href="#TeXGyreTermesX-Bold-53" transform="scale(0.996264)"/>
      <use xlink:href="#TeXGyreTermesX-Bold-74" transform="translate(55.392255 0) scale(0.996264)"/>
      <use xlink:href="#TeXGyreTermesX-Bold-72" transform="translate(88.567864 0) scale(0.996264)"/>
      <use xlink:href="#TeXGyreTermesX-Bold-65" transform="translate(131.805716 0) scale(0.996264)"/>
      <use xlink:href="#TeXGyreTermesX-Bold-73" transform="translate(176.039863 0) scale(0.996264)"/>
      <use xlink:href="#TeXGyreTermesX-Bold-73" transform="translate(214.794527 0) scale(0.996264)"/>
      <use xlink:href="#TeXGyreTermesX-Bold-5b" transform="translate(278.455791 0) scale(0.996264)"/>
      <use xlink:href="#TeXGyreTermesX-Bold-4d" transform="translate(311.631401 0) scale(0.996264)"/>
      <use xlink:href="#TeXGyreTermesX-Bold-50" transform="translate(405.678747 0) scale(0.996264)"/>
      <use xlink:href="#TeXGyreTermesX-Bold-61" transform="translate(464.557911 0) scale(0.996264)"/>
      <use xlink:href="#TeXGyreTermesX-Bold-5d" transform="translate(514.371111 0) scale(0.996264)"/>
     </g>
    </g>
   </g>
   <g id="line2d_34">
    <path d="M 56.139091 301.049516 
L 56.697074 291.442182 
L 57.44105 281.384504 
L 58.743009 272.527743 
L 59.486986 264.871899 
L 59.486986 258.116742 
L 60.095974 253.711073 
L 60.753622 247.227933 
L 61.69312 237.2947 
L 62.632617 228.859034 
L 63.196316 221.977806 
L 63.760015 215.835883 
L 64.323713 210.376396 
L 64.887412 204.689431 
L 66.578507 197.956063 
L 71.088096 194.86649 
L 75.879534 193.80837 
" clip-path="url(#p28f79eec6f)" style="fill: none; stroke: #000033; stroke-linecap: square"/>
   </g>
   <g id="line2d_35">
    <path d="M 55.998373 299.818859 
L 56.843667 294.097827 
L 57.688961 289.62296 
L 57.746544 283.611109 
L 58.816019 276.48158 
L 59.181302 273.371733 
L 59.360647 269.910536 
L 60.788371 267.701778 
L 63.042488 263.906638 
L 65.296605 260.394717 
L 68.114251 256.656221 
L 71.777191 252.852989 
L 76.00366 249.235873 
L 80.511894 246.686898 
L 85.020128 244.307855 
L 89.528361 242.18371 
L 94.036595 240.909222 
L 98.544829 239.408159 
L 103.053063 237.907097 
L 107.561297 237.22737 
L 112.06953 236.292746 
L 116.577764 235.47141 
L 119.958939 234.791683 
" clip-path="url(#p28f79eec6f)" style="fill: none; stroke-dasharray: 5,1; stroke-dashoffset: 0; stroke: #000033"/>
   </g>
   <g id="line2d_36">
    <path d="M 56.431933 293.709398 
L 56.770152 286.818312 
L 57.277481 300.874974 
L 57.713066 277.246839 
L 59.250426 266.628826 
L 60.471773 257.843602 
L 60.941522 251.568225 
L 61.223371 246.706628 
L 62.162869 240.251922 
L 62.820517 233.200084 
L 63.578857 228.99451 
L 64.0016 225.844942 
L 65.810787 222.089238 
L 68.833302 221.21265 
L 75.033986 221.31605 
L 81.23467 221.957126 
L 87.435354 222.88772 
L 93.636039 224.045793 
L 99.836723 225.948342 
L 106.037407 228.471286 
L 111.392544 231.816256 
" clip-path="url(#p28f79eec6f)" style="fill: none; stroke: #990000; stroke-linecap: square"/>
   </g>
   <g id="line2d_37">
    <path d="M 56.42102 300.668517 
L 56.843667 293.965658 
L 57.238137 287.810356 
L 59.379548 282.735064 
L 62.197194 278.70202 
L 65.296605 274.820026 
L 68.959545 271.270343 
L 73.186014 268.296539 
L 77.694248 265.889174 
L 82.202482 263.878316 
L 86.710715 262.405575 
L 91.218949 261.074444 
L 95.727183 260.054854 
L 100.235417 259.091908 
L 104.74365 258.270572 
L 109.251884 257.590845 
L 113.760118 256.769509 
L 118.268352 256.118104 
L 122.776585 255.4667 
L 127.284819 255.041871 
L 131.793053 254.58872 
L 136.301287 254.192212 
L 140.809521 253.767383 
L 145.317754 253.540808 
L 149.825988 253.370876 
L 154.334222 253.087657 
L 158.842456 252.747793 
L 163.350689 252.492896 
L 167.858923 252.40793 
L 172.367157 252.068067 
L 176.875391 252.011423 
L 181.383624 252.181355 
L 186.516048 252.171899 
L 192.613768 252.027683 
L 198.532144 252.027683 
L 203.924793 252.011423 
L 208.433027 251.898135 
L 212.941261 251.983101 
L 217.449494 252.209677 
L 221.957728 252.606184 
L 225.057139 253.144301 
" clip-path="url(#p28f79eec6f)" style="fill: none; stroke-dasharray: 5,1; stroke-dashoffset: 0; stroke: #990000"/>
   </g>
   <g id="patch_13">
    <path d="M 47.545435 306.411574 
L 47.545435 188.446313 
" style="fill: none; stroke: #000000; stroke-width: 0.8; stroke-linejoin: miter; stroke-linecap: square"/>
   </g>
   <g id="patch_14">
    <path d="M 233.510077 306.411574 
L 233.510077 188.446313 
" style="fill: none; stroke: #000000; stroke-width: 0.8; stroke-linejoin: miter; stroke-linecap: square"/>
   </g>
   <g id="patch_15">
    <path d="M 47.545435 306.411574 
L 233.510077 306.411574 
" style="fill: none; stroke: #000000; stroke-width: 0.8; stroke-linejoin: miter; stroke-linecap: square"/>
   </g>
   <g id="patch_16">
    <path d="M 47.545435 188.446313 
L 233.510077 188.446313 
" style="fill: none; stroke: #000000; stroke-width: 0.8; stroke-linejoin: miter; stroke-linecap: square"/>
   </g>
   <g id="text_31">
    <!-- \textbf{Pure W (Wirtz \textit{et al.})} -->
    <g transform="translate(87.028382 182.446313) scale(0.12 -0.12)">
     <defs>
      <path id="TeXGyreTermesX-Bold-7a" d="M 2688 1022 
L 2509 1022 
C 2451 817 2400 702 2298 568 
C 2093 286 1882 204 1370 204 
L 1184 204 
L 2662 2778 
L 2662 2944 
L 288 2944 
L 243 2038 
L 410 2038 
C 570 2645 736 2740 1632 2740 
L 134 159 
L 134 0 
L 2586 0 
L 2688 1022 
z
" transform="scale(0.015625)"/>
     </defs>
     <use xlink:href="#TeXGyreTermesX-Bold-50" transform="scale(0.996264)"/>
     <use xlink:href="#TeXGyreTermesX-Bold-75" transform="translate(60.871737 0) scale(0.996264)"/>
     <use xlink:href="#TeXGyreTermesX-Bold-72" transform="translate(116.263992 0) scale(0.996264)"/>
     <use xlink:href="#TeXGyreTermesX-Bold-65" transform="translate(159.501844 0) scale(0.996264)"/>
     <use xlink:href="#TeXGyreTermesX-Bold-57" transform="translate(228.64259 0) scale(0.996264)"/>
     <use xlink:href="#TeXGyreTermesX-Bold-28" transform="translate(353.175592 0) scale(0.996264)"/>
     <use xlink:href="#TeXGyreTermesX-Bold-57" transform="translate(386.351201 0) scale(0.996264)"/>
     <use xlink:href="#TeXGyreTermesX-Bold-69" transform="translate(484.981308 0) scale(0.996264)"/>
     <use xlink:href="#TeXGyreTermesX-Bold-72" transform="translate(512.677435 0) scale(0.996264)"/>
     <use xlink:href="#TeXGyreTermesX-Bold-74" transform="translate(556.911582 0) scale(0.996264)"/>
     <use xlink:href="#TeXGyreTermesX-Bold-7a" transform="translate(590.087191 0) scale(0.996264)"/>
     <use xlink:href="#TeXGyreTermesX-BoldItalic-65" transform="translate(659.227938 0) scale(0.996264)"/>
     <use xlink:href="#TeXGyreTermesX-BoldItalic-74" transform="translate(703.462084 0) scale(0.996264)"/>
     <use xlink:href="#TeXGyreTermesX-BoldItalic-61" transform="translate(756.064812 0) scale(0.996264)"/>
     <use xlink:href="#TeXGyreTermesX-BoldItalic-6c" transform="translate(805.878012 0) scale(0.996264)"/>
     <use xlink:href="#TeXGyreTermesX-BoldItalic-2e" transform="translate(833.57414 0) scale(0.996264)"/>
     <use xlink:href="#TeXGyreTermesX-Bold-29" transform="translate(858.48074 0) scale(0.996264)"/>
    </g>
   </g>
  </g>
  <g id="axes_4">
   <g id="patch_17">
    <path d="M 271.235357 306.411574 
L 457.2 306.411574 
L 457.2 188.446313 
L 271.235357 188.446313 
z
" style="fill: #ffffff"/>
   </g>
   <g id="PathCollection_25">
    <g clip-path="url(#p1ada4e9de1)">
     <use xlink:href="#m45dd9852aa" x="283.406754" y="193.808375" style="fill: #000033; stroke: #000000"/>
    </g>
   </g>
   <g id="PathCollection_26">
    <g clip-path="url(#p1ada4e9de1)">
     <use xlink:href="#m45e44008ef" x="312.911297" y="207.969593" style="fill: #000033; stroke: #000000"/>
    </g>
   </g>
   <g id="PathCollection_27">
    <g clip-path="url(#p1ada4e9de1)">
     <use xlink:href="#m45dd9852aa" x="332.571802" y="232.930458" style="fill: #000033; stroke: #000000"/>
    </g>
   </g>
   <g id="PathCollection_28">
    <g clip-path="url(#p1ada4e9de1)">
     <use xlink:href="#m45e44008ef" x="332.571821" y="232.930455" style="fill: #000033; stroke: #000000"/>
    </g>
   </g>
   <g id="PathCollection_29">
    <g clip-path="url(#p1ada4e9de1)">
     <use xlink:href="#m2d62b1078c" x="288.505352" y="231.789609" style="fill: #990000; stroke: #000000"/>
    </g>
   </g>
   <g id="PathCollection_30">
    <g clip-path="url(#p1ada4e9de1)">
     <use xlink:href="#m0dce473d42" x="339.127164" y="238.939019" style="fill: #990000; stroke: #000000"/>
    </g>
   </g>
   <g id="PathCollection_31">
    <g clip-path="url(#p1ada4e9de1)">
     <use xlink:href="#m2d62b1078c" x="389.020608" y="260.089356" style="fill: #990000; stroke: #000000"/>
    </g>
   </g>
   <g id="PathCollection_32">
    <g clip-path="url(#p1ada4e9de1)">
     <use xlink:href="#m0dce473d42" x="444.269953" y="270.385251" style="fill: #990000; stroke: #000000"/>
    </g>
   </g>
   <g id="matplotlib.axis_7">
    <g id="xtick_15">
     <g id="line2d_38">
      <g>
       <use xlink:href="#m0cdb0f8483" x="280.12908" y="306.411574" style="stroke: #000000; stroke-width: 0.8"/>
      </g>
     </g>
     <g id="text_32">
      <!-- $\mathdefault{0}$ -->
      <g transform="translate(277.63842 320.250916) scale(0.1 -0.1)">
       <use xlink:href="#TeXGyreTermesX-Bold-30" transform="scale(0.996264)"/>
      </g>
     </g>
    </g>
    <g id="xtick_16">
     <g id="line2d_39">
      <g>
       <use xlink:href="#m0cdb0f8483" x="341.555069" y="306.411574" style="stroke: #000000; stroke-width: 0.8"/>
      </g>
     </g>
     <g id="text_33">
      <!-- $\mathdefault{20}$ -->
      <g transform="translate(336.573749 320.250916) scale(0.1 -0.1)">
       <use xlink:href="#TeXGyreTermesX-Bold-32" transform="scale(0.996264)"/>
       <use xlink:href="#TeXGyreTermesX-Bold-30" transform="translate(49.8132 0) scale(0.996264)"/>
      </g>
     </g>
    </g>
    <g id="xtick_17">
     <g id="line2d_40">
      <g>
       <use xlink:href="#m0cdb0f8483" x="402.981058" y="306.411574" style="stroke: #000000; stroke-width: 0.8"/>
      </g>
     </g>
     <g id="text_34">
      <!-- $\mathdefault{40}$ -->
      <g transform="translate(397.999738 320.250916) scale(0.1 -0.1)">
       <use xlink:href="#TeXGyreTermesX-Bold-34" transform="scale(0.996264)"/>
       <use xlink:href="#TeXGyreTermesX-Bold-30" transform="translate(49.8132 0) scale(0.996264)"/>
      </g>
     </g>
    </g>
    <g id="text_35">
     <!-- \textbf{Strain [\%]} -->
     <g transform="translate(336.82241 334.620022) scale(0.12 -0.12)">
      <use xlink:href="#TeXGyreTermesX-Bold-53" transform="scale(0.996264)"/>
      <use xlink:href="#TeXGyreTermesX-Bold-74" transform="translate(55.392255 0) scale(0.996264)"/>
      <use xlink:href="#TeXGyreTermesX-Bold-72" transform="translate(88.567864 0) scale(0.996264)"/>
      <use xlink:href="#TeXGyreTermesX-Bold-61" transform="translate(132.802011 0) scale(0.996264)"/>
      <use xlink:href="#TeXGyreTermesX-Bold-69" transform="translate(182.615211 0) scale(0.996264)"/>
      <use xlink:href="#TeXGyreTermesX-Bold-6e" transform="translate(210.311339 0) scale(0.996264)"/>
      <use xlink:href="#TeXGyreTermesX-Bold-5b" transform="translate(290.610193 0) scale(0.996264)"/>
      <use xlink:href="#TeXGyreTermesX-Bold-25" transform="translate(323.785803 0) scale(0.996264)"/>
      <use xlink:href="#TeXGyreTermesX-Bold-5d" transform="translate(423.412204 0) scale(0.996264)"/>
     </g>
    </g>
   </g>
   <g id="matplotlib.axis_8">
    <g id="ytick_12">
     <g id="line2d_41">
      <g>
       <use xlink:href="#m7cb7878592" x="271.235357" y="301.272936" style="stroke: #000000; stroke-width: 0.8"/>
      </g>
     </g>
     <g id="text_36">
      <!-- $\mathdefault{0}$ -->
      <g transform="translate(259.254037 304.692607) scale(0.1 -0.1)">
       <use xlink:href="#TeXGyreTermesX-Bold-30" transform="scale(0.996264)"/>
      </g>
     </g>
    </g>
    <g id="ytick_13">
     <g id="line2d_42">
      <g>
       <use xlink:href="#m7cb7878592" x="271.235357" y="276.562788" style="stroke: #000000; stroke-width: 0.8"/>
      </g>
     </g>
     <g id="text_37">
      <!-- $\mathdefault{200}$ -->
      <g transform="translate(249.291397 279.982459) scale(0.1 -0.1)">
       <use xlink:href="#TeXGyreTermesX-Bold-32" transform="scale(0.996264)"/>
       <use xlink:href="#TeXGyreTermesX-Bold-30" transform="translate(49.8132 0) scale(0.996264)"/>
       <use xlink:href="#TeXGyreTermesX-Bold-30" transform="translate(99.626401 0) scale(0.996264)"/>
      </g>
     </g>
    </g>
    <g id="ytick_14">
     <g id="line2d_43">
      <g>
       <use xlink:href="#m7cb7878592" x="271.235357" y="251.85264" style="stroke: #000000; stroke-width: 0.8"/>
      </g>
     </g>
     <g id="text_38">
      <!-- $\mathdefault{400}$ -->
      <g transform="translate(249.291397 255.272312) scale(0.1 -0.1)">
       <use xlink:href="#TeXGyreTermesX-Bold-34" transform="scale(0.996264)"/>
       <use xlink:href="#TeXGyreTermesX-Bold-30" transform="translate(49.8132 0) scale(0.996264)"/>
       <use xlink:href="#TeXGyreTermesX-Bold-30" transform="translate(99.626401 0) scale(0.996264)"/>
      </g>
     </g>
    </g>
    <g id="ytick_15">
     <g id="line2d_44">
      <g>
       <use xlink:href="#m7cb7878592" x="271.235357" y="227.142493" style="stroke: #000000; stroke-width: 0.8"/>
      </g>
     </g>
     <g id="text_39">
      <!-- $\mathdefault{600}$ -->
      <g transform="translate(249.291397 230.562164) scale(0.1 -0.1)">
       <use xlink:href="#TeXGyreTermesX-Bold-36" transform="scale(0.996264)"/>
       <use xlink:href="#TeXGyreTermesX-Bold-30" transform="translate(49.8132 0) scale(0.996264)"/>
       <use xlink:href="#TeXGyreTermesX-Bold-30" transform="translate(99.626401 0) scale(0.996264)"/>
      </g>
     </g>
    </g>
    <g id="ytick_16">
     <g id="line2d_45">
      <g>
       <use xlink:href="#m7cb7878592" x="271.235357" y="202.432345" style="stroke: #000000; stroke-width: 0.8"/>
      </g>
     </g>
     <g id="text_40">
      <!-- $\mathdefault{800}$ -->
      <g transform="translate(249.291397 205.852017) scale(0.1 -0.1)">
       <defs>
        <path id="TeXGyreTermesX-Bold-38" d="M 3021 1212 
C 3021 1768 2746 2164 2061 2597 
C 2675 2815 2931 3075 2931 3483 
C 2931 4051 2445 4409 1683 4409 
C 819 4409 250 3961 250 3292 
C 250 2814 506 2462 1139 2086 
C 774 1965 627 1881 461 1722 
C 275 1543 179 1301 179 1020 
C 179 370 723 -64 1536 -64 
C 2426 -64 3021 447 3021 1212 
z
M 2170 3439 
C 2170 3139 2118 2993 1907 2712 
C 1370 2986 1075 3337 1075 3694 
C 1075 3994 1306 4224 1606 4224 
C 1965 4224 2170 3937 2170 3439 
z
M 2131 829 
C 2131 402 1920 140 1574 140 
C 1184 140 954 478 954 1046 
C 954 1397 1024 1595 1280 1971 
C 1978 1505 2131 1301 2131 829 
z
" transform="scale(0.015625)"/>
       </defs>
       <use xlink:href="#TeXGyreTermesX-Bold-38" transform="scale(0.996264)"/>
       <use xlink:href="#TeXGyreTermesX-Bold-30" transform="translate(49.8132 0) scale(0.996264)"/>
       <use xlink:href="#TeXGyreTermesX-Bold-30" transform="translate(99.626401 0) scale(0.996264)"/>
      </g>
     </g>
    </g>
   </g>
   <g id="line2d_46">
    <path d="M 279.688296 254.504349 
L 279.688296 280.477236 
L 279.764894 293.900107 
L 279.982305 258.472429 
L 279.982305 227.065978 
L 280.12908 301.049516 
L 280.12908 286.750697 
L 280.276313 233.581745 
L 280.276313 245.966965 
L 280.276313 223.120444 
L 280.393917 250.653508 
L 280.493265 267.760077 
L 280.493265 262.621439 
L 280.493265 230.672514 
L 280.493265 274.23923 
L 280.570322 218.701445 
L 280.857451 239.385857 
L 281.15834 211.576938 
L 281.15834 214.733365 
L 281.746358 207.744134 
L 281.950008 202.521713 
L 282.67838 197.606494 
L 283.406751 193.80837 
L 284.863494 196.26598 
L 287.412794 198.723589 
L 291.44865 199.377552 
L 297.916845 200.558137 
L 304.38504 202.52578 
L 309.971209 205.55718 
L 312.911297 207.969593 
" clip-path="url(#p1ada4e9de1)" style="fill: none; stroke: #000033; stroke-linecap: square"/>
   </g>
   <g id="line2d_47">
    <path d="M 279.764894 298.824182 
L 280.493265 290.81008 
L 280.493265 283.018592 
L 280.493265 274.781876 
L 280.857451 266.767775 
L 281.950008 261.870268 
L 283.770937 257.863217 
L 286.320237 254.07878 
L 289.597908 250.516957 
L 294.696508 245.396836 
L 300.887665 241.612399 
L 310.356493 237.16012 
L 320.189507 234.488753 
L 332.571821 232.930455 
" clip-path="url(#p1ada4e9de1)" style="fill: none; stroke-dasharray: 5,1; stroke-dashoffset: 0; stroke: #000033"/>
   </g>
   <g id="line2d_48">
    <path d="M 279.982305 258.472429 
L 280.12908 269.324011 
L 280.12908 301.049516 
L 280.493265 277.590516 
L 280.493265 287.644373 
L 280.493265 296.134297 
L 280.857451 263.515115 
L 281.585822 253.461258 
L 282.67838 245.194753 
L 283.406751 236.481409 
L 286.684422 232.013028 
L 288.505351 231.789609 
L 292.875579 232.236447 
L 299.066736 233.130124 
L 307.443008 233.130124 
L 318.368579 232.906705 
L 328.565779 233.800381 
L 335.485307 235.140895 
L 339.127164 238.939019 
" clip-path="url(#p1ada4e9de1)" style="fill: none; stroke: #990000; stroke-linecap: square"/>
   </g>
   <g id="line2d_49">
    <path d="M 280.493265 300.159866 
L 280.857451 294.594517 
L 280.857451 289.029169 
L 283.042565 285.912574 
L 287.412794 281.905523 
L 291.054651 279.011541 
L 295.789065 275.894946 
L 301.980222 272.333123 
L 311.44905 268.993914 
L 320.189507 266.767775 
L 331.115079 264.096407 
L 343.861578 262.760724 
L 355.879707 261.647654 
L 374.453178 260.534584 
L 389.020606 260.089356 
L 403.95222 260.31197 
L 416.334534 261.202426 
L 428.716848 262.760724 
L 438.185676 266.322547 
L 444.012648 270.106984 
L 448.747062 275.227104 
" clip-path="url(#p1ada4e9de1)" style="fill: none; stroke-dasharray: 5,1; stroke-dashoffset: 0; stroke: #990000"/>
   </g>
   <g id="patch_18">
    <path d="M 271.235357 306.411574 
L 271.235357 188.446313 
" style="fill: none; stroke: #000000; stroke-width: 0.8; stroke-linejoin: miter; stroke-linecap: square"/>
   </g>
   <g id="patch_19">
    <path d="M 457.2 306.411574 
L 457.2 188.446313 
" style="fill: none; stroke: #000000; stroke-width: 0.8; stroke-linejoin: miter; stroke-linecap: square"/>
   </g>
   <g id="patch_20">
    <path d="M 271.235357 306.411574 
L 457.2 306.411574 
" style="fill: none; stroke: #000000; stroke-width: 0.8; stroke-linejoin: miter; stroke-linecap: square"/>
   </g>
   <g id="patch_21">
    <path d="M 271.235357 188.446313 
L 457.2 188.446313 
" style="fill: none; stroke: #000000; stroke-width: 0.8; stroke-linejoin: miter; stroke-linecap: square"/>
   </g>
   <g id="text_41">
    <!-- \textbf{W-1\%TaC (Xie \textit{et al.})} -->
    <g transform="translate(309.122284 182.446313) scale(0.12 -0.12)">
     <defs>
      <path id="TeXGyreTermesX-Bold-43" d="M 4397 800 
L 4205 959 
C 3827 565 3622 413 3309 292 
C 3123 216 2912 177 2733 177 
C 2310 177 1907 399 1722 729 
C 1536 1064 1446 1513 1446 2153 
C 1446 3463 1850 4160 2624 4160 
C 2925 4160 3200 4047 3475 3809 
C 3750 3570 3898 3357 4122 2880 
L 4282 2880 
L 4282 4369 
L 4109 4369 
C 4013 4127 3949 4059 3827 4059 
C 3763 4059 3680 4084 3533 4148 
C 3162 4300 2848 4370 2541 4370 
C 1267 4370 314 3394 314 2095 
C 314 790 1248 -128 2579 -128 
C 3315 -128 3750 95 4397 800 
z
" transform="scale(0.015625)"/>
      <path id="TeXGyreTermesX-Bold-58" d="M 4474 0 
L 4474 159 
C 4256 159 4160 242 3853 700 
L 2688 2499 
L 3200 3203 
C 3763 3964 3930 4085 4403 4129 
L 4403 4288 
L 2803 4288 
L 2803 4129 
C 2861 4119 2912 4119 2931 4110 
C 3187 4110 3264 4053 3264 3900 
C 3264 3765 3194 3632 2893 3225 
L 2534 2734 
L 1914 3686 
C 1830 3812 1818 3844 1818 3920 
C 1818 4058 1894 4110 2125 4110 
C 2157 4110 2234 4110 2323 4129 
L 2323 4288 
L 109 4288 
L 109 4129 
C 339 4110 422 4047 621 3761 
L 1888 1916 
L 768 514 
C 576 280 422 197 102 159 
L 102 0 
L 1702 0 
L 1702 159 
C 1312 197 1184 261 1184 419 
C 1184 559 1312 761 1786 1395 
L 2029 1719 
L 2675 675 
C 2752 552 2810 398 2810 327 
C 2810 218 2701 159 2477 159 
C 2451 159 2381 159 2298 159 
L 2298 0 
L 4474 0 
z
" transform="scale(0.015625)"/>
     </defs>
     <use xlink:href="#TeXGyreTermesX-Bold-57" transform="scale(0.996264)"/>
     <use xlink:href="#TeXGyreTermesX-Bold-2d" transform="translate(94.645051 0) scale(0.996264)"/>
     <use xlink:href="#TeXGyreTermesX-Bold-31" transform="translate(127.82066 0) scale(0.996264)"/>
     <use xlink:href="#TeXGyreTermesX-Bold-25" transform="translate(177.633861 0) scale(0.996264)"/>
     <use xlink:href="#TeXGyreTermesX-Bold-54" transform="translate(277.260262 0) scale(0.996264)"/>
     <use xlink:href="#TeXGyreTermesX-Bold-61" transform="translate(337.235367 0) scale(0.996264)"/>
     <use xlink:href="#TeXGyreTermesX-Bold-43" transform="translate(387.048568 0) scale(0.996264)"/>
     <use xlink:href="#TeXGyreTermesX-Bold-28" transform="translate(483.885442 0) scale(0.996264)"/>
     <use xlink:href="#TeXGyreTermesX-Bold-58" transform="translate(517.061052 0) scale(0.996264)"/>
     <use xlink:href="#TeXGyreTermesX-Bold-69" transform="translate(588.991325 0) scale(0.996264)"/>
     <use xlink:href="#TeXGyreTermesX-Bold-65" transform="translate(616.687453 0) scale(0.996264)"/>
     <use xlink:href="#TeXGyreTermesX-BoldItalic-65" transform="translate(685.828199 0) scale(0.996264)"/>
     <use xlink:href="#TeXGyreTermesX-BoldItalic-74" transform="translate(730.062346 0) scale(0.996264)"/>
     <use xlink:href="#TeXGyreTermesX-BoldItalic-61" transform="translate(782.665073 0) scale(0.996264)"/>
     <use xlink:href="#TeXGyreTermesX-BoldItalic-6c" transform="translate(832.478274 0) scale(0.996264)"/>
     <use xlink:href="#TeXGyreTermesX-BoldItalic-2e" transform="translate(860.174401 0) scale(0.996264)"/>
     <use xlink:href="#TeXGyreTermesX-Bold-29" transform="translate(885.081001 0) scale(0.996264)"/>
    </g>
   </g>
  </g>
  <g id="axes_5">
   <g id="legend_1">
    <g id="patch_22">
     <path d="M 85.47262 385.401401 
L 419.272815 385.401401 
Q 421.672815 385.401401 421.672815 383.001401 
L 421.672815 350.212881 
Q 421.672815 347.812881 419.272815 347.812881 
L 85.47262 347.812881 
Q 83.07262 347.812881 83.07262 350.212881 
L 83.07262 383.001401 
Q 83.07262 385.401401 85.47262 385.401401 
z
" style="fill: #ffffff; opacity: 0.8; stroke: #000000; stroke-linejoin: miter"/>
    </g>
    <g id="line2d_50">
     <path d="M 87.87262 356.812881 
L 99.87262 356.812881 
L 111.87262 356.812881 
" style="fill: none; stroke: #000000; stroke-width: 1.5; stroke-linecap: square"/>
    </g>
    <g id="text_42">
     <!-- \textbf{As Recieved} -->
     <g transform="translate(121.47262 361.012881) scale(0.12 -0.12)">
      <defs>
       <path id="TeXGyreTermesX-Bold-41" d="M 4410 0 
L 4410 159 
C 4128 159 4058 248 3712 1042 
L 2285 4384 
L 2106 4384 
L 685 902 
C 442 305 365 216 58 159 
L 58 0 
L 1357 0 
L 1357 159 
C 979 159 832 232 832 406 
C 832 492 877 647 1018 1013 
L 1114 1280 
L 2554 1280 
C 2771 761 2848 532 2848 387 
C 2848 243 2765 184 2541 184 
L 2336 159 
L 2336 0 
L 4410 0 
z
M 2458 1528 
L 1210 1528 
L 1811 3057 
L 2458 1528 
z
" transform="scale(0.015625)"/>
       <path id="TeXGyreTermesX-Bold-52" d="M 4576 0 
L 4576 159 
C 4461 159 4378 197 4314 280 
L 3027 2086 
C 3405 2207 3565 2290 3744 2448 
C 3930 2620 4032 2873 4032 3159 
C 4032 3889 3398 4288 2227 4288 
L 166 4288 
L 166 4110 
C 640 4110 730 4015 730 3557 
L 730 744 
C 730 280 666 216 166 159 
L 166 0 
L 2330 0 
L 2330 159 
C 1830 223 1766 292 1766 742 
L 1766 1984 
L 1939 1984 
L 3264 0 
L 4576 0 
z
M 2938 3130 
C 2938 2723 2842 2474 2637 2340 
C 2470 2232 2253 2187 1766 2187 
L 1766 3805 
C 1766 3843 1792 3938 1811 3977 
C 1850 4040 1952 4072 2112 4072 
C 2701 4072 2938 3799 2938 3130 
z
" transform="scale(0.015625)"/>
       <path id="TeXGyreTermesX-Bold-63" d="M 2752 601 
L 2637 715 
C 2400 450 2234 362 1971 362 
C 1414 362 1062 911 1062 1769 
C 1062 2418 1267 2816 1600 2816 
C 1702 2816 1798 2765 1837 2696 
C 1869 2639 1869 2639 1869 2374 
C 1875 2059 1984 1920 2227 1920 
C 2496 1920 2662 2072 2662 2318 
C 2662 2710 2234 3013 1677 3013 
C 800 3013 160 2349 160 1433 
C 160 555 730 -64 1530 -64 
C 2022 -64 2381 132 2752 601 
z
" transform="scale(0.015625)"/>
       <path id="TeXGyreTermesX-Bold-76" d="M 3104 2758 
L 3104 2911 
L 2138 2911 
L 2138 2752 
C 2413 2752 2490 2707 2490 2554 
C 2490 2484 2464 2383 2419 2269 
L 1958 1113 
L 1453 2398 
C 1408 2518 1395 2556 1395 2594 
C 1395 2688 1459 2733 1619 2746 
L 1734 2758 
L 1734 2911 
L 134 2911 
L 134 2758 
C 282 2739 320 2720 358 2663 
C 371 2669 672 2037 774 1777 
L 1542 -96 
L 1709 -96 
L 2733 2410 
C 2854 2688 2906 2739 3104 2758 
z
" transform="scale(0.015625)"/>
      </defs>
      <use xlink:href="#TeXGyreTermesX-Bold-41" transform="scale(0.996264)"/>
      <use xlink:href="#TeXGyreTermesX-Bold-73" transform="translate(71.930274 0) scale(0.996264)"/>
      <use xlink:href="#TeXGyreTermesX-Bold-52" transform="translate(135.591538 0) scale(0.996264)"/>
      <use xlink:href="#TeXGyreTermesX-Bold-65" transform="translate(205.529238 0) scale(0.996264)"/>
      <use xlink:href="#TeXGyreTermesX-Bold-63" transform="translate(249.763384 0) scale(0.996264)"/>
      <use xlink:href="#TeXGyreTermesX-Bold-69" transform="translate(293.997531 0) scale(0.996264)"/>
      <use xlink:href="#TeXGyreTermesX-Bold-65" transform="translate(321.693658 0) scale(0.996264)"/>
      <use xlink:href="#TeXGyreTermesX-Bold-76" transform="translate(362.939027 0) scale(0.996264)"/>
      <use xlink:href="#TeXGyreTermesX-Bold-65" transform="translate(409.265319 0) scale(0.996264)"/>
      <use xlink:href="#TeXGyreTermesX-Bold-64" transform="translate(453.499466 0) scale(0.996264)"/>
     </g>
    </g>
    <g id="line2d_51">
     <path d="M 87.87262 373.807141 
L 99.87262 373.807141 
L 111.87262 373.807141 
" style="fill: none; stroke-dasharray: 7.5,1.5; stroke-dashoffset: 0; stroke: #000000; stroke-width: 1.5"/>
    </g>
    <g id="text_43">
     <!-- \textbf{Recrystallized} -->
     <g transform="translate(121.47262 378.007141) scale(0.12 -0.12)">
      <defs>
       <path id="TeXGyreTermesX-Bold-79" d="M 3072 2791 
L 3072 2944 
L 2106 2944 
L 2106 2785 
C 2381 2785 2458 2740 2458 2587 
C 2458 2517 2445 2460 2387 2301 
L 1952 1080 
L 1491 2253 
C 1363 2576 1363 2576 1363 2627 
C 1363 2715 1440 2772 1600 2785 
L 1702 2785 
L 1702 2944 
L 102 2944 
L 102 2791 
C 250 2772 288 2753 326 2696 
C 346 2696 634 2076 742 1808 
L 1510 -61 
L 1395 -397 
C 1286 -714 1120 -917 973 -917 
C 915 -917 864 -866 864 -809 
C 864 -809 864 -790 870 -771 
C 877 -740 883 -708 883 -683 
C 883 -500 730 -372 512 -372 
C 275 -372 102 -538 102 -778 
C 102 -1070 358 -1280 723 -1280 
C 941 -1280 1126 -1203 1261 -1071 
C 1395 -925 1523 -671 1747 -75 
L 2701 2442 
C 2810 2709 2874 2772 3072 2791 
z
" transform="scale(0.015625)"/>
       <path id="TeXGyreTermesX-Bold-6c" d="M 1632 0 
L 1632 153 
C 1421 153 1318 274 1318 528 
L 1318 4288 
L 102 4288 
L 102 4136 
C 326 4117 429 4002 429 3768 
L 429 533 
C 429 299 320 172 102 153 
L 102 0 
L 1632 0 
z
" transform="scale(0.015625)"/>
      </defs>
      <use xlink:href="#TeXGyreTermesX-Bold-52" transform="scale(0.996264)"/>
      <use xlink:href="#TeXGyreTermesX-Bold-65" transform="translate(69.9377 0) scale(0.996264)"/>
      <use xlink:href="#TeXGyreTermesX-Bold-63" transform="translate(114.171846 0) scale(0.996264)"/>
      <use xlink:href="#TeXGyreTermesX-Bold-72" transform="translate(158.405993 0) scale(0.996264)"/>
      <use xlink:href="#TeXGyreTermesX-Bold-79" transform="translate(202.640139 0) scale(0.996264)"/>
      <use xlink:href="#TeXGyreTermesX-Bold-73" transform="translate(249.96271 0) scale(0.996264)"/>
      <use xlink:href="#TeXGyreTermesX-Bold-74" transform="translate(288.717374 0) scale(0.996264)"/>
      <use xlink:href="#TeXGyreTermesX-Bold-61" transform="translate(322.889263 0) scale(0.996264)"/>
      <use xlink:href="#TeXGyreTermesX-Bold-6c" transform="translate(372.702463 0) scale(0.996264)"/>
      <use xlink:href="#TeXGyreTermesX-Bold-6c" transform="translate(400.398591 0) scale(0.996264)"/>
      <use xlink:href="#TeXGyreTermesX-Bold-69" transform="translate(428.094718 0) scale(0.996264)"/>
      <use xlink:href="#TeXGyreTermesX-Bold-7a" transform="translate(455.790845 0) scale(0.996264)"/>
      <use xlink:href="#TeXGyreTermesX-Bold-65" transform="translate(500.024992 0) scale(0.996264)"/>
      <use xlink:href="#TeXGyreTermesX-Bold-64" transform="translate(544.259138 0) scale(0.996264)"/>
     </g>
    </g>
    <g id="line2d_52">
     <path d="M 217.430773 356.812881 
L 229.430773 356.812881 
L 241.430773 356.812881 
" style="fill: none; stroke: #000033; stroke-width: 1.5; stroke-linecap: square"/>
    </g>
    <g id="text_44">
     <!-- \textbf{Low Temperature} -->
     <g transform="translate(251.030773 361.012881) scale(0.12 -0.12)">
      <defs>
       <path id="TeXGyreTermesX-Bold-4c" d="M 4083 1441 
L 3898 1441 
C 3680 946 3558 749 3334 546 
C 3072 312 2714 197 2214 197 
C 1824 197 1709 280 1709 553 
L 1709 3557 
C 1709 4034 1798 4117 2355 4117 
L 2355 4288 
L 122 4288 
L 122 4117 
C 557 4117 672 4015 672 3691 
L 672 611 
C 672 286 589 216 122 159 
L 122 0 
L 3821 0 
L 4083 1441 
z
" transform="scale(0.015625)"/>
       <path id="TeXGyreTermesX-Bold-77" d="M 4525 2792 
L 4525 2944 
L 3661 2944 
L 3661 2792 
C 3898 2767 3968 2716 3968 2571 
C 3968 2494 3885 2260 3686 1760 
L 3462 1165 
L 3245 1969 
C 3117 2406 3072 2583 3072 2641 
C 3072 2741 3136 2773 3379 2792 
L 3379 2944 
L 1882 2944 
L 1882 2792 
C 2131 2767 2138 2760 2259 2343 
L 2298 2222 
L 1862 1139 
L 1709 1544 
C 1651 1678 1606 1798 1574 1887 
C 1395 2330 1325 2532 1325 2615 
C 1325 2716 1389 2767 1568 2792 
L 1568 2944 
L 147 2944 
L 147 2792 
C 314 2760 339 2722 512 2305 
L 1459 -64 
L 1613 -64 
L 2413 1899 
L 3066 -64 
L 3213 -64 
L 4205 2475 
C 4307 2710 4358 2760 4525 2792 
z
" transform="scale(0.015625)"/>
       <path id="TeXGyreTermesX-Bold-6d" d="M 5210 0 
L 5210 159 
C 4960 159 4890 236 4890 510 
L 4890 2109 
C 4890 2657 4550 3008 4026 3008 
C 3661 3008 3418 2862 3085 2455 
C 2893 2856 2669 3008 2266 3008 
C 1862 3008 1568 2836 1325 2455 
L 1325 2932 
L 102 2932 
L 102 2779 
C 384 2741 454 2665 454 2404 
L 454 534 
C 454 273 384 204 102 153 
L 102 0 
L 1638 0 
L 1638 153 
C 1414 184 1344 273 1344 515 
L 1344 2213 
C 1344 2251 1446 2372 1530 2436 
C 1664 2538 1773 2582 1882 2582 
C 2131 2582 2227 2436 2227 2054 
L 2227 515 
C 2227 254 2157 172 1920 153 
L 1920 0 
L 3418 0 
L 3418 153 
C 3194 178 3117 273 3117 515 
L 3117 2213 
C 3117 2245 3219 2366 3302 2429 
C 3443 2538 3552 2582 3661 2582 
C 3904 2582 4000 2429 4000 2054 
L 4000 515 
C 4000 248 3930 172 3686 153 
L 3686 0 
L 5210 0 
z
" transform="scale(0.015625)"/>
      </defs>
      <use xlink:href="#TeXGyreTermesX-Bold-4c" transform="scale(0.996264)"/>
      <use xlink:href="#TeXGyreTermesX-Bold-6f" transform="translate(66.450791 0) scale(0.996264)"/>
      <use xlink:href="#TeXGyreTermesX-Bold-77" transform="translate(112.278936 0) scale(0.996264)"/>
      <use xlink:href="#TeXGyreTermesX-Bold-54" transform="translate(209.11581 0) scale(0.996264)"/>
      <use xlink:href="#TeXGyreTermesX-Bold-65" transform="translate(267.098342 0) scale(0.996264)"/>
      <use xlink:href="#TeXGyreTermesX-Bold-6d" transform="translate(311.332488 0) scale(0.996264)"/>
      <use xlink:href="#TeXGyreTermesX-Bold-70" transform="translate(392.826857 0) scale(0.996264)"/>
      <use xlink:href="#TeXGyreTermesX-Bold-65" transform="translate(448.219111 0) scale(0.996264)"/>
      <use xlink:href="#TeXGyreTermesX-Bold-72" transform="translate(492.453258 0) scale(0.996264)"/>
      <use xlink:href="#TeXGyreTermesX-Bold-61" transform="translate(536.687404 0) scale(0.996264)"/>
      <use xlink:href="#TeXGyreTermesX-Bold-74" transform="translate(586.500604 0) scale(0.996264)"/>
      <use xlink:href="#TeXGyreTermesX-Bold-75" transform="translate(619.676214 0) scale(0.996264)"/>
      <use xlink:href="#TeXGyreTermesX-Bold-72" transform="translate(675.068469 0) scale(0.996264)"/>
      <use xlink:href="#TeXGyreTermesX-Bold-65" transform="translate(718.306321 0) scale(0.996264)"/>
     </g>
    </g>
    <g id="line2d_53">
     <path d="M 217.430773 373.807141 
L 229.430773 373.807141 
L 241.430773 373.807141 
" style="fill: none; stroke: #990000; stroke-width: 1.5; stroke-linecap: square"/>
    </g>
    <g id="text_45">
     <!-- \textbf{High Temperature} -->
     <g transform="translate(251.030773 378.007141) scale(0.12 -0.12)">
      <defs>
       <path id="TeXGyreTermesX-Bold-48" d="M 4858 -32 
L 4858 128 
C 4397 185 4294 269 4294 582 
L 4294 3675 
C 4294 3994 4422 4096 4858 4128 
L 4858 4288 
L 2682 4288 
L 2682 4128 
C 3130 4096 3258 3994 3258 3674 
L 3258 2347 
L 1715 2347 
L 1715 3674 
C 1715 3994 1843 4096 2291 4128 
L 2291 4288 
L 134 4288 
L 134 4128 
C 563 4090 678 3994 678 3675 
L 678 582 
C 678 269 582 185 134 128 
L 134 -32 
L 2291 -32 
L 2291 128 
C 1824 179 1715 268 1715 581 
L 1715 2048 
L 3258 2048 
L 3258 581 
C 3258 268 3149 179 2682 128 
L 2682 -32 
L 4858 -32 
z
" transform="scale(0.015625)"/>
      </defs>
      <use xlink:href="#TeXGyreTermesX-Bold-48" transform="scale(0.996264)"/>
      <use xlink:href="#TeXGyreTermesX-Bold-69" transform="translate(77.509328 0) scale(0.996264)"/>
      <use xlink:href="#TeXGyreTermesX-Bold-67" transform="translate(105.205455 0) scale(0.996264)"/>
      <use xlink:href="#TeXGyreTermesX-Bold-68" transform="translate(155.018656 0) scale(0.996264)"/>
      <use xlink:href="#TeXGyreTermesX-Bold-54" transform="translate(235.317511 0) scale(0.996264)"/>
      <use xlink:href="#TeXGyreTermesX-Bold-65" transform="translate(293.300042 0) scale(0.996264)"/>
      <use xlink:href="#TeXGyreTermesX-Bold-6d" transform="translate(337.534189 0) scale(0.996264)"/>
      <use xlink:href="#TeXGyreTermesX-Bold-70" transform="translate(419.028557 0) scale(0.996264)"/>
      <use xlink:href="#TeXGyreTermesX-Bold-65" transform="translate(474.420812 0) scale(0.996264)"/>
      <use xlink:href="#TeXGyreTermesX-Bold-72" transform="translate(518.654958 0) scale(0.996264)"/>
      <use xlink:href="#TeXGyreTermesX-Bold-61" transform="translate(562.889105 0) scale(0.996264)"/>
      <use xlink:href="#TeXGyreTermesX-Bold-74" transform="translate(612.702305 0) scale(0.996264)"/>
      <use xlink:href="#TeXGyreTermesX-Bold-75" transform="translate(645.877915 0) scale(0.996264)"/>
      <use xlink:href="#TeXGyreTermesX-Bold-72" transform="translate(701.27017 0) scale(0.996264)"/>
      <use xlink:href="#TeXGyreTermesX-Bold-65" transform="translate(744.508022 0) scale(0.996264)"/>
     </g>
    </g>
    <g id="line2d_54">
     <defs>
      <path id="md59cd6a044" d="M 0 3 
C 0.795609 3 1.55874 2.683901 2.12132 2.12132 
C 2.683901 1.55874 3 0.795609 3 0 
C 3 -0.795609 2.683901 -1.55874 2.12132 -2.12132 
C 1.55874 -2.683901 0.795609 -3 0 -3 
C -0.795609 -3 -1.55874 -2.683901 -2.12132 -2.12132 
C -2.683901 -1.55874 -3 -0.795609 -3 0 
C -3 0.795609 -2.683901 1.55874 -2.12132 2.12132 
C -1.55874 2.683901 -0.795609 3 0 3 
z
" style="stroke: #000000"/>
     </defs>
     <g>
      <use xlink:href="#md59cd6a044" x="381.679822" y="356.812881" style="fill: #ffffff; stroke: #000000"/>
     </g>
    </g>
    <g id="text_46">
     <!-- $\varepsilon_{u}$ -->
     <g transform="translate(403.279822 361.012881) scale(0.12 -0.12)">
      <defs>
       <path id="NewTXBMI-39" d="M 3264 2330 
C 3264 2829 2394 2944 2022 2944 
C 1491 2944 634 2715 634 2040 
C 634 1759 851 1628 1088 1543 
C 659 1485 109 1219 109 724 
C 109 70 896 -64 1402 -64 
C 1907 -64 2515 86 2854 495 
C 2938 592 3008 715 3008 844 
C 3008 1000 2874 1117 2726 1117 
C 2298 1117 2291 135 1472 135 
C 1114 135 973 338 973 673 
C 973 1021 1197 1344 1574 1344 
C 1760 1344 1939 1274 2131 1274 
C 2298 1274 2362 1370 2362 1530 
C 2362 1677 2272 1728 2138 1728 
C 2029 1728 1926 1671 1818 1671 
C 1632 1671 1414 1730 1414 1961 
C 1414 2337 1587 2739 2010 2739 
C 2618 2739 2496 2029 2976 2029 
C 3174 2029 3264 2138 3264 2330 
z
" transform="scale(0.015625)"/>
       <path id="NewTXBMI-75" d="M 3149 757 
L 3014 840 
C 2790 499 2662 372 2554 372 
C 2502 372 2464 416 2464 481 
C 2464 558 2534 866 2624 1156 
L 3123 2880 
L 2368 2880 
C 2010 1638 1830 1214 1459 751 
C 1261 507 1120 397 992 397 
C 902 397 858 448 858 558 
C 858 654 864 693 954 983 
L 1555 2963 
C 1517 2954 1472 2947 1376 2923 
C 902 2818 525 2752 218 2752 
L 218 2560 
C 512 2560 576 2528 576 2401 
C 576 2299 544 2121 486 1937 
L 230 1092 
C 141 775 96 565 96 406 
C 96 95 256 -64 576 -64 
C 1005 -64 1197 102 1856 1017 
C 1741 667 1702 502 1702 318 
C 1702 57 1837 -64 2118 -64 
C 2502 -64 2816 191 3149 757 
z
" transform="scale(0.015625)"/>
      </defs>
      <use xlink:href="#NewTXBMI-39" transform="scale(0.996264)"/>
      <use xlink:href="#NewTXBMI-75" transform="translate(55.333515 -14.943915) scale(0.727268)"/>
     </g>
    </g>
    <g id="line2d_55">
     <defs>
      <path id="m29d0b5415d" d="M 0 -3 
L -3 3 
L 3 3 
z
" style="stroke: #000000; stroke-linejoin: miter"/>
     </defs>
     <g>
      <use xlink:href="#m29d0b5415d" x="381.679822" y="373.807141" style="fill: #ffffff; stroke: #000000; stroke-linejoin: miter"/>
     </g>
    </g>
    <g id="text_47">
     <!-- $\varepsilon_{tr}$ -->
     <g transform="translate(403.279822 378.007141) scale(0.12 -0.12)">
      <defs>
       <path id="NewTXBMI-74" d="M 1440 837 
L 1299 926 
C 1082 588 915 415 813 415 
C 762 415 710 460 710 511 
C 710 632 826 1073 1056 1864 
L 1267 2624 
L 1798 2624 
L 1798 2893 
L 1338 2893 
L 1587 3808 
L 1363 3808 
C 1018 3303 698 3037 192 2848 
L 192 2624 
L 518 2624 
L 83 1105 
C -13 773 -70 499 -70 383 
C -70 135 109 -32 378 -32 
C 762 -32 1018 180 1440 837 
z
" transform="scale(0.015625)"/>
       <path id="NewTXBMI-72" d="M 2490 2515 
C 2490 2771 2342 2938 2125 2938 
C 1798 2938 1536 2617 1030 1597 
L 1453 2938 
C 1069 2842 947 2823 173 2759 
L 173 2579 
C 461 2579 518 2553 518 2431 
C 518 2270 320 1515 -134 -32 
L 640 -32 
L 851 638 
C 1043 1261 1139 1507 1312 1802 
C 1485 2111 1638 2291 1728 2291 
C 1754 2291 1792 2266 1830 2208 
C 1926 2099 2010 2048 2118 2048 
C 2330 2048 2490 2247 2490 2515 
z
" transform="scale(0.015625)"/>
      </defs>
      <use xlink:href="#NewTXBMI-39" transform="scale(0.996264)"/>
      <use xlink:href="#NewTXBMI-74" transform="translate(57.442549 -14.943915) scale(0.727268)"/>
      <use xlink:href="#NewTXBMI-72" transform="translate(84.715094 -14.943915) scale(0.727268)"/>
     </g>
    </g>
   </g>
  </g>
 </g>
 <defs>
  <clipPath id="p5bee0c9049">
   <rect x="47.545435" y="25.031142" width="185.964643" height="117.965261"/>
  </clipPath>
  <clipPath id="p40807c6a29">
   <rect x="271.235357" y="25.031142" width="185.964643" height="117.965261"/>
  </clipPath>
  <clipPath id="p28f79eec6f">
   <rect x="47.545435" y="188.446313" width="185.964643" height="117.965261"/>
  </clipPath>
  <clipPath id="p1ada4e9de1">
   <rect x="271.235357" y="188.446313" width="185.964643" height="117.965261"/>
  </clipPath>
 </defs>
</svg>
